<?xml version="1.0" encoding="utf-8" standalone="no"?>
<!DOCTYPE svg PUBLIC "-//W3C//DTD SVG 1.1//EN"
  "http://www.w3.org/Graphics/SVG/1.1/DTD/svg11.dtd">
<svg xmlns:xlink="http://www.w3.org/1999/xlink" width="576pt" height="576pt" viewBox="0 0 576 576" xmlns="http://www.w3.org/2000/svg" version="1.1">
 <metadata>
  <rdf:RDF xmlns:dc="http://purl.org/dc/elements/1.1/" xmlns:cc="http://creativecommons.org/ns#" xmlns:rdf="http://www.w3.org/1999/02/22-rdf-syntax-ns#">
   <cc:Work>
    <dc:type rdf:resource="http://purl.org/dc/dcmitype/StillImage"/>
    <dc:date>2025-11-13T12:57:14.653419</dc:date>
    <dc:format>image/svg+xml</dc:format>
    <dc:creator>
     <cc:Agent>
      <dc:title>Matplotlib v3.9.4, https://matplotlib.org/</dc:title>
     </cc:Agent>
    </dc:creator>
   </cc:Work>
  </rdf:RDF>
 </metadata>
 <defs>
  <style type="text/css">*{stroke-linejoin: round; stroke-linecap: butt}</style>
 </defs>
 <g id="figure_1">
  <g id="patch_1">
   <path d="M 0 576 
L 576 576 
L 576 0 
L 0 0 
z
" style="fill: #ffffff"/>
  </g>
  <g id="axes_1">
   <g id="patch_2">
    <path d="M 471.73 300.211498 
C 471.73 273.709225 466.50963 247.464654 456.36765 222.979747 
C 446.225669 198.49484 431.359314 176.245767 412.619377 157.505831 
C 393.879441 138.765894 371.630368 123.899539 347.145461 113.757558 
C 322.660554 103.615578 296.415983 98.395208 269.91371 98.395208 
C 243.411438 98.395208 217.166867 103.615578 192.68196 113.757558 
C 168.197053 123.899539 145.94798 138.765894 127.208043 157.505831 
C 108.468107 176.245767 93.601751 198.49484 83.459771 222.979747 
C 73.31779 247.464654 68.09742 273.709225 68.09742 300.211498 
C 68.09742 326.71377 73.31779 352.958341 83.459771 377.443248 
C 93.601751 401.928155 108.468107 424.177228 127.208043 442.917165 
C 145.94798 461.657101 168.197053 476.523457 192.68196 486.665437 
C 217.166867 496.807418 243.411438 502.027788 269.91371 502.027788 
C 296.415983 502.027788 322.660554 496.807418 347.145461 486.665437 
C 371.630368 476.523457 393.879441 461.657101 412.619377 442.917165 
C 431.359314 424.177228 446.225669 401.928155 456.36765 377.443248 
C 466.50963 352.958341 471.73 326.71377 471.73 300.211498 
M 269.91371 300.211498 
C 269.91371 300.211498 269.91371 300.211498 269.91371 300.211498 
C 269.91371 300.211498 269.91371 300.211498 269.91371 300.211498 
C 269.91371 300.211498 269.91371 300.211498 269.91371 300.211498 
C 269.91371 300.211498 269.91371 300.211498 269.91371 300.211498 
C 269.91371 300.211498 269.91371 300.211498 269.91371 300.211498 
C 269.91371 300.211498 269.91371 300.211498 269.91371 300.211498 
C 269.91371 300.211498 269.91371 300.211498 269.91371 300.211498 
C 269.91371 300.211498 269.91371 300.211498 269.91371 300.211498 
C 269.91371 300.211498 269.91371 300.211498 269.91371 300.211498 
C 269.91371 300.211498 269.91371 300.211498 269.91371 300.211498 
C 269.91371 300.211498 269.91371 300.211498 269.91371 300.211498 
C 269.91371 300.211498 269.91371 300.211498 269.91371 300.211498 
C 269.91371 300.211498 269.91371 300.211498 269.91371 300.211498 
C 269.91371 300.211498 269.91371 300.211498 269.91371 300.211498 
C 269.91371 300.211498 269.91371 300.211498 269.91371 300.211498 
C 269.91371 300.211498 269.91371 300.211498 269.91371 300.211498 
z
" style="fill: #ffffff"/>
   </g>
   <g id="PolyCollection_1">
    <path d="M 441.407102 300.211498 
L 360.307226 300.211498 
L 306.203197 254.70592 
L 254.750406 233.776721 
L 227.392719 279.734468 
L 223.368211 322.626629 
L 253.3081 372.965432 
L 314.256343 355.8154 
L 360.307226 300.211498 
L 441.407102 300.211498 
L 441.407102 300.211498 
L 366.041843 420.752364 
L 233.948859 457.783808 
L 147.6026 359.113424 
L 156.76078 245.719919 
L 234.710804 145.977487 
L 361.587447 185.256268 
L 441.407102 300.211498 
z
" clip-path="url(#p6ea91ff954)" style="fill: #1f77b4; fill-opacity: 0.15"/>
   </g>
   <g id="PolyCollection_2">
    <path d="M 305.288742 300.211498 
L 279.880071 300.211498 
L 281.29507 285.939724 
L 267.25289 288.553685 
L 265.525541 298.098267 
L 240.739055 314.261271 
L 267.630869 310.213278 
L 277.910232 310.238819 
L 279.880071 300.211498 
L 305.288742 300.211498 
L 305.288742 300.211498 
L 293.290901 329.525568 
L 262.771786 331.502313 
L 212.206868 328.001648 
L 235.744786 283.756611 
L 260.806297 260.309313 
L 300.305946 262.10084 
L 305.288742 300.211498 
z
" clip-path="url(#p6ea91ff954)" style="fill: #ff7f0e; fill-opacity: 0.15"/>
   </g>
   <g id="matplotlib.axis_1">
    <g id="xtick_1">
     <g id="line2d_1">
      <path d="M 269.91371 300.211498 
L 471.73 300.211498 
" clip-path="url(#p6ea91ff954)" style="fill: none; stroke: #b0b0b0; stroke-width: 0.8; stroke-linecap: square"/>
     </g>
     <g id="text_1">
      <!-- All prompt-based tasks -->
      <g transform="translate(405.111875 304.074623) scale(0.14 -0.14)">
       <defs>
        <path id="DejaVuSans-41" d="M 2188 4044 
L 1331 1722 
L 3047 1722 
L 2188 4044 
z
M 1831 4666 
L 2547 4666 
L 4325 0 
L 3669 0 
L 3244 1197 
L 1141 1197 
L 716 0 
L 50 0 
L 1831 4666 
z
" transform="scale(0.015625)"/>
        <path id="DejaVuSans-6c" d="M 603 4863 
L 1178 4863 
L 1178 0 
L 603 0 
L 603 4863 
z
" transform="scale(0.015625)"/>
        <path id="DejaVuSans-20" transform="scale(0.015625)"/>
        <path id="DejaVuSans-70" d="M 1159 525 
L 1159 -1331 
L 581 -1331 
L 581 3500 
L 1159 3500 
L 1159 2969 
Q 1341 3281 1617 3432 
Q 1894 3584 2278 3584 
Q 2916 3584 3314 3078 
Q 3713 2572 3713 1747 
Q 3713 922 3314 415 
Q 2916 -91 2278 -91 
Q 1894 -91 1617 61 
Q 1341 213 1159 525 
z
M 3116 1747 
Q 3116 2381 2855 2742 
Q 2594 3103 2138 3103 
Q 1681 3103 1420 2742 
Q 1159 2381 1159 1747 
Q 1159 1113 1420 752 
Q 1681 391 2138 391 
Q 2594 391 2855 752 
Q 3116 1113 3116 1747 
z
" transform="scale(0.015625)"/>
        <path id="DejaVuSans-72" d="M 2631 2963 
Q 2534 3019 2420 3045 
Q 2306 3072 2169 3072 
Q 1681 3072 1420 2755 
Q 1159 2438 1159 1844 
L 1159 0 
L 581 0 
L 581 3500 
L 1159 3500 
L 1159 2956 
Q 1341 3275 1631 3429 
Q 1922 3584 2338 3584 
Q 2397 3584 2469 3576 
Q 2541 3569 2628 3553 
L 2631 2963 
z
" transform="scale(0.015625)"/>
        <path id="DejaVuSans-6f" d="M 1959 3097 
Q 1497 3097 1228 2736 
Q 959 2375 959 1747 
Q 959 1119 1226 758 
Q 1494 397 1959 397 
Q 2419 397 2687 759 
Q 2956 1122 2956 1747 
Q 2956 2369 2687 2733 
Q 2419 3097 1959 3097 
z
M 1959 3584 
Q 2709 3584 3137 3096 
Q 3566 2609 3566 1747 
Q 3566 888 3137 398 
Q 2709 -91 1959 -91 
Q 1206 -91 779 398 
Q 353 888 353 1747 
Q 353 2609 779 3096 
Q 1206 3584 1959 3584 
z
" transform="scale(0.015625)"/>
        <path id="DejaVuSans-6d" d="M 3328 2828 
Q 3544 3216 3844 3400 
Q 4144 3584 4550 3584 
Q 5097 3584 5394 3201 
Q 5691 2819 5691 2113 
L 5691 0 
L 5113 0 
L 5113 2094 
Q 5113 2597 4934 2840 
Q 4756 3084 4391 3084 
Q 3944 3084 3684 2787 
Q 3425 2491 3425 1978 
L 3425 0 
L 2847 0 
L 2847 2094 
Q 2847 2600 2669 2842 
Q 2491 3084 2119 3084 
Q 1678 3084 1418 2786 
Q 1159 2488 1159 1978 
L 1159 0 
L 581 0 
L 581 3500 
L 1159 3500 
L 1159 2956 
Q 1356 3278 1631 3431 
Q 1906 3584 2284 3584 
Q 2666 3584 2933 3390 
Q 3200 3197 3328 2828 
z
" transform="scale(0.015625)"/>
        <path id="DejaVuSans-74" d="M 1172 4494 
L 1172 3500 
L 2356 3500 
L 2356 3053 
L 1172 3053 
L 1172 1153 
Q 1172 725 1289 603 
Q 1406 481 1766 481 
L 2356 481 
L 2356 0 
L 1766 0 
Q 1100 0 847 248 
Q 594 497 594 1153 
L 594 3053 
L 172 3053 
L 172 3500 
L 594 3500 
L 594 4494 
L 1172 4494 
z
" transform="scale(0.015625)"/>
        <path id="DejaVuSans-2d" d="M 313 2009 
L 1997 2009 
L 1997 1497 
L 313 1497 
L 313 2009 
z
" transform="scale(0.015625)"/>
        <path id="DejaVuSans-62" d="M 3116 1747 
Q 3116 2381 2855 2742 
Q 2594 3103 2138 3103 
Q 1681 3103 1420 2742 
Q 1159 2381 1159 1747 
Q 1159 1113 1420 752 
Q 1681 391 2138 391 
Q 2594 391 2855 752 
Q 3116 1113 3116 1747 
z
M 1159 2969 
Q 1341 3281 1617 3432 
Q 1894 3584 2278 3584 
Q 2916 3584 3314 3078 
Q 3713 2572 3713 1747 
Q 3713 922 3314 415 
Q 2916 -91 2278 -91 
Q 1894 -91 1617 61 
Q 1341 213 1159 525 
L 1159 0 
L 581 0 
L 581 4863 
L 1159 4863 
L 1159 2969 
z
" transform="scale(0.015625)"/>
        <path id="DejaVuSans-61" d="M 2194 1759 
Q 1497 1759 1228 1600 
Q 959 1441 959 1056 
Q 959 750 1161 570 
Q 1363 391 1709 391 
Q 2188 391 2477 730 
Q 2766 1069 2766 1631 
L 2766 1759 
L 2194 1759 
z
M 3341 1997 
L 3341 0 
L 2766 0 
L 2766 531 
Q 2569 213 2275 61 
Q 1981 -91 1556 -91 
Q 1019 -91 701 211 
Q 384 513 384 1019 
Q 384 1609 779 1909 
Q 1175 2209 1959 2209 
L 2766 2209 
L 2766 2266 
Q 2766 2663 2505 2880 
Q 2244 3097 1772 3097 
Q 1472 3097 1187 3025 
Q 903 2953 641 2809 
L 641 3341 
Q 956 3463 1253 3523 
Q 1550 3584 1831 3584 
Q 2591 3584 2966 3190 
Q 3341 2797 3341 1997 
z
" transform="scale(0.015625)"/>
        <path id="DejaVuSans-73" d="M 2834 3397 
L 2834 2853 
Q 2591 2978 2328 3040 
Q 2066 3103 1784 3103 
Q 1356 3103 1142 2972 
Q 928 2841 928 2578 
Q 928 2378 1081 2264 
Q 1234 2150 1697 2047 
L 1894 2003 
Q 2506 1872 2764 1633 
Q 3022 1394 3022 966 
Q 3022 478 2636 193 
Q 2250 -91 1575 -91 
Q 1294 -91 989 -36 
Q 684 19 347 128 
L 347 722 
Q 666 556 975 473 
Q 1284 391 1588 391 
Q 1994 391 2212 530 
Q 2431 669 2431 922 
Q 2431 1156 2273 1281 
Q 2116 1406 1581 1522 
L 1381 1569 
Q 847 1681 609 1914 
Q 372 2147 372 2553 
Q 372 3047 722 3315 
Q 1072 3584 1716 3584 
Q 2034 3584 2315 3537 
Q 2597 3491 2834 3397 
z
" transform="scale(0.015625)"/>
        <path id="DejaVuSans-65" d="M 3597 1894 
L 3597 1613 
L 953 1613 
Q 991 1019 1311 708 
Q 1631 397 2203 397 
Q 2534 397 2845 478 
Q 3156 559 3463 722 
L 3463 178 
Q 3153 47 2828 -22 
Q 2503 -91 2169 -91 
Q 1331 -91 842 396 
Q 353 884 353 1716 
Q 353 2575 817 3079 
Q 1281 3584 2069 3584 
Q 2775 3584 3186 3129 
Q 3597 2675 3597 1894 
z
M 3022 2063 
Q 3016 2534 2758 2815 
Q 2500 3097 2075 3097 
Q 1594 3097 1305 2825 
Q 1016 2553 972 2059 
L 3022 2063 
z
" transform="scale(0.015625)"/>
        <path id="DejaVuSans-64" d="M 2906 2969 
L 2906 4863 
L 3481 4863 
L 3481 0 
L 2906 0 
L 2906 525 
Q 2725 213 2448 61 
Q 2172 -91 1784 -91 
Q 1150 -91 751 415 
Q 353 922 353 1747 
Q 353 2572 751 3078 
Q 1150 3584 1784 3584 
Q 2172 3584 2448 3432 
Q 2725 3281 2906 2969 
z
M 947 1747 
Q 947 1113 1208 752 
Q 1469 391 1925 391 
Q 2381 391 2643 752 
Q 2906 1113 2906 1747 
Q 2906 2381 2643 2742 
Q 2381 3103 1925 3103 
Q 1469 3103 1208 2742 
Q 947 2381 947 1747 
z
" transform="scale(0.015625)"/>
        <path id="DejaVuSans-6b" d="M 581 4863 
L 1159 4863 
L 1159 1991 
L 2875 3500 
L 3609 3500 
L 1753 1863 
L 3688 0 
L 2938 0 
L 1159 1709 
L 1159 0 
L 581 0 
L 581 4863 
z
" transform="scale(0.015625)"/>
       </defs>
       <use xlink:href="#DejaVuSans-41"/>
       <use xlink:href="#DejaVuSans-6c" x="68.408203"/>
       <use xlink:href="#DejaVuSans-6c" x="96.191406"/>
       <use xlink:href="#DejaVuSans-20" x="123.974609"/>
       <use xlink:href="#DejaVuSans-70" x="155.761719"/>
       <use xlink:href="#DejaVuSans-72" x="219.238281"/>
       <use xlink:href="#DejaVuSans-6f" x="258.101562"/>
       <use xlink:href="#DejaVuSans-6d" x="319.283203"/>
       <use xlink:href="#DejaVuSans-70" x="416.695312"/>
       <use xlink:href="#DejaVuSans-74" x="480.171875"/>
       <use xlink:href="#DejaVuSans-2d" x="519.380859"/>
       <use xlink:href="#DejaVuSans-62" x="555.464844"/>
       <use xlink:href="#DejaVuSans-61" x="618.941406"/>
       <use xlink:href="#DejaVuSans-73" x="680.220703"/>
       <use xlink:href="#DejaVuSans-65" x="732.320312"/>
       <use xlink:href="#DejaVuSans-64" x="793.84375"/>
       <use xlink:href="#DejaVuSans-20" x="857.320312"/>
       <use xlink:href="#DejaVuSans-74" x="889.107422"/>
       <use xlink:href="#DejaVuSans-61" x="928.316406"/>
       <use xlink:href="#DejaVuSans-73" x="989.595703"/>
       <use xlink:href="#DejaVuSans-6b" x="1041.695312"/>
       <use xlink:href="#DejaVuSans-73" x="1099.605469"/>
      </g>
     </g>
    </g>
    <g id="xtick_2">
     <g id="line2d_2">
      <path d="M 269.91371 300.211498 
L 395.744109 142.425169 
" clip-path="url(#p6ea91ff954)" style="fill: none; stroke: #b0b0b0; stroke-width: 0.8; stroke-linecap: square"/>
     </g>
     <g id="text_2">
      <!-- All prompt-free tasks -->
      <g transform="translate(331.187341 135.342653) scale(0.14 -0.14)">
       <defs>
        <path id="DejaVuSans-66" d="M 2375 4863 
L 2375 4384 
L 1825 4384 
Q 1516 4384 1395 4259 
Q 1275 4134 1275 3809 
L 1275 3500 
L 2222 3500 
L 2222 3053 
L 1275 3053 
L 1275 0 
L 697 0 
L 697 3053 
L 147 3053 
L 147 3500 
L 697 3500 
L 697 3744 
Q 697 4328 969 4595 
Q 1241 4863 1831 4863 
L 2375 4863 
z
" transform="scale(0.015625)"/>
       </defs>
       <use xlink:href="#DejaVuSans-41"/>
       <use xlink:href="#DejaVuSans-6c" x="68.408203"/>
       <use xlink:href="#DejaVuSans-6c" x="96.191406"/>
       <use xlink:href="#DejaVuSans-20" x="123.974609"/>
       <use xlink:href="#DejaVuSans-70" x="155.761719"/>
       <use xlink:href="#DejaVuSans-72" x="219.238281"/>
       <use xlink:href="#DejaVuSans-6f" x="258.101562"/>
       <use xlink:href="#DejaVuSans-6d" x="319.283203"/>
       <use xlink:href="#DejaVuSans-70" x="416.695312"/>
       <use xlink:href="#DejaVuSans-74" x="480.171875"/>
       <use xlink:href="#DejaVuSans-2d" x="519.380859"/>
       <use xlink:href="#DejaVuSans-66" x="555.464844"/>
       <use xlink:href="#DejaVuSans-72" x="590.669922"/>
       <use xlink:href="#DejaVuSans-65" x="629.533203"/>
       <use xlink:href="#DejaVuSans-65" x="691.056641"/>
       <use xlink:href="#DejaVuSans-20" x="752.580078"/>
       <use xlink:href="#DejaVuSans-74" x="784.367188"/>
       <use xlink:href="#DejaVuSans-61" x="823.576172"/>
       <use xlink:href="#DejaVuSans-73" x="884.855469"/>
       <use xlink:href="#DejaVuSans-6b" x="936.955078"/>
       <use xlink:href="#DejaVuSans-73" x="994.865234"/>
      </g>
     </g>
    </g>
    <g id="xtick_3">
     <g id="line2d_3">
      <path d="M 269.91371 300.211498 
L 225.005361 103.455164 
" clip-path="url(#p6ea91ff954)" style="fill: none; stroke: #b0b0b0; stroke-width: 0.8; stroke-linecap: square"/>
     </g>
     <g id="text_3">
      <!-- Picture description -->
      <g transform="translate(156.679599 93.669298) scale(0.14 -0.14)">
       <defs>
        <path id="DejaVuSans-50" d="M 1259 4147 
L 1259 2394 
L 2053 2394 
Q 2494 2394 2734 2622 
Q 2975 2850 2975 3272 
Q 2975 3691 2734 3919 
Q 2494 4147 2053 4147 
L 1259 4147 
z
M 628 4666 
L 2053 4666 
Q 2838 4666 3239 4311 
Q 3641 3956 3641 3272 
Q 3641 2581 3239 2228 
Q 2838 1875 2053 1875 
L 1259 1875 
L 1259 0 
L 628 0 
L 628 4666 
z
" transform="scale(0.015625)"/>
        <path id="DejaVuSans-69" d="M 603 3500 
L 1178 3500 
L 1178 0 
L 603 0 
L 603 3500 
z
M 603 4863 
L 1178 4863 
L 1178 4134 
L 603 4134 
L 603 4863 
z
" transform="scale(0.015625)"/>
        <path id="DejaVuSans-63" d="M 3122 3366 
L 3122 2828 
Q 2878 2963 2633 3030 
Q 2388 3097 2138 3097 
Q 1578 3097 1268 2742 
Q 959 2388 959 1747 
Q 959 1106 1268 751 
Q 1578 397 2138 397 
Q 2388 397 2633 464 
Q 2878 531 3122 666 
L 3122 134 
Q 2881 22 2623 -34 
Q 2366 -91 2075 -91 
Q 1284 -91 818 406 
Q 353 903 353 1747 
Q 353 2603 823 3093 
Q 1294 3584 2113 3584 
Q 2378 3584 2631 3529 
Q 2884 3475 3122 3366 
z
" transform="scale(0.015625)"/>
        <path id="DejaVuSans-75" d="M 544 1381 
L 544 3500 
L 1119 3500 
L 1119 1403 
Q 1119 906 1312 657 
Q 1506 409 1894 409 
Q 2359 409 2629 706 
Q 2900 1003 2900 1516 
L 2900 3500 
L 3475 3500 
L 3475 0 
L 2900 0 
L 2900 538 
Q 2691 219 2414 64 
Q 2138 -91 1772 -91 
Q 1169 -91 856 284 
Q 544 659 544 1381 
z
M 1991 3584 
L 1991 3584 
z
" transform="scale(0.015625)"/>
        <path id="DejaVuSans-6e" d="M 3513 2113 
L 3513 0 
L 2938 0 
L 2938 2094 
Q 2938 2591 2744 2837 
Q 2550 3084 2163 3084 
Q 1697 3084 1428 2787 
Q 1159 2491 1159 1978 
L 1159 0 
L 581 0 
L 581 3500 
L 1159 3500 
L 1159 2956 
Q 1366 3272 1645 3428 
Q 1925 3584 2291 3584 
Q 2894 3584 3203 3211 
Q 3513 2838 3513 2113 
z
" transform="scale(0.015625)"/>
       </defs>
       <use xlink:href="#DejaVuSans-50"/>
       <use xlink:href="#DejaVuSans-69" x="58.052734"/>
       <use xlink:href="#DejaVuSans-63" x="85.835938"/>
       <use xlink:href="#DejaVuSans-74" x="140.816406"/>
       <use xlink:href="#DejaVuSans-75" x="180.025391"/>
       <use xlink:href="#DejaVuSans-72" x="243.404297"/>
       <use xlink:href="#DejaVuSans-65" x="282.267578"/>
       <use xlink:href="#DejaVuSans-20" x="343.791016"/>
       <use xlink:href="#DejaVuSans-64" x="375.578125"/>
       <use xlink:href="#DejaVuSans-65" x="439.054688"/>
       <use xlink:href="#DejaVuSans-73" x="500.578125"/>
       <use xlink:href="#DejaVuSans-63" x="552.677734"/>
       <use xlink:href="#DejaVuSans-72" x="607.658203"/>
       <use xlink:href="#DejaVuSans-69" x="648.771484"/>
       <use xlink:href="#DejaVuSans-70" x="676.554688"/>
       <use xlink:href="#DejaVuSans-74" x="740.03125"/>
       <use xlink:href="#DejaVuSans-69" x="779.240234"/>
       <use xlink:href="#DejaVuSans-6f" x="807.023438"/>
       <use xlink:href="#DejaVuSans-6e" x="868.205078"/>
      </g>
     </g>
    </g>
    <g id="xtick_4">
     <g id="line2d_4">
      <path d="M 269.91371 300.211498 
L 88.083516 212.646691 
" clip-path="url(#p6ea91ff954)" style="fill: none; stroke: #b0b0b0; stroke-width: 0.8; stroke-linecap: square"/>
     </g>
     <g id="text_4">
      <!-- Pleasant memory -->
      <g transform="translate(14.118233 210.435444) scale(0.14 -0.14)">
       <defs>
        <path id="DejaVuSans-79" d="M 2059 -325 
Q 1816 -950 1584 -1140 
Q 1353 -1331 966 -1331 
L 506 -1331 
L 506 -850 
L 844 -850 
Q 1081 -850 1212 -737 
Q 1344 -625 1503 -206 
L 1606 56 
L 191 3500 
L 800 3500 
L 1894 763 
L 2988 3500 
L 3597 3500 
L 2059 -325 
z
" transform="scale(0.015625)"/>
       </defs>
       <use xlink:href="#DejaVuSans-50"/>
       <use xlink:href="#DejaVuSans-6c" x="60.302734"/>
       <use xlink:href="#DejaVuSans-65" x="88.085938"/>
       <use xlink:href="#DejaVuSans-61" x="149.609375"/>
       <use xlink:href="#DejaVuSans-73" x="210.888672"/>
       <use xlink:href="#DejaVuSans-61" x="262.988281"/>
       <use xlink:href="#DejaVuSans-6e" x="324.267578"/>
       <use xlink:href="#DejaVuSans-74" x="387.646484"/>
       <use xlink:href="#DejaVuSans-20" x="426.855469"/>
       <use xlink:href="#DejaVuSans-6d" x="458.642578"/>
       <use xlink:href="#DejaVuSans-65" x="556.054688"/>
       <use xlink:href="#DejaVuSans-6d" x="617.578125"/>
       <use xlink:href="#DejaVuSans-6f" x="714.990234"/>
       <use xlink:href="#DejaVuSans-72" x="776.171875"/>
       <use xlink:href="#DejaVuSans-79" x="817.285156"/>
      </g>
     </g>
    </g>
    <g id="xtick_5">
     <g id="line2d_5">
      <path d="M 269.91371 300.211498 
L 88.083516 387.776304 
" clip-path="url(#p6ea91ff954)" style="fill: none; stroke: #b0b0b0; stroke-width: 0.8; stroke-linecap: square"/>
     </g>
     <g id="text_5">
      <!-- Routine description -->
      <g transform="translate(7.623546 397.713802) scale(0.14 -0.14)">
       <defs>
        <path id="DejaVuSans-52" d="M 2841 2188 
Q 3044 2119 3236 1894 
Q 3428 1669 3622 1275 
L 4263 0 
L 3584 0 
L 2988 1197 
Q 2756 1666 2539 1819 
Q 2322 1972 1947 1972 
L 1259 1972 
L 1259 0 
L 628 0 
L 628 4666 
L 2053 4666 
Q 2853 4666 3247 4331 
Q 3641 3997 3641 3322 
Q 3641 2881 3436 2590 
Q 3231 2300 2841 2188 
z
M 1259 4147 
L 1259 2491 
L 2053 2491 
Q 2509 2491 2742 2702 
Q 2975 2913 2975 3322 
Q 2975 3731 2742 3939 
Q 2509 4147 2053 4147 
L 1259 4147 
z
" transform="scale(0.015625)"/>
       </defs>
       <use xlink:href="#DejaVuSans-52"/>
       <use xlink:href="#DejaVuSans-6f" x="64.982422"/>
       <use xlink:href="#DejaVuSans-75" x="126.164062"/>
       <use xlink:href="#DejaVuSans-74" x="189.542969"/>
       <use xlink:href="#DejaVuSans-69" x="228.751953"/>
       <use xlink:href="#DejaVuSans-6e" x="256.535156"/>
       <use xlink:href="#DejaVuSans-65" x="319.914062"/>
       <use xlink:href="#DejaVuSans-20" x="381.4375"/>
       <use xlink:href="#DejaVuSans-64" x="413.224609"/>
       <use xlink:href="#DejaVuSans-65" x="476.701172"/>
       <use xlink:href="#DejaVuSans-73" x="538.224609"/>
       <use xlink:href="#DejaVuSans-63" x="590.324219"/>
       <use xlink:href="#DejaVuSans-72" x="645.304688"/>
       <use xlink:href="#DejaVuSans-69" x="686.417969"/>
       <use xlink:href="#DejaVuSans-70" x="714.201172"/>
       <use xlink:href="#DejaVuSans-74" x="777.677734"/>
       <use xlink:href="#DejaVuSans-69" x="816.886719"/>
       <use xlink:href="#DejaVuSans-6f" x="844.669922"/>
       <use xlink:href="#DejaVuSans-6e" x="905.851562"/>
      </g>
     </g>
    </g>
    <g id="xtick_6">
     <g id="line2d_6">
      <path d="M 269.91371 300.211498 
L 225.005361 496.967832 
" clip-path="url(#p6ea91ff954)" style="fill: none; stroke: #b0b0b0; stroke-width: 0.8; stroke-linecap: square"/>
     </g>
     <g id="text_6">
      <!-- Story retelling -->
      <g transform="translate(172.38038 514.479948) scale(0.14 -0.14)">
       <defs>
        <path id="DejaVuSans-53" d="M 3425 4513 
L 3425 3897 
Q 3066 4069 2747 4153 
Q 2428 4238 2131 4238 
Q 1616 4238 1336 4038 
Q 1056 3838 1056 3469 
Q 1056 3159 1242 3001 
Q 1428 2844 1947 2747 
L 2328 2669 
Q 3034 2534 3370 2195 
Q 3706 1856 3706 1288 
Q 3706 609 3251 259 
Q 2797 -91 1919 -91 
Q 1588 -91 1214 -16 
Q 841 59 441 206 
L 441 856 
Q 825 641 1194 531 
Q 1563 422 1919 422 
Q 2459 422 2753 634 
Q 3047 847 3047 1241 
Q 3047 1584 2836 1778 
Q 2625 1972 2144 2069 
L 1759 2144 
Q 1053 2284 737 2584 
Q 422 2884 422 3419 
Q 422 4038 858 4394 
Q 1294 4750 2059 4750 
Q 2388 4750 2728 4690 
Q 3069 4631 3425 4513 
z
" transform="scale(0.015625)"/>
        <path id="DejaVuSans-67" d="M 2906 1791 
Q 2906 2416 2648 2759 
Q 2391 3103 1925 3103 
Q 1463 3103 1205 2759 
Q 947 2416 947 1791 
Q 947 1169 1205 825 
Q 1463 481 1925 481 
Q 2391 481 2648 825 
Q 2906 1169 2906 1791 
z
M 3481 434 
Q 3481 -459 3084 -895 
Q 2688 -1331 1869 -1331 
Q 1566 -1331 1297 -1286 
Q 1028 -1241 775 -1147 
L 775 -588 
Q 1028 -725 1275 -790 
Q 1522 -856 1778 -856 
Q 2344 -856 2625 -561 
Q 2906 -266 2906 331 
L 2906 616 
Q 2728 306 2450 153 
Q 2172 0 1784 0 
Q 1141 0 747 490 
Q 353 981 353 1791 
Q 353 2603 747 3093 
Q 1141 3584 1784 3584 
Q 2172 3584 2450 3431 
Q 2728 3278 2906 2969 
L 2906 3500 
L 3481 3500 
L 3481 434 
z
" transform="scale(0.015625)"/>
       </defs>
       <use xlink:href="#DejaVuSans-53"/>
       <use xlink:href="#DejaVuSans-74" x="63.476562"/>
       <use xlink:href="#DejaVuSans-6f" x="102.685547"/>
       <use xlink:href="#DejaVuSans-72" x="163.867188"/>
       <use xlink:href="#DejaVuSans-79" x="204.980469"/>
       <use xlink:href="#DejaVuSans-20" x="264.160156"/>
       <use xlink:href="#DejaVuSans-72" x="295.947266"/>
       <use xlink:href="#DejaVuSans-65" x="334.810547"/>
       <use xlink:href="#DejaVuSans-74" x="396.333984"/>
       <use xlink:href="#DejaVuSans-65" x="435.542969"/>
       <use xlink:href="#DejaVuSans-6c" x="497.066406"/>
       <use xlink:href="#DejaVuSans-6c" x="524.849609"/>
       <use xlink:href="#DejaVuSans-69" x="552.632812"/>
       <use xlink:href="#DejaVuSans-6e" x="580.416016"/>
       <use xlink:href="#DejaVuSans-67" x="643.794922"/>
      </g>
     </g>
    </g>
    <g id="xtick_7">
     <g id="line2d_7">
      <path d="M 269.91371 300.211498 
L 395.744109 457.997827 
" clip-path="url(#p6ea91ff954)" style="fill: none; stroke: #b0b0b0; stroke-width: 0.8; stroke-linecap: square"/>
     </g>
     <g id="text_7">
      <!-- Video retelling -->
      <g transform="translate(353.845466 472.806593) scale(0.14 -0.14)">
       <defs>
        <path id="DejaVuSans-56" d="M 1831 0 
L 50 4666 
L 709 4666 
L 2188 738 
L 3669 4666 
L 4325 4666 
L 2547 0 
L 1831 0 
z
" transform="scale(0.015625)"/>
       </defs>
       <use xlink:href="#DejaVuSans-56"/>
       <use xlink:href="#DejaVuSans-69" x="66.158203"/>
       <use xlink:href="#DejaVuSans-64" x="93.941406"/>
       <use xlink:href="#DejaVuSans-65" x="157.417969"/>
       <use xlink:href="#DejaVuSans-6f" x="218.941406"/>
       <use xlink:href="#DejaVuSans-20" x="280.123047"/>
       <use xlink:href="#DejaVuSans-72" x="311.910156"/>
       <use xlink:href="#DejaVuSans-65" x="350.773438"/>
       <use xlink:href="#DejaVuSans-74" x="412.296875"/>
       <use xlink:href="#DejaVuSans-65" x="451.505859"/>
       <use xlink:href="#DejaVuSans-6c" x="513.029297"/>
       <use xlink:href="#DejaVuSans-6c" x="540.8125"/>
       <use xlink:href="#DejaVuSans-69" x="568.595703"/>
       <use xlink:href="#DejaVuSans-6e" x="596.378906"/>
       <use xlink:href="#DejaVuSans-67" x="659.757812"/>
      </g>
     </g>
    </g>
   </g>
   <g id="matplotlib.axis_2">
    <g id="ytick_1">
     <g id="line2d_8">
      <path d="M 269.91371 300.211498 
C 269.91371 300.211498 269.91371 300.211498 269.91371 300.211498 
C 269.91371 300.211498 269.91371 300.211498 269.91371 300.211498 
C 269.91371 300.211498 269.91371 300.211498 269.91371 300.211498 
C 269.91371 300.211498 269.91371 300.211498 269.91371 300.211498 
C 269.91371 300.211498 269.91371 300.211498 269.91371 300.211498 
C 269.91371 300.211498 269.91371 300.211498 269.91371 300.211498 
C 269.91371 300.211498 269.91371 300.211498 269.91371 300.211498 
C 269.91371 300.211498 269.91371 300.211498 269.91371 300.211498 
C 269.91371 300.211498 269.91371 300.211498 269.91371 300.211498 
C 269.91371 300.211498 269.91371 300.211498 269.91371 300.211498 
C 269.91371 300.211498 269.91371 300.211498 269.91371 300.211498 
C 269.91371 300.211498 269.91371 300.211498 269.91371 300.211498 
C 269.91371 300.211498 269.91371 300.211498 269.91371 300.211498 
C 269.91371 300.211498 269.91371 300.211498 269.91371 300.211498 
C 269.91371 300.211498 269.91371 300.211498 269.91371 300.211498 
C 269.91371 300.211498 269.91371 300.211498 269.91371 300.211498 
" clip-path="url(#p6ea91ff954)" style="fill: none; stroke: #b0b0b0; stroke-width: 0.8; stroke-linecap: square"/>
     </g>
     <g id="text_8">
      <!-- 0.4 -->
      <g style="fill: #808080" transform="translate(269.91371 297.715873) scale(0.12 -0.12)">
       <defs>
        <path id="DejaVuSans-30" d="M 2034 4250 
Q 1547 4250 1301 3770 
Q 1056 3291 1056 2328 
Q 1056 1369 1301 889 
Q 1547 409 2034 409 
Q 2525 409 2770 889 
Q 3016 1369 3016 2328 
Q 3016 3291 2770 3770 
Q 2525 4250 2034 4250 
z
M 2034 4750 
Q 2819 4750 3233 4129 
Q 3647 3509 3647 2328 
Q 3647 1150 3233 529 
Q 2819 -91 2034 -91 
Q 1250 -91 836 529 
Q 422 1150 422 2328 
Q 422 3509 836 4129 
Q 1250 4750 2034 4750 
z
" transform="scale(0.015625)"/>
        <path id="DejaVuSans-2e" d="M 684 794 
L 1344 794 
L 1344 0 
L 684 0 
L 684 794 
z
" transform="scale(0.015625)"/>
        <path id="DejaVuSans-34" d="M 2419 4116 
L 825 1625 
L 2419 1625 
L 2419 4116 
z
M 2253 4666 
L 3047 4666 
L 3047 1625 
L 3713 1625 
L 3713 1100 
L 3047 1100 
L 3047 0 
L 2419 0 
L 2419 1100 
L 313 1100 
L 313 1709 
L 2253 4666 
z
" transform="scale(0.015625)"/>
       </defs>
       <use xlink:href="#DejaVuSans-30"/>
       <use xlink:href="#DejaVuSans-2e" x="63.623047"/>
       <use xlink:href="#DejaVuSans-34" x="95.410156"/>
      </g>
     </g>
    </g>
    <g id="ytick_2">
     <g id="line2d_9">
      <path d="M 337.185807 300.211498 
C 337.185807 291.377407 335.445684 282.629217 332.065023 274.467581 
C 328.684363 266.305945 323.728911 258.889588 317.482266 252.642942 
C 311.23562 246.396297 303.819263 241.440845 295.657627 238.060185 
C 287.495991 234.679524 278.747801 232.939401 269.91371 232.939401 
C 261.079619 232.939401 252.331429 234.679524 244.169793 238.060185 
C 236.008158 241.440845 228.5918 246.396297 222.345154 252.642942 
C 216.098509 258.889588 211.143057 266.305945 207.762397 274.467581 
C 204.381737 282.629217 202.641614 291.377407 202.641614 300.211498 
C 202.641614 309.045588 204.381737 317.793779 207.762397 325.955415 
C 211.143057 334.11705 216.098509 341.533408 222.345154 347.780053 
C 228.5918 354.026699 236.008158 358.982151 244.169793 362.362811 
C 252.331429 365.743471 261.079619 367.483594 269.91371 367.483594 
C 278.747801 367.483594 287.495991 365.743471 295.657627 362.362811 
C 303.819263 358.982151 311.23562 354.026699 317.482266 347.780053 
C 323.728911 341.533408 328.684363 334.11705 332.065023 325.955415 
C 335.445684 317.793779 337.185807 309.045588 337.185807 300.211498 
" clip-path="url(#p6ea91ff954)" style="fill: none; stroke: #b0b0b0; stroke-width: 0.8; stroke-linecap: square"/>
     </g>
     <g id="text_9">
      <!-- 0.6 -->
      <g style="fill: #808080" transform="translate(332.065023 271.971956) scale(0.12 -0.12)">
       <defs>
        <path id="DejaVuSans-36" d="M 2113 2584 
Q 1688 2584 1439 2293 
Q 1191 2003 1191 1497 
Q 1191 994 1439 701 
Q 1688 409 2113 409 
Q 2538 409 2786 701 
Q 3034 994 3034 1497 
Q 3034 2003 2786 2293 
Q 2538 2584 2113 2584 
z
M 3366 4563 
L 3366 3988 
Q 3128 4100 2886 4159 
Q 2644 4219 2406 4219 
Q 1781 4219 1451 3797 
Q 1122 3375 1075 2522 
Q 1259 2794 1537 2939 
Q 1816 3084 2150 3084 
Q 2853 3084 3261 2657 
Q 3669 2231 3669 1497 
Q 3669 778 3244 343 
Q 2819 -91 2113 -91 
Q 1303 -91 875 529 
Q 447 1150 447 2328 
Q 447 3434 972 4092 
Q 1497 4750 2381 4750 
Q 2619 4750 2861 4703 
Q 3103 4656 3366 4563 
z
" transform="scale(0.015625)"/>
       </defs>
       <use xlink:href="#DejaVuSans-30"/>
       <use xlink:href="#DejaVuSans-2e" x="63.623047"/>
       <use xlink:href="#DejaVuSans-36" x="95.410156"/>
      </g>
     </g>
    </g>
    <g id="ytick_3">
     <g id="line2d_10">
      <path d="M 404.457903 300.211498 
C 404.457903 282.543316 400.977657 265.046935 394.216336 248.723664 
C 387.455016 232.400393 377.544113 217.567677 365.050822 205.074386 
C 352.557531 192.581095 337.724815 182.670192 321.401544 175.908871 
C 305.078272 169.147551 287.581892 165.667304 269.91371 165.667304 
C 252.245529 165.667304 234.749148 169.147551 218.425876 175.908871 
C 202.102605 182.670192 187.26989 192.581095 174.776599 205.074386 
C 162.283308 217.567677 152.372404 232.400393 145.611084 248.723664 
C 138.849763 265.046935 135.369517 282.543316 135.369517 300.211498 
C 135.369517 317.879679 138.849763 335.37606 145.611084 351.699331 
C 152.372404 368.022603 162.283308 382.855318 174.776599 395.348609 
C 187.26989 407.8419 202.102605 417.752804 218.425876 424.514124 
C 234.749148 431.275444 252.245529 434.755691 269.91371 434.755691 
C 287.581892 434.755691 305.078272 431.275444 321.401544 424.514124 
C 337.724815 417.752804 352.557531 407.8419 365.050822 395.348609 
C 377.544113 382.855318 387.455016 368.022603 394.216336 351.699331 
C 400.977657 335.37606 404.457903 317.879679 404.457903 300.211498 
" clip-path="url(#p6ea91ff954)" style="fill: none; stroke: #b0b0b0; stroke-width: 0.8; stroke-linecap: square"/>
     </g>
     <g id="text_10">
      <!-- 0.8 -->
      <g style="fill: #808080" transform="translate(394.216336 246.228039) scale(0.12 -0.12)">
       <defs>
        <path id="DejaVuSans-38" d="M 2034 2216 
Q 1584 2216 1326 1975 
Q 1069 1734 1069 1313 
Q 1069 891 1326 650 
Q 1584 409 2034 409 
Q 2484 409 2743 651 
Q 3003 894 3003 1313 
Q 3003 1734 2745 1975 
Q 2488 2216 2034 2216 
z
M 1403 2484 
Q 997 2584 770 2862 
Q 544 3141 544 3541 
Q 544 4100 942 4425 
Q 1341 4750 2034 4750 
Q 2731 4750 3128 4425 
Q 3525 4100 3525 3541 
Q 3525 3141 3298 2862 
Q 3072 2584 2669 2484 
Q 3125 2378 3379 2068 
Q 3634 1759 3634 1313 
Q 3634 634 3220 271 
Q 2806 -91 2034 -91 
Q 1263 -91 848 271 
Q 434 634 434 1313 
Q 434 1759 690 2068 
Q 947 2378 1403 2484 
z
M 1172 3481 
Q 1172 3119 1398 2916 
Q 1625 2713 2034 2713 
Q 2441 2713 2670 2916 
Q 2900 3119 2900 3481 
Q 2900 3844 2670 4047 
Q 2441 4250 2034 4250 
Q 1625 4250 1398 4047 
Q 1172 3844 1172 3481 
z
" transform="scale(0.015625)"/>
       </defs>
       <use xlink:href="#DejaVuSans-30"/>
       <use xlink:href="#DejaVuSans-2e" x="63.623047"/>
       <use xlink:href="#DejaVuSans-38" x="95.410156"/>
      </g>
     </g>
    </g>
    <g id="ytick_4">
     <g id="line2d_11">
      <path d="M 471.73 300.211498 
C 471.73 273.709225 466.50963 247.464654 456.36765 222.979747 
C 446.225669 198.49484 431.359314 176.245767 412.619377 157.505831 
C 393.879441 138.765894 371.630368 123.899539 347.145461 113.757558 
C 322.660554 103.615578 296.415983 98.395208 269.91371 98.395208 
C 243.411438 98.395208 217.166867 103.615578 192.68196 113.757558 
C 168.197053 123.899539 145.94798 138.765894 127.208043 157.505831 
C 108.468107 176.245767 93.601751 198.49484 83.459771 222.979747 
C 73.31779 247.464654 68.09742 273.709225 68.09742 300.211498 
C 68.09742 326.71377 73.31779 352.958341 83.459771 377.443248 
C 93.601751 401.928155 108.468107 424.177228 127.208043 442.917165 
C 145.94798 461.657101 168.197053 476.523457 192.68196 486.665437 
C 217.166867 496.807418 243.411438 502.027788 269.91371 502.027788 
C 296.415983 502.027788 322.660554 496.807418 347.145461 486.665437 
C 371.630368 476.523457 393.879441 461.657101 412.619377 442.917165 
C 431.359314 424.177228 446.225669 401.928155 456.36765 377.443248 
C 466.50963 352.958341 471.73 326.71377 471.73 300.211498 
" clip-path="url(#p6ea91ff954)" style="fill: none; stroke: #b0b0b0; stroke-width: 0.8; stroke-linecap: square"/>
     </g>
     <g id="text_11">
      <!-- 1 -->
      <g style="fill: #808080" transform="translate(456.36765 220.484122) scale(0.12 -0.12)">
       <defs>
        <path id="DejaVuSans-31" d="M 794 531 
L 1825 531 
L 1825 4091 
L 703 3866 
L 703 4441 
L 1819 4666 
L 2450 4666 
L 2450 531 
L 3481 531 
L 3481 0 
L 794 0 
L 794 531 
z
" transform="scale(0.015625)"/>
       </defs>
       <use xlink:href="#DejaVuSans-31"/>
      </g>
     </g>
    </g>
   </g>
   <g id="line2d_12">
    <path d="M 410.815117 300.211498 
L 337.683866 215.230411 
L 242.977682 182.197049 
L 188.217404 260.86863 
L 180.256272 343.388244 
L 242.707484 419.409764 
L 343.629352 392.647989 
L 410.815117 300.211498 
" clip-path="url(#p6ea91ff954)" style="fill: none; stroke: #1f77b4; stroke-width: 2; stroke-linecap: square"/>
   </g>
   <g id="line2d_13">
    <path d="M 292.655042 300.211498 
L 289.914452 275.131361 
L 263.678934 272.89516 
L 250.733655 290.97487 
L 224.280392 322.187345 
L 265.079326 321.392317 
L 285.552332 319.821709 
L 292.655042 300.211498 
" clip-path="url(#p6ea91ff954)" style="fill: none; stroke: #ff7f0e; stroke-width: 2; stroke-linecap: square"/>
   </g>
   <g id="patch_3">
    <path d="M 471.73 300.211498 
C 471.73 273.709225 466.50963 247.464654 456.36765 222.979747 
C 446.225669 198.49484 431.359314 176.245767 412.619377 157.505831 
C 393.879441 138.765894 371.630368 123.899539 347.145461 113.757558 
C 322.660554 103.615578 296.415983 98.395208 269.91371 98.395208 
C 243.411438 98.395208 217.166867 103.615578 192.68196 113.757558 
C 168.197053 123.899539 145.94798 138.765894 127.208043 157.505831 
C 108.468107 176.245767 93.601751 198.49484 83.459771 222.979747 
C 73.31779 247.464654 68.09742 273.709225 68.09742 300.211498 
C 68.09742 326.71377 73.31779 352.958341 83.459771 377.443248 
C 93.601751 401.928155 108.468107 424.177228 127.208043 442.917165 
C 145.94798 461.657101 168.197053 476.523457 192.68196 486.665437 
C 217.166867 496.807418 243.411438 502.027788 269.91371 502.027788 
C 296.415983 502.027788 322.660554 496.807418 347.145461 486.665437 
C 371.630368 476.523457 393.879441 461.657101 412.619377 442.917165 
C 431.359314 424.177228 446.225669 401.928155 456.36765 377.443248 
C 466.50963 352.958341 471.73 326.71377 471.73 300.211498 
" style="fill: none; stroke: #000000; stroke-width: 0.8; stroke-linejoin: miter; stroke-linecap: square"/>
   </g>
   <g id="text_12">
    <!-- AUC -->
    <g transform="translate(248.771523 78.395208) scale(0.2 -0.2)">
     <defs>
      <path id="DejaVuSans-55" d="M 556 4666 
L 1191 4666 
L 1191 1831 
Q 1191 1081 1462 751 
Q 1734 422 2344 422 
Q 2950 422 3222 751 
Q 3494 1081 3494 1831 
L 3494 4666 
L 4128 4666 
L 4128 1753 
Q 4128 841 3676 375 
Q 3225 -91 2344 -91 
Q 1459 -91 1007 375 
Q 556 841 556 1753 
L 556 4666 
z
" transform="scale(0.015625)"/>
      <path id="DejaVuSans-43" d="M 4122 4306 
L 4122 3641 
Q 3803 3938 3442 4084 
Q 3081 4231 2675 4231 
Q 1875 4231 1450 3742 
Q 1025 3253 1025 2328 
Q 1025 1406 1450 917 
Q 1875 428 2675 428 
Q 3081 428 3442 575 
Q 3803 722 4122 1019 
L 4122 359 
Q 3791 134 3420 21 
Q 3050 -91 2638 -91 
Q 1578 -91 968 557 
Q 359 1206 359 2328 
Q 359 3453 968 4101 
Q 1578 4750 2638 4750 
Q 3056 4750 3426 4639 
Q 3797 4528 4122 4306 
z
" transform="scale(0.015625)"/>
     </defs>
     <use xlink:href="#DejaVuSans-41"/>
     <use xlink:href="#DejaVuSans-55" x="68.408203"/>
     <use xlink:href="#DejaVuSans-43" x="141.601562"/>
    </g>
   </g>
   <g id="legend_1">
    <g id="patch_4">
     <path d="M 439.539328 95.3882 
L 545.456516 95.3882 
Q 547.456516 95.3882 547.456516 93.3882 
L 547.456516 65.03195 
Q 547.456516 63.03195 545.456516 63.03195 
L 439.539328 63.03195 
Q 437.539328 63.03195 437.539328 65.03195 
L 437.539328 93.3882 
Q 437.539328 95.3882 439.539328 95.3882 
z
" style="fill: #ffffff; opacity: 0.8; stroke: #cccccc; stroke-linejoin: miter"/>
    </g>
    <g id="line2d_14">
     <path d="M 441.539328 71.130387 
L 451.539328 71.130387 
L 461.539328 71.130387 
" style="fill: none; stroke: #1f77b4; stroke-width: 2; stroke-linecap: square"/>
    </g>
    <g id="text_13">
     <!-- Actual labels -->
     <g transform="translate(469.539328 74.630387) scale(0.1 -0.1)">
      <use xlink:href="#DejaVuSans-41"/>
      <use xlink:href="#DejaVuSans-63" x="66.658203"/>
      <use xlink:href="#DejaVuSans-74" x="121.638672"/>
      <use xlink:href="#DejaVuSans-75" x="160.847656"/>
      <use xlink:href="#DejaVuSans-61" x="224.226562"/>
      <use xlink:href="#DejaVuSans-6c" x="285.505859"/>
      <use xlink:href="#DejaVuSans-20" x="313.289062"/>
      <use xlink:href="#DejaVuSans-6c" x="345.076172"/>
      <use xlink:href="#DejaVuSans-61" x="372.859375"/>
      <use xlink:href="#DejaVuSans-62" x="434.138672"/>
      <use xlink:href="#DejaVuSans-65" x="497.615234"/>
      <use xlink:href="#DejaVuSans-6c" x="559.138672"/>
      <use xlink:href="#DejaVuSans-73" x="586.921875"/>
     </g>
    </g>
    <g id="line2d_15">
     <path d="M 441.539328 85.808512 
L 451.539328 85.808512 
L 461.539328 85.808512 
" style="fill: none; stroke: #ff7f0e; stroke-width: 2; stroke-linecap: square"/>
    </g>
    <g id="text_14">
     <!-- Shuffled labels -->
     <g transform="translate(469.539328 89.308512) scale(0.1 -0.1)">
      <defs>
       <path id="DejaVuSans-68" d="M 3513 2113 
L 3513 0 
L 2938 0 
L 2938 2094 
Q 2938 2591 2744 2837 
Q 2550 3084 2163 3084 
Q 1697 3084 1428 2787 
Q 1159 2491 1159 1978 
L 1159 0 
L 581 0 
L 581 4863 
L 1159 4863 
L 1159 2956 
Q 1366 3272 1645 3428 
Q 1925 3584 2291 3584 
Q 2894 3584 3203 3211 
Q 3513 2838 3513 2113 
z
" transform="scale(0.015625)"/>
      </defs>
      <use xlink:href="#DejaVuSans-53"/>
      <use xlink:href="#DejaVuSans-68" x="63.476562"/>
      <use xlink:href="#DejaVuSans-75" x="126.855469"/>
      <use xlink:href="#DejaVuSans-66" x="190.234375"/>
      <use xlink:href="#DejaVuSans-66" x="225.439453"/>
      <use xlink:href="#DejaVuSans-6c" x="260.644531"/>
      <use xlink:href="#DejaVuSans-65" x="288.427734"/>
      <use xlink:href="#DejaVuSans-64" x="349.951172"/>
      <use xlink:href="#DejaVuSans-20" x="413.427734"/>
      <use xlink:href="#DejaVuSans-6c" x="445.214844"/>
      <use xlink:href="#DejaVuSans-61" x="472.998047"/>
      <use xlink:href="#DejaVuSans-62" x="534.277344"/>
      <use xlink:href="#DejaVuSans-65" x="597.753906"/>
      <use xlink:href="#DejaVuSans-6c" x="659.277344"/>
      <use xlink:href="#DejaVuSans-73" x="687.060547"/>
     </g>
    </g>
   </g>
  </g>
 </g>
 <defs>
  <clipPath id="p6ea91ff954">
   <path d="M 471.73 300.211498 
C 471.73 273.709225 466.50963 247.464654 456.36765 222.979747 
C 446.225669 198.49484 431.359314 176.245767 412.619377 157.505831 
C 393.879441 138.765894 371.630368 123.899539 347.145461 113.757558 
C 322.660554 103.615578 296.415983 98.395208 269.91371 98.395208 
C 243.411438 98.395208 217.166867 103.615578 192.68196 113.757558 
C 168.197053 123.899539 145.94798 138.765894 127.208043 157.505831 
C 108.468107 176.245767 93.601751 198.49484 83.459771 222.979747 
C 73.31779 247.464654 68.09742 273.709225 68.09742 300.211498 
C 68.09742 326.71377 73.31779 352.958341 83.459771 377.443248 
C 93.601751 401.928155 108.468107 424.177228 127.208043 442.917165 
C 145.94798 461.657101 168.197053 476.523457 192.68196 486.665437 
C 217.166867 496.807418 243.411438 502.027788 269.91371 502.027788 
C 296.415983 502.027788 322.660554 496.807418 347.145461 486.665437 
C 371.630368 476.523457 393.879441 461.657101 412.619377 442.917165 
C 431.359314 424.177228 446.225669 401.928155 456.36765 377.443248 
C 466.50963 352.958341 471.73 326.71377 471.73 300.211498 
M 269.91371 300.211498 
C 269.91371 300.211498 269.91371 300.211498 269.91371 300.211498 
C 269.91371 300.211498 269.91371 300.211498 269.91371 300.211498 
C 269.91371 300.211498 269.91371 300.211498 269.91371 300.211498 
C 269.91371 300.211498 269.91371 300.211498 269.91371 300.211498 
C 269.91371 300.211498 269.91371 300.211498 269.91371 300.211498 
C 269.91371 300.211498 269.91371 300.211498 269.91371 300.211498 
C 269.91371 300.211498 269.91371 300.211498 269.91371 300.211498 
C 269.91371 300.211498 269.91371 300.211498 269.91371 300.211498 
C 269.91371 300.211498 269.91371 300.211498 269.91371 300.211498 
C 269.91371 300.211498 269.91371 300.211498 269.91371 300.211498 
C 269.91371 300.211498 269.91371 300.211498 269.91371 300.211498 
C 269.91371 300.211498 269.91371 300.211498 269.91371 300.211498 
C 269.91371 300.211498 269.91371 300.211498 269.91371 300.211498 
C 269.91371 300.211498 269.91371 300.211498 269.91371 300.211498 
C 269.91371 300.211498 269.91371 300.211498 269.91371 300.211498 
C 269.91371 300.211498 269.91371 300.211498 269.91371 300.211498 
z
"/>
  </clipPath>
 </defs>
</svg>
