<?xml version="1.0" encoding="utf-8" standalone="no"?>
<!DOCTYPE svg PUBLIC "-//W3C//DTD SVG 1.1//EN"
  "http://www.w3.org/Graphics/SVG/1.1/DTD/svg11.dtd">
<svg xmlns:xlink="http://www.w3.org/1999/xlink" width="460.8pt" height="345.6pt" viewBox="0 0 460.8 345.6" xmlns="http://www.w3.org/2000/svg" version="1.1">
 <metadata>
  <rdf:RDF xmlns:dc="http://purl.org/dc/elements/1.1/" xmlns:cc="http://creativecommons.org/ns#" xmlns:rdf="http://www.w3.org/1999/02/22-rdf-syntax-ns#">
   <cc:Work>
    <dc:type rdf:resource="http://purl.org/dc/dcmitype/StillImage"/>
    <dc:date>2025-09-22T13:48:46.879278</dc:date>
    <dc:format>image/svg+xml</dc:format>
    <dc:creator>
     <cc:Agent>
      <dc:title>Matplotlib v3.9.4, https://matplotlib.org/</dc:title>
     </cc:Agent>
    </dc:creator>
   </cc:Work>
  </rdf:RDF>
 </metadata>
 <defs>
  <style type="text/css">*{stroke-linejoin: round; stroke-linecap: butt}</style>
 </defs>
 <g id="figure_1">
  <g id="patch_1">
   <path d="M 0 345.6 
L 460.8 345.6 
L 460.8 0 
L 0 0 
z
" style="fill: #ffffff"/>
  </g>
  <g id="axes_1">
   <g id="patch_2">
    <path d="M 52.76 303.896 
L 447.84 303.896 
L 447.84 12.96 
L 52.76 12.96 
z
" style="fill: #ffffff"/>
   </g>
   <g id="PolyCollection_1">
    <defs>
     <path id="me46f764b46" d="M 89.064222 -129.671956 
L 89.044136 -129.671956 
L 89.035732 -131.389425 
L 89.023809 -133.106893 
L 89.009347 -134.824362 
L 88.994777 -136.541831 
L 88.983359 -138.259299 
L 88.977745 -139.976768 
L 88.978434 -141.694236 
L 88.983065 -143.411705 
L 88.987111 -145.129173 
L 88.985648 -146.846642 
L 88.975238 -148.564111 
L 88.954993 -150.281579 
L 88.926513 -151.999048 
L 88.89302 -153.716516 
L 88.858262 -155.433985 
L 88.825551 -157.151453 
L 88.796994 -158.868922 
L 88.773013 -160.58639 
L 88.752437 -162.303859 
L 88.733375 -164.021328 
L 88.714484 -165.738796 
L 88.695689 -167.456265 
L 88.677603 -169.173733 
L 88.659718 -170.891202 
L 88.63829 -172.60867 
L 88.604973 -174.326139 
L 88.547087 -176.043607 
L 88.450154 -177.761076 
L 88.302664 -179.478545 
L 88.101627 -181.196013 
L 87.855842 -182.913482 
L 87.583919 -184.63095 
L 87.306653 -186.348419 
L 87.03716 -188.065887 
L 86.774281 -189.783356 
L 86.503429 -191.500824 
L 86.204673 -193.218293 
L 85.862881 -194.935762 
L 85.47266 -196.65323 
L 85.034021 -198.370699 
L 84.541978 -200.088167 
L 83.979253 -201.805636 
L 83.319972 -203.523104 
L 82.543864 -205.240573 
L 81.65174 -206.958041 
L 80.671577 -208.67551 
L 79.651289 -210.392979 
L 78.643416 -212.110447 
L 77.691171 -213.827916 
L 76.822181 -215.545384 
L 76.049042 -217.262853 
L 75.370903 -218.980321 
L 74.772104 -220.69779 
L 74.220784 -222.415258 
L 73.674946 -224.132727 
L 73.099587 -225.850196 
L 72.488204 -227.567664 
L 71.875028 -229.285133 
L 71.32792 -231.002601 
L 70.923697 -232.72007 
L 70.718182 -234.437538 
L 70.725541 -236.155007 
L 70.91569 -237.872475 
L 71.229415 -239.589944 
L 71.603081 -241.307413 
L 71.991599 -243.024881 
L 72.381143 -244.74235 
L 72.78961 -246.459818 
L 73.258085 -248.177287 
L 73.837527 -249.894755 
L 74.573162 -251.612224 
L 75.48848 -253.329692 
L 76.572313 -255.047161 
L 77.774368 -256.76463 
L 79.014037 -258.482098 
L 80.202673 -260.199567 
L 81.272047 -261.917035 
L 82.19574 -263.634504 
L 82.99175 -265.351972 
L 83.704857 -267.069441 
L 84.379643 -268.786909 
L 85.040035 -270.504378 
L 85.684825 -272.221847 
L 86.297042 -273.939315 
L 86.857332 -275.656784 
L 87.352446 -277.374252 
L 87.776321 -279.091721 
L 88.127147 -280.809189 
L 88.405154 -282.526658 
L 88.613203 -284.244126 
L 88.758714 -285.961595 
L 88.854123 -287.679064 
L 88.914582 -289.396532 
L 88.954088 -291.114001 
L 88.982456 -292.831469 
L 89.00465 -294.548938 
L 89.022191 -296.266406 
L 89.035229 -297.983875 
L 89.043996 -299.701343 
L 89.064363 -299.701343 
L 89.064363 -299.701343 
L 89.073129 -297.983875 
L 89.086168 -296.266406 
L 89.103708 -294.548938 
L 89.125902 -292.831469 
L 89.154271 -291.114001 
L 89.193777 -289.396532 
L 89.254236 -287.679064 
L 89.349645 -285.961595 
L 89.495155 -284.244126 
L 89.703204 -282.526658 
L 89.981211 -280.809189 
L 90.332038 -279.091721 
L 90.755913 -277.374252 
L 91.251026 -275.656784 
L 91.811317 -273.939315 
L 92.423534 -272.221847 
L 93.068324 -270.504378 
L 93.728715 -268.786909 
L 94.403502 -267.069441 
L 95.116608 -265.351972 
L 95.912619 -263.634504 
L 96.836311 -261.917035 
L 97.905685 -260.199567 
L 99.094321 -258.482098 
L 100.33399 -256.76463 
L 101.536046 -255.047161 
L 102.619878 -253.329692 
L 103.535197 -251.612224 
L 104.270832 -249.894755 
L 104.850273 -248.177287 
L 105.318749 -246.459818 
L 105.727215 -244.74235 
L 106.116759 -243.024881 
L 106.505278 -241.307413 
L 106.878944 -239.589944 
L 107.192669 -237.872475 
L 107.382817 -236.155007 
L 107.390177 -234.437538 
L 107.184661 -232.72007 
L 106.780438 -231.002601 
L 106.23333 -229.285133 
L 105.620155 -227.567664 
L 105.008772 -225.850196 
L 104.433412 -224.132727 
L 103.887575 -222.415258 
L 103.336255 -220.69779 
L 102.737456 -218.980321 
L 102.059316 -217.262853 
L 101.286177 -215.545384 
L 100.417188 -213.827916 
L 99.464943 -212.110447 
L 98.457069 -210.392979 
L 97.436782 -208.67551 
L 96.456618 -206.958041 
L 95.564495 -205.240573 
L 94.788386 -203.523104 
L 94.129105 -201.805636 
L 93.56638 -200.088167 
L 93.074337 -198.370699 
L 92.635698 -196.65323 
L 92.245478 -194.935762 
L 91.903685 -193.218293 
L 91.60493 -191.500824 
L 91.334078 -189.783356 
L 91.071198 -188.065887 
L 90.801705 -186.348419 
L 90.52444 -184.63095 
L 90.252516 -182.913482 
L 90.006732 -181.196013 
L 89.805694 -179.478545 
L 89.658204 -177.761076 
L 89.561271 -176.043607 
L 89.503386 -174.326139 
L 89.470068 -172.60867 
L 89.448641 -170.891202 
L 89.430756 -169.173733 
L 89.412669 -167.456265 
L 89.393875 -165.738796 
L 89.374983 -164.021328 
L 89.355921 -162.303859 
L 89.335345 -160.58639 
L 89.311364 -158.868922 
L 89.282807 -157.151453 
L 89.250096 -155.433985 
L 89.215339 -153.716516 
L 89.181846 -151.999048 
L 89.153366 -150.281579 
L 89.133121 -148.564111 
L 89.122711 -146.846642 
L 89.121248 -145.129173 
L 89.125294 -143.411705 
L 89.129925 -141.694236 
L 89.130614 -139.976768 
L 89.125 -138.259299 
L 89.113581 -136.541831 
L 89.099012 -134.824362 
L 89.08455 -133.106893 
L 89.072627 -131.389425 
L 89.064222 -129.671956 
z
" style="stroke: #3f3f3f; stroke-width: 1.25"/>
    </defs>
    <g clip-path="url(#p65b17ae2b4)">
     <use xlink:href="#me46f764b46" x="0" y="345.6" style="fill: #3274a1; stroke: #3f3f3f; stroke-width: 1.25"/>
    </g>
   </g>
   <g id="PolyCollection_2">
    <defs>
     <path id="macc69d720c" d="M 170.560105 -235.271184 
L 170.520107 -235.271184 
L 170.505467 -236.100897 
L 170.484211 -236.930611 
L 170.45598 -237.760325 
L 170.421847 -238.590039 
L 170.384579 -239.419752 
L 170.34832 -240.249466 
L 170.317606 -241.07918 
L 170.29588 -241.908894 
L 170.283945 -242.738608 
L 170.278934 -243.568321 
L 170.274279 -244.398035 
L 170.260908 -245.227749 
L 170.229475 -246.057463 
L 170.173012 -246.887176 
L 170.089155 -247.71689 
L 169.98114 -248.546604 
L 169.857124 -249.376318 
L 169.728009 -250.206031 
L 169.604499 -251.035745 
L 169.4944 -251.865459 
L 169.401049 -252.695173 
L 169.323255 -253.524887 
L 169.256524 -254.3546 
L 169.194864 -255.184314 
L 169.132376 -256.014028 
L 169.064028 -256.843742 
L 168.985509 -257.673455 
L 168.892423 -258.503169 
L 168.779423 -259.332883 
L 168.63987 -260.162597 
L 168.46644 -260.992311 
L 168.252735 -261.822024 
L 167.995409 -262.651738 
L 167.695794 -263.481452 
L 167.359811 -264.311166 
L 166.995457 -265.140879 
L 166.608412 -265.970593 
L 166.197727 -266.800307 
L 165.754183 -267.630021 
L 165.262987 -268.459735 
L 164.710197 -269.289448 
L 164.089912 -270.119162 
L 163.408323 -270.948876 
L 162.682058 -271.77859 
L 161.931163 -272.608303 
L 161.169881 -273.438017 
L 160.399565 -274.267731 
L 159.607044 -275.097445 
L 158.769303 -275.927159 
L 157.862755 -276.756872 
L 156.873577 -277.586586 
L 155.805052 -278.4163 
L 154.678586 -279.246014 
L 153.527178 -280.075727 
L 152.383315 -280.905441 
L 151.266253 -281.735155 
L 150.17484 -282.564869 
L 149.090041 -283.394582 
L 147.986878 -284.224296 
L 146.850791 -285.05401 
L 145.690841 -285.883724 
L 144.543237 -286.713438 
L 143.462633 -287.543151 
L 142.504009 -288.372865 
L 141.702351 -289.202579 
L 141.058863 -290.032293 
L 140.540231 -290.862006 
L 140.092062 -291.69172 
L 139.661406 -292.521434 
L 139.21916 -293.351148 
L 138.773225 -294.180862 
L 138.367604 -295.010575 
L 138.068797 -295.840289 
L 137.945735 -296.670003 
L 138.050868 -297.499717 
L 138.408116 -298.32943 
L 139.010077 -299.159144 
L 139.823937 -299.988858 
L 140.803822 -300.818572 
L 141.906132 -301.648286 
L 143.103645 -302.477999 
L 144.393996 -303.307713 
L 145.79932 -304.137427 
L 147.356536 -304.967141 
L 149.101083 -305.796854 
L 151.049511 -306.626568 
L 153.186828 -307.456282 
L 155.46271 -308.285996 
L 157.797389 -309.115709 
L 160.094784 -309.945423 
L 162.258538 -310.775137 
L 164.206584 -311.604851 
L 165.881296 -312.434565 
L 167.254114 -313.264278 
L 168.32501 -314.093992 
L 169.117901 -314.923706 
L 169.673407 -315.75342 
L 170.040484 -316.583133 
L 170.268525 -317.412847 
L 170.811688 -317.412847 
L 170.811688 -317.412847 
L 171.039729 -316.583133 
L 171.406805 -315.75342 
L 171.962311 -314.923706 
L 172.755203 -314.093992 
L 173.826099 -313.264278 
L 175.198917 -312.434565 
L 176.873629 -311.604851 
L 178.821675 -310.775137 
L 180.985428 -309.945423 
L 183.282824 -309.115709 
L 185.617502 -308.285996 
L 187.893384 -307.456282 
L 190.030702 -306.626568 
L 191.97913 -305.796854 
L 193.723677 -304.967141 
L 195.280892 -304.137427 
L 196.686217 -303.307713 
L 197.976568 -302.477999 
L 199.174081 -301.648286 
L 200.276391 -300.818572 
L 201.256276 -299.988858 
L 202.070136 -299.159144 
L 202.672096 -298.32943 
L 203.029345 -297.499717 
L 203.134477 -296.670003 
L 203.011416 -295.840289 
L 202.712609 -295.010575 
L 202.306987 -294.180862 
L 201.861052 -293.351148 
L 201.418806 -292.521434 
L 200.988151 -291.69172 
L 200.539981 -290.862006 
L 200.02135 -290.032293 
L 199.377861 -289.202579 
L 198.576203 -288.372865 
L 197.61758 -287.543151 
L 196.536976 -286.713438 
L 195.389372 -285.883724 
L 194.229422 -285.05401 
L 193.093334 -284.224296 
L 191.990172 -283.394582 
L 190.905372 -282.564869 
L 189.81396 -281.735155 
L 188.696898 -280.905441 
L 187.553034 -280.075727 
L 186.401627 -279.246014 
L 185.275161 -278.4163 
L 184.206636 -277.586586 
L 183.217458 -276.756872 
L 182.310909 -275.927159 
L 181.473169 -275.097445 
L 180.680647 -274.267731 
L 179.910331 -273.438017 
L 179.149049 -272.608303 
L 178.398155 -271.77859 
L 177.67189 -270.948876 
L 176.9903 -270.119162 
L 176.370015 -269.289448 
L 175.817225 -268.459735 
L 175.326029 -267.630021 
L 174.882486 -266.800307 
L 174.471801 -265.970593 
L 174.084756 -265.140879 
L 173.720402 -264.311166 
L 173.384419 -263.481452 
L 173.084804 -262.651738 
L 172.827478 -261.822024 
L 172.613773 -260.992311 
L 172.440342 -260.162597 
L 172.300789 -259.332883 
L 172.18779 -258.503169 
L 172.094703 -257.673455 
L 172.016184 -256.843742 
L 171.947837 -256.014028 
L 171.885348 -255.184314 
L 171.823689 -254.3546 
L 171.756958 -253.524887 
L 171.679164 -252.695173 
L 171.585812 -251.865459 
L 171.475713 -251.035745 
L 171.352203 -250.206031 
L 171.223089 -249.376318 
L 171.099072 -248.546604 
L 170.991057 -247.71689 
L 170.907201 -246.887176 
L 170.850737 -246.057463 
L 170.819305 -245.227749 
L 170.805934 -244.398035 
L 170.801279 -243.568321 
L 170.796267 -242.738608 
L 170.784333 -241.908894 
L 170.762607 -241.07918 
L 170.731893 -240.249466 
L 170.695634 -239.419752 
L 170.658366 -238.590039 
L 170.624233 -237.760325 
L 170.596002 -236.930611 
L 170.574746 -236.100897 
L 170.560105 -235.271184 
z
" style="stroke: #3f3f3f; stroke-width: 1.25"/>
    </defs>
    <g clip-path="url(#p65b17ae2b4)">
     <use xlink:href="#macc69d720c" x="0" y="345.6" style="fill: #3274a1; stroke: #3f3f3f; stroke-width: 1.25"/>
    </g>
   </g>
   <g id="PolyCollection_3">
    <defs>
     <path id="me96decd14b" d="M 252.034636 -126.509873 
L 252.017431 -126.509873 
L 252.010479 -128.458416 
L 252.00068 -130.406959 
L 251.98878 -132.355502 
L 251.976689 -134.304045 
L 251.967112 -136.252588 
L 251.962602 -138.201131 
L 251.964449 -140.149674 
L 251.972036 -142.098217 
L 251.983036 -144.04676 
L 251.994228 -145.995303 
L 252.002331 -147.943847 
L 252.004297 -149.89239 
L 251.997072 -151.840933 
L 251.97737 -153.789476 
L 251.942195 -155.738019 
L 251.890388 -157.686562 
L 251.824577 -159.635105 
L 251.752066 -161.583648 
L 251.683274 -163.532191 
L 251.627618 -165.480734 
L 251.588671 -167.429277 
L 251.561434 -169.37782 
L 251.533562 -171.326363 
L 251.489889 -173.274906 
L 251.417577 -175.223449 
L 251.309223 -177.171993 
L 251.163156 -179.120536 
L 250.982063 -181.069079 
L 250.771395 -183.017622 
L 250.537999 -184.966165 
L 250.288482 -186.914708 
L 250.027095 -188.863251 
L 249.754063 -190.811794 
L 249.465703 -192.760337 
L 249.156693 -194.70888 
L 248.822992 -196.657423 
L 248.462988 -198.605966 
L 248.075473 -200.554509 
L 247.655501 -202.503052 
L 247.191231 -204.451595 
L 246.664917 -206.400139 
L 246.058958 -208.348682 
L 245.364659 -210.297225 
L 244.58901 -212.245768 
L 243.755531 -214.194311 
L 242.898998 -216.142854 
L 242.05817 -218.091397 
L 241.271236 -220.03994 
L 240.574678 -221.988483 
L 240.001078 -223.937026 
L 239.570893 -225.885569 
L 239.279084 -227.834112 
L 239.085155 -229.782655 
L 238.91732 -231.731198 
L 238.694899 -233.679741 
L 238.361416 -235.628285 
L 237.9125 -237.576828 
L 237.403579 -239.525371 
L 236.932345 -241.473914 
L 236.603439 -243.422457 
L 236.490675 -245.371 
L 236.612 -247.319543 
L 236.926281 -249.268086 
L 237.352477 -251.216629 
L 237.803626 -253.165172 
L 238.222018 -255.113715 
L 238.600375 -257.062258 
L 238.979069 -259.010801 
L 239.420777 -260.959344 
L 239.976098 -262.907887 
L 240.658985 -264.856431 
L 241.444755 -266.804974 
L 242.289135 -268.753517 
L 243.153755 -270.70206 
L 244.021194 -272.650603 
L 244.892233 -274.599146 
L 245.77125 -276.547689 
L 246.652211 -278.496232 
L 247.514134 -280.444775 
L 248.326381 -282.393318 
L 249.058343 -284.341861 
L 249.687908 -286.290404 
L 250.205949 -288.238947 
L 250.616582 -290.18749 
L 250.933934 -292.136033 
L 251.176789 -294.084577 
L 251.363109 -296.03312 
L 251.50658 -297.981663 
L 251.616289 -299.930206 
L 251.698774 -301.878749 
L 251.760391 -303.827292 
L 251.808119 -305.775835 
L 251.848467 -307.724378 
L 251.885674 -309.672921 
L 251.920828 -311.621464 
L 251.952572 -313.570007 
L 251.978823 -315.51855 
L 251.998324 -317.467093 
L 252.011252 -319.415636 
L 252.040815 -319.415636 
L 252.040815 -319.415636 
L 252.053742 -317.467093 
L 252.073244 -315.51855 
L 252.099495 -313.570007 
L 252.131238 -311.621464 
L 252.166393 -309.672921 
L 252.2036 -307.724378 
L 252.243947 -305.775835 
L 252.291676 -303.827292 
L 252.353293 -301.878749 
L 252.435778 -299.930206 
L 252.545487 -297.981663 
L 252.688958 -296.03312 
L 252.875278 -294.084577 
L 253.118133 -292.136033 
L 253.435484 -290.18749 
L 253.846117 -288.238947 
L 254.364159 -286.290404 
L 254.993723 -284.341861 
L 255.725686 -282.393318 
L 256.537932 -280.444775 
L 257.399856 -278.496232 
L 258.280817 -276.547689 
L 259.159834 -274.599146 
L 260.030873 -272.650603 
L 260.898311 -270.70206 
L 261.762931 -268.753517 
L 262.607312 -266.804974 
L 263.393082 -264.856431 
L 264.075968 -262.907887 
L 264.63129 -260.959344 
L 265.072998 -259.010801 
L 265.451692 -257.062258 
L 265.830049 -255.113715 
L 266.248441 -253.165172 
L 266.69959 -251.216629 
L 267.125786 -249.268086 
L 267.440067 -247.319543 
L 267.561392 -245.371 
L 267.448627 -243.422457 
L 267.119721 -241.473914 
L 266.648487 -239.525371 
L 266.139567 -237.576828 
L 265.690651 -235.628285 
L 265.357168 -233.679741 
L 265.134746 -231.731198 
L 264.966912 -229.782655 
L 264.772982 -227.834112 
L 264.481174 -225.885569 
L 264.050989 -223.937026 
L 263.477389 -221.988483 
L 262.780831 -220.03994 
L 261.993897 -218.091397 
L 261.153068 -216.142854 
L 260.296536 -214.194311 
L 259.463056 -212.245768 
L 258.687408 -210.297225 
L 257.993108 -208.348682 
L 257.38715 -206.400139 
L 256.860836 -204.451595 
L 256.396566 -202.503052 
L 255.976593 -200.554509 
L 255.589079 -198.605966 
L 255.229075 -196.657423 
L 254.895374 -194.70888 
L 254.586363 -192.760337 
L 254.298004 -190.811794 
L 254.024972 -188.863251 
L 253.763585 -186.914708 
L 253.514067 -184.966165 
L 253.280672 -183.017622 
L 253.070004 -181.069079 
L 252.888911 -179.120536 
L 252.742844 -177.171993 
L 252.634489 -175.223449 
L 252.562178 -173.274906 
L 252.518505 -171.326363 
L 252.490632 -169.37782 
L 252.463395 -167.429277 
L 252.424448 -165.480734 
L 252.368793 -163.532191 
L 252.300001 -161.583648 
L 252.22749 -159.635105 
L 252.161679 -157.686562 
L 252.109872 -155.738019 
L 252.074697 -153.789476 
L 252.054995 -151.840933 
L 252.047769 -149.89239 
L 252.049735 -147.943847 
L 252.057838 -145.995303 
L 252.069031 -144.04676 
L 252.08003 -142.098217 
L 252.087618 -140.149674 
L 252.089465 -138.201131 
L 252.084955 -136.252588 
L 252.075378 -134.304045 
L 252.063287 -132.355502 
L 252.051387 -130.406959 
L 252.041588 -128.458416 
L 252.034636 -126.509873 
z
" style="stroke: #3f3f3f; stroke-width: 1.25"/>
    </defs>
    <g clip-path="url(#p65b17ae2b4)">
     <use xlink:href="#me96decd14b" x="0" y="345.6" style="fill: #3274a1; stroke: #3f3f3f; stroke-width: 1.25"/>
    </g>
   </g>
   <g id="PolyCollection_4">
    <defs>
     <path id="m1555c3537a" d="M 333.523064 -161.278187 
L 333.500857 -161.278187 
L 333.492123 -162.755113 
L 333.47951 -164.232039 
L 333.463215 -165.708964 
L 333.444444 -167.18589 
L 333.425265 -168.662816 
L 333.408069 -170.139742 
L 333.394915 -171.616667 
L 333.387102 -173.093593 
L 333.385092 -174.570519 
L 333.388566 -176.047445 
L 333.396296 -177.52437 
L 333.405778 -179.001296 
L 333.412961 -180.478222 
L 333.41249 -181.955147 
L 333.398627 -183.432073 
L 333.36653 -184.908999 
L 333.313383 -186.385925 
L 333.239058 -187.86285 
L 333.146379 -189.339776 
L 333.041264 -190.816702 
L 332.932759 -192.293627 
L 332.832308 -193.770553 
L 332.751367 -195.247479 
L 332.697221 -196.724405 
L 332.668473 -198.20133 
L 332.652932 -199.678256 
L 332.630026 -201.155182 
L 332.577455 -202.632108 
L 332.478984 -204.109033 
L 332.329246 -205.585959 
L 332.133074 -207.062885 
L 331.900057 -208.53981 
L 331.637699 -210.016736 
L 331.347001 -211.493662 
L 331.022519 -212.970588 
L 330.656246 -214.447513 
L 330.242663 -215.924439 
L 329.781842 -217.401365 
L 329.278726 -218.87829 
L 328.738871 -220.355216 
L 328.163179 -221.832142 
L 327.54506 -223.309068 
L 326.872335 -224.785993 
L 326.133404 -226.262919 
L 325.324451 -227.739845 
L 324.453667 -229.21677 
L 323.540059 -230.693696 
L 322.607505 -232.170622 
L 321.677413 -233.647548 
L 320.764342 -235.124473 
L 319.877308 -236.601399 
L 319.025667 -238.078325 
L 318.224741 -239.555251 
L 317.495818 -241.032176 
L 316.859192 -242.509102 
L 316.324811 -243.986028 
L 315.887768 -245.462953 
L 315.532556 -246.939879 
L 315.243168 -248.416805 
L 315.011654 -249.893731 
L 314.839054 -251.370656 
L 314.728657 -252.847582 
L 314.677258 -254.324508 
L 314.671737 -255.801433 
L 314.694691 -257.278359 
L 314.736702 -258.755285 
L 314.80792 -260.232211 
L 314.941416 -261.709136 
L 315.185335 -263.186062 
L 315.587105 -264.662988 
L 316.176718 -266.139913 
L 316.955752 -267.616839 
L 317.895763 -269.093765 
L 318.946214 -270.570691 
L 320.049087 -272.047616 
L 321.154768 -273.524542 
L 322.232752 -275.001468 
L 323.272839 -276.478394 
L 324.277577 -277.955319 
L 325.251448 -279.432245 
L 326.193188 -280.909171 
L 327.094285 -282.386096 
L 327.942326 -283.863022 
L 328.725756 -285.339948 
L 329.437365 -286.816874 
L 330.075606 -288.293799 
L 330.643978 -289.770725 
L 331.149005 -291.247651 
L 331.597554 -292.724576 
L 331.994529 -294.201502 
L 332.341893 -295.678428 
L 332.639351 -297.155354 
L 332.886093 -298.632279 
L 333.082607 -300.109205 
L 333.231765 -301.586131 
L 333.338955 -303.063057 
L 333.411437 -304.539982 
L 333.457282 -306.016908 
L 333.484253 -307.493834 
L 333.539668 -307.493834 
L 333.539668 -307.493834 
L 333.566639 -306.016908 
L 333.612484 -304.539982 
L 333.684966 -303.063057 
L 333.792156 -301.586131 
L 333.941314 -300.109205 
L 334.137828 -298.632279 
L 334.38457 -297.155354 
L 334.682027 -295.678428 
L 335.029392 -294.201502 
L 335.426367 -292.724576 
L 335.874916 -291.247651 
L 336.379943 -289.770725 
L 336.948314 -288.293799 
L 337.586556 -286.816874 
L 338.298165 -285.339948 
L 339.081595 -283.863022 
L 339.929636 -282.386096 
L 340.830733 -280.909171 
L 341.772473 -279.432245 
L 342.746344 -277.955319 
L 343.751082 -276.478394 
L 344.791169 -275.001468 
L 345.869153 -273.524542 
L 346.974834 -272.047616 
L 348.077707 -270.570691 
L 349.128157 -269.093765 
L 350.068168 -267.616839 
L 350.847203 -266.139913 
L 351.436816 -264.662988 
L 351.838586 -263.186062 
L 352.082505 -261.709136 
L 352.216001 -260.232211 
L 352.287219 -258.755285 
L 352.32923 -257.278359 
L 352.352183 -255.801433 
L 352.346662 -254.324508 
L 352.295264 -252.847582 
L 352.184866 -251.370656 
L 352.012267 -249.893731 
L 351.780752 -248.416805 
L 351.491365 -246.939879 
L 351.136152 -245.462953 
L 350.69911 -243.986028 
L 350.164729 -242.509102 
L 349.528103 -241.032176 
L 348.79918 -239.555251 
L 347.998254 -238.078325 
L 347.146613 -236.601399 
L 346.259578 -235.124473 
L 345.346508 -233.647548 
L 344.416416 -232.170622 
L 343.483862 -230.693696 
L 342.570254 -229.21677 
L 341.69947 -227.739845 
L 340.890517 -226.262919 
L 340.151586 -224.785993 
L 339.478861 -223.309068 
L 338.860742 -221.832142 
L 338.28505 -220.355216 
L 337.745195 -218.87829 
L 337.242079 -217.401365 
L 336.781258 -215.924439 
L 336.367675 -214.447513 
L 336.001402 -212.970588 
L 335.676919 -211.493662 
L 335.386222 -210.016736 
L 335.123864 -208.53981 
L 334.890847 -207.062885 
L 334.694674 -205.585959 
L 334.544937 -204.109033 
L 334.446466 -202.632108 
L 334.393895 -201.155182 
L 334.370989 -199.678256 
L 334.355448 -198.20133 
L 334.3267 -196.724405 
L 334.272554 -195.247479 
L 334.191613 -193.770553 
L 334.091162 -192.293627 
L 333.982657 -190.816702 
L 333.877542 -189.339776 
L 333.784863 -187.86285 
L 333.710538 -186.385925 
L 333.657391 -184.908999 
L 333.625293 -183.432073 
L 333.611431 -181.955147 
L 333.61096 -180.478222 
L 333.618143 -179.001296 
L 333.627625 -177.52437 
L 333.635355 -176.047445 
L 333.638828 -174.570519 
L 333.636819 -173.093593 
L 333.629006 -171.616667 
L 333.615852 -170.139742 
L 333.598656 -168.662816 
L 333.579476 -167.18589 
L 333.560706 -165.708964 
L 333.544411 -164.232039 
L 333.531798 -162.755113 
L 333.523064 -161.278187 
z
" style="stroke: #3f3f3f; stroke-width: 1.25"/>
    </defs>
    <g clip-path="url(#p65b17ae2b4)">
     <use xlink:href="#m1555c3537a" x="0" y="345.6" style="fill: #3274a1; stroke: #3f3f3f; stroke-width: 1.25"/>
    </g>
   </g>
   <g id="PolyCollection_5">
    <defs>
     <path id="m6a13bd0e33" d="M 415.006321 -54.928364 
L 414.989453 -54.928364 
L 414.982144 -57.028135 
L 414.971571 -59.127906 
L 414.958374 -61.227678 
L 414.94431 -63.327449 
L 414.931694 -65.42722 
L 414.922349 -67.526992 
L 414.916775 -69.626763 
L 414.914247 -71.726535 
L 414.913759 -73.826306 
L 414.914926 -75.926077 
L 414.917922 -78.025849 
L 414.922531 -80.12562 
L 414.927283 -82.225391 
L 414.929667 -84.325163 
L 414.927375 -86.424934 
L 414.919563 -88.524705 
L 414.907056 -90.624477 
L 414.891314 -92.724248 
L 414.87291 -94.824019 
L 414.850536 -96.923791 
L 414.82106 -99.023562 
L 414.780527 -101.123334 
L 414.72569 -103.223105 
L 414.655528 -105.322876 
L 414.572107 -107.422648 
L 414.479945 -109.522419 
L 414.383321 -111.62219 
L 414.281975 -113.721962 
L 414.167136 -115.821733 
L 414.020817 -117.921504 
L 413.820383 -120.021276 
L 413.547451 -122.121047 
L 413.196705 -124.220819 
L 412.779108 -126.32059 
L 412.316924 -128.420361 
L 411.833382 -130.520133 
L 411.343552 -132.619904 
L 410.851596 -134.719675 
L 410.354094 -136.819447 
L 409.844713 -138.919218 
L 409.316475 -141.018989 
L 408.762225 -143.118761 
L 408.175951 -145.218532 
L 407.554865 -147.318303 
L 406.898992 -149.418075 
L 406.206963 -151.517846 
L 405.472585 -153.617618 
L 404.688999 -155.717389 
L 403.861327 -157.81716 
L 403.019381 -159.916932 
L 402.219042 -162.016703 
L 401.527794 -164.116474 
L 401.000738 -166.216246 
L 400.659559 -168.316017 
L 400.484755 -170.415788 
L 400.4239 -172.51556 
L 400.41111 -174.615331 
L 400.389413 -176.715103 
L 400.328601 -178.814874 
L 400.233851 -180.914645 
L 400.143056 -183.014417 
L 400.113957 -185.114188 
L 400.205958 -187.213959 
L 400.46363 -189.313731 
L 400.907161 -191.413502 
L 401.530988 -193.513273 
L 402.309128 -195.613045 
L 403.204942 -197.712816 
L 404.182148 -199.812587 
L 405.21223 -201.912359 
L 406.273965 -204.01213 
L 407.345394 -206.111902 
L 408.394539 -208.211673 
L 409.377086 -210.311444 
L 410.244836 -212.411216 
L 410.961263 -214.510987 
L 411.515624 -216.610758 
L 411.927687 -218.71053 
L 412.240371 -220.810301 
L 412.503761 -222.910072 
L 412.758007 -225.009844 
L 413.022643 -227.109615 
L 413.296 -229.209387 
L 413.563055 -231.309158 
L 413.806392 -233.408929 
L 414.014877 -235.508701 
L 414.187041 -237.608472 
L 414.329202 -239.708243 
L 414.45049 -241.808015 
L 414.557959 -243.907786 
L 414.654309 -246.007557 
L 414.738796 -248.107329 
L 414.809756 -250.2071 
L 414.866579 -252.306871 
L 414.910142 -254.406643 
L 414.942191 -256.506414 
L 414.964676 -258.606186 
L 414.979508 -260.705957 
L 414.988551 -262.805728 
L 415.007224 -262.805728 
L 415.007224 -262.805728 
L 415.016267 -260.705957 
L 415.031099 -258.606186 
L 415.053584 -256.506414 
L 415.085632 -254.406643 
L 415.129195 -252.306871 
L 415.186019 -250.2071 
L 415.256978 -248.107329 
L 415.341466 -246.007557 
L 415.437816 -243.907786 
L 415.545285 -241.808015 
L 415.666573 -239.708243 
L 415.808733 -237.608472 
L 415.980898 -235.508701 
L 416.189383 -233.408929 
L 416.43272 -231.309158 
L 416.699775 -229.209387 
L 416.973132 -227.109615 
L 417.237768 -225.009844 
L 417.492014 -222.910072 
L 417.755403 -220.810301 
L 418.068088 -218.71053 
L 418.480151 -216.610758 
L 419.034512 -214.510987 
L 419.750939 -212.411216 
L 420.618688 -210.311444 
L 421.601236 -208.211673 
L 422.650381 -206.111902 
L 423.72181 -204.01213 
L 424.783545 -201.912359 
L 425.813627 -199.812587 
L 426.790833 -197.712816 
L 427.686647 -195.613045 
L 428.464787 -193.513273 
L 429.088614 -191.413502 
L 429.532145 -189.313731 
L 429.789817 -187.213959 
L 429.881818 -185.114188 
L 429.852719 -183.014417 
L 429.761924 -180.914645 
L 429.667173 -178.814874 
L 429.606362 -176.715103 
L 429.584665 -174.615331 
L 429.571875 -172.51556 
L 429.51102 -170.415788 
L 429.336216 -168.316017 
L 428.995037 -166.216246 
L 428.467981 -164.116474 
L 427.776733 -162.016703 
L 426.976393 -159.916932 
L 426.134448 -157.81716 
L 425.306776 -155.717389 
L 424.52319 -153.617618 
L 423.788812 -151.517846 
L 423.096783 -149.418075 
L 422.44091 -147.318303 
L 421.819824 -145.218532 
L 421.23355 -143.118761 
L 420.6793 -141.018989 
L 420.151062 -138.919218 
L 419.641681 -136.819447 
L 419.144179 -134.719675 
L 418.652223 -132.619904 
L 418.162393 -130.520133 
L 417.678851 -128.420361 
L 417.216667 -126.32059 
L 416.79907 -124.220819 
L 416.448324 -122.121047 
L 416.175392 -120.021276 
L 415.974958 -117.921504 
L 415.828639 -115.821733 
L 415.7138 -113.721962 
L 415.612454 -111.62219 
L 415.51583 -109.522419 
L 415.423668 -107.422648 
L 415.340247 -105.322876 
L 415.270085 -103.223105 
L 415.215248 -101.123334 
L 415.174715 -99.023562 
L 415.145238 -96.923791 
L 415.122865 -94.824019 
L 415.104461 -92.724248 
L 415.088719 -90.624477 
L 415.076212 -88.524705 
L 415.0684 -86.424934 
L 415.066108 -84.325163 
L 415.068492 -82.225391 
L 415.073244 -80.12562 
L 415.077853 -78.025849 
L 415.080849 -75.926077 
L 415.082016 -73.826306 
L 415.081528 -71.726535 
L 415.079 -69.626763 
L 415.073426 -67.526992 
L 415.064081 -65.42722 
L 415.051465 -63.327449 
L 415.037401 -61.227678 
L 415.024204 -59.127906 
L 415.013631 -57.028135 
L 415.006321 -54.928364 
z
" style="stroke: #3f3f3f; stroke-width: 1.25"/>
    </defs>
    <g clip-path="url(#p65b17ae2b4)">
     <use xlink:href="#m6a13bd0e33" x="0" y="345.6" style="fill: #3274a1; stroke: #3f3f3f; stroke-width: 1.25"/>
    </g>
   </g>
   <g id="matplotlib.axis_1">
    <g id="xtick_1">
     <g id="line2d_1">
      <defs>
       <path id="m6a28ab236b" d="M 0 0 
L 0 3.5 
" style="stroke: #000000; stroke-width: 0.8"/>
      </defs>
      <g>
       <use xlink:href="#m6a28ab236b" x="89.054179" y="303.896" style="stroke: #000000; stroke-width: 0.8"/>
      </g>
     </g>
     <g id="text_1">
      <!-- Fluency -->
      <g transform="translate(69.666679 318.494438) scale(0.1 -0.1)">
       <defs>
        <path id="DejaVuSans-46" d="M 628 4666 
L 3309 4666 
L 3309 4134 
L 1259 4134 
L 1259 2759 
L 3109 2759 
L 3109 2228 
L 1259 2228 
L 1259 0 
L 628 0 
L 628 4666 
z
" transform="scale(0.015625)"/>
        <path id="DejaVuSans-6c" d="M 603 4863 
L 1178 4863 
L 1178 0 
L 603 0 
L 603 4863 
z
" transform="scale(0.015625)"/>
        <path id="DejaVuSans-75" d="M 544 1381 
L 544 3500 
L 1119 3500 
L 1119 1403 
Q 1119 906 1312 657 
Q 1506 409 1894 409 
Q 2359 409 2629 706 
Q 2900 1003 2900 1516 
L 2900 3500 
L 3475 3500 
L 3475 0 
L 2900 0 
L 2900 538 
Q 2691 219 2414 64 
Q 2138 -91 1772 -91 
Q 1169 -91 856 284 
Q 544 659 544 1381 
z
M 1991 3584 
L 1991 3584 
z
" transform="scale(0.015625)"/>
        <path id="DejaVuSans-65" d="M 3597 1894 
L 3597 1613 
L 953 1613 
Q 991 1019 1311 708 
Q 1631 397 2203 397 
Q 2534 397 2845 478 
Q 3156 559 3463 722 
L 3463 178 
Q 3153 47 2828 -22 
Q 2503 -91 2169 -91 
Q 1331 -91 842 396 
Q 353 884 353 1716 
Q 353 2575 817 3079 
Q 1281 3584 2069 3584 
Q 2775 3584 3186 3129 
Q 3597 2675 3597 1894 
z
M 3022 2063 
Q 3016 2534 2758 2815 
Q 2500 3097 2075 3097 
Q 1594 3097 1305 2825 
Q 1016 2553 972 2059 
L 3022 2063 
z
" transform="scale(0.015625)"/>
        <path id="DejaVuSans-6e" d="M 3513 2113 
L 3513 0 
L 2938 0 
L 2938 2094 
Q 2938 2591 2744 2837 
Q 2550 3084 2163 3084 
Q 1697 3084 1428 2787 
Q 1159 2491 1159 1978 
L 1159 0 
L 581 0 
L 581 3500 
L 1159 3500 
L 1159 2956 
Q 1366 3272 1645 3428 
Q 1925 3584 2291 3584 
Q 2894 3584 3203 3211 
Q 3513 2838 3513 2113 
z
" transform="scale(0.015625)"/>
        <path id="DejaVuSans-63" d="M 3122 3366 
L 3122 2828 
Q 2878 2963 2633 3030 
Q 2388 3097 2138 3097 
Q 1578 3097 1268 2742 
Q 959 2388 959 1747 
Q 959 1106 1268 751 
Q 1578 397 2138 397 
Q 2388 397 2633 464 
Q 2878 531 3122 666 
L 3122 134 
Q 2881 22 2623 -34 
Q 2366 -91 2075 -91 
Q 1284 -91 818 406 
Q 353 903 353 1747 
Q 353 2603 823 3093 
Q 1294 3584 2113 3584 
Q 2378 3584 2631 3529 
Q 2884 3475 3122 3366 
z
" transform="scale(0.015625)"/>
        <path id="DejaVuSans-79" d="M 2059 -325 
Q 1816 -950 1584 -1140 
Q 1353 -1331 966 -1331 
L 506 -1331 
L 506 -850 
L 844 -850 
Q 1081 -850 1212 -737 
Q 1344 -625 1503 -206 
L 1606 56 
L 191 3500 
L 800 3500 
L 1894 763 
L 2988 3500 
L 3597 3500 
L 2059 -325 
z
" transform="scale(0.015625)"/>
       </defs>
       <use xlink:href="#DejaVuSans-46"/>
       <use xlink:href="#DejaVuSans-6c" x="57.519531"/>
       <use xlink:href="#DejaVuSans-75" x="85.302734"/>
       <use xlink:href="#DejaVuSans-65" x="148.681641"/>
       <use xlink:href="#DejaVuSans-6e" x="210.205078"/>
       <use xlink:href="#DejaVuSans-63" x="273.583984"/>
       <use xlink:href="#DejaVuSans-79" x="328.564453"/>
      </g>
      <!--  classifier -->
      <g transform="translate(65.383085 329.69225) scale(0.1 -0.1)">
       <defs>
        <path id="DejaVuSans-20" transform="scale(0.015625)"/>
        <path id="DejaVuSans-61" d="M 2194 1759 
Q 1497 1759 1228 1600 
Q 959 1441 959 1056 
Q 959 750 1161 570 
Q 1363 391 1709 391 
Q 2188 391 2477 730 
Q 2766 1069 2766 1631 
L 2766 1759 
L 2194 1759 
z
M 3341 1997 
L 3341 0 
L 2766 0 
L 2766 531 
Q 2569 213 2275 61 
Q 1981 -91 1556 -91 
Q 1019 -91 701 211 
Q 384 513 384 1019 
Q 384 1609 779 1909 
Q 1175 2209 1959 2209 
L 2766 2209 
L 2766 2266 
Q 2766 2663 2505 2880 
Q 2244 3097 1772 3097 
Q 1472 3097 1187 3025 
Q 903 2953 641 2809 
L 641 3341 
Q 956 3463 1253 3523 
Q 1550 3584 1831 3584 
Q 2591 3584 2966 3190 
Q 3341 2797 3341 1997 
z
" transform="scale(0.015625)"/>
        <path id="DejaVuSans-73" d="M 2834 3397 
L 2834 2853 
Q 2591 2978 2328 3040 
Q 2066 3103 1784 3103 
Q 1356 3103 1142 2972 
Q 928 2841 928 2578 
Q 928 2378 1081 2264 
Q 1234 2150 1697 2047 
L 1894 2003 
Q 2506 1872 2764 1633 
Q 3022 1394 3022 966 
Q 3022 478 2636 193 
Q 2250 -91 1575 -91 
Q 1294 -91 989 -36 
Q 684 19 347 128 
L 347 722 
Q 666 556 975 473 
Q 1284 391 1588 391 
Q 1994 391 2212 530 
Q 2431 669 2431 922 
Q 2431 1156 2273 1281 
Q 2116 1406 1581 1522 
L 1381 1569 
Q 847 1681 609 1914 
Q 372 2147 372 2553 
Q 372 3047 722 3315 
Q 1072 3584 1716 3584 
Q 2034 3584 2315 3537 
Q 2597 3491 2834 3397 
z
" transform="scale(0.015625)"/>
        <path id="DejaVuSans-69" d="M 603 3500 
L 1178 3500 
L 1178 0 
L 603 0 
L 603 3500 
z
M 603 4863 
L 1178 4863 
L 1178 4134 
L 603 4134 
L 603 4863 
z
" transform="scale(0.015625)"/>
        <path id="DejaVuSans-66" d="M 2375 4863 
L 2375 4384 
L 1825 4384 
Q 1516 4384 1395 4259 
Q 1275 4134 1275 3809 
L 1275 3500 
L 2222 3500 
L 2222 3053 
L 1275 3053 
L 1275 0 
L 697 0 
L 697 3053 
L 147 3053 
L 147 3500 
L 697 3500 
L 697 3744 
Q 697 4328 969 4595 
Q 1241 4863 1831 4863 
L 2375 4863 
z
" transform="scale(0.015625)"/>
        <path id="DejaVuSans-72" d="M 2631 2963 
Q 2534 3019 2420 3045 
Q 2306 3072 2169 3072 
Q 1681 3072 1420 2755 
Q 1159 2438 1159 1844 
L 1159 0 
L 581 0 
L 581 3500 
L 1159 3500 
L 1159 2956 
Q 1341 3275 1631 3429 
Q 1922 3584 2338 3584 
Q 2397 3584 2469 3576 
Q 2541 3569 2628 3553 
L 2631 2963 
z
" transform="scale(0.015625)"/>
       </defs>
       <use xlink:href="#DejaVuSans-20"/>
       <use xlink:href="#DejaVuSans-63" x="31.787109"/>
       <use xlink:href="#DejaVuSans-6c" x="86.767578"/>
       <use xlink:href="#DejaVuSans-61" x="114.550781"/>
       <use xlink:href="#DejaVuSans-73" x="175.830078"/>
       <use xlink:href="#DejaVuSans-73" x="227.929688"/>
       <use xlink:href="#DejaVuSans-69" x="280.029297"/>
       <use xlink:href="#DejaVuSans-66" x="307.8125"/>
       <use xlink:href="#DejaVuSans-69" x="343.017578"/>
       <use xlink:href="#DejaVuSans-65" x="370.800781"/>
       <use xlink:href="#DejaVuSans-72" x="432.324219"/>
      </g>
     </g>
    </g>
    <g id="xtick_2">
     <g id="line2d_2">
      <g>
       <use xlink:href="#m6a28ab236b" x="170.540106" y="303.896" style="stroke: #000000; stroke-width: 0.8"/>
      </g>
     </g>
     <g id="text_2">
      <!-- Screening -->
      <g transform="translate(145.619794 318.494438) scale(0.1 -0.1)">
       <defs>
        <path id="DejaVuSans-53" d="M 3425 4513 
L 3425 3897 
Q 3066 4069 2747 4153 
Q 2428 4238 2131 4238 
Q 1616 4238 1336 4038 
Q 1056 3838 1056 3469 
Q 1056 3159 1242 3001 
Q 1428 2844 1947 2747 
L 2328 2669 
Q 3034 2534 3370 2195 
Q 3706 1856 3706 1288 
Q 3706 609 3251 259 
Q 2797 -91 1919 -91 
Q 1588 -91 1214 -16 
Q 841 59 441 206 
L 441 856 
Q 825 641 1194 531 
Q 1563 422 1919 422 
Q 2459 422 2753 634 
Q 3047 847 3047 1241 
Q 3047 1584 2836 1778 
Q 2625 1972 2144 2069 
L 1759 2144 
Q 1053 2284 737 2584 
Q 422 2884 422 3419 
Q 422 4038 858 4394 
Q 1294 4750 2059 4750 
Q 2388 4750 2728 4690 
Q 3069 4631 3425 4513 
z
" transform="scale(0.015625)"/>
        <path id="DejaVuSans-67" d="M 2906 1791 
Q 2906 2416 2648 2759 
Q 2391 3103 1925 3103 
Q 1463 3103 1205 2759 
Q 947 2416 947 1791 
Q 947 1169 1205 825 
Q 1463 481 1925 481 
Q 2391 481 2648 825 
Q 2906 1169 2906 1791 
z
M 3481 434 
Q 3481 -459 3084 -895 
Q 2688 -1331 1869 -1331 
Q 1566 -1331 1297 -1286 
Q 1028 -1241 775 -1147 
L 775 -588 
Q 1028 -725 1275 -790 
Q 1522 -856 1778 -856 
Q 2344 -856 2625 -561 
Q 2906 -266 2906 331 
L 2906 616 
Q 2728 306 2450 153 
Q 2172 0 1784 0 
Q 1141 0 747 490 
Q 353 981 353 1791 
Q 353 2603 747 3093 
Q 1141 3584 1784 3584 
Q 2172 3584 2450 3431 
Q 2728 3278 2906 2969 
L 2906 3500 
L 3481 3500 
L 3481 434 
z
" transform="scale(0.015625)"/>
       </defs>
       <use xlink:href="#DejaVuSans-53"/>
       <use xlink:href="#DejaVuSans-63" x="63.476562"/>
       <use xlink:href="#DejaVuSans-72" x="118.457031"/>
       <use xlink:href="#DejaVuSans-65" x="157.320312"/>
       <use xlink:href="#DejaVuSans-65" x="218.84375"/>
       <use xlink:href="#DejaVuSans-6e" x="280.367188"/>
       <use xlink:href="#DejaVuSans-69" x="343.746094"/>
       <use xlink:href="#DejaVuSans-6e" x="371.529297"/>
       <use xlink:href="#DejaVuSans-67" x="434.908203"/>
      </g>
      <!--  classifier -->
      <g transform="translate(146.869013 329.69225) scale(0.1 -0.1)">
       <use xlink:href="#DejaVuSans-20"/>
       <use xlink:href="#DejaVuSans-63" x="31.787109"/>
       <use xlink:href="#DejaVuSans-6c" x="86.767578"/>
       <use xlink:href="#DejaVuSans-61" x="114.550781"/>
       <use xlink:href="#DejaVuSans-73" x="175.830078"/>
       <use xlink:href="#DejaVuSans-73" x="227.929688"/>
       <use xlink:href="#DejaVuSans-69" x="280.029297"/>
       <use xlink:href="#DejaVuSans-66" x="307.8125"/>
       <use xlink:href="#DejaVuSans-69" x="343.017578"/>
       <use xlink:href="#DejaVuSans-65" x="370.800781"/>
       <use xlink:href="#DejaVuSans-72" x="432.324219"/>
      </g>
     </g>
    </g>
    <g id="xtick_3">
     <g id="line2d_3">
      <g>
       <use xlink:href="#m6a28ab236b" x="252.026033" y="303.896" style="stroke: #000000; stroke-width: 0.8"/>
      </g>
     </g>
     <g id="text_3">
      <!-- Executive -->
      <g transform="translate(227.683846 318.494438) scale(0.1 -0.1)">
       <defs>
        <path id="DejaVuSans-45" d="M 628 4666 
L 3578 4666 
L 3578 4134 
L 1259 4134 
L 1259 2753 
L 3481 2753 
L 3481 2222 
L 1259 2222 
L 1259 531 
L 3634 531 
L 3634 0 
L 628 0 
L 628 4666 
z
" transform="scale(0.015625)"/>
        <path id="DejaVuSans-78" d="M 3513 3500 
L 2247 1797 
L 3578 0 
L 2900 0 
L 1881 1375 
L 863 0 
L 184 0 
L 1544 1831 
L 300 3500 
L 978 3500 
L 1906 2253 
L 2834 3500 
L 3513 3500 
z
" transform="scale(0.015625)"/>
        <path id="DejaVuSans-74" d="M 1172 4494 
L 1172 3500 
L 2356 3500 
L 2356 3053 
L 1172 3053 
L 1172 1153 
Q 1172 725 1289 603 
Q 1406 481 1766 481 
L 2356 481 
L 2356 0 
L 1766 0 
Q 1100 0 847 248 
Q 594 497 594 1153 
L 594 3053 
L 172 3053 
L 172 3500 
L 594 3500 
L 594 4494 
L 1172 4494 
z
" transform="scale(0.015625)"/>
        <path id="DejaVuSans-76" d="M 191 3500 
L 800 3500 
L 1894 563 
L 2988 3500 
L 3597 3500 
L 2284 0 
L 1503 0 
L 191 3500 
z
" transform="scale(0.015625)"/>
       </defs>
       <use xlink:href="#DejaVuSans-45"/>
       <use xlink:href="#DejaVuSans-78" x="63.183594"/>
       <use xlink:href="#DejaVuSans-65" x="119.238281"/>
       <use xlink:href="#DejaVuSans-63" x="180.761719"/>
       <use xlink:href="#DejaVuSans-75" x="235.742188"/>
       <use xlink:href="#DejaVuSans-74" x="299.121094"/>
       <use xlink:href="#DejaVuSans-69" x="338.330078"/>
       <use xlink:href="#DejaVuSans-76" x="366.113281"/>
       <use xlink:href="#DejaVuSans-65" x="425.292969"/>
      </g>
      <!--  classifier -->
      <g transform="translate(228.35494 329.69225) scale(0.1 -0.1)">
       <use xlink:href="#DejaVuSans-20"/>
       <use xlink:href="#DejaVuSans-63" x="31.787109"/>
       <use xlink:href="#DejaVuSans-6c" x="86.767578"/>
       <use xlink:href="#DejaVuSans-61" x="114.550781"/>
       <use xlink:href="#DejaVuSans-73" x="175.830078"/>
       <use xlink:href="#DejaVuSans-73" x="227.929688"/>
       <use xlink:href="#DejaVuSans-69" x="280.029297"/>
       <use xlink:href="#DejaVuSans-66" x="307.8125"/>
       <use xlink:href="#DejaVuSans-69" x="343.017578"/>
       <use xlink:href="#DejaVuSans-65" x="370.800781"/>
       <use xlink:href="#DejaVuSans-72" x="432.324219"/>
      </g>
     </g>
    </g>
    <g id="xtick_4">
     <g id="line2d_4">
      <g>
       <use xlink:href="#m6a28ab236b" x="333.51196" y="303.896" style="stroke: #000000; stroke-width: 0.8"/>
      </g>
     </g>
     <g id="text_4">
      <!-- Structural -->
      <g transform="translate(308.766648 318.494438) scale(0.1 -0.1)">
       <use xlink:href="#DejaVuSans-53"/>
       <use xlink:href="#DejaVuSans-74" x="63.476562"/>
       <use xlink:href="#DejaVuSans-72" x="102.685547"/>
       <use xlink:href="#DejaVuSans-75" x="143.798828"/>
       <use xlink:href="#DejaVuSans-63" x="207.177734"/>
       <use xlink:href="#DejaVuSans-74" x="262.158203"/>
       <use xlink:href="#DejaVuSans-75" x="301.367188"/>
       <use xlink:href="#DejaVuSans-72" x="364.746094"/>
       <use xlink:href="#DejaVuSans-61" x="405.859375"/>
       <use xlink:href="#DejaVuSans-6c" x="467.138672"/>
      </g>
      <!--  classifier -->
      <g transform="translate(309.840867 329.69225) scale(0.1 -0.1)">
       <use xlink:href="#DejaVuSans-20"/>
       <use xlink:href="#DejaVuSans-63" x="31.787109"/>
       <use xlink:href="#DejaVuSans-6c" x="86.767578"/>
       <use xlink:href="#DejaVuSans-61" x="114.550781"/>
       <use xlink:href="#DejaVuSans-73" x="175.830078"/>
       <use xlink:href="#DejaVuSans-73" x="227.929688"/>
       <use xlink:href="#DejaVuSans-69" x="280.029297"/>
       <use xlink:href="#DejaVuSans-66" x="307.8125"/>
       <use xlink:href="#DejaVuSans-69" x="343.017578"/>
       <use xlink:href="#DejaVuSans-65" x="370.800781"/>
       <use xlink:href="#DejaVuSans-72" x="432.324219"/>
      </g>
     </g>
    </g>
    <g id="xtick_5">
     <g id="line2d_5">
      <g>
       <use xlink:href="#m6a28ab236b" x="414.997887" y="303.896" style="stroke: #000000; stroke-width: 0.8"/>
      </g>
     </g>
     <g id="text_5">
      <!-- Functional -->
      <g transform="translate(389.279919 318.494438) scale(0.1 -0.1)">
       <defs>
        <path id="DejaVuSans-6f" d="M 1959 3097 
Q 1497 3097 1228 2736 
Q 959 2375 959 1747 
Q 959 1119 1226 758 
Q 1494 397 1959 397 
Q 2419 397 2687 759 
Q 2956 1122 2956 1747 
Q 2956 2369 2687 2733 
Q 2419 3097 1959 3097 
z
M 1959 3584 
Q 2709 3584 3137 3096 
Q 3566 2609 3566 1747 
Q 3566 888 3137 398 
Q 2709 -91 1959 -91 
Q 1206 -91 779 398 
Q 353 888 353 1747 
Q 353 2609 779 3096 
Q 1206 3584 1959 3584 
z
" transform="scale(0.015625)"/>
       </defs>
       <use xlink:href="#DejaVuSans-46"/>
       <use xlink:href="#DejaVuSans-75" x="52.019531"/>
       <use xlink:href="#DejaVuSans-6e" x="115.398438"/>
       <use xlink:href="#DejaVuSans-63" x="178.777344"/>
       <use xlink:href="#DejaVuSans-74" x="233.757812"/>
       <use xlink:href="#DejaVuSans-69" x="272.966797"/>
       <use xlink:href="#DejaVuSans-6f" x="300.75"/>
       <use xlink:href="#DejaVuSans-6e" x="361.931641"/>
       <use xlink:href="#DejaVuSans-61" x="425.310547"/>
       <use xlink:href="#DejaVuSans-6c" x="486.589844"/>
      </g>
      <!--  classifier -->
      <g transform="translate(391.326794 329.69225) scale(0.1 -0.1)">
       <use xlink:href="#DejaVuSans-20"/>
       <use xlink:href="#DejaVuSans-63" x="31.787109"/>
       <use xlink:href="#DejaVuSans-6c" x="86.767578"/>
       <use xlink:href="#DejaVuSans-61" x="114.550781"/>
       <use xlink:href="#DejaVuSans-73" x="175.830078"/>
       <use xlink:href="#DejaVuSans-73" x="227.929688"/>
       <use xlink:href="#DejaVuSans-69" x="280.029297"/>
       <use xlink:href="#DejaVuSans-66" x="307.8125"/>
       <use xlink:href="#DejaVuSans-69" x="343.017578"/>
       <use xlink:href="#DejaVuSans-65" x="370.800781"/>
       <use xlink:href="#DejaVuSans-72" x="432.324219"/>
      </g>
     </g>
    </g>
   </g>
   <g id="matplotlib.axis_2">
    <g id="ytick_1">
     <g id="line2d_6">
      <defs>
       <path id="m526becc35e" d="M 0 0 
L -3.5 0 
" style="stroke: #000000; stroke-width: 0.8"/>
      </defs>
      <g>
       <use xlink:href="#m526becc35e" x="52.76" y="302.05291" style="stroke: #000000; stroke-width: 0.8"/>
      </g>
     </g>
     <g id="text_6">
      <!-- 0.2 -->
      <g transform="translate(29.856875 305.852128) scale(0.1 -0.1)">
       <defs>
        <path id="DejaVuSans-30" d="M 2034 4250 
Q 1547 4250 1301 3770 
Q 1056 3291 1056 2328 
Q 1056 1369 1301 889 
Q 1547 409 2034 409 
Q 2525 409 2770 889 
Q 3016 1369 3016 2328 
Q 3016 3291 2770 3770 
Q 2525 4250 2034 4250 
z
M 2034 4750 
Q 2819 4750 3233 4129 
Q 3647 3509 3647 2328 
Q 3647 1150 3233 529 
Q 2819 -91 2034 -91 
Q 1250 -91 836 529 
Q 422 1150 422 2328 
Q 422 3509 836 4129 
Q 1250 4750 2034 4750 
z
" transform="scale(0.015625)"/>
        <path id="DejaVuSans-2e" d="M 684 794 
L 1344 794 
L 1344 0 
L 684 0 
L 684 794 
z
" transform="scale(0.015625)"/>
        <path id="DejaVuSans-32" d="M 1228 531 
L 3431 531 
L 3431 0 
L 469 0 
L 469 531 
Q 828 903 1448 1529 
Q 2069 2156 2228 2338 
Q 2531 2678 2651 2914 
Q 2772 3150 2772 3378 
Q 2772 3750 2511 3984 
Q 2250 4219 1831 4219 
Q 1534 4219 1204 4116 
Q 875 4013 500 3803 
L 500 4441 
Q 881 4594 1212 4672 
Q 1544 4750 1819 4750 
Q 2544 4750 2975 4387 
Q 3406 4025 3406 3419 
Q 3406 3131 3298 2873 
Q 3191 2616 2906 2266 
Q 2828 2175 2409 1742 
Q 1991 1309 1228 531 
z
" transform="scale(0.015625)"/>
       </defs>
       <use xlink:href="#DejaVuSans-30"/>
       <use xlink:href="#DejaVuSans-2e" x="63.623047"/>
       <use xlink:href="#DejaVuSans-32" x="95.410156"/>
      </g>
     </g>
    </g>
    <g id="ytick_2">
     <g id="line2d_7">
      <g>
       <use xlink:href="#m526becc35e" x="52.76" y="268.565009" style="stroke: #000000; stroke-width: 0.8"/>
      </g>
     </g>
     <g id="text_7">
      <!-- 0.3 -->
      <g transform="translate(29.856875 272.364227) scale(0.1 -0.1)">
       <defs>
        <path id="DejaVuSans-33" d="M 2597 2516 
Q 3050 2419 3304 2112 
Q 3559 1806 3559 1356 
Q 3559 666 3084 287 
Q 2609 -91 1734 -91 
Q 1441 -91 1130 -33 
Q 819 25 488 141 
L 488 750 
Q 750 597 1062 519 
Q 1375 441 1716 441 
Q 2309 441 2620 675 
Q 2931 909 2931 1356 
Q 2931 1769 2642 2001 
Q 2353 2234 1838 2234 
L 1294 2234 
L 1294 2753 
L 1863 2753 
Q 2328 2753 2575 2939 
Q 2822 3125 2822 3475 
Q 2822 3834 2567 4026 
Q 2313 4219 1838 4219 
Q 1578 4219 1281 4162 
Q 984 4106 628 3988 
L 628 4550 
Q 988 4650 1302 4700 
Q 1616 4750 1894 4750 
Q 2613 4750 3031 4423 
Q 3450 4097 3450 3541 
Q 3450 3153 3228 2886 
Q 3006 2619 2597 2516 
z
" transform="scale(0.015625)"/>
       </defs>
       <use xlink:href="#DejaVuSans-30"/>
       <use xlink:href="#DejaVuSans-2e" x="63.623047"/>
       <use xlink:href="#DejaVuSans-33" x="95.410156"/>
      </g>
     </g>
    </g>
    <g id="ytick_3">
     <g id="line2d_8">
      <g>
       <use xlink:href="#m526becc35e" x="52.76" y="235.077107" style="stroke: #000000; stroke-width: 0.8"/>
      </g>
     </g>
     <g id="text_8">
      <!-- 0.4 -->
      <g transform="translate(29.856875 238.876326) scale(0.1 -0.1)">
       <defs>
        <path id="DejaVuSans-34" d="M 2419 4116 
L 825 1625 
L 2419 1625 
L 2419 4116 
z
M 2253 4666 
L 3047 4666 
L 3047 1625 
L 3713 1625 
L 3713 1100 
L 3047 1100 
L 3047 0 
L 2419 0 
L 2419 1100 
L 313 1100 
L 313 1709 
L 2253 4666 
z
" transform="scale(0.015625)"/>
       </defs>
       <use xlink:href="#DejaVuSans-30"/>
       <use xlink:href="#DejaVuSans-2e" x="63.623047"/>
       <use xlink:href="#DejaVuSans-34" x="95.410156"/>
      </g>
     </g>
    </g>
    <g id="ytick_4">
     <g id="line2d_9">
      <g>
       <use xlink:href="#m526becc35e" x="52.76" y="201.589206" style="stroke: #000000; stroke-width: 0.8"/>
      </g>
     </g>
     <g id="text_9">
      <!-- 0.5 -->
      <g transform="translate(29.856875 205.388425) scale(0.1 -0.1)">
       <defs>
        <path id="DejaVuSans-35" d="M 691 4666 
L 3169 4666 
L 3169 4134 
L 1269 4134 
L 1269 2991 
Q 1406 3038 1543 3061 
Q 1681 3084 1819 3084 
Q 2600 3084 3056 2656 
Q 3513 2228 3513 1497 
Q 3513 744 3044 326 
Q 2575 -91 1722 -91 
Q 1428 -91 1123 -41 
Q 819 9 494 109 
L 494 744 
Q 775 591 1075 516 
Q 1375 441 1709 441 
Q 2250 441 2565 725 
Q 2881 1009 2881 1497 
Q 2881 1984 2565 2268 
Q 2250 2553 1709 2553 
Q 1456 2553 1204 2497 
Q 953 2441 691 2322 
L 691 4666 
z
" transform="scale(0.015625)"/>
       </defs>
       <use xlink:href="#DejaVuSans-30"/>
       <use xlink:href="#DejaVuSans-2e" x="63.623047"/>
       <use xlink:href="#DejaVuSans-35" x="95.410156"/>
      </g>
     </g>
    </g>
    <g id="ytick_5">
     <g id="line2d_10">
      <g>
       <use xlink:href="#m526becc35e" x="52.76" y="168.101305" style="stroke: #000000; stroke-width: 0.8"/>
      </g>
     </g>
     <g id="text_10">
      <!-- 0.6 -->
      <g transform="translate(29.856875 171.900524) scale(0.1 -0.1)">
       <defs>
        <path id="DejaVuSans-36" d="M 2113 2584 
Q 1688 2584 1439 2293 
Q 1191 2003 1191 1497 
Q 1191 994 1439 701 
Q 1688 409 2113 409 
Q 2538 409 2786 701 
Q 3034 994 3034 1497 
Q 3034 2003 2786 2293 
Q 2538 2584 2113 2584 
z
M 3366 4563 
L 3366 3988 
Q 3128 4100 2886 4159 
Q 2644 4219 2406 4219 
Q 1781 4219 1451 3797 
Q 1122 3375 1075 2522 
Q 1259 2794 1537 2939 
Q 1816 3084 2150 3084 
Q 2853 3084 3261 2657 
Q 3669 2231 3669 1497 
Q 3669 778 3244 343 
Q 2819 -91 2113 -91 
Q 1303 -91 875 529 
Q 447 1150 447 2328 
Q 447 3434 972 4092 
Q 1497 4750 2381 4750 
Q 2619 4750 2861 4703 
Q 3103 4656 3366 4563 
z
" transform="scale(0.015625)"/>
       </defs>
       <use xlink:href="#DejaVuSans-30"/>
       <use xlink:href="#DejaVuSans-2e" x="63.623047"/>
       <use xlink:href="#DejaVuSans-36" x="95.410156"/>
      </g>
     </g>
    </g>
    <g id="ytick_6">
     <g id="line2d_11">
      <g>
       <use xlink:href="#m526becc35e" x="52.76" y="134.613404" style="stroke: #000000; stroke-width: 0.8"/>
      </g>
     </g>
     <g id="text_11">
      <!-- 0.7 -->
      <g transform="translate(29.856875 138.412623) scale(0.1 -0.1)">
       <defs>
        <path id="DejaVuSans-37" d="M 525 4666 
L 3525 4666 
L 3525 4397 
L 1831 0 
L 1172 0 
L 2766 4134 
L 525 4134 
L 525 4666 
z
" transform="scale(0.015625)"/>
       </defs>
       <use xlink:href="#DejaVuSans-30"/>
       <use xlink:href="#DejaVuSans-2e" x="63.623047"/>
       <use xlink:href="#DejaVuSans-37" x="95.410156"/>
      </g>
     </g>
    </g>
    <g id="ytick_7">
     <g id="line2d_12">
      <g>
       <use xlink:href="#m526becc35e" x="52.76" y="101.125503" style="stroke: #000000; stroke-width: 0.8"/>
      </g>
     </g>
     <g id="text_12">
      <!-- 0.8 -->
      <g transform="translate(29.856875 104.924722) scale(0.1 -0.1)">
       <defs>
        <path id="DejaVuSans-38" d="M 2034 2216 
Q 1584 2216 1326 1975 
Q 1069 1734 1069 1313 
Q 1069 891 1326 650 
Q 1584 409 2034 409 
Q 2484 409 2743 651 
Q 3003 894 3003 1313 
Q 3003 1734 2745 1975 
Q 2488 2216 2034 2216 
z
M 1403 2484 
Q 997 2584 770 2862 
Q 544 3141 544 3541 
Q 544 4100 942 4425 
Q 1341 4750 2034 4750 
Q 2731 4750 3128 4425 
Q 3525 4100 3525 3541 
Q 3525 3141 3298 2862 
Q 3072 2584 2669 2484 
Q 3125 2378 3379 2068 
Q 3634 1759 3634 1313 
Q 3634 634 3220 271 
Q 2806 -91 2034 -91 
Q 1263 -91 848 271 
Q 434 634 434 1313 
Q 434 1759 690 2068 
Q 947 2378 1403 2484 
z
M 1172 3481 
Q 1172 3119 1398 2916 
Q 1625 2713 2034 2713 
Q 2441 2713 2670 2916 
Q 2900 3119 2900 3481 
Q 2900 3844 2670 4047 
Q 2441 4250 2034 4250 
Q 1625 4250 1398 4047 
Q 1172 3844 1172 3481 
z
" transform="scale(0.015625)"/>
       </defs>
       <use xlink:href="#DejaVuSans-30"/>
       <use xlink:href="#DejaVuSans-2e" x="63.623047"/>
       <use xlink:href="#DejaVuSans-38" x="95.410156"/>
      </g>
     </g>
    </g>
    <g id="ytick_8">
     <g id="line2d_13">
      <g>
       <use xlink:href="#m526becc35e" x="52.76" y="67.637602" style="stroke: #000000; stroke-width: 0.8"/>
      </g>
     </g>
     <g id="text_13">
      <!-- 0.9 -->
      <g transform="translate(29.856875 71.436821) scale(0.1 -0.1)">
       <defs>
        <path id="DejaVuSans-39" d="M 703 97 
L 703 672 
Q 941 559 1184 500 
Q 1428 441 1663 441 
Q 2288 441 2617 861 
Q 2947 1281 2994 2138 
Q 2813 1869 2534 1725 
Q 2256 1581 1919 1581 
Q 1219 1581 811 2004 
Q 403 2428 403 3163 
Q 403 3881 828 4315 
Q 1253 4750 1959 4750 
Q 2769 4750 3195 4129 
Q 3622 3509 3622 2328 
Q 3622 1225 3098 567 
Q 2575 -91 1691 -91 
Q 1453 -91 1209 -44 
Q 966 3 703 97 
z
M 1959 2075 
Q 2384 2075 2632 2365 
Q 2881 2656 2881 3163 
Q 2881 3666 2632 3958 
Q 2384 4250 1959 4250 
Q 1534 4250 1286 3958 
Q 1038 3666 1038 3163 
Q 1038 2656 1286 2365 
Q 1534 2075 1959 2075 
z
" transform="scale(0.015625)"/>
       </defs>
       <use xlink:href="#DejaVuSans-30"/>
       <use xlink:href="#DejaVuSans-2e" x="63.623047"/>
       <use xlink:href="#DejaVuSans-39" x="95.410156"/>
      </g>
     </g>
    </g>
    <g id="ytick_9">
     <g id="line2d_14">
      <g>
       <use xlink:href="#m526becc35e" x="52.76" y="34.149701" style="stroke: #000000; stroke-width: 0.8"/>
      </g>
     </g>
     <g id="text_14">
      <!-- 1.0 -->
      <g transform="translate(29.856875 37.94892) scale(0.1 -0.1)">
       <defs>
        <path id="DejaVuSans-31" d="M 794 531 
L 1825 531 
L 1825 4091 
L 703 3866 
L 703 4441 
L 1819 4666 
L 2450 4666 
L 2450 531 
L 3481 531 
L 3481 0 
L 794 0 
L 794 531 
z
" transform="scale(0.015625)"/>
       </defs>
       <use xlink:href="#DejaVuSans-31"/>
       <use xlink:href="#DejaVuSans-2e" x="63.623047"/>
       <use xlink:href="#DejaVuSans-30" x="95.410156"/>
      </g>
     </g>
    </g>
    <g id="text_15">
     <!-- PRECISION -->
     <g transform="translate(23.36125 190.75675) rotate(-90) scale(0.12 -0.12)">
      <defs>
       <path id="DejaVuSans-50" d="M 1259 4147 
L 1259 2394 
L 2053 2394 
Q 2494 2394 2734 2622 
Q 2975 2850 2975 3272 
Q 2975 3691 2734 3919 
Q 2494 4147 2053 4147 
L 1259 4147 
z
M 628 4666 
L 2053 4666 
Q 2838 4666 3239 4311 
Q 3641 3956 3641 3272 
Q 3641 2581 3239 2228 
Q 2838 1875 2053 1875 
L 1259 1875 
L 1259 0 
L 628 0 
L 628 4666 
z
" transform="scale(0.015625)"/>
       <path id="DejaVuSans-52" d="M 2841 2188 
Q 3044 2119 3236 1894 
Q 3428 1669 3622 1275 
L 4263 0 
L 3584 0 
L 2988 1197 
Q 2756 1666 2539 1819 
Q 2322 1972 1947 1972 
L 1259 1972 
L 1259 0 
L 628 0 
L 628 4666 
L 2053 4666 
Q 2853 4666 3247 4331 
Q 3641 3997 3641 3322 
Q 3641 2881 3436 2590 
Q 3231 2300 2841 2188 
z
M 1259 4147 
L 1259 2491 
L 2053 2491 
Q 2509 2491 2742 2702 
Q 2975 2913 2975 3322 
Q 2975 3731 2742 3939 
Q 2509 4147 2053 4147 
L 1259 4147 
z
" transform="scale(0.015625)"/>
       <path id="DejaVuSans-43" d="M 4122 4306 
L 4122 3641 
Q 3803 3938 3442 4084 
Q 3081 4231 2675 4231 
Q 1875 4231 1450 3742 
Q 1025 3253 1025 2328 
Q 1025 1406 1450 917 
Q 1875 428 2675 428 
Q 3081 428 3442 575 
Q 3803 722 4122 1019 
L 4122 359 
Q 3791 134 3420 21 
Q 3050 -91 2638 -91 
Q 1578 -91 968 557 
Q 359 1206 359 2328 
Q 359 3453 968 4101 
Q 1578 4750 2638 4750 
Q 3056 4750 3426 4639 
Q 3797 4528 4122 4306 
z
" transform="scale(0.015625)"/>
       <path id="DejaVuSans-49" d="M 628 4666 
L 1259 4666 
L 1259 0 
L 628 0 
L 628 4666 
z
" transform="scale(0.015625)"/>
       <path id="DejaVuSans-4f" d="M 2522 4238 
Q 1834 4238 1429 3725 
Q 1025 3213 1025 2328 
Q 1025 1447 1429 934 
Q 1834 422 2522 422 
Q 3209 422 3611 934 
Q 4013 1447 4013 2328 
Q 4013 3213 3611 3725 
Q 3209 4238 2522 4238 
z
M 2522 4750 
Q 3503 4750 4090 4092 
Q 4678 3434 4678 2328 
Q 4678 1225 4090 567 
Q 3503 -91 2522 -91 
Q 1538 -91 948 565 
Q 359 1222 359 2328 
Q 359 3434 948 4092 
Q 1538 4750 2522 4750 
z
" transform="scale(0.015625)"/>
       <path id="DejaVuSans-4e" d="M 628 4666 
L 1478 4666 
L 3547 763 
L 3547 4666 
L 4159 4666 
L 4159 0 
L 3309 0 
L 1241 3903 
L 1241 0 
L 628 0 
L 628 4666 
z
" transform="scale(0.015625)"/>
      </defs>
      <use xlink:href="#DejaVuSans-50"/>
      <use xlink:href="#DejaVuSans-52" x="60.302734"/>
      <use xlink:href="#DejaVuSans-45" x="129.785156"/>
      <use xlink:href="#DejaVuSans-43" x="192.96875"/>
      <use xlink:href="#DejaVuSans-49" x="262.792969"/>
      <use xlink:href="#DejaVuSans-53" x="292.285156"/>
      <use xlink:href="#DejaVuSans-49" x="355.761719"/>
      <use xlink:href="#DejaVuSans-4f" x="385.253906"/>
      <use xlink:href="#DejaVuSans-4e" x="463.964844"/>
     </g>
    </g>
   </g>
   <g id="LineCollection_1">
    <path d="M 89.054179 155.82799 
L 89.054179 76.00288 
" clip-path="url(#p65b17ae2b4)" style="fill: none; stroke: #000000; stroke-width: 1.5"/>
    <path d="M 170.540106 81.746055 
L 170.540106 36.848826 
" clip-path="url(#p65b17ae2b4)" style="fill: none; stroke: #000000; stroke-width: 1.5"/>
    <path d="M 252.026033 155.382601 
L 252.026033 63.605659 
" clip-path="url(#p65b17ae2b4)" style="fill: none; stroke: #000000; stroke-width: 1.5"/>
    <path d="M 333.51196 134.539731 
L 333.51196 59.577065 
" clip-path="url(#p65b17ae2b4)" style="fill: none; stroke: #000000; stroke-width: 1.5"/>
    <path d="M 414.997887 216.923316 
L 414.997887 121.255081 
" clip-path="url(#p65b17ae2b4)" style="fill: none; stroke: #000000; stroke-width: 1.5"/>
   </g>
   <g id="line2d_15">
    <defs>
     <path id="m5a1783bdb2" d="M 5 0 
L -5 -0 
" style="stroke: #000000"/>
    </defs>
    <g clip-path="url(#p65b17ae2b4)">
     <use xlink:href="#m5a1783bdb2" x="89.054179" y="155.82799" style="stroke: #000000"/>
     <use xlink:href="#m5a1783bdb2" x="170.540106" y="81.746055" style="stroke: #000000"/>
     <use xlink:href="#m5a1783bdb2" x="252.026033" y="155.382601" style="stroke: #000000"/>
     <use xlink:href="#m5a1783bdb2" x="333.51196" y="134.539731" style="stroke: #000000"/>
     <use xlink:href="#m5a1783bdb2" x="414.997887" y="216.923316" style="stroke: #000000"/>
    </g>
   </g>
   <g id="line2d_16">
    <g clip-path="url(#p65b17ae2b4)">
     <use xlink:href="#m5a1783bdb2" x="89.054179" y="76.00288" style="stroke: #000000"/>
     <use xlink:href="#m5a1783bdb2" x="170.540106" y="36.848826" style="stroke: #000000"/>
     <use xlink:href="#m5a1783bdb2" x="252.026033" y="63.605659" style="stroke: #000000"/>
     <use xlink:href="#m5a1783bdb2" x="333.51196" y="59.577065" style="stroke: #000000"/>
     <use xlink:href="#m5a1783bdb2" x="414.997887" y="121.255081" style="stroke: #000000"/>
    </g>
   </g>
   <g id="line2d_17">
    <defs>
     <path id="m14bc6b105f" d="M 0 5.656854 
L 5.656854 0 
L 0 -5.656854 
L -5.656854 0 
z
" style="stroke: #000000; stroke-linejoin: miter"/>
    </defs>
    <g clip-path="url(#p65b17ae2b4)">
     <use xlink:href="#m14bc6b105f" x="89.054179" y="111.346011" style="stroke: #000000; stroke-linejoin: miter"/>
     <use xlink:href="#m14bc6b105f" x="170.540106" y="53.760216" style="stroke: #000000; stroke-linejoin: miter"/>
     <use xlink:href="#m14bc6b105f" x="252.026033" y="104.347039" style="stroke: #000000; stroke-linejoin: miter"/>
     <use xlink:href="#m14bc6b105f" x="333.51196" y="91.819216" style="stroke: #000000; stroke-linejoin: miter"/>
     <use xlink:href="#m14bc6b105f" x="414.997887" y="168.315628" style="stroke: #000000; stroke-linejoin: miter"/>
    </g>
   </g>
   <g id="patch_3">
    <path d="M 52.76 303.896 
L 52.76 12.96 
" style="fill: none; stroke: #000000; stroke-width: 0.8; stroke-linejoin: miter; stroke-linecap: square"/>
   </g>
   <g id="patch_4">
    <path d="M 447.84 303.896 
L 447.84 12.96 
" style="fill: none; stroke: #000000; stroke-width: 0.8; stroke-linejoin: miter; stroke-linecap: square"/>
   </g>
   <g id="patch_5">
    <path d="M 52.76 303.896 
L 447.84 303.896 
" style="fill: none; stroke: #000000; stroke-width: 0.8; stroke-linejoin: miter; stroke-linecap: square"/>
   </g>
   <g id="patch_6">
    <path d="M 52.76 12.96 
L 447.84 12.96 
" style="fill: none; stroke: #000000; stroke-width: 0.8; stroke-linejoin: miter; stroke-linecap: square"/>
   </g>
  </g>
 </g>
 <defs>
  <clipPath id="p65b17ae2b4">
   <rect x="52.76" y="12.96" width="395.08" height="290.936"/>
  </clipPath>
 </defs>
</svg>
