<?xml version="1.0" encoding="utf-8" standalone="no"?>
<!DOCTYPE svg PUBLIC "-//W3C//DTD SVG 1.1//EN"
  "http://www.w3.org/Graphics/SVG/1.1/DTD/svg11.dtd">
<svg xmlns:xlink="http://www.w3.org/1999/xlink" width="460.8pt" height="345.6pt" viewBox="0 0 460.8 345.6" xmlns="http://www.w3.org/2000/svg" version="1.1">
 <metadata>
  <rdf:RDF xmlns:dc="http://purl.org/dc/elements/1.1/" xmlns:cc="http://creativecommons.org/ns#" xmlns:rdf="http://www.w3.org/1999/02/22-rdf-syntax-ns#">
   <cc:Work>
    <dc:type rdf:resource="http://purl.org/dc/dcmitype/StillImage"/>
    <dc:date>2025-09-22T14:38:26.857469</dc:date>
    <dc:format>image/svg+xml</dc:format>
    <dc:creator>
     <cc:Agent>
      <dc:title>Matplotlib v3.9.4, https://matplotlib.org/</dc:title>
     </cc:Agent>
    </dc:creator>
   </cc:Work>
  </rdf:RDF>
 </metadata>
 <defs>
  <style type="text/css">*{stroke-linejoin: round; stroke-linecap: butt}</style>
 </defs>
 <g id="figure_1">
  <g id="patch_1">
   <path d="M 0 345.6 
L 460.8 345.6 
L 460.8 0 
L 0 0 
z
" style="fill: #ffffff"/>
  </g>
  <g id="axes_1">
   <g id="patch_2">
    <path d="M 52.76 303.896 
L 447.84 303.896 
L 447.84 12.96 
L 52.76 12.96 
z
" style="fill: #ffffff"/>
   </g>
   <g id="PolyCollection_1">
    <defs>
     <path id="m029220027d" d="M 99.667828 -122.608542 
L 99.639031 -122.608542 
L 99.626193 -124.255809 
L 99.607824 -125.903075 
L 99.585833 -127.550342 
L 99.564737 -129.197609 
L 99.550417 -130.844876 
L 99.547519 -132.492143 
L 99.557038 -134.13941 
L 99.575764 -135.786676 
L 99.598003 -137.433943 
L 99.618294 -139.08121 
L 99.633317 -140.728477 
L 99.642089 -142.375744 
L 99.644884 -144.023011 
L 99.641963 -145.670278 
L 99.633053 -147.317544 
L 99.617887 -148.964811 
L 99.59746 -150.612078 
L 99.575064 -152.259345 
L 99.555966 -153.906612 
L 99.545319 -155.553879 
L 99.545264 -157.201145 
L 99.553162 -158.848412 
L 99.562395 -160.495679 
L 99.565408 -162.142946 
L 99.556993 -163.790213 
L 99.535655 -165.43748 
L 99.502361 -167.084746 
L 99.457972 -168.732013 
L 99.401707 -170.37928 
L 99.331919 -172.026547 
L 99.247948 -173.673814 
L 99.150403 -175.321081 
L 99.038969 -176.968348 
L 98.910248 -178.615614 
L 98.759047 -180.262881 
L 98.582878 -181.910148 
L 98.384672 -183.557415 
L 98.16864 -185.204682 
L 97.930256 -186.851949 
L 97.648334 -188.499215 
L 97.28821 -190.146482 
L 96.817956 -191.793749 
L 96.229134 -193.441016 
L 95.548069 -195.088283 
L 94.827966 -196.73555 
L 94.124031 -198.382817 
L 93.464669 -200.030083 
L 92.834613 -201.67735 
L 92.179701 -203.324617 
L 91.43248 -204.971884 
L 90.547311 -206.619151 
L 89.526852 -208.266418 
L 88.423498 -209.913684 
L 87.312927 -211.560951 
L 86.256552 -213.208218 
L 85.279463 -214.855485 
L 84.378528 -216.502752 
L 83.548832 -218.150019 
L 82.798639 -219.797286 
L 82.131801 -221.444552 
L 81.507515 -223.091819 
L 80.815016 -224.739086 
L 79.899114 -226.386353 
L 78.637504 -228.03362 
L 77.027143 -229.680887 
L 75.2201 -231.328153 
L 73.476734 -232.97542 
L 72.059167 -234.622687 
L 71.13015 -236.269954 
L 70.718182 -237.917221 
L 70.760542 -239.564488 
L 71.18036 -241.211755 
L 71.937026 -242.859021 
L 73.022106 -244.506288 
L 74.421839 -246.153555 
L 76.087929 -247.800822 
L 77.938935 -249.448089 
L 79.882613 -251.095356 
L 81.836861 -252.742622 
L 83.738092 -254.389889 
L 85.5413 -256.037156 
L 87.21921 -257.684423 
L 88.760903 -259.33169 
L 90.166515 -260.978957 
L 91.439451 -262.626224 
L 92.58274 -264.27349 
L 93.602782 -265.920757 
L 94.514974 -267.568024 
L 95.342899 -269.215291 
L 96.10936 -270.862558 
L 96.825749 -272.509825 
L 97.48734 -274.157091 
L 98.076941 -275.804358 
L 98.574021 -277.451625 
L 98.964458 -279.098892 
L 99.246841 -280.746159 
L 99.433187 -282.393426 
L 99.544596 -284.040693 
L 99.604617 -285.687959 
L 99.702241 -285.687959 
L 99.702241 -285.687959 
L 99.762262 -284.040693 
L 99.873671 -282.393426 
L 100.060017 -280.746159 
L 100.342401 -279.098892 
L 100.732838 -277.451625 
L 101.229917 -275.804358 
L 101.819519 -274.157091 
L 102.481109 -272.509825 
L 103.197498 -270.862558 
L 103.96396 -269.215291 
L 104.791884 -267.568024 
L 105.704077 -265.920757 
L 106.724119 -264.27349 
L 107.867408 -262.626224 
L 109.140343 -260.978957 
L 110.545955 -259.33169 
L 112.087648 -257.684423 
L 113.765559 -256.037156 
L 115.568767 -254.389889 
L 117.469997 -252.742622 
L 119.424245 -251.095356 
L 121.367923 -249.448089 
L 123.21893 -247.800822 
L 124.885019 -246.153555 
L 126.284752 -244.506288 
L 127.369832 -242.859021 
L 128.126499 -241.211755 
L 128.546316 -239.564488 
L 128.588677 -237.917221 
L 128.176709 -236.269954 
L 127.247691 -234.622687 
L 125.830125 -232.97542 
L 124.086759 -231.328153 
L 122.279715 -229.680887 
L 120.669354 -228.03362 
L 119.407744 -226.386353 
L 118.491842 -224.739086 
L 117.799343 -223.091819 
L 117.175057 -221.444552 
L 116.508219 -219.797286 
L 115.758027 -218.150019 
L 114.92833 -216.502752 
L 114.027395 -214.855485 
L 113.050307 -213.208218 
L 111.993932 -211.560951 
L 110.88336 -209.913684 
L 109.780006 -208.266418 
L 108.759547 -206.619151 
L 107.874378 -204.971884 
L 107.127157 -203.324617 
L 106.472245 -201.67735 
L 105.842189 -200.030083 
L 105.182828 -198.382817 
L 104.478893 -196.73555 
L 103.758789 -195.088283 
L 103.077724 -193.441016 
L 102.488902 -191.793749 
L 102.018649 -190.146482 
L 101.658524 -188.499215 
L 101.376602 -186.851949 
L 101.138218 -185.204682 
L 100.922186 -183.557415 
L 100.72398 -181.910148 
L 100.547812 -180.262881 
L 100.39661 -178.615614 
L 100.267889 -176.968348 
L 100.156456 -175.321081 
L 100.05891 -173.673814 
L 99.974939 -172.026547 
L 99.905151 -170.37928 
L 99.848886 -168.732013 
L 99.804497 -167.084746 
L 99.771204 -165.43748 
L 99.749865 -163.790213 
L 99.74145 -162.142946 
L 99.744463 -160.495679 
L 99.753696 -158.848412 
L 99.761594 -157.201145 
L 99.76154 -155.553879 
L 99.750892 -153.906612 
L 99.731794 -152.259345 
L 99.709398 -150.612078 
L 99.688972 -148.964811 
L 99.673805 -147.317544 
L 99.664895 -145.670278 
L 99.661974 -144.023011 
L 99.664769 -142.375744 
L 99.673542 -140.728477 
L 99.688564 -139.08121 
L 99.708855 -137.433943 
L 99.731094 -135.786676 
L 99.74982 -134.13941 
L 99.759339 -132.492143 
L 99.756441 -130.844876 
L 99.742121 -129.197609 
L 99.721026 -127.550342 
L 99.699034 -125.903075 
L 99.680665 -124.255809 
L 99.667828 -122.608542 
z
" style="stroke: #3f3f3f; stroke-width: 1.25"/>
    </defs>
    <g clip-path="url(#p046d314b66)">
     <use xlink:href="#m029220027d" x="0" y="345.6" style="fill: #3274a1; stroke: #3f3f3f; stroke-width: 1.25"/>
    </g>
   </g>
   <g id="PolyCollection_2">
    <defs>
     <path id="m1e8262da13" d="M 177.01276 -159.075039 
L 176.981083 -159.075039 
L 176.969008 -160.480281 
L 176.951009 -161.885523 
L 176.926223 -163.290765 
L 176.894613 -164.696007 
L 176.857154 -166.101249 
L 176.815737 -167.506491 
L 176.772797 -168.911732 
L 176.730797 -170.316974 
L 176.691653 -171.722216 
L 176.656097 -173.127458 
L 176.622922 -174.5327 
L 176.588258 -175.937942 
L 176.545301 -177.343184 
L 176.485105 -178.748426 
L 176.398749 -180.153668 
L 176.280454 -181.55891 
L 176.130415 -182.964152 
L 175.955894 -184.369394 
L 175.769541 -185.774636 
L 175.585065 -187.179878 
L 175.411448 -188.58512 
L 175.247611 -189.990362 
L 175.07954 -191.395603 
L 174.881444 -192.800845 
L 174.621552 -194.206087 
L 174.271661 -195.611329 
L 173.817635 -197.016571 
L 173.26669 -198.421813 
L 172.647471 -199.827055 
L 172.001446 -201.232297 
L 171.368202 -202.637539 
L 170.770814 -204.042781 
L 170.208125 -205.448023 
L 169.657902 -206.853265 
L 169.089661 -208.258507 
L 168.481169 -209.663749 
L 167.830641 -211.068991 
L 167.158429 -212.474232 
L 166.496576 -213.879474 
L 165.870268 -215.284716 
L 165.279443 -216.689958 
L 164.689769 -218.0952 
L 164.039016 -219.500442 
L 163.258355 -220.905684 
L 162.30087 -222.310926 
L 161.165083 -223.716168 
L 159.902228 -225.12141 
L 158.602742 -226.526652 
L 157.366945 -227.931894 
L 156.272476 -229.337136 
L 155.35265 -230.742378 
L 154.594761 -232.14762 
L 153.958157 -233.552862 
L 153.403001 -234.958103 
L 152.915802 -236.363345 
L 152.519156 -237.768587 
L 152.260278 -239.173829 
L 152.183249 -240.579071 
L 152.298905 -241.984313 
L 152.569001 -243.389555 
L 152.915379 -244.794797 
L 153.252341 -246.200039 
L 153.527575 -247.605281 
L 153.750925 -249.010523 
L 153.99519 -250.415765 
L 154.367011 -251.821007 
L 154.961508 -253.226249 
L 155.822753 -254.631491 
L 156.928488 -256.036732 
L 158.203968 -257.441974 
L 159.554652 -258.847216 
L 160.899578 -260.252458 
L 162.19036 -261.6577 
L 163.411373 -263.062942 
L 164.567419 -264.468184 
L 165.669561 -265.873426 
L 166.726891 -267.278668 
L 167.745374 -268.68391 
L 168.729884 -270.089152 
L 169.684826 -271.494394 
L 170.611639 -272.899636 
L 171.504957 -274.304878 
L 172.350725 -275.71012 
L 173.128441 -277.115362 
L 173.817134 -278.520603 
L 174.402505 -279.925845 
L 174.882007 -281.331087 
L 175.265718 -282.736329 
L 175.572877 -284.141571 
L 175.825739 -285.546813 
L 176.043388 -286.952055 
L 176.23775 -288.357297 
L 176.412902 -289.762539 
L 176.567232 -291.167781 
L 176.696985 -292.573023 
L 176.799486 -293.978265 
L 176.874911 -295.383507 
L 176.92637 -296.788749 
L 176.958843 -298.193991 
L 177.035001 -298.193991 
L 177.035001 -298.193991 
L 177.067474 -296.788749 
L 177.118932 -295.383507 
L 177.194357 -293.978265 
L 177.296859 -292.573023 
L 177.426611 -291.167781 
L 177.580941 -289.762539 
L 177.756093 -288.357297 
L 177.950455 -286.952055 
L 178.168104 -285.546813 
L 178.420967 -284.141571 
L 178.728125 -282.736329 
L 179.111837 -281.331087 
L 179.591338 -279.925845 
L 180.17671 -278.520603 
L 180.865403 -277.115362 
L 181.643118 -275.71012 
L 182.488886 -274.304878 
L 183.382205 -272.899636 
L 184.309018 -271.494394 
L 185.26396 -270.089152 
L 186.248469 -268.68391 
L 187.266952 -267.278668 
L 188.324282 -265.873426 
L 189.426425 -264.468184 
L 190.58247 -263.062942 
L 191.803484 -261.6577 
L 193.094265 -260.252458 
L 194.439192 -258.847216 
L 195.789875 -257.441974 
L 197.065355 -256.036732 
L 198.171091 -254.631491 
L 199.032336 -253.226249 
L 199.626833 -251.821007 
L 199.998654 -250.415765 
L 200.242918 -249.010523 
L 200.466268 -247.605281 
L 200.741502 -246.200039 
L 201.078464 -244.794797 
L 201.424842 -243.389555 
L 201.694939 -241.984313 
L 201.810594 -240.579071 
L 201.733566 -239.173829 
L 201.474688 -237.768587 
L 201.078042 -236.363345 
L 200.590842 -234.958103 
L 200.035686 -233.552862 
L 199.399083 -232.14762 
L 198.641193 -230.742378 
L 197.721367 -229.337136 
L 196.626898 -227.931894 
L 195.391101 -226.526652 
L 194.091615 -225.12141 
L 192.82876 -223.716168 
L 191.692973 -222.310926 
L 190.735488 -220.905684 
L 189.954827 -219.500442 
L 189.304075 -218.0952 
L 188.7144 -216.689958 
L 188.123575 -215.284716 
L 187.497267 -213.879474 
L 186.835414 -212.474232 
L 186.163202 -211.068991 
L 185.512675 -209.663749 
L 184.904182 -208.258507 
L 184.335942 -206.853265 
L 183.785718 -205.448023 
L 183.223029 -204.042781 
L 182.625642 -202.637539 
L 181.992398 -201.232297 
L 181.346372 -199.827055 
L 180.727154 -198.421813 
L 180.176209 -197.016571 
L 179.722182 -195.611329 
L 179.372291 -194.206087 
L 179.1124 -192.800845 
L 178.914303 -191.395603 
L 178.746232 -189.990362 
L 178.582396 -188.58512 
L 178.408779 -187.179878 
L 178.224302 -185.774636 
L 178.037949 -184.369394 
L 177.863428 -182.964152 
L 177.71339 -181.55891 
L 177.595094 -180.153668 
L 177.508739 -178.748426 
L 177.448543 -177.343184 
L 177.405585 -175.937942 
L 177.370922 -174.5327 
L 177.337747 -173.127458 
L 177.30219 -171.722216 
L 177.263047 -170.316974 
L 177.221046 -168.911732 
L 177.178106 -167.506491 
L 177.136689 -166.101249 
L 177.099231 -164.696007 
L 177.06762 -163.290765 
L 177.042835 -161.885523 
L 177.024836 -160.480281 
L 177.01276 -159.075039 
z
" style="stroke: #3f3f3f; stroke-width: 1.25"/>
    </defs>
    <g clip-path="url(#p046d314b66)">
     <use xlink:href="#m1e8262da13" x="0" y="345.6" style="fill: #3274a1; stroke: #3f3f3f; stroke-width: 1.25"/>
    </g>
   </g>
   <g id="PolyCollection_3">
    <defs>
     <path id="m9d740ee362" d="M 254.353355 -138.391044 
L 254.327473 -138.391044 
L 254.316908 -140.089979 
L 254.301725 -141.788914 
L 254.282498 -143.487849 
L 254.261059 -145.186784 
L 254.239841 -146.885719 
L 254.220609 -148.584654 
L 254.203419 -150.283589 
L 254.186747 -151.982524 
L 254.168957 -153.681459 
L 254.150018 -155.380394 
L 254.131768 -157.079329 
L 254.115882 -158.778264 
L 254.100522 -160.477199 
L 254.078086 -162.176135 
L 254.036299 -163.87507 
L 253.963022 -165.574005 
L 253.852824 -167.27294 
L 253.71198 -168.971875 
L 253.55891 -170.67081 
L 253.419007 -172.369745 
L 253.315366 -174.06868 
L 253.259001 -175.767615 
L 253.242785 -177.46655 
L 253.242013 -179.165485 
L 253.221668 -180.86442 
L 253.147409 -182.563355 
L 252.995872 -184.26229 
L 252.760834 -185.961225 
L 252.454242 -187.66016 
L 252.10271 -189.359095 
L 251.740002 -191.05803 
L 251.395838 -192.756965 
L 251.083131 -194.4559 
L 250.78861 -196.154835 
L 250.472269 -197.85377 
L 250.077298 -199.552705 
L 249.546625 -201.25164 
L 248.83959 -202.950576 
L 247.943768 -204.649511 
L 246.879874 -206.348446 
L 245.69891 -208.047381 
L 244.470945 -209.746316 
L 243.266518 -211.445251 
L 242.135424 -213.144186 
L 241.090864 -214.843121 
L 240.106675 -216.542056 
L 239.13041 -218.240991 
L 238.107619 -219.939926 
L 237.006894 -221.638861 
L 235.835026 -223.337796 
L 234.637348 -225.036731 
L 233.485598 -226.735666 
L 232.459501 -228.434601 
L 231.627904 -230.133536 
L 231.033703 -231.832471 
L 230.686021 -233.531406 
L 230.561663 -235.230341 
L 230.614879 -236.929276 
L 230.791621 -238.628211 
L 231.04446 -240.327146 
L 231.345691 -242.026081 
L 231.695927 -243.725017 
L 232.12363 -245.423952 
L 232.672133 -247.122887 
L 233.377226 -248.821822 
L 234.24612 -250.520757 
L 235.250223 -252.219692 
L 236.336755 -253.918627 
L 237.452995 -255.617562 
L 238.569426 -257.316497 
L 239.688849 -259.015432 
L 240.836605 -260.714367 
L 242.037935 -262.413302 
L 243.295865 -264.112237 
L 244.582085 -265.811172 
L 245.844724 -267.510107 
L 247.027002 -269.209042 
L 248.086204 -270.907977 
L 249.00458 -272.606912 
L 249.789222 -274.305847 
L 250.463015 -276.004782 
L 251.052102 -277.703717 
L 251.576126 -279.402652 
L 252.045243 -281.101587 
L 252.46314 -282.800522 
L 252.831624 -284.499457 
L 253.152725 -286.198393 
L 253.427962 -287.897328 
L 253.657415 -289.596263 
L 253.840816 -291.295198 
L 253.980136 -292.994133 
L 254.081261 -294.693068 
L 254.153181 -296.392003 
L 254.205266 -298.090938 
L 254.244658 -299.789873 
L 254.275327 -301.488808 
L 254.298844 -303.187743 
L 254.315848 -304.886678 
L 254.327117 -306.585613 
L 254.353711 -306.585613 
L 254.353711 -306.585613 
L 254.36498 -304.886678 
L 254.381984 -303.187743 
L 254.405501 -301.488808 
L 254.43617 -299.789873 
L 254.475563 -298.090938 
L 254.527648 -296.392003 
L 254.599567 -294.693068 
L 254.700693 -292.994133 
L 254.840012 -291.295198 
L 255.023413 -289.596263 
L 255.252866 -287.897328 
L 255.528103 -286.198393 
L 255.849204 -284.499457 
L 256.217688 -282.800522 
L 256.635586 -281.101587 
L 257.104702 -279.402652 
L 257.628726 -277.703717 
L 258.217813 -276.004782 
L 258.891606 -274.305847 
L 259.676248 -272.606912 
L 260.594624 -270.907977 
L 261.653826 -269.209042 
L 262.836104 -267.510107 
L 264.098743 -265.811172 
L 265.384963 -264.112237 
L 266.642893 -262.413302 
L 267.844224 -260.714367 
L 268.99198 -259.015432 
L 270.111402 -257.316497 
L 271.227833 -255.617562 
L 272.344073 -253.918627 
L 273.430606 -252.219692 
L 274.434708 -250.520757 
L 275.303603 -248.821822 
L 276.008695 -247.122887 
L 276.557198 -245.423952 
L 276.984901 -243.725017 
L 277.335138 -242.026081 
L 277.636369 -240.327146 
L 277.889207 -238.628211 
L 278.06595 -236.929276 
L 278.119165 -235.230341 
L 277.994807 -233.531406 
L 277.647125 -231.832471 
L 277.052925 -230.133536 
L 276.221327 -228.434601 
L 275.19523 -226.735666 
L 274.04348 -225.036731 
L 272.845802 -223.337796 
L 271.673934 -221.638861 
L 270.573209 -219.939926 
L 269.550419 -218.240991 
L 268.574153 -216.542056 
L 267.589964 -214.843121 
L 266.545404 -213.144186 
L 265.41431 -211.445251 
L 264.209884 -209.746316 
L 262.981918 -208.047381 
L 261.800955 -206.348446 
L 260.73706 -204.649511 
L 259.841239 -202.950576 
L 259.134203 -201.25164 
L 258.60353 -199.552705 
L 258.208559 -197.85377 
L 257.892218 -196.154835 
L 257.597697 -194.4559 
L 257.284991 -192.756965 
L 256.940827 -191.05803 
L 256.578118 -189.359095 
L 256.226587 -187.66016 
L 255.919995 -185.961225 
L 255.684956 -184.26229 
L 255.533419 -182.563355 
L 255.45916 -180.86442 
L 255.438815 -179.165485 
L 255.438043 -177.46655 
L 255.421827 -175.767615 
L 255.365462 -174.06868 
L 255.261821 -172.369745 
L 255.121919 -170.67081 
L 254.968848 -168.971875 
L 254.828004 -167.27294 
L 254.717806 -165.574005 
L 254.644529 -163.87507 
L 254.602742 -162.176135 
L 254.580307 -160.477199 
L 254.564946 -158.778264 
L 254.54906 -157.079329 
L 254.53081 -155.380394 
L 254.511871 -153.681459 
L 254.494082 -151.982524 
L 254.477409 -150.283589 
L 254.460219 -148.584654 
L 254.440987 -146.885719 
L 254.419769 -145.186784 
L 254.39833 -143.487849 
L 254.379103 -141.788914 
L 254.36392 -140.089979 
L 254.353355 -138.391044 
z
" style="stroke: #3f3f3f; stroke-width: 1.25"/>
    </defs>
    <g clip-path="url(#p046d314b66)">
     <use xlink:href="#m9d740ee362" x="0" y="345.6" style="fill: #3274a1; stroke: #3f3f3f; stroke-width: 1.25"/>
    </g>
   </g>
   <g id="PolyCollection_4">
    <defs>
     <path id="m1125032a05" d="M 331.700393 -173.774426 
L 331.66742 -173.774426 
L 331.652313 -175.245549 
L 331.63061 -176.716672 
L 331.604763 -178.187796 
L 331.580449 -179.658919 
L 331.564853 -181.130042 
L 331.563292 -182.601166 
L 331.576279 -184.072289 
L 331.599143 -185.543412 
L 331.624433 -187.014536 
L 331.645171 -188.485659 
L 331.656736 -189.956783 
L 331.656745 -191.427906 
L 331.644003 -192.899029 
L 331.617958 -194.370153 
L 331.579089 -195.841276 
L 331.529536 -197.312399 
L 331.473186 -198.783523 
L 331.415126 -200.254646 
L 331.360903 -201.725769 
L 331.315837 -203.196893 
L 331.284228 -204.668016 
L 331.268598 -206.139139 
L 331.269117 -207.610263 
L 331.282733 -209.081386 
L 331.301334 -210.552509 
L 331.310082 -212.023633 
L 331.289014 -213.494756 
L 331.219677 -214.965879 
L 331.093843 -216.437003 
L 330.918146 -217.908126 
L 330.710763 -219.379249 
L 330.492011 -220.850373 
L 330.274224 -222.321496 
L 330.055048 -223.792619 
L 329.815621 -225.263743 
L 329.524562 -226.734866 
L 329.148665 -228.205989 
L 328.667798 -229.677113 
L 328.085812 -231.148236 
L 327.428238 -232.619359 
L 326.725963 -234.090483 
L 325.996637 -235.561606 
L 325.239809 -237.032729 
L 324.451051 -238.503853 
L 323.642553 -239.974976 
L 322.849018 -241.446099 
L 322.107107 -242.917223 
L 321.417905 -244.388346 
L 320.718468 -245.859469 
L 319.886724 -247.330593 
L 318.78382 -248.801716 
L 317.314226 -250.272839 
L 315.473428 -251.743963 
L 313.360525 -253.215086 
L 311.150298 -254.686209 
L 309.036361 -256.157333 
L 307.169138 -257.628456 
L 305.615873 -259.099579 
L 304.360006 -260.570703 
L 303.336333 -262.041826 
L 302.479827 -263.512949 
L 301.762598 -264.984073 
L 301.203947 -266.455196 
L 300.851943 -267.926319 
L 300.74651 -269.397443 
L 300.884867 -270.868566 
L 301.214841 -272.33969 
L 301.668103 -273.810813 
L 302.215637 -275.281936 
L 302.904932 -276.75306 
L 303.846441 -278.224183 
L 305.153054 -279.695306 
L 306.871279 -281.16643 
L 308.94807 -282.637553 
L 311.25027 -284.108676 
L 313.618135 -285.5798 
L 315.918113 -287.050923 
L 318.070455 -288.522046 
L 320.048526 -289.99317 
L 321.859891 -291.464293 
L 323.520947 -292.935416 
L 325.035316 -294.40654 
L 326.385083 -295.877663 
L 327.539355 -297.348786 
L 328.474761 -298.81991 
L 329.194028 -300.291033 
L 329.729733 -301.762156 
L 330.131294 -303.23328 
L 330.445363 -304.704403 
L 330.702931 -306.175526 
L 330.918875 -307.64665 
L 331.099345 -309.117773 
L 331.248591 -310.588896 
L 331.370972 -312.06002 
L 331.469826 -313.531143 
L 331.546797 -315.002266 
L 331.602944 -316.47339 
L 331.640375 -317.944513 
L 331.662792 -319.415636 
L 331.705022 -319.415636 
L 331.705022 -319.415636 
L 331.727439 -317.944513 
L 331.764869 -316.47339 
L 331.821016 -315.002266 
L 331.897987 -313.531143 
L 331.996841 -312.06002 
L 332.119222 -310.588896 
L 332.268468 -309.117773 
L 332.448938 -307.64665 
L 332.664882 -306.175526 
L 332.92245 -304.704403 
L 333.236519 -303.23328 
L 333.63808 -301.762156 
L 334.173785 -300.291033 
L 334.893053 -298.81991 
L 335.828458 -297.348786 
L 336.98273 -295.877663 
L 338.332497 -294.40654 
L 339.846866 -292.935416 
L 341.507923 -291.464293 
L 343.319287 -289.99317 
L 345.297358 -288.522046 
L 347.4497 -287.050923 
L 349.749678 -285.5798 
L 352.117543 -284.108676 
L 354.419744 -282.637553 
L 356.496534 -281.16643 
L 358.214759 -279.695306 
L 359.521372 -278.224183 
L 360.462881 -276.75306 
L 361.152176 -275.281936 
L 361.699711 -273.810813 
L 362.152972 -272.33969 
L 362.482946 -270.868566 
L 362.621304 -269.397443 
L 362.51587 -267.926319 
L 362.163867 -266.455196 
L 361.605215 -264.984073 
L 360.887986 -263.512949 
L 360.03148 -262.041826 
L 359.007808 -260.570703 
L 357.75194 -259.099579 
L 356.198676 -257.628456 
L 354.331452 -256.157333 
L 352.217515 -254.686209 
L 350.007289 -253.215086 
L 347.894385 -251.743963 
L 346.053587 -250.272839 
L 344.583993 -248.801716 
L 343.481089 -247.330593 
L 342.649345 -245.859469 
L 341.949909 -244.388346 
L 341.260706 -242.917223 
L 340.518795 -241.446099 
L 339.72526 -239.974976 
L 338.916762 -238.503853 
L 338.128005 -237.032729 
L 337.371176 -235.561606 
L 336.64185 -234.090483 
L 335.939575 -232.619359 
L 335.282001 -231.148236 
L 334.700015 -229.677113 
L 334.219148 -228.205989 
L 333.843251 -226.734866 
L 333.552192 -225.263743 
L 333.312765 -223.792619 
L 333.093589 -222.321496 
L 332.875802 -220.850373 
L 332.65705 -219.379249 
L 332.449667 -217.908126 
L 332.273971 -216.437003 
L 332.148136 -214.965879 
L 332.078799 -213.494756 
L 332.057731 -212.023633 
L 332.066479 -210.552509 
L 332.08508 -209.081386 
L 332.098696 -207.610263 
L 332.099216 -206.139139 
L 332.083586 -204.668016 
L 332.051977 -203.196893 
L 332.00691 -201.725769 
L 331.952687 -200.254646 
L 331.894627 -198.783523 
L 331.838278 -197.312399 
L 331.788724 -195.841276 
L 331.749855 -194.370153 
L 331.72381 -192.899029 
L 331.711068 -191.427906 
L 331.711077 -189.956783 
L 331.722643 -188.485659 
L 331.74338 -187.014536 
L 331.76867 -185.543412 
L 331.791535 -184.072289 
L 331.804521 -182.601166 
L 331.80296 -181.130042 
L 331.787364 -179.658919 
L 331.76305 -178.187796 
L 331.737203 -176.716672 
L 331.7155 -175.245549 
L 331.700393 -173.774426 
z
" style="stroke: #3f3f3f; stroke-width: 1.25"/>
    </defs>
    <g clip-path="url(#p046d314b66)">
     <use xlink:href="#m1125032a05" x="0" y="345.6" style="fill: #3274a1; stroke: #3f3f3f; stroke-width: 1.25"/>
    </g>
   </g>
   <g id="PolyCollection_5">
    <defs>
     <path id="m051966d486" d="M 409.039334 -54.928364 
L 409.015464 -54.928364 
L 409.004517 -56.957754 
L 408.988624 -58.987144 
L 408.969158 -61.016534 
L 408.949425 -63.045925 
L 408.933386 -65.075315 
L 408.923499 -67.104705 
L 408.919331 -69.134095 
L 408.91835 -71.163486 
L 408.918446 -73.192876 
L 408.919964 -75.222266 
L 408.925366 -77.251656 
L 408.936812 -79.281047 
L 408.95385 -81.310437 
L 408.973091 -83.339827 
L 408.989721 -85.369217 
L 408.999218 -87.398608 
L 408.997973 -89.427998 
L 408.982908 -91.457388 
L 408.951092 -93.486778 
L 408.900095 -95.516169 
L 408.82891 -97.545559 
L 408.738809 -99.574949 
L 408.633744 -101.604339 
L 408.520341 -103.63373 
L 408.40728 -105.66312 
L 408.303311 -107.69251 
L 408.213287 -109.7219 
L 408.13283 -111.751291 
L 408.043789 -113.780681 
L 407.913477 -115.810071 
L 407.700446 -117.839461 
L 407.367531 -119.868852 
L 406.898294 -121.898242 
L 406.307486 -123.927632 
L 405.635704 -125.957022 
L 404.927334 -127.986413 
L 404.204231 -130.015803 
L 403.453043 -132.045193 
L 402.635408 -134.074583 
L 401.714534 -136.103974 
L 400.681733 -138.133364 
L 399.567852 -140.162754 
L 398.433253 -142.192144 
L 397.340317 -144.221535 
L 396.320899 -146.250925 
L 395.355682 -148.280315 
L 394.38035 -150.309705 
L 393.322407 -152.339096 
L 392.154241 -154.368486 
L 390.932067 -156.397876 
L 389.791421 -158.427266 
L 388.89361 -160.456657 
L 388.350616 -162.486047 
L 388.17298 -164.515437 
L 388.271459 -166.544827 
L 388.508215 -168.574218 
L 388.763366 -170.603608 
L 388.978416 -172.632998 
L 389.15886 -174.662388 
L 389.3462 -176.691779 
L 389.58501 -178.721169 
L 389.906357 -180.750559 
L 390.33135 -182.779949 
L 390.88199 -184.80934 
L 391.582275 -186.83873 
L 392.443801 -188.86812 
L 393.447802 -190.89751 
L 394.543629 -192.926901 
L 395.671259 -194.956291 
L 396.792132 -196.985681 
L 397.902283 -199.015071 
L 399.017304 -201.044462 
L 400.144469 -203.073852 
L 401.266487 -205.103242 
L 402.347055 -207.132632 
L 403.348968 -209.162023 
L 404.249446 -211.191413 
L 405.044649 -213.220803 
L 405.744512 -215.250193 
L 406.363106 -217.279584 
L 406.909899 -219.308974 
L 407.386046 -221.338364 
L 407.787116 -223.367754 
L 408.109799 -225.397144 
L 408.357534 -227.426535 
L 408.541171 -229.455925 
L 408.67492 -231.485315 
L 408.771216 -233.514705 
L 408.838227 -235.544096 
L 408.881057 -237.573486 
L 408.904775 -239.602876 
L 408.916388 -241.632266 
L 408.92409 -243.661657 
L 408.934491 -245.691047 
L 408.950176 -247.720437 
L 408.969528 -249.749827 
L 408.988772 -251.779218 
L 409.004566 -253.808608 
L 409.015478 -255.837998 
L 409.03932 -255.837998 
L 409.03932 -255.837998 
L 409.050232 -253.808608 
L 409.066026 -251.779218 
L 409.08527 -249.749827 
L 409.104622 -247.720437 
L 409.120307 -245.691047 
L 409.130708 -243.661657 
L 409.13841 -241.632266 
L 409.150023 -239.602876 
L 409.173741 -237.573486 
L 409.216571 -235.544096 
L 409.283582 -233.514705 
L 409.379878 -231.485315 
L 409.513627 -229.455925 
L 409.697264 -227.426535 
L 409.944999 -225.397144 
L 410.267683 -223.367754 
L 410.668752 -221.338364 
L 411.144899 -219.308974 
L 411.691692 -217.279584 
L 412.310286 -215.250193 
L 413.010149 -213.220803 
L 413.805353 -211.191413 
L 414.70583 -209.162023 
L 415.707743 -207.132632 
L 416.788311 -205.103242 
L 417.910329 -203.073852 
L 419.037495 -201.044462 
L 420.152515 -199.015071 
L 421.262666 -196.985681 
L 422.383539 -194.956291 
L 423.51117 -192.926901 
L 424.606997 -190.89751 
L 425.610998 -188.86812 
L 426.472523 -186.83873 
L 427.172809 -184.80934 
L 427.723448 -182.779949 
L 428.148441 -180.750559 
L 428.469788 -178.721169 
L 428.708599 -176.691779 
L 428.895938 -174.662388 
L 429.076382 -172.632998 
L 429.291432 -170.603608 
L 429.546583 -168.574218 
L 429.783339 -166.544827 
L 429.881818 -164.515437 
L 429.704182 -162.486047 
L 429.161188 -160.456657 
L 428.263378 -158.427266 
L 427.122731 -156.397876 
L 425.900557 -154.368486 
L 424.732391 -152.339096 
L 423.674448 -150.309705 
L 422.699116 -148.280315 
L 421.7339 -146.250925 
L 420.714481 -144.221535 
L 419.621545 -142.192144 
L 418.486946 -140.162754 
L 417.373065 -138.133364 
L 416.340264 -136.103974 
L 415.41939 -134.074583 
L 414.601755 -132.045193 
L 413.850567 -130.015803 
L 413.127465 -127.986413 
L 412.419095 -125.957022 
L 411.747312 -123.927632 
L 411.156505 -121.898242 
L 410.687267 -119.868852 
L 410.354352 -117.839461 
L 410.141321 -115.810071 
L 410.01101 -113.780681 
L 409.921968 -111.751291 
L 409.841511 -109.7219 
L 409.751487 -107.69251 
L 409.647518 -105.66312 
L 409.534457 -103.63373 
L 409.421055 -101.604339 
L 409.31599 -99.574949 
L 409.225888 -97.545559 
L 409.154703 -95.516169 
L 409.103706 -93.486778 
L 409.07189 -91.457388 
L 409.056825 -89.427998 
L 409.05558 -87.398608 
L 409.065077 -85.369217 
L 409.081707 -83.339827 
L 409.100949 -81.310437 
L 409.117986 -79.281047 
L 409.129432 -77.251656 
L 409.134835 -75.222266 
L 409.136352 -73.192876 
L 409.136448 -71.163486 
L 409.135467 -69.134095 
L 409.131299 -67.104705 
L 409.121412 -65.075315 
L 409.105374 -63.045925 
L 409.08564 -61.016534 
L 409.066174 -58.987144 
L 409.050282 -56.957754 
L 409.039334 -54.928364 
z
" style="stroke: #3f3f3f; stroke-width: 1.25"/>
    </defs>
    <g clip-path="url(#p046d314b66)">
     <use xlink:href="#m051966d486" x="0" y="345.6" style="fill: #3274a1; stroke: #3f3f3f; stroke-width: 1.25"/>
    </g>
   </g>
   <g id="matplotlib.axis_1">
    <g id="xtick_1">
     <g id="line2d_1">
      <defs>
       <path id="m99a6e51af7" d="M 0 0 
L 0 3.5 
" style="stroke: #000000; stroke-width: 0.8"/>
      </defs>
      <g>
       <use xlink:href="#m99a6e51af7" x="99.653429" y="303.896" style="stroke: #000000; stroke-width: 0.8"/>
      </g>
     </g>
     <g id="text_1">
      <!-- Fluency -->
      <g transform="translate(80.265929 318.494438) scale(0.1 -0.1)">
       <defs>
        <path id="DejaVuSans-46" d="M 628 4666 
L 3309 4666 
L 3309 4134 
L 1259 4134 
L 1259 2759 
L 3109 2759 
L 3109 2228 
L 1259 2228 
L 1259 0 
L 628 0 
L 628 4666 
z
" transform="scale(0.015625)"/>
        <path id="DejaVuSans-6c" d="M 603 4863 
L 1178 4863 
L 1178 0 
L 603 0 
L 603 4863 
z
" transform="scale(0.015625)"/>
        <path id="DejaVuSans-75" d="M 544 1381 
L 544 3500 
L 1119 3500 
L 1119 1403 
Q 1119 906 1312 657 
Q 1506 409 1894 409 
Q 2359 409 2629 706 
Q 2900 1003 2900 1516 
L 2900 3500 
L 3475 3500 
L 3475 0 
L 2900 0 
L 2900 538 
Q 2691 219 2414 64 
Q 2138 -91 1772 -91 
Q 1169 -91 856 284 
Q 544 659 544 1381 
z
M 1991 3584 
L 1991 3584 
z
" transform="scale(0.015625)"/>
        <path id="DejaVuSans-65" d="M 3597 1894 
L 3597 1613 
L 953 1613 
Q 991 1019 1311 708 
Q 1631 397 2203 397 
Q 2534 397 2845 478 
Q 3156 559 3463 722 
L 3463 178 
Q 3153 47 2828 -22 
Q 2503 -91 2169 -91 
Q 1331 -91 842 396 
Q 353 884 353 1716 
Q 353 2575 817 3079 
Q 1281 3584 2069 3584 
Q 2775 3584 3186 3129 
Q 3597 2675 3597 1894 
z
M 3022 2063 
Q 3016 2534 2758 2815 
Q 2500 3097 2075 3097 
Q 1594 3097 1305 2825 
Q 1016 2553 972 2059 
L 3022 2063 
z
" transform="scale(0.015625)"/>
        <path id="DejaVuSans-6e" d="M 3513 2113 
L 3513 0 
L 2938 0 
L 2938 2094 
Q 2938 2591 2744 2837 
Q 2550 3084 2163 3084 
Q 1697 3084 1428 2787 
Q 1159 2491 1159 1978 
L 1159 0 
L 581 0 
L 581 3500 
L 1159 3500 
L 1159 2956 
Q 1366 3272 1645 3428 
Q 1925 3584 2291 3584 
Q 2894 3584 3203 3211 
Q 3513 2838 3513 2113 
z
" transform="scale(0.015625)"/>
        <path id="DejaVuSans-63" d="M 3122 3366 
L 3122 2828 
Q 2878 2963 2633 3030 
Q 2388 3097 2138 3097 
Q 1578 3097 1268 2742 
Q 959 2388 959 1747 
Q 959 1106 1268 751 
Q 1578 397 2138 397 
Q 2388 397 2633 464 
Q 2878 531 3122 666 
L 3122 134 
Q 2881 22 2623 -34 
Q 2366 -91 2075 -91 
Q 1284 -91 818 406 
Q 353 903 353 1747 
Q 353 2603 823 3093 
Q 1294 3584 2113 3584 
Q 2378 3584 2631 3529 
Q 2884 3475 3122 3366 
z
" transform="scale(0.015625)"/>
        <path id="DejaVuSans-79" d="M 2059 -325 
Q 1816 -950 1584 -1140 
Q 1353 -1331 966 -1331 
L 506 -1331 
L 506 -850 
L 844 -850 
Q 1081 -850 1212 -737 
Q 1344 -625 1503 -206 
L 1606 56 
L 191 3500 
L 800 3500 
L 1894 763 
L 2988 3500 
L 3597 3500 
L 2059 -325 
z
" transform="scale(0.015625)"/>
       </defs>
       <use xlink:href="#DejaVuSans-46"/>
       <use xlink:href="#DejaVuSans-6c" x="57.519531"/>
       <use xlink:href="#DejaVuSans-75" x="85.302734"/>
       <use xlink:href="#DejaVuSans-65" x="148.681641"/>
       <use xlink:href="#DejaVuSans-6e" x="210.205078"/>
       <use xlink:href="#DejaVuSans-63" x="273.583984"/>
       <use xlink:href="#DejaVuSans-79" x="328.564453"/>
      </g>
      <!--  classifier -->
      <g transform="translate(75.982335 329.69225) scale(0.1 -0.1)">
       <defs>
        <path id="DejaVuSans-20" transform="scale(0.015625)"/>
        <path id="DejaVuSans-61" d="M 2194 1759 
Q 1497 1759 1228 1600 
Q 959 1441 959 1056 
Q 959 750 1161 570 
Q 1363 391 1709 391 
Q 2188 391 2477 730 
Q 2766 1069 2766 1631 
L 2766 1759 
L 2194 1759 
z
M 3341 1997 
L 3341 0 
L 2766 0 
L 2766 531 
Q 2569 213 2275 61 
Q 1981 -91 1556 -91 
Q 1019 -91 701 211 
Q 384 513 384 1019 
Q 384 1609 779 1909 
Q 1175 2209 1959 2209 
L 2766 2209 
L 2766 2266 
Q 2766 2663 2505 2880 
Q 2244 3097 1772 3097 
Q 1472 3097 1187 3025 
Q 903 2953 641 2809 
L 641 3341 
Q 956 3463 1253 3523 
Q 1550 3584 1831 3584 
Q 2591 3584 2966 3190 
Q 3341 2797 3341 1997 
z
" transform="scale(0.015625)"/>
        <path id="DejaVuSans-73" d="M 2834 3397 
L 2834 2853 
Q 2591 2978 2328 3040 
Q 2066 3103 1784 3103 
Q 1356 3103 1142 2972 
Q 928 2841 928 2578 
Q 928 2378 1081 2264 
Q 1234 2150 1697 2047 
L 1894 2003 
Q 2506 1872 2764 1633 
Q 3022 1394 3022 966 
Q 3022 478 2636 193 
Q 2250 -91 1575 -91 
Q 1294 -91 989 -36 
Q 684 19 347 128 
L 347 722 
Q 666 556 975 473 
Q 1284 391 1588 391 
Q 1994 391 2212 530 
Q 2431 669 2431 922 
Q 2431 1156 2273 1281 
Q 2116 1406 1581 1522 
L 1381 1569 
Q 847 1681 609 1914 
Q 372 2147 372 2553 
Q 372 3047 722 3315 
Q 1072 3584 1716 3584 
Q 2034 3584 2315 3537 
Q 2597 3491 2834 3397 
z
" transform="scale(0.015625)"/>
        <path id="DejaVuSans-69" d="M 603 3500 
L 1178 3500 
L 1178 0 
L 603 0 
L 603 3500 
z
M 603 4863 
L 1178 4863 
L 1178 4134 
L 603 4134 
L 603 4863 
z
" transform="scale(0.015625)"/>
        <path id="DejaVuSans-66" d="M 2375 4863 
L 2375 4384 
L 1825 4384 
Q 1516 4384 1395 4259 
Q 1275 4134 1275 3809 
L 1275 3500 
L 2222 3500 
L 2222 3053 
L 1275 3053 
L 1275 0 
L 697 0 
L 697 3053 
L 147 3053 
L 147 3500 
L 697 3500 
L 697 3744 
Q 697 4328 969 4595 
Q 1241 4863 1831 4863 
L 2375 4863 
z
" transform="scale(0.015625)"/>
        <path id="DejaVuSans-72" d="M 2631 2963 
Q 2534 3019 2420 3045 
Q 2306 3072 2169 3072 
Q 1681 3072 1420 2755 
Q 1159 2438 1159 1844 
L 1159 0 
L 581 0 
L 581 3500 
L 1159 3500 
L 1159 2956 
Q 1341 3275 1631 3429 
Q 1922 3584 2338 3584 
Q 2397 3584 2469 3576 
Q 2541 3569 2628 3553 
L 2631 2963 
z
" transform="scale(0.015625)"/>
       </defs>
       <use xlink:href="#DejaVuSans-20"/>
       <use xlink:href="#DejaVuSans-63" x="31.787109"/>
       <use xlink:href="#DejaVuSans-6c" x="86.767578"/>
       <use xlink:href="#DejaVuSans-61" x="114.550781"/>
       <use xlink:href="#DejaVuSans-73" x="175.830078"/>
       <use xlink:href="#DejaVuSans-73" x="227.929688"/>
       <use xlink:href="#DejaVuSans-69" x="280.029297"/>
       <use xlink:href="#DejaVuSans-66" x="307.8125"/>
       <use xlink:href="#DejaVuSans-69" x="343.017578"/>
       <use xlink:href="#DejaVuSans-65" x="370.800781"/>
       <use xlink:href="#DejaVuSans-72" x="432.324219"/>
      </g>
     </g>
    </g>
    <g id="xtick_2">
     <g id="line2d_2">
      <g>
       <use xlink:href="#m99a6e51af7" x="176.996922" y="303.896" style="stroke: #000000; stroke-width: 0.8"/>
      </g>
     </g>
     <g id="text_2">
      <!-- Screening -->
      <g transform="translate(152.076609 318.494438) scale(0.1 -0.1)">
       <defs>
        <path id="DejaVuSans-53" d="M 3425 4513 
L 3425 3897 
Q 3066 4069 2747 4153 
Q 2428 4238 2131 4238 
Q 1616 4238 1336 4038 
Q 1056 3838 1056 3469 
Q 1056 3159 1242 3001 
Q 1428 2844 1947 2747 
L 2328 2669 
Q 3034 2534 3370 2195 
Q 3706 1856 3706 1288 
Q 3706 609 3251 259 
Q 2797 -91 1919 -91 
Q 1588 -91 1214 -16 
Q 841 59 441 206 
L 441 856 
Q 825 641 1194 531 
Q 1563 422 1919 422 
Q 2459 422 2753 634 
Q 3047 847 3047 1241 
Q 3047 1584 2836 1778 
Q 2625 1972 2144 2069 
L 1759 2144 
Q 1053 2284 737 2584 
Q 422 2884 422 3419 
Q 422 4038 858 4394 
Q 1294 4750 2059 4750 
Q 2388 4750 2728 4690 
Q 3069 4631 3425 4513 
z
" transform="scale(0.015625)"/>
        <path id="DejaVuSans-67" d="M 2906 1791 
Q 2906 2416 2648 2759 
Q 2391 3103 1925 3103 
Q 1463 3103 1205 2759 
Q 947 2416 947 1791 
Q 947 1169 1205 825 
Q 1463 481 1925 481 
Q 2391 481 2648 825 
Q 2906 1169 2906 1791 
z
M 3481 434 
Q 3481 -459 3084 -895 
Q 2688 -1331 1869 -1331 
Q 1566 -1331 1297 -1286 
Q 1028 -1241 775 -1147 
L 775 -588 
Q 1028 -725 1275 -790 
Q 1522 -856 1778 -856 
Q 2344 -856 2625 -561 
Q 2906 -266 2906 331 
L 2906 616 
Q 2728 306 2450 153 
Q 2172 0 1784 0 
Q 1141 0 747 490 
Q 353 981 353 1791 
Q 353 2603 747 3093 
Q 1141 3584 1784 3584 
Q 2172 3584 2450 3431 
Q 2728 3278 2906 2969 
L 2906 3500 
L 3481 3500 
L 3481 434 
z
" transform="scale(0.015625)"/>
       </defs>
       <use xlink:href="#DejaVuSans-53"/>
       <use xlink:href="#DejaVuSans-63" x="63.476562"/>
       <use xlink:href="#DejaVuSans-72" x="118.457031"/>
       <use xlink:href="#DejaVuSans-65" x="157.320312"/>
       <use xlink:href="#DejaVuSans-65" x="218.84375"/>
       <use xlink:href="#DejaVuSans-6e" x="280.367188"/>
       <use xlink:href="#DejaVuSans-69" x="343.746094"/>
       <use xlink:href="#DejaVuSans-6e" x="371.529297"/>
       <use xlink:href="#DejaVuSans-67" x="434.908203"/>
      </g>
      <!--  classifier -->
      <g transform="translate(153.325828 329.69225) scale(0.1 -0.1)">
       <use xlink:href="#DejaVuSans-20"/>
       <use xlink:href="#DejaVuSans-63" x="31.787109"/>
       <use xlink:href="#DejaVuSans-6c" x="86.767578"/>
       <use xlink:href="#DejaVuSans-61" x="114.550781"/>
       <use xlink:href="#DejaVuSans-73" x="175.830078"/>
       <use xlink:href="#DejaVuSans-73" x="227.929688"/>
       <use xlink:href="#DejaVuSans-69" x="280.029297"/>
       <use xlink:href="#DejaVuSans-66" x="307.8125"/>
       <use xlink:href="#DejaVuSans-69" x="343.017578"/>
       <use xlink:href="#DejaVuSans-65" x="370.800781"/>
       <use xlink:href="#DejaVuSans-72" x="432.324219"/>
      </g>
     </g>
    </g>
    <g id="xtick_3">
     <g id="line2d_3">
      <g>
       <use xlink:href="#m99a6e51af7" x="254.340414" y="303.896" style="stroke: #000000; stroke-width: 0.8"/>
      </g>
     </g>
     <g id="text_3">
      <!-- Executive -->
      <g transform="translate(229.998227 318.494438) scale(0.1 -0.1)">
       <defs>
        <path id="DejaVuSans-45" d="M 628 4666 
L 3578 4666 
L 3578 4134 
L 1259 4134 
L 1259 2753 
L 3481 2753 
L 3481 2222 
L 1259 2222 
L 1259 531 
L 3634 531 
L 3634 0 
L 628 0 
L 628 4666 
z
" transform="scale(0.015625)"/>
        <path id="DejaVuSans-78" d="M 3513 3500 
L 2247 1797 
L 3578 0 
L 2900 0 
L 1881 1375 
L 863 0 
L 184 0 
L 1544 1831 
L 300 3500 
L 978 3500 
L 1906 2253 
L 2834 3500 
L 3513 3500 
z
" transform="scale(0.015625)"/>
        <path id="DejaVuSans-74" d="M 1172 4494 
L 1172 3500 
L 2356 3500 
L 2356 3053 
L 1172 3053 
L 1172 1153 
Q 1172 725 1289 603 
Q 1406 481 1766 481 
L 2356 481 
L 2356 0 
L 1766 0 
Q 1100 0 847 248 
Q 594 497 594 1153 
L 594 3053 
L 172 3053 
L 172 3500 
L 594 3500 
L 594 4494 
L 1172 4494 
z
" transform="scale(0.015625)"/>
        <path id="DejaVuSans-76" d="M 191 3500 
L 800 3500 
L 1894 563 
L 2988 3500 
L 3597 3500 
L 2284 0 
L 1503 0 
L 191 3500 
z
" transform="scale(0.015625)"/>
       </defs>
       <use xlink:href="#DejaVuSans-45"/>
       <use xlink:href="#DejaVuSans-78" x="63.183594"/>
       <use xlink:href="#DejaVuSans-65" x="119.238281"/>
       <use xlink:href="#DejaVuSans-63" x="180.761719"/>
       <use xlink:href="#DejaVuSans-75" x="235.742188"/>
       <use xlink:href="#DejaVuSans-74" x="299.121094"/>
       <use xlink:href="#DejaVuSans-69" x="338.330078"/>
       <use xlink:href="#DejaVuSans-76" x="366.113281"/>
       <use xlink:href="#DejaVuSans-65" x="425.292969"/>
      </g>
      <!--  classifier -->
      <g transform="translate(230.66932 329.69225) scale(0.1 -0.1)">
       <use xlink:href="#DejaVuSans-20"/>
       <use xlink:href="#DejaVuSans-63" x="31.787109"/>
       <use xlink:href="#DejaVuSans-6c" x="86.767578"/>
       <use xlink:href="#DejaVuSans-61" x="114.550781"/>
       <use xlink:href="#DejaVuSans-73" x="175.830078"/>
       <use xlink:href="#DejaVuSans-73" x="227.929688"/>
       <use xlink:href="#DejaVuSans-69" x="280.029297"/>
       <use xlink:href="#DejaVuSans-66" x="307.8125"/>
       <use xlink:href="#DejaVuSans-69" x="343.017578"/>
       <use xlink:href="#DejaVuSans-65" x="370.800781"/>
       <use xlink:href="#DejaVuSans-72" x="432.324219"/>
      </g>
     </g>
    </g>
    <g id="xtick_4">
     <g id="line2d_4">
      <g>
       <use xlink:href="#m99a6e51af7" x="331.683907" y="303.896" style="stroke: #000000; stroke-width: 0.8"/>
      </g>
     </g>
     <g id="text_4">
      <!-- Structural -->
      <g transform="translate(306.938594 318.494438) scale(0.1 -0.1)">
       <use xlink:href="#DejaVuSans-53"/>
       <use xlink:href="#DejaVuSans-74" x="63.476562"/>
       <use xlink:href="#DejaVuSans-72" x="102.685547"/>
       <use xlink:href="#DejaVuSans-75" x="143.798828"/>
       <use xlink:href="#DejaVuSans-63" x="207.177734"/>
       <use xlink:href="#DejaVuSans-74" x="262.158203"/>
       <use xlink:href="#DejaVuSans-75" x="301.367188"/>
       <use xlink:href="#DejaVuSans-72" x="364.746094"/>
       <use xlink:href="#DejaVuSans-61" x="405.859375"/>
       <use xlink:href="#DejaVuSans-6c" x="467.138672"/>
      </g>
      <!--  classifier -->
      <g transform="translate(308.012813 329.69225) scale(0.1 -0.1)">
       <use xlink:href="#DejaVuSans-20"/>
       <use xlink:href="#DejaVuSans-63" x="31.787109"/>
       <use xlink:href="#DejaVuSans-6c" x="86.767578"/>
       <use xlink:href="#DejaVuSans-61" x="114.550781"/>
       <use xlink:href="#DejaVuSans-73" x="175.830078"/>
       <use xlink:href="#DejaVuSans-73" x="227.929688"/>
       <use xlink:href="#DejaVuSans-69" x="280.029297"/>
       <use xlink:href="#DejaVuSans-66" x="307.8125"/>
       <use xlink:href="#DejaVuSans-69" x="343.017578"/>
       <use xlink:href="#DejaVuSans-65" x="370.800781"/>
       <use xlink:href="#DejaVuSans-72" x="432.324219"/>
      </g>
     </g>
    </g>
    <g id="xtick_5">
     <g id="line2d_5">
      <g>
       <use xlink:href="#m99a6e51af7" x="409.027399" y="303.896" style="stroke: #000000; stroke-width: 0.8"/>
      </g>
     </g>
     <g id="text_5">
      <!-- Functional -->
      <g transform="translate(383.30943 318.494438) scale(0.1 -0.1)">
       <defs>
        <path id="DejaVuSans-6f" d="M 1959 3097 
Q 1497 3097 1228 2736 
Q 959 2375 959 1747 
Q 959 1119 1226 758 
Q 1494 397 1959 397 
Q 2419 397 2687 759 
Q 2956 1122 2956 1747 
Q 2956 2369 2687 2733 
Q 2419 3097 1959 3097 
z
M 1959 3584 
Q 2709 3584 3137 3096 
Q 3566 2609 3566 1747 
Q 3566 888 3137 398 
Q 2709 -91 1959 -91 
Q 1206 -91 779 398 
Q 353 888 353 1747 
Q 353 2609 779 3096 
Q 1206 3584 1959 3584 
z
" transform="scale(0.015625)"/>
       </defs>
       <use xlink:href="#DejaVuSans-46"/>
       <use xlink:href="#DejaVuSans-75" x="52.019531"/>
       <use xlink:href="#DejaVuSans-6e" x="115.398438"/>
       <use xlink:href="#DejaVuSans-63" x="178.777344"/>
       <use xlink:href="#DejaVuSans-74" x="233.757812"/>
       <use xlink:href="#DejaVuSans-69" x="272.966797"/>
       <use xlink:href="#DejaVuSans-6f" x="300.75"/>
       <use xlink:href="#DejaVuSans-6e" x="361.931641"/>
       <use xlink:href="#DejaVuSans-61" x="425.310547"/>
       <use xlink:href="#DejaVuSans-6c" x="486.589844"/>
      </g>
      <!--  classifier -->
      <g transform="translate(385.356305 329.69225) scale(0.1 -0.1)">
       <use xlink:href="#DejaVuSans-20"/>
       <use xlink:href="#DejaVuSans-63" x="31.787109"/>
       <use xlink:href="#DejaVuSans-6c" x="86.767578"/>
       <use xlink:href="#DejaVuSans-61" x="114.550781"/>
       <use xlink:href="#DejaVuSans-73" x="175.830078"/>
       <use xlink:href="#DejaVuSans-73" x="227.929688"/>
       <use xlink:href="#DejaVuSans-69" x="280.029297"/>
       <use xlink:href="#DejaVuSans-66" x="307.8125"/>
       <use xlink:href="#DejaVuSans-69" x="343.017578"/>
       <use xlink:href="#DejaVuSans-65" x="370.800781"/>
       <use xlink:href="#DejaVuSans-72" x="432.324219"/>
      </g>
     </g>
    </g>
   </g>
   <g id="matplotlib.axis_2">
    <g id="ytick_1">
     <g id="line2d_6">
      <defs>
       <path id="mfaf2cb7774" d="M 0 0 
L -3.5 0 
" style="stroke: #000000; stroke-width: 0.8"/>
      </defs>
      <g>
       <use xlink:href="#mfaf2cb7774" x="52.76" y="281.73665" style="stroke: #000000; stroke-width: 0.8"/>
      </g>
     </g>
     <g id="text_6">
      <!-- 0.3 -->
      <g transform="translate(29.856875 285.535868) scale(0.1 -0.1)">
       <defs>
        <path id="DejaVuSans-30" d="M 2034 4250 
Q 1547 4250 1301 3770 
Q 1056 3291 1056 2328 
Q 1056 1369 1301 889 
Q 1547 409 2034 409 
Q 2525 409 2770 889 
Q 3016 1369 3016 2328 
Q 3016 3291 2770 3770 
Q 2525 4250 2034 4250 
z
M 2034 4750 
Q 2819 4750 3233 4129 
Q 3647 3509 3647 2328 
Q 3647 1150 3233 529 
Q 2819 -91 2034 -91 
Q 1250 -91 836 529 
Q 422 1150 422 2328 
Q 422 3509 836 4129 
Q 1250 4750 2034 4750 
z
" transform="scale(0.015625)"/>
        <path id="DejaVuSans-2e" d="M 684 794 
L 1344 794 
L 1344 0 
L 684 0 
L 684 794 
z
" transform="scale(0.015625)"/>
        <path id="DejaVuSans-33" d="M 2597 2516 
Q 3050 2419 3304 2112 
Q 3559 1806 3559 1356 
Q 3559 666 3084 287 
Q 2609 -91 1734 -91 
Q 1441 -91 1130 -33 
Q 819 25 488 141 
L 488 750 
Q 750 597 1062 519 
Q 1375 441 1716 441 
Q 2309 441 2620 675 
Q 2931 909 2931 1356 
Q 2931 1769 2642 2001 
Q 2353 2234 1838 2234 
L 1294 2234 
L 1294 2753 
L 1863 2753 
Q 2328 2753 2575 2939 
Q 2822 3125 2822 3475 
Q 2822 3834 2567 4026 
Q 2313 4219 1838 4219 
Q 1578 4219 1281 4162 
Q 984 4106 628 3988 
L 628 4550 
Q 988 4650 1302 4700 
Q 1616 4750 1894 4750 
Q 2613 4750 3031 4423 
Q 3450 4097 3450 3541 
Q 3450 3153 3228 2886 
Q 3006 2619 2597 2516 
z
" transform="scale(0.015625)"/>
       </defs>
       <use xlink:href="#DejaVuSans-30"/>
       <use xlink:href="#DejaVuSans-2e" x="63.623047"/>
       <use xlink:href="#DejaVuSans-33" x="95.410156"/>
      </g>
     </g>
    </g>
    <g id="ytick_2">
     <g id="line2d_7">
      <g>
       <use xlink:href="#mfaf2cb7774" x="52.76" y="243.089214" style="stroke: #000000; stroke-width: 0.8"/>
      </g>
     </g>
     <g id="text_7">
      <!-- 0.4 -->
      <g transform="translate(29.856875 246.888433) scale(0.1 -0.1)">
       <defs>
        <path id="DejaVuSans-34" d="M 2419 4116 
L 825 1625 
L 2419 1625 
L 2419 4116 
z
M 2253 4666 
L 3047 4666 
L 3047 1625 
L 3713 1625 
L 3713 1100 
L 3047 1100 
L 3047 0 
L 2419 0 
L 2419 1100 
L 313 1100 
L 313 1709 
L 2253 4666 
z
" transform="scale(0.015625)"/>
       </defs>
       <use xlink:href="#DejaVuSans-30"/>
       <use xlink:href="#DejaVuSans-2e" x="63.623047"/>
       <use xlink:href="#DejaVuSans-34" x="95.410156"/>
      </g>
     </g>
    </g>
    <g id="ytick_3">
     <g id="line2d_8">
      <g>
       <use xlink:href="#mfaf2cb7774" x="52.76" y="204.441778" style="stroke: #000000; stroke-width: 0.8"/>
      </g>
     </g>
     <g id="text_8">
      <!-- 0.5 -->
      <g transform="translate(29.856875 208.240997) scale(0.1 -0.1)">
       <defs>
        <path id="DejaVuSans-35" d="M 691 4666 
L 3169 4666 
L 3169 4134 
L 1269 4134 
L 1269 2991 
Q 1406 3038 1543 3061 
Q 1681 3084 1819 3084 
Q 2600 3084 3056 2656 
Q 3513 2228 3513 1497 
Q 3513 744 3044 326 
Q 2575 -91 1722 -91 
Q 1428 -91 1123 -41 
Q 819 9 494 109 
L 494 744 
Q 775 591 1075 516 
Q 1375 441 1709 441 
Q 2250 441 2565 725 
Q 2881 1009 2881 1497 
Q 2881 1984 2565 2268 
Q 2250 2553 1709 2553 
Q 1456 2553 1204 2497 
Q 953 2441 691 2322 
L 691 4666 
z
" transform="scale(0.015625)"/>
       </defs>
       <use xlink:href="#DejaVuSans-30"/>
       <use xlink:href="#DejaVuSans-2e" x="63.623047"/>
       <use xlink:href="#DejaVuSans-35" x="95.410156"/>
      </g>
     </g>
    </g>
    <g id="ytick_4">
     <g id="line2d_9">
      <g>
       <use xlink:href="#mfaf2cb7774" x="52.76" y="165.794342" style="stroke: #000000; stroke-width: 0.8"/>
      </g>
     </g>
     <g id="text_9">
      <!-- 0.6 -->
      <g transform="translate(29.856875 169.593561) scale(0.1 -0.1)">
       <defs>
        <path id="DejaVuSans-36" d="M 2113 2584 
Q 1688 2584 1439 2293 
Q 1191 2003 1191 1497 
Q 1191 994 1439 701 
Q 1688 409 2113 409 
Q 2538 409 2786 701 
Q 3034 994 3034 1497 
Q 3034 2003 2786 2293 
Q 2538 2584 2113 2584 
z
M 3366 4563 
L 3366 3988 
Q 3128 4100 2886 4159 
Q 2644 4219 2406 4219 
Q 1781 4219 1451 3797 
Q 1122 3375 1075 2522 
Q 1259 2794 1537 2939 
Q 1816 3084 2150 3084 
Q 2853 3084 3261 2657 
Q 3669 2231 3669 1497 
Q 3669 778 3244 343 
Q 2819 -91 2113 -91 
Q 1303 -91 875 529 
Q 447 1150 447 2328 
Q 447 3434 972 4092 
Q 1497 4750 2381 4750 
Q 2619 4750 2861 4703 
Q 3103 4656 3366 4563 
z
" transform="scale(0.015625)"/>
       </defs>
       <use xlink:href="#DejaVuSans-30"/>
       <use xlink:href="#DejaVuSans-2e" x="63.623047"/>
       <use xlink:href="#DejaVuSans-36" x="95.410156"/>
      </g>
     </g>
    </g>
    <g id="ytick_5">
     <g id="line2d_10">
      <g>
       <use xlink:href="#mfaf2cb7774" x="52.76" y="127.146907" style="stroke: #000000; stroke-width: 0.8"/>
      </g>
     </g>
     <g id="text_10">
      <!-- 0.7 -->
      <g transform="translate(29.856875 130.946126) scale(0.1 -0.1)">
       <defs>
        <path id="DejaVuSans-37" d="M 525 4666 
L 3525 4666 
L 3525 4397 
L 1831 0 
L 1172 0 
L 2766 4134 
L 525 4134 
L 525 4666 
z
" transform="scale(0.015625)"/>
       </defs>
       <use xlink:href="#DejaVuSans-30"/>
       <use xlink:href="#DejaVuSans-2e" x="63.623047"/>
       <use xlink:href="#DejaVuSans-37" x="95.410156"/>
      </g>
     </g>
    </g>
    <g id="ytick_6">
     <g id="line2d_11">
      <g>
       <use xlink:href="#mfaf2cb7774" x="52.76" y="88.499471" style="stroke: #000000; stroke-width: 0.8"/>
      </g>
     </g>
     <g id="text_11">
      <!-- 0.8 -->
      <g transform="translate(29.856875 92.29869) scale(0.1 -0.1)">
       <defs>
        <path id="DejaVuSans-38" d="M 2034 2216 
Q 1584 2216 1326 1975 
Q 1069 1734 1069 1313 
Q 1069 891 1326 650 
Q 1584 409 2034 409 
Q 2484 409 2743 651 
Q 3003 894 3003 1313 
Q 3003 1734 2745 1975 
Q 2488 2216 2034 2216 
z
M 1403 2484 
Q 997 2584 770 2862 
Q 544 3141 544 3541 
Q 544 4100 942 4425 
Q 1341 4750 2034 4750 
Q 2731 4750 3128 4425 
Q 3525 4100 3525 3541 
Q 3525 3141 3298 2862 
Q 3072 2584 2669 2484 
Q 3125 2378 3379 2068 
Q 3634 1759 3634 1313 
Q 3634 634 3220 271 
Q 2806 -91 2034 -91 
Q 1263 -91 848 271 
Q 434 634 434 1313 
Q 434 1759 690 2068 
Q 947 2378 1403 2484 
z
M 1172 3481 
Q 1172 3119 1398 2916 
Q 1625 2713 2034 2713 
Q 2441 2713 2670 2916 
Q 2900 3119 2900 3481 
Q 2900 3844 2670 4047 
Q 2441 4250 2034 4250 
Q 1625 4250 1398 4047 
Q 1172 3844 1172 3481 
z
" transform="scale(0.015625)"/>
       </defs>
       <use xlink:href="#DejaVuSans-30"/>
       <use xlink:href="#DejaVuSans-2e" x="63.623047"/>
       <use xlink:href="#DejaVuSans-38" x="95.410156"/>
      </g>
     </g>
    </g>
    <g id="ytick_7">
     <g id="line2d_12">
      <g>
       <use xlink:href="#mfaf2cb7774" x="52.76" y="49.852035" style="stroke: #000000; stroke-width: 0.8"/>
      </g>
     </g>
     <g id="text_12">
      <!-- 0.9 -->
      <g transform="translate(29.856875 53.651254) scale(0.1 -0.1)">
       <defs>
        <path id="DejaVuSans-39" d="M 703 97 
L 703 672 
Q 941 559 1184 500 
Q 1428 441 1663 441 
Q 2288 441 2617 861 
Q 2947 1281 2994 2138 
Q 2813 1869 2534 1725 
Q 2256 1581 1919 1581 
Q 1219 1581 811 2004 
Q 403 2428 403 3163 
Q 403 3881 828 4315 
Q 1253 4750 1959 4750 
Q 2769 4750 3195 4129 
Q 3622 3509 3622 2328 
Q 3622 1225 3098 567 
Q 2575 -91 1691 -91 
Q 1453 -91 1209 -44 
Q 966 3 703 97 
z
M 1959 2075 
Q 2384 2075 2632 2365 
Q 2881 2656 2881 3163 
Q 2881 3666 2632 3958 
Q 2384 4250 1959 4250 
Q 1534 4250 1286 3958 
Q 1038 3666 1038 3163 
Q 1038 2656 1286 2365 
Q 1534 2075 1959 2075 
z
" transform="scale(0.015625)"/>
       </defs>
       <use xlink:href="#DejaVuSans-30"/>
       <use xlink:href="#DejaVuSans-2e" x="63.623047"/>
       <use xlink:href="#DejaVuSans-39" x="95.410156"/>
      </g>
     </g>
    </g>
    <g id="text_13">
     <!-- F1 -->
     <g transform="translate(23.36125 165.696437) rotate(-90) scale(0.12 -0.12)">
      <defs>
       <path id="DejaVuSans-31" d="M 794 531 
L 1825 531 
L 1825 4091 
L 703 3866 
L 703 4441 
L 1819 4666 
L 2450 4666 
L 2450 531 
L 3481 531 
L 3481 0 
L 794 0 
L 794 531 
z
" transform="scale(0.015625)"/>
      </defs>
      <use xlink:href="#DejaVuSans-46"/>
      <use xlink:href="#DejaVuSans-31" x="57.519531"/>
     </g>
    </g>
   </g>
   <g id="LineCollection_1">
    <path d="M 99.653429 153.187549 
L 99.653429 80.205731 
" clip-path="url(#p046d314b66)" style="fill: none; stroke: #000000; stroke-width: 1.5"/>
    <path d="M 176.996922 144.866756 
L 176.996922 71.382522 
" clip-path="url(#p046d314b66)" style="fill: none; stroke: #000000; stroke-width: 1.5"/>
    <path d="M 254.340414 153.322815 
L 254.340414 70.648221 
" clip-path="url(#p046d314b66)" style="fill: none; stroke: #000000; stroke-width: 1.5"/>
    <path d="M 331.683907 114.165233 
L 331.683907 51.691653 
" clip-path="url(#p046d314b66)" style="fill: none; stroke: #000000; stroke-width: 1.5"/>
    <path d="M 409.027399 214.28528 
L 409.027399 128.174929 
" clip-path="url(#p046d314b66)" style="fill: none; stroke: #000000; stroke-width: 1.5"/>
   </g>
   <g id="line2d_13">
    <defs>
     <path id="m324e474778" d="M 5 0 
L -5 -0 
" style="stroke: #000000"/>
    </defs>
    <g clip-path="url(#p046d314b66)">
     <use xlink:href="#m324e474778" x="99.653429" y="153.187549" style="stroke: #000000"/>
     <use xlink:href="#m324e474778" x="176.996922" y="144.866756" style="stroke: #000000"/>
     <use xlink:href="#m324e474778" x="254.340414" y="153.322815" style="stroke: #000000"/>
     <use xlink:href="#m324e474778" x="331.683907" y="114.165233" style="stroke: #000000"/>
     <use xlink:href="#m324e474778" x="409.027399" y="214.28528" style="stroke: #000000"/>
    </g>
   </g>
   <g id="line2d_14">
    <g clip-path="url(#p046d314b66)">
     <use xlink:href="#m324e474778" x="99.653429" y="80.205731" style="stroke: #000000"/>
     <use xlink:href="#m324e474778" x="176.996922" y="71.382522" style="stroke: #000000"/>
     <use xlink:href="#m324e474778" x="254.340414" y="70.648221" style="stroke: #000000"/>
     <use xlink:href="#m324e474778" x="331.683907" y="51.691653" style="stroke: #000000"/>
     <use xlink:href="#m324e474778" x="409.027399" y="128.174929" style="stroke: #000000"/>
    </g>
   </g>
   <g id="line2d_15">
    <defs>
     <path id="m8cd0408484" d="M 0 5.656854 
L 5.656854 0 
L 0 -5.656854 
L -5.656854 0 
z
" style="stroke: #000000; stroke-linejoin: miter"/>
    </defs>
    <g clip-path="url(#p046d314b66)">
     <use xlink:href="#m8cd0408484" x="99.653429" y="110.547833" style="stroke: #000000; stroke-linejoin: miter"/>
     <use xlink:href="#m8cd0408484" x="176.996922" y="104.855066" style="stroke: #000000; stroke-linejoin: miter"/>
     <use xlink:href="#m8cd0408484" x="254.340414" y="108.279229" style="stroke: #000000; stroke-linejoin: miter"/>
     <use xlink:href="#m8cd0408484" x="331.683907" y="77.272391" style="stroke: #000000; stroke-linejoin: miter"/>
     <use xlink:href="#m8cd0408484" x="409.027399" y="172.53832" style="stroke: #000000; stroke-linejoin: miter"/>
    </g>
   </g>
   <g id="patch_3">
    <path d="M 52.76 303.896 
L 52.76 12.96 
" style="fill: none; stroke: #000000; stroke-width: 0.8; stroke-linejoin: miter; stroke-linecap: square"/>
   </g>
   <g id="patch_4">
    <path d="M 447.84 303.896 
L 447.84 12.96 
" style="fill: none; stroke: #000000; stroke-width: 0.8; stroke-linejoin: miter; stroke-linecap: square"/>
   </g>
   <g id="patch_5">
    <path d="M 52.76 303.896 
L 447.84 303.896 
" style="fill: none; stroke: #000000; stroke-width: 0.8; stroke-linejoin: miter; stroke-linecap: square"/>
   </g>
   <g id="patch_6">
    <path d="M 52.76 12.96 
L 447.84 12.96 
" style="fill: none; stroke: #000000; stroke-width: 0.8; stroke-linejoin: miter; stroke-linecap: square"/>
   </g>
  </g>
 </g>
 <defs>
  <clipPath id="p046d314b66">
   <rect x="52.76" y="12.96" width="395.08" height="290.936"/>
  </clipPath>
 </defs>
</svg>
