<?xml version="1.0" encoding="utf-8" standalone="no"?>
<!DOCTYPE svg PUBLIC "-//W3C//DTD SVG 1.1//EN"
  "http://www.w3.org/Graphics/SVG/1.1/DTD/svg11.dtd">
<svg xmlns:xlink="http://www.w3.org/1999/xlink" width="460.8pt" height="345.6pt" viewBox="0 0 460.8 345.6" xmlns="http://www.w3.org/2000/svg" version="1.1">
 <metadata>
  <rdf:RDF xmlns:dc="http://purl.org/dc/elements/1.1/" xmlns:cc="http://creativecommons.org/ns#" xmlns:rdf="http://www.w3.org/1999/02/22-rdf-syntax-ns#">
   <cc:Work>
    <dc:type rdf:resource="http://purl.org/dc/dcmitype/StillImage"/>
    <dc:date>2025-09-22T14:38:26.260765</dc:date>
    <dc:format>image/svg+xml</dc:format>
    <dc:creator>
     <cc:Agent>
      <dc:title>Matplotlib v3.9.4, https://matplotlib.org/</dc:title>
     </cc:Agent>
    </dc:creator>
   </cc:Work>
  </rdf:RDF>
 </metadata>
 <defs>
  <style type="text/css">*{stroke-linejoin: round; stroke-linecap: butt}</style>
 </defs>
 <g id="figure_1">
  <g id="patch_1">
   <path d="M 0 345.6 
L 460.8 345.6 
L 460.8 0 
L 0 0 
z
" style="fill: #ffffff"/>
  </g>
  <g id="axes_1">
   <g id="patch_2">
    <path d="M 52.76 303.896 
L 447.84 303.896 
L 447.84 12.96 
L 52.76 12.96 
z
" style="fill: #ffffff"/>
   </g>
   <g id="PolyCollection_1">
    <defs>
     <path id="me1eded1195" d="M 94.279656 -159.180147 
L 94.251275 -159.180147 
L 94.240961 -160.550833 
L 94.225979 -161.921519 
L 94.205949 -163.292206 
L 94.181291 -164.662892 
L 94.153292 -166.033578 
L 94.123832 -167.404264 
L 94.094777 -168.774951 
L 94.067263 -170.145637 
L 94.041116 -171.516323 
L 94.014648 -172.88701 
L 93.984856 -174.257696 
L 93.947832 -175.628382 
L 93.899121 -176.999069 
L 93.833855 -178.369755 
L 93.746722 -179.740441 
L 93.632045 -181.111127 
L 93.484326 -182.481814 
L 93.299432 -183.8525 
L 93.076379 -185.223186 
L 92.819261 -186.593873 
L 92.538526 -187.964559 
L 92.250531 -189.335245 
L 91.974569 -190.705931 
L 91.727513 -192.076618 
L 91.517724 -193.447304 
L 91.340982 -194.81799 
L 91.180907 -196.188677 
L 91.01434 -197.559363 
L 90.819412 -198.930049 
L 90.582343 -200.300735 
L 90.299573 -201.671422 
L 89.974486 -203.042108 
L 89.610907 -204.412794 
L 89.20708 -205.783481 
L 88.753072 -207.154167 
L 88.232448 -208.524853 
L 87.627006 -209.89554 
L 86.922445 -211.266226 
L 86.113142 -212.636912 
L 85.205097 -214.007598 
L 84.216849 -215.378285 
L 83.178456 -216.748971 
L 82.128493 -218.119657 
L 81.108969 -219.490344 
L 80.158409 -220.86103 
L 79.304308 -222.231716 
L 78.557123 -223.602402 
L 77.90814 -224.973089 
L 77.33244 -226.343775 
L 76.796015 -227.714461 
L 76.264336 -229.085148 
L 75.709427 -230.455834 
L 75.113985 -231.82652 
L 74.473092 -233.197207 
L 73.794908 -234.567893 
L 73.100991 -235.938579 
L 72.425368 -237.309265 
L 71.810862 -238.679952 
L 71.302231 -240.050638 
L 70.937582 -241.421324 
L 70.740882 -242.792011 
L 70.718182 -244.162697 
L 70.85876 -245.533383 
L 71.140631 -246.904069 
L 71.538524 -248.274756 
L 72.031708 -249.645442 
L 72.608789 -251.016128 
L 73.267463 -252.386815 
L 74.00925 -253.757501 
L 74.832003 -255.128187 
L 75.724649 -256.498874 
L 76.66768 -257.86956 
L 77.639418 -259.240246 
L 78.624286 -260.610932 
L 79.617904 -261.981619 
L 80.62583 -263.352305 
L 81.656841 -264.722991 
L 82.714871 -266.093678 
L 83.794192 -267.464364 
L 84.879957 -268.83505 
L 85.952854 -270.205736 
L 86.99446 -271.576423 
L 87.990177 -272.947109 
L 88.928835 -274.317795 
L 89.800475 -275.688482 
L 90.594788 -277.059168 
L 91.301801 -278.429854 
L 91.914446 -279.80054 
L 92.431219 -281.171227 
L 92.857077 -282.541913 
L 93.202009 -283.912599 
L 93.478138 -285.283286 
L 93.696946 -286.653972 
L 93.867812 -288.024658 
L 93.998044 -289.395345 
L 94.09378 -290.766031 
L 94.160892 -292.136717 
L 94.205341 -293.507403 
L 94.232966 -294.87809 
L 94.297965 -294.87809 
L 94.297965 -294.87809 
L 94.325589 -293.507403 
L 94.370038 -292.136717 
L 94.437151 -290.766031 
L 94.532887 -289.395345 
L 94.663119 -288.024658 
L 94.833985 -286.653972 
L 95.052793 -285.283286 
L 95.328921 -283.912599 
L 95.673853 -282.541913 
L 96.099712 -281.171227 
L 96.616484 -279.80054 
L 97.22913 -278.429854 
L 97.936142 -277.059168 
L 98.730456 -275.688482 
L 99.602096 -274.317795 
L 100.540754 -272.947109 
L 101.536471 -271.576423 
L 102.578077 -270.205736 
L 103.650974 -268.83505 
L 104.736738 -267.464364 
L 105.81606 -266.093678 
L 106.87409 -264.722991 
L 107.905101 -263.352305 
L 108.913027 -261.981619 
L 109.906645 -260.610932 
L 110.891513 -259.240246 
L 111.86325 -257.86956 
L 112.806282 -256.498874 
L 113.698928 -255.128187 
L 114.521681 -253.757501 
L 115.263468 -252.386815 
L 115.922141 -251.016128 
L 116.499222 -249.645442 
L 116.992406 -248.274756 
L 117.3903 -246.904069 
L 117.67217 -245.533383 
L 117.812749 -244.162697 
L 117.790048 -242.792011 
L 117.593348 -241.421324 
L 117.2287 -240.050638 
L 116.720069 -238.679952 
L 116.105562 -237.309265 
L 115.429939 -235.938579 
L 114.736023 -234.567893 
L 114.057839 -233.197207 
L 113.416945 -231.82652 
L 112.821504 -230.455834 
L 112.266594 -229.085148 
L 111.734915 -227.714461 
L 111.198491 -226.343775 
L 110.622791 -224.973089 
L 109.973808 -223.602402 
L 109.226622 -222.231716 
L 108.372522 -220.86103 
L 107.421961 -219.490344 
L 106.402437 -218.119657 
L 105.352475 -216.748971 
L 104.314082 -215.378285 
L 103.325834 -214.007598 
L 102.417789 -212.636912 
L 101.608486 -211.266226 
L 100.903925 -209.89554 
L 100.298483 -208.524853 
L 99.777859 -207.154167 
L 99.323851 -205.783481 
L 98.920024 -204.412794 
L 98.556445 -203.042108 
L 98.231358 -201.671422 
L 97.948588 -200.300735 
L 97.711519 -198.930049 
L 97.516591 -197.559363 
L 97.350024 -196.188677 
L 97.189949 -194.81799 
L 97.013207 -193.447304 
L 96.803418 -192.076618 
L 96.556362 -190.705931 
L 96.2804 -189.335245 
L 95.992405 -187.964559 
L 95.711669 -186.593873 
L 95.454552 -185.223186 
L 95.231499 -183.8525 
L 95.046605 -182.481814 
L 94.898886 -181.111127 
L 94.784209 -179.740441 
L 94.697075 -178.369755 
L 94.63181 -176.999069 
L 94.583099 -175.628382 
L 94.546075 -174.257696 
L 94.516283 -172.88701 
L 94.489815 -171.516323 
L 94.463667 -170.145637 
L 94.436153 -168.774951 
L 94.407099 -167.404264 
L 94.377638 -166.033578 
L 94.34964 -164.662892 
L 94.324982 -163.292206 
L 94.304952 -161.921519 
L 94.28997 -160.550833 
L 94.279656 -159.180147 
z
" style="stroke: #3f3f3f; stroke-width: 1.25"/>
    </defs>
    <g clip-path="url(#pabc1fb1d92)">
     <use xlink:href="#me1eded1195" x="0" y="345.6" style="fill: #3274a1; stroke: #3f3f3f; stroke-width: 1.25"/>
    </g>
   </g>
   <g id="PolyCollection_2">
    <defs>
     <path id="ma70e7f815a" d="M 173.957665 -218.343941 
L 173.920892 -218.343941 
L 173.907368 -219.364867 
L 173.888272 -220.385793 
L 173.863893 -221.40672 
L 173.835523 -222.427646 
L 173.804639 -223.448572 
L 173.771263 -224.469498 
L 173.732125 -225.490424 
L 173.679787 -226.511351 
L 173.603772 -227.532277 
L 173.49385 -228.553203 
L 173.344397 -229.574129 
L 173.157837 -230.595056 
L 172.945218 -231.615982 
L 172.723107 -232.636908 
L 172.507558 -233.657834 
L 172.307291 -234.67876 
L 172.118725 -235.699687 
L 171.925088 -236.720613 
L 171.700462 -237.741539 
L 171.417687 -238.762465 
L 171.057169 -239.783392 
L 170.612759 -240.804318 
L 170.091941 -241.825244 
L 169.510447 -242.84617 
L 168.884533 -243.867096 
L 168.225356 -244.888023 
L 167.53808 -245.908949 
L 166.824657 -246.929875 
L 166.08655 -247.950801 
L 165.324186 -248.971727 
L 164.533315 -249.992654 
L 163.702028 -251.01358 
L 162.812611 -252.034506 
L 161.848938 -253.055432 
L 160.805263 -254.076359 
L 159.69017 -255.097285 
L 158.522375 -256.118211 
L 157.320837 -257.139137 
L 156.095642 -258.160063 
L 154.84516 -259.18099 
L 153.560197 -260.201916 
L 152.231639 -261.222842 
L 150.857464 -262.243768 
L 149.447618 -263.264694 
L 148.027562 -264.285621 
L 146.640778 -265.306547 
L 145.347763 -266.327473 
L 144.217726 -267.348399 
L 143.312125 -268.369326 
L 142.665448 -269.390252 
L 142.273139 -270.411178 
L 142.094487 -271.432104 
L 142.069753 -272.45303 
L 142.141886 -273.473957 
L 142.271175 -274.494883 
L 142.437895 -275.515809 
L 142.63765 -276.536735 
L 142.878199 -277.557662 
L 143.181677 -278.578588 
L 143.587362 -279.599514 
L 144.146372 -280.62044 
L 144.905196 -281.641366 
L 145.885154 -282.662293 
L 147.070348 -283.683219 
L 148.412316 -284.704145 
L 149.848736 -285.725071 
L 151.325103 -286.745997 
L 152.808163 -287.766924 
L 154.286801 -288.78785 
L 155.763966 -289.808776 
L 157.246738 -290.829702 
L 158.739864 -291.850629 
L 160.243795 -292.871555 
L 161.754755 -293.892481 
L 163.263896 -294.913407 
L 164.754752 -295.934333 
L 166.201038 -296.95526 
L 167.567757 -297.976186 
L 168.816823 -298.997112 
L 169.915226 -300.018038 
L 170.842015 -301.038964 
L 171.591305 -302.059891 
L 172.171172 -303.080817 
L 172.600305 -304.101743 
L 172.904304 -305.122669 
L 173.112239 -306.143596 
L 173.253206 -307.164522 
L 173.352902 -308.185448 
L 173.430955 -309.206374 
L 173.499889 -310.2273 
L 173.565882 -311.248227 
L 173.630594 -312.269153 
L 173.693085 -313.290079 
L 173.751241 -314.311005 
L 173.802721 -315.331931 
L 173.845627 -316.352858 
L 173.879007 -317.373784 
L 173.903074 -318.39471 
L 173.91907 -319.415636 
L 173.959487 -319.415636 
L 173.959487 -319.415636 
L 173.975483 -318.39471 
L 173.99955 -317.373784 
L 174.03293 -316.352858 
L 174.075836 -315.331931 
L 174.127315 -314.311005 
L 174.185472 -313.290079 
L 174.247963 -312.269153 
L 174.312675 -311.248227 
L 174.378668 -310.2273 
L 174.447602 -309.206374 
L 174.525655 -308.185448 
L 174.625351 -307.164522 
L 174.766318 -306.143596 
L 174.974252 -305.122669 
L 175.278252 -304.101743 
L 175.707385 -303.080817 
L 176.287252 -302.059891 
L 177.036542 -301.038964 
L 177.963331 -300.018038 
L 179.061734 -298.997112 
L 180.3108 -297.976186 
L 181.677519 -296.95526 
L 183.123804 -295.934333 
L 184.614661 -294.913407 
L 186.123802 -293.892481 
L 187.634762 -292.871555 
L 189.138692 -291.850629 
L 190.631819 -290.829702 
L 192.114591 -289.808776 
L 193.591756 -288.78785 
L 195.070393 -287.766924 
L 196.553453 -286.745997 
L 198.029821 -285.725071 
L 199.46624 -284.704145 
L 200.808209 -283.683219 
L 201.993403 -282.662293 
L 202.973361 -281.641366 
L 203.732185 -280.62044 
L 204.291194 -279.599514 
L 204.69688 -278.578588 
L 205.000358 -277.557662 
L 205.240907 -276.536735 
L 205.440662 -275.515809 
L 205.607382 -274.494883 
L 205.736671 -273.473957 
L 205.808804 -272.45303 
L 205.78407 -271.432104 
L 205.605418 -270.411178 
L 205.213109 -269.390252 
L 204.566432 -268.369326 
L 203.660831 -267.348399 
L 202.530794 -266.327473 
L 201.237779 -265.306547 
L 199.850995 -264.285621 
L 198.430939 -263.264694 
L 197.021093 -262.243768 
L 195.646918 -261.222842 
L 194.31836 -260.201916 
L 193.033397 -259.18099 
L 191.782915 -258.160063 
L 190.55772 -257.139137 
L 189.356181 -256.118211 
L 188.188387 -255.097285 
L 187.073294 -254.076359 
L 186.029619 -253.055432 
L 185.065946 -252.034506 
L 184.176529 -251.01358 
L 183.345242 -249.992654 
L 182.554371 -248.971727 
L 181.792006 -247.950801 
L 181.0539 -246.929875 
L 180.340477 -245.908949 
L 179.653201 -244.888023 
L 178.994024 -243.867096 
L 178.368109 -242.84617 
L 177.786615 -241.825244 
L 177.265797 -240.804318 
L 176.821387 -239.783392 
L 176.46087 -238.762465 
L 176.178095 -237.741539 
L 175.953468 -236.720613 
L 175.759831 -235.699687 
L 175.571265 -234.67876 
L 175.370999 -233.657834 
L 175.15545 -232.636908 
L 174.933339 -231.615982 
L 174.72072 -230.595056 
L 174.53416 -229.574129 
L 174.384707 -228.553203 
L 174.274785 -227.532277 
L 174.19877 -226.511351 
L 174.146432 -225.490424 
L 174.107293 -224.469498 
L 174.073918 -223.448572 
L 174.043034 -222.427646 
L 174.014664 -221.40672 
L 173.990284 -220.385793 
L 173.971188 -219.364867 
L 173.957665 -218.343941 
z
" style="stroke: #3f3f3f; stroke-width: 1.25"/>
    </defs>
    <g clip-path="url(#pabc1fb1d92)">
     <use xlink:href="#ma70e7f815a" x="0" y="345.6" style="fill: #3274a1; stroke: #3f3f3f; stroke-width: 1.25"/>
    </g>
   </g>
   <g id="PolyCollection_3">
    <defs>
     <path id="m2c101e305d" d="M 253.624882 -129.140409 
L 253.601301 -129.140409 
L 253.59231 -130.787183 
L 253.579418 -132.433958 
L 253.562769 -134.080733 
L 253.543393 -135.727508 
L 253.52296 -137.374283 
L 253.503061 -139.021058 
L 253.484271 -140.667833 
L 253.4654 -142.314608 
L 253.443291 -143.961383 
L 253.413297 -145.608158 
L 253.370371 -147.254933 
L 253.310542 -148.901708 
L 253.232405 -150.548483 
L 253.137996 -152.195258 
L 253.032348 -153.842033 
L 252.921524 -155.488808 
L 252.809773 -157.135583 
L 252.697244 -158.782358 
L 252.579523 -160.429133 
L 252.44931 -162.075908 
L 252.299411 -163.722683 
L 252.125633 -165.369458 
L 251.928371 -167.016233 
L 251.712218 -168.663007 
L 251.483469 -170.309782 
L 251.246015 -171.956557 
L 250.997005 -173.603332 
L 250.724332 -175.250107 
L 250.407799 -176.896882 
L 250.024138 -178.543657 
L 249.553902 -180.190432 
L 248.987085 -181.837207 
L 248.3252 -183.483982 
L 247.579677 -185.130757 
L 246.768097 -186.777532 
L 245.909825 -188.424307 
L 245.021652 -190.071082 
L 244.113641 -191.717857 
L 243.186272 -193.364632 
L 242.231099 -195.011407 
L 241.236532 -196.658182 
L 240.197621 -198.304957 
L 239.125553 -199.951732 
L 238.051753 -201.598507 
L 237.024003 -203.245282 
L 236.095994 -204.892057 
L 235.314482 -206.538831 
L 234.708245 -208.185606 
L 234.28142 -209.832381 
L 234.012356 -211.479156 
L 233.858564 -213.125931 
L 233.767788 -214.772706 
L 233.693407 -216.419481 
L 233.60963 -218.066256 
L 233.520367 -219.713031 
L 233.45744 -221.359806 
L 233.468629 -223.006581 
L 233.600789 -224.653356 
L 233.884698 -226.300131 
L 234.326088 -227.946906 
L 234.904251 -229.593681 
L 235.577899 -231.240456 
L 236.297165 -232.887231 
L 237.018822 -234.534006 
L 237.719382 -236.180781 
L 238.400325 -237.827556 
L 239.083162 -239.474331 
L 239.797614 -241.121106 
L 240.56944 -242.767881 
L 241.413074 -244.414655 
L 242.329752 -246.06143 
L 243.308516 -247.708205 
L 244.327704 -249.35498 
L 245.357011 -251.001755 
L 246.36158 -252.64853 
L 247.308436 -254.295305 
L 248.173164 -255.94208 
L 248.943803 -257.588855 
L 249.62031 -259.23563 
L 250.210512 -260.882405 
L 250.725069 -262.52918 
L 251.173853 -264.175955 
L 251.564636 -265.82273 
L 251.903491 -267.469505 
L 252.195579 -269.11628 
L 252.445479 -270.763055 
L 252.657133 -272.40983 
L 252.834015 -274.056605 
L 252.979817 -275.70338 
L 253.099188 -277.350155 
L 253.19778 -278.99693 
L 253.281291 -280.643704 
L 253.354052 -282.290479 
L 253.418102 -283.937254 
L 253.473371 -285.584029 
L 253.518801 -287.230804 
L 253.55365 -288.877579 
L 253.578295 -290.524354 
L 253.594255 -292.171129 
L 253.631928 -292.171129 
L 253.631928 -292.171129 
L 253.647888 -290.524354 
L 253.672533 -288.877579 
L 253.707382 -287.230804 
L 253.752812 -285.584029 
L 253.808081 -283.937254 
L 253.872131 -282.290479 
L 253.944892 -280.643704 
L 254.028403 -278.99693 
L 254.126995 -277.350155 
L 254.246366 -275.70338 
L 254.392168 -274.056605 
L 254.56905 -272.40983 
L 254.780704 -270.763055 
L 255.030604 -269.11628 
L 255.322692 -267.469505 
L 255.661547 -265.82273 
L 256.05233 -264.175955 
L 256.501114 -262.52918 
L 257.015671 -260.882405 
L 257.605873 -259.23563 
L 258.28238 -257.588855 
L 259.053019 -255.94208 
L 259.917747 -254.295305 
L 260.864603 -252.64853 
L 261.869172 -251.001755 
L 262.898479 -249.35498 
L 263.917667 -247.708205 
L 264.89643 -246.06143 
L 265.813109 -244.414655 
L 266.656743 -242.767881 
L 267.428569 -241.121106 
L 268.143021 -239.474331 
L 268.825858 -237.827556 
L 269.506801 -236.180781 
L 270.207361 -234.534006 
L 270.929018 -232.887231 
L 271.648284 -231.240456 
L 272.321932 -229.593681 
L 272.900095 -227.946906 
L 273.341485 -226.300131 
L 273.625394 -224.653356 
L 273.757554 -223.006581 
L 273.768743 -221.359806 
L 273.705816 -219.713031 
L 273.616553 -218.066256 
L 273.532776 -216.419481 
L 273.458395 -214.772706 
L 273.367619 -213.125931 
L 273.213827 -211.479156 
L 272.944763 -209.832381 
L 272.517938 -208.185606 
L 271.911701 -206.538831 
L 271.130189 -204.892057 
L 270.20218 -203.245282 
L 269.17443 -201.598507 
L 268.10063 -199.951732 
L 267.028562 -198.304957 
L 265.989651 -196.658182 
L 264.995084 -195.011407 
L 264.039911 -193.364632 
L 263.112542 -191.717857 
L 262.204531 -190.071082 
L 261.316358 -188.424307 
L 260.458086 -186.777532 
L 259.646506 -185.130757 
L 258.900983 -183.483982 
L 258.239098 -181.837207 
L 257.672281 -180.190432 
L 257.202045 -178.543657 
L 256.818384 -176.896882 
L 256.501851 -175.250107 
L 256.229178 -173.603332 
L 255.980168 -171.956557 
L 255.742714 -170.309782 
L 255.513965 -168.663007 
L 255.297812 -167.016233 
L 255.10055 -165.369458 
L 254.926772 -163.722683 
L 254.776873 -162.075908 
L 254.64666 -160.429133 
L 254.528939 -158.782358 
L 254.41641 -157.135583 
L 254.304659 -155.488808 
L 254.193835 -153.842033 
L 254.088187 -152.195258 
L 253.993778 -150.548483 
L 253.915641 -148.901708 
L 253.855812 -147.254933 
L 253.812886 -145.608158 
L 253.782892 -143.961383 
L 253.760783 -142.314608 
L 253.741912 -140.667833 
L 253.723122 -139.021058 
L 253.703223 -137.374283 
L 253.68279 -135.727508 
L 253.663414 -134.080733 
L 253.646765 -132.433958 
L 253.633873 -130.787183 
L 253.624882 -129.140409 
z
" style="stroke: #3f3f3f; stroke-width: 1.25"/>
    </defs>
    <g clip-path="url(#pabc1fb1d92)">
     <use xlink:href="#m2c101e305d" x="0" y="345.6" style="fill: #3274a1; stroke: #3f3f3f; stroke-width: 1.25"/>
    </g>
   </g>
   <g id="PolyCollection_4">
    <defs>
     <path id="m55f419155a" d="M 333.302151 -180.895848 
L 333.271659 -180.895848 
L 333.259175 -182.247277 
L 333.241523 -183.598705 
L 333.22004 -184.950133 
L 333.19812 -186.301562 
L 333.180394 -187.65299 
L 333.170822 -189.004419 
L 333.170563 -190.355847 
L 333.177017 -191.707275 
L 333.184869 -193.058704 
L 333.188767 -194.410132 
L 333.186173 -195.76156 
L 333.178718 -197.112989 
L 333.171258 -198.464417 
L 333.169125 -199.815846 
L 333.175088 -201.167274 
L 333.187613 -202.518702 
L 333.201142 -203.870131 
L 333.207964 -205.221559 
L 333.200632 -206.572987 
L 333.174063 -207.924416 
L 333.12697 -209.275844 
L 333.062445 -210.627272 
L 332.987307 -211.978701 
L 332.90989 -213.330129 
L 332.836576 -214.681558 
L 332.768337 -216.032986 
L 332.698953 -217.384414 
L 332.616017 -218.735843 
L 332.50456 -220.087271 
L 332.351841 -221.438699 
L 332.151136 -222.790128 
L 331.902685 -224.141556 
L 331.6115 -225.492984 
L 331.283885 -226.844413 
L 330.925504 -228.195841 
L 330.542231 -229.54727 
L 330.141694 -230.898698 
L 329.731744 -232.250126 
L 329.314577 -233.601555 
L 328.880172 -234.952983 
L 328.405501 -236.304411 
L 327.863023 -237.65584 
L 327.235109 -239.007268 
L 326.525408 -240.358696 
L 325.758303 -241.710125 
L 324.964097 -243.061553 
L 324.156905 -244.412982 
L 323.318687 -245.76441 
L 322.401542 -247.115838 
L 321.350632 -248.467267 
L 320.13696 -249.818695 
L 318.781296 -251.170123 
L 317.354135 -252.521552 
L 315.950616 -253.87298 
L 314.654646 -255.224408 
L 313.511886 -256.575837 
L 312.523279 -257.927265 
L 311.656819 -259.278694 
L 310.866852 -260.630122 
L 310.111591 -261.98155 
L 309.365414 -263.332979 
L 308.62551 -264.684407 
L 307.911562 -266.035835 
L 307.257059 -267.387264 
L 306.694975 -268.738692 
L 306.2461 -270.09012 
L 305.9188 -271.441549 
L 305.72121 -272.792977 
L 305.67586 -274.144406 
L 305.822634 -275.495834 
L 306.204344 -276.847262 
L 306.844027 -278.198691 
L 307.730731 -279.550119 
L 308.82361 -280.901547 
L 310.069246 -282.252976 
L 311.418832 -283.604404 
L 312.836522 -284.955833 
L 314.300461 -286.307261 
L 315.801877 -287.658689 
L 317.342997 -289.010118 
L 318.930249 -290.361546 
L 320.562329 -291.712974 
L 322.21975 -293.064403 
L 323.863665 -294.415831 
L 325.444642 -295.767259 
L 326.914453 -297.118688 
L 328.233898 -298.470116 
L 329.375836 -299.821545 
L 330.326848 -301.172973 
L 331.089233 -302.524401 
L 331.681006 -303.87583 
L 332.131206 -305.227258 
L 332.471511 -306.578686 
L 332.728543 -307.930115 
L 332.920753 -309.281543 
L 333.060108 -310.632971 
L 333.155782 -311.9844 
L 333.216796 -313.335828 
L 333.25247 -314.687257 
L 333.321339 -314.687257 
L 333.321339 -314.687257 
L 333.357013 -313.335828 
L 333.418027 -311.9844 
L 333.513701 -310.632971 
L 333.653056 -309.281543 
L 333.845266 -307.930115 
L 334.102299 -306.578686 
L 334.442603 -305.227258 
L 334.892803 -303.87583 
L 335.484576 -302.524401 
L 336.246961 -301.172973 
L 337.197974 -299.821545 
L 338.339911 -298.470116 
L 339.659356 -297.118688 
L 341.129167 -295.767259 
L 342.710144 -294.415831 
L 344.354059 -293.064403 
L 346.01148 -291.712974 
L 347.64356 -290.361546 
L 349.230812 -289.010118 
L 350.771932 -287.658689 
L 352.273348 -286.307261 
L 353.737287 -284.955833 
L 355.154977 -283.604404 
L 356.504563 -282.252976 
L 357.750199 -280.901547 
L 358.843078 -279.550119 
L 359.729783 -278.198691 
L 360.369465 -276.847262 
L 360.751175 -275.495834 
L 360.897949 -274.144406 
L 360.852599 -272.792977 
L 360.655009 -271.441549 
L 360.327709 -270.09012 
L 359.878834 -268.738692 
L 359.31675 -267.387264 
L 358.662248 -266.035835 
L 357.948299 -264.684407 
L 357.208395 -263.332979 
L 356.462218 -261.98155 
L 355.706957 -260.630122 
L 354.91699 -259.278694 
L 354.050531 -257.927265 
L 353.061923 -256.575837 
L 351.919163 -255.224408 
L 350.623193 -253.87298 
L 349.219674 -252.521552 
L 347.792513 -251.170123 
L 346.436849 -249.818695 
L 345.223177 -248.467267 
L 344.172267 -247.115838 
L 343.255123 -245.76441 
L 342.416904 -244.412982 
L 341.609712 -243.061553 
L 340.815506 -241.710125 
L 340.048401 -240.358696 
L 339.3387 -239.007268 
L 338.710786 -237.65584 
L 338.168308 -236.304411 
L 337.693637 -234.952983 
L 337.259232 -233.601555 
L 336.842065 -232.250126 
L 336.432116 -230.898698 
L 336.031578 -229.54727 
L 335.648305 -228.195841 
L 335.289924 -226.844413 
L 334.962309 -225.492984 
L 334.671124 -224.141556 
L 334.422673 -222.790128 
L 334.221968 -221.438699 
L 334.069249 -220.087271 
L 333.957792 -218.735843 
L 333.874856 -217.384414 
L 333.805472 -216.032986 
L 333.737233 -214.681558 
L 333.663919 -213.330129 
L 333.586502 -211.978701 
L 333.511364 -210.627272 
L 333.446839 -209.275844 
L 333.399747 -207.924416 
L 333.373177 -206.572987 
L 333.365845 -205.221559 
L 333.372668 -203.870131 
L 333.386196 -202.518702 
L 333.398721 -201.167274 
L 333.404684 -199.815846 
L 333.402551 -198.464417 
L 333.395091 -197.112989 
L 333.387636 -195.76156 
L 333.385042 -194.410132 
L 333.38894 -193.058704 
L 333.396792 -191.707275 
L 333.403246 -190.355847 
L 333.402987 -189.004419 
L 333.393415 -187.65299 
L 333.37569 -186.301562 
L 333.353769 -184.950133 
L 333.332286 -183.598705 
L 333.314634 -182.247277 
L 333.302151 -180.895848 
z
" style="stroke: #3f3f3f; stroke-width: 1.25"/>
    </defs>
    <g clip-path="url(#pabc1fb1d92)">
     <use xlink:href="#m55f419155a" x="0" y="345.6" style="fill: #3274a1; stroke: #3f3f3f; stroke-width: 1.25"/>
    </g>
   </g>
   <g id="PolyCollection_5">
    <defs>
     <path id="md3b27ec20e" d="M 412.974589 -54.928364 
L 412.946846 -54.928364 
L 412.935097 -56.825404 
L 412.916771 -58.722443 
L 412.8905 -60.619483 
L 412.855809 -62.516523 
L 412.81346 -64.413563 
L 412.765391 -66.310603 
L 412.714169 -68.207643 
L 412.662139 -70.104683 
L 412.610612 -72.001723 
L 412.559454 -73.898763 
L 412.507204 -75.795803 
L 412.451559 -77.692843 
L 412.389829 -79.589883 
L 412.31899 -81.486923 
L 412.235357 -83.383963 
L 412.134342 -85.281003 
L 412.010911 -87.178042 
L 411.860759 -89.075082 
L 411.681271 -90.972122 
L 411.470794 -92.869162 
L 411.225686 -94.766202 
L 410.936634 -96.663242 
L 410.587444 -98.560282 
L 410.158924 -100.457322 
L 409.637253 -102.354362 
L 409.022471 -104.251402 
L 408.33139 -106.148442 
L 407.592171 -108.045482 
L 406.833226 -109.942522 
L 406.073145 -111.839562 
L 405.317655 -113.736601 
L 404.564611 -115.633641 
L 403.812526 -117.530681 
L 403.066186 -119.427721 
L 402.335636 -121.324761 
L 401.629863 -123.221801 
L 400.95019 -125.118841 
L 400.288548 -127.015881 
L 399.632665 -128.912921 
L 398.975832 -130.809961 
L 398.325753 -132.707001 
L 397.70688 -134.604041 
L 397.154064 -136.501081 
L 396.700432 -138.398121 
L 396.366012 -140.295161 
L 396.153111 -142.1922 
L 396.050056 -144.08924 
L 396.039617 -145.98628 
L 396.105977 -147.88332 
L 396.236059 -149.78036 
L 396.415862 -151.6774 
L 396.626665 -153.57444 
L 396.84647 -155.47148 
L 397.058148 -157.36852 
L 397.26006 -159.26556 
L 397.471651 -161.1626 
L 397.72855 -163.05964 
L 398.068198 -164.95668 
L 398.513594 -166.85372 
L 399.064411 -168.750759 
L 399.700144 -170.647799 
L 400.392225 -172.544839 
L 401.116704 -174.441879 
L 401.859805 -176.338919 
L 402.614569 -178.235959 
L 403.373284 -180.132999 
L 404.122813 -182.030039 
L 404.846823 -183.927079 
L 405.533113 -185.824119 
L 406.180271 -187.721159 
L 406.798503 -189.618199 
L 407.403695 -191.515239 
L 408.008248 -193.412279 
L 408.61386 -195.309318 
L 409.209843 -197.206358 
L 409.777213 -199.103398 
L 410.296067 -201.000438 
L 410.752633 -202.897478 
L 411.143008 -204.794518 
L 411.472393 -206.691558 
L 411.750821 -208.588598 
L 411.987925 -210.485638 
L 412.189504 -212.382678 
L 412.357289 -214.279718 
L 412.491262 -216.176758 
L 412.592565 -218.073798 
L 412.665125 -219.970838 
L 412.715369 -221.867878 
L 412.750674 -223.764917 
L 412.777695 -225.661957 
L 412.801325 -227.558997 
L 412.824409 -229.456037 
L 412.847953 -231.353077 
L 412.871561 -233.250117 
L 412.894003 -235.147157 
L 412.913841 -237.044197 
L 412.929981 -238.941237 
L 412.942001 -240.838277 
L 412.950172 -242.735317 
L 412.971263 -242.735317 
L 412.971263 -242.735317 
L 412.979434 -240.838277 
L 412.991454 -238.941237 
L 413.007594 -237.044197 
L 413.027432 -235.147157 
L 413.049875 -233.250117 
L 413.073482 -231.353077 
L 413.097026 -229.456037 
L 413.120111 -227.558997 
L 413.143741 -225.661957 
L 413.170761 -223.764917 
L 413.206066 -221.867878 
L 413.25631 -219.970838 
L 413.32887 -218.073798 
L 413.430173 -216.176758 
L 413.564146 -214.279718 
L 413.731931 -212.382678 
L 413.933511 -210.485638 
L 414.170614 -208.588598 
L 414.449042 -206.691558 
L 414.778428 -204.794518 
L 415.168802 -202.897478 
L 415.625369 -201.000438 
L 416.144223 -199.103398 
L 416.711592 -197.206358 
L 417.307575 -195.309318 
L 417.913188 -193.412279 
L 418.51774 -191.515239 
L 419.122933 -189.618199 
L 419.741164 -187.721159 
L 420.388322 -185.824119 
L 421.074612 -183.927079 
L 421.798622 -182.030039 
L 422.548151 -180.132999 
L 423.306866 -178.235959 
L 424.061631 -176.338919 
L 424.804732 -174.441879 
L 425.52921 -172.544839 
L 426.221291 -170.647799 
L 426.857025 -168.750759 
L 427.407842 -166.85372 
L 427.853237 -164.95668 
L 428.192885 -163.05964 
L 428.449784 -161.1626 
L 428.661376 -159.26556 
L 428.863287 -157.36852 
L 429.074965 -155.47148 
L 429.294771 -153.57444 
L 429.505574 -151.6774 
L 429.685376 -149.78036 
L 429.815459 -147.88332 
L 429.881818 -145.98628 
L 429.871379 -144.08924 
L 429.768324 -142.1922 
L 429.555423 -140.295161 
L 429.221003 -138.398121 
L 428.767371 -136.501081 
L 428.214555 -134.604041 
L 427.595682 -132.707001 
L 426.945603 -130.809961 
L 426.288771 -128.912921 
L 425.632887 -127.015881 
L 424.971245 -125.118841 
L 424.291573 -123.221801 
L 423.5858 -121.324761 
L 422.85525 -119.427721 
L 422.10891 -117.530681 
L 421.356824 -115.633641 
L 420.60378 -113.736601 
L 419.84829 -111.839562 
L 419.088209 -109.942522 
L 418.329264 -108.045482 
L 417.590045 -106.148442 
L 416.898965 -104.251402 
L 416.284182 -102.354362 
L 415.762511 -100.457322 
L 415.333991 -98.560282 
L 414.984802 -96.663242 
L 414.695749 -94.766202 
L 414.450641 -92.869162 
L 414.240165 -90.972122 
L 414.060676 -89.075082 
L 413.910524 -87.178042 
L 413.787093 -85.281003 
L 413.686079 -83.383963 
L 413.602445 -81.486923 
L 413.531606 -79.589883 
L 413.469876 -77.692843 
L 413.414232 -75.795803 
L 413.361981 -73.898763 
L 413.310823 -72.001723 
L 413.259296 -70.104683 
L 413.207266 -68.207643 
L 413.156044 -66.310603 
L 413.107975 -64.413563 
L 413.065626 -62.516523 
L 413.030935 -60.619483 
L 413.004664 -58.722443 
L 412.986339 -56.825404 
L 412.974589 -54.928364 
z
" style="stroke: #3f3f3f; stroke-width: 1.25"/>
    </defs>
    <g clip-path="url(#pabc1fb1d92)">
     <use xlink:href="#md3b27ec20e" x="0" y="345.6" style="fill: #3274a1; stroke: #3f3f3f; stroke-width: 1.25"/>
    </g>
   </g>
   <g id="matplotlib.axis_1">
    <g id="xtick_1">
     <g id="line2d_1">
      <defs>
       <path id="m67405f231e" d="M 0 0 
L 0 3.5 
" style="stroke: #000000; stroke-width: 0.8"/>
      </defs>
      <g>
       <use xlink:href="#m67405f231e" x="94.265465" y="303.896" style="stroke: #000000; stroke-width: 0.8"/>
      </g>
     </g>
     <g id="text_1">
      <!-- Fluency -->
      <g transform="translate(74.877965 318.494438) scale(0.1 -0.1)">
       <defs>
        <path id="DejaVuSans-46" d="M 628 4666 
L 3309 4666 
L 3309 4134 
L 1259 4134 
L 1259 2759 
L 3109 2759 
L 3109 2228 
L 1259 2228 
L 1259 0 
L 628 0 
L 628 4666 
z
" transform="scale(0.015625)"/>
        <path id="DejaVuSans-6c" d="M 603 4863 
L 1178 4863 
L 1178 0 
L 603 0 
L 603 4863 
z
" transform="scale(0.015625)"/>
        <path id="DejaVuSans-75" d="M 544 1381 
L 544 3500 
L 1119 3500 
L 1119 1403 
Q 1119 906 1312 657 
Q 1506 409 1894 409 
Q 2359 409 2629 706 
Q 2900 1003 2900 1516 
L 2900 3500 
L 3475 3500 
L 3475 0 
L 2900 0 
L 2900 538 
Q 2691 219 2414 64 
Q 2138 -91 1772 -91 
Q 1169 -91 856 284 
Q 544 659 544 1381 
z
M 1991 3584 
L 1991 3584 
z
" transform="scale(0.015625)"/>
        <path id="DejaVuSans-65" d="M 3597 1894 
L 3597 1613 
L 953 1613 
Q 991 1019 1311 708 
Q 1631 397 2203 397 
Q 2534 397 2845 478 
Q 3156 559 3463 722 
L 3463 178 
Q 3153 47 2828 -22 
Q 2503 -91 2169 -91 
Q 1331 -91 842 396 
Q 353 884 353 1716 
Q 353 2575 817 3079 
Q 1281 3584 2069 3584 
Q 2775 3584 3186 3129 
Q 3597 2675 3597 1894 
z
M 3022 2063 
Q 3016 2534 2758 2815 
Q 2500 3097 2075 3097 
Q 1594 3097 1305 2825 
Q 1016 2553 972 2059 
L 3022 2063 
z
" transform="scale(0.015625)"/>
        <path id="DejaVuSans-6e" d="M 3513 2113 
L 3513 0 
L 2938 0 
L 2938 2094 
Q 2938 2591 2744 2837 
Q 2550 3084 2163 3084 
Q 1697 3084 1428 2787 
Q 1159 2491 1159 1978 
L 1159 0 
L 581 0 
L 581 3500 
L 1159 3500 
L 1159 2956 
Q 1366 3272 1645 3428 
Q 1925 3584 2291 3584 
Q 2894 3584 3203 3211 
Q 3513 2838 3513 2113 
z
" transform="scale(0.015625)"/>
        <path id="DejaVuSans-63" d="M 3122 3366 
L 3122 2828 
Q 2878 2963 2633 3030 
Q 2388 3097 2138 3097 
Q 1578 3097 1268 2742 
Q 959 2388 959 1747 
Q 959 1106 1268 751 
Q 1578 397 2138 397 
Q 2388 397 2633 464 
Q 2878 531 3122 666 
L 3122 134 
Q 2881 22 2623 -34 
Q 2366 -91 2075 -91 
Q 1284 -91 818 406 
Q 353 903 353 1747 
Q 353 2603 823 3093 
Q 1294 3584 2113 3584 
Q 2378 3584 2631 3529 
Q 2884 3475 3122 3366 
z
" transform="scale(0.015625)"/>
        <path id="DejaVuSans-79" d="M 2059 -325 
Q 1816 -950 1584 -1140 
Q 1353 -1331 966 -1331 
L 506 -1331 
L 506 -850 
L 844 -850 
Q 1081 -850 1212 -737 
Q 1344 -625 1503 -206 
L 1606 56 
L 191 3500 
L 800 3500 
L 1894 763 
L 2988 3500 
L 3597 3500 
L 2059 -325 
z
" transform="scale(0.015625)"/>
       </defs>
       <use xlink:href="#DejaVuSans-46"/>
       <use xlink:href="#DejaVuSans-6c" x="57.519531"/>
       <use xlink:href="#DejaVuSans-75" x="85.302734"/>
       <use xlink:href="#DejaVuSans-65" x="148.681641"/>
       <use xlink:href="#DejaVuSans-6e" x="210.205078"/>
       <use xlink:href="#DejaVuSans-63" x="273.583984"/>
       <use xlink:href="#DejaVuSans-79" x="328.564453"/>
      </g>
      <!--  classifier -->
      <g transform="translate(70.594372 329.69225) scale(0.1 -0.1)">
       <defs>
        <path id="DejaVuSans-20" transform="scale(0.015625)"/>
        <path id="DejaVuSans-61" d="M 2194 1759 
Q 1497 1759 1228 1600 
Q 959 1441 959 1056 
Q 959 750 1161 570 
Q 1363 391 1709 391 
Q 2188 391 2477 730 
Q 2766 1069 2766 1631 
L 2766 1759 
L 2194 1759 
z
M 3341 1997 
L 3341 0 
L 2766 0 
L 2766 531 
Q 2569 213 2275 61 
Q 1981 -91 1556 -91 
Q 1019 -91 701 211 
Q 384 513 384 1019 
Q 384 1609 779 1909 
Q 1175 2209 1959 2209 
L 2766 2209 
L 2766 2266 
Q 2766 2663 2505 2880 
Q 2244 3097 1772 3097 
Q 1472 3097 1187 3025 
Q 903 2953 641 2809 
L 641 3341 
Q 956 3463 1253 3523 
Q 1550 3584 1831 3584 
Q 2591 3584 2966 3190 
Q 3341 2797 3341 1997 
z
" transform="scale(0.015625)"/>
        <path id="DejaVuSans-73" d="M 2834 3397 
L 2834 2853 
Q 2591 2978 2328 3040 
Q 2066 3103 1784 3103 
Q 1356 3103 1142 2972 
Q 928 2841 928 2578 
Q 928 2378 1081 2264 
Q 1234 2150 1697 2047 
L 1894 2003 
Q 2506 1872 2764 1633 
Q 3022 1394 3022 966 
Q 3022 478 2636 193 
Q 2250 -91 1575 -91 
Q 1294 -91 989 -36 
Q 684 19 347 128 
L 347 722 
Q 666 556 975 473 
Q 1284 391 1588 391 
Q 1994 391 2212 530 
Q 2431 669 2431 922 
Q 2431 1156 2273 1281 
Q 2116 1406 1581 1522 
L 1381 1569 
Q 847 1681 609 1914 
Q 372 2147 372 2553 
Q 372 3047 722 3315 
Q 1072 3584 1716 3584 
Q 2034 3584 2315 3537 
Q 2597 3491 2834 3397 
z
" transform="scale(0.015625)"/>
        <path id="DejaVuSans-69" d="M 603 3500 
L 1178 3500 
L 1178 0 
L 603 0 
L 603 3500 
z
M 603 4863 
L 1178 4863 
L 1178 4134 
L 603 4134 
L 603 4863 
z
" transform="scale(0.015625)"/>
        <path id="DejaVuSans-66" d="M 2375 4863 
L 2375 4384 
L 1825 4384 
Q 1516 4384 1395 4259 
Q 1275 4134 1275 3809 
L 1275 3500 
L 2222 3500 
L 2222 3053 
L 1275 3053 
L 1275 0 
L 697 0 
L 697 3053 
L 147 3053 
L 147 3500 
L 697 3500 
L 697 3744 
Q 697 4328 969 4595 
Q 1241 4863 1831 4863 
L 2375 4863 
z
" transform="scale(0.015625)"/>
        <path id="DejaVuSans-72" d="M 2631 2963 
Q 2534 3019 2420 3045 
Q 2306 3072 2169 3072 
Q 1681 3072 1420 2755 
Q 1159 2438 1159 1844 
L 1159 0 
L 581 0 
L 581 3500 
L 1159 3500 
L 1159 2956 
Q 1341 3275 1631 3429 
Q 1922 3584 2338 3584 
Q 2397 3584 2469 3576 
Q 2541 3569 2628 3553 
L 2631 2963 
z
" transform="scale(0.015625)"/>
       </defs>
       <use xlink:href="#DejaVuSans-20"/>
       <use xlink:href="#DejaVuSans-63" x="31.787109"/>
       <use xlink:href="#DejaVuSans-6c" x="86.767578"/>
       <use xlink:href="#DejaVuSans-61" x="114.550781"/>
       <use xlink:href="#DejaVuSans-73" x="175.830078"/>
       <use xlink:href="#DejaVuSans-73" x="227.929688"/>
       <use xlink:href="#DejaVuSans-69" x="280.029297"/>
       <use xlink:href="#DejaVuSans-66" x="307.8125"/>
       <use xlink:href="#DejaVuSans-69" x="343.017578"/>
       <use xlink:href="#DejaVuSans-65" x="370.800781"/>
       <use xlink:href="#DejaVuSans-72" x="432.324219"/>
      </g>
     </g>
    </g>
    <g id="xtick_2">
     <g id="line2d_2">
      <g>
       <use xlink:href="#m67405f231e" x="173.939278" y="303.896" style="stroke: #000000; stroke-width: 0.8"/>
      </g>
     </g>
     <g id="text_2">
      <!-- Screening -->
      <g transform="translate(149.018966 318.494438) scale(0.1 -0.1)">
       <defs>
        <path id="DejaVuSans-53" d="M 3425 4513 
L 3425 3897 
Q 3066 4069 2747 4153 
Q 2428 4238 2131 4238 
Q 1616 4238 1336 4038 
Q 1056 3838 1056 3469 
Q 1056 3159 1242 3001 
Q 1428 2844 1947 2747 
L 2328 2669 
Q 3034 2534 3370 2195 
Q 3706 1856 3706 1288 
Q 3706 609 3251 259 
Q 2797 -91 1919 -91 
Q 1588 -91 1214 -16 
Q 841 59 441 206 
L 441 856 
Q 825 641 1194 531 
Q 1563 422 1919 422 
Q 2459 422 2753 634 
Q 3047 847 3047 1241 
Q 3047 1584 2836 1778 
Q 2625 1972 2144 2069 
L 1759 2144 
Q 1053 2284 737 2584 
Q 422 2884 422 3419 
Q 422 4038 858 4394 
Q 1294 4750 2059 4750 
Q 2388 4750 2728 4690 
Q 3069 4631 3425 4513 
z
" transform="scale(0.015625)"/>
        <path id="DejaVuSans-67" d="M 2906 1791 
Q 2906 2416 2648 2759 
Q 2391 3103 1925 3103 
Q 1463 3103 1205 2759 
Q 947 2416 947 1791 
Q 947 1169 1205 825 
Q 1463 481 1925 481 
Q 2391 481 2648 825 
Q 2906 1169 2906 1791 
z
M 3481 434 
Q 3481 -459 3084 -895 
Q 2688 -1331 1869 -1331 
Q 1566 -1331 1297 -1286 
Q 1028 -1241 775 -1147 
L 775 -588 
Q 1028 -725 1275 -790 
Q 1522 -856 1778 -856 
Q 2344 -856 2625 -561 
Q 2906 -266 2906 331 
L 2906 616 
Q 2728 306 2450 153 
Q 2172 0 1784 0 
Q 1141 0 747 490 
Q 353 981 353 1791 
Q 353 2603 747 3093 
Q 1141 3584 1784 3584 
Q 2172 3584 2450 3431 
Q 2728 3278 2906 2969 
L 2906 3500 
L 3481 3500 
L 3481 434 
z
" transform="scale(0.015625)"/>
       </defs>
       <use xlink:href="#DejaVuSans-53"/>
       <use xlink:href="#DejaVuSans-63" x="63.476562"/>
       <use xlink:href="#DejaVuSans-72" x="118.457031"/>
       <use xlink:href="#DejaVuSans-65" x="157.320312"/>
       <use xlink:href="#DejaVuSans-65" x="218.84375"/>
       <use xlink:href="#DejaVuSans-6e" x="280.367188"/>
       <use xlink:href="#DejaVuSans-69" x="343.746094"/>
       <use xlink:href="#DejaVuSans-6e" x="371.529297"/>
       <use xlink:href="#DejaVuSans-67" x="434.908203"/>
      </g>
      <!--  classifier -->
      <g transform="translate(150.268185 329.69225) scale(0.1 -0.1)">
       <use xlink:href="#DejaVuSans-20"/>
       <use xlink:href="#DejaVuSans-63" x="31.787109"/>
       <use xlink:href="#DejaVuSans-6c" x="86.767578"/>
       <use xlink:href="#DejaVuSans-61" x="114.550781"/>
       <use xlink:href="#DejaVuSans-73" x="175.830078"/>
       <use xlink:href="#DejaVuSans-73" x="227.929688"/>
       <use xlink:href="#DejaVuSans-69" x="280.029297"/>
       <use xlink:href="#DejaVuSans-66" x="307.8125"/>
       <use xlink:href="#DejaVuSans-69" x="343.017578"/>
       <use xlink:href="#DejaVuSans-65" x="370.800781"/>
       <use xlink:href="#DejaVuSans-72" x="432.324219"/>
      </g>
     </g>
    </g>
    <g id="xtick_3">
     <g id="line2d_3">
      <g>
       <use xlink:href="#m67405f231e" x="253.613091" y="303.896" style="stroke: #000000; stroke-width: 0.8"/>
      </g>
     </g>
     <g id="text_3">
      <!-- Executive -->
      <g transform="translate(229.270904 318.494438) scale(0.1 -0.1)">
       <defs>
        <path id="DejaVuSans-45" d="M 628 4666 
L 3578 4666 
L 3578 4134 
L 1259 4134 
L 1259 2753 
L 3481 2753 
L 3481 2222 
L 1259 2222 
L 1259 531 
L 3634 531 
L 3634 0 
L 628 0 
L 628 4666 
z
" transform="scale(0.015625)"/>
        <path id="DejaVuSans-78" d="M 3513 3500 
L 2247 1797 
L 3578 0 
L 2900 0 
L 1881 1375 
L 863 0 
L 184 0 
L 1544 1831 
L 300 3500 
L 978 3500 
L 1906 2253 
L 2834 3500 
L 3513 3500 
z
" transform="scale(0.015625)"/>
        <path id="DejaVuSans-74" d="M 1172 4494 
L 1172 3500 
L 2356 3500 
L 2356 3053 
L 1172 3053 
L 1172 1153 
Q 1172 725 1289 603 
Q 1406 481 1766 481 
L 2356 481 
L 2356 0 
L 1766 0 
Q 1100 0 847 248 
Q 594 497 594 1153 
L 594 3053 
L 172 3053 
L 172 3500 
L 594 3500 
L 594 4494 
L 1172 4494 
z
" transform="scale(0.015625)"/>
        <path id="DejaVuSans-76" d="M 191 3500 
L 800 3500 
L 1894 563 
L 2988 3500 
L 3597 3500 
L 2284 0 
L 1503 0 
L 191 3500 
z
" transform="scale(0.015625)"/>
       </defs>
       <use xlink:href="#DejaVuSans-45"/>
       <use xlink:href="#DejaVuSans-78" x="63.183594"/>
       <use xlink:href="#DejaVuSans-65" x="119.238281"/>
       <use xlink:href="#DejaVuSans-63" x="180.761719"/>
       <use xlink:href="#DejaVuSans-75" x="235.742188"/>
       <use xlink:href="#DejaVuSans-74" x="299.121094"/>
       <use xlink:href="#DejaVuSans-69" x="338.330078"/>
       <use xlink:href="#DejaVuSans-76" x="366.113281"/>
       <use xlink:href="#DejaVuSans-65" x="425.292969"/>
      </g>
      <!--  classifier -->
      <g transform="translate(229.941998 329.69225) scale(0.1 -0.1)">
       <use xlink:href="#DejaVuSans-20"/>
       <use xlink:href="#DejaVuSans-63" x="31.787109"/>
       <use xlink:href="#DejaVuSans-6c" x="86.767578"/>
       <use xlink:href="#DejaVuSans-61" x="114.550781"/>
       <use xlink:href="#DejaVuSans-73" x="175.830078"/>
       <use xlink:href="#DejaVuSans-73" x="227.929688"/>
       <use xlink:href="#DejaVuSans-69" x="280.029297"/>
       <use xlink:href="#DejaVuSans-66" x="307.8125"/>
       <use xlink:href="#DejaVuSans-69" x="343.017578"/>
       <use xlink:href="#DejaVuSans-65" x="370.800781"/>
       <use xlink:href="#DejaVuSans-72" x="432.324219"/>
      </g>
     </g>
    </g>
    <g id="xtick_4">
     <g id="line2d_4">
      <g>
       <use xlink:href="#m67405f231e" x="333.286905" y="303.896" style="stroke: #000000; stroke-width: 0.8"/>
      </g>
     </g>
     <g id="text_4">
      <!-- Structural -->
      <g transform="translate(308.541592 318.494438) scale(0.1 -0.1)">
       <use xlink:href="#DejaVuSans-53"/>
       <use xlink:href="#DejaVuSans-74" x="63.476562"/>
       <use xlink:href="#DejaVuSans-72" x="102.685547"/>
       <use xlink:href="#DejaVuSans-75" x="143.798828"/>
       <use xlink:href="#DejaVuSans-63" x="207.177734"/>
       <use xlink:href="#DejaVuSans-74" x="262.158203"/>
       <use xlink:href="#DejaVuSans-75" x="301.367188"/>
       <use xlink:href="#DejaVuSans-72" x="364.746094"/>
       <use xlink:href="#DejaVuSans-61" x="405.859375"/>
       <use xlink:href="#DejaVuSans-6c" x="467.138672"/>
      </g>
      <!--  classifier -->
      <g transform="translate(309.615811 329.69225) scale(0.1 -0.1)">
       <use xlink:href="#DejaVuSans-20"/>
       <use xlink:href="#DejaVuSans-63" x="31.787109"/>
       <use xlink:href="#DejaVuSans-6c" x="86.767578"/>
       <use xlink:href="#DejaVuSans-61" x="114.550781"/>
       <use xlink:href="#DejaVuSans-73" x="175.830078"/>
       <use xlink:href="#DejaVuSans-73" x="227.929688"/>
       <use xlink:href="#DejaVuSans-69" x="280.029297"/>
       <use xlink:href="#DejaVuSans-66" x="307.8125"/>
       <use xlink:href="#DejaVuSans-69" x="343.017578"/>
       <use xlink:href="#DejaVuSans-65" x="370.800781"/>
       <use xlink:href="#DejaVuSans-72" x="432.324219"/>
      </g>
     </g>
    </g>
    <g id="xtick_5">
     <g id="line2d_5">
      <g>
       <use xlink:href="#m67405f231e" x="412.960718" y="303.896" style="stroke: #000000; stroke-width: 0.8"/>
      </g>
     </g>
     <g id="text_5">
      <!-- Functional -->
      <g transform="translate(387.242749 318.494438) scale(0.1 -0.1)">
       <defs>
        <path id="DejaVuSans-6f" d="M 1959 3097 
Q 1497 3097 1228 2736 
Q 959 2375 959 1747 
Q 959 1119 1226 758 
Q 1494 397 1959 397 
Q 2419 397 2687 759 
Q 2956 1122 2956 1747 
Q 2956 2369 2687 2733 
Q 2419 3097 1959 3097 
z
M 1959 3584 
Q 2709 3584 3137 3096 
Q 3566 2609 3566 1747 
Q 3566 888 3137 398 
Q 2709 -91 1959 -91 
Q 1206 -91 779 398 
Q 353 888 353 1747 
Q 353 2609 779 3096 
Q 1206 3584 1959 3584 
z
" transform="scale(0.015625)"/>
       </defs>
       <use xlink:href="#DejaVuSans-46"/>
       <use xlink:href="#DejaVuSans-75" x="52.019531"/>
       <use xlink:href="#DejaVuSans-6e" x="115.398438"/>
       <use xlink:href="#DejaVuSans-63" x="178.777344"/>
       <use xlink:href="#DejaVuSans-74" x="233.757812"/>
       <use xlink:href="#DejaVuSans-69" x="272.966797"/>
       <use xlink:href="#DejaVuSans-6f" x="300.75"/>
       <use xlink:href="#DejaVuSans-6e" x="361.931641"/>
       <use xlink:href="#DejaVuSans-61" x="425.310547"/>
       <use xlink:href="#DejaVuSans-6c" x="486.589844"/>
      </g>
      <!--  classifier -->
      <g transform="translate(389.289624 329.69225) scale(0.1 -0.1)">
       <use xlink:href="#DejaVuSans-20"/>
       <use xlink:href="#DejaVuSans-63" x="31.787109"/>
       <use xlink:href="#DejaVuSans-6c" x="86.767578"/>
       <use xlink:href="#DejaVuSans-61" x="114.550781"/>
       <use xlink:href="#DejaVuSans-73" x="175.830078"/>
       <use xlink:href="#DejaVuSans-73" x="227.929688"/>
       <use xlink:href="#DejaVuSans-69" x="280.029297"/>
       <use xlink:href="#DejaVuSans-66" x="307.8125"/>
       <use xlink:href="#DejaVuSans-69" x="343.017578"/>
       <use xlink:href="#DejaVuSans-65" x="370.800781"/>
       <use xlink:href="#DejaVuSans-72" x="432.324219"/>
      </g>
     </g>
    </g>
   </g>
   <g id="matplotlib.axis_2">
    <g id="ytick_1">
     <g id="line2d_6">
      <defs>
       <path id="m7a22121f05" d="M 0 0 
L -3.5 0 
" style="stroke: #000000; stroke-width: 0.8"/>
      </defs>
      <g>
       <use xlink:href="#m7a22121f05" x="52.76" y="264.024625" style="stroke: #000000; stroke-width: 0.8"/>
      </g>
     </g>
     <g id="text_6">
      <!-- 0.5 -->
      <g transform="translate(29.856875 267.823844) scale(0.1 -0.1)">
       <defs>
        <path id="DejaVuSans-30" d="M 2034 4250 
Q 1547 4250 1301 3770 
Q 1056 3291 1056 2328 
Q 1056 1369 1301 889 
Q 1547 409 2034 409 
Q 2525 409 2770 889 
Q 3016 1369 3016 2328 
Q 3016 3291 2770 3770 
Q 2525 4250 2034 4250 
z
M 2034 4750 
Q 2819 4750 3233 4129 
Q 3647 3509 3647 2328 
Q 3647 1150 3233 529 
Q 2819 -91 2034 -91 
Q 1250 -91 836 529 
Q 422 1150 422 2328 
Q 422 3509 836 4129 
Q 1250 4750 2034 4750 
z
" transform="scale(0.015625)"/>
        <path id="DejaVuSans-2e" d="M 684 794 
L 1344 794 
L 1344 0 
L 684 0 
L 684 794 
z
" transform="scale(0.015625)"/>
        <path id="DejaVuSans-35" d="M 691 4666 
L 3169 4666 
L 3169 4134 
L 1269 4134 
L 1269 2991 
Q 1406 3038 1543 3061 
Q 1681 3084 1819 3084 
Q 2600 3084 3056 2656 
Q 3513 2228 3513 1497 
Q 3513 744 3044 326 
Q 2575 -91 1722 -91 
Q 1428 -91 1123 -41 
Q 819 9 494 109 
L 494 744 
Q 775 591 1075 516 
Q 1375 441 1709 441 
Q 2250 441 2565 725 
Q 2881 1009 2881 1497 
Q 2881 1984 2565 2268 
Q 2250 2553 1709 2553 
Q 1456 2553 1204 2497 
Q 953 2441 691 2322 
L 691 4666 
z
" transform="scale(0.015625)"/>
       </defs>
       <use xlink:href="#DejaVuSans-30"/>
       <use xlink:href="#DejaVuSans-2e" x="63.623047"/>
       <use xlink:href="#DejaVuSans-35" x="95.410156"/>
      </g>
     </g>
    </g>
    <g id="ytick_2">
     <g id="line2d_7">
      <g>
       <use xlink:href="#m7a22121f05" x="52.76" y="216.886793" style="stroke: #000000; stroke-width: 0.8"/>
      </g>
     </g>
     <g id="text_7">
      <!-- 0.6 -->
      <g transform="translate(29.856875 220.686011) scale(0.1 -0.1)">
       <defs>
        <path id="DejaVuSans-36" d="M 2113 2584 
Q 1688 2584 1439 2293 
Q 1191 2003 1191 1497 
Q 1191 994 1439 701 
Q 1688 409 2113 409 
Q 2538 409 2786 701 
Q 3034 994 3034 1497 
Q 3034 2003 2786 2293 
Q 2538 2584 2113 2584 
z
M 3366 4563 
L 3366 3988 
Q 3128 4100 2886 4159 
Q 2644 4219 2406 4219 
Q 1781 4219 1451 3797 
Q 1122 3375 1075 2522 
Q 1259 2794 1537 2939 
Q 1816 3084 2150 3084 
Q 2853 3084 3261 2657 
Q 3669 2231 3669 1497 
Q 3669 778 3244 343 
Q 2819 -91 2113 -91 
Q 1303 -91 875 529 
Q 447 1150 447 2328 
Q 447 3434 972 4092 
Q 1497 4750 2381 4750 
Q 2619 4750 2861 4703 
Q 3103 4656 3366 4563 
z
" transform="scale(0.015625)"/>
       </defs>
       <use xlink:href="#DejaVuSans-30"/>
       <use xlink:href="#DejaVuSans-2e" x="63.623047"/>
       <use xlink:href="#DejaVuSans-36" x="95.410156"/>
      </g>
     </g>
    </g>
    <g id="ytick_3">
     <g id="line2d_8">
      <g>
       <use xlink:href="#m7a22121f05" x="52.76" y="169.74896" style="stroke: #000000; stroke-width: 0.8"/>
      </g>
     </g>
     <g id="text_8">
      <!-- 0.7 -->
      <g transform="translate(29.856875 173.548179) scale(0.1 -0.1)">
       <defs>
        <path id="DejaVuSans-37" d="M 525 4666 
L 3525 4666 
L 3525 4397 
L 1831 0 
L 1172 0 
L 2766 4134 
L 525 4134 
L 525 4666 
z
" transform="scale(0.015625)"/>
       </defs>
       <use xlink:href="#DejaVuSans-30"/>
       <use xlink:href="#DejaVuSans-2e" x="63.623047"/>
       <use xlink:href="#DejaVuSans-37" x="95.410156"/>
      </g>
     </g>
    </g>
    <g id="ytick_4">
     <g id="line2d_9">
      <g>
       <use xlink:href="#m7a22121f05" x="52.76" y="122.611128" style="stroke: #000000; stroke-width: 0.8"/>
      </g>
     </g>
     <g id="text_9">
      <!-- 0.8 -->
      <g transform="translate(29.856875 126.410347) scale(0.1 -0.1)">
       <defs>
        <path id="DejaVuSans-38" d="M 2034 2216 
Q 1584 2216 1326 1975 
Q 1069 1734 1069 1313 
Q 1069 891 1326 650 
Q 1584 409 2034 409 
Q 2484 409 2743 651 
Q 3003 894 3003 1313 
Q 3003 1734 2745 1975 
Q 2488 2216 2034 2216 
z
M 1403 2484 
Q 997 2584 770 2862 
Q 544 3141 544 3541 
Q 544 4100 942 4425 
Q 1341 4750 2034 4750 
Q 2731 4750 3128 4425 
Q 3525 4100 3525 3541 
Q 3525 3141 3298 2862 
Q 3072 2584 2669 2484 
Q 3125 2378 3379 2068 
Q 3634 1759 3634 1313 
Q 3634 634 3220 271 
Q 2806 -91 2034 -91 
Q 1263 -91 848 271 
Q 434 634 434 1313 
Q 434 1759 690 2068 
Q 947 2378 1403 2484 
z
M 1172 3481 
Q 1172 3119 1398 2916 
Q 1625 2713 2034 2713 
Q 2441 2713 2670 2916 
Q 2900 3119 2900 3481 
Q 2900 3844 2670 4047 
Q 2441 4250 2034 4250 
Q 1625 4250 1398 4047 
Q 1172 3844 1172 3481 
z
" transform="scale(0.015625)"/>
       </defs>
       <use xlink:href="#DejaVuSans-30"/>
       <use xlink:href="#DejaVuSans-2e" x="63.623047"/>
       <use xlink:href="#DejaVuSans-38" x="95.410156"/>
      </g>
     </g>
    </g>
    <g id="ytick_5">
     <g id="line2d_10">
      <g>
       <use xlink:href="#m7a22121f05" x="52.76" y="75.473296" style="stroke: #000000; stroke-width: 0.8"/>
      </g>
     </g>
     <g id="text_10">
      <!-- 0.9 -->
      <g transform="translate(29.856875 79.272514) scale(0.1 -0.1)">
       <defs>
        <path id="DejaVuSans-39" d="M 703 97 
L 703 672 
Q 941 559 1184 500 
Q 1428 441 1663 441 
Q 2288 441 2617 861 
Q 2947 1281 2994 2138 
Q 2813 1869 2534 1725 
Q 2256 1581 1919 1581 
Q 1219 1581 811 2004 
Q 403 2428 403 3163 
Q 403 3881 828 4315 
Q 1253 4750 1959 4750 
Q 2769 4750 3195 4129 
Q 3622 3509 3622 2328 
Q 3622 1225 3098 567 
Q 2575 -91 1691 -91 
Q 1453 -91 1209 -44 
Q 966 3 703 97 
z
M 1959 2075 
Q 2384 2075 2632 2365 
Q 2881 2656 2881 3163 
Q 2881 3666 2632 3958 
Q 2384 4250 1959 4250 
Q 1534 4250 1286 3958 
Q 1038 3666 1038 3163 
Q 1038 2656 1286 2365 
Q 1534 2075 1959 2075 
z
" transform="scale(0.015625)"/>
       </defs>
       <use xlink:href="#DejaVuSans-30"/>
       <use xlink:href="#DejaVuSans-2e" x="63.623047"/>
       <use xlink:href="#DejaVuSans-39" x="95.410156"/>
      </g>
     </g>
    </g>
    <g id="ytick_6">
     <g id="line2d_11">
      <g>
       <use xlink:href="#m7a22121f05" x="52.76" y="28.335463" style="stroke: #000000; stroke-width: 0.8"/>
      </g>
     </g>
     <g id="text_11">
      <!-- 1.0 -->
      <g transform="translate(29.856875 32.134682) scale(0.1 -0.1)">
       <defs>
        <path id="DejaVuSans-31" d="M 794 531 
L 1825 531 
L 1825 4091 
L 703 3866 
L 703 4441 
L 1819 4666 
L 2450 4666 
L 2450 531 
L 3481 531 
L 3481 0 
L 794 0 
L 794 531 
z
" transform="scale(0.015625)"/>
       </defs>
       <use xlink:href="#DejaVuSans-31"/>
       <use xlink:href="#DejaVuSans-2e" x="63.623047"/>
       <use xlink:href="#DejaVuSans-30" x="95.410156"/>
      </g>
     </g>
    </g>
    <g id="text_12">
     <!-- ROC AUC -->
     <g transform="translate(23.36125 186.102062) rotate(-90) scale(0.12 -0.12)">
      <defs>
       <path id="DejaVuSans-52" d="M 2841 2188 
Q 3044 2119 3236 1894 
Q 3428 1669 3622 1275 
L 4263 0 
L 3584 0 
L 2988 1197 
Q 2756 1666 2539 1819 
Q 2322 1972 1947 1972 
L 1259 1972 
L 1259 0 
L 628 0 
L 628 4666 
L 2053 4666 
Q 2853 4666 3247 4331 
Q 3641 3997 3641 3322 
Q 3641 2881 3436 2590 
Q 3231 2300 2841 2188 
z
M 1259 4147 
L 1259 2491 
L 2053 2491 
Q 2509 2491 2742 2702 
Q 2975 2913 2975 3322 
Q 2975 3731 2742 3939 
Q 2509 4147 2053 4147 
L 1259 4147 
z
" transform="scale(0.015625)"/>
       <path id="DejaVuSans-4f" d="M 2522 4238 
Q 1834 4238 1429 3725 
Q 1025 3213 1025 2328 
Q 1025 1447 1429 934 
Q 1834 422 2522 422 
Q 3209 422 3611 934 
Q 4013 1447 4013 2328 
Q 4013 3213 3611 3725 
Q 3209 4238 2522 4238 
z
M 2522 4750 
Q 3503 4750 4090 4092 
Q 4678 3434 4678 2328 
Q 4678 1225 4090 567 
Q 3503 -91 2522 -91 
Q 1538 -91 948 565 
Q 359 1222 359 2328 
Q 359 3434 948 4092 
Q 1538 4750 2522 4750 
z
" transform="scale(0.015625)"/>
       <path id="DejaVuSans-43" d="M 4122 4306 
L 4122 3641 
Q 3803 3938 3442 4084 
Q 3081 4231 2675 4231 
Q 1875 4231 1450 3742 
Q 1025 3253 1025 2328 
Q 1025 1406 1450 917 
Q 1875 428 2675 428 
Q 3081 428 3442 575 
Q 3803 722 4122 1019 
L 4122 359 
Q 3791 134 3420 21 
Q 3050 -91 2638 -91 
Q 1578 -91 968 557 
Q 359 1206 359 2328 
Q 359 3453 968 4101 
Q 1578 4750 2638 4750 
Q 3056 4750 3426 4639 
Q 3797 4528 4122 4306 
z
" transform="scale(0.015625)"/>
       <path id="DejaVuSans-41" d="M 2188 4044 
L 1331 1722 
L 3047 1722 
L 2188 4044 
z
M 1831 4666 
L 2547 4666 
L 4325 0 
L 3669 0 
L 3244 1197 
L 1141 1197 
L 716 0 
L 50 0 
L 1831 4666 
z
" transform="scale(0.015625)"/>
       <path id="DejaVuSans-55" d="M 556 4666 
L 1191 4666 
L 1191 1831 
Q 1191 1081 1462 751 
Q 1734 422 2344 422 
Q 2950 422 3222 751 
Q 3494 1081 3494 1831 
L 3494 4666 
L 4128 4666 
L 4128 1753 
Q 4128 841 3676 375 
Q 3225 -91 2344 -91 
Q 1459 -91 1007 375 
Q 556 841 556 1753 
L 556 4666 
z
" transform="scale(0.015625)"/>
      </defs>
      <use xlink:href="#DejaVuSans-52"/>
      <use xlink:href="#DejaVuSans-4f" x="69.482422"/>
      <use xlink:href="#DejaVuSans-43" x="148.193359"/>
      <use xlink:href="#DejaVuSans-20" x="218.017578"/>
      <use xlink:href="#DejaVuSans-41" x="249.804688"/>
      <use xlink:href="#DejaVuSans-55" x="318.212891"/>
      <use xlink:href="#DejaVuSans-43" x="391.40625"/>
     </g>
    </g>
   </g>
   <g id="LineCollection_1">
    <path d="M 94.265465 154.678995 
L 94.265465 75.642992 
" clip-path="url(#pabc1fb1d92)" style="fill: none; stroke: #000000; stroke-width: 1.5"/>
    <path d="M 173.939278 106.343862 
L 173.939278 51.498994 
" clip-path="url(#pabc1fb1d92)" style="fill: none; stroke: #000000; stroke-width: 1.5"/>
    <path d="M 253.613091 177.394717 
L 253.613091 89.812624 
" clip-path="url(#pabc1fb1d92)" style="fill: none; stroke: #000000; stroke-width: 1.5"/>
    <path d="M 333.286905 118.161317 
L 333.286905 52.394613 
" clip-path="url(#pabc1fb1d92)" style="fill: none; stroke: #000000; stroke-width: 1.5"/>
    <path d="M 412.960718 246.013259 
L 412.960718 148.13155 
" clip-path="url(#pabc1fb1d92)" style="fill: none; stroke: #000000; stroke-width: 1.5"/>
   </g>
   <g id="line2d_12">
    <defs>
     <path id="mbbeb02e52c" d="M 5 0 
L -5 -0 
" style="stroke: #000000"/>
    </defs>
    <g clip-path="url(#pabc1fb1d92)">
     <use xlink:href="#mbbeb02e52c" x="94.265465" y="154.678995" style="stroke: #000000"/>
     <use xlink:href="#mbbeb02e52c" x="173.939278" y="106.343862" style="stroke: #000000"/>
     <use xlink:href="#mbbeb02e52c" x="253.613091" y="177.394717" style="stroke: #000000"/>
     <use xlink:href="#mbbeb02e52c" x="333.286905" y="118.161317" style="stroke: #000000"/>
     <use xlink:href="#mbbeb02e52c" x="412.960718" y="246.013259" style="stroke: #000000"/>
    </g>
   </g>
   <g id="line2d_13">
    <g clip-path="url(#pabc1fb1d92)">
     <use xlink:href="#mbbeb02e52c" x="94.265465" y="75.642992" style="stroke: #000000"/>
     <use xlink:href="#mbbeb02e52c" x="173.939278" y="51.498994" style="stroke: #000000"/>
     <use xlink:href="#mbbeb02e52c" x="253.613091" y="89.812624" style="stroke: #000000"/>
     <use xlink:href="#mbbeb02e52c" x="333.286905" y="52.394613" style="stroke: #000000"/>
     <use xlink:href="#mbbeb02e52c" x="412.960718" y="148.13155" style="stroke: #000000"/>
    </g>
   </g>
   <g id="line2d_14">
    <defs>
     <path id="m6d8d8fd776" d="M 0 5.656854 
L 5.656854 0 
L 0 -5.656854 
L -5.656854 0 
z
" style="stroke: #000000; stroke-linejoin: miter"/>
    </defs>
    <g clip-path="url(#pabc1fb1d92)">
     <use xlink:href="#m6d8d8fd776" x="94.265465" y="105.443529" style="stroke: #000000; stroke-linejoin: miter"/>
     <use xlink:href="#m6d8d8fd776" x="173.939278" y="73.380376" style="stroke: #000000; stroke-linejoin: miter"/>
     <use xlink:href="#m6d8d8fd776" x="253.613091" y="126.848819" style="stroke: #000000; stroke-linejoin: miter"/>
     <use xlink:href="#m6d8d8fd776" x="333.286905" y="76.241642" style="stroke: #000000; stroke-linejoin: miter"/>
     <use xlink:href="#m6d8d8fd776" x="412.960718" y="195.302379" style="stroke: #000000; stroke-linejoin: miter"/>
    </g>
   </g>
   <g id="patch_3">
    <path d="M 52.76 303.896 
L 52.76 12.96 
" style="fill: none; stroke: #000000; stroke-width: 0.8; stroke-linejoin: miter; stroke-linecap: square"/>
   </g>
   <g id="patch_4">
    <path d="M 447.84 303.896 
L 447.84 12.96 
" style="fill: none; stroke: #000000; stroke-width: 0.8; stroke-linejoin: miter; stroke-linecap: square"/>
   </g>
   <g id="patch_5">
    <path d="M 52.76 303.896 
L 447.84 303.896 
" style="fill: none; stroke: #000000; stroke-width: 0.8; stroke-linejoin: miter; stroke-linecap: square"/>
   </g>
   <g id="patch_6">
    <path d="M 52.76 12.96 
L 447.84 12.96 
" style="fill: none; stroke: #000000; stroke-width: 0.8; stroke-linejoin: miter; stroke-linecap: square"/>
   </g>
  </g>
 </g>
 <defs>
  <clipPath id="pabc1fb1d92">
   <rect x="52.76" y="12.96" width="395.08" height="290.936"/>
  </clipPath>
 </defs>
</svg>
