<?xml version="1.0" encoding="utf-8" standalone="no"?>
<!DOCTYPE svg PUBLIC "-//W3C//DTD SVG 1.1//EN"
  "http://www.w3.org/Graphics/SVG/1.1/DTD/svg11.dtd">
<svg xmlns:xlink="http://www.w3.org/1999/xlink" width="460.8pt" height="345.6pt" viewBox="0 0 460.8 345.6" xmlns="http://www.w3.org/2000/svg" version="1.1">
 <metadata>
  <rdf:RDF xmlns:dc="http://purl.org/dc/elements/1.1/" xmlns:cc="http://creativecommons.org/ns#" xmlns:rdf="http://www.w3.org/1999/02/22-rdf-syntax-ns#">
   <cc:Work>
    <dc:type rdf:resource="http://purl.org/dc/dcmitype/StillImage"/>
    <dc:date>2025-09-22T13:48:46.264197</dc:date>
    <dc:format>image/svg+xml</dc:format>
    <dc:creator>
     <cc:Agent>
      <dc:title>Matplotlib v3.9.4, https://matplotlib.org/</dc:title>
     </cc:Agent>
    </dc:creator>
   </cc:Work>
  </rdf:RDF>
 </metadata>
 <defs>
  <style type="text/css">*{stroke-linejoin: round; stroke-linecap: butt}</style>
 </defs>
 <g id="figure_1">
  <g id="patch_1">
   <path d="M 0 345.6 
L 460.8 345.6 
L 460.8 0 
L 0 0 
z
" style="fill: #ffffff"/>
  </g>
  <g id="axes_1">
   <g id="patch_2">
    <path d="M 52.76 303.896 
L 447.84 303.896 
L 447.84 12.96 
L 52.76 12.96 
z
" style="fill: #ffffff"/>
   </g>
   <g id="PolyCollection_1">
    <defs>
     <path id="m09cf85b244" d="M 99.667828 -119.060223 
L 99.639031 -119.060223 
L 99.626193 -120.621127 
L 99.607824 -122.182032 
L 99.585833 -123.742936 
L 99.564737 -125.30384 
L 99.550417 -126.864745 
L 99.547519 -128.425649 
L 99.557038 -129.986553 
L 99.575764 -131.547458 
L 99.598003 -133.108362 
L 99.618294 -134.669266 
L 99.633317 -136.230171 
L 99.642089 -137.791075 
L 99.644884 -139.35198 
L 99.641963 -140.912884 
L 99.633053 -142.473788 
L 99.617887 -144.034693 
L 99.59746 -145.595597 
L 99.575064 -147.156501 
L 99.555966 -148.717406 
L 99.545319 -150.27831 
L 99.545264 -151.839214 
L 99.553162 -153.400119 
L 99.562395 -154.961023 
L 99.565408 -156.521928 
L 99.556993 -158.082832 
L 99.535655 -159.643736 
L 99.502361 -161.204641 
L 99.457972 -162.765545 
L 99.401707 -164.326449 
L 99.331919 -165.887354 
L 99.247948 -167.448258 
L 99.150403 -169.009162 
L 99.038969 -170.570067 
L 98.910248 -172.130971 
L 98.759047 -173.691876 
L 98.582878 -175.25278 
L 98.384672 -176.813684 
L 98.16864 -178.374589 
L 97.930256 -179.935493 
L 97.648334 -181.496397 
L 97.28821 -183.057302 
L 96.817956 -184.618206 
L 96.229134 -186.17911 
L 95.548069 -187.740015 
L 94.827966 -189.300919 
L 94.124031 -190.861824 
L 93.464669 -192.422728 
L 92.834613 -193.983632 
L 92.179701 -195.544537 
L 91.43248 -197.105441 
L 90.547311 -198.666345 
L 89.526852 -200.22725 
L 88.423498 -201.788154 
L 87.312927 -203.349058 
L 86.256552 -204.909963 
L 85.279463 -206.470867 
L 84.378528 -208.031772 
L 83.548832 -209.592676 
L 82.798639 -211.15358 
L 82.131801 -212.714485 
L 81.507515 -214.275389 
L 80.815016 -215.836293 
L 79.899114 -217.397198 
L 78.637504 -218.958102 
L 77.027143 -220.519007 
L 75.2201 -222.079911 
L 73.476734 -223.640815 
L 72.059167 -225.20172 
L 71.13015 -226.762624 
L 70.718182 -228.323528 
L 70.760542 -229.884433 
L 71.18036 -231.445337 
L 71.937026 -233.006241 
L 73.022106 -234.567146 
L 74.421839 -236.12805 
L 76.087929 -237.688955 
L 77.938935 -239.249859 
L 79.882613 -240.810763 
L 81.836861 -242.371668 
L 83.738092 -243.932572 
L 85.5413 -245.493476 
L 87.21921 -247.054381 
L 88.760903 -248.615285 
L 90.166515 -250.176189 
L 91.439451 -251.737094 
L 92.58274 -253.297998 
L 93.602782 -254.858903 
L 94.514974 -256.419807 
L 95.342899 -257.980711 
L 96.10936 -259.541616 
L 96.825749 -261.10252 
L 97.48734 -262.663424 
L 98.076941 -264.224329 
L 98.574021 -265.785233 
L 98.964458 -267.346137 
L 99.246841 -268.907042 
L 99.433187 -270.467946 
L 99.544596 -272.028851 
L 99.604617 -273.589755 
L 99.702241 -273.589755 
L 99.702241 -273.589755 
L 99.762262 -272.028851 
L 99.873671 -270.467946 
L 100.060017 -268.907042 
L 100.342401 -267.346137 
L 100.732838 -265.785233 
L 101.229917 -264.224329 
L 101.819519 -262.663424 
L 102.481109 -261.10252 
L 103.197498 -259.541616 
L 103.96396 -257.980711 
L 104.791884 -256.419807 
L 105.704077 -254.858903 
L 106.724119 -253.297998 
L 107.867408 -251.737094 
L 109.140343 -250.176189 
L 110.545955 -248.615285 
L 112.087648 -247.054381 
L 113.765559 -245.493476 
L 115.568767 -243.932572 
L 117.469997 -242.371668 
L 119.424245 -240.810763 
L 121.367923 -239.249859 
L 123.21893 -237.688955 
L 124.885019 -236.12805 
L 126.284752 -234.567146 
L 127.369832 -233.006241 
L 128.126499 -231.445337 
L 128.546316 -229.884433 
L 128.588677 -228.323528 
L 128.176709 -226.762624 
L 127.247691 -225.20172 
L 125.830125 -223.640815 
L 124.086759 -222.079911 
L 122.279715 -220.519007 
L 120.669354 -218.958102 
L 119.407744 -217.397198 
L 118.491842 -215.836293 
L 117.799343 -214.275389 
L 117.175057 -212.714485 
L 116.508219 -211.15358 
L 115.758027 -209.592676 
L 114.92833 -208.031772 
L 114.027395 -206.470867 
L 113.050307 -204.909963 
L 111.993932 -203.349058 
L 110.88336 -201.788154 
L 109.780006 -200.22725 
L 108.759547 -198.666345 
L 107.874378 -197.105441 
L 107.127157 -195.544537 
L 106.472245 -193.983632 
L 105.842189 -192.422728 
L 105.182828 -190.861824 
L 104.478893 -189.300919 
L 103.758789 -187.740015 
L 103.077724 -186.17911 
L 102.488902 -184.618206 
L 102.018649 -183.057302 
L 101.658524 -181.496397 
L 101.376602 -179.935493 
L 101.138218 -178.374589 
L 100.922186 -176.813684 
L 100.72398 -175.25278 
L 100.547812 -173.691876 
L 100.39661 -172.130971 
L 100.267889 -170.570067 
L 100.156456 -169.009162 
L 100.05891 -167.448258 
L 99.974939 -165.887354 
L 99.905151 -164.326449 
L 99.848886 -162.765545 
L 99.804497 -161.204641 
L 99.771204 -159.643736 
L 99.749865 -158.082832 
L 99.74145 -156.521928 
L 99.744463 -154.961023 
L 99.753696 -153.400119 
L 99.761594 -151.839214 
L 99.76154 -150.27831 
L 99.750892 -148.717406 
L 99.731794 -147.156501 
L 99.709398 -145.595597 
L 99.688972 -144.034693 
L 99.673805 -142.473788 
L 99.664895 -140.912884 
L 99.661974 -139.35198 
L 99.664769 -137.791075 
L 99.673542 -136.230171 
L 99.688564 -134.669266 
L 99.708855 -133.108362 
L 99.731094 -131.547458 
L 99.74982 -129.986553 
L 99.759339 -128.425649 
L 99.756441 -126.864745 
L 99.742121 -125.30384 
L 99.721026 -123.742936 
L 99.699034 -122.182032 
L 99.680665 -120.621127 
L 99.667828 -119.060223 
z
" style="stroke: #3f3f3f; stroke-width: 1.25"/>
    </defs>
    <g clip-path="url(#pfc79464581)">
     <use xlink:href="#m09cf85b244" x="0" y="345.6" style="fill: #3274a1; stroke: #3f3f3f; stroke-width: 1.25"/>
    </g>
   </g>
   <g id="PolyCollection_2">
    <defs>
     <path id="mbde8a7acae" d="M 177.018557 -192.386109 
L 176.975286 -192.386109 
L 176.959065 -193.669236 
L 176.935338 -194.952362 
L 176.903512 -196.235489 
L 176.864206 -197.518615 
L 176.819037 -198.801742 
L 176.769626 -200.084868 
L 176.716117 -201.367995 
L 176.655955 -202.651121 
L 176.583828 -203.934248 
L 176.493204 -205.217374 
L 176.379004 -206.500501 
L 176.240208 -207.783628 
L 176.081087 -209.066754 
L 175.910474 -210.349881 
L 175.739518 -211.633007 
L 175.578934 -212.916134 
L 175.436681 -214.19926 
L 175.316333 -215.482387 
L 175.215975 -216.765513 
L 175.127486 -218.04864 
L 175.03654 -219.331766 
L 174.923937 -220.614893 
L 174.768565 -221.898019 
L 174.551469 -223.181146 
L 174.259649 -224.464273 
L 173.888017 -225.747399 
L 173.438555 -227.030526 
L 172.916989 -228.313652 
L 172.328625 -229.596779 
L 171.675591 -230.879905 
L 170.95735 -232.163032 
L 170.174769 -233.446158 
L 169.335983 -234.729285 
L 168.460849 -236.012411 
L 167.58082 -237.295538 
L 166.733022 -238.578664 
L 165.950172 -239.861791 
L 165.250255 -241.144918 
L 164.630244 -242.428044 
L 164.066349 -243.711171 
L 163.520405 -244.994297 
L 162.949617 -246.277424 
L 162.316241 -247.56055 
L 161.594801 -248.843677 
L 160.776171 -250.126803 
L 159.868897 -251.40993 
L 158.898056 -252.693056 
L 157.901147 -253.976183 
L 156.920316 -255.259309 
L 155.991587 -256.542436 
L 155.13432 -257.825563 
L 154.346082 -259.108689 
L 153.60747 -260.391816 
L 152.897028 -261.674942 
L 152.210345 -262.958069 
L 151.573382 -264.241195 
L 151.041523 -265.524322 
L 150.682862 -266.807448 
L 150.552872 -268.090575 
L 150.672707 -269.373701 
L 151.021705 -270.656828 
L 151.547373 -271.939954 
L 152.187486 -273.223081 
L 152.893688 -274.506208 
L 153.646345 -275.789334 
L 154.4555 -277.072461 
L 155.349382 -278.355587 
L 156.356854 -279.638714 
L 157.491613 -280.92184 
L 158.743959 -282.204967 
L 160.081927 -283.488093 
L 161.459599 -284.77122 
L 162.828141 -286.054346 
L 164.145441 -287.337473 
L 165.382304 -288.620599 
L 166.525286 -289.903726 
L 167.5769 -291.186853 
L 168.553161 -292.469979 
L 169.47785 -293.753106 
L 170.373828 -295.036232 
L 171.253921 -296.319359 
L 172.115368 -297.602485 
L 172.94072 -298.885612 
L 173.704783 -300.168738 
L 174.383969 -301.451865 
L 174.963587 -302.734991 
L 175.440435 -304.018118 
L 175.82106 -305.301244 
L 176.117894 -306.584371 
L 176.345525 -307.867498 
L 176.518202 -309.150624 
L 176.648506 -310.433751 
L 176.746756 -311.716877 
L 176.820848 -313.000004 
L 176.876453 -314.28313 
L 176.917525 -315.566257 
L 176.946959 -316.849383 
L 176.967132 -318.13251 
L 176.980198 -319.415636 
L 177.013645 -319.415636 
L 177.013645 -319.415636 
L 177.026711 -318.13251 
L 177.046884 -316.849383 
L 177.076318 -315.566257 
L 177.117391 -314.28313 
L 177.172995 -313.000004 
L 177.247087 -311.716877 
L 177.345338 -310.433751 
L 177.475641 -309.150624 
L 177.648318 -307.867498 
L 177.87595 -306.584371 
L 178.172783 -305.301244 
L 178.553408 -304.018118 
L 179.030256 -302.734991 
L 179.609874 -301.451865 
L 180.289061 -300.168738 
L 181.053123 -298.885612 
L 181.878476 -297.602485 
L 182.739923 -296.319359 
L 183.620015 -295.036232 
L 184.515993 -293.753106 
L 185.440683 -292.469979 
L 186.416943 -291.186853 
L 187.468557 -289.903726 
L 188.611539 -288.620599 
L 189.848402 -287.337473 
L 191.165702 -286.054346 
L 192.534244 -284.77122 
L 193.911916 -283.488093 
L 195.249885 -282.204967 
L 196.50223 -280.92184 
L 197.636989 -279.638714 
L 198.644461 -278.355587 
L 199.538343 -277.072461 
L 200.347499 -275.789334 
L 201.100156 -274.506208 
L 201.806357 -273.223081 
L 202.446471 -271.939954 
L 202.972138 -270.656828 
L 203.321136 -269.373701 
L 203.440971 -268.090575 
L 203.310981 -266.807448 
L 202.95232 -265.524322 
L 202.420462 -264.241195 
L 201.783498 -262.958069 
L 201.096816 -261.674942 
L 200.386373 -260.391816 
L 199.647761 -259.108689 
L 198.859524 -257.825563 
L 198.002256 -256.542436 
L 197.073528 -255.259309 
L 196.092696 -253.976183 
L 195.095787 -252.693056 
L 194.124947 -251.40993 
L 193.217672 -250.126803 
L 192.399042 -248.843677 
L 191.677603 -247.56055 
L 191.044226 -246.277424 
L 190.473438 -244.994297 
L 189.927494 -243.711171 
L 189.3636 -242.428044 
L 188.743588 -241.144918 
L 188.043671 -239.861791 
L 187.260821 -238.578664 
L 186.413024 -237.295538 
L 185.532994 -236.012411 
L 184.65786 -234.729285 
L 183.819074 -233.446158 
L 183.036493 -232.163032 
L 182.318253 -230.879905 
L 181.665218 -229.596779 
L 181.076854 -228.313652 
L 180.555288 -227.030526 
L 180.105826 -225.747399 
L 179.734195 -224.464273 
L 179.442375 -223.181146 
L 179.225278 -221.898019 
L 179.069907 -220.614893 
L 178.957303 -219.331766 
L 178.866358 -218.04864 
L 178.777868 -216.765513 
L 178.67751 -215.482387 
L 178.557162 -214.19926 
L 178.414909 -212.916134 
L 178.254326 -211.633007 
L 178.083369 -210.349881 
L 177.912757 -209.066754 
L 177.753635 -207.783628 
L 177.61484 -206.500501 
L 177.500639 -205.217374 
L 177.410015 -203.934248 
L 177.337888 -202.651121 
L 177.277727 -201.367995 
L 177.224217 -200.084868 
L 177.174806 -198.801742 
L 177.129637 -197.518615 
L 177.090332 -196.235489 
L 177.058505 -194.952362 
L 177.034778 -193.669236 
L 177.018557 -192.386109 
z
" style="stroke: #3f3f3f; stroke-width: 1.25"/>
    </defs>
    <g clip-path="url(#pfc79464581)">
     <use xlink:href="#mbde8a7acae" x="0" y="345.6" style="fill: #3274a1; stroke: #3f3f3f; stroke-width: 1.25"/>
    </g>
   </g>
   <g id="PolyCollection_3">
    <defs>
     <path id="ma2c21ed6ed" d="M 254.352843 -128.111738 
L 254.327985 -128.111738 
L 254.318019 -129.768645 
L 254.303986 -131.425552 
L 254.286914 -133.082458 
L 254.269444 -134.739365 
L 254.255287 -136.396272 
L 254.247816 -138.053178 
L 254.248337 -139.710085 
L 254.254939 -141.366992 
L 254.262561 -143.023898 
L 254.264264 -144.680805 
L 254.253131 -146.337712 
L 254.224093 -147.994619 
L 254.175122 -149.651525 
L 254.107423 -151.308432 
L 254.024515 -152.965339 
L 253.930525 -154.622245 
L 253.828628 -156.279152 
L 253.720627 -157.936059 
L 253.607993 -159.592965 
L 253.493551 -161.249872 
L 253.382321 -162.906779 
L 253.28043 -164.563685 
L 253.192069 -166.220592 
L 253.11582 -167.877499 
L 253.042522 -169.534405 
L 252.956681 -171.191312 
L 252.8417 -172.848219 
L 252.686616 -174.505125 
L 252.490206 -176.162032 
L 252.259274 -177.818939 
L 252.001417 -179.475845 
L 251.716255 -181.132752 
L 251.390318 -182.789659 
L 250.998627 -184.446565 
L 250.512502 -186.103472 
L 249.910327 -187.760379 
L 249.186921 -189.417285 
L 248.357329 -191.074192 
L 247.452182 -192.731099 
L 246.505399 -194.388005 
L 245.539858 -196.044912 
L 244.559347 -197.701819 
L 243.551957 -199.358725 
L 242.502525 -201.015632 
L 241.40591 -202.672539 
L 240.273728 -204.329445 
L 239.132841 -205.986352 
L 238.018618 -207.643259 
L 236.966208 -209.300165 
L 236.001582 -210.957072 
L 235.134488 -212.613979 
L 234.357463 -214.270885 
L 233.654243 -215.927792 
L 233.01532 -217.584699 
L 232.451905 -219.241605 
L 231.998396 -220.898512 
L 231.699731 -222.555419 
L 231.589543 -224.212325 
L 231.671231 -225.869232 
L 231.912863 -227.526139 
L 232.259548 -229.183045 
L 232.657904 -230.839952 
L 233.08145 -232.496859 
L 233.545067 -234.153765 
L 234.100551 -235.810672 
L 234.812541 -237.467579 
L 235.723582 -239.124485 
L 236.825402 -240.781392 
L 238.054012 -242.438299 
L 239.314747 -244.095205 
L 240.524787 -245.752112 
L 241.648255 -247.409019 
L 242.703385 -249.065925 
L 243.73963 -250.722832 
L 244.801019 -252.379739 
L 245.897786 -254.036645 
L 246.999769 -255.693552 
L 248.050989 -257.350459 
L 248.994593 -259.007365 
L 249.795161 -260.664272 
L 250.449548 -262.321179 
L 250.984034 -263.978086 
L 251.441195 -265.634992 
L 251.862871 -267.291899 
L 252.275833 -268.948806 
L 252.684977 -270.605712 
L 253.075743 -272.262619 
L 253.42388 -273.919526 
L 253.707755 -275.576432 
L 253.917648 -277.233339 
L 254.058451 -278.890246 
L 254.145822 -280.547152 
L 254.198967 -282.204059 
L 254.234072 -283.860966 
L 254.26106 -285.517872 
L 254.283903 -287.174779 
L 254.303005 -288.831686 
L 254.317729 -290.488592 
L 254.327907 -292.145499 
L 254.352921 -292.145499 
L 254.352921 -292.145499 
L 254.3631 -290.488592 
L 254.377824 -288.831686 
L 254.396925 -287.174779 
L 254.419768 -285.517872 
L 254.446756 -283.860966 
L 254.481862 -282.204059 
L 254.535006 -280.547152 
L 254.622377 -278.890246 
L 254.76318 -277.233339 
L 254.973073 -275.576432 
L 255.256948 -273.919526 
L 255.605085 -272.262619 
L 255.995851 -270.605712 
L 256.404995 -268.948806 
L 256.817957 -267.291899 
L 257.239633 -265.634992 
L 257.696794 -263.978086 
L 258.23128 -262.321179 
L 258.885667 -260.664272 
L 259.686235 -259.007365 
L 260.629839 -257.350459 
L 261.681059 -255.693552 
L 262.783042 -254.036645 
L 263.87981 -252.379739 
L 264.941199 -250.722832 
L 265.977443 -249.065925 
L 267.032574 -247.409019 
L 268.156041 -245.752112 
L 269.366081 -244.095205 
L 270.626816 -242.438299 
L 271.855426 -240.781392 
L 272.957246 -239.124485 
L 273.868287 -237.467579 
L 274.580277 -235.810672 
L 275.135761 -234.153765 
L 275.599378 -232.496859 
L 276.022924 -230.839952 
L 276.42128 -229.183045 
L 276.767966 -227.526139 
L 277.009597 -225.869232 
L 277.091285 -224.212325 
L 276.981098 -222.555419 
L 276.682432 -220.898512 
L 276.228924 -219.241605 
L 275.665508 -217.584699 
L 275.026585 -215.927792 
L 274.323365 -214.270885 
L 273.54634 -212.613979 
L 272.679246 -210.957072 
L 271.71462 -209.300165 
L 270.662211 -207.643259 
L 269.547987 -205.986352 
L 268.407101 -204.329445 
L 267.274918 -202.672539 
L 266.178303 -201.015632 
L 265.128871 -199.358725 
L 264.121482 -197.701819 
L 263.140971 -196.044912 
L 262.17543 -194.388005 
L 261.228647 -192.731099 
L 260.323499 -191.074192 
L 259.493907 -189.417285 
L 258.770502 -187.760379 
L 258.168326 -186.103472 
L 257.682202 -184.446565 
L 257.290511 -182.789659 
L 256.964573 -181.132752 
L 256.679412 -179.475845 
L 256.421554 -177.818939 
L 256.190622 -176.162032 
L 255.994212 -174.505125 
L 255.839128 -172.848219 
L 255.724147 -171.191312 
L 255.638306 -169.534405 
L 255.565009 -167.877499 
L 255.488759 -166.220592 
L 255.400399 -164.563685 
L 255.298507 -162.906779 
L 255.187278 -161.249872 
L 255.072835 -159.592965 
L 254.960202 -157.936059 
L 254.8522 -156.279152 
L 254.750303 -154.622245 
L 254.656313 -152.965339 
L 254.573405 -151.308432 
L 254.505707 -149.651525 
L 254.456735 -147.994619 
L 254.427698 -146.337712 
L 254.416565 -144.680805 
L 254.418267 -143.023898 
L 254.425889 -141.366992 
L 254.432491 -139.710085 
L 254.433012 -138.053178 
L 254.425541 -136.396272 
L 254.411384 -134.739365 
L 254.393914 -133.082458 
L 254.376842 -131.425552 
L 254.362809 -129.768645 
L 254.352843 -128.111738 
z
" style="stroke: #3f3f3f; stroke-width: 1.25"/>
    </defs>
    <g clip-path="url(#pfc79464581)">
     <use xlink:href="#ma2c21ed6ed" x="0" y="345.6" style="fill: #3274a1; stroke: #3f3f3f; stroke-width: 1.25"/>
    </g>
   </g>
   <g id="PolyCollection_4">
    <defs>
     <path id="mbc22a96d92" d="M 331.700393 -167.543595 
L 331.66742 -167.543595 
L 331.652313 -168.937591 
L 331.63061 -170.331586 
L 331.604763 -171.725582 
L 331.580449 -173.119578 
L 331.564853 -174.513573 
L 331.563292 -175.907569 
L 331.576279 -177.301565 
L 331.599143 -178.69556 
L 331.624433 -180.089556 
L 331.645171 -181.483552 
L 331.656736 -182.877547 
L 331.656745 -184.271543 
L 331.644003 -185.665539 
L 331.617958 -187.059534 
L 331.579089 -188.45353 
L 331.529536 -189.847526 
L 331.473186 -191.241521 
L 331.415126 -192.635517 
L 331.360903 -194.029513 
L 331.315837 -195.423508 
L 331.284228 -196.817504 
L 331.268598 -198.2115 
L 331.269117 -199.605495 
L 331.282733 -200.999491 
L 331.301334 -202.393487 
L 331.310082 -203.787482 
L 331.289014 -205.181478 
L 331.219677 -206.575474 
L 331.093843 -207.969469 
L 330.918146 -209.363465 
L 330.710763 -210.757461 
L 330.492011 -212.151456 
L 330.274224 -213.545452 
L 330.055048 -214.939448 
L 329.815621 -216.333443 
L 329.524562 -217.727439 
L 329.148665 -219.121435 
L 328.667798 -220.51543 
L 328.085812 -221.909426 
L 327.428238 -223.303422 
L 326.725963 -224.697417 
L 325.996637 -226.091413 
L 325.239809 -227.485409 
L 324.451051 -228.879404 
L 323.642553 -230.2734 
L 322.849018 -231.667396 
L 322.107107 -233.061391 
L 321.417905 -234.455387 
L 320.718468 -235.849383 
L 319.886724 -237.243378 
L 318.78382 -238.637374 
L 317.314226 -240.03137 
L 315.473428 -241.425365 
L 313.360525 -242.819361 
L 311.150298 -244.213357 
L 309.036361 -245.607352 
L 307.169138 -247.001348 
L 305.615873 -248.395344 
L 304.360006 -249.789339 
L 303.336333 -251.183335 
L 302.479827 -252.577331 
L 301.762598 -253.971326 
L 301.203947 -255.365322 
L 300.851943 -256.759318 
L 300.74651 -258.153313 
L 300.884867 -259.547309 
L 301.214841 -260.941305 
L 301.668103 -262.3353 
L 302.215637 -263.729296 
L 302.904932 -265.123292 
L 303.846441 -266.517287 
L 305.153054 -267.911283 
L 306.871279 -269.305279 
L 308.94807 -270.699274 
L 311.25027 -272.09327 
L 313.618135 -273.487266 
L 315.918113 -274.881261 
L 318.070455 -276.275257 
L 320.048526 -277.669253 
L 321.859891 -279.063248 
L 323.520947 -280.457244 
L 325.035316 -281.85124 
L 326.385083 -283.245235 
L 327.539355 -284.639231 
L 328.474761 -286.033227 
L 329.194028 -287.427222 
L 329.729733 -288.821218 
L 330.131294 -290.215214 
L 330.445363 -291.609209 
L 330.702931 -293.003205 
L 330.918875 -294.397201 
L 331.099345 -295.791196 
L 331.248591 -297.185192 
L 331.370972 -298.579188 
L 331.469826 -299.973183 
L 331.546797 -301.367179 
L 331.602944 -302.761175 
L 331.640375 -304.15517 
L 331.662792 -305.549166 
L 331.705022 -305.549166 
L 331.705022 -305.549166 
L 331.727439 -304.15517 
L 331.764869 -302.761175 
L 331.821016 -301.367179 
L 331.897987 -299.973183 
L 331.996841 -298.579188 
L 332.119222 -297.185192 
L 332.268468 -295.791196 
L 332.448938 -294.397201 
L 332.664882 -293.003205 
L 332.92245 -291.609209 
L 333.236519 -290.215214 
L 333.63808 -288.821218 
L 334.173785 -287.427222 
L 334.893053 -286.033227 
L 335.828458 -284.639231 
L 336.98273 -283.245235 
L 338.332497 -281.85124 
L 339.846866 -280.457244 
L 341.507923 -279.063248 
L 343.319287 -277.669253 
L 345.297358 -276.275257 
L 347.4497 -274.881261 
L 349.749678 -273.487266 
L 352.117543 -272.09327 
L 354.419744 -270.699274 
L 356.496534 -269.305279 
L 358.214759 -267.911283 
L 359.521372 -266.517287 
L 360.462881 -265.123292 
L 361.152176 -263.729296 
L 361.699711 -262.3353 
L 362.152972 -260.941305 
L 362.482946 -259.547309 
L 362.621304 -258.153313 
L 362.51587 -256.759318 
L 362.163867 -255.365322 
L 361.605215 -253.971326 
L 360.887986 -252.577331 
L 360.03148 -251.183335 
L 359.007808 -249.789339 
L 357.75194 -248.395344 
L 356.198676 -247.001348 
L 354.331452 -245.607352 
L 352.217515 -244.213357 
L 350.007289 -242.819361 
L 347.894385 -241.425365 
L 346.053587 -240.03137 
L 344.583993 -238.637374 
L 343.481089 -237.243378 
L 342.649345 -235.849383 
L 341.949909 -234.455387 
L 341.260706 -233.061391 
L 340.518795 -231.667396 
L 339.72526 -230.2734 
L 338.916762 -228.879404 
L 338.128005 -227.485409 
L 337.371176 -226.091413 
L 336.64185 -224.697417 
L 335.939575 -223.303422 
L 335.282001 -221.909426 
L 334.700015 -220.51543 
L 334.219148 -219.121435 
L 333.843251 -217.727439 
L 333.552192 -216.333443 
L 333.312765 -214.939448 
L 333.093589 -213.545452 
L 332.875802 -212.151456 
L 332.65705 -210.757461 
L 332.449667 -209.363465 
L 332.273971 -207.969469 
L 332.148136 -206.575474 
L 332.078799 -205.181478 
L 332.057731 -203.787482 
L 332.066479 -202.393487 
L 332.08508 -200.999491 
L 332.098696 -199.605495 
L 332.099216 -198.2115 
L 332.083586 -196.817504 
L 332.051977 -195.423508 
L 332.00691 -194.029513 
L 331.952687 -192.635517 
L 331.894627 -191.241521 
L 331.838278 -189.847526 
L 331.788724 -188.45353 
L 331.749855 -187.059534 
L 331.72381 -185.665539 
L 331.711068 -184.271543 
L 331.711077 -182.877547 
L 331.722643 -181.483552 
L 331.74338 -180.089556 
L 331.76867 -178.69556 
L 331.791535 -177.301565 
L 331.804521 -175.907569 
L 331.80296 -174.513573 
L 331.787364 -173.119578 
L 331.76305 -171.725582 
L 331.737203 -170.331586 
L 331.7155 -168.937591 
L 331.700393 -167.543595 
z
" style="stroke: #3f3f3f; stroke-width: 1.25"/>
    </defs>
    <g clip-path="url(#pfc79464581)">
     <use xlink:href="#mbc22a96d92" x="0" y="345.6" style="fill: #3274a1; stroke: #3f3f3f; stroke-width: 1.25"/>
    </g>
   </g>
   <g id="PolyCollection_5">
    <defs>
     <path id="m9c487f17e9" d="M 409.039334 -54.928364 
L 409.015464 -54.928364 
L 409.004517 -56.851358 
L 408.988624 -58.774351 
L 408.969158 -60.697345 
L 408.949425 -62.620339 
L 408.933386 -64.543333 
L 408.923499 -66.466327 
L 408.919331 -68.389321 
L 408.91835 -70.312315 
L 408.918446 -72.235309 
L 408.919964 -74.158303 
L 408.925366 -76.081297 
L 408.936812 -78.00429 
L 408.95385 -79.927284 
L 408.973091 -81.850278 
L 408.989721 -83.773272 
L 408.999218 -85.696266 
L 408.997973 -87.61926 
L 408.982908 -89.542254 
L 408.951092 -91.465248 
L 408.900095 -93.388242 
L 408.82891 -95.311236 
L 408.738809 -97.234229 
L 408.633744 -99.157223 
L 408.520341 -101.080217 
L 408.40728 -103.003211 
L 408.303311 -104.926205 
L 408.213287 -106.849199 
L 408.13283 -108.772193 
L 408.043789 -110.695187 
L 407.913477 -112.618181 
L 407.700446 -114.541175 
L 407.367531 -116.464168 
L 406.898294 -118.387162 
L 406.307486 -120.310156 
L 405.635704 -122.23315 
L 404.927334 -124.156144 
L 404.204231 -126.079138 
L 403.453043 -128.002132 
L 402.635408 -129.925126 
L 401.714534 -131.84812 
L 400.681733 -133.771114 
L 399.567852 -135.694107 
L 398.433253 -137.617101 
L 397.340317 -139.540095 
L 396.320899 -141.463089 
L 395.355682 -143.386083 
L 394.38035 -145.309077 
L 393.322407 -147.232071 
L 392.154241 -149.155065 
L 390.932067 -151.078059 
L 389.791421 -153.001053 
L 388.89361 -154.924046 
L 388.350616 -156.84704 
L 388.17298 -158.770034 
L 388.271459 -160.693028 
L 388.508215 -162.616022 
L 388.763366 -164.539016 
L 388.978416 -166.46201 
L 389.15886 -168.385004 
L 389.3462 -170.307998 
L 389.58501 -172.230992 
L 389.906357 -174.153985 
L 390.33135 -176.076979 
L 390.88199 -177.999973 
L 391.582275 -179.922967 
L 392.443801 -181.845961 
L 393.447802 -183.768955 
L 394.543629 -185.691949 
L 395.671259 -187.614943 
L 396.792132 -189.537937 
L 397.902283 -191.460931 
L 399.017304 -193.383925 
L 400.144469 -195.306918 
L 401.266487 -197.229912 
L 402.347055 -199.152906 
L 403.348968 -201.0759 
L 404.249446 -202.998894 
L 405.044649 -204.921888 
L 405.744512 -206.844882 
L 406.363106 -208.767876 
L 406.909899 -210.69087 
L 407.386046 -212.613864 
L 407.787116 -214.536857 
L 408.109799 -216.459851 
L 408.357534 -218.382845 
L 408.541171 -220.305839 
L 408.67492 -222.228833 
L 408.771216 -224.151827 
L 408.838227 -226.074821 
L 408.881057 -227.997815 
L 408.904775 -229.920809 
L 408.916388 -231.843803 
L 408.92409 -233.766796 
L 408.934491 -235.68979 
L 408.950176 -237.612784 
L 408.969528 -239.535778 
L 408.988772 -241.458772 
L 409.004566 -243.381766 
L 409.015478 -245.30476 
L 409.03932 -245.30476 
L 409.03932 -245.30476 
L 409.050232 -243.381766 
L 409.066026 -241.458772 
L 409.08527 -239.535778 
L 409.104622 -237.612784 
L 409.120307 -235.68979 
L 409.130708 -233.766796 
L 409.13841 -231.843803 
L 409.150023 -229.920809 
L 409.173741 -227.997815 
L 409.216571 -226.074821 
L 409.283582 -224.151827 
L 409.379878 -222.228833 
L 409.513627 -220.305839 
L 409.697264 -218.382845 
L 409.944999 -216.459851 
L 410.267683 -214.536857 
L 410.668752 -212.613864 
L 411.144899 -210.69087 
L 411.691692 -208.767876 
L 412.310286 -206.844882 
L 413.010149 -204.921888 
L 413.805353 -202.998894 
L 414.70583 -201.0759 
L 415.707743 -199.152906 
L 416.788311 -197.229912 
L 417.910329 -195.306918 
L 419.037495 -193.383925 
L 420.152515 -191.460931 
L 421.262666 -189.537937 
L 422.383539 -187.614943 
L 423.51117 -185.691949 
L 424.606997 -183.768955 
L 425.610998 -181.845961 
L 426.472523 -179.922967 
L 427.172809 -177.999973 
L 427.723448 -176.076979 
L 428.148441 -174.153985 
L 428.469788 -172.230992 
L 428.708599 -170.307998 
L 428.895938 -168.385004 
L 429.076382 -166.46201 
L 429.291432 -164.539016 
L 429.546583 -162.616022 
L 429.783339 -160.693028 
L 429.881818 -158.770034 
L 429.704182 -156.84704 
L 429.161188 -154.924046 
L 428.263378 -153.001053 
L 427.122731 -151.078059 
L 425.900557 -149.155065 
L 424.732391 -147.232071 
L 423.674448 -145.309077 
L 422.699116 -143.386083 
L 421.7339 -141.463089 
L 420.714481 -139.540095 
L 419.621545 -137.617101 
L 418.486946 -135.694107 
L 417.373065 -133.771114 
L 416.340264 -131.84812 
L 415.41939 -129.925126 
L 414.601755 -128.002132 
L 413.850567 -126.079138 
L 413.127465 -124.156144 
L 412.419095 -122.23315 
L 411.747312 -120.310156 
L 411.156505 -118.387162 
L 410.687267 -116.464168 
L 410.354352 -114.541175 
L 410.141321 -112.618181 
L 410.01101 -110.695187 
L 409.921968 -108.772193 
L 409.841511 -106.849199 
L 409.751487 -104.926205 
L 409.647518 -103.003211 
L 409.534457 -101.080217 
L 409.421055 -99.157223 
L 409.31599 -97.234229 
L 409.225888 -95.311236 
L 409.154703 -93.388242 
L 409.103706 -91.465248 
L 409.07189 -89.542254 
L 409.056825 -87.61926 
L 409.05558 -85.696266 
L 409.065077 -83.773272 
L 409.081707 -81.850278 
L 409.100949 -79.927284 
L 409.117986 -78.00429 
L 409.129432 -76.081297 
L 409.134835 -74.158303 
L 409.136352 -72.235309 
L 409.136448 -70.312315 
L 409.135467 -68.389321 
L 409.131299 -66.466327 
L 409.121412 -64.543333 
L 409.105374 -62.620339 
L 409.08564 -60.697345 
L 409.066174 -58.774351 
L 409.050282 -56.851358 
L 409.039334 -54.928364 
z
" style="stroke: #3f3f3f; stroke-width: 1.25"/>
    </defs>
    <g clip-path="url(#pfc79464581)">
     <use xlink:href="#m9c487f17e9" x="0" y="345.6" style="fill: #3274a1; stroke: #3f3f3f; stroke-width: 1.25"/>
    </g>
   </g>
   <g id="matplotlib.axis_1">
    <g id="xtick_1">
     <g id="line2d_1">
      <defs>
       <path id="m53d61231d4" d="M 0 0 
L 0 3.5 
" style="stroke: #000000; stroke-width: 0.8"/>
      </defs>
      <g>
       <use xlink:href="#m53d61231d4" x="99.653429" y="303.896" style="stroke: #000000; stroke-width: 0.8"/>
      </g>
     </g>
     <g id="text_1">
      <!-- Fluency -->
      <g transform="translate(80.265929 318.494438) scale(0.1 -0.1)">
       <defs>
        <path id="DejaVuSans-46" d="M 628 4666 
L 3309 4666 
L 3309 4134 
L 1259 4134 
L 1259 2759 
L 3109 2759 
L 3109 2228 
L 1259 2228 
L 1259 0 
L 628 0 
L 628 4666 
z
" transform="scale(0.015625)"/>
        <path id="DejaVuSans-6c" d="M 603 4863 
L 1178 4863 
L 1178 0 
L 603 0 
L 603 4863 
z
" transform="scale(0.015625)"/>
        <path id="DejaVuSans-75" d="M 544 1381 
L 544 3500 
L 1119 3500 
L 1119 1403 
Q 1119 906 1312 657 
Q 1506 409 1894 409 
Q 2359 409 2629 706 
Q 2900 1003 2900 1516 
L 2900 3500 
L 3475 3500 
L 3475 0 
L 2900 0 
L 2900 538 
Q 2691 219 2414 64 
Q 2138 -91 1772 -91 
Q 1169 -91 856 284 
Q 544 659 544 1381 
z
M 1991 3584 
L 1991 3584 
z
" transform="scale(0.015625)"/>
        <path id="DejaVuSans-65" d="M 3597 1894 
L 3597 1613 
L 953 1613 
Q 991 1019 1311 708 
Q 1631 397 2203 397 
Q 2534 397 2845 478 
Q 3156 559 3463 722 
L 3463 178 
Q 3153 47 2828 -22 
Q 2503 -91 2169 -91 
Q 1331 -91 842 396 
Q 353 884 353 1716 
Q 353 2575 817 3079 
Q 1281 3584 2069 3584 
Q 2775 3584 3186 3129 
Q 3597 2675 3597 1894 
z
M 3022 2063 
Q 3016 2534 2758 2815 
Q 2500 3097 2075 3097 
Q 1594 3097 1305 2825 
Q 1016 2553 972 2059 
L 3022 2063 
z
" transform="scale(0.015625)"/>
        <path id="DejaVuSans-6e" d="M 3513 2113 
L 3513 0 
L 2938 0 
L 2938 2094 
Q 2938 2591 2744 2837 
Q 2550 3084 2163 3084 
Q 1697 3084 1428 2787 
Q 1159 2491 1159 1978 
L 1159 0 
L 581 0 
L 581 3500 
L 1159 3500 
L 1159 2956 
Q 1366 3272 1645 3428 
Q 1925 3584 2291 3584 
Q 2894 3584 3203 3211 
Q 3513 2838 3513 2113 
z
" transform="scale(0.015625)"/>
        <path id="DejaVuSans-63" d="M 3122 3366 
L 3122 2828 
Q 2878 2963 2633 3030 
Q 2388 3097 2138 3097 
Q 1578 3097 1268 2742 
Q 959 2388 959 1747 
Q 959 1106 1268 751 
Q 1578 397 2138 397 
Q 2388 397 2633 464 
Q 2878 531 3122 666 
L 3122 134 
Q 2881 22 2623 -34 
Q 2366 -91 2075 -91 
Q 1284 -91 818 406 
Q 353 903 353 1747 
Q 353 2603 823 3093 
Q 1294 3584 2113 3584 
Q 2378 3584 2631 3529 
Q 2884 3475 3122 3366 
z
" transform="scale(0.015625)"/>
        <path id="DejaVuSans-79" d="M 2059 -325 
Q 1816 -950 1584 -1140 
Q 1353 -1331 966 -1331 
L 506 -1331 
L 506 -850 
L 844 -850 
Q 1081 -850 1212 -737 
Q 1344 -625 1503 -206 
L 1606 56 
L 191 3500 
L 800 3500 
L 1894 763 
L 2988 3500 
L 3597 3500 
L 2059 -325 
z
" transform="scale(0.015625)"/>
       </defs>
       <use xlink:href="#DejaVuSans-46"/>
       <use xlink:href="#DejaVuSans-6c" x="57.519531"/>
       <use xlink:href="#DejaVuSans-75" x="85.302734"/>
       <use xlink:href="#DejaVuSans-65" x="148.681641"/>
       <use xlink:href="#DejaVuSans-6e" x="210.205078"/>
       <use xlink:href="#DejaVuSans-63" x="273.583984"/>
       <use xlink:href="#DejaVuSans-79" x="328.564453"/>
      </g>
      <!--  classifier -->
      <g transform="translate(75.982335 329.69225) scale(0.1 -0.1)">
       <defs>
        <path id="DejaVuSans-20" transform="scale(0.015625)"/>
        <path id="DejaVuSans-61" d="M 2194 1759 
Q 1497 1759 1228 1600 
Q 959 1441 959 1056 
Q 959 750 1161 570 
Q 1363 391 1709 391 
Q 2188 391 2477 730 
Q 2766 1069 2766 1631 
L 2766 1759 
L 2194 1759 
z
M 3341 1997 
L 3341 0 
L 2766 0 
L 2766 531 
Q 2569 213 2275 61 
Q 1981 -91 1556 -91 
Q 1019 -91 701 211 
Q 384 513 384 1019 
Q 384 1609 779 1909 
Q 1175 2209 1959 2209 
L 2766 2209 
L 2766 2266 
Q 2766 2663 2505 2880 
Q 2244 3097 1772 3097 
Q 1472 3097 1187 3025 
Q 903 2953 641 2809 
L 641 3341 
Q 956 3463 1253 3523 
Q 1550 3584 1831 3584 
Q 2591 3584 2966 3190 
Q 3341 2797 3341 1997 
z
" transform="scale(0.015625)"/>
        <path id="DejaVuSans-73" d="M 2834 3397 
L 2834 2853 
Q 2591 2978 2328 3040 
Q 2066 3103 1784 3103 
Q 1356 3103 1142 2972 
Q 928 2841 928 2578 
Q 928 2378 1081 2264 
Q 1234 2150 1697 2047 
L 1894 2003 
Q 2506 1872 2764 1633 
Q 3022 1394 3022 966 
Q 3022 478 2636 193 
Q 2250 -91 1575 -91 
Q 1294 -91 989 -36 
Q 684 19 347 128 
L 347 722 
Q 666 556 975 473 
Q 1284 391 1588 391 
Q 1994 391 2212 530 
Q 2431 669 2431 922 
Q 2431 1156 2273 1281 
Q 2116 1406 1581 1522 
L 1381 1569 
Q 847 1681 609 1914 
Q 372 2147 372 2553 
Q 372 3047 722 3315 
Q 1072 3584 1716 3584 
Q 2034 3584 2315 3537 
Q 2597 3491 2834 3397 
z
" transform="scale(0.015625)"/>
        <path id="DejaVuSans-69" d="M 603 3500 
L 1178 3500 
L 1178 0 
L 603 0 
L 603 3500 
z
M 603 4863 
L 1178 4863 
L 1178 4134 
L 603 4134 
L 603 4863 
z
" transform="scale(0.015625)"/>
        <path id="DejaVuSans-66" d="M 2375 4863 
L 2375 4384 
L 1825 4384 
Q 1516 4384 1395 4259 
Q 1275 4134 1275 3809 
L 1275 3500 
L 2222 3500 
L 2222 3053 
L 1275 3053 
L 1275 0 
L 697 0 
L 697 3053 
L 147 3053 
L 147 3500 
L 697 3500 
L 697 3744 
Q 697 4328 969 4595 
Q 1241 4863 1831 4863 
L 2375 4863 
z
" transform="scale(0.015625)"/>
        <path id="DejaVuSans-72" d="M 2631 2963 
Q 2534 3019 2420 3045 
Q 2306 3072 2169 3072 
Q 1681 3072 1420 2755 
Q 1159 2438 1159 1844 
L 1159 0 
L 581 0 
L 581 3500 
L 1159 3500 
L 1159 2956 
Q 1341 3275 1631 3429 
Q 1922 3584 2338 3584 
Q 2397 3584 2469 3576 
Q 2541 3569 2628 3553 
L 2631 2963 
z
" transform="scale(0.015625)"/>
       </defs>
       <use xlink:href="#DejaVuSans-20"/>
       <use xlink:href="#DejaVuSans-63" x="31.787109"/>
       <use xlink:href="#DejaVuSans-6c" x="86.767578"/>
       <use xlink:href="#DejaVuSans-61" x="114.550781"/>
       <use xlink:href="#DejaVuSans-73" x="175.830078"/>
       <use xlink:href="#DejaVuSans-73" x="227.929688"/>
       <use xlink:href="#DejaVuSans-69" x="280.029297"/>
       <use xlink:href="#DejaVuSans-66" x="307.8125"/>
       <use xlink:href="#DejaVuSans-69" x="343.017578"/>
       <use xlink:href="#DejaVuSans-65" x="370.800781"/>
       <use xlink:href="#DejaVuSans-72" x="432.324219"/>
      </g>
     </g>
    </g>
    <g id="xtick_2">
     <g id="line2d_2">
      <g>
       <use xlink:href="#m53d61231d4" x="176.996922" y="303.896" style="stroke: #000000; stroke-width: 0.8"/>
      </g>
     </g>
     <g id="text_2">
      <!-- Screening -->
      <g transform="translate(152.076609 318.494438) scale(0.1 -0.1)">
       <defs>
        <path id="DejaVuSans-53" d="M 3425 4513 
L 3425 3897 
Q 3066 4069 2747 4153 
Q 2428 4238 2131 4238 
Q 1616 4238 1336 4038 
Q 1056 3838 1056 3469 
Q 1056 3159 1242 3001 
Q 1428 2844 1947 2747 
L 2328 2669 
Q 3034 2534 3370 2195 
Q 3706 1856 3706 1288 
Q 3706 609 3251 259 
Q 2797 -91 1919 -91 
Q 1588 -91 1214 -16 
Q 841 59 441 206 
L 441 856 
Q 825 641 1194 531 
Q 1563 422 1919 422 
Q 2459 422 2753 634 
Q 3047 847 3047 1241 
Q 3047 1584 2836 1778 
Q 2625 1972 2144 2069 
L 1759 2144 
Q 1053 2284 737 2584 
Q 422 2884 422 3419 
Q 422 4038 858 4394 
Q 1294 4750 2059 4750 
Q 2388 4750 2728 4690 
Q 3069 4631 3425 4513 
z
" transform="scale(0.015625)"/>
        <path id="DejaVuSans-67" d="M 2906 1791 
Q 2906 2416 2648 2759 
Q 2391 3103 1925 3103 
Q 1463 3103 1205 2759 
Q 947 2416 947 1791 
Q 947 1169 1205 825 
Q 1463 481 1925 481 
Q 2391 481 2648 825 
Q 2906 1169 2906 1791 
z
M 3481 434 
Q 3481 -459 3084 -895 
Q 2688 -1331 1869 -1331 
Q 1566 -1331 1297 -1286 
Q 1028 -1241 775 -1147 
L 775 -588 
Q 1028 -725 1275 -790 
Q 1522 -856 1778 -856 
Q 2344 -856 2625 -561 
Q 2906 -266 2906 331 
L 2906 616 
Q 2728 306 2450 153 
Q 2172 0 1784 0 
Q 1141 0 747 490 
Q 353 981 353 1791 
Q 353 2603 747 3093 
Q 1141 3584 1784 3584 
Q 2172 3584 2450 3431 
Q 2728 3278 2906 2969 
L 2906 3500 
L 3481 3500 
L 3481 434 
z
" transform="scale(0.015625)"/>
       </defs>
       <use xlink:href="#DejaVuSans-53"/>
       <use xlink:href="#DejaVuSans-63" x="63.476562"/>
       <use xlink:href="#DejaVuSans-72" x="118.457031"/>
       <use xlink:href="#DejaVuSans-65" x="157.320312"/>
       <use xlink:href="#DejaVuSans-65" x="218.84375"/>
       <use xlink:href="#DejaVuSans-6e" x="280.367188"/>
       <use xlink:href="#DejaVuSans-69" x="343.746094"/>
       <use xlink:href="#DejaVuSans-6e" x="371.529297"/>
       <use xlink:href="#DejaVuSans-67" x="434.908203"/>
      </g>
      <!--  classifier -->
      <g transform="translate(153.325828 329.69225) scale(0.1 -0.1)">
       <use xlink:href="#DejaVuSans-20"/>
       <use xlink:href="#DejaVuSans-63" x="31.787109"/>
       <use xlink:href="#DejaVuSans-6c" x="86.767578"/>
       <use xlink:href="#DejaVuSans-61" x="114.550781"/>
       <use xlink:href="#DejaVuSans-73" x="175.830078"/>
       <use xlink:href="#DejaVuSans-73" x="227.929688"/>
       <use xlink:href="#DejaVuSans-69" x="280.029297"/>
       <use xlink:href="#DejaVuSans-66" x="307.8125"/>
       <use xlink:href="#DejaVuSans-69" x="343.017578"/>
       <use xlink:href="#DejaVuSans-65" x="370.800781"/>
       <use xlink:href="#DejaVuSans-72" x="432.324219"/>
      </g>
     </g>
    </g>
    <g id="xtick_3">
     <g id="line2d_3">
      <g>
       <use xlink:href="#m53d61231d4" x="254.340414" y="303.896" style="stroke: #000000; stroke-width: 0.8"/>
      </g>
     </g>
     <g id="text_3">
      <!-- Executive -->
      <g transform="translate(229.998227 318.494438) scale(0.1 -0.1)">
       <defs>
        <path id="DejaVuSans-45" d="M 628 4666 
L 3578 4666 
L 3578 4134 
L 1259 4134 
L 1259 2753 
L 3481 2753 
L 3481 2222 
L 1259 2222 
L 1259 531 
L 3634 531 
L 3634 0 
L 628 0 
L 628 4666 
z
" transform="scale(0.015625)"/>
        <path id="DejaVuSans-78" d="M 3513 3500 
L 2247 1797 
L 3578 0 
L 2900 0 
L 1881 1375 
L 863 0 
L 184 0 
L 1544 1831 
L 300 3500 
L 978 3500 
L 1906 2253 
L 2834 3500 
L 3513 3500 
z
" transform="scale(0.015625)"/>
        <path id="DejaVuSans-74" d="M 1172 4494 
L 1172 3500 
L 2356 3500 
L 2356 3053 
L 1172 3053 
L 1172 1153 
Q 1172 725 1289 603 
Q 1406 481 1766 481 
L 2356 481 
L 2356 0 
L 1766 0 
Q 1100 0 847 248 
Q 594 497 594 1153 
L 594 3053 
L 172 3053 
L 172 3500 
L 594 3500 
L 594 4494 
L 1172 4494 
z
" transform="scale(0.015625)"/>
        <path id="DejaVuSans-76" d="M 191 3500 
L 800 3500 
L 1894 563 
L 2988 3500 
L 3597 3500 
L 2284 0 
L 1503 0 
L 191 3500 
z
" transform="scale(0.015625)"/>
       </defs>
       <use xlink:href="#DejaVuSans-45"/>
       <use xlink:href="#DejaVuSans-78" x="63.183594"/>
       <use xlink:href="#DejaVuSans-65" x="119.238281"/>
       <use xlink:href="#DejaVuSans-63" x="180.761719"/>
       <use xlink:href="#DejaVuSans-75" x="235.742188"/>
       <use xlink:href="#DejaVuSans-74" x="299.121094"/>
       <use xlink:href="#DejaVuSans-69" x="338.330078"/>
       <use xlink:href="#DejaVuSans-76" x="366.113281"/>
       <use xlink:href="#DejaVuSans-65" x="425.292969"/>
      </g>
      <!--  classifier -->
      <g transform="translate(230.66932 329.69225) scale(0.1 -0.1)">
       <use xlink:href="#DejaVuSans-20"/>
       <use xlink:href="#DejaVuSans-63" x="31.787109"/>
       <use xlink:href="#DejaVuSans-6c" x="86.767578"/>
       <use xlink:href="#DejaVuSans-61" x="114.550781"/>
       <use xlink:href="#DejaVuSans-73" x="175.830078"/>
       <use xlink:href="#DejaVuSans-73" x="227.929688"/>
       <use xlink:href="#DejaVuSans-69" x="280.029297"/>
       <use xlink:href="#DejaVuSans-66" x="307.8125"/>
       <use xlink:href="#DejaVuSans-69" x="343.017578"/>
       <use xlink:href="#DejaVuSans-65" x="370.800781"/>
       <use xlink:href="#DejaVuSans-72" x="432.324219"/>
      </g>
     </g>
    </g>
    <g id="xtick_4">
     <g id="line2d_4">
      <g>
       <use xlink:href="#m53d61231d4" x="331.683907" y="303.896" style="stroke: #000000; stroke-width: 0.8"/>
      </g>
     </g>
     <g id="text_4">
      <!-- Structural -->
      <g transform="translate(306.938594 318.494438) scale(0.1 -0.1)">
       <use xlink:href="#DejaVuSans-53"/>
       <use xlink:href="#DejaVuSans-74" x="63.476562"/>
       <use xlink:href="#DejaVuSans-72" x="102.685547"/>
       <use xlink:href="#DejaVuSans-75" x="143.798828"/>
       <use xlink:href="#DejaVuSans-63" x="207.177734"/>
       <use xlink:href="#DejaVuSans-74" x="262.158203"/>
       <use xlink:href="#DejaVuSans-75" x="301.367188"/>
       <use xlink:href="#DejaVuSans-72" x="364.746094"/>
       <use xlink:href="#DejaVuSans-61" x="405.859375"/>
       <use xlink:href="#DejaVuSans-6c" x="467.138672"/>
      </g>
      <!--  classifier -->
      <g transform="translate(308.012813 329.69225) scale(0.1 -0.1)">
       <use xlink:href="#DejaVuSans-20"/>
       <use xlink:href="#DejaVuSans-63" x="31.787109"/>
       <use xlink:href="#DejaVuSans-6c" x="86.767578"/>
       <use xlink:href="#DejaVuSans-61" x="114.550781"/>
       <use xlink:href="#DejaVuSans-73" x="175.830078"/>
       <use xlink:href="#DejaVuSans-73" x="227.929688"/>
       <use xlink:href="#DejaVuSans-69" x="280.029297"/>
       <use xlink:href="#DejaVuSans-66" x="307.8125"/>
       <use xlink:href="#DejaVuSans-69" x="343.017578"/>
       <use xlink:href="#DejaVuSans-65" x="370.800781"/>
       <use xlink:href="#DejaVuSans-72" x="432.324219"/>
      </g>
     </g>
    </g>
    <g id="xtick_5">
     <g id="line2d_5">
      <g>
       <use xlink:href="#m53d61231d4" x="409.027399" y="303.896" style="stroke: #000000; stroke-width: 0.8"/>
      </g>
     </g>
     <g id="text_5">
      <!-- Functional -->
      <g transform="translate(383.30943 318.494438) scale(0.1 -0.1)">
       <defs>
        <path id="DejaVuSans-6f" d="M 1959 3097 
Q 1497 3097 1228 2736 
Q 959 2375 959 1747 
Q 959 1119 1226 758 
Q 1494 397 1959 397 
Q 2419 397 2687 759 
Q 2956 1122 2956 1747 
Q 2956 2369 2687 2733 
Q 2419 3097 1959 3097 
z
M 1959 3584 
Q 2709 3584 3137 3096 
Q 3566 2609 3566 1747 
Q 3566 888 3137 398 
Q 2709 -91 1959 -91 
Q 1206 -91 779 398 
Q 353 888 353 1747 
Q 353 2609 779 3096 
Q 1206 3584 1959 3584 
z
" transform="scale(0.015625)"/>
       </defs>
       <use xlink:href="#DejaVuSans-46"/>
       <use xlink:href="#DejaVuSans-75" x="52.019531"/>
       <use xlink:href="#DejaVuSans-6e" x="115.398438"/>
       <use xlink:href="#DejaVuSans-63" x="178.777344"/>
       <use xlink:href="#DejaVuSans-74" x="233.757812"/>
       <use xlink:href="#DejaVuSans-69" x="272.966797"/>
       <use xlink:href="#DejaVuSans-6f" x="300.75"/>
       <use xlink:href="#DejaVuSans-6e" x="361.931641"/>
       <use xlink:href="#DejaVuSans-61" x="425.310547"/>
       <use xlink:href="#DejaVuSans-6c" x="486.589844"/>
      </g>
      <!--  classifier -->
      <g transform="translate(385.356305 329.69225) scale(0.1 -0.1)">
       <use xlink:href="#DejaVuSans-20"/>
       <use xlink:href="#DejaVuSans-63" x="31.787109"/>
       <use xlink:href="#DejaVuSans-6c" x="86.767578"/>
       <use xlink:href="#DejaVuSans-61" x="114.550781"/>
       <use xlink:href="#DejaVuSans-73" x="175.830078"/>
       <use xlink:href="#DejaVuSans-73" x="227.929688"/>
       <use xlink:href="#DejaVuSans-69" x="280.029297"/>
       <use xlink:href="#DejaVuSans-66" x="307.8125"/>
       <use xlink:href="#DejaVuSans-69" x="343.017578"/>
       <use xlink:href="#DejaVuSans-65" x="370.800781"/>
       <use xlink:href="#DejaVuSans-72" x="432.324219"/>
      </g>
     </g>
    </g>
   </g>
   <g id="matplotlib.axis_2">
    <g id="ytick_1">
     <g id="line2d_6">
      <defs>
       <path id="m720a604406" d="M 0 0 
L -3.5 0 
" style="stroke: #000000; stroke-width: 0.8"/>
      </defs>
      <g>
       <use xlink:href="#m720a604406" x="52.76" y="282.205091" style="stroke: #000000; stroke-width: 0.8"/>
      </g>
     </g>
     <g id="text_6">
      <!-- 0.3 -->
      <g transform="translate(29.856875 286.004309) scale(0.1 -0.1)">
       <defs>
        <path id="DejaVuSans-30" d="M 2034 4250 
Q 1547 4250 1301 3770 
Q 1056 3291 1056 2328 
Q 1056 1369 1301 889 
Q 1547 409 2034 409 
Q 2525 409 2770 889 
Q 3016 1369 3016 2328 
Q 3016 3291 2770 3770 
Q 2525 4250 2034 4250 
z
M 2034 4750 
Q 2819 4750 3233 4129 
Q 3647 3509 3647 2328 
Q 3647 1150 3233 529 
Q 2819 -91 2034 -91 
Q 1250 -91 836 529 
Q 422 1150 422 2328 
Q 422 3509 836 4129 
Q 1250 4750 2034 4750 
z
" transform="scale(0.015625)"/>
        <path id="DejaVuSans-2e" d="M 684 794 
L 1344 794 
L 1344 0 
L 684 0 
L 684 794 
z
" transform="scale(0.015625)"/>
        <path id="DejaVuSans-33" d="M 2597 2516 
Q 3050 2419 3304 2112 
Q 3559 1806 3559 1356 
Q 3559 666 3084 287 
Q 2609 -91 1734 -91 
Q 1441 -91 1130 -33 
Q 819 25 488 141 
L 488 750 
Q 750 597 1062 519 
Q 1375 441 1716 441 
Q 2309 441 2620 675 
Q 2931 909 2931 1356 
Q 2931 1769 2642 2001 
Q 2353 2234 1838 2234 
L 1294 2234 
L 1294 2753 
L 1863 2753 
Q 2328 2753 2575 2939 
Q 2822 3125 2822 3475 
Q 2822 3834 2567 4026 
Q 2313 4219 1838 4219 
Q 1578 4219 1281 4162 
Q 984 4106 628 3988 
L 628 4550 
Q 988 4650 1302 4700 
Q 1616 4750 1894 4750 
Q 2613 4750 3031 4423 
Q 3450 4097 3450 3541 
Q 3450 3153 3228 2886 
Q 3006 2619 2597 2516 
z
" transform="scale(0.015625)"/>
       </defs>
       <use xlink:href="#DejaVuSans-30"/>
       <use xlink:href="#DejaVuSans-2e" x="63.623047"/>
       <use xlink:href="#DejaVuSans-33" x="95.410156"/>
      </g>
     </g>
    </g>
    <g id="ytick_2">
     <g id="line2d_7">
      <g>
       <use xlink:href="#m720a604406" x="52.76" y="245.583853" style="stroke: #000000; stroke-width: 0.8"/>
      </g>
     </g>
     <g id="text_7">
      <!-- 0.4 -->
      <g transform="translate(29.856875 249.383072) scale(0.1 -0.1)">
       <defs>
        <path id="DejaVuSans-34" d="M 2419 4116 
L 825 1625 
L 2419 1625 
L 2419 4116 
z
M 2253 4666 
L 3047 4666 
L 3047 1625 
L 3713 1625 
L 3713 1100 
L 3047 1100 
L 3047 0 
L 2419 0 
L 2419 1100 
L 313 1100 
L 313 1709 
L 2253 4666 
z
" transform="scale(0.015625)"/>
       </defs>
       <use xlink:href="#DejaVuSans-30"/>
       <use xlink:href="#DejaVuSans-2e" x="63.623047"/>
       <use xlink:href="#DejaVuSans-34" x="95.410156"/>
      </g>
     </g>
    </g>
    <g id="ytick_3">
     <g id="line2d_8">
      <g>
       <use xlink:href="#m720a604406" x="52.76" y="208.962615" style="stroke: #000000; stroke-width: 0.8"/>
      </g>
     </g>
     <g id="text_8">
      <!-- 0.5 -->
      <g transform="translate(29.856875 212.761834) scale(0.1 -0.1)">
       <defs>
        <path id="DejaVuSans-35" d="M 691 4666 
L 3169 4666 
L 3169 4134 
L 1269 4134 
L 1269 2991 
Q 1406 3038 1543 3061 
Q 1681 3084 1819 3084 
Q 2600 3084 3056 2656 
Q 3513 2228 3513 1497 
Q 3513 744 3044 326 
Q 2575 -91 1722 -91 
Q 1428 -91 1123 -41 
Q 819 9 494 109 
L 494 744 
Q 775 591 1075 516 
Q 1375 441 1709 441 
Q 2250 441 2565 725 
Q 2881 1009 2881 1497 
Q 2881 1984 2565 2268 
Q 2250 2553 1709 2553 
Q 1456 2553 1204 2497 
Q 953 2441 691 2322 
L 691 4666 
z
" transform="scale(0.015625)"/>
       </defs>
       <use xlink:href="#DejaVuSans-30"/>
       <use xlink:href="#DejaVuSans-2e" x="63.623047"/>
       <use xlink:href="#DejaVuSans-35" x="95.410156"/>
      </g>
     </g>
    </g>
    <g id="ytick_4">
     <g id="line2d_9">
      <g>
       <use xlink:href="#m720a604406" x="52.76" y="172.341377" style="stroke: #000000; stroke-width: 0.8"/>
      </g>
     </g>
     <g id="text_9">
      <!-- 0.6 -->
      <g transform="translate(29.856875 176.140596) scale(0.1 -0.1)">
       <defs>
        <path id="DejaVuSans-36" d="M 2113 2584 
Q 1688 2584 1439 2293 
Q 1191 2003 1191 1497 
Q 1191 994 1439 701 
Q 1688 409 2113 409 
Q 2538 409 2786 701 
Q 3034 994 3034 1497 
Q 3034 2003 2786 2293 
Q 2538 2584 2113 2584 
z
M 3366 4563 
L 3366 3988 
Q 3128 4100 2886 4159 
Q 2644 4219 2406 4219 
Q 1781 4219 1451 3797 
Q 1122 3375 1075 2522 
Q 1259 2794 1537 2939 
Q 1816 3084 2150 3084 
Q 2853 3084 3261 2657 
Q 3669 2231 3669 1497 
Q 3669 778 3244 343 
Q 2819 -91 2113 -91 
Q 1303 -91 875 529 
Q 447 1150 447 2328 
Q 447 3434 972 4092 
Q 1497 4750 2381 4750 
Q 2619 4750 2861 4703 
Q 3103 4656 3366 4563 
z
" transform="scale(0.015625)"/>
       </defs>
       <use xlink:href="#DejaVuSans-30"/>
       <use xlink:href="#DejaVuSans-2e" x="63.623047"/>
       <use xlink:href="#DejaVuSans-36" x="95.410156"/>
      </g>
     </g>
    </g>
    <g id="ytick_5">
     <g id="line2d_10">
      <g>
       <use xlink:href="#m720a604406" x="52.76" y="135.720139" style="stroke: #000000; stroke-width: 0.8"/>
      </g>
     </g>
     <g id="text_10">
      <!-- 0.7 -->
      <g transform="translate(29.856875 139.519358) scale(0.1 -0.1)">
       <defs>
        <path id="DejaVuSans-37" d="M 525 4666 
L 3525 4666 
L 3525 4397 
L 1831 0 
L 1172 0 
L 2766 4134 
L 525 4134 
L 525 4666 
z
" transform="scale(0.015625)"/>
       </defs>
       <use xlink:href="#DejaVuSans-30"/>
       <use xlink:href="#DejaVuSans-2e" x="63.623047"/>
       <use xlink:href="#DejaVuSans-37" x="95.410156"/>
      </g>
     </g>
    </g>
    <g id="ytick_6">
     <g id="line2d_11">
      <g>
       <use xlink:href="#m720a604406" x="52.76" y="99.098901" style="stroke: #000000; stroke-width: 0.8"/>
      </g>
     </g>
     <g id="text_11">
      <!-- 0.8 -->
      <g transform="translate(29.856875 102.89812) scale(0.1 -0.1)">
       <defs>
        <path id="DejaVuSans-38" d="M 2034 2216 
Q 1584 2216 1326 1975 
Q 1069 1734 1069 1313 
Q 1069 891 1326 650 
Q 1584 409 2034 409 
Q 2484 409 2743 651 
Q 3003 894 3003 1313 
Q 3003 1734 2745 1975 
Q 2488 2216 2034 2216 
z
M 1403 2484 
Q 997 2584 770 2862 
Q 544 3141 544 3541 
Q 544 4100 942 4425 
Q 1341 4750 2034 4750 
Q 2731 4750 3128 4425 
Q 3525 4100 3525 3541 
Q 3525 3141 3298 2862 
Q 3072 2584 2669 2484 
Q 3125 2378 3379 2068 
Q 3634 1759 3634 1313 
Q 3634 634 3220 271 
Q 2806 -91 2034 -91 
Q 1263 -91 848 271 
Q 434 634 434 1313 
Q 434 1759 690 2068 
Q 947 2378 1403 2484 
z
M 1172 3481 
Q 1172 3119 1398 2916 
Q 1625 2713 2034 2713 
Q 2441 2713 2670 2916 
Q 2900 3119 2900 3481 
Q 2900 3844 2670 4047 
Q 2441 4250 2034 4250 
Q 1625 4250 1398 4047 
Q 1172 3844 1172 3481 
z
" transform="scale(0.015625)"/>
       </defs>
       <use xlink:href="#DejaVuSans-30"/>
       <use xlink:href="#DejaVuSans-2e" x="63.623047"/>
       <use xlink:href="#DejaVuSans-38" x="95.410156"/>
      </g>
     </g>
    </g>
    <g id="ytick_7">
     <g id="line2d_12">
      <g>
       <use xlink:href="#m720a604406" x="52.76" y="62.477663" style="stroke: #000000; stroke-width: 0.8"/>
      </g>
     </g>
     <g id="text_12">
      <!-- 0.9 -->
      <g transform="translate(29.856875 66.276882) scale(0.1 -0.1)">
       <defs>
        <path id="DejaVuSans-39" d="M 703 97 
L 703 672 
Q 941 559 1184 500 
Q 1428 441 1663 441 
Q 2288 441 2617 861 
Q 2947 1281 2994 2138 
Q 2813 1869 2534 1725 
Q 2256 1581 1919 1581 
Q 1219 1581 811 2004 
Q 403 2428 403 3163 
Q 403 3881 828 4315 
Q 1253 4750 1959 4750 
Q 2769 4750 3195 4129 
Q 3622 3509 3622 2328 
Q 3622 1225 3098 567 
Q 2575 -91 1691 -91 
Q 1453 -91 1209 -44 
Q 966 3 703 97 
z
M 1959 2075 
Q 2384 2075 2632 2365 
Q 2881 2656 2881 3163 
Q 2881 3666 2632 3958 
Q 2384 4250 1959 4250 
Q 1534 4250 1286 3958 
Q 1038 3666 1038 3163 
Q 1038 2656 1286 2365 
Q 1534 2075 1959 2075 
z
" transform="scale(0.015625)"/>
       </defs>
       <use xlink:href="#DejaVuSans-30"/>
       <use xlink:href="#DejaVuSans-2e" x="63.623047"/>
       <use xlink:href="#DejaVuSans-39" x="95.410156"/>
      </g>
     </g>
    </g>
    <g id="ytick_8">
     <g id="line2d_13">
      <g>
       <use xlink:href="#m720a604406" x="52.76" y="25.856425" style="stroke: #000000; stroke-width: 0.8"/>
      </g>
     </g>
     <g id="text_13">
      <!-- 1.0 -->
      <g transform="translate(29.856875 29.655644) scale(0.1 -0.1)">
       <defs>
        <path id="DejaVuSans-31" d="M 794 531 
L 1825 531 
L 1825 4091 
L 703 3866 
L 703 4441 
L 1819 4666 
L 2450 4666 
L 2450 531 
L 3481 531 
L 3481 0 
L 794 0 
L 794 531 
z
" transform="scale(0.015625)"/>
       </defs>
       <use xlink:href="#DejaVuSans-31"/>
       <use xlink:href="#DejaVuSans-2e" x="63.623047"/>
       <use xlink:href="#DejaVuSans-30" x="95.410156"/>
      </g>
     </g>
    </g>
    <g id="text_14">
     <!-- F1 -->
     <g transform="translate(23.36125 165.696437) rotate(-90) scale(0.12 -0.12)">
      <use xlink:href="#DejaVuSans-46"/>
      <use xlink:href="#DejaVuSans-31" x="57.519531"/>
     </g>
    </g>
   </g>
   <g id="LineCollection_1">
    <path d="M 99.653429 158.146985 
L 99.653429 90.071766 
" clip-path="url(#pfc79464581)" style="fill: none; stroke: #000000; stroke-width: 1.5"/>
    <path d="M 176.996922 120.621203 
L 176.996922 50.158279 
" clip-path="url(#pfc79464581)" style="fill: none; stroke: #000000; stroke-width: 1.5"/>
    <path d="M 254.340414 166.81157 
L 254.340414 84.384488 
" clip-path="url(#pfc79464581)" style="fill: none; stroke: #000000; stroke-width: 1.5"/>
    <path d="M 331.683907 122.540155 
L 331.683907 63.810676 
" clip-path="url(#pfc79464581)" style="fill: none; stroke: #000000; stroke-width: 1.5"/>
    <path d="M 409.027399 222.164571 
L 409.027399 141.927439 
" clip-path="url(#pfc79464581)" style="fill: none; stroke: #000000; stroke-width: 1.5"/>
   </g>
   <g id="line2d_14">
    <defs>
     <path id="md2fa6855c3" d="M 5 0 
L -5 -0 
" style="stroke: #000000"/>
    </defs>
    <g clip-path="url(#pfc79464581)">
     <use xlink:href="#md2fa6855c3" x="99.653429" y="158.146985" style="stroke: #000000"/>
     <use xlink:href="#md2fa6855c3" x="176.996922" y="120.621203" style="stroke: #000000"/>
     <use xlink:href="#md2fa6855c3" x="254.340414" y="166.81157" style="stroke: #000000"/>
     <use xlink:href="#md2fa6855c3" x="331.683907" y="122.540155" style="stroke: #000000"/>
     <use xlink:href="#md2fa6855c3" x="409.027399" y="222.164571" style="stroke: #000000"/>
    </g>
   </g>
   <g id="line2d_15">
    <g clip-path="url(#pfc79464581)">
     <use xlink:href="#md2fa6855c3" x="99.653429" y="90.071766" style="stroke: #000000"/>
     <use xlink:href="#md2fa6855c3" x="176.996922" y="50.158279" style="stroke: #000000"/>
     <use xlink:href="#md2fa6855c3" x="254.340414" y="84.384488" style="stroke: #000000"/>
     <use xlink:href="#md2fa6855c3" x="331.683907" y="63.810676" style="stroke: #000000"/>
     <use xlink:href="#md2fa6855c3" x="409.027399" y="141.927439" style="stroke: #000000"/>
    </g>
   </g>
   <g id="line2d_16">
    <defs>
     <path id="mf1b6e303fc" d="M 0 5.656854 
L 5.656854 0 
L 0 -5.656854 
L -5.656854 0 
z
" style="stroke: #000000; stroke-linejoin: miter"/>
    </defs>
    <g clip-path="url(#pfc79464581)">
     <use xlink:href="#mf1b6e303fc" x="99.653429" y="119.991317" style="stroke: #000000; stroke-linejoin: miter"/>
     <use xlink:href="#mf1b6e303fc" x="176.996922" y="80.938429" style="stroke: #000000; stroke-linejoin: miter"/>
     <use xlink:href="#mf1b6e303fc" x="254.340414" y="120.800647" style="stroke: #000000; stroke-linejoin: miter"/>
     <use xlink:href="#mf1b6e303fc" x="331.683907" y="88.460431" style="stroke: #000000; stroke-linejoin: miter"/>
     <use xlink:href="#mf1b6e303fc" x="409.027399" y="178.731783" style="stroke: #000000; stroke-linejoin: miter"/>
    </g>
   </g>
   <g id="patch_3">
    <path d="M 52.76 303.896 
L 52.76 12.96 
" style="fill: none; stroke: #000000; stroke-width: 0.8; stroke-linejoin: miter; stroke-linecap: square"/>
   </g>
   <g id="patch_4">
    <path d="M 447.84 303.896 
L 447.84 12.96 
" style="fill: none; stroke: #000000; stroke-width: 0.8; stroke-linejoin: miter; stroke-linecap: square"/>
   </g>
   <g id="patch_5">
    <path d="M 52.76 303.896 
L 447.84 303.896 
" style="fill: none; stroke: #000000; stroke-width: 0.8; stroke-linejoin: miter; stroke-linecap: square"/>
   </g>
   <g id="patch_6">
    <path d="M 52.76 12.96 
L 447.84 12.96 
" style="fill: none; stroke: #000000; stroke-width: 0.8; stroke-linejoin: miter; stroke-linecap: square"/>
   </g>
  </g>
 </g>
 <defs>
  <clipPath id="pfc79464581">
   <rect x="52.76" y="12.96" width="395.08" height="290.936"/>
  </clipPath>
 </defs>
</svg>
