<?xml version="1.0" encoding="utf-8" standalone="no"?>
<!DOCTYPE svg PUBLIC "-//W3C//DTD SVG 1.1//EN"
  "http://www.w3.org/Graphics/SVG/1.1/DTD/svg11.dtd">
<svg xmlns:xlink="http://www.w3.org/1999/xlink" width="460.8pt" height="345.6pt" viewBox="0 0 460.8 345.6" xmlns="http://www.w3.org/2000/svg" version="1.1">
 <metadata>
  <rdf:RDF xmlns:dc="http://purl.org/dc/elements/1.1/" xmlns:cc="http://creativecommons.org/ns#" xmlns:rdf="http://www.w3.org/1999/02/22-rdf-syntax-ns#">
   <cc:Work>
    <dc:type rdf:resource="http://purl.org/dc/dcmitype/StillImage"/>
    <dc:date>2025-09-22T13:48:47.179421</dc:date>
    <dc:format>image/svg+xml</dc:format>
    <dc:creator>
     <cc:Agent>
      <dc:title>Matplotlib v3.9.4, https://matplotlib.org/</dc:title>
     </cc:Agent>
    </dc:creator>
   </cc:Work>
  </rdf:RDF>
 </metadata>
 <defs>
  <style type="text/css">*{stroke-linejoin: round; stroke-linecap: butt}</style>
 </defs>
 <g id="figure_1">
  <g id="patch_1">
   <path d="M 0 345.6 
L 460.8 345.6 
L 460.8 0 
L 0 0 
z
" style="fill: #ffffff"/>
  </g>
  <g id="axes_1">
   <g id="patch_2">
    <path d="M 59.06 303.896 
L 447.84 303.896 
L 447.84 12.96 
L 59.06 12.96 
z
" style="fill: #ffffff"/>
   </g>
   <g id="PolyCollection_1">
    <defs>
     <path id="m30d5d3556c" d="M 103.62714 -96.770393 
L 103.573903 -96.770393 
L 103.545043 -98.080865 
L 103.493508 -99.391337 
L 103.408736 -100.70181 
L 103.279809 -102.012282 
L 103.097584 -103.322754 
L 102.856299 -104.633227 
L 102.553233 -105.943699 
L 102.185717 -107.254171 
L 101.74656 -108.564644 
L 101.220486 -109.875116 
L 100.58409 -111.185589 
L 99.809844 -112.496061 
L 98.87271 -113.806533 
L 97.757381 -115.117006 
L 96.464459 -116.427478 
L 95.013211 -117.73795 
L 93.437741 -119.048423 
L 91.7755 -120.358895 
L 90.053218 -121.669367 
L 88.280749 -122.97984 
L 86.461017 -124.290312 
L 84.612728 -125.600784 
L 82.789905 -126.911257 
L 81.080884 -128.221729 
L 79.583705 -129.532202 
L 78.374509 -130.842674 
L 77.491996 -132.153146 
L 76.945678 -133.463619 
L 76.731818 -134.774091 
L 76.833266 -136.084563 
L 77.198001 -137.395036 
L 77.718859 -138.705508 
L 78.245129 -140.01598 
L 78.634515 -141.326453 
L 78.819341 -142.636925 
L 78.844256 -143.947397 
L 78.848935 -145.25787 
L 79.005283 -146.568342 
L 79.445872 -147.878815 
L 80.219965 -149.189287 
L 81.290944 -150.499759 
L 82.565223 -151.810232 
L 83.932959 -153.120704 
L 85.303866 -154.431176 
L 86.628029 -155.741649 
L 87.897503 -157.052121 
L 89.13153 -158.362593 
L 90.355394 -159.673066 
L 91.584475 -160.983538 
L 92.818305 -162.29401 
L 94.040679 -163.604483 
L 95.220158 -164.914955 
L 96.311144 -166.225428 
L 97.261217 -167.5359 
L 98.02792 -168.846372 
L 98.599296 -170.156845 
L 99.005739 -171.467317 
L 99.313081 -172.777789 
L 99.59773 -174.088262 
L 99.916384 -175.398734 
L 100.286837 -176.709206 
L 100.68957 -178.019679 
L 101.086875 -179.330151 
L 101.446319 -180.640623 
L 101.75484 -181.951096 
L 102.017936 -183.261568 
L 102.248498 -184.57204 
L 102.454965 -185.882513 
L 102.636327 -187.192985 
L 102.785142 -188.503458 
L 102.894392 -189.81393 
L 102.962766 -191.124402 
L 102.995663 -192.434875 
L 103.002721 -193.745347 
L 102.994488 -195.055819 
L 102.980341 -196.366292 
L 102.96817 -197.676764 
L 102.964999 -198.987236 
L 102.977317 -200.297709 
L 103.010309 -201.608181 
L 103.066125 -202.918653 
L 103.142227 -204.229126 
L 103.231108 -205.539598 
L 103.321957 -206.850071 
L 103.403645 -208.160543 
L 103.467632 -209.471015 
L 103.509614 -210.781488 
L 103.529688 -212.09196 
L 103.531569 -213.402432 
L 103.521527 -214.712905 
L 103.50717 -216.023377 
L 103.495897 -217.333849 
L 103.493078 -218.644322 
L 103.500622 -219.954794 
L 103.516756 -221.265266 
L 103.537262 -222.575739 
L 103.557512 -223.886211 
L 103.5742 -225.196684 
L 103.586022 -226.507156 
L 103.615021 -226.507156 
L 103.615021 -226.507156 
L 103.626843 -225.196684 
L 103.643531 -223.886211 
L 103.663781 -222.575739 
L 103.684287 -221.265266 
L 103.700421 -219.954794 
L 103.707965 -218.644322 
L 103.705146 -217.333849 
L 103.693873 -216.023377 
L 103.679516 -214.712905 
L 103.669474 -213.402432 
L 103.671355 -212.09196 
L 103.691428 -210.781488 
L 103.733411 -209.471015 
L 103.797397 -208.160543 
L 103.879085 -206.850071 
L 103.969934 -205.539598 
L 104.058815 -204.229126 
L 104.134917 -202.918653 
L 104.190733 -201.608181 
L 104.223725 -200.297709 
L 104.236043 -198.987236 
L 104.232872 -197.676764 
L 104.220702 -196.366292 
L 104.206555 -195.055819 
L 104.198322 -193.745347 
L 104.20538 -192.434875 
L 104.238277 -191.124402 
L 104.30665 -189.81393 
L 104.4159 -188.503458 
L 104.564716 -187.192985 
L 104.746077 -185.882513 
L 104.952545 -184.57204 
L 105.183106 -183.261568 
L 105.446202 -181.951096 
L 105.754724 -180.640623 
L 106.114168 -179.330151 
L 106.511472 -178.019679 
L 106.914205 -176.709206 
L 107.284659 -175.398734 
L 107.603312 -174.088262 
L 107.887961 -172.777789 
L 108.195303 -171.467317 
L 108.601746 -170.156845 
L 109.173123 -168.846372 
L 109.939825 -167.5359 
L 110.889899 -166.225428 
L 111.980885 -164.914955 
L 113.160363 -163.604483 
L 114.382738 -162.29401 
L 115.616567 -160.983538 
L 116.845649 -159.673066 
L 118.069512 -158.362593 
L 119.30354 -157.052121 
L 120.573014 -155.741649 
L 121.897177 -154.431176 
L 123.268084 -153.120704 
L 124.63582 -151.810232 
L 125.910099 -150.499759 
L 126.981077 -149.189287 
L 127.755171 -147.878815 
L 128.19576 -146.568342 
L 128.352108 -145.25787 
L 128.356786 -143.947397 
L 128.381702 -142.636925 
L 128.566528 -141.326453 
L 128.955914 -140.01598 
L 129.482184 -138.705508 
L 130.003042 -137.395036 
L 130.367777 -136.084563 
L 130.469224 -134.774091 
L 130.255364 -133.463619 
L 129.709047 -132.153146 
L 128.826533 -130.842674 
L 127.617337 -129.532202 
L 126.120159 -128.221729 
L 124.411138 -126.911257 
L 122.588315 -125.600784 
L 120.740026 -124.290312 
L 118.920294 -122.97984 
L 117.147824 -121.669367 
L 115.425543 -120.358895 
L 113.763302 -119.048423 
L 112.187832 -117.73795 
L 110.736584 -116.427478 
L 109.443661 -115.117006 
L 108.328333 -113.806533 
L 107.391199 -112.496061 
L 106.616953 -111.185589 
L 105.980557 -109.875116 
L 105.454483 -108.564644 
L 105.015325 -107.254171 
L 104.64781 -105.943699 
L 104.344743 -104.633227 
L 104.103458 -103.322754 
L 103.921233 -102.012282 
L 103.792306 -100.70181 
L 103.707534 -99.391337 
L 103.656 -98.080865 
L 103.62714 -96.770393 
z
" style="stroke: #3f3f3f; stroke-width: 1.25"/>
    </defs>
    <g clip-path="url(#ped492b88b8)">
     <use xlink:href="#m30d5d3556c" x="0" y="345.6" style="fill: #3274a1; stroke: #3f3f3f; stroke-width: 1.25"/>
    </g>
   </g>
   <g id="PolyCollection_2">
    <defs>
     <path id="me1e9c0b70a" d="M 179.714461 -54.928364 
L 179.676798 -54.928364 
L 179.660503 -56.038912 
L 179.635109 -57.149459 
L 179.598643 -58.260007 
L 179.549748 -59.370555 
L 179.487345 -60.481103 
L 179.409718 -61.591651 
L 179.313357 -62.702199 
L 179.191959 -63.812747 
L 179.035544 -64.923294 
L 178.829284 -66.033842 
L 178.5521 -67.14439 
L 178.17654 -68.254938 
L 177.672519 -69.365486 
L 177.016246 -70.476034 
L 176.2017 -71.586582 
L 175.248021 -72.697129 
L 174.196157 -73.807677 
L 173.093729 -74.918225 
L 171.974767 -76.028773 
L 170.844877 -77.139321 
L 169.67947 -78.249869 
L 168.435409 -79.360417 
L 167.070516 -80.470965 
L 165.563405 -81.581512 
L 163.927019 -82.69206 
L 162.210741 -83.802608 
L 160.488757 -84.913156 
L 158.837811 -86.023704 
L 157.313846 -87.134252 
L 155.939153 -88.2448 
L 154.7062 -89.355347 
L 153.594525 -90.465895 
L 152.590098 -91.576443 
L 151.697043 -92.686991 
L 150.937541 -93.797539 
L 150.341831 -94.908087 
L 149.933592 -96.018635 
L 149.717255 -97.129183 
L 149.674011 -98.23973 
L 149.770837 -99.350278 
L 149.980038 -100.460826 
L 150.298677 -101.571374 
L 150.754751 -102.681922 
L 151.394258 -103.79247 
L 152.255956 -104.903018 
L 153.3485 -106.013565 
L 154.641706 -107.124113 
L 156.073601 -108.234661 
L 157.566444 -109.345209 
L 159.043505 -110.455757 
L 160.442103 -111.566305 
L 161.722239 -112.676853 
L 162.871205 -113.7874 
L 163.903688 -114.897948 
L 164.856331 -116.008496 
L 165.776959 -117.119044 
L 166.710918 -118.229592 
L 167.688473 -119.34014 
L 168.716823 -120.450688 
L 169.778576 -121.561236 
L 170.837039 -122.671783 
L 171.847474 -123.782331 
L 172.77161 -124.892879 
L 173.590248 -126.003427 
L 174.308036 -127.113975 
L 174.947572 -128.224523 
L 175.535691 -129.335071 
L 176.089166 -130.445618 
L 176.607058 -131.556166 
L 177.072996 -132.666714 
L 177.465473 -133.777262 
L 177.770675 -134.88781 
L 177.991585 -135.998358 
L 178.149178 -137.108906 
L 178.275436 -138.219454 
L 178.401737 -139.330001 
L 178.548114 -140.440549 
L 178.717912 -141.551097 
L 178.899352 -142.661645 
L 179.072268 -143.772193 
L 179.216585 -144.882741 
L 179.319241 -145.993289 
L 179.377623 -147.103836 
L 179.399009 -148.214384 
L 179.396743 -149.324932 
L 179.384853 -150.43548 
L 179.373488 -151.546028 
L 179.367205 -152.656576 
L 179.366576 -153.767124 
L 179.371478 -154.877671 
L 179.38341 -155.988219 
L 179.405212 -157.098767 
L 179.438723 -158.209315 
L 179.482528 -159.319863 
L 179.53167 -160.430411 
L 179.57949 -161.540959 
L 179.620255 -162.651507 
L 179.650942 -163.762054 
L 179.671471 -164.872602 
L 179.719788 -164.872602 
L 179.719788 -164.872602 
L 179.740317 -163.762054 
L 179.771005 -162.651507 
L 179.811769 -161.540959 
L 179.859589 -160.430411 
L 179.908731 -159.319863 
L 179.952537 -158.209315 
L 179.986047 -157.098767 
L 180.00785 -155.988219 
L 180.019782 -154.877671 
L 180.024683 -153.767124 
L 180.024055 -152.656576 
L 180.017771 -151.546028 
L 180.006406 -150.43548 
L 179.994517 -149.324932 
L 179.99225 -148.214384 
L 180.013636 -147.103836 
L 180.072018 -145.993289 
L 180.174674 -144.882741 
L 180.318991 -143.772193 
L 180.491907 -142.661645 
L 180.673347 -141.551097 
L 180.843145 -140.440549 
L 180.989522 -139.330001 
L 181.115823 -138.219454 
L 181.242081 -137.108906 
L 181.399675 -135.998358 
L 181.620584 -134.88781 
L 181.925786 -133.777262 
L 182.318263 -132.666714 
L 182.784201 -131.556166 
L 183.302094 -130.445618 
L 183.855568 -129.335071 
L 184.443688 -128.224523 
L 185.083223 -127.113975 
L 185.801011 -126.003427 
L 186.619649 -124.892879 
L 187.543786 -123.782331 
L 188.55422 -122.671783 
L 189.612684 -121.561236 
L 190.674437 -120.450688 
L 191.702786 -119.34014 
L 192.680342 -118.229592 
L 193.6143 -117.119044 
L 194.534929 -116.008496 
L 195.487571 -114.897948 
L 196.520054 -113.7874 
L 197.669021 -112.676853 
L 198.949156 -111.566305 
L 200.347755 -110.455757 
L 201.824815 -109.345209 
L 203.317658 -108.234661 
L 204.749553 -107.124113 
L 206.04276 -106.013565 
L 207.135303 -104.903018 
L 207.997001 -103.79247 
L 208.636508 -102.681922 
L 209.092582 -101.571374 
L 209.411221 -100.460826 
L 209.620422 -99.350278 
L 209.717249 -98.23973 
L 209.674005 -97.129183 
L 209.457667 -96.018635 
L 209.049428 -94.908087 
L 208.453718 -93.797539 
L 207.694216 -92.686991 
L 206.801162 -91.576443 
L 205.796734 -90.465895 
L 204.685059 -89.355347 
L 203.452107 -88.2448 
L 202.077413 -87.134252 
L 200.553449 -86.023704 
L 198.902502 -84.913156 
L 197.180519 -83.802608 
L 195.464241 -82.69206 
L 193.827854 -81.581512 
L 192.320743 -80.470965 
L 190.95585 -79.360417 
L 189.71179 -78.249869 
L 188.546382 -77.139321 
L 187.416492 -76.028773 
L 186.29753 -74.918225 
L 185.195103 -73.807677 
L 184.143238 -72.697129 
L 183.189559 -71.586582 
L 182.375014 -70.476034 
L 181.71874 -69.365486 
L 181.21472 -68.254938 
L 180.83916 -67.14439 
L 180.561976 -66.033842 
L 180.355715 -64.923294 
L 180.1993 -63.812747 
L 180.077902 -62.702199 
L 179.981541 -61.591651 
L 179.903914 -60.481103 
L 179.841512 -59.370555 
L 179.792616 -58.260007 
L 179.75615 -57.149459 
L 179.730756 -56.038912 
L 179.714461 -54.928364 
z
" style="stroke: #3f3f3f; stroke-width: 1.25"/>
    </defs>
    <g clip-path="url(#ped492b88b8)">
     <use xlink:href="#me1e9c0b70a" x="0" y="345.6" style="fill: #3274a1; stroke: #3f3f3f; stroke-width: 1.25"/>
    </g>
   </g>
   <g id="PolyCollection_3">
    <defs>
     <path id="m5145afb2b4" d="M 255.820931 -85.441886 
L 255.760545 -85.441886 
L 255.729729 -86.900133 
L 255.676888 -88.35838 
L 255.593956 -89.816627 
L 255.474536 -91.274874 
L 255.316076 -92.73312 
L 255.120766 -94.191367 
L 254.893941 -95.649614 
L 254.640008 -97.107861 
L 254.357648 -98.566108 
L 254.037174 -100.024355 
L 253.662292 -101.482602 
L 253.216016 -102.940849 
L 252.687679 -104.399096 
L 252.076682 -105.857343 
L 251.390144 -107.31559 
L 250.635211 -108.773837 
L 249.810514 -110.232084 
L 248.902732 -111.690331 
L 247.892163 -113.148577 
L 246.766055 -114.606824 
L 245.532893 -116.065071 
L 244.22863 -117.523318 
L 242.909253 -118.981565 
L 241.631932 -120.439812 
L 240.434084 -121.898059 
L 239.321065 -123.356306 
L 238.268118 -124.814553 
L 237.235099 -126.2728 
L 236.18793 -127.731047 
L 235.119522 -129.189294 
L 234.062772 -130.647541 
L 233.089097 -132.105788 
L 232.290187 -133.564034 
L 231.748993 -135.022281 
L 231.513174 -136.480528 
L 231.583444 -137.938775 
L 231.919976 -139.397022 
L 232.459803 -140.855269 
L 233.134898 -142.313516 
L 233.884804 -143.771763 
L 234.663396 -145.23001 
L 235.44176 -146.688257 
L 236.208575 -148.146504 
L 236.968369 -149.604751 
L 237.737598 -151.062998 
L 238.538436 -152.521245 
L 239.390474 -153.979491 
L 240.302011 -155.437738 
L 241.264587 -156.895985 
L 242.254638 -158.354232 
L 243.242828 -159.812479 
L 244.206309 -161.270726 
L 245.136225 -162.728973 
L 246.035763 -164.18722 
L 246.91117 -165.645467 
L 247.763548 -167.103714 
L 248.587696 -168.561961 
L 249.37738 -170.020208 
L 250.130545 -171.478455 
L 250.848666 -172.936702 
L 251.530339 -174.394948 
L 252.164766 -175.853195 
L 252.731132 -177.311442 
L 253.205518 -178.769689 
L 253.571682 -180.227936 
L 253.8296 -181.686183 
L 253.997255 -183.14443 
L 254.105229 -184.602677 
L 254.18737 -186.060924 
L 254.271949 -187.519171 
L 254.376232 -188.977418 
L 254.505096 -190.435665 
L 254.652959 -191.893912 
L 254.808017 -193.352159 
L 254.95753 -194.810405 
L 255.092251 -196.268652 
L 255.208181 -197.726899 
L 255.305146 -199.185146 
L 255.3838 -200.643393 
L 255.443616 -202.10164 
L 255.483427 -203.559887 
L 255.503834 -205.018134 
L 255.509245 -206.476381 
L 255.507627 -207.934628 
L 255.507848 -209.392875 
L 255.516225 -210.851122 
L 255.534384 -212.309369 
L 255.55954 -213.767616 
L 255.58681 -215.225862 
L 255.612061 -216.684109 
L 255.633751 -218.142356 
L 255.652957 -219.600603 
L 255.671919 -221.05885 
L 255.692215 -222.517097 
L 255.713719 -223.975344 
L 255.7348 -225.433591 
L 255.753356 -226.891838 
L 255.76789 -228.350085 
L 255.778012 -229.808332 
L 255.803464 -229.808332 
L 255.803464 -229.808332 
L 255.813586 -228.350085 
L 255.82812 -226.891838 
L 255.846676 -225.433591 
L 255.867757 -223.975344 
L 255.889261 -222.517097 
L 255.909557 -221.05885 
L 255.928518 -219.600603 
L 255.947725 -218.142356 
L 255.969415 -216.684109 
L 255.994666 -215.225862 
L 256.021935 -213.767616 
L 256.047092 -212.309369 
L 256.065251 -210.851122 
L 256.073628 -209.392875 
L 256.073849 -207.934628 
L 256.072231 -206.476381 
L 256.077642 -205.018134 
L 256.098049 -203.559887 
L 256.13786 -202.10164 
L 256.197675 -200.643393 
L 256.276329 -199.185146 
L 256.373295 -197.726899 
L 256.489225 -196.268652 
L 256.623946 -194.810405 
L 256.773459 -193.352159 
L 256.928517 -191.893912 
L 257.076379 -190.435665 
L 257.205244 -188.977418 
L 257.309527 -187.519171 
L 257.394105 -186.060924 
L 257.476247 -184.602677 
L 257.584221 -183.14443 
L 257.751876 -181.686183 
L 258.009794 -180.227936 
L 258.375958 -178.769689 
L 258.850344 -177.311442 
L 259.41671 -175.853195 
L 260.051137 -174.394948 
L 260.73281 -172.936702 
L 261.450931 -171.478455 
L 262.204096 -170.020208 
L 262.99378 -168.561961 
L 263.817928 -167.103714 
L 264.670306 -165.645467 
L 265.545713 -164.18722 
L 266.445251 -162.728973 
L 267.375167 -161.270726 
L 268.338647 -159.812479 
L 269.326838 -158.354232 
L 270.316889 -156.895985 
L 271.279465 -155.437738 
L 272.191002 -153.979491 
L 273.04304 -152.521245 
L 273.843877 -151.062998 
L 274.613106 -149.604751 
L 275.372901 -148.146504 
L 276.139716 -146.688257 
L 276.91808 -145.23001 
L 277.696672 -143.771763 
L 278.446578 -142.313516 
L 279.121672 -140.855269 
L 279.6615 -139.397022 
L 279.998032 -137.938775 
L 280.068302 -136.480528 
L 279.832483 -135.022281 
L 279.291289 -133.564034 
L 278.492379 -132.105788 
L 277.518704 -130.647541 
L 276.461954 -129.189294 
L 275.393546 -127.731047 
L 274.346377 -126.2728 
L 273.313358 -124.814553 
L 272.260411 -123.356306 
L 271.147392 -121.898059 
L 269.949544 -120.439812 
L 268.672222 -118.981565 
L 267.352846 -117.523318 
L 266.048583 -116.065071 
L 264.815421 -114.606824 
L 263.689313 -113.148577 
L 262.678744 -111.690331 
L 261.770962 -110.232084 
L 260.946265 -108.773837 
L 260.191332 -107.31559 
L 259.504794 -105.857343 
L 258.893797 -104.399096 
L 258.365459 -102.940849 
L 257.919184 -101.482602 
L 257.544301 -100.024355 
L 257.223828 -98.566108 
L 256.941468 -97.107861 
L 256.687535 -95.649614 
L 256.46071 -94.191367 
L 256.2654 -92.73312 
L 256.10694 -91.274874 
L 255.98752 -89.816627 
L 255.904588 -88.35838 
L 255.851747 -86.900133 
L 255.820931 -85.441886 
z
" style="stroke: #3f3f3f; stroke-width: 1.25"/>
    </defs>
    <g clip-path="url(#ped492b88b8)">
     <use xlink:href="#m5145afb2b4" x="0" y="345.6" style="fill: #3274a1; stroke: #3f3f3f; stroke-width: 1.25"/>
    </g>
   </g>
   <g id="PolyCollection_4">
    <defs>
     <path id="mfe8f5528e8" d="M 331.914646 -71.165746 
L 331.857046 -71.165746 
L 331.829069 -72.351494 
L 331.783068 -73.537242 
L 331.714157 -74.722989 
L 331.619355 -75.908737 
L 331.497982 -77.094485 
L 331.350389 -78.280232 
L 331.175318 -79.46598 
L 330.9673 -80.651728 
L 330.715687 -81.837475 
L 330.405665 -83.023223 
L 330.019885 -84.208971 
L 329.538874 -85.394718 
L 328.939993 -86.580466 
L 328.197131 -87.766214 
L 327.283801 -88.951961 
L 326.179606 -90.137709 
L 324.87632 -91.323457 
L 323.379454 -92.509204 
L 321.705605 -93.694952 
L 319.880904 -94.8807 
L 317.945156 -96.066447 
L 315.958855 -97.252195 
L 314.003342 -98.437943 
L 312.166201 -99.62369 
L 310.51484 -100.809438 
L 309.072092 -101.995186 
L 307.809269 -103.180933 
L 306.663012 -104.366681 
L 305.569166 -105.552429 
L 304.497837 -106.738177 
L 303.473172 -107.923924 
L 302.568886 -109.109672 
L 301.881874 -110.29542 
L 301.495575 -111.481167 
L 301.447803 -112.666915 
L 301.715073 -113.852663 
L 302.220167 -115.03841 
L 302.862701 -116.224158 
L 303.562784 -117.409906 
L 304.297852 -118.595653 
L 305.111053 -119.781401 
L 306.082895 -120.967149 
L 307.280664 -122.152896 
L 308.715356 -123.338644 
L 310.330181 -124.524392 
L 312.022555 -125.710139 
L 313.681514 -126.895887 
L 315.21935 -128.081635 
L 316.587532 -129.267382 
L 317.77902 -130.45313 
L 318.822508 -131.638878 
L 319.771012 -132.824625 
L 320.68486 -134.010373 
L 321.611219 -135.196121 
L 322.566372 -136.381868 
L 323.528832 -137.567616 
L 324.448204 -138.753364 
L 325.267378 -139.939111 
L 325.948157 -141.124859 
L 326.487823 -142.310607 
L 326.918675 -143.496354 
L 327.291727 -144.682102 
L 327.653929 -145.86785 
L 328.030593 -147.053597 
L 328.420507 -148.239345 
L 328.803467 -149.425093 
L 329.153876 -150.61084 
L 329.452912 -151.796588 
L 329.694947 -152.982336 
L 329.888134 -154.168083 
L 330.051025 -155.353831 
L 330.206812 -156.539579 
L 330.376262 -157.725326 
L 330.571057 -158.911074 
L 330.790064 -160.096822 
L 331.02041 -161.282569 
L 331.24288 -162.468317 
L 331.439005 -163.654065 
L 331.596629 -164.839812 
L 331.712089 -166.02556 
L 331.789021 -167.211308 
L 331.835177 -168.397055 
L 331.858914 -169.582803 
L 331.866543 -170.768551 
L 331.861032 -171.954299 
L 331.842168 -173.140046 
L 331.808096 -174.325794 
L 331.75801 -175.511542 
L 331.695168 -176.697289 
L 331.628678 -177.883037 
L 331.572415 -179.068785 
L 331.540682 -180.254532 
L 331.542405 -181.44028 
L 331.577091 -182.626028 
L 331.635059 -183.811775 
L 331.701804 -184.997523 
L 331.763823 -186.183271 
L 331.812753 -187.369018 
L 331.846291 -188.554766 
L 331.925401 -188.554766 
L 331.925401 -188.554766 
L 331.958939 -187.369018 
L 332.00787 -186.183271 
L 332.069889 -184.997523 
L 332.136634 -183.811775 
L 332.194602 -182.626028 
L 332.229287 -181.44028 
L 332.231011 -180.254532 
L 332.199278 -179.068785 
L 332.143014 -177.883037 
L 332.076524 -176.697289 
L 332.013682 -175.511542 
L 331.963596 -174.325794 
L 331.929524 -173.140046 
L 331.91066 -171.954299 
L 331.90515 -170.768551 
L 331.912778 -169.582803 
L 331.936516 -168.397055 
L 331.982672 -167.211308 
L 332.059604 -166.02556 
L 332.175064 -164.839812 
L 332.332688 -163.654065 
L 332.528812 -162.468317 
L 332.751282 -161.282569 
L 332.981628 -160.096822 
L 333.200636 -158.911074 
L 333.39543 -157.725326 
L 333.564881 -156.539579 
L 333.720668 -155.353831 
L 333.883559 -154.168083 
L 334.076746 -152.982336 
L 334.318781 -151.796588 
L 334.617817 -150.61084 
L 334.968226 -149.425093 
L 335.351185 -148.239345 
L 335.7411 -147.053597 
L 336.117764 -145.86785 
L 336.479965 -144.682102 
L 336.853018 -143.496354 
L 337.283869 -142.310607 
L 337.823535 -141.124859 
L 338.504314 -139.939111 
L 339.323488 -138.753364 
L 340.242861 -137.567616 
L 341.205321 -136.381868 
L 342.160474 -135.196121 
L 343.086832 -134.010373 
L 344.000681 -132.824625 
L 344.949184 -131.638878 
L 345.992673 -130.45313 
L 347.184161 -129.267382 
L 348.552343 -128.081635 
L 350.090178 -126.895887 
L 351.749137 -125.710139 
L 353.441511 -124.524392 
L 355.056337 -123.338644 
L 356.491029 -122.152896 
L 357.688798 -120.967149 
L 358.66064 -119.781401 
L 359.47384 -118.595653 
L 360.208908 -117.409906 
L 360.908991 -116.224158 
L 361.551525 -115.03841 
L 362.056619 -113.852663 
L 362.32389 -112.666915 
L 362.276117 -111.481167 
L 361.889819 -110.29542 
L 361.202806 -109.109672 
L 360.29852 -107.923924 
L 359.273856 -106.738177 
L 358.202526 -105.552429 
L 357.108681 -104.366681 
L 355.962424 -103.180933 
L 354.6996 -101.995186 
L 353.256852 -100.809438 
L 351.605491 -99.62369 
L 349.768351 -98.437943 
L 347.812838 -97.252195 
L 345.826537 -96.066447 
L 343.890788 -94.8807 
L 342.066087 -93.694952 
L 340.392238 -92.509204 
L 338.895373 -91.323457 
L 337.592087 -90.137709 
L 336.487892 -88.951961 
L 335.574562 -87.766214 
L 334.831699 -86.580466 
L 334.232818 -85.394718 
L 333.751807 -84.208971 
L 333.366028 -83.023223 
L 333.056006 -81.837475 
L 332.804392 -80.651728 
L 332.596374 -79.46598 
L 332.421303 -78.280232 
L 332.27371 -77.094485 
L 332.152337 -75.908737 
L 332.057535 -74.722989 
L 331.988624 -73.537242 
L 331.942624 -72.351494 
L 331.914646 -71.165746 
z
" style="stroke: #3f3f3f; stroke-width: 1.25"/>
    </defs>
    <g clip-path="url(#ped492b88b8)">
     <use xlink:href="#mfe8f5528e8" x="0" y="345.6" style="fill: #3274a1; stroke: #3f3f3f; stroke-width: 1.25"/>
    </g>
   </g>
   <g id="PolyCollection_5">
    <defs>
     <path id="m88f71ca553" d="M 408.007788 -140.94907 
L 407.954121 -140.94907 
L 407.924511 -142.751763 
L 407.873181 -144.554455 
L 407.792563 -146.357148 
L 407.676008 -148.159841 
L 407.517266 -149.962533 
L 407.307913 -151.765226 
L 407.03408 -153.567918 
L 406.675155 -155.370611 
L 406.206414 -157.173303 
L 405.605307 -158.975996 
L 404.859178 -160.778689 
L 403.971201 -162.581381 
L 402.961495 -164.384074 
L 401.861877 -166.186766 
L 400.706021 -167.989459 
L 399.519855 -169.792152 
L 398.316857 -171.594844 
L 397.099229 -173.397537 
L 395.862323 -175.200229 
L 394.599659 -177.002922 
L 393.30819 -178.805615 
L 391.994829 -180.608307 
L 390.683502 -182.411 
L 389.418841 -184.213692 
L 388.26189 -186.016385 
L 387.277583 -187.819077 
L 386.519931 -189.62177 
L 386.02221 -191.424463 
L 385.793727 -193.227155 
L 385.819412 -195.029848 
L 386.061033 -196.83254 
L 386.465302 -198.635233 
L 386.982837 -200.437926 
L 387.590173 -202.240618 
L 388.297763 -204.043311 
L 389.133665 -205.846003 
L 390.11206 -207.648696 
L 391.209465 -209.451389 
L 392.365998 -211.254081 
L 393.50972 -213.056774 
L 394.586376 -214.859466 
L 395.576512 -216.662159 
L 396.49379 -218.464851 
L 397.370487 -220.267544 
L 398.240547 -222.070237 
L 399.127425 -223.872929 
L 400.038524 -225.675622 
L 400.964712 -227.478314 
L 401.883009 -229.281007 
L 402.761268 -231.0837 
L 403.563936 -232.886392 
L 404.258235 -234.689085 
L 404.820799 -236.491777 
L 405.244811 -238.29447 
L 405.545616 -240.097163 
L 405.76022 -241.899855 
L 405.937059 -243.702548 
L 406.118427 -245.50524 
L 406.324478 -247.307933 
L 406.548291 -249.110625 
L 406.764625 -250.913318 
L 406.946151 -252.716011 
L 407.077364 -254.518703 
L 407.159765 -256.321396 
L 407.208267 -258.124088 
L 407.243111 -259.926781 
L 407.282038 -261.729474 
L 407.335489 -263.532166 
L 407.405408 -265.334859 
L 407.486817 -267.137551 
L 407.570897 -268.940244 
L 407.648354 -270.742936 
L 407.712142 -272.545629 
L 407.758945 -274.348322 
L 407.789203 -276.151014 
L 407.80596 -277.953707 
L 407.813228 -279.756399 
L 407.81479 -281.559092 
L 407.813873 -283.361785 
L 407.813446 -285.164477 
L 407.81639 -286.96717 
L 407.82505 -288.769862 
L 407.840248 -290.572555 
L 407.860362 -292.375248 
L 407.881177 -294.17794 
L 407.896941 -295.980633 
L 407.902407 -297.783325 
L 407.895117 -299.586018 
L 407.876884 -301.38871 
L 407.85369 -303.191403 
L 407.833812 -304.994096 
L 407.824803 -306.796788 
L 407.830603 -308.599481 
L 407.8502 -310.402173 
L 407.878474 -312.204866 
L 407.908683 -314.007559 
L 407.935164 -315.810251 
L 407.954931 -317.612944 
L 407.967709 -319.415636 
L 407.9942 -319.415636 
L 407.9942 -319.415636 
L 408.006978 -317.612944 
L 408.026745 -315.810251 
L 408.053226 -314.007559 
L 408.083435 -312.204866 
L 408.11171 -310.402173 
L 408.131306 -308.599481 
L 408.137106 -306.796788 
L 408.128097 -304.994096 
L 408.108219 -303.191403 
L 408.085025 -301.38871 
L 408.066792 -299.586018 
L 408.059502 -297.783325 
L 408.064968 -295.980633 
L 408.080732 -294.17794 
L 408.101547 -292.375248 
L 408.121661 -290.572555 
L 408.136859 -288.769862 
L 408.145519 -286.96717 
L 408.148463 -285.164477 
L 408.148036 -283.361785 
L 408.147119 -281.559092 
L 408.148681 -279.756399 
L 408.155949 -277.953707 
L 408.172706 -276.151014 
L 408.202964 -274.348322 
L 408.249767 -272.545629 
L 408.313555 -270.742936 
L 408.391012 -268.940244 
L 408.475092 -267.137551 
L 408.556501 -265.334859 
L 408.62642 -263.532166 
L 408.679871 -261.729474 
L 408.718798 -259.926781 
L 408.753642 -258.124088 
L 408.802144 -256.321396 
L 408.884545 -254.518703 
L 409.015759 -252.716011 
L 409.197284 -250.913318 
L 409.413618 -249.110625 
L 409.637431 -247.307933 
L 409.843482 -245.50524 
L 410.02485 -243.702548 
L 410.201689 -241.899855 
L 410.416294 -240.097163 
L 410.717099 -238.29447 
L 411.14111 -236.491777 
L 411.703674 -234.689085 
L 412.397973 -232.886392 
L 413.200641 -231.0837 
L 414.0789 -229.281007 
L 414.997197 -227.478314 
L 415.923385 -225.675622 
L 416.834484 -223.872929 
L 417.721362 -222.070237 
L 418.591422 -220.267544 
L 419.468119 -218.464851 
L 420.385397 -216.662159 
L 421.375533 -214.859466 
L 422.452189 -213.056774 
L 423.595911 -211.254081 
L 424.752444 -209.451389 
L 425.849849 -207.648696 
L 426.828244 -205.846003 
L 427.664146 -204.043311 
L 428.371736 -202.240618 
L 428.979072 -200.437926 
L 429.496607 -198.635233 
L 429.900876 -196.83254 
L 430.142497 -195.029848 
L 430.168182 -193.227155 
L 429.939699 -191.424463 
L 429.441978 -189.62177 
L 428.684326 -187.819077 
L 427.700019 -186.016385 
L 426.543068 -184.213692 
L 425.278407 -182.411 
L 423.96708 -180.608307 
L 422.653719 -178.805615 
L 421.36225 -177.002922 
L 420.099586 -175.200229 
L 418.86268 -173.397537 
L 417.645052 -171.594844 
L 416.442054 -169.792152 
L 415.255888 -167.989459 
L 414.100032 -166.186766 
L 413.000414 -164.384074 
L 411.990708 -162.581381 
L 411.102731 -160.778689 
L 410.356602 -158.975996 
L 409.755495 -157.173303 
L 409.286754 -155.370611 
L 408.927829 -153.567918 
L 408.653996 -151.765226 
L 408.444643 -149.962533 
L 408.285901 -148.159841 
L 408.169346 -146.357148 
L 408.088728 -144.554455 
L 408.037398 -142.751763 
L 408.007788 -140.94907 
z
" style="stroke: #3f3f3f; stroke-width: 1.25"/>
    </defs>
    <g clip-path="url(#ped492b88b8)">
     <use xlink:href="#m88f71ca553" x="0" y="345.6" style="fill: #3274a1; stroke: #3f3f3f; stroke-width: 1.25"/>
    </g>
   </g>
   <g id="matplotlib.axis_1">
    <g id="xtick_1">
     <g id="line2d_1">
      <defs>
       <path id="m50d29033f3" d="M 0 0 
L 0 3.5 
" style="stroke: #000000; stroke-width: 0.8"/>
      </defs>
      <g>
       <use xlink:href="#m50d29033f3" x="103.600521" y="303.896" style="stroke: #000000; stroke-width: 0.8"/>
      </g>
     </g>
     <g id="text_1">
      <!-- Fluency -->
      <g transform="translate(84.213021 318.494438) scale(0.1 -0.1)">
       <defs>
        <path id="DejaVuSans-46" d="M 628 4666 
L 3309 4666 
L 3309 4134 
L 1259 4134 
L 1259 2759 
L 3109 2759 
L 3109 2228 
L 1259 2228 
L 1259 0 
L 628 0 
L 628 4666 
z
" transform="scale(0.015625)"/>
        <path id="DejaVuSans-6c" d="M 603 4863 
L 1178 4863 
L 1178 0 
L 603 0 
L 603 4863 
z
" transform="scale(0.015625)"/>
        <path id="DejaVuSans-75" d="M 544 1381 
L 544 3500 
L 1119 3500 
L 1119 1403 
Q 1119 906 1312 657 
Q 1506 409 1894 409 
Q 2359 409 2629 706 
Q 2900 1003 2900 1516 
L 2900 3500 
L 3475 3500 
L 3475 0 
L 2900 0 
L 2900 538 
Q 2691 219 2414 64 
Q 2138 -91 1772 -91 
Q 1169 -91 856 284 
Q 544 659 544 1381 
z
M 1991 3584 
L 1991 3584 
z
" transform="scale(0.015625)"/>
        <path id="DejaVuSans-65" d="M 3597 1894 
L 3597 1613 
L 953 1613 
Q 991 1019 1311 708 
Q 1631 397 2203 397 
Q 2534 397 2845 478 
Q 3156 559 3463 722 
L 3463 178 
Q 3153 47 2828 -22 
Q 2503 -91 2169 -91 
Q 1331 -91 842 396 
Q 353 884 353 1716 
Q 353 2575 817 3079 
Q 1281 3584 2069 3584 
Q 2775 3584 3186 3129 
Q 3597 2675 3597 1894 
z
M 3022 2063 
Q 3016 2534 2758 2815 
Q 2500 3097 2075 3097 
Q 1594 3097 1305 2825 
Q 1016 2553 972 2059 
L 3022 2063 
z
" transform="scale(0.015625)"/>
        <path id="DejaVuSans-6e" d="M 3513 2113 
L 3513 0 
L 2938 0 
L 2938 2094 
Q 2938 2591 2744 2837 
Q 2550 3084 2163 3084 
Q 1697 3084 1428 2787 
Q 1159 2491 1159 1978 
L 1159 0 
L 581 0 
L 581 3500 
L 1159 3500 
L 1159 2956 
Q 1366 3272 1645 3428 
Q 1925 3584 2291 3584 
Q 2894 3584 3203 3211 
Q 3513 2838 3513 2113 
z
" transform="scale(0.015625)"/>
        <path id="DejaVuSans-63" d="M 3122 3366 
L 3122 2828 
Q 2878 2963 2633 3030 
Q 2388 3097 2138 3097 
Q 1578 3097 1268 2742 
Q 959 2388 959 1747 
Q 959 1106 1268 751 
Q 1578 397 2138 397 
Q 2388 397 2633 464 
Q 2878 531 3122 666 
L 3122 134 
Q 2881 22 2623 -34 
Q 2366 -91 2075 -91 
Q 1284 -91 818 406 
Q 353 903 353 1747 
Q 353 2603 823 3093 
Q 1294 3584 2113 3584 
Q 2378 3584 2631 3529 
Q 2884 3475 3122 3366 
z
" transform="scale(0.015625)"/>
        <path id="DejaVuSans-79" d="M 2059 -325 
Q 1816 -950 1584 -1140 
Q 1353 -1331 966 -1331 
L 506 -1331 
L 506 -850 
L 844 -850 
Q 1081 -850 1212 -737 
Q 1344 -625 1503 -206 
L 1606 56 
L 191 3500 
L 800 3500 
L 1894 763 
L 2988 3500 
L 3597 3500 
L 2059 -325 
z
" transform="scale(0.015625)"/>
       </defs>
       <use xlink:href="#DejaVuSans-46"/>
       <use xlink:href="#DejaVuSans-6c" x="57.519531"/>
       <use xlink:href="#DejaVuSans-75" x="85.302734"/>
       <use xlink:href="#DejaVuSans-65" x="148.681641"/>
       <use xlink:href="#DejaVuSans-6e" x="210.205078"/>
       <use xlink:href="#DejaVuSans-63" x="273.583984"/>
       <use xlink:href="#DejaVuSans-79" x="328.564453"/>
      </g>
      <!--  classifier -->
      <g transform="translate(79.929428 329.69225) scale(0.1 -0.1)">
       <defs>
        <path id="DejaVuSans-20" transform="scale(0.015625)"/>
        <path id="DejaVuSans-61" d="M 2194 1759 
Q 1497 1759 1228 1600 
Q 959 1441 959 1056 
Q 959 750 1161 570 
Q 1363 391 1709 391 
Q 2188 391 2477 730 
Q 2766 1069 2766 1631 
L 2766 1759 
L 2194 1759 
z
M 3341 1997 
L 3341 0 
L 2766 0 
L 2766 531 
Q 2569 213 2275 61 
Q 1981 -91 1556 -91 
Q 1019 -91 701 211 
Q 384 513 384 1019 
Q 384 1609 779 1909 
Q 1175 2209 1959 2209 
L 2766 2209 
L 2766 2266 
Q 2766 2663 2505 2880 
Q 2244 3097 1772 3097 
Q 1472 3097 1187 3025 
Q 903 2953 641 2809 
L 641 3341 
Q 956 3463 1253 3523 
Q 1550 3584 1831 3584 
Q 2591 3584 2966 3190 
Q 3341 2797 3341 1997 
z
" transform="scale(0.015625)"/>
        <path id="DejaVuSans-73" d="M 2834 3397 
L 2834 2853 
Q 2591 2978 2328 3040 
Q 2066 3103 1784 3103 
Q 1356 3103 1142 2972 
Q 928 2841 928 2578 
Q 928 2378 1081 2264 
Q 1234 2150 1697 2047 
L 1894 2003 
Q 2506 1872 2764 1633 
Q 3022 1394 3022 966 
Q 3022 478 2636 193 
Q 2250 -91 1575 -91 
Q 1294 -91 989 -36 
Q 684 19 347 128 
L 347 722 
Q 666 556 975 473 
Q 1284 391 1588 391 
Q 1994 391 2212 530 
Q 2431 669 2431 922 
Q 2431 1156 2273 1281 
Q 2116 1406 1581 1522 
L 1381 1569 
Q 847 1681 609 1914 
Q 372 2147 372 2553 
Q 372 3047 722 3315 
Q 1072 3584 1716 3584 
Q 2034 3584 2315 3537 
Q 2597 3491 2834 3397 
z
" transform="scale(0.015625)"/>
        <path id="DejaVuSans-69" d="M 603 3500 
L 1178 3500 
L 1178 0 
L 603 0 
L 603 3500 
z
M 603 4863 
L 1178 4863 
L 1178 4134 
L 603 4134 
L 603 4863 
z
" transform="scale(0.015625)"/>
        <path id="DejaVuSans-66" d="M 2375 4863 
L 2375 4384 
L 1825 4384 
Q 1516 4384 1395 4259 
Q 1275 4134 1275 3809 
L 1275 3500 
L 2222 3500 
L 2222 3053 
L 1275 3053 
L 1275 0 
L 697 0 
L 697 3053 
L 147 3053 
L 147 3500 
L 697 3500 
L 697 3744 
Q 697 4328 969 4595 
Q 1241 4863 1831 4863 
L 2375 4863 
z
" transform="scale(0.015625)"/>
        <path id="DejaVuSans-72" d="M 2631 2963 
Q 2534 3019 2420 3045 
Q 2306 3072 2169 3072 
Q 1681 3072 1420 2755 
Q 1159 2438 1159 1844 
L 1159 0 
L 581 0 
L 581 3500 
L 1159 3500 
L 1159 2956 
Q 1341 3275 1631 3429 
Q 1922 3584 2338 3584 
Q 2397 3584 2469 3576 
Q 2541 3569 2628 3553 
L 2631 2963 
z
" transform="scale(0.015625)"/>
       </defs>
       <use xlink:href="#DejaVuSans-20"/>
       <use xlink:href="#DejaVuSans-63" x="31.787109"/>
       <use xlink:href="#DejaVuSans-6c" x="86.767578"/>
       <use xlink:href="#DejaVuSans-61" x="114.550781"/>
       <use xlink:href="#DejaVuSans-73" x="175.830078"/>
       <use xlink:href="#DejaVuSans-73" x="227.929688"/>
       <use xlink:href="#DejaVuSans-69" x="280.029297"/>
       <use xlink:href="#DejaVuSans-66" x="307.8125"/>
       <use xlink:href="#DejaVuSans-69" x="343.017578"/>
       <use xlink:href="#DejaVuSans-65" x="370.800781"/>
       <use xlink:href="#DejaVuSans-72" x="432.324219"/>
      </g>
     </g>
    </g>
    <g id="xtick_2">
     <g id="line2d_2">
      <g>
       <use xlink:href="#m50d29033f3" x="179.69563" y="303.896" style="stroke: #000000; stroke-width: 0.8"/>
      </g>
     </g>
     <g id="text_2">
      <!-- Screening -->
      <g transform="translate(154.775317 318.494438) scale(0.1 -0.1)">
       <defs>
        <path id="DejaVuSans-53" d="M 3425 4513 
L 3425 3897 
Q 3066 4069 2747 4153 
Q 2428 4238 2131 4238 
Q 1616 4238 1336 4038 
Q 1056 3838 1056 3469 
Q 1056 3159 1242 3001 
Q 1428 2844 1947 2747 
L 2328 2669 
Q 3034 2534 3370 2195 
Q 3706 1856 3706 1288 
Q 3706 609 3251 259 
Q 2797 -91 1919 -91 
Q 1588 -91 1214 -16 
Q 841 59 441 206 
L 441 856 
Q 825 641 1194 531 
Q 1563 422 1919 422 
Q 2459 422 2753 634 
Q 3047 847 3047 1241 
Q 3047 1584 2836 1778 
Q 2625 1972 2144 2069 
L 1759 2144 
Q 1053 2284 737 2584 
Q 422 2884 422 3419 
Q 422 4038 858 4394 
Q 1294 4750 2059 4750 
Q 2388 4750 2728 4690 
Q 3069 4631 3425 4513 
z
" transform="scale(0.015625)"/>
        <path id="DejaVuSans-67" d="M 2906 1791 
Q 2906 2416 2648 2759 
Q 2391 3103 1925 3103 
Q 1463 3103 1205 2759 
Q 947 2416 947 1791 
Q 947 1169 1205 825 
Q 1463 481 1925 481 
Q 2391 481 2648 825 
Q 2906 1169 2906 1791 
z
M 3481 434 
Q 3481 -459 3084 -895 
Q 2688 -1331 1869 -1331 
Q 1566 -1331 1297 -1286 
Q 1028 -1241 775 -1147 
L 775 -588 
Q 1028 -725 1275 -790 
Q 1522 -856 1778 -856 
Q 2344 -856 2625 -561 
Q 2906 -266 2906 331 
L 2906 616 
Q 2728 306 2450 153 
Q 2172 0 1784 0 
Q 1141 0 747 490 
Q 353 981 353 1791 
Q 353 2603 747 3093 
Q 1141 3584 1784 3584 
Q 2172 3584 2450 3431 
Q 2728 3278 2906 2969 
L 2906 3500 
L 3481 3500 
L 3481 434 
z
" transform="scale(0.015625)"/>
       </defs>
       <use xlink:href="#DejaVuSans-53"/>
       <use xlink:href="#DejaVuSans-63" x="63.476562"/>
       <use xlink:href="#DejaVuSans-72" x="118.457031"/>
       <use xlink:href="#DejaVuSans-65" x="157.320312"/>
       <use xlink:href="#DejaVuSans-65" x="218.84375"/>
       <use xlink:href="#DejaVuSans-6e" x="280.367188"/>
       <use xlink:href="#DejaVuSans-69" x="343.746094"/>
       <use xlink:href="#DejaVuSans-6e" x="371.529297"/>
       <use xlink:href="#DejaVuSans-67" x="434.908203"/>
      </g>
      <!--  classifier -->
      <g transform="translate(156.024536 329.69225) scale(0.1 -0.1)">
       <use xlink:href="#DejaVuSans-20"/>
       <use xlink:href="#DejaVuSans-63" x="31.787109"/>
       <use xlink:href="#DejaVuSans-6c" x="86.767578"/>
       <use xlink:href="#DejaVuSans-61" x="114.550781"/>
       <use xlink:href="#DejaVuSans-73" x="175.830078"/>
       <use xlink:href="#DejaVuSans-73" x="227.929688"/>
       <use xlink:href="#DejaVuSans-69" x="280.029297"/>
       <use xlink:href="#DejaVuSans-66" x="307.8125"/>
       <use xlink:href="#DejaVuSans-69" x="343.017578"/>
       <use xlink:href="#DejaVuSans-65" x="370.800781"/>
       <use xlink:href="#DejaVuSans-72" x="432.324219"/>
      </g>
     </g>
    </g>
    <g id="xtick_3">
     <g id="line2d_3">
      <g>
       <use xlink:href="#m50d29033f3" x="255.790738" y="303.896" style="stroke: #000000; stroke-width: 0.8"/>
      </g>
     </g>
     <g id="text_3">
      <!-- Executive -->
      <g transform="translate(231.44855 318.494438) scale(0.1 -0.1)">
       <defs>
        <path id="DejaVuSans-45" d="M 628 4666 
L 3578 4666 
L 3578 4134 
L 1259 4134 
L 1259 2753 
L 3481 2753 
L 3481 2222 
L 1259 2222 
L 1259 531 
L 3634 531 
L 3634 0 
L 628 0 
L 628 4666 
z
" transform="scale(0.015625)"/>
        <path id="DejaVuSans-78" d="M 3513 3500 
L 2247 1797 
L 3578 0 
L 2900 0 
L 1881 1375 
L 863 0 
L 184 0 
L 1544 1831 
L 300 3500 
L 978 3500 
L 1906 2253 
L 2834 3500 
L 3513 3500 
z
" transform="scale(0.015625)"/>
        <path id="DejaVuSans-74" d="M 1172 4494 
L 1172 3500 
L 2356 3500 
L 2356 3053 
L 1172 3053 
L 1172 1153 
Q 1172 725 1289 603 
Q 1406 481 1766 481 
L 2356 481 
L 2356 0 
L 1766 0 
Q 1100 0 847 248 
Q 594 497 594 1153 
L 594 3053 
L 172 3053 
L 172 3500 
L 594 3500 
L 594 4494 
L 1172 4494 
z
" transform="scale(0.015625)"/>
        <path id="DejaVuSans-76" d="M 191 3500 
L 800 3500 
L 1894 563 
L 2988 3500 
L 3597 3500 
L 2284 0 
L 1503 0 
L 191 3500 
z
" transform="scale(0.015625)"/>
       </defs>
       <use xlink:href="#DejaVuSans-45"/>
       <use xlink:href="#DejaVuSans-78" x="63.183594"/>
       <use xlink:href="#DejaVuSans-65" x="119.238281"/>
       <use xlink:href="#DejaVuSans-63" x="180.761719"/>
       <use xlink:href="#DejaVuSans-75" x="235.742188"/>
       <use xlink:href="#DejaVuSans-74" x="299.121094"/>
       <use xlink:href="#DejaVuSans-69" x="338.330078"/>
       <use xlink:href="#DejaVuSans-76" x="366.113281"/>
       <use xlink:href="#DejaVuSans-65" x="425.292969"/>
      </g>
      <!--  classifier -->
      <g transform="translate(232.119644 329.69225) scale(0.1 -0.1)">
       <use xlink:href="#DejaVuSans-20"/>
       <use xlink:href="#DejaVuSans-63" x="31.787109"/>
       <use xlink:href="#DejaVuSans-6c" x="86.767578"/>
       <use xlink:href="#DejaVuSans-61" x="114.550781"/>
       <use xlink:href="#DejaVuSans-73" x="175.830078"/>
       <use xlink:href="#DejaVuSans-73" x="227.929688"/>
       <use xlink:href="#DejaVuSans-69" x="280.029297"/>
       <use xlink:href="#DejaVuSans-66" x="307.8125"/>
       <use xlink:href="#DejaVuSans-69" x="343.017578"/>
       <use xlink:href="#DejaVuSans-65" x="370.800781"/>
       <use xlink:href="#DejaVuSans-72" x="432.324219"/>
      </g>
     </g>
    </g>
    <g id="xtick_4">
     <g id="line2d_4">
      <g>
       <use xlink:href="#m50d29033f3" x="331.885846" y="303.896" style="stroke: #000000; stroke-width: 0.8"/>
      </g>
     </g>
     <g id="text_4">
      <!-- Structural -->
      <g transform="translate(307.140534 318.494438) scale(0.1 -0.1)">
       <use xlink:href="#DejaVuSans-53"/>
       <use xlink:href="#DejaVuSans-74" x="63.476562"/>
       <use xlink:href="#DejaVuSans-72" x="102.685547"/>
       <use xlink:href="#DejaVuSans-75" x="143.798828"/>
       <use xlink:href="#DejaVuSans-63" x="207.177734"/>
       <use xlink:href="#DejaVuSans-74" x="262.158203"/>
       <use xlink:href="#DejaVuSans-75" x="301.367188"/>
       <use xlink:href="#DejaVuSans-72" x="364.746094"/>
       <use xlink:href="#DejaVuSans-61" x="405.859375"/>
       <use xlink:href="#DejaVuSans-6c" x="467.138672"/>
      </g>
      <!--  classifier -->
      <g transform="translate(308.214752 329.69225) scale(0.1 -0.1)">
       <use xlink:href="#DejaVuSans-20"/>
       <use xlink:href="#DejaVuSans-63" x="31.787109"/>
       <use xlink:href="#DejaVuSans-6c" x="86.767578"/>
       <use xlink:href="#DejaVuSans-61" x="114.550781"/>
       <use xlink:href="#DejaVuSans-73" x="175.830078"/>
       <use xlink:href="#DejaVuSans-73" x="227.929688"/>
       <use xlink:href="#DejaVuSans-69" x="280.029297"/>
       <use xlink:href="#DejaVuSans-66" x="307.8125"/>
       <use xlink:href="#DejaVuSans-69" x="343.017578"/>
       <use xlink:href="#DejaVuSans-65" x="370.800781"/>
       <use xlink:href="#DejaVuSans-72" x="432.324219"/>
      </g>
     </g>
    </g>
    <g id="xtick_5">
     <g id="line2d_5">
      <g>
       <use xlink:href="#m50d29033f3" x="407.980955" y="303.896" style="stroke: #000000; stroke-width: 0.8"/>
      </g>
     </g>
     <g id="text_5">
      <!-- Functional -->
      <g transform="translate(382.262986 318.494438) scale(0.1 -0.1)">
       <defs>
        <path id="DejaVuSans-6f" d="M 1959 3097 
Q 1497 3097 1228 2736 
Q 959 2375 959 1747 
Q 959 1119 1226 758 
Q 1494 397 1959 397 
Q 2419 397 2687 759 
Q 2956 1122 2956 1747 
Q 2956 2369 2687 2733 
Q 2419 3097 1959 3097 
z
M 1959 3584 
Q 2709 3584 3137 3096 
Q 3566 2609 3566 1747 
Q 3566 888 3137 398 
Q 2709 -91 1959 -91 
Q 1206 -91 779 398 
Q 353 888 353 1747 
Q 353 2609 779 3096 
Q 1206 3584 1959 3584 
z
" transform="scale(0.015625)"/>
       </defs>
       <use xlink:href="#DejaVuSans-46"/>
       <use xlink:href="#DejaVuSans-75" x="52.019531"/>
       <use xlink:href="#DejaVuSans-6e" x="115.398438"/>
       <use xlink:href="#DejaVuSans-63" x="178.777344"/>
       <use xlink:href="#DejaVuSans-74" x="233.757812"/>
       <use xlink:href="#DejaVuSans-69" x="272.966797"/>
       <use xlink:href="#DejaVuSans-6f" x="300.75"/>
       <use xlink:href="#DejaVuSans-6e" x="361.931641"/>
       <use xlink:href="#DejaVuSans-61" x="425.310547"/>
       <use xlink:href="#DejaVuSans-6c" x="486.589844"/>
      </g>
      <!--  classifier -->
      <g transform="translate(384.309861 329.69225) scale(0.1 -0.1)">
       <use xlink:href="#DejaVuSans-20"/>
       <use xlink:href="#DejaVuSans-63" x="31.787109"/>
       <use xlink:href="#DejaVuSans-6c" x="86.767578"/>
       <use xlink:href="#DejaVuSans-61" x="114.550781"/>
       <use xlink:href="#DejaVuSans-73" x="175.830078"/>
       <use xlink:href="#DejaVuSans-73" x="227.929688"/>
       <use xlink:href="#DejaVuSans-69" x="280.029297"/>
       <use xlink:href="#DejaVuSans-66" x="307.8125"/>
       <use xlink:href="#DejaVuSans-69" x="343.017578"/>
       <use xlink:href="#DejaVuSans-65" x="370.800781"/>
       <use xlink:href="#DejaVuSans-72" x="432.324219"/>
      </g>
     </g>
    </g>
   </g>
   <g id="matplotlib.axis_2">
    <g id="ytick_1">
     <g id="line2d_6">
      <defs>
       <path id="m9bb9eba835" d="M 0 0 
L -3.5 0 
" style="stroke: #000000; stroke-width: 0.8"/>
      </defs>
      <g>
       <use xlink:href="#m9bb9eba835" x="59.06" y="291.852787" style="stroke: #000000; stroke-width: 0.8"/>
      </g>
     </g>
     <g id="text_6">
      <!-- 0.00 -->
      <g transform="translate(29.794375 295.652006) scale(0.1 -0.1)">
       <defs>
        <path id="DejaVuSans-30" d="M 2034 4250 
Q 1547 4250 1301 3770 
Q 1056 3291 1056 2328 
Q 1056 1369 1301 889 
Q 1547 409 2034 409 
Q 2525 409 2770 889 
Q 3016 1369 3016 2328 
Q 3016 3291 2770 3770 
Q 2525 4250 2034 4250 
z
M 2034 4750 
Q 2819 4750 3233 4129 
Q 3647 3509 3647 2328 
Q 3647 1150 3233 529 
Q 2819 -91 2034 -91 
Q 1250 -91 836 529 
Q 422 1150 422 2328 
Q 422 3509 836 4129 
Q 1250 4750 2034 4750 
z
" transform="scale(0.015625)"/>
        <path id="DejaVuSans-2e" d="M 684 794 
L 1344 794 
L 1344 0 
L 684 0 
L 684 794 
z
" transform="scale(0.015625)"/>
       </defs>
       <use xlink:href="#DejaVuSans-30"/>
       <use xlink:href="#DejaVuSans-2e" x="63.623047"/>
       <use xlink:href="#DejaVuSans-30" x="95.410156"/>
       <use xlink:href="#DejaVuSans-30" x="159.033203"/>
      </g>
     </g>
    </g>
    <g id="ytick_2">
     <g id="line2d_7">
      <g>
       <use xlink:href="#m9bb9eba835" x="59.06" y="251.849138" style="stroke: #000000; stroke-width: 0.8"/>
      </g>
     </g>
     <g id="text_7">
      <!-- 0.25 -->
      <g transform="translate(29.794375 255.648357) scale(0.1 -0.1)">
       <defs>
        <path id="DejaVuSans-32" d="M 1228 531 
L 3431 531 
L 3431 0 
L 469 0 
L 469 531 
Q 828 903 1448 1529 
Q 2069 2156 2228 2338 
Q 2531 2678 2651 2914 
Q 2772 3150 2772 3378 
Q 2772 3750 2511 3984 
Q 2250 4219 1831 4219 
Q 1534 4219 1204 4116 
Q 875 4013 500 3803 
L 500 4441 
Q 881 4594 1212 4672 
Q 1544 4750 1819 4750 
Q 2544 4750 2975 4387 
Q 3406 4025 3406 3419 
Q 3406 3131 3298 2873 
Q 3191 2616 2906 2266 
Q 2828 2175 2409 1742 
Q 1991 1309 1228 531 
z
" transform="scale(0.015625)"/>
        <path id="DejaVuSans-35" d="M 691 4666 
L 3169 4666 
L 3169 4134 
L 1269 4134 
L 1269 2991 
Q 1406 3038 1543 3061 
Q 1681 3084 1819 3084 
Q 2600 3084 3056 2656 
Q 3513 2228 3513 1497 
Q 3513 744 3044 326 
Q 2575 -91 1722 -91 
Q 1428 -91 1123 -41 
Q 819 9 494 109 
L 494 744 
Q 775 591 1075 516 
Q 1375 441 1709 441 
Q 2250 441 2565 725 
Q 2881 1009 2881 1497 
Q 2881 1984 2565 2268 
Q 2250 2553 1709 2553 
Q 1456 2553 1204 2497 
Q 953 2441 691 2322 
L 691 4666 
z
" transform="scale(0.015625)"/>
       </defs>
       <use xlink:href="#DejaVuSans-30"/>
       <use xlink:href="#DejaVuSans-2e" x="63.623047"/>
       <use xlink:href="#DejaVuSans-32" x="95.410156"/>
       <use xlink:href="#DejaVuSans-35" x="159.033203"/>
      </g>
     </g>
    </g>
    <g id="ytick_3">
     <g id="line2d_8">
      <g>
       <use xlink:href="#m9bb9eba835" x="59.06" y="211.845489" style="stroke: #000000; stroke-width: 0.8"/>
      </g>
     </g>
     <g id="text_8">
      <!-- 0.50 -->
      <g transform="translate(29.794375 215.644708) scale(0.1 -0.1)">
       <use xlink:href="#DejaVuSans-30"/>
       <use xlink:href="#DejaVuSans-2e" x="63.623047"/>
       <use xlink:href="#DejaVuSans-35" x="95.410156"/>
       <use xlink:href="#DejaVuSans-30" x="159.033203"/>
      </g>
     </g>
    </g>
    <g id="ytick_4">
     <g id="line2d_9">
      <g>
       <use xlink:href="#m9bb9eba835" x="59.06" y="171.841841" style="stroke: #000000; stroke-width: 0.8"/>
      </g>
     </g>
     <g id="text_9">
      <!-- 0.75 -->
      <g transform="translate(29.794375 175.64106) scale(0.1 -0.1)">
       <defs>
        <path id="DejaVuSans-37" d="M 525 4666 
L 3525 4666 
L 3525 4397 
L 1831 0 
L 1172 0 
L 2766 4134 
L 525 4134 
L 525 4666 
z
" transform="scale(0.015625)"/>
       </defs>
       <use xlink:href="#DejaVuSans-30"/>
       <use xlink:href="#DejaVuSans-2e" x="63.623047"/>
       <use xlink:href="#DejaVuSans-37" x="95.410156"/>
       <use xlink:href="#DejaVuSans-35" x="159.033203"/>
      </g>
     </g>
    </g>
    <g id="ytick_5">
     <g id="line2d_10">
      <g>
       <use xlink:href="#m9bb9eba835" x="59.06" y="131.838192" style="stroke: #000000; stroke-width: 0.8"/>
      </g>
     </g>
     <g id="text_10">
      <!-- 1.00 -->
      <g transform="translate(29.794375 135.637411) scale(0.1 -0.1)">
       <defs>
        <path id="DejaVuSans-31" d="M 794 531 
L 1825 531 
L 1825 4091 
L 703 3866 
L 703 4441 
L 1819 4666 
L 2450 4666 
L 2450 531 
L 3481 531 
L 3481 0 
L 794 0 
L 794 531 
z
" transform="scale(0.015625)"/>
       </defs>
       <use xlink:href="#DejaVuSans-31"/>
       <use xlink:href="#DejaVuSans-2e" x="63.623047"/>
       <use xlink:href="#DejaVuSans-30" x="95.410156"/>
       <use xlink:href="#DejaVuSans-30" x="159.033203"/>
      </g>
     </g>
    </g>
    <g id="ytick_6">
     <g id="line2d_11">
      <g>
       <use xlink:href="#m9bb9eba835" x="59.06" y="91.834543" style="stroke: #000000; stroke-width: 0.8"/>
      </g>
     </g>
     <g id="text_11">
      <!-- 1.25 -->
      <g transform="translate(29.794375 95.633762) scale(0.1 -0.1)">
       <use xlink:href="#DejaVuSans-31"/>
       <use xlink:href="#DejaVuSans-2e" x="63.623047"/>
       <use xlink:href="#DejaVuSans-32" x="95.410156"/>
       <use xlink:href="#DejaVuSans-35" x="159.033203"/>
      </g>
     </g>
    </g>
    <g id="ytick_7">
     <g id="line2d_12">
      <g>
       <use xlink:href="#m9bb9eba835" x="59.06" y="51.830895" style="stroke: #000000; stroke-width: 0.8"/>
      </g>
     </g>
     <g id="text_12">
      <!-- 1.50 -->
      <g transform="translate(29.794375 55.630113) scale(0.1 -0.1)">
       <use xlink:href="#DejaVuSans-31"/>
       <use xlink:href="#DejaVuSans-2e" x="63.623047"/>
       <use xlink:href="#DejaVuSans-35" x="95.410156"/>
       <use xlink:href="#DejaVuSans-30" x="159.033203"/>
      </g>
     </g>
    </g>
    <g id="text_13">
     <!-- NORM EXPECTED COST -->
     <g transform="translate(23.29875 228.762062) rotate(-90) scale(0.12 -0.12)">
      <defs>
       <path id="DejaVuSans-4e" d="M 628 4666 
L 1478 4666 
L 3547 763 
L 3547 4666 
L 4159 4666 
L 4159 0 
L 3309 0 
L 1241 3903 
L 1241 0 
L 628 0 
L 628 4666 
z
" transform="scale(0.015625)"/>
       <path id="DejaVuSans-4f" d="M 2522 4238 
Q 1834 4238 1429 3725 
Q 1025 3213 1025 2328 
Q 1025 1447 1429 934 
Q 1834 422 2522 422 
Q 3209 422 3611 934 
Q 4013 1447 4013 2328 
Q 4013 3213 3611 3725 
Q 3209 4238 2522 4238 
z
M 2522 4750 
Q 3503 4750 4090 4092 
Q 4678 3434 4678 2328 
Q 4678 1225 4090 567 
Q 3503 -91 2522 -91 
Q 1538 -91 948 565 
Q 359 1222 359 2328 
Q 359 3434 948 4092 
Q 1538 4750 2522 4750 
z
" transform="scale(0.015625)"/>
       <path id="DejaVuSans-52" d="M 2841 2188 
Q 3044 2119 3236 1894 
Q 3428 1669 3622 1275 
L 4263 0 
L 3584 0 
L 2988 1197 
Q 2756 1666 2539 1819 
Q 2322 1972 1947 1972 
L 1259 1972 
L 1259 0 
L 628 0 
L 628 4666 
L 2053 4666 
Q 2853 4666 3247 4331 
Q 3641 3997 3641 3322 
Q 3641 2881 3436 2590 
Q 3231 2300 2841 2188 
z
M 1259 4147 
L 1259 2491 
L 2053 2491 
Q 2509 2491 2742 2702 
Q 2975 2913 2975 3322 
Q 2975 3731 2742 3939 
Q 2509 4147 2053 4147 
L 1259 4147 
z
" transform="scale(0.015625)"/>
       <path id="DejaVuSans-4d" d="M 628 4666 
L 1569 4666 
L 2759 1491 
L 3956 4666 
L 4897 4666 
L 4897 0 
L 4281 0 
L 4281 4097 
L 3078 897 
L 2444 897 
L 1241 4097 
L 1241 0 
L 628 0 
L 628 4666 
z
" transform="scale(0.015625)"/>
       <path id="DejaVuSans-58" d="M 403 4666 
L 1081 4666 
L 2241 2931 
L 3406 4666 
L 4084 4666 
L 2584 2425 
L 4184 0 
L 3506 0 
L 2194 1984 
L 872 0 
L 191 0 
L 1856 2491 
L 403 4666 
z
" transform="scale(0.015625)"/>
       <path id="DejaVuSans-50" d="M 1259 4147 
L 1259 2394 
L 2053 2394 
Q 2494 2394 2734 2622 
Q 2975 2850 2975 3272 
Q 2975 3691 2734 3919 
Q 2494 4147 2053 4147 
L 1259 4147 
z
M 628 4666 
L 2053 4666 
Q 2838 4666 3239 4311 
Q 3641 3956 3641 3272 
Q 3641 2581 3239 2228 
Q 2838 1875 2053 1875 
L 1259 1875 
L 1259 0 
L 628 0 
L 628 4666 
z
" transform="scale(0.015625)"/>
       <path id="DejaVuSans-43" d="M 4122 4306 
L 4122 3641 
Q 3803 3938 3442 4084 
Q 3081 4231 2675 4231 
Q 1875 4231 1450 3742 
Q 1025 3253 1025 2328 
Q 1025 1406 1450 917 
Q 1875 428 2675 428 
Q 3081 428 3442 575 
Q 3803 722 4122 1019 
L 4122 359 
Q 3791 134 3420 21 
Q 3050 -91 2638 -91 
Q 1578 -91 968 557 
Q 359 1206 359 2328 
Q 359 3453 968 4101 
Q 1578 4750 2638 4750 
Q 3056 4750 3426 4639 
Q 3797 4528 4122 4306 
z
" transform="scale(0.015625)"/>
       <path id="DejaVuSans-54" d="M -19 4666 
L 3928 4666 
L 3928 4134 
L 2272 4134 
L 2272 0 
L 1638 0 
L 1638 4134 
L -19 4134 
L -19 4666 
z
" transform="scale(0.015625)"/>
       <path id="DejaVuSans-44" d="M 1259 4147 
L 1259 519 
L 2022 519 
Q 2988 519 3436 956 
Q 3884 1394 3884 2338 
Q 3884 3275 3436 3711 
Q 2988 4147 2022 4147 
L 1259 4147 
z
M 628 4666 
L 1925 4666 
Q 3281 4666 3915 4102 
Q 4550 3538 4550 2338 
Q 4550 1131 3912 565 
Q 3275 0 1925 0 
L 628 0 
L 628 4666 
z
" transform="scale(0.015625)"/>
      </defs>
      <use xlink:href="#DejaVuSans-4e"/>
      <use xlink:href="#DejaVuSans-4f" x="74.804688"/>
      <use xlink:href="#DejaVuSans-52" x="153.515625"/>
      <use xlink:href="#DejaVuSans-4d" x="222.998047"/>
      <use xlink:href="#DejaVuSans-20" x="309.277344"/>
      <use xlink:href="#DejaVuSans-45" x="341.064453"/>
      <use xlink:href="#DejaVuSans-58" x="404.248047"/>
      <use xlink:href="#DejaVuSans-50" x="472.753906"/>
      <use xlink:href="#DejaVuSans-45" x="533.056641"/>
      <use xlink:href="#DejaVuSans-43" x="596.240234"/>
      <use xlink:href="#DejaVuSans-54" x="666.064453"/>
      <use xlink:href="#DejaVuSans-45" x="727.148438"/>
      <use xlink:href="#DejaVuSans-44" x="790.332031"/>
      <use xlink:href="#DejaVuSans-20" x="867.333984"/>
      <use xlink:href="#DejaVuSans-43" x="899.121094"/>
      <use xlink:href="#DejaVuSans-4f" x="968.945312"/>
      <use xlink:href="#DejaVuSans-53" x="1047.65625"/>
      <use xlink:href="#DejaVuSans-54" x="1111.132812"/>
     </g>
    </g>
   </g>
   <g id="LineCollection_1">
    <path d="M 103.600521 229.915938 
L 103.600521 168.411128 
" clip-path="url(#ped492b88b8)" style="fill: none; stroke: #000000; stroke-width: 1.5"/>
    <path d="M 179.69563 270.092402 
L 179.69563 215.973866 
" clip-path="url(#ped492b88b8)" style="fill: none; stroke: #000000; stroke-width: 1.5"/>
    <path d="M 255.790738 237.451025 
L 255.790738 164.359558 
" clip-path="url(#ped492b88b8)" style="fill: none; stroke: #000000; stroke-width: 1.5"/>
    <path d="M 331.885846 254.039738 
L 331.885846 197.540185 
" clip-path="url(#ped492b88b8)" style="fill: none; stroke: #000000; stroke-width: 1.5"/>
    <path d="M 407.980955 180.327415 
L 407.980955 100.427327 
" clip-path="url(#ped492b88b8)" style="fill: none; stroke: #000000; stroke-width: 1.5"/>
   </g>
   <g id="line2d_13">
    <defs>
     <path id="mf4f40780d7" d="M 5 0 
L -5 -0 
" style="stroke: #000000"/>
    </defs>
    <g clip-path="url(#ped492b88b8)">
     <use xlink:href="#mf4f40780d7" x="103.600521" y="229.915938" style="stroke: #000000"/>
     <use xlink:href="#mf4f40780d7" x="179.69563" y="270.092402" style="stroke: #000000"/>
     <use xlink:href="#mf4f40780d7" x="255.790738" y="237.451025" style="stroke: #000000"/>
     <use xlink:href="#mf4f40780d7" x="331.885846" y="254.039738" style="stroke: #000000"/>
     <use xlink:href="#mf4f40780d7" x="407.980955" y="180.327415" style="stroke: #000000"/>
    </g>
   </g>
   <g id="line2d_14">
    <g clip-path="url(#ped492b88b8)">
     <use xlink:href="#mf4f40780d7" x="103.600521" y="168.411128" style="stroke: #000000"/>
     <use xlink:href="#mf4f40780d7" x="179.69563" y="215.973866" style="stroke: #000000"/>
     <use xlink:href="#mf4f40780d7" x="255.790738" y="164.359558" style="stroke: #000000"/>
     <use xlink:href="#mf4f40780d7" x="331.885846" y="197.540185" style="stroke: #000000"/>
     <use xlink:href="#mf4f40780d7" x="407.980955" y="100.427327" style="stroke: #000000"/>
    </g>
   </g>
   <g id="line2d_15">
    <defs>
     <path id="mf1fac80e57" d="M 0 5.656854 
L 5.656854 0 
L 0 -5.656854 
L -5.656854 0 
z
" style="stroke: #000000; stroke-linejoin: miter"/>
    </defs>
    <g clip-path="url(#ped492b88b8)">
     <use xlink:href="#mf1fac80e57" x="103.600521" y="212.330334" style="stroke: #000000; stroke-linejoin: miter"/>
     <use xlink:href="#mf1fac80e57" x="179.69563" y="247.997587" style="stroke: #000000; stroke-linejoin: miter"/>
     <use xlink:href="#mf1fac80e57" x="255.790738" y="213.784866" style="stroke: #000000; stroke-linejoin: miter"/>
     <use xlink:href="#mf1fac80e57" x="331.885846" y="237.060589" style="stroke: #000000; stroke-linejoin: miter"/>
     <use xlink:href="#mf1fac80e57" x="407.980955" y="161.901734" style="stroke: #000000; stroke-linejoin: miter"/>
    </g>
   </g>
   <g id="patch_3">
    <path d="M 59.06 303.896 
L 59.06 12.96 
" style="fill: none; stroke: #000000; stroke-width: 0.8; stroke-linejoin: miter; stroke-linecap: square"/>
   </g>
   <g id="patch_4">
    <path d="M 447.84 303.896 
L 447.84 12.96 
" style="fill: none; stroke: #000000; stroke-width: 0.8; stroke-linejoin: miter; stroke-linecap: square"/>
   </g>
   <g id="patch_5">
    <path d="M 59.06 303.896 
L 447.84 303.896 
" style="fill: none; stroke: #000000; stroke-width: 0.8; stroke-linejoin: miter; stroke-linecap: square"/>
   </g>
   <g id="patch_6">
    <path d="M 59.06 12.96 
L 447.84 12.96 
" style="fill: none; stroke: #000000; stroke-width: 0.8; stroke-linejoin: miter; stroke-linecap: square"/>
   </g>
  </g>
 </g>
 <defs>
  <clipPath id="ped492b88b8">
   <rect x="59.06" y="12.96" width="388.78" height="290.936"/>
  </clipPath>
 </defs>
</svg>
