<?xml version="1.0" encoding="utf-8" standalone="no"?>
<!DOCTYPE svg PUBLIC "-//W3C//DTD SVG 1.1//EN"
  "http://www.w3.org/Graphics/SVG/1.1/DTD/svg11.dtd">
<svg xmlns:xlink="http://www.w3.org/1999/xlink" width="460.8pt" height="345.6pt" viewBox="0 0 460.8 345.6" xmlns="http://www.w3.org/2000/svg" version="1.1">
 <metadata>
  <rdf:RDF xmlns:dc="http://purl.org/dc/elements/1.1/" xmlns:cc="http://creativecommons.org/ns#" xmlns:rdf="http://www.w3.org/1999/02/22-rdf-syntax-ns#">
   <cc:Work>
    <dc:type rdf:resource="http://purl.org/dc/dcmitype/StillImage"/>
    <dc:date>2025-09-22T14:38:27.791123</dc:date>
    <dc:format>image/svg+xml</dc:format>
    <dc:creator>
     <cc:Agent>
      <dc:title>Matplotlib v3.9.4, https://matplotlib.org/</dc:title>
     </cc:Agent>
    </dc:creator>
   </cc:Work>
  </rdf:RDF>
 </metadata>
 <defs>
  <style type="text/css">*{stroke-linejoin: round; stroke-linecap: butt}</style>
 </defs>
 <g id="figure_1">
  <g id="patch_1">
   <path d="M 0 345.6 
L 460.8 345.6 
L 460.8 0 
L 0 0 
z
" style="fill: #ffffff"/>
  </g>
  <g id="axes_1">
   <g id="patch_2">
    <path d="M 52.85 303.896 
L 447.84 303.896 
L 447.84 12.96 
L 52.85 12.96 
z
" style="fill: #ffffff"/>
   </g>
   <g id="PolyCollection_1">
    <defs>
     <path id="m1318557592" d="M 98.129013 -82.207744 
L 98.074925 -82.207744 
L 98.045605 -83.603931 
L 97.993247 -85.000117 
L 97.907121 -86.396304 
L 97.776134 -87.792491 
L 97.590998 -89.188678 
L 97.34586 -90.584865 
L 97.037952 -91.981052 
L 96.664566 -93.377239 
L 96.218394 -94.773426 
L 95.683917 -96.169613 
L 95.037356 -97.5658 
L 94.250743 -98.961987 
L 93.29864 -100.358174 
L 92.165496 -101.754361 
L 90.851922 -103.150548 
L 89.377493 -104.546735 
L 87.776858 -105.942922 
L 86.088066 -107.339109 
L 84.338274 -108.735296 
L 82.537493 -110.131483 
L 80.688694 -111.52767 
L 78.810883 -112.923857 
L 76.958944 -114.320044 
L 75.222624 -115.716231 
L 73.701531 -117.112418 
L 72.473021 -118.508605 
L 71.576411 -119.904792 
L 71.021367 -121.300978 
L 70.804091 -122.697165 
L 70.907159 -124.093352 
L 71.27772 -125.489539 
L 71.806898 -126.885726 
L 72.341574 -128.281913 
L 72.73718 -129.6781 
L 72.924958 -131.074287 
L 72.950271 -132.470474 
L 72.955025 -133.866661 
L 73.113869 -135.262848 
L 73.561496 -136.659035 
L 74.347954 -138.055222 
L 75.436039 -139.451409 
L 76.730673 -140.847596 
L 78.120256 -142.243783 
L 79.51306 -143.63997 
L 80.858374 -145.036157 
L 82.148126 -146.432344 
L 83.401864 -147.828531 
L 84.645276 -149.224718 
L 85.89399 -150.620905 
L 87.147528 -152.017092 
L 88.389427 -153.413279 
L 89.587746 -154.809466 
L 90.696158 -156.205652 
L 91.661407 -157.601839 
L 92.440356 -158.998026 
L 93.020859 -160.394213 
L 93.433794 -161.7904 
L 93.746046 -163.186587 
L 94.035241 -164.582774 
L 94.358985 -165.978961 
L 94.735355 -167.375148 
L 95.144521 -168.771335 
L 95.548172 -170.167522 
L 95.913357 -171.563709 
L 96.226807 -172.959896 
L 96.494105 -174.356083 
L 96.728349 -175.75227 
L 96.938115 -177.148457 
L 97.122373 -178.544644 
L 97.273566 -179.940831 
L 97.384561 -181.337018 
L 97.454027 -182.733205 
L 97.487449 -184.129392 
L 97.49462 -185.525579 
L 97.486255 -186.921766 
L 97.471883 -188.317953 
L 97.459517 -189.71414 
L 97.456296 -191.110327 
L 97.46881 -192.506513 
L 97.50233 -193.9027 
L 97.559037 -195.298887 
L 97.636355 -196.695074 
L 97.726655 -198.091261 
L 97.818956 -199.487448 
L 97.901948 -200.883635 
L 97.966957 -202.279822 
L 98.00961 -203.676009 
L 98.030004 -205.072196 
L 98.031915 -206.468383 
L 98.021712 -207.86457 
L 98.007127 -209.260757 
L 97.995674 -210.656944 
L 97.99281 -212.053131 
L 98.000474 -213.449318 
L 98.016866 -214.845505 
L 98.037699 -216.241692 
L 98.058273 -217.637879 
L 98.075227 -219.034066 
L 98.087238 -220.430253 
L 98.1167 -220.430253 
L 98.1167 -220.430253 
L 98.128711 -219.034066 
L 98.145665 -217.637879 
L 98.166239 -216.241692 
L 98.187073 -214.845505 
L 98.203464 -213.449318 
L 98.211128 -212.053131 
L 98.208264 -210.656944 
L 98.196811 -209.260757 
L 98.182226 -207.86457 
L 98.172023 -206.468383 
L 98.173934 -205.072196 
L 98.194328 -203.676009 
L 98.236981 -202.279822 
L 98.30199 -200.883635 
L 98.384983 -199.487448 
L 98.477283 -198.091261 
L 98.567583 -196.695074 
L 98.644901 -195.298887 
L 98.701608 -193.9027 
L 98.735128 -192.506513 
L 98.747642 -191.110327 
L 98.744421 -189.71414 
L 98.732056 -188.317953 
L 98.717683 -186.921766 
L 98.709318 -185.525579 
L 98.716489 -184.129392 
L 98.749911 -182.733205 
L 98.819377 -181.337018 
L 98.930372 -179.940831 
L 99.081565 -178.544644 
L 99.265823 -177.148457 
L 99.475589 -175.75227 
L 99.709833 -174.356083 
L 99.977131 -172.959896 
L 100.290581 -171.563709 
L 100.655766 -170.167522 
L 101.059417 -168.771335 
L 101.468583 -167.375148 
L 101.844953 -165.978961 
L 102.168697 -164.582774 
L 102.457892 -163.186587 
L 102.770144 -161.7904 
L 103.183079 -160.394213 
L 103.763582 -158.998026 
L 104.542531 -157.601839 
L 105.50778 -156.205652 
L 106.616193 -154.809466 
L 107.814511 -153.413279 
L 109.05641 -152.017092 
L 110.309948 -150.620905 
L 111.558662 -149.224718 
L 112.802074 -147.828531 
L 114.055812 -146.432344 
L 115.345564 -145.036157 
L 116.690878 -143.63997 
L 118.083682 -142.243783 
L 119.473265 -140.847596 
L 120.767899 -139.451409 
L 121.855984 -138.055222 
L 122.642442 -136.659035 
L 123.090069 -135.262848 
L 123.248913 -133.866661 
L 123.253667 -132.470474 
L 123.27898 -131.074287 
L 123.466759 -129.6781 
L 123.862364 -128.281913 
L 124.397041 -126.885726 
L 124.926218 -125.489539 
L 125.296779 -124.093352 
L 125.399847 -122.697165 
L 125.182571 -121.300978 
L 124.627527 -119.904792 
L 123.730917 -118.508605 
L 122.502407 -117.112418 
L 120.981314 -115.716231 
L 119.244994 -114.320044 
L 117.393055 -112.923857 
L 115.515244 -111.52767 
L 113.666445 -110.131483 
L 111.865664 -108.735296 
L 110.115872 -107.339109 
L 108.42708 -105.942922 
L 106.826445 -104.546735 
L 105.352016 -103.150548 
L 104.038442 -101.754361 
L 102.905298 -100.358174 
L 101.953195 -98.961987 
L 101.166582 -97.5658 
L 100.520021 -96.169613 
L 99.985544 -94.773426 
L 99.539372 -93.377239 
L 99.165986 -91.981052 
L 98.858078 -90.584865 
L 98.61294 -89.188678 
L 98.427804 -87.792491 
L 98.296817 -86.396304 
L 98.210691 -85.000117 
L 98.158334 -83.603931 
L 98.129013 -82.207744 
z
" style="stroke: #3f3f3f; stroke-width: 1.25"/>
    </defs>
    <g clip-path="url(#p598795feef)">
     <use xlink:href="#m1318557592" x="0" y="345.6" style="fill: #3274a1; stroke: #3f3f3f; stroke-width: 1.25"/>
    </g>
   </g>
   <g id="PolyCollection_2">
    <defs>
     <path id="mfe1d1ca0c7" d="M 175.434967 -66.838629 
L 175.390128 -66.838629 
L 175.367599 -68.296488 
L 175.330471 -69.754348 
L 175.274626 -71.212208 
L 175.196076 -72.670067 
L 175.089062 -74.127927 
L 174.942693 -75.585787 
L 174.738449 -77.043646 
L 174.451754 -78.501506 
L 174.058913 -79.959366 
L 173.546452 -81.417225 
L 172.916618 -82.875085 
L 172.184191 -84.332945 
L 171.365758 -85.790804 
L 170.468481 -87.248664 
L 169.485457 -88.706524 
L 168.398683 -90.164383 
L 167.18515 -91.622243 
L 165.822589 -93.080102 
L 164.296768 -94.537962 
L 162.613174 -95.995822 
L 160.808522 -97.453681 
L 158.950137 -98.911541 
L 157.116368 -100.369401 
L 155.368958 -101.82726 
L 153.741358 -103.28512 
L 152.256958 -104.74298 
L 150.961617 -106.200839 
L 149.93381 -107.658699 
L 149.249124 -109.116559 
L 148.917428 -110.574418 
L 148.843401 -112.032278 
L 148.851305 -113.490138 
L 148.768072 -114.947997 
L 148.513928 -116.405857 
L 148.143317 -117.863717 
L 147.814101 -119.321576 
L 147.710533 -120.779436 
L 147.969866 -122.237296 
L 148.649406 -123.695155 
L 149.736141 -125.153015 
L 151.174476 -126.610875 
L 152.886347 -128.068734 
L 154.775712 -129.526594 
L 156.727462 -130.984453 
L 158.615911 -132.442313 
L 160.329236 -133.900173 
L 161.801126 -135.358032 
L 163.030909 -136.815892 
L 164.077303 -138.273752 
L 165.027276 -139.731611 
L 165.957572 -141.189471 
L 166.909257 -142.647331 
L 167.884176 -144.10519 
L 168.857365 -145.56305 
L 169.792785 -147.02091 
L 170.653804 -148.478769 
L 171.408315 -149.936629 
L 172.032997 -151.394489 
L 172.519086 -152.852348 
L 172.876879 -154.310208 
L 173.134279 -155.768068 
L 173.328145 -157.225927 
L 173.492633 -158.683787 
L 173.650889 -160.141647 
L 173.813578 -161.599506 
L 173.982567 -163.057366 
L 174.155139 -164.515226 
L 174.325662 -165.973085 
L 174.485455 -167.430945 
L 174.623757 -168.888804 
L 174.731335 -170.346664 
L 174.805223 -171.804524 
L 174.851363 -173.262383 
L 174.882971 -174.720243 
L 174.91518 -176.178103 
L 174.958738 -177.635962 
L 175.01601 -179.093822 
L 175.081075 -180.551682 
L 175.143528 -182.009541 
L 175.193802 -183.467401 
L 175.22724 -184.925261 
L 175.244942 -186.38312 
L 175.25135 -187.84098 
L 175.250551 -189.29884 
L 175.243978 -190.756699 
L 175.230926 -192.214559 
L 175.211015 -193.672419 
L 175.186421 -195.130278 
L 175.162284 -196.588138 
L 175.145285 -198.045998 
L 175.141467 -199.503857 
L 175.154268 -200.961717 
L 175.183336 -202.419577 
L 175.224447 -203.877436 
L 175.270727 -205.335296 
L 175.314871 -206.793155 
L 175.351395 -208.251015 
L 175.377886 -209.708875 
L 175.39482 -211.166734 
L 175.430275 -211.166734 
L 175.430275 -211.166734 
L 175.44721 -209.708875 
L 175.473701 -208.251015 
L 175.510225 -206.793155 
L 175.554368 -205.335296 
L 175.600649 -203.877436 
L 175.64176 -202.419577 
L 175.670828 -200.961717 
L 175.683629 -199.503857 
L 175.67981 -198.045998 
L 175.662812 -196.588138 
L 175.638675 -195.130278 
L 175.614081 -193.672419 
L 175.59417 -192.214559 
L 175.581118 -190.756699 
L 175.574545 -189.29884 
L 175.573746 -187.84098 
L 175.580154 -186.38312 
L 175.597855 -184.925261 
L 175.631293 -183.467401 
L 175.681568 -182.009541 
L 175.74402 -180.551682 
L 175.809085 -179.093822 
L 175.866358 -177.635962 
L 175.909916 -176.178103 
L 175.942124 -174.720243 
L 175.973733 -173.262383 
L 176.019873 -171.804524 
L 176.093761 -170.346664 
L 176.201339 -168.888804 
L 176.33964 -167.430945 
L 176.499434 -165.973085 
L 176.669957 -164.515226 
L 176.842529 -163.057366 
L 177.011518 -161.599506 
L 177.174207 -160.141647 
L 177.332462 -158.683787 
L 177.496951 -157.225927 
L 177.690817 -155.768068 
L 177.948216 -154.310208 
L 178.30601 -152.852348 
L 178.792099 -151.394489 
L 179.416781 -149.936629 
L 180.171292 -148.478769 
L 181.032311 -147.02091 
L 181.96773 -145.56305 
L 182.94092 -144.10519 
L 183.915839 -142.647331 
L 184.867524 -141.189471 
L 185.79782 -139.731611 
L 186.747793 -138.273752 
L 187.794187 -136.815892 
L 189.02397 -135.358032 
L 190.49586 -133.900173 
L 192.209185 -132.442313 
L 194.097634 -130.984453 
L 196.049384 -129.526594 
L 197.938749 -128.068734 
L 199.65062 -126.610875 
L 201.088955 -125.153015 
L 202.17569 -123.695155 
L 202.85523 -122.237296 
L 203.114563 -120.779436 
L 203.010994 -119.321576 
L 202.681778 -117.863717 
L 202.311167 -116.405857 
L 202.057023 -114.947997 
L 201.973791 -113.490138 
L 201.981694 -112.032278 
L 201.907667 -110.574418 
L 201.575972 -109.116559 
L 200.891286 -107.658699 
L 199.863479 -106.200839 
L 198.568138 -104.74298 
L 197.083738 -103.28512 
L 195.456137 -101.82726 
L 193.708727 -100.369401 
L 191.874959 -98.911541 
L 190.016574 -97.453681 
L 188.211922 -95.995822 
L 186.528328 -94.537962 
L 185.002506 -93.080102 
L 183.639945 -91.622243 
L 182.426413 -90.164383 
L 181.339638 -88.706524 
L 180.356614 -87.248664 
L 179.459338 -85.790804 
L 178.640905 -84.332945 
L 177.908478 -82.875085 
L 177.278644 -81.417225 
L 176.766183 -79.959366 
L 176.373342 -78.501506 
L 176.086646 -77.043646 
L 175.882402 -75.585787 
L 175.736034 -74.127927 
L 175.62902 -72.670067 
L 175.55047 -71.212208 
L 175.494625 -69.754348 
L 175.457497 -68.296488 
L 175.434967 -66.838629 
z
" style="stroke: #3f3f3f; stroke-width: 1.25"/>
    </defs>
    <g clip-path="url(#p598795feef)">
     <use xlink:href="#mfe1d1ca0c7" x="0" y="345.6" style="fill: #3274a1; stroke: #3f3f3f; stroke-width: 1.25"/>
    </g>
   </g>
   <g id="PolyCollection_3">
    <defs>
     <path id="mf60745e948" d="M 252.743471 -67.767837 
L 252.702782 -67.767837 
L 252.68159 -69.342445 
L 252.644699 -70.917053 
L 252.585419 -72.491661 
L 252.497033 -74.066269 
L 252.374237 -75.640876 
L 252.214772 -77.215484 
L 252.020652 -78.790092 
L 251.798068 -80.3647 
L 251.555048 -81.939308 
L 251.296704 -83.513916 
L 251.019398 -85.088524 
L 250.706514 -86.663132 
L 250.328713 -88.23774 
L 249.849816 -89.812348 
L 249.236392 -91.386956 
L 248.466704 -92.961563 
L 247.535037 -94.536171 
L 246.450955 -96.110779 
L 245.236714 -97.685387 
L 243.926178 -99.259995 
L 242.564535 -100.834603 
L 241.204292 -102.409211 
L 239.894248 -103.983819 
L 238.664455 -105.558427 
L 237.515727 -107.133035 
L 236.421386 -108.707643 
L 235.341784 -110.28225 
L 234.244316 -111.856858 
L 233.118723 -113.431466 
L 231.980974 -115.006074 
L 230.866172 -116.580682 
L 229.817395 -118.15529 
L 228.878785 -119.729898 
L 228.096306 -121.304506 
L 227.521537 -122.879114 
L 227.209578 -124.453722 
L 227.205908 -126.02833 
L 227.526536 -127.602937 
L 228.14344 -129.177545 
L 228.986887 -130.752153 
L 229.96688 -132.326761 
L 231.003599 -133.901369 
L 232.049894 -135.475977 
L 233.093675 -137.050585 
L 234.141663 -138.625193 
L 235.197964 -140.199801 
L 236.252059 -141.774409 
L 237.281865 -143.349017 
L 238.266926 -144.923625 
L 239.202033 -146.498232 
L 240.103051 -148.07284 
L 241.001536 -149.647448 
L 241.93061 -151.222056 
L 242.90961 -152.796664 
L 243.935962 -154.371272 
L 244.987493 -155.94588 
L 246.030723 -157.520488 
L 247.027694 -159.095096 
L 247.938403 -160.669704 
L 248.722722 -162.244312 
L 249.347206 -163.818919 
L 249.796683 -165.393527 
L 250.083962 -166.968135 
L 250.250068 -168.542743 
L 250.353038 -170.117351 
L 250.450209 -171.691959 
L 250.58197 -173.266567 
L 250.763094 -174.841175 
L 250.983663 -176.415783 
L 251.217917 -177.990391 
L 251.436875 -179.564999 
L 251.619663 -181.139606 
L 251.759494 -182.714214 
L 251.862999 -184.288822 
L 251.944769 -185.86343 
L 252.02042 -187.438038 
L 252.100949 -189.012646 
L 252.189766 -190.587254 
L 252.282833 -192.161862 
L 252.371672 -193.73647 
L 252.447984 -195.311078 
L 252.507621 -196.885686 
L 252.551788 -198.460293 
L 252.585065 -200.034901 
L 252.611925 -201.609509 
L 252.634157 -203.184117 
L 252.650607 -204.758725 
L 252.658924 -206.333333 
L 252.657929 -207.907941 
L 252.649193 -209.482549 
L 252.6371 -211.057157 
L 252.627392 -212.631765 
L 252.624916 -214.206373 
L 252.631701 -215.78098 
L 252.646369 -217.355588 
L 252.665146 -218.930196 
L 252.683755 -220.504804 
L 252.699101 -222.079412 
L 252.709953 -223.65402 
L 252.7363 -223.65402 
L 252.7363 -223.65402 
L 252.747152 -222.079412 
L 252.762498 -220.504804 
L 252.781108 -218.930196 
L 252.799884 -217.355588 
L 252.814553 -215.78098 
L 252.821337 -214.206373 
L 252.818861 -212.631765 
L 252.809153 -211.057157 
L 252.79706 -209.482549 
L 252.788325 -207.907941 
L 252.787329 -206.333333 
L 252.795646 -204.758725 
L 252.812096 -203.184117 
L 252.834328 -201.609509 
L 252.861188 -200.034901 
L 252.894465 -198.460293 
L 252.938632 -196.885686 
L 252.99827 -195.311078 
L 253.074581 -193.73647 
L 253.16342 -192.161862 
L 253.256487 -190.587254 
L 253.345304 -189.012646 
L 253.425833 -187.438038 
L 253.501485 -185.86343 
L 253.583255 -184.288822 
L 253.68676 -182.714214 
L 253.82659 -181.139606 
L 254.009379 -179.564999 
L 254.228336 -177.990391 
L 254.462591 -176.415783 
L 254.68316 -174.841175 
L 254.864283 -173.266567 
L 254.996045 -171.691959 
L 255.093215 -170.117351 
L 255.196185 -168.542743 
L 255.362291 -166.968135 
L 255.64957 -165.393527 
L 256.099048 -163.818919 
L 256.723531 -162.244312 
L 257.50785 -160.669704 
L 258.418559 -159.095096 
L 259.41553 -157.520488 
L 260.45876 -155.94588 
L 261.510291 -154.371272 
L 262.536643 -152.796664 
L 263.515643 -151.222056 
L 264.444717 -149.647448 
L 265.343203 -148.07284 
L 266.24422 -146.498232 
L 267.179327 -144.923625 
L 268.164388 -143.349017 
L 269.194194 -141.774409 
L 270.248289 -140.199801 
L 271.30459 -138.625193 
L 272.352578 -137.050585 
L 273.396359 -135.475977 
L 274.442655 -133.901369 
L 275.479374 -132.326761 
L 276.459366 -130.752153 
L 277.302813 -129.177545 
L 277.919717 -127.602937 
L 278.240345 -126.02833 
L 278.236676 -124.453722 
L 277.924716 -122.879114 
L 277.349947 -121.304506 
L 276.567468 -119.729898 
L 275.628859 -118.15529 
L 274.580081 -116.580682 
L 273.46528 -115.006074 
L 272.32753 -113.431466 
L 271.201937 -111.856858 
L 270.104469 -110.28225 
L 269.024867 -108.707643 
L 267.930527 -107.133035 
L 266.781798 -105.558427 
L 265.552005 -103.983819 
L 264.241961 -102.409211 
L 262.881718 -100.834603 
L 261.520075 -99.259995 
L 260.209539 -97.685387 
L 258.995299 -96.110779 
L 257.911216 -94.536171 
L 256.979549 -92.961563 
L 256.209861 -91.386956 
L 255.596438 -89.812348 
L 255.11754 -88.23774 
L 254.73974 -86.663132 
L 254.426855 -85.088524 
L 254.149549 -83.513916 
L 253.891205 -81.939308 
L 253.648185 -80.3647 
L 253.425601 -78.790092 
L 253.231481 -77.215484 
L 253.072016 -75.640876 
L 252.94922 -74.066269 
L 252.860834 -72.491661 
L 252.801554 -70.917053 
L 252.764664 -69.342445 
L 252.743471 -67.767837 
z
" style="stroke: #3f3f3f; stroke-width: 1.25"/>
    </defs>
    <g clip-path="url(#p598795feef)">
     <use xlink:href="#mf60745e948" x="0" y="345.6" style="fill: #3274a1; stroke: #3f3f3f; stroke-width: 1.25"/>
    </g>
   </g>
   <g id="PolyCollection_4">
    <defs>
     <path id="m5a4af08492" d="M 330.062966 -54.928364 
L 330.004445 -54.928364 
L 329.976021 -56.191668 
L 329.929286 -57.454972 
L 329.859274 -58.718277 
L 329.762958 -59.981581 
L 329.639646 -61.244885 
L 329.489696 -62.50819 
L 329.311828 -63.771494 
L 329.100487 -65.034799 
L 328.844855 -66.298103 
L 328.529881 -67.561407 
L 328.137939 -68.824712 
L 327.649245 -70.088016 
L 327.040798 -71.35132 
L 326.28607 -72.614625 
L 325.358151 -73.877929 
L 324.236319 -75.141233 
L 322.912215 -76.404538 
L 321.39144 -77.667842 
L 319.690855 -78.931146 
L 317.837008 -80.194451 
L 315.87034 -81.457755 
L 313.852311 -82.72106 
L 311.865563 -83.984364 
L 309.999078 -85.247668 
L 308.32134 -86.510973 
L 306.855546 -87.774277 
L 305.572552 -89.037581 
L 304.407985 -90.300886 
L 303.296668 -91.56419 
L 302.208226 -92.827494 
L 301.167195 -94.090799 
L 300.248465 -95.354103 
L 299.550478 -96.617407 
L 299.158009 -97.880712 
L 299.109474 -99.144016 
L 299.381013 -100.407321 
L 299.894175 -101.670625 
L 300.546972 -102.933929 
L 301.258238 -104.197234 
L 302.005047 -105.460538 
L 302.831237 -106.723842 
L 303.818602 -107.987147 
L 305.035503 -109.250451 
L 306.493112 -110.513755 
L 308.133731 -111.77706 
L 309.853137 -113.040364 
L 311.538595 -114.303668 
L 313.100994 -115.566973 
L 314.49103 -116.830277 
L 315.70155 -118.093582 
L 316.761706 -119.356886 
L 317.72536 -120.62019 
L 318.653805 -121.883495 
L 319.594961 -123.146799 
L 320.565371 -124.410103 
L 321.543204 -125.673408 
L 322.477262 -126.936712 
L 323.30952 -128.200016 
L 324.001173 -129.463321 
L 324.54946 -130.726625 
L 324.987193 -131.98993 
L 325.366204 -133.253234 
L 325.734191 -134.516538 
L 326.116872 -135.779843 
L 326.513015 -137.043147 
L 326.902091 -138.306451 
L 327.258097 -139.569756 
L 327.561909 -140.83306 
L 327.807811 -142.096364 
L 328.004083 -143.359669 
L 328.169576 -144.622973 
L 328.327852 -145.886277 
L 328.500009 -147.149582 
L 328.697915 -148.412886 
L 328.920421 -149.676191 
L 329.154446 -150.939495 
L 329.380469 -152.202799 
L 329.579727 -153.466104 
L 329.739868 -154.729408 
L 329.857173 -155.992712 
L 329.935333 -157.256017 
L 329.982227 -158.519321 
L 330.006343 -159.782625 
L 330.014094 -161.04593 
L 330.008495 -162.309234 
L 329.98933 -163.572538 
L 329.954714 -164.835843 
L 329.903828 -166.099147 
L 329.839982 -167.362452 
L 329.772429 -168.625756 
L 329.715267 -169.88906 
L 329.683028 -171.152365 
L 329.684778 -172.415669 
L 329.720018 -173.678973 
L 329.778912 -174.942278 
L 329.846723 -176.205582 
L 329.909733 -177.468886 
L 329.959445 -178.732191 
L 329.993518 -179.995495 
L 330.073892 -179.995495 
L 330.073892 -179.995495 
L 330.107966 -178.732191 
L 330.157678 -177.468886 
L 330.220688 -176.205582 
L 330.288499 -174.942278 
L 330.347393 -173.678973 
L 330.382633 -172.415669 
L 330.384383 -171.152365 
L 330.352144 -169.88906 
L 330.294981 -168.625756 
L 330.227429 -167.362452 
L 330.163583 -166.099147 
L 330.112697 -164.835843 
L 330.078081 -163.572538 
L 330.058916 -162.309234 
L 330.053317 -161.04593 
L 330.061067 -159.782625 
L 330.085184 -158.519321 
L 330.132077 -157.256017 
L 330.210238 -155.992712 
L 330.327543 -154.729408 
L 330.487684 -153.466104 
L 330.686941 -152.202799 
L 330.912965 -150.939495 
L 331.14699 -149.676191 
L 331.369496 -148.412886 
L 331.567402 -147.149582 
L 331.739559 -145.886277 
L 331.897835 -144.622973 
L 332.063328 -143.359669 
L 332.2596 -142.096364 
L 332.505501 -140.83306 
L 332.809314 -139.569756 
L 333.16532 -138.306451 
L 333.554396 -137.043147 
L 333.950539 -135.779843 
L 334.33322 -134.516538 
L 334.701207 -133.253234 
L 335.080218 -131.98993 
L 335.517951 -130.726625 
L 336.066238 -129.463321 
L 336.757891 -128.200016 
L 337.590149 -126.936712 
L 338.524207 -125.673408 
L 339.50204 -124.410103 
L 340.47245 -123.146799 
L 341.413606 -121.883495 
L 342.342051 -120.62019 
L 343.305705 -119.356886 
L 344.365861 -118.093582 
L 345.576381 -116.830277 
L 346.966417 -115.566973 
L 348.528816 -114.303668 
L 350.214274 -113.040364 
L 351.93368 -111.77706 
L 353.574299 -110.513755 
L 355.031907 -109.250451 
L 356.248809 -107.987147 
L 357.236174 -106.723842 
L 358.062364 -105.460538 
L 358.809173 -104.197234 
L 359.520439 -102.933929 
L 360.173236 -101.670625 
L 360.686397 -100.407321 
L 360.957937 -99.144016 
L 360.909402 -97.880712 
L 360.516933 -96.617407 
L 359.818946 -95.354103 
L 358.900216 -94.090799 
L 357.859185 -92.827494 
L 356.770743 -91.56419 
L 355.659425 -90.300886 
L 354.494859 -89.037581 
L 353.211865 -87.774277 
L 351.746071 -86.510973 
L 350.068333 -85.247668 
L 348.201848 -83.984364 
L 346.2151 -82.72106 
L 344.197071 -81.457755 
L 342.230403 -80.194451 
L 340.376556 -78.931146 
L 338.675971 -77.667842 
L 337.155196 -76.404538 
L 335.831092 -75.141233 
L 334.70926 -73.877929 
L 333.781341 -72.614625 
L 333.026613 -71.35132 
L 332.418166 -70.088016 
L 331.929472 -68.824712 
L 331.53753 -67.561407 
L 331.222556 -66.298103 
L 330.966923 -65.034799 
L 330.755583 -63.771494 
L 330.577715 -62.50819 
L 330.427765 -61.244885 
L 330.304453 -59.981581 
L 330.208137 -58.718277 
L 330.138125 -57.454972 
L 330.09139 -56.191668 
L 330.062966 -54.928364 
z
" style="stroke: #3f3f3f; stroke-width: 1.25"/>
    </defs>
    <g clip-path="url(#p598795feef)">
     <use xlink:href="#m5a4af08492" x="0" y="345.6" style="fill: #3274a1; stroke: #3f3f3f; stroke-width: 1.25"/>
    </g>
   </g>
   <g id="PolyCollection_5">
    <defs>
     <path id="m7124954ef8" d="M 407.371546 -129.276034 
L 407.317022 -129.276034 
L 407.286939 -131.196636 
L 407.234789 -133.117238 
L 407.152884 -135.03784 
L 407.034467 -136.958442 
L 406.87319 -138.879044 
L 406.660493 -140.799646 
L 406.382285 -142.720248 
L 406.017628 -144.64085 
L 405.541399 -146.561452 
L 404.93069 -148.482054 
L 404.172643 -150.402657 
L 403.270483 -152.323259 
L 402.244649 -154.243861 
L 401.127466 -156.164463 
L 399.953148 -158.085065 
L 398.748035 -160.005667 
L 397.525822 -161.926269 
L 396.288744 -163.846871 
L 395.032081 -165.767473 
L 393.749249 -167.688075 
L 392.437151 -169.608677 
L 391.102811 -171.529279 
L 389.770539 -173.449881 
L 388.485677 -175.370483 
L 387.310246 -177.291085 
L 386.310217 -179.211687 
L 385.540463 -181.132289 
L 385.034792 -183.052891 
L 384.802659 -184.973493 
L 384.828755 -186.894095 
L 385.074235 -188.814697 
L 385.484962 -190.735299 
L 386.010763 -192.655901 
L 386.6278 -194.576504 
L 387.346692 -196.497106 
L 388.195946 -198.417708 
L 389.189969 -200.33831 
L 390.304903 -202.258912 
L 391.479909 -204.179514 
L 392.6419 -206.100116 
L 393.735754 -208.020718 
L 394.741705 -209.94132 
L 395.673634 -211.861922 
L 396.564335 -213.782524 
L 397.448293 -215.703126 
L 398.349337 -217.623728 
L 399.274989 -219.54433 
L 400.215971 -221.464932 
L 401.148936 -223.385534 
L 402.041224 -225.306136 
L 402.856712 -227.226738 
L 403.562102 -229.14734 
L 404.133652 -231.067942 
L 404.564436 -232.988544 
L 404.870045 -234.909146 
L 405.088078 -236.829748 
L 405.267741 -238.750351 
L 405.452007 -240.670953 
L 405.661348 -242.591555 
L 405.888737 -244.512157 
L 406.108526 -246.432759 
L 406.292951 -248.353361 
L 406.42626 -250.273963 
L 406.509978 -252.194565 
L 406.559254 -254.115167 
L 406.594655 -256.035769 
L 406.634204 -257.956371 
L 406.688509 -259.876973 
L 406.759544 -261.797575 
L 406.842253 -263.718177 
L 406.927676 -265.638779 
L 407.006371 -267.559381 
L 407.071178 -269.479983 
L 407.118728 -271.400585 
L 407.14947 -273.321187 
L 407.166494 -275.241789 
L 407.173879 -277.162391 
L 407.175466 -279.082993 
L 407.174534 -281.003595 
L 407.1741 -282.924198 
L 407.177091 -284.8448 
L 407.18589 -286.765402 
L 407.201331 -288.686004 
L 407.221765 -290.606606 
L 407.242913 -292.527208 
L 407.258928 -294.44781 
L 407.264482 -296.368412 
L 407.257076 -298.289014 
L 407.238552 -300.209616 
L 407.214987 -302.130218 
L 407.194792 -304.05082 
L 407.185638 -305.971422 
L 407.191531 -307.892024 
L 407.211441 -309.812626 
L 407.240166 -311.733228 
L 407.270858 -313.65383 
L 407.297763 -315.574432 
L 407.317845 -317.495034 
L 407.330827 -319.415636 
L 407.357741 -319.415636 
L 407.357741 -319.415636 
L 407.370724 -317.495034 
L 407.390806 -315.574432 
L 407.417711 -313.65383 
L 407.448402 -311.733228 
L 407.477128 -309.812626 
L 407.497038 -307.892024 
L 407.50293 -305.971422 
L 407.493777 -304.05082 
L 407.473582 -302.130218 
L 407.450017 -300.209616 
L 407.431493 -298.289014 
L 407.424087 -296.368412 
L 407.42964 -294.44781 
L 407.445655 -292.527208 
L 407.466803 -290.606606 
L 407.487238 -288.686004 
L 407.502679 -286.765402 
L 407.511477 -284.8448 
L 407.514468 -282.924198 
L 407.514034 -281.003595 
L 407.513103 -279.082993 
L 407.51469 -277.162391 
L 407.522074 -275.241789 
L 407.539098 -273.321187 
L 407.56984 -271.400585 
L 407.61739 -269.479983 
L 407.682198 -267.559381 
L 407.760892 -265.638779 
L 407.846315 -263.718177 
L 407.929024 -261.797575 
L 408.00006 -259.876973 
L 408.054364 -257.956371 
L 408.093913 -256.035769 
L 408.129314 -254.115167 
L 408.178591 -252.194565 
L 408.262308 -250.273963 
L 408.395617 -248.353361 
L 408.580042 -246.432759 
L 408.799832 -244.512157 
L 409.02722 -242.591555 
L 409.236562 -240.670953 
L 409.420827 -238.750351 
L 409.600491 -236.829748 
L 409.818523 -234.909146 
L 410.124133 -232.988544 
L 410.554917 -231.067942 
L 411.126467 -229.14734 
L 411.831856 -227.226738 
L 412.647345 -225.306136 
L 413.539632 -223.385534 
L 414.472598 -221.464932 
L 415.413579 -219.54433 
L 416.339231 -217.623728 
L 417.240275 -215.703126 
L 418.124233 -213.782524 
L 419.014934 -211.861922 
L 419.946864 -209.94132 
L 420.952815 -208.020718 
L 422.046668 -206.100116 
L 423.20866 -204.179514 
L 424.383666 -202.258912 
L 425.4986 -200.33831 
L 426.492623 -198.417708 
L 427.341876 -196.497106 
L 428.060768 -194.576504 
L 428.677805 -192.655901 
L 429.203607 -190.735299 
L 429.614334 -188.814697 
L 429.859814 -186.894095 
L 429.885909 -184.973493 
L 429.653776 -183.052891 
L 429.148105 -181.132289 
L 428.378352 -179.211687 
L 427.378322 -177.291085 
L 426.202892 -175.370483 
L 424.918029 -173.449881 
L 423.585757 -171.529279 
L 422.251417 -169.608677 
L 420.93932 -167.688075 
L 419.656488 -165.767473 
L 418.399824 -163.846871 
L 417.162746 -161.926269 
L 415.940533 -160.005667 
L 414.73542 -158.085065 
L 413.561102 -156.164463 
L 412.44392 -154.243861 
L 411.418085 -152.323259 
L 410.515925 -150.402657 
L 409.757878 -148.482054 
L 409.14717 -146.561452 
L 408.670941 -144.64085 
L 408.306283 -142.720248 
L 408.028076 -140.799646 
L 407.815379 -138.879044 
L 407.654102 -136.958442 
L 407.535685 -135.03784 
L 407.453779 -133.117238 
L 407.401629 -131.196636 
L 407.371546 -129.276034 
z
" style="stroke: #3f3f3f; stroke-width: 1.25"/>
    </defs>
    <g clip-path="url(#p598795feef)">
     <use xlink:href="#m7124954ef8" x="0" y="345.6" style="fill: #3274a1; stroke: #3f3f3f; stroke-width: 1.25"/>
    </g>
   </g>
   <g id="matplotlib.axis_1">
    <g id="xtick_1">
     <g id="line2d_1">
      <defs>
       <path id="m1a15449403" d="M 0 0 
L 0 3.5 
" style="stroke: #000000; stroke-width: 0.8"/>
      </defs>
      <g>
       <use xlink:href="#m1a15449403" x="98.101969" y="303.896" style="stroke: #000000; stroke-width: 0.8"/>
      </g>
     </g>
     <g id="text_1">
      <!-- Fluency -->
      <g transform="translate(78.714469 318.494438) scale(0.1 -0.1)">
       <defs>
        <path id="DejaVuSans-46" d="M 628 4666 
L 3309 4666 
L 3309 4134 
L 1259 4134 
L 1259 2759 
L 3109 2759 
L 3109 2228 
L 1259 2228 
L 1259 0 
L 628 0 
L 628 4666 
z
" transform="scale(0.015625)"/>
        <path id="DejaVuSans-6c" d="M 603 4863 
L 1178 4863 
L 1178 0 
L 603 0 
L 603 4863 
z
" transform="scale(0.015625)"/>
        <path id="DejaVuSans-75" d="M 544 1381 
L 544 3500 
L 1119 3500 
L 1119 1403 
Q 1119 906 1312 657 
Q 1506 409 1894 409 
Q 2359 409 2629 706 
Q 2900 1003 2900 1516 
L 2900 3500 
L 3475 3500 
L 3475 0 
L 2900 0 
L 2900 538 
Q 2691 219 2414 64 
Q 2138 -91 1772 -91 
Q 1169 -91 856 284 
Q 544 659 544 1381 
z
M 1991 3584 
L 1991 3584 
z
" transform="scale(0.015625)"/>
        <path id="DejaVuSans-65" d="M 3597 1894 
L 3597 1613 
L 953 1613 
Q 991 1019 1311 708 
Q 1631 397 2203 397 
Q 2534 397 2845 478 
Q 3156 559 3463 722 
L 3463 178 
Q 3153 47 2828 -22 
Q 2503 -91 2169 -91 
Q 1331 -91 842 396 
Q 353 884 353 1716 
Q 353 2575 817 3079 
Q 1281 3584 2069 3584 
Q 2775 3584 3186 3129 
Q 3597 2675 3597 1894 
z
M 3022 2063 
Q 3016 2534 2758 2815 
Q 2500 3097 2075 3097 
Q 1594 3097 1305 2825 
Q 1016 2553 972 2059 
L 3022 2063 
z
" transform="scale(0.015625)"/>
        <path id="DejaVuSans-6e" d="M 3513 2113 
L 3513 0 
L 2938 0 
L 2938 2094 
Q 2938 2591 2744 2837 
Q 2550 3084 2163 3084 
Q 1697 3084 1428 2787 
Q 1159 2491 1159 1978 
L 1159 0 
L 581 0 
L 581 3500 
L 1159 3500 
L 1159 2956 
Q 1366 3272 1645 3428 
Q 1925 3584 2291 3584 
Q 2894 3584 3203 3211 
Q 3513 2838 3513 2113 
z
" transform="scale(0.015625)"/>
        <path id="DejaVuSans-63" d="M 3122 3366 
L 3122 2828 
Q 2878 2963 2633 3030 
Q 2388 3097 2138 3097 
Q 1578 3097 1268 2742 
Q 959 2388 959 1747 
Q 959 1106 1268 751 
Q 1578 397 2138 397 
Q 2388 397 2633 464 
Q 2878 531 3122 666 
L 3122 134 
Q 2881 22 2623 -34 
Q 2366 -91 2075 -91 
Q 1284 -91 818 406 
Q 353 903 353 1747 
Q 353 2603 823 3093 
Q 1294 3584 2113 3584 
Q 2378 3584 2631 3529 
Q 2884 3475 3122 3366 
z
" transform="scale(0.015625)"/>
        <path id="DejaVuSans-79" d="M 2059 -325 
Q 1816 -950 1584 -1140 
Q 1353 -1331 966 -1331 
L 506 -1331 
L 506 -850 
L 844 -850 
Q 1081 -850 1212 -737 
Q 1344 -625 1503 -206 
L 1606 56 
L 191 3500 
L 800 3500 
L 1894 763 
L 2988 3500 
L 3597 3500 
L 2059 -325 
z
" transform="scale(0.015625)"/>
       </defs>
       <use xlink:href="#DejaVuSans-46"/>
       <use xlink:href="#DejaVuSans-6c" x="57.519531"/>
       <use xlink:href="#DejaVuSans-75" x="85.302734"/>
       <use xlink:href="#DejaVuSans-65" x="148.681641"/>
       <use xlink:href="#DejaVuSans-6e" x="210.205078"/>
       <use xlink:href="#DejaVuSans-63" x="273.583984"/>
       <use xlink:href="#DejaVuSans-79" x="328.564453"/>
      </g>
      <!--  classifier -->
      <g transform="translate(74.430875 329.69225) scale(0.1 -0.1)">
       <defs>
        <path id="DejaVuSans-20" transform="scale(0.015625)"/>
        <path id="DejaVuSans-61" d="M 2194 1759 
Q 1497 1759 1228 1600 
Q 959 1441 959 1056 
Q 959 750 1161 570 
Q 1363 391 1709 391 
Q 2188 391 2477 730 
Q 2766 1069 2766 1631 
L 2766 1759 
L 2194 1759 
z
M 3341 1997 
L 3341 0 
L 2766 0 
L 2766 531 
Q 2569 213 2275 61 
Q 1981 -91 1556 -91 
Q 1019 -91 701 211 
Q 384 513 384 1019 
Q 384 1609 779 1909 
Q 1175 2209 1959 2209 
L 2766 2209 
L 2766 2266 
Q 2766 2663 2505 2880 
Q 2244 3097 1772 3097 
Q 1472 3097 1187 3025 
Q 903 2953 641 2809 
L 641 3341 
Q 956 3463 1253 3523 
Q 1550 3584 1831 3584 
Q 2591 3584 2966 3190 
Q 3341 2797 3341 1997 
z
" transform="scale(0.015625)"/>
        <path id="DejaVuSans-73" d="M 2834 3397 
L 2834 2853 
Q 2591 2978 2328 3040 
Q 2066 3103 1784 3103 
Q 1356 3103 1142 2972 
Q 928 2841 928 2578 
Q 928 2378 1081 2264 
Q 1234 2150 1697 2047 
L 1894 2003 
Q 2506 1872 2764 1633 
Q 3022 1394 3022 966 
Q 3022 478 2636 193 
Q 2250 -91 1575 -91 
Q 1294 -91 989 -36 
Q 684 19 347 128 
L 347 722 
Q 666 556 975 473 
Q 1284 391 1588 391 
Q 1994 391 2212 530 
Q 2431 669 2431 922 
Q 2431 1156 2273 1281 
Q 2116 1406 1581 1522 
L 1381 1569 
Q 847 1681 609 1914 
Q 372 2147 372 2553 
Q 372 3047 722 3315 
Q 1072 3584 1716 3584 
Q 2034 3584 2315 3537 
Q 2597 3491 2834 3397 
z
" transform="scale(0.015625)"/>
        <path id="DejaVuSans-69" d="M 603 3500 
L 1178 3500 
L 1178 0 
L 603 0 
L 603 3500 
z
M 603 4863 
L 1178 4863 
L 1178 4134 
L 603 4134 
L 603 4863 
z
" transform="scale(0.015625)"/>
        <path id="DejaVuSans-66" d="M 2375 4863 
L 2375 4384 
L 1825 4384 
Q 1516 4384 1395 4259 
Q 1275 4134 1275 3809 
L 1275 3500 
L 2222 3500 
L 2222 3053 
L 1275 3053 
L 1275 0 
L 697 0 
L 697 3053 
L 147 3053 
L 147 3500 
L 697 3500 
L 697 3744 
Q 697 4328 969 4595 
Q 1241 4863 1831 4863 
L 2375 4863 
z
" transform="scale(0.015625)"/>
        <path id="DejaVuSans-72" d="M 2631 2963 
Q 2534 3019 2420 3045 
Q 2306 3072 2169 3072 
Q 1681 3072 1420 2755 
Q 1159 2438 1159 1844 
L 1159 0 
L 581 0 
L 581 3500 
L 1159 3500 
L 1159 2956 
Q 1341 3275 1631 3429 
Q 1922 3584 2338 3584 
Q 2397 3584 2469 3576 
Q 2541 3569 2628 3553 
L 2631 2963 
z
" transform="scale(0.015625)"/>
       </defs>
       <use xlink:href="#DejaVuSans-20"/>
       <use xlink:href="#DejaVuSans-63" x="31.787109"/>
       <use xlink:href="#DejaVuSans-6c" x="86.767578"/>
       <use xlink:href="#DejaVuSans-61" x="114.550781"/>
       <use xlink:href="#DejaVuSans-73" x="175.830078"/>
       <use xlink:href="#DejaVuSans-73" x="227.929688"/>
       <use xlink:href="#DejaVuSans-69" x="280.029297"/>
       <use xlink:href="#DejaVuSans-66" x="307.8125"/>
       <use xlink:href="#DejaVuSans-69" x="343.017578"/>
       <use xlink:href="#DejaVuSans-65" x="370.800781"/>
       <use xlink:href="#DejaVuSans-72" x="432.324219"/>
      </g>
     </g>
    </g>
    <g id="xtick_2">
     <g id="line2d_2">
      <g>
       <use xlink:href="#m1a15449403" x="175.412548" y="303.896" style="stroke: #000000; stroke-width: 0.8"/>
      </g>
     </g>
     <g id="text_2">
      <!-- Screening -->
      <g transform="translate(150.492235 318.494438) scale(0.1 -0.1)">
       <defs>
        <path id="DejaVuSans-53" d="M 3425 4513 
L 3425 3897 
Q 3066 4069 2747 4153 
Q 2428 4238 2131 4238 
Q 1616 4238 1336 4038 
Q 1056 3838 1056 3469 
Q 1056 3159 1242 3001 
Q 1428 2844 1947 2747 
L 2328 2669 
Q 3034 2534 3370 2195 
Q 3706 1856 3706 1288 
Q 3706 609 3251 259 
Q 2797 -91 1919 -91 
Q 1588 -91 1214 -16 
Q 841 59 441 206 
L 441 856 
Q 825 641 1194 531 
Q 1563 422 1919 422 
Q 2459 422 2753 634 
Q 3047 847 3047 1241 
Q 3047 1584 2836 1778 
Q 2625 1972 2144 2069 
L 1759 2144 
Q 1053 2284 737 2584 
Q 422 2884 422 3419 
Q 422 4038 858 4394 
Q 1294 4750 2059 4750 
Q 2388 4750 2728 4690 
Q 3069 4631 3425 4513 
z
" transform="scale(0.015625)"/>
        <path id="DejaVuSans-67" d="M 2906 1791 
Q 2906 2416 2648 2759 
Q 2391 3103 1925 3103 
Q 1463 3103 1205 2759 
Q 947 2416 947 1791 
Q 947 1169 1205 825 
Q 1463 481 1925 481 
Q 2391 481 2648 825 
Q 2906 1169 2906 1791 
z
M 3481 434 
Q 3481 -459 3084 -895 
Q 2688 -1331 1869 -1331 
Q 1566 -1331 1297 -1286 
Q 1028 -1241 775 -1147 
L 775 -588 
Q 1028 -725 1275 -790 
Q 1522 -856 1778 -856 
Q 2344 -856 2625 -561 
Q 2906 -266 2906 331 
L 2906 616 
Q 2728 306 2450 153 
Q 2172 0 1784 0 
Q 1141 0 747 490 
Q 353 981 353 1791 
Q 353 2603 747 3093 
Q 1141 3584 1784 3584 
Q 2172 3584 2450 3431 
Q 2728 3278 2906 2969 
L 2906 3500 
L 3481 3500 
L 3481 434 
z
" transform="scale(0.015625)"/>
       </defs>
       <use xlink:href="#DejaVuSans-53"/>
       <use xlink:href="#DejaVuSans-63" x="63.476562"/>
       <use xlink:href="#DejaVuSans-72" x="118.457031"/>
       <use xlink:href="#DejaVuSans-65" x="157.320312"/>
       <use xlink:href="#DejaVuSans-65" x="218.84375"/>
       <use xlink:href="#DejaVuSans-6e" x="280.367188"/>
       <use xlink:href="#DejaVuSans-69" x="343.746094"/>
       <use xlink:href="#DejaVuSans-6e" x="371.529297"/>
       <use xlink:href="#DejaVuSans-67" x="434.908203"/>
      </g>
      <!--  classifier -->
      <g transform="translate(151.741454 329.69225) scale(0.1 -0.1)">
       <use xlink:href="#DejaVuSans-20"/>
       <use xlink:href="#DejaVuSans-63" x="31.787109"/>
       <use xlink:href="#DejaVuSans-6c" x="86.767578"/>
       <use xlink:href="#DejaVuSans-61" x="114.550781"/>
       <use xlink:href="#DejaVuSans-73" x="175.830078"/>
       <use xlink:href="#DejaVuSans-73" x="227.929688"/>
       <use xlink:href="#DejaVuSans-69" x="280.029297"/>
       <use xlink:href="#DejaVuSans-66" x="307.8125"/>
       <use xlink:href="#DejaVuSans-69" x="343.017578"/>
       <use xlink:href="#DejaVuSans-65" x="370.800781"/>
       <use xlink:href="#DejaVuSans-72" x="432.324219"/>
      </g>
     </g>
    </g>
    <g id="xtick_3">
     <g id="line2d_3">
      <g>
       <use xlink:href="#m1a15449403" x="252.723127" y="303.896" style="stroke: #000000; stroke-width: 0.8"/>
      </g>
     </g>
     <g id="text_3">
      <!-- Executive -->
      <g transform="translate(228.380939 318.494438) scale(0.1 -0.1)">
       <defs>
        <path id="DejaVuSans-45" d="M 628 4666 
L 3578 4666 
L 3578 4134 
L 1259 4134 
L 1259 2753 
L 3481 2753 
L 3481 2222 
L 1259 2222 
L 1259 531 
L 3634 531 
L 3634 0 
L 628 0 
L 628 4666 
z
" transform="scale(0.015625)"/>
        <path id="DejaVuSans-78" d="M 3513 3500 
L 2247 1797 
L 3578 0 
L 2900 0 
L 1881 1375 
L 863 0 
L 184 0 
L 1544 1831 
L 300 3500 
L 978 3500 
L 1906 2253 
L 2834 3500 
L 3513 3500 
z
" transform="scale(0.015625)"/>
        <path id="DejaVuSans-74" d="M 1172 4494 
L 1172 3500 
L 2356 3500 
L 2356 3053 
L 1172 3053 
L 1172 1153 
Q 1172 725 1289 603 
Q 1406 481 1766 481 
L 2356 481 
L 2356 0 
L 1766 0 
Q 1100 0 847 248 
Q 594 497 594 1153 
L 594 3053 
L 172 3053 
L 172 3500 
L 594 3500 
L 594 4494 
L 1172 4494 
z
" transform="scale(0.015625)"/>
        <path id="DejaVuSans-76" d="M 191 3500 
L 800 3500 
L 1894 563 
L 2988 3500 
L 3597 3500 
L 2284 0 
L 1503 0 
L 191 3500 
z
" transform="scale(0.015625)"/>
       </defs>
       <use xlink:href="#DejaVuSans-45"/>
       <use xlink:href="#DejaVuSans-78" x="63.183594"/>
       <use xlink:href="#DejaVuSans-65" x="119.238281"/>
       <use xlink:href="#DejaVuSans-63" x="180.761719"/>
       <use xlink:href="#DejaVuSans-75" x="235.742188"/>
       <use xlink:href="#DejaVuSans-74" x="299.121094"/>
       <use xlink:href="#DejaVuSans-69" x="338.330078"/>
       <use xlink:href="#DejaVuSans-76" x="366.113281"/>
       <use xlink:href="#DejaVuSans-65" x="425.292969"/>
      </g>
      <!--  classifier -->
      <g transform="translate(229.052033 329.69225) scale(0.1 -0.1)">
       <use xlink:href="#DejaVuSans-20"/>
       <use xlink:href="#DejaVuSans-63" x="31.787109"/>
       <use xlink:href="#DejaVuSans-6c" x="86.767578"/>
       <use xlink:href="#DejaVuSans-61" x="114.550781"/>
       <use xlink:href="#DejaVuSans-73" x="175.830078"/>
       <use xlink:href="#DejaVuSans-73" x="227.929688"/>
       <use xlink:href="#DejaVuSans-69" x="280.029297"/>
       <use xlink:href="#DejaVuSans-66" x="307.8125"/>
       <use xlink:href="#DejaVuSans-69" x="343.017578"/>
       <use xlink:href="#DejaVuSans-65" x="370.800781"/>
       <use xlink:href="#DejaVuSans-72" x="432.324219"/>
      </g>
     </g>
    </g>
    <g id="xtick_4">
     <g id="line2d_4">
      <g>
       <use xlink:href="#m1a15449403" x="330.033705" y="303.896" style="stroke: #000000; stroke-width: 0.8"/>
      </g>
     </g>
     <g id="text_4">
      <!-- Structural -->
      <g transform="translate(305.288393 318.494438) scale(0.1 -0.1)">
       <use xlink:href="#DejaVuSans-53"/>
       <use xlink:href="#DejaVuSans-74" x="63.476562"/>
       <use xlink:href="#DejaVuSans-72" x="102.685547"/>
       <use xlink:href="#DejaVuSans-75" x="143.798828"/>
       <use xlink:href="#DejaVuSans-63" x="207.177734"/>
       <use xlink:href="#DejaVuSans-74" x="262.158203"/>
       <use xlink:href="#DejaVuSans-75" x="301.367188"/>
       <use xlink:href="#DejaVuSans-72" x="364.746094"/>
       <use xlink:href="#DejaVuSans-61" x="405.859375"/>
       <use xlink:href="#DejaVuSans-6c" x="467.138672"/>
      </g>
      <!--  classifier -->
      <g transform="translate(306.362612 329.69225) scale(0.1 -0.1)">
       <use xlink:href="#DejaVuSans-20"/>
       <use xlink:href="#DejaVuSans-63" x="31.787109"/>
       <use xlink:href="#DejaVuSans-6c" x="86.767578"/>
       <use xlink:href="#DejaVuSans-61" x="114.550781"/>
       <use xlink:href="#DejaVuSans-73" x="175.830078"/>
       <use xlink:href="#DejaVuSans-73" x="227.929688"/>
       <use xlink:href="#DejaVuSans-69" x="280.029297"/>
       <use xlink:href="#DejaVuSans-66" x="307.8125"/>
       <use xlink:href="#DejaVuSans-69" x="343.017578"/>
       <use xlink:href="#DejaVuSans-65" x="370.800781"/>
       <use xlink:href="#DejaVuSans-72" x="432.324219"/>
      </g>
     </g>
    </g>
    <g id="xtick_5">
     <g id="line2d_5">
      <g>
       <use xlink:href="#m1a15449403" x="407.344284" y="303.896" style="stroke: #000000; stroke-width: 0.8"/>
      </g>
     </g>
     <g id="text_5">
      <!-- Functional -->
      <g transform="translate(381.626315 318.494438) scale(0.1 -0.1)">
       <defs>
        <path id="DejaVuSans-6f" d="M 1959 3097 
Q 1497 3097 1228 2736 
Q 959 2375 959 1747 
Q 959 1119 1226 758 
Q 1494 397 1959 397 
Q 2419 397 2687 759 
Q 2956 1122 2956 1747 
Q 2956 2369 2687 2733 
Q 2419 3097 1959 3097 
z
M 1959 3584 
Q 2709 3584 3137 3096 
Q 3566 2609 3566 1747 
Q 3566 888 3137 398 
Q 2709 -91 1959 -91 
Q 1206 -91 779 398 
Q 353 888 353 1747 
Q 353 2609 779 3096 
Q 1206 3584 1959 3584 
z
" transform="scale(0.015625)"/>
       </defs>
       <use xlink:href="#DejaVuSans-46"/>
       <use xlink:href="#DejaVuSans-75" x="52.019531"/>
       <use xlink:href="#DejaVuSans-6e" x="115.398438"/>
       <use xlink:href="#DejaVuSans-63" x="178.777344"/>
       <use xlink:href="#DejaVuSans-74" x="233.757812"/>
       <use xlink:href="#DejaVuSans-69" x="272.966797"/>
       <use xlink:href="#DejaVuSans-6f" x="300.75"/>
       <use xlink:href="#DejaVuSans-6e" x="361.931641"/>
       <use xlink:href="#DejaVuSans-61" x="425.310547"/>
       <use xlink:href="#DejaVuSans-6c" x="486.589844"/>
      </g>
      <!--  classifier -->
      <g transform="translate(383.67319 329.69225) scale(0.1 -0.1)">
       <use xlink:href="#DejaVuSans-20"/>
       <use xlink:href="#DejaVuSans-63" x="31.787109"/>
       <use xlink:href="#DejaVuSans-6c" x="86.767578"/>
       <use xlink:href="#DejaVuSans-61" x="114.550781"/>
       <use xlink:href="#DejaVuSans-73" x="175.830078"/>
       <use xlink:href="#DejaVuSans-73" x="227.929688"/>
       <use xlink:href="#DejaVuSans-69" x="280.029297"/>
       <use xlink:href="#DejaVuSans-66" x="307.8125"/>
       <use xlink:href="#DejaVuSans-69" x="343.017578"/>
       <use xlink:href="#DejaVuSans-65" x="370.800781"/>
       <use xlink:href="#DejaVuSans-72" x="432.324219"/>
      </g>
     </g>
    </g>
   </g>
   <g id="matplotlib.axis_2">
    <g id="ytick_1">
     <g id="line2d_6">
      <defs>
       <path id="m9bc2234e61" d="M 0 0 
L -3.5 0 
" style="stroke: #000000; stroke-width: 0.8"/>
      </defs>
      <g>
       <use xlink:href="#m9bc2234e61" x="52.85" y="275.133324" style="stroke: #000000; stroke-width: 0.8"/>
      </g>
     </g>
     <g id="text_6">
      <!-- 0.2 -->
      <g transform="translate(29.946875 278.932542) scale(0.1 -0.1)">
       <defs>
        <path id="DejaVuSans-30" d="M 2034 4250 
Q 1547 4250 1301 3770 
Q 1056 3291 1056 2328 
Q 1056 1369 1301 889 
Q 1547 409 2034 409 
Q 2525 409 2770 889 
Q 3016 1369 3016 2328 
Q 3016 3291 2770 3770 
Q 2525 4250 2034 4250 
z
M 2034 4750 
Q 2819 4750 3233 4129 
Q 3647 3509 3647 2328 
Q 3647 1150 3233 529 
Q 2819 -91 2034 -91 
Q 1250 -91 836 529 
Q 422 1150 422 2328 
Q 422 3509 836 4129 
Q 1250 4750 2034 4750 
z
" transform="scale(0.015625)"/>
        <path id="DejaVuSans-2e" d="M 684 794 
L 1344 794 
L 1344 0 
L 684 0 
L 684 794 
z
" transform="scale(0.015625)"/>
        <path id="DejaVuSans-32" d="M 1228 531 
L 3431 531 
L 3431 0 
L 469 0 
L 469 531 
Q 828 903 1448 1529 
Q 2069 2156 2228 2338 
Q 2531 2678 2651 2914 
Q 2772 3150 2772 3378 
Q 2772 3750 2511 3984 
Q 2250 4219 1831 4219 
Q 1534 4219 1204 4116 
Q 875 4013 500 3803 
L 500 4441 
Q 881 4594 1212 4672 
Q 1544 4750 1819 4750 
Q 2544 4750 2975 4387 
Q 3406 4025 3406 3419 
Q 3406 3131 3298 2873 
Q 3191 2616 2906 2266 
Q 2828 2175 2409 1742 
Q 1991 1309 1228 531 
z
" transform="scale(0.015625)"/>
       </defs>
       <use xlink:href="#DejaVuSans-30"/>
       <use xlink:href="#DejaVuSans-2e" x="63.623047"/>
       <use xlink:href="#DejaVuSans-32" x="95.410156"/>
      </g>
     </g>
    </g>
    <g id="ytick_2">
     <g id="line2d_7">
      <g>
       <use xlink:href="#m9bc2234e61" x="52.85" y="241.037177" style="stroke: #000000; stroke-width: 0.8"/>
      </g>
     </g>
     <g id="text_7">
      <!-- 0.4 -->
      <g transform="translate(29.946875 244.836395) scale(0.1 -0.1)">
       <defs>
        <path id="DejaVuSans-34" d="M 2419 4116 
L 825 1625 
L 2419 1625 
L 2419 4116 
z
M 2253 4666 
L 3047 4666 
L 3047 1625 
L 3713 1625 
L 3713 1100 
L 3047 1100 
L 3047 0 
L 2419 0 
L 2419 1100 
L 313 1100 
L 313 1709 
L 2253 4666 
z
" transform="scale(0.015625)"/>
       </defs>
       <use xlink:href="#DejaVuSans-30"/>
       <use xlink:href="#DejaVuSans-2e" x="63.623047"/>
       <use xlink:href="#DejaVuSans-34" x="95.410156"/>
      </g>
     </g>
    </g>
    <g id="ytick_3">
     <g id="line2d_8">
      <g>
       <use xlink:href="#m9bc2234e61" x="52.85" y="206.94103" style="stroke: #000000; stroke-width: 0.8"/>
      </g>
     </g>
     <g id="text_8">
      <!-- 0.6 -->
      <g transform="translate(29.946875 210.740248) scale(0.1 -0.1)">
       <defs>
        <path id="DejaVuSans-36" d="M 2113 2584 
Q 1688 2584 1439 2293 
Q 1191 2003 1191 1497 
Q 1191 994 1439 701 
Q 1688 409 2113 409 
Q 2538 409 2786 701 
Q 3034 994 3034 1497 
Q 3034 2003 2786 2293 
Q 2538 2584 2113 2584 
z
M 3366 4563 
L 3366 3988 
Q 3128 4100 2886 4159 
Q 2644 4219 2406 4219 
Q 1781 4219 1451 3797 
Q 1122 3375 1075 2522 
Q 1259 2794 1537 2939 
Q 1816 3084 2150 3084 
Q 2853 3084 3261 2657 
Q 3669 2231 3669 1497 
Q 3669 778 3244 343 
Q 2819 -91 2113 -91 
Q 1303 -91 875 529 
Q 447 1150 447 2328 
Q 447 3434 972 4092 
Q 1497 4750 2381 4750 
Q 2619 4750 2861 4703 
Q 3103 4656 3366 4563 
z
" transform="scale(0.015625)"/>
       </defs>
       <use xlink:href="#DejaVuSans-30"/>
       <use xlink:href="#DejaVuSans-2e" x="63.623047"/>
       <use xlink:href="#DejaVuSans-36" x="95.410156"/>
      </g>
     </g>
    </g>
    <g id="ytick_4">
     <g id="line2d_9">
      <g>
       <use xlink:href="#m9bc2234e61" x="52.85" y="172.844883" style="stroke: #000000; stroke-width: 0.8"/>
      </g>
     </g>
     <g id="text_9">
      <!-- 0.8 -->
      <g transform="translate(29.946875 176.644101) scale(0.1 -0.1)">
       <defs>
        <path id="DejaVuSans-38" d="M 2034 2216 
Q 1584 2216 1326 1975 
Q 1069 1734 1069 1313 
Q 1069 891 1326 650 
Q 1584 409 2034 409 
Q 2484 409 2743 651 
Q 3003 894 3003 1313 
Q 3003 1734 2745 1975 
Q 2488 2216 2034 2216 
z
M 1403 2484 
Q 997 2584 770 2862 
Q 544 3141 544 3541 
Q 544 4100 942 4425 
Q 1341 4750 2034 4750 
Q 2731 4750 3128 4425 
Q 3525 4100 3525 3541 
Q 3525 3141 3298 2862 
Q 3072 2584 2669 2484 
Q 3125 2378 3379 2068 
Q 3634 1759 3634 1313 
Q 3634 634 3220 271 
Q 2806 -91 2034 -91 
Q 1263 -91 848 271 
Q 434 634 434 1313 
Q 434 1759 690 2068 
Q 947 2378 1403 2484 
z
M 1172 3481 
Q 1172 3119 1398 2916 
Q 1625 2713 2034 2713 
Q 2441 2713 2670 2916 
Q 2900 3119 2900 3481 
Q 2900 3844 2670 4047 
Q 2441 4250 2034 4250 
Q 1625 4250 1398 4047 
Q 1172 3844 1172 3481 
z
" transform="scale(0.015625)"/>
       </defs>
       <use xlink:href="#DejaVuSans-30"/>
       <use xlink:href="#DejaVuSans-2e" x="63.623047"/>
       <use xlink:href="#DejaVuSans-38" x="95.410156"/>
      </g>
     </g>
    </g>
    <g id="ytick_5">
     <g id="line2d_10">
      <g>
       <use xlink:href="#m9bc2234e61" x="52.85" y="138.748735" style="stroke: #000000; stroke-width: 0.8"/>
      </g>
     </g>
     <g id="text_10">
      <!-- 1.0 -->
      <g transform="translate(29.946875 142.547954) scale(0.1 -0.1)">
       <defs>
        <path id="DejaVuSans-31" d="M 794 531 
L 1825 531 
L 1825 4091 
L 703 3866 
L 703 4441 
L 1819 4666 
L 2450 4666 
L 2450 531 
L 3481 531 
L 3481 0 
L 794 0 
L 794 531 
z
" transform="scale(0.015625)"/>
       </defs>
       <use xlink:href="#DejaVuSans-31"/>
       <use xlink:href="#DejaVuSans-2e" x="63.623047"/>
       <use xlink:href="#DejaVuSans-30" x="95.410156"/>
      </g>
     </g>
    </g>
    <g id="ytick_6">
     <g id="line2d_11">
      <g>
       <use xlink:href="#m9bc2234e61" x="52.85" y="104.652588" style="stroke: #000000; stroke-width: 0.8"/>
      </g>
     </g>
     <g id="text_11">
      <!-- 1.2 -->
      <g transform="translate(29.946875 108.451807) scale(0.1 -0.1)">
       <use xlink:href="#DejaVuSans-31"/>
       <use xlink:href="#DejaVuSans-2e" x="63.623047"/>
       <use xlink:href="#DejaVuSans-32" x="95.410156"/>
      </g>
     </g>
    </g>
    <g id="ytick_7">
     <g id="line2d_12">
      <g>
       <use xlink:href="#m9bc2234e61" x="52.85" y="70.556441" style="stroke: #000000; stroke-width: 0.8"/>
      </g>
     </g>
     <g id="text_12">
      <!-- 1.4 -->
      <g transform="translate(29.946875 74.35566) scale(0.1 -0.1)">
       <use xlink:href="#DejaVuSans-31"/>
       <use xlink:href="#DejaVuSans-2e" x="63.623047"/>
       <use xlink:href="#DejaVuSans-34" x="95.410156"/>
      </g>
     </g>
    </g>
    <g id="ytick_8">
     <g id="line2d_13">
      <g>
       <use xlink:href="#m9bc2234e61" x="52.85" y="36.460294" style="stroke: #000000; stroke-width: 0.8"/>
      </g>
     </g>
     <g id="text_13">
      <!-- 1.6 -->
      <g transform="translate(29.946875 40.259513) scale(0.1 -0.1)">
       <use xlink:href="#DejaVuSans-31"/>
       <use xlink:href="#DejaVuSans-2e" x="63.623047"/>
       <use xlink:href="#DejaVuSans-36" x="95.410156"/>
      </g>
     </g>
    </g>
    <g id="text_14">
     <!-- NORM EXPECTED COST -->
     <g transform="translate(23.45125 228.762062) rotate(-90) scale(0.12 -0.12)">
      <defs>
       <path id="DejaVuSans-4e" d="M 628 4666 
L 1478 4666 
L 3547 763 
L 3547 4666 
L 4159 4666 
L 4159 0 
L 3309 0 
L 1241 3903 
L 1241 0 
L 628 0 
L 628 4666 
z
" transform="scale(0.015625)"/>
       <path id="DejaVuSans-4f" d="M 2522 4238 
Q 1834 4238 1429 3725 
Q 1025 3213 1025 2328 
Q 1025 1447 1429 934 
Q 1834 422 2522 422 
Q 3209 422 3611 934 
Q 4013 1447 4013 2328 
Q 4013 3213 3611 3725 
Q 3209 4238 2522 4238 
z
M 2522 4750 
Q 3503 4750 4090 4092 
Q 4678 3434 4678 2328 
Q 4678 1225 4090 567 
Q 3503 -91 2522 -91 
Q 1538 -91 948 565 
Q 359 1222 359 2328 
Q 359 3434 948 4092 
Q 1538 4750 2522 4750 
z
" transform="scale(0.015625)"/>
       <path id="DejaVuSans-52" d="M 2841 2188 
Q 3044 2119 3236 1894 
Q 3428 1669 3622 1275 
L 4263 0 
L 3584 0 
L 2988 1197 
Q 2756 1666 2539 1819 
Q 2322 1972 1947 1972 
L 1259 1972 
L 1259 0 
L 628 0 
L 628 4666 
L 2053 4666 
Q 2853 4666 3247 4331 
Q 3641 3997 3641 3322 
Q 3641 2881 3436 2590 
Q 3231 2300 2841 2188 
z
M 1259 4147 
L 1259 2491 
L 2053 2491 
Q 2509 2491 2742 2702 
Q 2975 2913 2975 3322 
Q 2975 3731 2742 3939 
Q 2509 4147 2053 4147 
L 1259 4147 
z
" transform="scale(0.015625)"/>
       <path id="DejaVuSans-4d" d="M 628 4666 
L 1569 4666 
L 2759 1491 
L 3956 4666 
L 4897 4666 
L 4897 0 
L 4281 0 
L 4281 4097 
L 3078 897 
L 2444 897 
L 1241 4097 
L 1241 0 
L 628 0 
L 628 4666 
z
" transform="scale(0.015625)"/>
       <path id="DejaVuSans-58" d="M 403 4666 
L 1081 4666 
L 2241 2931 
L 3406 4666 
L 4084 4666 
L 2584 2425 
L 4184 0 
L 3506 0 
L 2194 1984 
L 872 0 
L 191 0 
L 1856 2491 
L 403 4666 
z
" transform="scale(0.015625)"/>
       <path id="DejaVuSans-50" d="M 1259 4147 
L 1259 2394 
L 2053 2394 
Q 2494 2394 2734 2622 
Q 2975 2850 2975 3272 
Q 2975 3691 2734 3919 
Q 2494 4147 2053 4147 
L 1259 4147 
z
M 628 4666 
L 2053 4666 
Q 2838 4666 3239 4311 
Q 3641 3956 3641 3272 
Q 3641 2581 3239 2228 
Q 2838 1875 2053 1875 
L 1259 1875 
L 1259 0 
L 628 0 
L 628 4666 
z
" transform="scale(0.015625)"/>
       <path id="DejaVuSans-43" d="M 4122 4306 
L 4122 3641 
Q 3803 3938 3442 4084 
Q 3081 4231 2675 4231 
Q 1875 4231 1450 3742 
Q 1025 3253 1025 2328 
Q 1025 1406 1450 917 
Q 1875 428 2675 428 
Q 3081 428 3442 575 
Q 3803 722 4122 1019 
L 4122 359 
Q 3791 134 3420 21 
Q 3050 -91 2638 -91 
Q 1578 -91 968 557 
Q 359 1206 359 2328 
Q 359 3453 968 4101 
Q 1578 4750 2638 4750 
Q 3056 4750 3426 4639 
Q 3797 4528 4122 4306 
z
" transform="scale(0.015625)"/>
       <path id="DejaVuSans-54" d="M -19 4666 
L 3928 4666 
L 3928 4134 
L 2272 4134 
L 2272 0 
L 1638 0 
L 1638 4134 
L -19 4134 
L -19 4666 
z
" transform="scale(0.015625)"/>
       <path id="DejaVuSans-44" d="M 1259 4147 
L 1259 519 
L 2022 519 
Q 2988 519 3436 956 
Q 3884 1394 3884 2338 
Q 3884 3275 3436 3711 
Q 2988 4147 2022 4147 
L 1259 4147 
z
M 628 4666 
L 1925 4666 
Q 3281 4666 3915 4102 
Q 4550 3538 4550 2338 
Q 4550 1131 3912 565 
Q 3275 0 1925 0 
L 628 0 
L 628 4666 
z
" transform="scale(0.015625)"/>
      </defs>
      <use xlink:href="#DejaVuSans-4e"/>
      <use xlink:href="#DejaVuSans-4f" x="74.804688"/>
      <use xlink:href="#DejaVuSans-52" x="153.515625"/>
      <use xlink:href="#DejaVuSans-4d" x="222.998047"/>
      <use xlink:href="#DejaVuSans-20" x="309.277344"/>
      <use xlink:href="#DejaVuSans-45" x="341.064453"/>
      <use xlink:href="#DejaVuSans-58" x="404.248047"/>
      <use xlink:href="#DejaVuSans-50" x="472.753906"/>
      <use xlink:href="#DejaVuSans-45" x="533.056641"/>
      <use xlink:href="#DejaVuSans-43" x="596.240234"/>
      <use xlink:href="#DejaVuSans-54" x="666.064453"/>
      <use xlink:href="#DejaVuSans-45" x="727.148438"/>
      <use xlink:href="#DejaVuSans-44" x="790.332031"/>
      <use xlink:href="#DejaVuSans-20" x="867.333984"/>
      <use xlink:href="#DejaVuSans-43" x="899.121094"/>
      <use xlink:href="#DejaVuSans-4f" x="968.945312"/>
      <use xlink:href="#DejaVuSans-53" x="1047.65625"/>
      <use xlink:href="#DejaVuSans-54" x="1111.132812"/>
     </g>
    </g>
   </g>
   <g id="LineCollection_1">
    <path d="M 98.101969 250.853457 
L 98.101969 198.416993 
" clip-path="url(#p598795feef)" style="fill: none; stroke: #000000; stroke-width: 1.5"/>
    <path d="M 175.412548 263.816812 
L 175.412548 208.835071 
" clip-path="url(#p598795feef)" style="fill: none; stroke: #000000; stroke-width: 1.5"/>
    <path d="M 252.723127 262.880873 
L 252.723127 196.207562 
" clip-path="url(#p598795feef)" style="fill: none; stroke: #000000; stroke-width: 1.5"/>
    <path d="M 330.033705 277.407537 
L 330.033705 225.201221 
" clip-path="url(#p598795feef)" style="fill: none; stroke: #000000; stroke-width: 1.5"/>
    <path d="M 407.344284 204.72137 
L 407.344284 146.705071 
" clip-path="url(#p598795feef)" style="fill: none; stroke: #000000; stroke-width: 1.5"/>
   </g>
   <g id="line2d_14">
    <defs>
     <path id="md8c0b67db2" d="M 5 0 
L -5 -0 
" style="stroke: #000000"/>
    </defs>
    <g clip-path="url(#p598795feef)">
     <use xlink:href="#md8c0b67db2" x="98.101969" y="250.853457" style="stroke: #000000"/>
     <use xlink:href="#md8c0b67db2" x="175.412548" y="263.816812" style="stroke: #000000"/>
     <use xlink:href="#md8c0b67db2" x="252.723127" y="262.880873" style="stroke: #000000"/>
     <use xlink:href="#md8c0b67db2" x="330.033705" y="277.407537" style="stroke: #000000"/>
     <use xlink:href="#md8c0b67db2" x="407.344284" y="204.72137" style="stroke: #000000"/>
    </g>
   </g>
   <g id="line2d_15">
    <g clip-path="url(#p598795feef)">
     <use xlink:href="#md8c0b67db2" x="98.101969" y="198.416993" style="stroke: #000000"/>
     <use xlink:href="#md8c0b67db2" x="175.412548" y="208.835071" style="stroke: #000000"/>
     <use xlink:href="#md8c0b67db2" x="252.723127" y="196.207562" style="stroke: #000000"/>
     <use xlink:href="#md8c0b67db2" x="330.033705" y="225.201221" style="stroke: #000000"/>
     <use xlink:href="#md8c0b67db2" x="407.344284" y="146.705071" style="stroke: #000000"/>
    </g>
   </g>
   <g id="line2d_16">
    <defs>
     <path id="m8e74d41729" d="M 0 5.656854 
L 5.656854 0 
L 0 -5.656854 
L -5.656854 0 
z
" style="stroke: #000000; stroke-linejoin: miter"/>
    </defs>
    <g clip-path="url(#p598795feef)">
     <use xlink:href="#m8e74d41729" x="98.101969" y="224.50566" style="stroke: #000000; stroke-linejoin: miter"/>
     <use xlink:href="#m8e74d41729" x="175.412548" y="235.87161" style="stroke: #000000; stroke-linejoin: miter"/>
     <use xlink:href="#m8e74d41729" x="252.723127" y="227.088443" style="stroke: #000000; stroke-linejoin: miter"/>
     <use xlink:href="#m8e74d41729" x="330.033705" y="250.853457" style="stroke: #000000; stroke-linejoin: miter"/>
     <use xlink:href="#m8e74d41729" x="407.344284" y="170.778656" style="stroke: #000000; stroke-linejoin: miter"/>
    </g>
   </g>
   <g id="patch_3">
    <path d="M 52.85 303.896 
L 52.85 12.96 
" style="fill: none; stroke: #000000; stroke-width: 0.8; stroke-linejoin: miter; stroke-linecap: square"/>
   </g>
   <g id="patch_4">
    <path d="M 447.84 303.896 
L 447.84 12.96 
" style="fill: none; stroke: #000000; stroke-width: 0.8; stroke-linejoin: miter; stroke-linecap: square"/>
   </g>
   <g id="patch_5">
    <path d="M 52.85 303.896 
L 447.84 303.896 
" style="fill: none; stroke: #000000; stroke-width: 0.8; stroke-linejoin: miter; stroke-linecap: square"/>
   </g>
   <g id="patch_6">
    <path d="M 52.85 12.96 
L 447.84 12.96 
" style="fill: none; stroke: #000000; stroke-width: 0.8; stroke-linejoin: miter; stroke-linecap: square"/>
   </g>
  </g>
 </g>
 <defs>
  <clipPath id="p598795feef">
   <rect x="52.85" y="12.96" width="394.99" height="290.936"/>
  </clipPath>
 </defs>
</svg>
