<?xml version="1.0" encoding="utf-8" standalone="no"?>
<!DOCTYPE svg PUBLIC "-//W3C//DTD SVG 1.1//EN"
  "http://www.w3.org/Graphics/SVG/1.1/DTD/svg11.dtd">
<svg xmlns:xlink="http://www.w3.org/1999/xlink" width="460.8pt" height="345.6pt" viewBox="0 0 460.8 345.6" xmlns="http://www.w3.org/2000/svg" version="1.1">
 <metadata>
  <rdf:RDF xmlns:dc="http://purl.org/dc/elements/1.1/" xmlns:cc="http://creativecommons.org/ns#" xmlns:rdf="http://www.w3.org/1999/02/22-rdf-syntax-ns#">
   <cc:Work>
    <dc:type rdf:resource="http://purl.org/dc/dcmitype/StillImage"/>
    <dc:date>2025-09-22T13:48:45.662875</dc:date>
    <dc:format>image/svg+xml</dc:format>
    <dc:creator>
     <cc:Agent>
      <dc:title>Matplotlib v3.9.4, https://matplotlib.org/</dc:title>
     </cc:Agent>
    </dc:creator>
   </cc:Work>
  </rdf:RDF>
 </metadata>
 <defs>
  <style type="text/css">*{stroke-linejoin: round; stroke-linecap: butt}</style>
 </defs>
 <g id="figure_1">
  <g id="patch_1">
   <path d="M 0 345.6 
L 460.8 345.6 
L 460.8 0 
L 0 0 
z
" style="fill: #ffffff"/>
  </g>
  <g id="axes_1">
   <g id="patch_2">
    <path d="M 52.76 303.896 
L 447.397861 303.896 
L 447.397861 12.96 
L 52.76 12.96 
z
" style="fill: #ffffff"/>
   </g>
   <g id="PolyCollection_1">
    <defs>
     <path id="mfea05675af" d="M 84.64675 -158.88117 
L 84.629948 -158.88117 
L 84.623842 -160.247925 
L 84.614973 -161.614681 
L 84.603115 -162.981436 
L 84.588517 -164.348191 
L 84.571941 -165.714947 
L 84.5545 -167.081702 
L 84.5373 -168.448458 
L 84.521011 -169.815213 
L 84.505532 -171.181968 
L 84.489862 -172.548724 
L 84.472225 -173.915479 
L 84.450306 -175.282235 
L 84.421469 -176.64899 
L 84.382831 -178.015745 
L 84.331247 -179.382501 
L 84.263357 -180.749256 
L 84.175905 -182.116012 
L 84.066446 -183.482767 
L 83.934396 -184.849522 
L 83.78218 -186.216278 
L 83.615981 -187.583033 
L 83.445484 -188.949788 
L 83.282112 -190.316544 
L 83.135852 -191.683299 
L 83.011654 -193.050055 
L 82.907021 -194.41681 
L 82.812255 -195.783565 
L 82.713645 -197.150321 
L 82.598246 -198.517076 
L 82.457898 -199.883832 
L 82.290495 -201.250587 
L 82.098039 -202.617342 
L 81.882796 -203.984098 
L 81.643726 -205.350853 
L 81.374948 -206.717609 
L 81.066733 -208.084364 
L 80.708304 -209.451119 
L 80.291196 -210.817875 
L 79.812079 -212.18463 
L 79.274506 -213.551386 
L 78.689452 -214.918141 
L 78.074711 -216.284896 
L 77.453121 -217.651652 
L 76.849551 -219.018407 
L 76.286808 -220.385162 
L 75.781171 -221.751918 
L 75.338828 -223.118673 
L 74.954623 -224.485429 
L 74.613802 -225.852184 
L 74.296232 -227.218939 
L 73.981472 -228.585695 
L 73.652959 -229.95245 
L 73.300451 -231.319206 
L 72.921035 -232.685961 
L 72.519542 -234.052716 
L 72.108735 -235.419472 
L 71.708759 -236.786227 
L 71.344964 -238.152983 
L 71.043848 -239.519738 
L 70.827972 -240.886493 
L 70.711524 -242.253249 
L 70.698085 -243.620004 
L 70.781309 -244.98676 
L 70.948179 -246.353515 
L 71.183737 -247.72027 
L 71.475708 -249.087026 
L 71.817346 -250.453781 
L 72.207288 -251.820536 
L 72.646435 -253.187292 
L 73.133514 -254.554047 
L 73.661971 -255.920803 
L 74.220257 -257.287558 
L 74.795536 -258.654313 
L 75.37859 -260.021069 
L 75.966823 -261.387824 
L 76.563527 -262.75458 
L 77.173897 -264.121335 
L 77.800264 -265.48809 
L 78.439234 -266.854846 
L 79.082019 -268.221601 
L 79.717187 -269.588357 
L 80.33383 -270.955112 
L 80.923306 -272.321867 
L 81.479002 -273.688623 
L 81.995023 -275.055378 
L 82.465266 -276.422134 
L 82.883825 -277.788889 
L 83.246519 -279.155644 
L 83.552454 -280.5224 
L 83.804567 -281.889155 
L 84.008771 -283.255911 
L 84.172242 -284.622666 
L 84.301779 -285.989421 
L 84.402934 -287.356177 
L 84.480032 -288.722932 
L 84.536709 -290.089687 
L 84.576441 -291.456443 
L 84.602755 -292.823198 
L 84.619109 -294.189954 
L 84.657589 -294.189954 
L 84.657589 -294.189954 
L 84.673943 -292.823198 
L 84.700258 -291.456443 
L 84.739989 -290.089687 
L 84.796666 -288.722932 
L 84.873765 -287.356177 
L 84.974919 -285.989421 
L 85.104456 -284.622666 
L 85.267927 -283.255911 
L 85.472131 -281.889155 
L 85.724244 -280.5224 
L 86.03018 -279.155644 
L 86.392873 -277.788889 
L 86.811432 -276.422134 
L 87.281675 -275.055378 
L 87.797696 -273.688623 
L 88.353393 -272.321867 
L 88.942868 -270.955112 
L 89.559511 -269.588357 
L 90.194679 -268.221601 
L 90.837464 -266.854846 
L 91.476435 -265.48809 
L 92.102801 -264.121335 
L 92.713171 -262.75458 
L 93.309875 -261.387824 
L 93.898108 -260.021069 
L 94.481162 -258.654313 
L 95.056442 -257.287558 
L 95.614727 -255.920803 
L 96.143184 -254.554047 
L 96.630263 -253.187292 
L 97.06941 -251.820536 
L 97.459352 -250.453781 
L 97.800991 -249.087026 
L 98.092961 -247.72027 
L 98.328519 -246.353515 
L 98.495389 -244.98676 
L 98.578614 -243.620004 
L 98.565174 -242.253249 
L 98.448726 -240.886493 
L 98.23285 -239.519738 
L 97.931734 -238.152983 
L 97.567939 -236.786227 
L 97.167963 -235.419472 
L 96.757156 -234.052716 
L 96.355663 -232.685961 
L 95.976247 -231.319206 
L 95.623739 -229.95245 
L 95.295226 -228.585695 
L 94.980466 -227.218939 
L 94.662896 -225.852184 
L 94.322075 -224.485429 
L 93.93787 -223.118673 
L 93.495527 -221.751918 
L 92.98989 -220.385162 
L 92.427147 -219.018407 
L 91.823577 -217.651652 
L 91.201987 -216.284896 
L 90.587246 -214.918141 
L 90.002192 -213.551386 
L 89.464619 -212.18463 
L 88.985502 -210.817875 
L 88.568394 -209.451119 
L 88.209965 -208.084364 
L 87.90175 -206.717609 
L 87.632972 -205.350853 
L 87.393902 -203.984098 
L 87.178659 -202.617342 
L 86.986203 -201.250587 
L 86.8188 -199.883832 
L 86.678452 -198.517076 
L 86.563053 -197.150321 
L 86.464443 -195.783565 
L 86.369677 -194.41681 
L 86.265044 -193.050055 
L 86.140846 -191.683299 
L 85.994586 -190.316544 
L 85.831214 -188.949788 
L 85.660717 -187.583033 
L 85.494519 -186.216278 
L 85.342302 -184.849522 
L 85.210252 -183.482767 
L 85.100793 -182.116012 
L 85.013341 -180.749256 
L 84.945451 -179.382501 
L 84.893867 -178.015745 
L 84.855229 -176.64899 
L 84.826392 -175.282235 
L 84.804473 -173.915479 
L 84.786836 -172.548724 
L 84.771167 -171.181968 
L 84.755687 -169.815213 
L 84.739398 -168.448458 
L 84.722198 -167.081702 
L 84.704757 -165.714947 
L 84.688181 -164.348191 
L 84.673584 -162.981436 
L 84.661725 -161.614681 
L 84.652856 -160.247925 
L 84.64675 -158.88117 
z
" style="stroke: #3f3f3f; stroke-width: 1.25"/>
    </defs>
    <g clip-path="url(#p28aeff3faa)">
     <use xlink:href="#mfea05675af" x="0" y="345.6" style="fill: #3274a1; stroke: #3f3f3f; stroke-width: 1.25"/>
    </g>
   </g>
   <g id="PolyCollection_2">
    <defs>
     <path id="m1f6dbc3d92" d="M 168.360377 -257.893216 
L 168.318292 -257.893216 
L 168.301337 -258.514655 
L 168.275099 -259.136094 
L 168.237291 -259.757532 
L 168.186404 -260.378971 
L 168.122298 -261.000409 
L 168.046708 -261.621848 
L 167.96358 -262.243286 
L 167.879046 -262.864725 
L 167.800748 -263.486164 
L 167.736263 -264.107602 
L 167.690782 -264.729041 
L 167.664833 -265.350479 
L 167.653224 -265.971918 
L 167.646157 -266.593357 
L 167.632451 -267.214795 
L 167.603651 -267.836234 
L 167.557148 -268.457672 
L 167.496848 -269.079111 
L 167.431161 -269.700549 
L 167.369409 -270.321988 
L 167.31842 -270.943427 
L 167.280647 -271.564865 
L 167.254142 -272.186304 
L 167.233704 -272.807742 
L 167.212252 -273.429181 
L 167.181753 -274.05062 
L 167.13356 -274.672058 
L 167.058139 -275.293497 
L 166.944178 -275.914935 
L 166.777239 -276.536374 
L 166.53877 -277.157813 
L 166.207006 -277.779251 
L 165.761201 -278.40069 
L 165.189251 -279.022128 
L 164.496417 -279.643567 
L 163.710953 -280.265005 
L 162.88238 -280.886444 
L 162.070718 -281.507883 
L 161.329257 -282.129321 
L 160.68746 -282.75076 
L 160.141796 -283.372198 
L 159.659353 -283.993637 
L 159.192741 -284.615076 
L 158.698463 -285.236514 
L 158.148844 -285.857953 
L 157.532044 -286.479391 
L 156.843126 -287.10083 
L 156.075606 -287.722268 
L 155.221816 -288.343707 
L 154.282215 -288.965146 
L 153.274669 -289.586584 
L 152.232866 -290.208023 
L 151.1905 -290.829461 
L 150.159485 -291.4509 
L 149.116899 -292.072339 
L 148.011392 -292.693777 
L 146.787942 -293.315216 
L 145.418258 -293.936654 
L 143.920371 -294.558093 
L 142.357157 -295.179532 
L 140.815473 -295.80097 
L 139.378104 -296.422409 
L 138.103497 -297.043847 
L 137.022049 -297.665286 
L 136.146635 -298.286724 
L 135.48659 -298.908163 
L 135.054063 -299.529602 
L 134.85894 -300.15104 
L 134.89764 -300.772479 
L 135.145321 -301.393917 
L 135.558235 -302.015356 
L 136.086121 -302.636795 
L 136.688891 -303.258233 
L 137.350384 -303.879672 
L 138.084274 -304.50111 
L 138.930834 -305.122549 
L 139.946164 -305.743987 
L 141.187175 -306.365426 
L 142.696237 -306.986865 
L 144.48895 -307.608303 
L 146.547256 -308.229742 
L 148.818558 -308.85118 
L 151.220581 -309.472619 
L 153.651535 -310.094058 
L 156.00479 -310.715496 
L 158.185824 -311.336935 
L 160.127297 -311.958373 
L 161.797373 -312.579812 
L 163.198348 -313.201251 
L 164.356545 -313.822689 
L 165.308145 -314.444128 
L 166.08692 -315.065566 
L 166.717986 -315.687005 
L 167.218164 -316.308443 
L 167.600348 -316.929882 
L 167.878182 -317.551321 
L 168.068368 -318.172759 
L 168.190059 -318.794198 
L 168.262487 -319.415636 
L 168.416181 -319.415636 
L 168.416181 -319.415636 
L 168.488609 -318.794198 
L 168.610301 -318.172759 
L 168.800486 -317.551321 
L 169.07832 -316.929882 
L 169.460505 -316.308443 
L 169.960682 -315.687005 
L 170.591748 -315.065566 
L 171.370523 -314.444128 
L 172.322124 -313.822689 
L 173.48032 -313.201251 
L 174.881295 -312.579812 
L 176.551371 -311.958373 
L 178.492844 -311.336935 
L 180.673878 -310.715496 
L 183.027133 -310.094058 
L 185.458088 -309.472619 
L 187.86011 -308.85118 
L 190.131413 -308.229742 
L 192.189718 -307.608303 
L 193.982431 -306.986865 
L 195.491493 -306.365426 
L 196.732505 -305.743987 
L 197.747834 -305.122549 
L 198.594394 -304.50111 
L 199.328284 -303.879672 
L 199.989777 -303.258233 
L 200.592547 -302.636795 
L 201.120433 -302.015356 
L 201.533347 -301.393917 
L 201.781028 -300.772479 
L 201.819728 -300.15104 
L 201.624606 -299.529602 
L 201.192079 -298.908163 
L 200.532033 -298.286724 
L 199.656619 -297.665286 
L 198.575172 -297.043847 
L 197.300564 -296.422409 
L 195.863195 -295.80097 
L 194.321511 -295.179532 
L 192.758297 -294.558093 
L 191.26041 -293.936654 
L 189.890726 -293.315216 
L 188.667277 -292.693777 
L 187.56177 -292.072339 
L 186.519184 -291.4509 
L 185.488169 -290.829461 
L 184.445802 -290.208023 
L 183.403999 -289.586584 
L 182.396454 -288.965146 
L 181.456852 -288.343707 
L 180.603062 -287.722268 
L 179.835542 -287.10083 
L 179.146625 -286.479391 
L 178.529824 -285.857953 
L 177.980205 -285.236514 
L 177.485928 -284.615076 
L 177.019316 -283.993637 
L 176.536872 -283.372198 
L 175.991208 -282.75076 
L 175.349412 -282.129321 
L 174.607951 -281.507883 
L 173.796288 -280.886444 
L 172.967716 -280.265005 
L 172.182252 -279.643567 
L 171.489418 -279.022128 
L 170.917467 -278.40069 
L 170.471663 -277.779251 
L 170.139899 -277.157813 
L 169.90143 -276.536374 
L 169.73449 -275.914935 
L 169.620529 -275.293497 
L 169.545108 -274.672058 
L 169.496915 -274.05062 
L 169.466417 -273.429181 
L 169.444964 -272.807742 
L 169.424526 -272.186304 
L 169.398021 -271.564865 
L 169.360248 -270.943427 
L 169.309259 -270.321988 
L 169.247508 -269.700549 
L 169.18182 -269.079111 
L 169.12152 -268.457672 
L 169.075017 -267.836234 
L 169.046217 -267.214795 
L 169.032511 -266.593357 
L 169.025444 -265.971918 
L 169.013836 -265.350479 
L 168.987887 -264.729041 
L 168.942405 -264.107602 
L 168.87792 -263.486164 
L 168.799622 -262.864725 
L 168.715088 -262.243286 
L 168.63196 -261.621848 
L 168.55637 -261.000409 
L 168.492264 -260.378971 
L 168.441377 -259.757532 
L 168.403569 -259.136094 
L 168.377331 -258.514655 
L 168.360377 -257.893216 
z
" style="stroke: #3f3f3f; stroke-width: 1.25"/>
    </defs>
    <g clip-path="url(#p28aeff3faa)">
     <use xlink:href="#m1f6dbc3d92" x="0" y="345.6" style="fill: #3274a1; stroke: #3f3f3f; stroke-width: 1.25"/>
    </g>
   </g>
   <g id="PolyCollection_3">
    <defs>
     <path id="m211393663c" d="M 252.046942 -141.080023 
L 252.033696 -141.080023 
L 252.028514 -142.837383 
L 252.021012 -144.594742 
L 252.011162 -146.352102 
L 251.999226 -148.109461 
L 251.985357 -149.866821 
L 251.968948 -151.62418 
L 251.948066 -153.38154 
L 251.919497 -155.138899 
L 251.879642 -156.896259 
L 251.825998 -158.653618 
L 251.758513 -160.410978 
L 251.680042 -162.168337 
L 251.595623 -163.925697 
L 251.510827 -165.683056 
L 251.429824 -167.440416 
L 251.353846 -169.197775 
L 251.280571 -170.955135 
L 251.204738 -172.712494 
L 251.119925 -174.469854 
L 251.020804 -176.227213 
L 250.904694 -177.984573 
L 250.771311 -179.741932 
L 250.620514 -181.499292 
L 250.44928 -183.256651 
L 250.249984 -185.014011 
L 250.01167 -186.77137 
L 249.724224 -188.52873 
L 249.383239 -190.286089 
L 248.992468 -192.043449 
L 248.561921 -193.800808 
L 248.1024 -195.558168 
L 247.619918 -197.315528 
L 247.113881 -199.072887 
L 246.580632 -200.830247 
L 246.020246 -202.587606 
L 245.442013 -204.344966 
L 244.864729 -206.102325 
L 244.311332 -207.859685 
L 243.801014 -209.617044 
L 243.343292 -211.374404 
L 242.937051 -213.131763 
L 242.57469 -214.889123 
L 242.248869 -216.646482 
L 241.957947 -218.403842 
L 241.706626 -220.161201 
L 241.500941 -221.918561 
L 241.340763 -223.67592 
L 241.215668 -225.43328 
L 241.108599 -227.190639 
L 241.006269 -228.947999 
L 240.90978 -230.705358 
L 240.837918 -232.462718 
L 240.820139 -234.220077 
L 240.882883 -235.977437 
L 241.036912 -237.734796 
L 241.272359 -239.492156 
L 241.563366 -241.249515 
L 241.879028 -243.006875 
L 242.194802 -244.764234 
L 242.499715 -246.521594 
L 242.797872 -248.278953 
L 243.105627 -250.036313 
L 243.446592 -251.793672 
L 243.845812 -253.551032 
L 244.323477 -255.308391 
L 244.888707 -257.065751 
L 245.535053 -258.82311 
L 246.23985 -260.58047 
L 246.968478 -262.337829 
L 247.68222 -264.095189 
L 248.346565 -265.852548 
L 248.936926 -267.609908 
L 249.440682 -269.367268 
L 249.856388 -271.124627 
L 250.191738 -272.881987 
L 250.461151 -274.639346 
L 250.682926 -276.396706 
L 250.875698 -278.154065 
L 251.054544 -279.911425 
L 251.227883 -281.668784 
L 251.396421 -283.426144 
L 251.554687 -285.183503 
L 251.694501 -286.940863 
L 251.808779 -288.698222 
L 251.89411 -290.455582 
L 251.951374 -292.212941 
L 251.98474 -293.970301 
L 252.000027 -295.72766 
L 252.003323 -297.48502 
L 252.000188 -299.242379 
L 251.995271 -300.999739 
L 251.992028 -302.757098 
L 251.992443 -304.514458 
L 251.996902 -306.271817 
L 252.004433 -308.029177 
L 252.013314 -309.786536 
L 252.021826 -311.543896 
L 252.028795 -313.301255 
L 252.033785 -315.058615 
L 252.046853 -315.058615 
L 252.046853 -315.058615 
L 252.051843 -313.301255 
L 252.058812 -311.543896 
L 252.067324 -309.786536 
L 252.076206 -308.029177 
L 252.083736 -306.271817 
L 252.088195 -304.514458 
L 252.08861 -302.757098 
L 252.085367 -300.999739 
L 252.08045 -299.242379 
L 252.077315 -297.48502 
L 252.080612 -295.72766 
L 252.095899 -293.970301 
L 252.129264 -292.212941 
L 252.186528 -290.455582 
L 252.271859 -288.698222 
L 252.386137 -286.940863 
L 252.525951 -285.183503 
L 252.684218 -283.426144 
L 252.852755 -281.668784 
L 253.026095 -279.911425 
L 253.204941 -278.154065 
L 253.397712 -276.396706 
L 253.619487 -274.639346 
L 253.888901 -272.881987 
L 254.224251 -271.124627 
L 254.639956 -269.367268 
L 255.143712 -267.609908 
L 255.734074 -265.852548 
L 256.398418 -264.095189 
L 257.112161 -262.337829 
L 257.840789 -260.58047 
L 258.545585 -258.82311 
L 259.191932 -257.065751 
L 259.757162 -255.308391 
L 260.234826 -253.551032 
L 260.634046 -251.793672 
L 260.975011 -250.036313 
L 261.282766 -248.278953 
L 261.580923 -246.521594 
L 261.885836 -244.764234 
L 262.20161 -243.006875 
L 262.517272 -241.249515 
L 262.80828 -239.492156 
L 263.043726 -237.734796 
L 263.197755 -235.977437 
L 263.260499 -234.220077 
L 263.24272 -232.462718 
L 263.170858 -230.705358 
L 263.074369 -228.947999 
L 262.97204 -227.190639 
L 262.864971 -225.43328 
L 262.739876 -223.67592 
L 262.579697 -221.918561 
L 262.374013 -220.161201 
L 262.122692 -218.403842 
L 261.83177 -216.646482 
L 261.505948 -214.889123 
L 261.143587 -213.131763 
L 260.737346 -211.374404 
L 260.279624 -209.617044 
L 259.769306 -207.859685 
L 259.215909 -206.102325 
L 258.638626 -204.344966 
L 258.060393 -202.587606 
L 257.500006 -200.830247 
L 256.966757 -199.072887 
L 256.460721 -197.315528 
L 255.978239 -195.558168 
L 255.518717 -193.800808 
L 255.08817 -192.043449 
L 254.6974 -190.286089 
L 254.356414 -188.52873 
L 254.068968 -186.77137 
L 253.830654 -185.014011 
L 253.631358 -183.256651 
L 253.460124 -181.499292 
L 253.309327 -179.741932 
L 253.175944 -177.984573 
L 253.059835 -176.227213 
L 252.960713 -174.469854 
L 252.875901 -172.712494 
L 252.800068 -170.955135 
L 252.726793 -169.197775 
L 252.650815 -167.440416 
L 252.569812 -165.683056 
L 252.485015 -163.925697 
L 252.400596 -162.168337 
L 252.322126 -160.410978 
L 252.25464 -158.653618 
L 252.200997 -156.896259 
L 252.161141 -155.138899 
L 252.132572 -153.38154 
L 252.11169 -151.62418 
L 252.095281 -149.866821 
L 252.081413 -148.109461 
L 252.069476 -146.352102 
L 252.059626 -144.594742 
L 252.052125 -142.837383 
L 252.046942 -141.080023 
z
" style="stroke: #3f3f3f; stroke-width: 1.25"/>
    </defs>
    <g clip-path="url(#p28aeff3faa)">
     <use xlink:href="#m211393663c" x="0" y="345.6" style="fill: #3274a1; stroke: #3f3f3f; stroke-width: 1.25"/>
    </g>
   </g>
   <g id="PolyCollection_4">
    <defs>
     <path id="m0c325a60f5" d="M 335.75033 -180.534595 
L 335.732278 -180.534595 
L 335.724888 -181.882147 
L 335.714438 -183.2297 
L 335.70172 -184.577253 
L 335.688742 -185.924805 
L 335.678249 -187.272358 
L 335.672582 -188.619911 
L 335.672429 -189.967463 
L 335.67625 -191.315016 
L 335.680898 -192.662569 
L 335.683206 -194.010121 
L 335.68167 -195.357674 
L 335.677256 -196.705227 
L 335.67284 -198.05278 
L 335.671577 -199.400332 
L 335.675108 -200.747885 
L 335.682522 -202.095438 
L 335.690531 -203.44299 
L 335.69457 -204.790543 
L 335.69023 -206.138096 
L 335.6745 -207.485648 
L 335.646621 -208.833201 
L 335.608422 -210.180754 
L 335.563939 -211.528306 
L 335.518107 -212.875859 
L 335.474704 -214.223412 
L 335.434306 -215.570965 
L 335.39323 -216.918517 
L 335.344131 -218.26607 
L 335.278147 -219.613623 
L 335.187736 -220.961175 
L 335.068916 -222.308728 
L 334.92183 -223.656281 
L 334.749445 -225.003833 
L 334.555493 -226.351386 
L 334.343328 -227.698939 
L 334.116426 -229.046491 
L 333.879303 -230.394044 
L 333.636608 -231.741597 
L 333.38964 -233.08915 
L 333.132467 -234.436702 
L 332.851457 -235.784255 
L 332.530304 -237.131808 
L 332.158571 -238.47936 
L 331.73842 -239.826913 
L 331.284285 -241.174466 
L 330.814106 -242.522018 
L 330.336239 -243.869571 
L 329.840004 -245.217124 
L 329.297043 -246.564676 
L 328.674893 -247.912229 
L 327.956385 -249.259782 
L 327.153816 -250.607335 
L 326.30892 -251.954887 
L 325.478021 -253.30244 
L 324.710791 -254.649993 
L 324.034264 -255.997545 
L 323.448997 -257.345098 
L 322.936043 -258.692651 
L 322.468374 -260.040203 
L 322.021251 -261.387756 
L 321.579505 -262.735309 
L 321.141473 -264.082861 
L 320.718807 -265.430414 
L 320.331334 -266.777967 
L 319.998574 -268.12552 
L 319.732835 -269.473072 
L 319.53907 -270.820625 
L 319.422094 -272.168178 
L 319.395246 -273.51573 
L 319.482138 -274.863283 
L 319.708115 -276.210836 
L 320.086814 -277.558388 
L 320.611754 -278.905941 
L 321.258751 -280.253494 
L 321.996182 -281.601046 
L 322.795152 -282.948599 
L 323.634441 -284.296152 
L 324.50111 -285.643705 
L 325.389965 -286.991257 
L 326.302327 -288.33881 
L 327.241998 -289.686363 
L 328.208208 -291.033915 
L 329.189421 -292.381468 
L 330.162638 -293.729021 
L 331.098594 -295.076573 
L 331.968739 -296.424126 
L 332.749866 -297.771679 
L 333.425906 -299.119231 
L 333.988917 -300.466784 
L 334.440257 -301.814337 
L 334.790594 -303.16189 
L 335.057117 -304.509442 
L 335.258582 -305.856995 
L 335.410748 -307.204548 
L 335.524538 -308.5521 
L 335.607038 -309.899653 
L 335.663678 -311.247206 
L 335.699799 -312.594758 
L 335.720919 -313.942311 
L 335.76169 -313.942311 
L 335.76169 -313.942311 
L 335.782809 -312.594758 
L 335.81893 -311.247206 
L 335.87557 -309.899653 
L 335.95807 -308.5521 
L 336.071861 -307.204548 
L 336.224027 -305.856995 
L 336.425491 -304.509442 
L 336.692015 -303.16189 
L 337.042351 -301.814337 
L 337.493692 -300.466784 
L 338.056702 -299.119231 
L 338.732743 -297.771679 
L 339.51387 -296.424126 
L 340.384014 -295.076573 
L 341.319971 -293.729021 
L 342.293188 -292.381468 
L 343.2744 -291.033915 
L 344.24061 -289.686363 
L 345.180282 -288.33881 
L 346.092643 -286.991257 
L 346.981498 -285.643705 
L 347.848168 -284.296152 
L 348.687456 -282.948599 
L 349.486427 -281.601046 
L 350.223858 -280.253494 
L 350.870855 -278.905941 
L 351.395794 -277.558388 
L 351.774493 -276.210836 
L 352.000471 -274.863283 
L 352.087362 -273.51573 
L 352.060515 -272.168178 
L 351.943539 -270.820625 
L 351.749773 -269.473072 
L 351.484034 -268.12552 
L 351.151274 -266.777967 
L 350.763801 -265.430414 
L 350.341136 -264.082861 
L 349.903104 -262.735309 
L 349.461358 -261.387756 
L 349.014235 -260.040203 
L 348.546565 -258.692651 
L 348.033611 -257.345098 
L 347.448344 -255.997545 
L 346.771817 -254.649993 
L 346.004588 -253.30244 
L 345.173688 -251.954887 
L 344.328792 -250.607335 
L 343.526223 -249.259782 
L 342.807716 -247.912229 
L 342.185565 -246.564676 
L 341.642605 -245.217124 
L 341.146369 -243.869571 
L 340.668503 -242.522018 
L 340.198324 -241.174466 
L 339.744189 -239.826913 
L 339.324037 -238.47936 
L 338.952305 -237.131808 
L 338.631152 -235.784255 
L 338.350141 -234.436702 
L 338.092968 -233.08915 
L 337.846 -231.741597 
L 337.603306 -230.394044 
L 337.366182 -229.046491 
L 337.139281 -227.698939 
L 336.927115 -226.351386 
L 336.733163 -225.003833 
L 336.560778 -223.656281 
L 336.413692 -222.308728 
L 336.294873 -220.961175 
L 336.204461 -219.613623 
L 336.138477 -218.26607 
L 336.089378 -216.918517 
L 336.048302 -215.570965 
L 336.007904 -214.223412 
L 335.964501 -212.875859 
L 335.918669 -211.528306 
L 335.874187 -210.180754 
L 335.835987 -208.833201 
L 335.808108 -207.485648 
L 335.792378 -206.138096 
L 335.788038 -204.790543 
L 335.792077 -203.44299 
L 335.800086 -202.095438 
L 335.807501 -200.747885 
L 335.811031 -199.400332 
L 335.809768 -198.05278 
L 335.805352 -196.705227 
L 335.800939 -195.357674 
L 335.799403 -194.010121 
L 335.801711 -192.662569 
L 335.806359 -191.315016 
L 335.81018 -189.967463 
L 335.810027 -188.619911 
L 335.80436 -187.272358 
L 335.793866 -185.924805 
L 335.780889 -184.577253 
L 335.768171 -183.2297 
L 335.75772 -181.882147 
L 335.75033 -180.534595 
z
" style="stroke: #3f3f3f; stroke-width: 1.25"/>
    </defs>
    <g clip-path="url(#p28aeff3faa)">
     <use xlink:href="#m0c325a60f5" x="0" y="345.6" style="fill: #3274a1; stroke: #3f3f3f; stroke-width: 1.25"/>
    </g>
   </g>
   <g id="PolyCollection_5">
    <defs>
     <path id="me3a1be6fc8" d="M 419.450501 -54.928364 
L 419.434077 -54.928364 
L 419.427121 -56.819963 
L 419.416272 -58.711563 
L 419.40072 -60.603162 
L 419.380182 -62.494762 
L 419.355111 -64.386361 
L 419.326654 -66.277961 
L 419.29633 -68.16956 
L 419.265527 -70.06116 
L 419.235023 -71.952759 
L 419.204736 -73.844359 
L 419.173804 -75.735959 
L 419.140862 -77.627558 
L 419.104317 -79.519158 
L 419.062379 -81.410757 
L 419.012867 -83.302357 
L 418.953066 -85.193956 
L 418.879993 -87.085556 
L 418.791101 -88.977155 
L 418.684842 -90.868755 
L 418.560237 -92.760354 
L 418.415131 -94.651954 
L 418.244008 -96.543553 
L 418.037284 -98.435153 
L 417.783595 -100.326752 
L 417.47476 -102.218352 
L 417.110801 -104.109952 
L 416.701674 -106.001551 
L 416.264048 -107.893151 
L 415.814743 -109.78475 
L 415.364767 -111.67635 
L 414.917508 -113.567949 
L 414.471697 -115.459549 
L 414.026454 -117.351148 
L 413.584612 -119.242748 
L 413.152118 -121.134347 
L 412.734292 -123.025947 
L 412.331918 -124.917546 
L 411.940218 -126.809146 
L 411.551928 -128.700745 
L 411.163075 -130.592345 
L 410.778221 -132.483945 
L 410.411841 -134.375544 
L 410.084567 -136.267144 
L 409.816012 -138.158743 
L 409.618031 -140.050343 
L 409.491992 -141.941942 
L 409.430982 -143.833542 
L 409.424802 -145.725141 
L 409.464088 -147.616741 
L 409.541098 -149.50834 
L 409.647543 -151.39994 
L 409.772341 -153.291539 
L 409.902468 -155.183139 
L 410.027784 -157.074738 
L 410.147318 -158.966338 
L 410.272583 -160.857938 
L 410.42467 -162.749537 
L 410.625745 -164.641137 
L 410.889425 -166.532736 
L 411.215515 -168.424336 
L 411.591876 -170.315935 
L 412.001596 -172.207535 
L 412.430496 -174.099134 
L 412.87042 -175.990734 
L 413.31725 -177.882333 
L 413.766418 -179.773933 
L 414.210148 -181.665532 
L 414.63877 -183.557132 
L 415.045061 -185.448731 
L 415.428186 -187.340331 
L 415.794187 -189.231931 
L 416.152468 -191.12353 
L 416.51037 -193.01513 
L 416.868899 -194.906729 
L 417.221728 -196.798329 
L 417.557617 -198.689928 
L 417.864785 -200.581528 
L 418.135078 -202.473127 
L 418.366184 -204.364727 
L 418.561184 -206.256326 
L 418.726017 -208.147926 
L 418.866385 -210.039525 
L 418.985722 -211.931125 
L 419.085053 -213.822724 
L 419.164366 -215.714324 
L 419.224339 -217.605924 
L 419.267295 -219.497523 
L 419.29704 -221.389123 
L 419.317941 -223.280722 
L 419.333938 -225.172322 
L 419.347927 -227.063921 
L 419.361593 -228.955521 
L 419.375531 -230.84712 
L 419.389507 -232.73872 
L 419.402793 -234.630319 
L 419.414538 -236.521919 
L 419.424093 -238.413518 
L 419.431209 -240.305118 
L 419.436046 -242.196717 
L 419.448532 -242.196717 
L 419.448532 -242.196717 
L 419.45337 -240.305118 
L 419.460486 -238.413518 
L 419.470041 -236.521919 
L 419.481785 -234.630319 
L 419.495071 -232.73872 
L 419.509047 -230.84712 
L 419.522985 -228.955521 
L 419.536652 -227.063921 
L 419.550641 -225.172322 
L 419.566638 -223.280722 
L 419.587538 -221.389123 
L 419.617283 -219.497523 
L 419.66024 -217.605924 
L 419.720212 -215.714324 
L 419.799526 -213.822724 
L 419.898857 -211.931125 
L 420.018194 -210.039525 
L 420.158562 -208.147926 
L 420.323395 -206.256326 
L 420.518395 -204.364727 
L 420.749501 -202.473127 
L 421.019793 -200.581528 
L 421.326961 -198.689928 
L 421.66285 -196.798329 
L 422.015679 -194.906729 
L 422.374209 -193.01513 
L 422.732111 -191.12353 
L 423.090392 -189.231931 
L 423.456392 -187.340331 
L 423.839517 -185.448731 
L 424.245809 -183.557132 
L 424.674431 -181.665532 
L 425.118161 -179.773933 
L 425.567329 -177.882333 
L 426.014158 -175.990734 
L 426.454083 -174.099134 
L 426.882982 -172.207535 
L 427.292702 -170.315935 
L 427.669064 -168.424336 
L 427.995154 -166.532736 
L 428.258833 -164.641137 
L 428.459909 -162.749537 
L 428.611996 -160.857938 
L 428.737261 -158.966338 
L 428.856794 -157.074738 
L 428.98211 -155.183139 
L 429.112238 -153.291539 
L 429.237036 -151.39994 
L 429.343481 -149.50834 
L 429.420491 -147.616741 
L 429.459777 -145.725141 
L 429.453597 -143.833542 
L 429.392587 -141.941942 
L 429.266547 -140.050343 
L 429.068567 -138.158743 
L 428.800011 -136.267144 
L 428.472738 -134.375544 
L 428.106358 -132.483945 
L 427.721504 -130.592345 
L 427.332651 -128.700745 
L 426.94436 -126.809146 
L 426.552661 -124.917546 
L 426.150287 -123.025947 
L 425.732461 -121.134347 
L 425.299967 -119.242748 
L 424.858125 -117.351148 
L 424.412882 -115.459549 
L 423.967071 -113.567949 
L 423.519812 -111.67635 
L 423.069835 -109.78475 
L 422.620531 -107.893151 
L 422.182905 -106.001551 
L 421.773777 -104.109952 
L 421.409819 -102.218352 
L 421.100983 -100.326752 
L 420.847295 -98.435153 
L 420.64057 -96.543553 
L 420.469448 -94.651954 
L 420.324341 -92.760354 
L 420.199737 -90.868755 
L 420.093477 -88.977155 
L 420.004586 -87.085556 
L 419.931513 -85.193956 
L 419.871711 -83.302357 
L 419.8222 -81.410757 
L 419.780262 -79.519158 
L 419.743717 -77.627558 
L 419.710775 -75.735959 
L 419.679842 -73.844359 
L 419.649556 -71.952759 
L 419.619051 -70.06116 
L 419.588249 -68.16956 
L 419.557925 -66.277961 
L 419.529467 -64.386361 
L 419.504396 -62.494762 
L 419.483859 -60.603162 
L 419.468306 -58.711563 
L 419.457457 -56.819963 
L 419.450501 -54.928364 
z
" style="stroke: #3f3f3f; stroke-width: 1.25"/>
    </defs>
    <g clip-path="url(#p28aeff3faa)">
     <use xlink:href="#me3a1be6fc8" x="0" y="345.6" style="fill: #3274a1; stroke: #3f3f3f; stroke-width: 1.25"/>
    </g>
   </g>
   <g id="matplotlib.axis_1">
    <g id="xtick_1">
     <g id="line2d_1">
      <defs>
       <path id="m7004a85ea2" d="M 0 0 
L 0 3.5 
" style="stroke: #000000; stroke-width: 0.8"/>
      </defs>
      <g>
       <use xlink:href="#m7004a85ea2" x="84.638349" y="303.896" style="stroke: #000000; stroke-width: 0.8"/>
      </g>
     </g>
     <g id="text_1">
      <!-- Fluency -->
      <g transform="translate(65.250849 318.494438) scale(0.1 -0.1)">
       <defs>
        <path id="DejaVuSans-46" d="M 628 4666 
L 3309 4666 
L 3309 4134 
L 1259 4134 
L 1259 2759 
L 3109 2759 
L 3109 2228 
L 1259 2228 
L 1259 0 
L 628 0 
L 628 4666 
z
" transform="scale(0.015625)"/>
        <path id="DejaVuSans-6c" d="M 603 4863 
L 1178 4863 
L 1178 0 
L 603 0 
L 603 4863 
z
" transform="scale(0.015625)"/>
        <path id="DejaVuSans-75" d="M 544 1381 
L 544 3500 
L 1119 3500 
L 1119 1403 
Q 1119 906 1312 657 
Q 1506 409 1894 409 
Q 2359 409 2629 706 
Q 2900 1003 2900 1516 
L 2900 3500 
L 3475 3500 
L 3475 0 
L 2900 0 
L 2900 538 
Q 2691 219 2414 64 
Q 2138 -91 1772 -91 
Q 1169 -91 856 284 
Q 544 659 544 1381 
z
M 1991 3584 
L 1991 3584 
z
" transform="scale(0.015625)"/>
        <path id="DejaVuSans-65" d="M 3597 1894 
L 3597 1613 
L 953 1613 
Q 991 1019 1311 708 
Q 1631 397 2203 397 
Q 2534 397 2845 478 
Q 3156 559 3463 722 
L 3463 178 
Q 3153 47 2828 -22 
Q 2503 -91 2169 -91 
Q 1331 -91 842 396 
Q 353 884 353 1716 
Q 353 2575 817 3079 
Q 1281 3584 2069 3584 
Q 2775 3584 3186 3129 
Q 3597 2675 3597 1894 
z
M 3022 2063 
Q 3016 2534 2758 2815 
Q 2500 3097 2075 3097 
Q 1594 3097 1305 2825 
Q 1016 2553 972 2059 
L 3022 2063 
z
" transform="scale(0.015625)"/>
        <path id="DejaVuSans-6e" d="M 3513 2113 
L 3513 0 
L 2938 0 
L 2938 2094 
Q 2938 2591 2744 2837 
Q 2550 3084 2163 3084 
Q 1697 3084 1428 2787 
Q 1159 2491 1159 1978 
L 1159 0 
L 581 0 
L 581 3500 
L 1159 3500 
L 1159 2956 
Q 1366 3272 1645 3428 
Q 1925 3584 2291 3584 
Q 2894 3584 3203 3211 
Q 3513 2838 3513 2113 
z
" transform="scale(0.015625)"/>
        <path id="DejaVuSans-63" d="M 3122 3366 
L 3122 2828 
Q 2878 2963 2633 3030 
Q 2388 3097 2138 3097 
Q 1578 3097 1268 2742 
Q 959 2388 959 1747 
Q 959 1106 1268 751 
Q 1578 397 2138 397 
Q 2388 397 2633 464 
Q 2878 531 3122 666 
L 3122 134 
Q 2881 22 2623 -34 
Q 2366 -91 2075 -91 
Q 1284 -91 818 406 
Q 353 903 353 1747 
Q 353 2603 823 3093 
Q 1294 3584 2113 3584 
Q 2378 3584 2631 3529 
Q 2884 3475 3122 3366 
z
" transform="scale(0.015625)"/>
        <path id="DejaVuSans-79" d="M 2059 -325 
Q 1816 -950 1584 -1140 
Q 1353 -1331 966 -1331 
L 506 -1331 
L 506 -850 
L 844 -850 
Q 1081 -850 1212 -737 
Q 1344 -625 1503 -206 
L 1606 56 
L 191 3500 
L 800 3500 
L 1894 763 
L 2988 3500 
L 3597 3500 
L 2059 -325 
z
" transform="scale(0.015625)"/>
       </defs>
       <use xlink:href="#DejaVuSans-46"/>
       <use xlink:href="#DejaVuSans-6c" x="57.519531"/>
       <use xlink:href="#DejaVuSans-75" x="85.302734"/>
       <use xlink:href="#DejaVuSans-65" x="148.681641"/>
       <use xlink:href="#DejaVuSans-6e" x="210.205078"/>
       <use xlink:href="#DejaVuSans-63" x="273.583984"/>
       <use xlink:href="#DejaVuSans-79" x="328.564453"/>
      </g>
      <!--  classifier -->
      <g transform="translate(60.967255 329.69225) scale(0.1 -0.1)">
       <defs>
        <path id="DejaVuSans-20" transform="scale(0.015625)"/>
        <path id="DejaVuSans-61" d="M 2194 1759 
Q 1497 1759 1228 1600 
Q 959 1441 959 1056 
Q 959 750 1161 570 
Q 1363 391 1709 391 
Q 2188 391 2477 730 
Q 2766 1069 2766 1631 
L 2766 1759 
L 2194 1759 
z
M 3341 1997 
L 3341 0 
L 2766 0 
L 2766 531 
Q 2569 213 2275 61 
Q 1981 -91 1556 -91 
Q 1019 -91 701 211 
Q 384 513 384 1019 
Q 384 1609 779 1909 
Q 1175 2209 1959 2209 
L 2766 2209 
L 2766 2266 
Q 2766 2663 2505 2880 
Q 2244 3097 1772 3097 
Q 1472 3097 1187 3025 
Q 903 2953 641 2809 
L 641 3341 
Q 956 3463 1253 3523 
Q 1550 3584 1831 3584 
Q 2591 3584 2966 3190 
Q 3341 2797 3341 1997 
z
" transform="scale(0.015625)"/>
        <path id="DejaVuSans-73" d="M 2834 3397 
L 2834 2853 
Q 2591 2978 2328 3040 
Q 2066 3103 1784 3103 
Q 1356 3103 1142 2972 
Q 928 2841 928 2578 
Q 928 2378 1081 2264 
Q 1234 2150 1697 2047 
L 1894 2003 
Q 2506 1872 2764 1633 
Q 3022 1394 3022 966 
Q 3022 478 2636 193 
Q 2250 -91 1575 -91 
Q 1294 -91 989 -36 
Q 684 19 347 128 
L 347 722 
Q 666 556 975 473 
Q 1284 391 1588 391 
Q 1994 391 2212 530 
Q 2431 669 2431 922 
Q 2431 1156 2273 1281 
Q 2116 1406 1581 1522 
L 1381 1569 
Q 847 1681 609 1914 
Q 372 2147 372 2553 
Q 372 3047 722 3315 
Q 1072 3584 1716 3584 
Q 2034 3584 2315 3537 
Q 2597 3491 2834 3397 
z
" transform="scale(0.015625)"/>
        <path id="DejaVuSans-69" d="M 603 3500 
L 1178 3500 
L 1178 0 
L 603 0 
L 603 3500 
z
M 603 4863 
L 1178 4863 
L 1178 4134 
L 603 4134 
L 603 4863 
z
" transform="scale(0.015625)"/>
        <path id="DejaVuSans-66" d="M 2375 4863 
L 2375 4384 
L 1825 4384 
Q 1516 4384 1395 4259 
Q 1275 4134 1275 3809 
L 1275 3500 
L 2222 3500 
L 2222 3053 
L 1275 3053 
L 1275 0 
L 697 0 
L 697 3053 
L 147 3053 
L 147 3500 
L 697 3500 
L 697 3744 
Q 697 4328 969 4595 
Q 1241 4863 1831 4863 
L 2375 4863 
z
" transform="scale(0.015625)"/>
        <path id="DejaVuSans-72" d="M 2631 2963 
Q 2534 3019 2420 3045 
Q 2306 3072 2169 3072 
Q 1681 3072 1420 2755 
Q 1159 2438 1159 1844 
L 1159 0 
L 581 0 
L 581 3500 
L 1159 3500 
L 1159 2956 
Q 1341 3275 1631 3429 
Q 1922 3584 2338 3584 
Q 2397 3584 2469 3576 
Q 2541 3569 2628 3553 
L 2631 2963 
z
" transform="scale(0.015625)"/>
       </defs>
       <use xlink:href="#DejaVuSans-20"/>
       <use xlink:href="#DejaVuSans-63" x="31.787109"/>
       <use xlink:href="#DejaVuSans-6c" x="86.767578"/>
       <use xlink:href="#DejaVuSans-61" x="114.550781"/>
       <use xlink:href="#DejaVuSans-73" x="175.830078"/>
       <use xlink:href="#DejaVuSans-73" x="227.929688"/>
       <use xlink:href="#DejaVuSans-69" x="280.029297"/>
       <use xlink:href="#DejaVuSans-66" x="307.8125"/>
       <use xlink:href="#DejaVuSans-69" x="343.017578"/>
       <use xlink:href="#DejaVuSans-65" x="370.800781"/>
       <use xlink:href="#DejaVuSans-72" x="432.324219"/>
      </g>
     </g>
    </g>
    <g id="xtick_2">
     <g id="line2d_2">
      <g>
       <use xlink:href="#m7004a85ea2" x="168.339334" y="303.896" style="stroke: #000000; stroke-width: 0.8"/>
      </g>
     </g>
     <g id="text_2">
      <!-- Screening -->
      <g transform="translate(143.419022 318.494438) scale(0.1 -0.1)">
       <defs>
        <path id="DejaVuSans-53" d="M 3425 4513 
L 3425 3897 
Q 3066 4069 2747 4153 
Q 2428 4238 2131 4238 
Q 1616 4238 1336 4038 
Q 1056 3838 1056 3469 
Q 1056 3159 1242 3001 
Q 1428 2844 1947 2747 
L 2328 2669 
Q 3034 2534 3370 2195 
Q 3706 1856 3706 1288 
Q 3706 609 3251 259 
Q 2797 -91 1919 -91 
Q 1588 -91 1214 -16 
Q 841 59 441 206 
L 441 856 
Q 825 641 1194 531 
Q 1563 422 1919 422 
Q 2459 422 2753 634 
Q 3047 847 3047 1241 
Q 3047 1584 2836 1778 
Q 2625 1972 2144 2069 
L 1759 2144 
Q 1053 2284 737 2584 
Q 422 2884 422 3419 
Q 422 4038 858 4394 
Q 1294 4750 2059 4750 
Q 2388 4750 2728 4690 
Q 3069 4631 3425 4513 
z
" transform="scale(0.015625)"/>
        <path id="DejaVuSans-67" d="M 2906 1791 
Q 2906 2416 2648 2759 
Q 2391 3103 1925 3103 
Q 1463 3103 1205 2759 
Q 947 2416 947 1791 
Q 947 1169 1205 825 
Q 1463 481 1925 481 
Q 2391 481 2648 825 
Q 2906 1169 2906 1791 
z
M 3481 434 
Q 3481 -459 3084 -895 
Q 2688 -1331 1869 -1331 
Q 1566 -1331 1297 -1286 
Q 1028 -1241 775 -1147 
L 775 -588 
Q 1028 -725 1275 -790 
Q 1522 -856 1778 -856 
Q 2344 -856 2625 -561 
Q 2906 -266 2906 331 
L 2906 616 
Q 2728 306 2450 153 
Q 2172 0 1784 0 
Q 1141 0 747 490 
Q 353 981 353 1791 
Q 353 2603 747 3093 
Q 1141 3584 1784 3584 
Q 2172 3584 2450 3431 
Q 2728 3278 2906 2969 
L 2906 3500 
L 3481 3500 
L 3481 434 
z
" transform="scale(0.015625)"/>
       </defs>
       <use xlink:href="#DejaVuSans-53"/>
       <use xlink:href="#DejaVuSans-63" x="63.476562"/>
       <use xlink:href="#DejaVuSans-72" x="118.457031"/>
       <use xlink:href="#DejaVuSans-65" x="157.320312"/>
       <use xlink:href="#DejaVuSans-65" x="218.84375"/>
       <use xlink:href="#DejaVuSans-6e" x="280.367188"/>
       <use xlink:href="#DejaVuSans-69" x="343.746094"/>
       <use xlink:href="#DejaVuSans-6e" x="371.529297"/>
       <use xlink:href="#DejaVuSans-67" x="434.908203"/>
      </g>
      <!--  classifier -->
      <g transform="translate(144.66824 329.69225) scale(0.1 -0.1)">
       <use xlink:href="#DejaVuSans-20"/>
       <use xlink:href="#DejaVuSans-63" x="31.787109"/>
       <use xlink:href="#DejaVuSans-6c" x="86.767578"/>
       <use xlink:href="#DejaVuSans-61" x="114.550781"/>
       <use xlink:href="#DejaVuSans-73" x="175.830078"/>
       <use xlink:href="#DejaVuSans-73" x="227.929688"/>
       <use xlink:href="#DejaVuSans-69" x="280.029297"/>
       <use xlink:href="#DejaVuSans-66" x="307.8125"/>
       <use xlink:href="#DejaVuSans-69" x="343.017578"/>
       <use xlink:href="#DejaVuSans-65" x="370.800781"/>
       <use xlink:href="#DejaVuSans-72" x="432.324219"/>
      </g>
     </g>
    </g>
    <g id="xtick_3">
     <g id="line2d_3">
      <g>
       <use xlink:href="#m7004a85ea2" x="252.040319" y="303.896" style="stroke: #000000; stroke-width: 0.8"/>
      </g>
     </g>
     <g id="text_3">
      <!-- Executive -->
      <g transform="translate(227.698132 318.494438) scale(0.1 -0.1)">
       <defs>
        <path id="DejaVuSans-45" d="M 628 4666 
L 3578 4666 
L 3578 4134 
L 1259 4134 
L 1259 2753 
L 3481 2753 
L 3481 2222 
L 1259 2222 
L 1259 531 
L 3634 531 
L 3634 0 
L 628 0 
L 628 4666 
z
" transform="scale(0.015625)"/>
        <path id="DejaVuSans-78" d="M 3513 3500 
L 2247 1797 
L 3578 0 
L 2900 0 
L 1881 1375 
L 863 0 
L 184 0 
L 1544 1831 
L 300 3500 
L 978 3500 
L 1906 2253 
L 2834 3500 
L 3513 3500 
z
" transform="scale(0.015625)"/>
        <path id="DejaVuSans-74" d="M 1172 4494 
L 1172 3500 
L 2356 3500 
L 2356 3053 
L 1172 3053 
L 1172 1153 
Q 1172 725 1289 603 
Q 1406 481 1766 481 
L 2356 481 
L 2356 0 
L 1766 0 
Q 1100 0 847 248 
Q 594 497 594 1153 
L 594 3053 
L 172 3053 
L 172 3500 
L 594 3500 
L 594 4494 
L 1172 4494 
z
" transform="scale(0.015625)"/>
        <path id="DejaVuSans-76" d="M 191 3500 
L 800 3500 
L 1894 563 
L 2988 3500 
L 3597 3500 
L 2284 0 
L 1503 0 
L 191 3500 
z
" transform="scale(0.015625)"/>
       </defs>
       <use xlink:href="#DejaVuSans-45"/>
       <use xlink:href="#DejaVuSans-78" x="63.183594"/>
       <use xlink:href="#DejaVuSans-65" x="119.238281"/>
       <use xlink:href="#DejaVuSans-63" x="180.761719"/>
       <use xlink:href="#DejaVuSans-75" x="235.742188"/>
       <use xlink:href="#DejaVuSans-74" x="299.121094"/>
       <use xlink:href="#DejaVuSans-69" x="338.330078"/>
       <use xlink:href="#DejaVuSans-76" x="366.113281"/>
       <use xlink:href="#DejaVuSans-65" x="425.292969"/>
      </g>
      <!--  classifier -->
      <g transform="translate(228.369225 329.69225) scale(0.1 -0.1)">
       <use xlink:href="#DejaVuSans-20"/>
       <use xlink:href="#DejaVuSans-63" x="31.787109"/>
       <use xlink:href="#DejaVuSans-6c" x="86.767578"/>
       <use xlink:href="#DejaVuSans-61" x="114.550781"/>
       <use xlink:href="#DejaVuSans-73" x="175.830078"/>
       <use xlink:href="#DejaVuSans-73" x="227.929688"/>
       <use xlink:href="#DejaVuSans-69" x="280.029297"/>
       <use xlink:href="#DejaVuSans-66" x="307.8125"/>
       <use xlink:href="#DejaVuSans-69" x="343.017578"/>
       <use xlink:href="#DejaVuSans-65" x="370.800781"/>
       <use xlink:href="#DejaVuSans-72" x="432.324219"/>
      </g>
     </g>
    </g>
    <g id="xtick_4">
     <g id="line2d_4">
      <g>
       <use xlink:href="#m7004a85ea2" x="335.741304" y="303.896" style="stroke: #000000; stroke-width: 0.8"/>
      </g>
     </g>
     <g id="text_4">
      <!-- Structural -->
      <g transform="translate(310.995992 318.494438) scale(0.1 -0.1)">
       <use xlink:href="#DejaVuSans-53"/>
       <use xlink:href="#DejaVuSans-74" x="63.476562"/>
       <use xlink:href="#DejaVuSans-72" x="102.685547"/>
       <use xlink:href="#DejaVuSans-75" x="143.798828"/>
       <use xlink:href="#DejaVuSans-63" x="207.177734"/>
       <use xlink:href="#DejaVuSans-74" x="262.158203"/>
       <use xlink:href="#DejaVuSans-75" x="301.367188"/>
       <use xlink:href="#DejaVuSans-72" x="364.746094"/>
       <use xlink:href="#DejaVuSans-61" x="405.859375"/>
       <use xlink:href="#DejaVuSans-6c" x="467.138672"/>
      </g>
      <!--  classifier -->
      <g transform="translate(312.07021 329.69225) scale(0.1 -0.1)">
       <use xlink:href="#DejaVuSans-20"/>
       <use xlink:href="#DejaVuSans-63" x="31.787109"/>
       <use xlink:href="#DejaVuSans-6c" x="86.767578"/>
       <use xlink:href="#DejaVuSans-61" x="114.550781"/>
       <use xlink:href="#DejaVuSans-73" x="175.830078"/>
       <use xlink:href="#DejaVuSans-73" x="227.929688"/>
       <use xlink:href="#DejaVuSans-69" x="280.029297"/>
       <use xlink:href="#DejaVuSans-66" x="307.8125"/>
       <use xlink:href="#DejaVuSans-69" x="343.017578"/>
       <use xlink:href="#DejaVuSans-65" x="370.800781"/>
       <use xlink:href="#DejaVuSans-72" x="432.324219"/>
      </g>
     </g>
    </g>
    <g id="xtick_5">
     <g id="line2d_5">
      <g>
       <use xlink:href="#m7004a85ea2" x="419.442289" y="303.896" style="stroke: #000000; stroke-width: 0.8"/>
      </g>
     </g>
     <g id="text_5">
      <!-- Functional -->
      <g transform="translate(393.724321 318.494438) scale(0.1 -0.1)">
       <defs>
        <path id="DejaVuSans-6f" d="M 1959 3097 
Q 1497 3097 1228 2736 
Q 959 2375 959 1747 
Q 959 1119 1226 758 
Q 1494 397 1959 397 
Q 2419 397 2687 759 
Q 2956 1122 2956 1747 
Q 2956 2369 2687 2733 
Q 2419 3097 1959 3097 
z
M 1959 3584 
Q 2709 3584 3137 3096 
Q 3566 2609 3566 1747 
Q 3566 888 3137 398 
Q 2709 -91 1959 -91 
Q 1206 -91 779 398 
Q 353 888 353 1747 
Q 353 2609 779 3096 
Q 1206 3584 1959 3584 
z
" transform="scale(0.015625)"/>
       </defs>
       <use xlink:href="#DejaVuSans-46"/>
       <use xlink:href="#DejaVuSans-75" x="52.019531"/>
       <use xlink:href="#DejaVuSans-6e" x="115.398438"/>
       <use xlink:href="#DejaVuSans-63" x="178.777344"/>
       <use xlink:href="#DejaVuSans-74" x="233.757812"/>
       <use xlink:href="#DejaVuSans-69" x="272.966797"/>
       <use xlink:href="#DejaVuSans-6f" x="300.75"/>
       <use xlink:href="#DejaVuSans-6e" x="361.931641"/>
       <use xlink:href="#DejaVuSans-61" x="425.310547"/>
       <use xlink:href="#DejaVuSans-6c" x="486.589844"/>
      </g>
      <!--  classifier -->
      <g transform="translate(395.771196 329.69225) scale(0.1 -0.1)">
       <use xlink:href="#DejaVuSans-20"/>
       <use xlink:href="#DejaVuSans-63" x="31.787109"/>
       <use xlink:href="#DejaVuSans-6c" x="86.767578"/>
       <use xlink:href="#DejaVuSans-61" x="114.550781"/>
       <use xlink:href="#DejaVuSans-73" x="175.830078"/>
       <use xlink:href="#DejaVuSans-73" x="227.929688"/>
       <use xlink:href="#DejaVuSans-69" x="280.029297"/>
       <use xlink:href="#DejaVuSans-66" x="307.8125"/>
       <use xlink:href="#DejaVuSans-69" x="343.017578"/>
       <use xlink:href="#DejaVuSans-65" x="370.800781"/>
       <use xlink:href="#DejaVuSans-72" x="432.324219"/>
      </g>
     </g>
    </g>
   </g>
   <g id="matplotlib.axis_2">
    <g id="ytick_1">
     <g id="line2d_6">
      <defs>
       <path id="m959842e9c8" d="M 0 0 
L -3.5 0 
" style="stroke: #000000; stroke-width: 0.8"/>
      </defs>
      <g>
       <use xlink:href="#m959842e9c8" x="52.76" y="264.101044" style="stroke: #000000; stroke-width: 0.8"/>
      </g>
     </g>
     <g id="text_6">
      <!-- 0.5 -->
      <g transform="translate(29.856875 267.900263) scale(0.1 -0.1)">
       <defs>
        <path id="DejaVuSans-30" d="M 2034 4250 
Q 1547 4250 1301 3770 
Q 1056 3291 1056 2328 
Q 1056 1369 1301 889 
Q 1547 409 2034 409 
Q 2525 409 2770 889 
Q 3016 1369 3016 2328 
Q 3016 3291 2770 3770 
Q 2525 4250 2034 4250 
z
M 2034 4750 
Q 2819 4750 3233 4129 
Q 3647 3509 3647 2328 
Q 3647 1150 3233 529 
Q 2819 -91 2034 -91 
Q 1250 -91 836 529 
Q 422 1150 422 2328 
Q 422 3509 836 4129 
Q 1250 4750 2034 4750 
z
" transform="scale(0.015625)"/>
        <path id="DejaVuSans-2e" d="M 684 794 
L 1344 794 
L 1344 0 
L 684 0 
L 684 794 
z
" transform="scale(0.015625)"/>
        <path id="DejaVuSans-35" d="M 691 4666 
L 3169 4666 
L 3169 4134 
L 1269 4134 
L 1269 2991 
Q 1406 3038 1543 3061 
Q 1681 3084 1819 3084 
Q 2600 3084 3056 2656 
Q 3513 2228 3513 1497 
Q 3513 744 3044 326 
Q 2575 -91 1722 -91 
Q 1428 -91 1123 -41 
Q 819 9 494 109 
L 494 744 
Q 775 591 1075 516 
Q 1375 441 1709 441 
Q 2250 441 2565 725 
Q 2881 1009 2881 1497 
Q 2881 1984 2565 2268 
Q 2250 2553 1709 2553 
Q 1456 2553 1204 2497 
Q 953 2441 691 2322 
L 691 4666 
z
" transform="scale(0.015625)"/>
       </defs>
       <use xlink:href="#DejaVuSans-30"/>
       <use xlink:href="#DejaVuSans-2e" x="63.623047"/>
       <use xlink:href="#DejaVuSans-35" x="95.410156"/>
      </g>
     </g>
    </g>
    <g id="ytick_2">
     <g id="line2d_7">
      <g>
       <use xlink:href="#m959842e9c8" x="52.76" y="217.098395" style="stroke: #000000; stroke-width: 0.8"/>
      </g>
     </g>
     <g id="text_7">
      <!-- 0.6 -->
      <g transform="translate(29.856875 220.897614) scale(0.1 -0.1)">
       <defs>
        <path id="DejaVuSans-36" d="M 2113 2584 
Q 1688 2584 1439 2293 
Q 1191 2003 1191 1497 
Q 1191 994 1439 701 
Q 1688 409 2113 409 
Q 2538 409 2786 701 
Q 3034 994 3034 1497 
Q 3034 2003 2786 2293 
Q 2538 2584 2113 2584 
z
M 3366 4563 
L 3366 3988 
Q 3128 4100 2886 4159 
Q 2644 4219 2406 4219 
Q 1781 4219 1451 3797 
Q 1122 3375 1075 2522 
Q 1259 2794 1537 2939 
Q 1816 3084 2150 3084 
Q 2853 3084 3261 2657 
Q 3669 2231 3669 1497 
Q 3669 778 3244 343 
Q 2819 -91 2113 -91 
Q 1303 -91 875 529 
Q 447 1150 447 2328 
Q 447 3434 972 4092 
Q 1497 4750 2381 4750 
Q 2619 4750 2861 4703 
Q 3103 4656 3366 4563 
z
" transform="scale(0.015625)"/>
       </defs>
       <use xlink:href="#DejaVuSans-30"/>
       <use xlink:href="#DejaVuSans-2e" x="63.623047"/>
       <use xlink:href="#DejaVuSans-36" x="95.410156"/>
      </g>
     </g>
    </g>
    <g id="ytick_3">
     <g id="line2d_8">
      <g>
       <use xlink:href="#m959842e9c8" x="52.76" y="170.095746" style="stroke: #000000; stroke-width: 0.8"/>
      </g>
     </g>
     <g id="text_8">
      <!-- 0.7 -->
      <g transform="translate(29.856875 173.894965) scale(0.1 -0.1)">
       <defs>
        <path id="DejaVuSans-37" d="M 525 4666 
L 3525 4666 
L 3525 4397 
L 1831 0 
L 1172 0 
L 2766 4134 
L 525 4134 
L 525 4666 
z
" transform="scale(0.015625)"/>
       </defs>
       <use xlink:href="#DejaVuSans-30"/>
       <use xlink:href="#DejaVuSans-2e" x="63.623047"/>
       <use xlink:href="#DejaVuSans-37" x="95.410156"/>
      </g>
     </g>
    </g>
    <g id="ytick_4">
     <g id="line2d_9">
      <g>
       <use xlink:href="#m959842e9c8" x="52.76" y="123.093098" style="stroke: #000000; stroke-width: 0.8"/>
      </g>
     </g>
     <g id="text_9">
      <!-- 0.8 -->
      <g transform="translate(29.856875 126.892316) scale(0.1 -0.1)">
       <defs>
        <path id="DejaVuSans-38" d="M 2034 2216 
Q 1584 2216 1326 1975 
Q 1069 1734 1069 1313 
Q 1069 891 1326 650 
Q 1584 409 2034 409 
Q 2484 409 2743 651 
Q 3003 894 3003 1313 
Q 3003 1734 2745 1975 
Q 2488 2216 2034 2216 
z
M 1403 2484 
Q 997 2584 770 2862 
Q 544 3141 544 3541 
Q 544 4100 942 4425 
Q 1341 4750 2034 4750 
Q 2731 4750 3128 4425 
Q 3525 4100 3525 3541 
Q 3525 3141 3298 2862 
Q 3072 2584 2669 2484 
Q 3125 2378 3379 2068 
Q 3634 1759 3634 1313 
Q 3634 634 3220 271 
Q 2806 -91 2034 -91 
Q 1263 -91 848 271 
Q 434 634 434 1313 
Q 434 1759 690 2068 
Q 947 2378 1403 2484 
z
M 1172 3481 
Q 1172 3119 1398 2916 
Q 1625 2713 2034 2713 
Q 2441 2713 2670 2916 
Q 2900 3119 2900 3481 
Q 2900 3844 2670 4047 
Q 2441 4250 2034 4250 
Q 1625 4250 1398 4047 
Q 1172 3844 1172 3481 
z
" transform="scale(0.015625)"/>
       </defs>
       <use xlink:href="#DejaVuSans-30"/>
       <use xlink:href="#DejaVuSans-2e" x="63.623047"/>
       <use xlink:href="#DejaVuSans-38" x="95.410156"/>
      </g>
     </g>
    </g>
    <g id="ytick_5">
     <g id="line2d_10">
      <g>
       <use xlink:href="#m959842e9c8" x="52.76" y="76.090449" style="stroke: #000000; stroke-width: 0.8"/>
      </g>
     </g>
     <g id="text_10">
      <!-- 0.9 -->
      <g transform="translate(29.856875 79.889668) scale(0.1 -0.1)">
       <defs>
        <path id="DejaVuSans-39" d="M 703 97 
L 703 672 
Q 941 559 1184 500 
Q 1428 441 1663 441 
Q 2288 441 2617 861 
Q 2947 1281 2994 2138 
Q 2813 1869 2534 1725 
Q 2256 1581 1919 1581 
Q 1219 1581 811 2004 
Q 403 2428 403 3163 
Q 403 3881 828 4315 
Q 1253 4750 1959 4750 
Q 2769 4750 3195 4129 
Q 3622 3509 3622 2328 
Q 3622 1225 3098 567 
Q 2575 -91 1691 -91 
Q 1453 -91 1209 -44 
Q 966 3 703 97 
z
M 1959 2075 
Q 2384 2075 2632 2365 
Q 2881 2656 2881 3163 
Q 2881 3666 2632 3958 
Q 2384 4250 1959 4250 
Q 1534 4250 1286 3958 
Q 1038 3666 1038 3163 
Q 1038 2656 1286 2365 
Q 1534 2075 1959 2075 
z
" transform="scale(0.015625)"/>
       </defs>
       <use xlink:href="#DejaVuSans-30"/>
       <use xlink:href="#DejaVuSans-2e" x="63.623047"/>
       <use xlink:href="#DejaVuSans-39" x="95.410156"/>
      </g>
     </g>
    </g>
    <g id="ytick_6">
     <g id="line2d_11">
      <g>
       <use xlink:href="#m959842e9c8" x="52.76" y="29.0878" style="stroke: #000000; stroke-width: 0.8"/>
      </g>
     </g>
     <g id="text_11">
      <!-- 1.0 -->
      <g transform="translate(29.856875 32.887019) scale(0.1 -0.1)">
       <defs>
        <path id="DejaVuSans-31" d="M 794 531 
L 1825 531 
L 1825 4091 
L 703 3866 
L 703 4441 
L 1819 4666 
L 2450 4666 
L 2450 531 
L 3481 531 
L 3481 0 
L 794 0 
L 794 531 
z
" transform="scale(0.015625)"/>
       </defs>
       <use xlink:href="#DejaVuSans-31"/>
       <use xlink:href="#DejaVuSans-2e" x="63.623047"/>
       <use xlink:href="#DejaVuSans-30" x="95.410156"/>
      </g>
     </g>
    </g>
    <g id="text_12">
     <!-- ROC AUC -->
     <g transform="translate(23.36125 186.102062) rotate(-90) scale(0.12 -0.12)">
      <defs>
       <path id="DejaVuSans-52" d="M 2841 2188 
Q 3044 2119 3236 1894 
Q 3428 1669 3622 1275 
L 4263 0 
L 3584 0 
L 2988 1197 
Q 2756 1666 2539 1819 
Q 2322 1972 1947 1972 
L 1259 1972 
L 1259 0 
L 628 0 
L 628 4666 
L 2053 4666 
Q 2853 4666 3247 4331 
Q 3641 3997 3641 3322 
Q 3641 2881 3436 2590 
Q 3231 2300 2841 2188 
z
M 1259 4147 
L 1259 2491 
L 2053 2491 
Q 2509 2491 2742 2702 
Q 2975 2913 2975 3322 
Q 2975 3731 2742 3939 
Q 2509 4147 2053 4147 
L 1259 4147 
z
" transform="scale(0.015625)"/>
       <path id="DejaVuSans-4f" d="M 2522 4238 
Q 1834 4238 1429 3725 
Q 1025 3213 1025 2328 
Q 1025 1447 1429 934 
Q 1834 422 2522 422 
Q 3209 422 3611 934 
Q 4013 1447 4013 2328 
Q 4013 3213 3611 3725 
Q 3209 4238 2522 4238 
z
M 2522 4750 
Q 3503 4750 4090 4092 
Q 4678 3434 4678 2328 
Q 4678 1225 4090 567 
Q 3503 -91 2522 -91 
Q 1538 -91 948 565 
Q 359 1222 359 2328 
Q 359 3434 948 4092 
Q 1538 4750 2522 4750 
z
" transform="scale(0.015625)"/>
       <path id="DejaVuSans-43" d="M 4122 4306 
L 4122 3641 
Q 3803 3938 3442 4084 
Q 3081 4231 2675 4231 
Q 1875 4231 1450 3742 
Q 1025 3253 1025 2328 
Q 1025 1406 1450 917 
Q 1875 428 2675 428 
Q 3081 428 3442 575 
Q 3803 722 4122 1019 
L 4122 359 
Q 3791 134 3420 21 
Q 3050 -91 2638 -91 
Q 1578 -91 968 557 
Q 359 1206 359 2328 
Q 359 3453 968 4101 
Q 1578 4750 2638 4750 
Q 3056 4750 3426 4639 
Q 3797 4528 4122 4306 
z
" transform="scale(0.015625)"/>
       <path id="DejaVuSans-41" d="M 2188 4044 
L 1331 1722 
L 3047 1722 
L 2188 4044 
z
M 1831 4666 
L 2547 4666 
L 4325 0 
L 3669 0 
L 3244 1197 
L 1141 1197 
L 716 0 
L 50 0 
L 1831 4666 
z
" transform="scale(0.015625)"/>
       <path id="DejaVuSans-55" d="M 556 4666 
L 1191 4666 
L 1191 1831 
Q 1191 1081 1462 751 
Q 1734 422 2344 422 
Q 2950 422 3222 751 
Q 3494 1081 3494 1831 
L 3494 4666 
L 4128 4666 
L 4128 1753 
Q 4128 841 3676 375 
Q 3225 -91 2344 -91 
Q 1459 -91 1007 375 
Q 556 841 556 1753 
L 556 4666 
z
" transform="scale(0.015625)"/>
      </defs>
      <use xlink:href="#DejaVuSans-52"/>
      <use xlink:href="#DejaVuSans-4f" x="69.482422"/>
      <use xlink:href="#DejaVuSans-43" x="148.193359"/>
      <use xlink:href="#DejaVuSans-20" x="218.017578"/>
      <use xlink:href="#DejaVuSans-41" x="249.804688"/>
      <use xlink:href="#DejaVuSans-55" x="318.212891"/>
      <use xlink:href="#DejaVuSans-43" x="391.40625"/>
     </g>
    </g>
   </g>
   <g id="LineCollection_1">
    <path d="M 84.638349 151.426294 
L 84.638349 73.119881 
" clip-path="url(#p28aeff3faa)" style="fill: none; stroke: #000000; stroke-width: 1.5"/>
    <path d="M 168.339334 66.243394 
L 168.339334 34.4085 
" clip-path="url(#p28aeff3faa)" style="fill: none; stroke: #000000; stroke-width: 1.5"/>
    <path d="M 252.040319 163.228659 
L 252.040319 74.464157 
" clip-path="url(#p28aeff3faa)" style="fill: none; stroke: #000000; stroke-width: 1.5"/>
    <path d="M 335.741304 113.476356 
L 335.741304 50.290695 
" clip-path="url(#p28aeff3faa)" style="fill: none; stroke: #000000; stroke-width: 1.5"/>
    <path d="M 419.442289 246.442149 
L 419.442289 148.68134 
" clip-path="url(#p28aeff3faa)" style="fill: none; stroke: #000000; stroke-width: 1.5"/>
   </g>
   <g id="line2d_12">
    <defs>
     <path id="mf8845403c0" d="M 5 0 
L -5 -0 
" style="stroke: #000000"/>
    </defs>
    <g clip-path="url(#p28aeff3faa)">
     <use xlink:href="#mf8845403c0" x="84.638349" y="151.426294" style="stroke: #000000"/>
     <use xlink:href="#mf8845403c0" x="168.339334" y="66.243394" style="stroke: #000000"/>
     <use xlink:href="#mf8845403c0" x="252.040319" y="163.228659" style="stroke: #000000"/>
     <use xlink:href="#mf8845403c0" x="335.741304" y="113.476356" style="stroke: #000000"/>
     <use xlink:href="#mf8845403c0" x="419.442289" y="246.442149" style="stroke: #000000"/>
    </g>
   </g>
   <g id="line2d_13">
    <g clip-path="url(#p28aeff3faa)">
     <use xlink:href="#mf8845403c0" x="84.638349" y="73.119881" style="stroke: #000000"/>
     <use xlink:href="#mf8845403c0" x="168.339334" y="34.4085" style="stroke: #000000"/>
     <use xlink:href="#mf8845403c0" x="252.040319" y="74.464157" style="stroke: #000000"/>
     <use xlink:href="#mf8845403c0" x="335.741304" y="50.290695" style="stroke: #000000"/>
     <use xlink:href="#mf8845403c0" x="419.442289" y="148.68134" style="stroke: #000000"/>
    </g>
   </g>
   <g id="line2d_14">
    <defs>
     <path id="m0aed75f550" d="M 0 5.656854 
L 5.656854 0 
L 0 -5.656854 
L -5.656854 0 
z
" style="stroke: #000000; stroke-linejoin: miter"/>
    </defs>
    <g clip-path="url(#p28aeff3faa)">
     <use xlink:href="#m0aed75f550" x="84.638349" y="105.974733" style="stroke: #000000; stroke-linejoin: miter"/>
     <use xlink:href="#m0aed75f550" x="168.339334" y="47.776053" style="stroke: #000000; stroke-linejoin: miter"/>
     <use xlink:href="#m0aed75f550" x="252.040319" y="115.976897" style="stroke: #000000; stroke-linejoin: miter"/>
     <use xlink:href="#m0aed75f550" x="335.741304" y="76.856592" style="stroke: #000000; stroke-linejoin: miter"/>
     <use xlink:href="#m0aed75f550" x="419.442289" y="195.575882" style="stroke: #000000; stroke-linejoin: miter"/>
    </g>
   </g>
   <g id="patch_3">
    <path d="M 52.76 303.896 
L 52.76 12.96 
" style="fill: none; stroke: #000000; stroke-width: 0.8; stroke-linejoin: miter; stroke-linecap: square"/>
   </g>
   <g id="patch_4">
    <path d="M 447.397861 303.896 
L 447.397861 12.96 
" style="fill: none; stroke: #000000; stroke-width: 0.8; stroke-linejoin: miter; stroke-linecap: square"/>
   </g>
   <g id="patch_5">
    <path d="M 52.76 303.896 
L 447.397861 303.896 
" style="fill: none; stroke: #000000; stroke-width: 0.8; stroke-linejoin: miter; stroke-linecap: square"/>
   </g>
   <g id="patch_6">
    <path d="M 52.76 12.96 
L 447.397861 12.96 
" style="fill: none; stroke: #000000; stroke-width: 0.8; stroke-linejoin: miter; stroke-linecap: square"/>
   </g>
  </g>
 </g>
 <defs>
  <clipPath id="p28aeff3faa">
   <rect x="52.76" y="12.96" width="394.637861" height="290.936"/>
  </clipPath>
 </defs>
</svg>
