<?xml version="1.0" encoding="utf-8" standalone="no"?>
<!DOCTYPE svg PUBLIC "-//W3C//DTD SVG 1.1//EN"
  "http://www.w3.org/Graphics/SVG/1.1/DTD/svg11.dtd">
<svg xmlns:xlink="http://www.w3.org/1999/xlink" width="460.8pt" height="345.6pt" viewBox="0 0 460.8 345.6" xmlns="http://www.w3.org/2000/svg" version="1.1">
 <metadata>
  <rdf:RDF xmlns:dc="http://purl.org/dc/elements/1.1/" xmlns:cc="http://creativecommons.org/ns#" xmlns:rdf="http://www.w3.org/1999/02/22-rdf-syntax-ns#">
   <cc:Work>
    <dc:type rdf:resource="http://purl.org/dc/dcmitype/StillImage"/>
    <dc:date>2025-09-22T14:38:27.485878</dc:date>
    <dc:format>image/svg+xml</dc:format>
    <dc:creator>
     <cc:Agent>
      <dc:title>Matplotlib v3.9.4, https://matplotlib.org/</dc:title>
     </cc:Agent>
    </dc:creator>
   </cc:Work>
  </rdf:RDF>
 </metadata>
 <defs>
  <style type="text/css">*{stroke-linejoin: round; stroke-linecap: butt}</style>
 </defs>
 <g id="figure_1">
  <g id="patch_1">
   <path d="M 0 345.6 
L 460.8 345.6 
L 460.8 0 
L 0 0 
z
" style="fill: #ffffff"/>
  </g>
  <g id="axes_1">
   <g id="patch_2">
    <path d="M 52.76 303.896 
L 447.84 303.896 
L 447.84 12.96 
L 52.76 12.96 
z
" style="fill: #ffffff"/>
   </g>
   <g id="PolyCollection_1">
    <defs>
     <path id="m87760dce4f" d="M 96.438581 -129.998757 
L 96.410422 -129.998757 
L 96.398639 -131.723735 
L 96.381923 -133.448713 
L 96.361648 -135.173691 
L 96.341223 -136.898669 
L 96.325214 -138.623647 
L 96.317343 -140.348624 
L 96.318309 -142.073602 
L 96.324802 -143.79858 
L 96.330474 -145.523558 
L 96.328423 -147.248536 
L 96.313828 -148.973514 
L 96.285446 -150.698491 
L 96.245518 -152.423469 
L 96.198562 -154.148447 
L 96.149834 -155.873425 
L 96.103974 -157.598403 
L 96.063939 -159.323381 
L 96.030318 -161.048358 
L 96.001471 -162.773336 
L 95.974747 -164.498314 
L 95.948262 -166.223292 
L 95.921913 -167.94827 
L 95.896556 -169.673248 
L 95.871482 -171.398225 
L 95.841442 -173.123203 
L 95.794733 -174.848181 
L 95.713579 -176.573159 
L 95.577683 -178.298137 
L 95.370908 -180.023115 
L 95.089062 -181.748092 
L 94.744482 -183.47307 
L 94.363257 -185.198048 
L 93.974541 -186.923026 
L 93.596723 -188.648004 
L 93.228177 -190.372982 
L 92.848454 -192.097959 
L 92.42961 -193.822937 
L 91.950431 -195.547915 
L 91.403358 -197.272893 
L 90.788404 -198.997871 
L 90.09858 -200.722849 
L 89.309662 -202.447826 
L 88.385377 -204.172804 
L 87.297305 -205.897782 
L 86.046584 -207.62276 
L 84.672435 -209.347738 
L 83.242033 -211.072716 
L 81.829036 -212.797693 
L 80.494028 -214.522671 
L 79.27574 -216.247649 
L 78.191831 -217.972627 
L 77.241106 -219.697605 
L 76.401615 -221.422583 
L 75.628687 -223.14756 
L 74.863445 -224.872538 
L 74.056814 -226.597516 
L 73.19968 -228.322494 
L 72.340033 -230.047472 
L 71.57301 -231.77245 
L 71.006306 -233.497427 
L 70.718182 -235.222405 
L 70.7285 -236.947383 
L 70.99508 -238.672361 
L 71.43491 -240.397339 
L 71.958774 -242.122317 
L 72.503461 -243.847294 
L 73.049586 -245.572272 
L 73.622239 -247.29725 
L 74.279023 -249.022228 
L 75.091376 -250.747206 
L 76.122706 -252.472184 
L 77.405946 -254.197161 
L 78.925434 -255.922139 
L 80.610667 -257.647117 
L 82.348632 -259.372095 
L 84.015051 -261.097073 
L 85.51427 -262.822051 
L 86.809249 -264.547028 
L 87.925224 -266.272006 
L 88.92497 -267.996984 
L 89.870993 -269.721962 
L 90.796835 -271.44694 
L 91.700804 -273.171918 
L 92.559107 -274.896895 
L 93.344612 -276.621873 
L 94.03874 -278.346851 
L 94.632996 -280.071829 
L 95.12484 -281.796807 
L 95.514595 -283.521785 
L 95.806271 -285.246762 
L 96.010271 -286.97174 
L 96.144031 -288.696718 
L 96.228791 -290.421696 
L 96.284177 -292.146674 
L 96.323949 -293.871652 
L 96.355064 -295.596629 
L 96.379655 -297.321607 
L 96.397934 -299.046585 
L 96.410224 -300.771563 
L 96.438779 -300.771563 
L 96.438779 -300.771563 
L 96.451069 -299.046585 
L 96.469348 -297.321607 
L 96.493939 -295.596629 
L 96.525054 -293.871652 
L 96.564826 -292.146674 
L 96.620211 -290.421696 
L 96.704972 -288.696718 
L 96.838732 -286.97174 
L 97.042732 -285.246762 
L 97.334408 -283.521785 
L 97.724162 -281.796807 
L 98.216007 -280.071829 
L 98.810262 -278.346851 
L 99.504391 -276.621873 
L 100.289896 -274.896895 
L 101.148199 -273.171918 
L 102.052168 -271.44694 
L 102.97801 -269.721962 
L 103.924033 -267.996984 
L 104.923779 -266.272006 
L 106.039754 -264.547028 
L 107.334732 -262.822051 
L 108.833951 -261.097073 
L 110.500371 -259.372095 
L 112.238336 -257.647117 
L 113.923569 -255.922139 
L 115.443057 -254.197161 
L 116.726296 -252.472184 
L 117.757627 -250.747206 
L 118.56998 -249.022228 
L 119.226764 -247.29725 
L 119.799417 -245.572272 
L 120.345542 -243.847294 
L 120.890229 -242.122317 
L 121.414093 -240.397339 
L 121.853923 -238.672361 
L 122.120503 -236.947383 
L 122.130821 -235.222405 
L 121.842697 -233.497427 
L 121.275992 -231.77245 
L 120.50897 -230.047472 
L 119.649322 -228.322494 
L 118.792189 -226.597516 
L 117.985558 -224.872538 
L 117.220316 -223.14756 
L 116.447388 -221.422583 
L 115.607896 -219.697605 
L 114.657172 -217.972627 
L 113.573263 -216.247649 
L 112.354975 -214.522671 
L 111.019967 -212.797693 
L 109.606969 -211.072716 
L 108.176568 -209.347738 
L 106.802419 -207.62276 
L 105.551698 -205.897782 
L 104.463626 -204.172804 
L 103.53934 -202.447826 
L 102.750423 -200.722849 
L 102.060599 -198.997871 
L 101.445645 -197.272893 
L 100.898572 -195.547915 
L 100.419393 -193.822937 
L 100.000549 -192.097959 
L 99.620826 -190.372982 
L 99.25228 -188.648004 
L 98.874462 -186.923026 
L 98.485746 -185.198048 
L 98.104521 -183.47307 
L 97.759941 -181.748092 
L 97.478095 -180.023115 
L 97.27132 -178.298137 
L 97.135424 -176.573159 
L 97.05427 -174.848181 
L 97.007561 -173.123203 
L 96.97752 -171.398225 
L 96.952447 -169.673248 
L 96.92709 -167.94827 
L 96.900741 -166.223292 
L 96.874256 -164.498314 
L 96.847532 -162.773336 
L 96.818685 -161.048358 
L 96.785064 -159.323381 
L 96.745028 -157.598403 
L 96.699169 -155.873425 
L 96.650441 -154.148447 
L 96.603484 -152.423469 
L 96.563557 -150.698491 
L 96.535175 -148.973514 
L 96.52058 -147.248536 
L 96.518529 -145.523558 
L 96.524201 -143.79858 
L 96.530693 -142.073602 
L 96.53166 -140.348624 
L 96.523789 -138.623647 
L 96.50778 -136.898669 
L 96.487355 -135.173691 
L 96.46708 -133.448713 
L 96.450364 -131.723735 
L 96.438581 -129.998757 
z
" style="stroke: #3f3f3f; stroke-width: 1.25"/>
    </defs>
    <g clip-path="url(#pc5f912fd6b)">
     <use xlink:href="#m87760dce4f" x="0" y="345.6" style="fill: #3274a1; stroke: #3f3f3f; stroke-width: 1.25"/>
    </g>
   </g>
   <g id="PolyCollection_2">
    <defs>
     <path id="m268c34ec84" d="M 174.598616 -198.400362 
L 174.545714 -198.400362 
L 174.526073 -199.602398 
L 174.497293 -200.804433 
L 174.458435 -202.006469 
L 174.40987 -203.208505 
L 174.353147 -204.41054 
L 174.290169 -205.612576 
L 174.222007 -206.814612 
L 174.148104 -208.016648 
L 174.066555 -209.218683 
L 173.975516 -210.420719 
L 173.874807 -211.622755 
L 173.76635 -212.82479 
L 173.652598 -214.026826 
L 173.533565 -215.228862 
L 173.404397 -216.430898 
L 173.255564 -217.632933 
L 173.076353 -218.834969 
L 172.860208 -220.037005 
L 172.608981 -221.23904 
L 172.333496 -222.441076 
L 172.049726 -223.643112 
L 171.772283 -224.845148 
L 171.508222 -226.047183 
L 171.253811 -227.249219 
L 170.995356 -228.451255 
L 170.713422 -229.65329 
L 170.388761 -230.855326 
L 170.007884 -232.057362 
L 169.566406 -233.259397 
L 169.068902 -234.461433 
L 168.525227 -235.663469 
L 167.944867 -236.865505 
L 167.331945 -238.06754 
L 166.683165 -239.269576 
L 165.989108 -240.471612 
L 165.237335 -241.673647 
L 164.415171 -242.875683 
L 163.511333 -244.077719 
L 162.517351 -245.279755 
L 161.430159 -246.48179 
L 160.255771 -247.683826 
L 159.012032 -248.885862 
L 157.728156 -250.087897 
L 156.440834 -251.289933 
L 155.189224 -252.491969 
L 154.011637 -253.694005 
L 152.944234 -254.89604 
L 152.018831 -256.098076 
L 151.256258 -257.300112 
L 150.65529 -258.502147 
L 150.182531 -259.704183 
L 149.771466 -260.906219 
L 149.336129 -262.108255 
L 148.797228 -263.31029 
L 148.110637 -264.512326 
L 147.285057 -265.714362 
L 146.379861 -266.916397 
L 145.4839 -268.118433 
L 144.685762 -269.320469 
L 144.049724 -270.522504 
L 143.607187 -271.72454 
L 143.363676 -272.926576 
L 143.313099 -274.128612 
L 143.449118 -275.330647 
L 143.768488 -276.532683 
L 144.268489 -277.734719 
L 144.944426 -278.936754 
L 145.791216 -280.13879 
L 146.807819 -281.340826 
L 147.999436 -282.542862 
L 149.373378 -283.744897 
L 150.929252 -284.946933 
L 152.648789 -286.148969 
L 154.49165 -287.351004 
L 156.400183 -288.55304 
L 158.310982 -289.755076 
L 160.167575 -290.957112 
L 161.928645 -292.159147 
L 163.569373 -293.361183 
L 165.077496 -294.563219 
L 166.447933 -295.765254 
L 167.679355 -296.96729 
L 168.773612 -298.169326 
L 169.736526 -299.371361 
L 170.577917 -300.573397 
L 171.30988 -301.775433 
L 171.944089 -302.977469 
L 172.489783 -304.179504 
L 172.953502 -305.38154 
L 173.340396 -306.583576 
L 173.655966 -307.785611 
L 173.907106 -308.987647 
L 174.102051 -310.189683 
L 174.249609 -311.391719 
L 174.358308 -312.593754 
L 174.435892 -313.79579 
L 174.48919 -314.997826 
L 174.524161 -316.199861 
L 174.545912 -317.401897 
L 174.598418 -317.401897 
L 174.598418 -317.401897 
L 174.620169 -316.199861 
L 174.65514 -314.997826 
L 174.708438 -313.79579 
L 174.786022 -312.593754 
L 174.894721 -311.391719 
L 175.042279 -310.189683 
L 175.237224 -308.987647 
L 175.488364 -307.785611 
L 175.803934 -306.583576 
L 176.190828 -305.38154 
L 176.654546 -304.179504 
L 177.20024 -302.977469 
L 177.83445 -301.775433 
L 178.566412 -300.573397 
L 179.407803 -299.371361 
L 180.370717 -298.169326 
L 181.464975 -296.96729 
L 182.696397 -295.765254 
L 184.066834 -294.563219 
L 185.574957 -293.361183 
L 187.215685 -292.159147 
L 188.976755 -290.957112 
L 190.833348 -289.755076 
L 192.744147 -288.55304 
L 194.65268 -287.351004 
L 196.495541 -286.148969 
L 198.215078 -284.946933 
L 199.770951 -283.744897 
L 201.144894 -282.542862 
L 202.33651 -281.340826 
L 203.353113 -280.13879 
L 204.199904 -278.936754 
L 204.87584 -277.734719 
L 205.375842 -276.532683 
L 205.695211 -275.330647 
L 205.83123 -274.128612 
L 205.780654 -272.926576 
L 205.537143 -271.72454 
L 205.094606 -270.522504 
L 204.458567 -269.320469 
L 203.660429 -268.118433 
L 202.764469 -266.916397 
L 201.859273 -265.714362 
L 201.033693 -264.512326 
L 200.347102 -263.31029 
L 199.8082 -262.108255 
L 199.372864 -260.906219 
L 198.961799 -259.704183 
L 198.48904 -258.502147 
L 197.888072 -257.300112 
L 197.125498 -256.098076 
L 196.200095 -254.89604 
L 195.132693 -253.694005 
L 193.955105 -252.491969 
L 192.703495 -251.289933 
L 191.416174 -250.087897 
L 190.132298 -248.885862 
L 188.888559 -247.683826 
L 187.714171 -246.48179 
L 186.626978 -245.279755 
L 185.632996 -244.077719 
L 184.729159 -242.875683 
L 183.906994 -241.673647 
L 183.155221 -240.471612 
L 182.461164 -239.269576 
L 181.812384 -238.06754 
L 181.199463 -236.865505 
L 180.619102 -235.663469 
L 180.075428 -234.461433 
L 179.577923 -233.259397 
L 179.136446 -232.057362 
L 178.755569 -230.855326 
L 178.430908 -229.65329 
L 178.148974 -228.451255 
L 177.890518 -227.249219 
L 177.636108 -226.047183 
L 177.372047 -224.845148 
L 177.094604 -223.643112 
L 176.810834 -222.441076 
L 176.535348 -221.23904 
L 176.284122 -220.037005 
L 176.067977 -218.834969 
L 175.888766 -217.632933 
L 175.739932 -216.430898 
L 175.610765 -215.228862 
L 175.491732 -214.026826 
L 175.37798 -212.82479 
L 175.269523 -211.622755 
L 175.168814 -210.420719 
L 175.077774 -209.218683 
L 174.996226 -208.016648 
L 174.922323 -206.814612 
L 174.854161 -205.612576 
L 174.791183 -204.41054 
L 174.73446 -203.208505 
L 174.685895 -202.006469 
L 174.647037 -200.804433 
L 174.618257 -199.602398 
L 174.598616 -198.400362 
z
" style="stroke: #3f3f3f; stroke-width: 1.25"/>
    </defs>
    <g clip-path="url(#pc5f912fd6b)">
     <use xlink:href="#m268c34ec84" x="0" y="345.6" style="fill: #3274a1; stroke: #3f3f3f; stroke-width: 1.25"/>
    </g>
   </g>
   <g id="PolyCollection_3">
    <defs>
     <path id="md9b080e4b0" d="M 252.732241 -127.210573 
L 252.707416 -127.210573 
L 252.697129 -129.152039 
L 252.68257 -131.093504 
L 252.66493 -133.034969 
L 252.647196 -134.976434 
L 252.633469 -136.9179 
L 252.627333 -138.859365 
L 252.629996 -140.80083 
L 252.63929 -142.742296 
L 252.650158 -144.683761 
L 252.656419 -146.625226 
L 252.65298 -148.566691 
L 252.637626 -150.508157 
L 252.611847 -152.449622 
L 252.580312 -154.391087 
L 252.548822 -156.332553 
L 252.521055 -158.274018 
L 252.495428 -160.215483 
L 252.463972 -162.156948 
L 252.414656 -164.098414 
L 252.336738 -166.039879 
L 252.226503 -167.981344 
L 252.089928 -169.92281 
L 251.940231 -171.864275 
L 251.791351 -173.80574 
L 251.650973 -175.747205 
L 251.516731 -177.688671 
L 251.376854 -179.630136 
L 251.213788 -181.571601 
L 251.008381 -183.513067 
L 250.743272 -185.454532 
L 250.405525 -187.395997 
L 249.988779 -189.337462 
L 249.494727 -191.278928 
L 248.933449 -193.220393 
L 248.322374 -195.161858 
L 247.683282 -197.103324 
L 247.036255 -199.044789 
L 246.390479 -200.986254 
L 245.73498 -202.927719 
L 245.035469 -204.869185 
L 244.242584 -206.81065 
L 243.311311 -208.752115 
L 242.223986 -210.693581 
L 241.005283 -212.635046 
L 239.720385 -214.576511 
L 238.456264 -216.517976 
L 237.294843 -218.459442 
L 236.289443 -220.400907 
L 235.451553 -222.342372 
L 234.749422 -224.283838 
L 234.118636 -226.225303 
L 233.485463 -228.166768 
L 232.800142 -230.108233 
L 232.068308 -232.049699 
L 231.362642 -233.991164 
L 230.802849 -235.932629 
L 230.509239 -237.874094 
L 230.551349 -239.81556 
L 230.916311 -241.757025 
L 231.51064 -243.69849 
L 232.19275 -245.639956 
L 232.82128 -247.581421 
L 233.300348 -249.522886 
L 233.606354 -251.464351 
L 233.789254 -253.405817 
L 233.951181 -255.347282 
L 234.212655 -257.288747 
L 234.678378 -259.230213 
L 235.411275 -261.171678 
L 236.418954 -263.113143 
L 237.654406 -265.054608 
L 239.031583 -266.996074 
L 240.452714 -268.937539 
L 241.837934 -270.879004 
L 243.144238 -272.82047 
L 244.365279 -274.761935 
L 245.514643 -276.7034 
L 246.604777 -278.644865 
L 247.6343 -280.586331 
L 248.588278 -282.527796 
L 249.446624 -284.469261 
L 250.192472 -286.410727 
L 250.816146 -288.352192 
L 251.315693 -290.293657 
L 251.696682 -292.235122 
L 251.971962 -294.176588 
L 252.16015 -296.118053 
L 252.282289 -298.059518 
L 252.358175 -300.000984 
L 252.404388 -301.942449 
L 252.43442 -303.883914 
L 252.459349 -305.825379 
L 252.487415 -307.766845 
L 252.522618 -309.70831 
L 252.56397 -311.649775 
L 252.606715 -313.591241 
L 252.645121 -315.532706 
L 252.675173 -317.474171 
L 252.695751 -319.415636 
L 252.743905 -319.415636 
L 252.743905 -319.415636 
L 252.764484 -317.474171 
L 252.794536 -315.532706 
L 252.832941 -313.591241 
L 252.875686 -311.649775 
L 252.917038 -309.70831 
L 252.952242 -307.766845 
L 252.980308 -305.825379 
L 253.005237 -303.883914 
L 253.035269 -301.942449 
L 253.081482 -300.000984 
L 253.157368 -298.059518 
L 253.279506 -296.118053 
L 253.467694 -294.176588 
L 253.742975 -292.235122 
L 254.123964 -290.293657 
L 254.623511 -288.352192 
L 255.247184 -286.410727 
L 255.993032 -284.469261 
L 256.851378 -282.527796 
L 257.805357 -280.586331 
L 258.834879 -278.644865 
L 259.925014 -276.7034 
L 261.074378 -274.761935 
L 262.295418 -272.82047 
L 263.601723 -270.879004 
L 264.986943 -268.937539 
L 266.408073 -266.996074 
L 267.785251 -265.054608 
L 269.020703 -263.113143 
L 270.028381 -261.171678 
L 270.761279 -259.230213 
L 271.227001 -257.288747 
L 271.488475 -255.347282 
L 271.650403 -253.405817 
L 271.833302 -251.464351 
L 272.139308 -249.522886 
L 272.618377 -247.581421 
L 273.246906 -245.639956 
L 273.929017 -243.69849 
L 274.523346 -241.757025 
L 274.888308 -239.81556 
L 274.930418 -237.874094 
L 274.636807 -235.932629 
L 274.077015 -233.991164 
L 273.371348 -232.049699 
L 272.639514 -230.108233 
L 271.954193 -228.166768 
L 271.32102 -226.225303 
L 270.690235 -224.283838 
L 269.988104 -222.342372 
L 269.150213 -220.400907 
L 268.144814 -218.459442 
L 266.983392 -216.517976 
L 265.719271 -214.576511 
L 264.434374 -212.635046 
L 263.21567 -210.693581 
L 262.128345 -208.752115 
L 261.197072 -206.81065 
L 260.404187 -204.869185 
L 259.704676 -202.927719 
L 259.049178 -200.986254 
L 258.403401 -199.044789 
L 257.756375 -197.103324 
L 257.117282 -195.161858 
L 256.506207 -193.220393 
L 255.944929 -191.278928 
L 255.450877 -189.337462 
L 255.034132 -187.395997 
L 254.696384 -185.454532 
L 254.431276 -183.513067 
L 254.225868 -181.571601 
L 254.062802 -179.630136 
L 253.922925 -177.688671 
L 253.788683 -175.747205 
L 253.648305 -173.80574 
L 253.499425 -171.864275 
L 253.349728 -169.92281 
L 253.213154 -167.981344 
L 253.102919 -166.039879 
L 253.025 -164.098414 
L 252.975685 -162.156948 
L 252.944229 -160.215483 
L 252.918602 -158.274018 
L 252.890835 -156.332553 
L 252.859344 -154.391087 
L 252.82781 -152.449622 
L 252.80203 -150.508157 
L 252.786676 -148.566691 
L 252.783237 -146.625226 
L 252.789499 -144.683761 
L 252.800366 -142.742296 
L 252.80966 -140.80083 
L 252.812324 -138.859365 
L 252.806187 -136.9179 
L 252.792461 -134.976434 
L 252.774726 -133.034969 
L 252.757087 -131.093504 
L 252.742527 -129.152039 
L 252.732241 -127.210573 
z
" style="stroke: #3f3f3f; stroke-width: 1.25"/>
    </defs>
    <g clip-path="url(#pc5f912fd6b)">
     <use xlink:href="#md9b080e4b0" x="0" y="345.6" style="fill: #3274a1; stroke: #3f3f3f; stroke-width: 1.25"/>
    </g>
   </g>
   <g id="PolyCollection_4">
    <defs>
     <path id="m488163742a" d="M 330.883058 -161.74318 
L 330.851925 -161.74318 
L 330.83968 -163.226563 
L 330.821997 -164.709947 
L 330.799153 -166.19333 
L 330.772837 -167.676713 
L 330.745948 -169.160096 
L 330.72184 -170.64348 
L 330.703399 -172.126863 
L 330.692446 -173.610246 
L 330.689628 -175.093629 
L 330.694498 -176.577013 
L 330.705334 -178.060396 
L 330.718628 -179.543779 
L 330.728698 -181.027163 
L 330.728038 -182.510546 
L 330.708604 -183.993929 
L 330.663604 -185.477312 
L 330.589094 -186.960696 
L 330.484894 -188.444079 
L 330.354961 -189.927462 
L 330.207594 -191.410846 
L 330.055475 -192.894229 
L 329.914646 -194.377612 
L 329.801171 -195.860995 
L 329.72526 -197.344379 
L 329.684957 -198.827762 
L 329.663169 -200.311145 
L 329.631055 -201.794528 
L 329.557354 -203.277912 
L 329.419301 -204.761295 
L 329.209375 -206.244678 
L 328.934349 -207.728062 
L 328.607669 -209.211445 
L 328.239854 -210.694828 
L 327.832308 -212.178211 
L 327.377396 -213.661595 
L 326.863897 -215.144978 
L 326.28407 -216.628361 
L 325.638018 -218.111744 
L 324.93267 -219.595128 
L 324.175815 -221.078511 
L 323.368719 -222.561894 
L 322.502141 -224.045278 
L 321.559008 -225.528661 
L 320.523056 -227.012044 
L 319.388938 -228.495427 
L 318.168134 -229.978811 
L 316.887293 -231.462194 
L 315.579891 -232.945577 
L 314.27594 -234.42896 
L 312.995852 -235.912344 
L 311.752266 -237.395727 
L 310.558299 -238.87911 
L 309.435434 -240.362494 
L 308.413514 -241.845877 
L 307.520991 -243.32926 
L 306.77181 -244.812643 
L 306.159094 -246.296027 
L 305.6611 -247.77941 
L 305.255391 -249.262793 
L 304.930817 -250.746176 
L 304.68884 -252.22956 
L 304.534067 -253.712943 
L 304.462009 -255.196326 
L 304.454268 -256.67971 
L 304.486448 -258.163093 
L 304.545346 -259.646476 
L 304.645191 -261.129859 
L 304.832347 -262.613243 
L 305.174311 -264.096626 
L 305.737576 -265.580009 
L 306.564189 -267.063392 
L 307.656364 -268.546776 
L 308.974221 -270.030159 
L 310.44691 -271.513542 
L 311.993092 -272.996926 
L 313.543213 -274.480309 
L 315.054502 -275.963692 
L 316.512661 -277.447075 
L 317.921263 -278.930459 
L 319.286591 -280.413842 
L 320.606872 -281.897225 
L 321.870173 -283.380609 
L 323.059091 -284.863992 
L 324.157428 -286.347375 
L 325.155075 -287.830758 
L 326.049864 -289.314142 
L 326.846698 -290.797525 
L 327.554724 -292.280908 
L 328.183572 -293.764291 
L 328.740115 -295.247675 
L 329.227105 -296.731058 
L 329.644129 -298.214441 
L 329.990051 -299.697825 
L 330.265555 -301.181208 
L 330.474669 -302.664591 
L 330.624945 -304.147974 
L 330.726562 -305.631358 
L 330.790835 -307.114741 
L 330.828647 -308.598124 
L 330.906336 -308.598124 
L 330.906336 -308.598124 
L 330.944148 -307.114741 
L 331.008421 -305.631358 
L 331.110039 -304.147974 
L 331.260315 -302.664591 
L 331.469428 -301.181208 
L 331.744933 -299.697825 
L 332.090855 -298.214441 
L 332.507878 -296.731058 
L 332.994868 -295.247675 
L 333.551411 -293.764291 
L 334.180259 -292.280908 
L 334.888285 -290.797525 
L 335.68512 -289.314142 
L 336.579908 -287.830758 
L 337.577555 -286.347375 
L 338.675892 -284.863992 
L 339.864811 -283.380609 
L 341.128111 -281.897225 
L 342.448393 -280.413842 
L 343.813721 -278.930459 
L 345.222322 -277.447075 
L 346.680481 -275.963692 
L 348.19177 -274.480309 
L 349.741891 -272.996926 
L 351.288074 -271.513542 
L 352.760762 -270.030159 
L 354.078619 -268.546776 
L 355.170794 -267.063392 
L 355.997407 -265.580009 
L 356.560672 -264.096626 
L 356.902637 -262.613243 
L 357.089793 -261.129859 
L 357.189638 -259.646476 
L 357.248535 -258.163093 
L 357.280715 -256.67971 
L 357.272975 -255.196326 
L 357.200916 -253.712943 
L 357.046143 -252.22956 
L 356.804166 -250.746176 
L 356.479592 -249.262793 
L 356.073883 -247.77941 
L 355.575889 -246.296027 
L 354.963174 -244.812643 
L 354.213993 -243.32926 
L 353.321469 -241.845877 
L 352.29955 -240.362494 
L 351.176684 -238.87911 
L 349.982717 -237.395727 
L 348.739132 -235.912344 
L 347.459044 -234.42896 
L 346.155093 -232.945577 
L 344.84769 -231.462194 
L 343.56685 -229.978811 
L 342.346045 -228.495427 
L 341.211927 -227.012044 
L 340.175976 -225.528661 
L 339.232843 -224.045278 
L 338.366265 -222.561894 
L 337.559169 -221.078511 
L 336.802314 -219.595128 
L 336.096965 -218.111744 
L 335.450914 -216.628361 
L 334.871087 -215.144978 
L 334.357587 -213.661595 
L 333.902676 -212.178211 
L 333.495129 -210.694828 
L 333.127315 -209.211445 
L 332.800634 -207.728062 
L 332.525608 -206.244678 
L 332.315682 -204.761295 
L 332.17763 -203.277912 
L 332.103928 -201.794528 
L 332.071815 -200.311145 
L 332.050027 -198.827762 
L 332.009723 -197.344379 
L 331.933812 -195.860995 
L 331.820337 -194.377612 
L 331.679509 -192.894229 
L 331.527389 -191.410846 
L 331.380022 -189.927462 
L 331.250089 -188.444079 
L 331.145889 -186.960696 
L 331.071379 -185.477312 
L 331.02638 -183.993929 
L 331.006945 -182.510546 
L 331.006285 -181.027163 
L 331.016355 -179.543779 
L 331.029649 -178.060396 
L 331.040485 -176.577013 
L 331.045356 -175.093629 
L 331.042538 -173.610246 
L 331.031585 -172.126863 
L 331.013144 -170.64348 
L 330.989035 -169.160096 
L 330.962146 -167.676713 
L 330.93583 -166.19333 
L 330.912986 -164.709947 
L 330.895303 -163.226563 
L 330.883058 -161.74318 
z
" style="stroke: #3f3f3f; stroke-width: 1.25"/>
    </defs>
    <g clip-path="url(#pc5f912fd6b)">
     <use xlink:href="#m488163742a" x="0" y="345.6" style="fill: #3274a1; stroke: #3f3f3f; stroke-width: 1.25"/>
    </g>
   </g>
   <g id="PolyCollection_5">
    <defs>
     <path id="m4f196b7b88" d="M 409.026979 -54.928364 
L 409.003331 -54.928364 
L 408.993083 -57.037316 
L 408.97826 -59.146268 
L 408.959759 -61.25522 
L 408.940041 -63.364172 
L 408.922355 -65.473125 
L 408.909253 -67.582077 
L 408.901439 -69.691029 
L 408.897894 -71.799981 
L 408.897211 -73.908933 
L 408.898846 -76.017885 
L 408.903047 -78.126838 
L 408.909508 -80.23579 
L 408.916171 -82.344742 
L 408.919513 -84.453694 
L 408.9163 -86.562646 
L 408.905348 -88.671598 
L 408.887813 -90.780551 
L 408.865743 -92.889503 
L 408.839942 -94.998455 
L 408.808575 -97.107407 
L 408.76725 -99.216359 
L 408.710424 -101.325312 
L 408.633545 -103.434264 
L 408.535182 -105.543216 
L 408.418229 -107.652168 
L 408.28902 -109.76112 
L 408.153558 -111.870072 
L 408.011475 -113.979025 
L 407.850476 -116.087977 
L 407.645342 -118.196929 
L 407.364341 -120.305881 
L 406.981702 -122.414833 
L 406.489971 -124.523785 
L 405.904517 -126.632738 
L 405.256553 -128.74169 
L 404.578648 -130.850642 
L 403.891926 -132.959594 
L 403.202224 -135.068546 
L 402.504746 -137.177499 
L 401.790614 -139.286451 
L 401.050046 -141.395403 
L 400.273011 -143.504355 
L 399.451079 -145.613307 
L 398.580341 -147.722259 
L 397.660834 -149.831212 
L 396.690638 -151.940164 
L 395.661069 -154.049116 
L 394.562514 -156.158068 
L 393.402152 -158.26702 
L 392.221779 -160.375973 
L 391.099736 -162.484925 
L 390.130633 -164.593877 
L 389.391723 -166.702829 
L 388.913404 -168.811781 
L 388.668336 -170.920733 
L 388.58302 -173.029686 
L 388.565089 -175.138638 
L 388.534671 -177.24759 
L 388.449415 -179.356542 
L 388.316579 -181.465494 
L 388.189287 -183.574446 
L 388.148492 -185.683399 
L 388.277474 -187.792351 
L 388.63872 -189.901303 
L 389.260532 -192.010255 
L 390.135112 -194.119207 
L 391.226032 -196.22816 
L 392.481928 -198.337112 
L 393.85193 -200.446064 
L 395.296063 -202.555016 
L 396.784572 -204.663968 
L 398.286671 -206.77292 
L 399.75753 -208.881873 
L 401.135022 -210.990825 
L 402.351571 -213.099777 
L 403.355973 -215.208729 
L 404.133164 -217.317681 
L 404.71086 -219.426633 
L 405.14923 -221.535586 
L 405.518491 -223.644538 
L 405.874933 -225.75349 
L 406.245942 -227.862442 
L 406.629179 -229.971394 
L 407.003578 -232.080347 
L 407.344727 -234.189299 
L 407.637014 -236.298251 
L 407.878382 -238.407203 
L 408.077685 -240.516155 
L 408.247726 -242.625107 
L 408.398393 -244.73406 
L 408.533472 -246.843012 
L 408.65192 -248.951964 
L 408.751403 -251.060916 
L 408.831067 -253.169868 
L 408.89214 -255.278821 
L 408.937071 -257.387773 
L 408.968594 -259.496725 
L 408.989388 -261.605677 
L 409.002066 -263.714629 
L 409.028245 -263.714629 
L 409.028245 -263.714629 
L 409.040923 -261.605677 
L 409.061716 -259.496725 
L 409.093239 -257.387773 
L 409.13817 -255.278821 
L 409.199244 -253.169868 
L 409.278907 -251.060916 
L 409.37839 -248.951964 
L 409.496839 -246.843012 
L 409.631917 -244.73406 
L 409.782584 -242.625107 
L 409.952625 -240.516155 
L 410.151928 -238.407203 
L 410.393296 -236.298251 
L 410.685583 -234.189299 
L 411.026732 -232.080347 
L 411.401131 -229.971394 
L 411.784368 -227.862442 
L 412.155377 -225.75349 
L 412.511819 -223.644538 
L 412.88108 -221.535586 
L 413.319451 -219.426633 
L 413.897147 -217.317681 
L 414.674338 -215.208729 
L 415.678739 -213.099777 
L 416.895289 -210.990825 
L 418.272781 -208.881873 
L 419.743639 -206.77292 
L 421.245738 -204.663968 
L 422.734248 -202.555016 
L 424.17838 -200.446064 
L 425.548383 -198.337112 
L 426.804278 -196.22816 
L 427.895198 -194.119207 
L 428.769778 -192.010255 
L 429.39159 -189.901303 
L 429.752836 -187.792351 
L 429.881818 -185.683399 
L 429.841023 -183.574446 
L 429.713731 -181.465494 
L 429.580895 -179.356542 
L 429.495639 -177.24759 
L 429.465221 -175.138638 
L 429.44729 -173.029686 
L 429.361975 -170.920733 
L 429.116906 -168.811781 
L 428.638587 -166.702829 
L 427.899677 -164.593877 
L 426.930574 -162.484925 
L 425.808531 -160.375973 
L 424.628158 -158.26702 
L 423.467796 -156.158068 
L 422.369241 -154.049116 
L 421.339672 -151.940164 
L 420.369476 -149.831212 
L 419.449969 -147.722259 
L 418.579232 -145.613307 
L 417.7573 -143.504355 
L 416.980264 -141.395403 
L 416.239696 -139.286451 
L 415.525564 -137.177499 
L 414.828086 -135.068546 
L 414.138385 -132.959594 
L 413.451662 -130.850642 
L 412.773757 -128.74169 
L 412.125794 -126.632738 
L 411.54034 -124.523785 
L 411.048608 -122.414833 
L 410.665969 -120.305881 
L 410.384968 -118.196929 
L 410.179835 -116.087977 
L 410.018836 -113.979025 
L 409.876752 -111.870072 
L 409.74129 -109.76112 
L 409.612082 -107.652168 
L 409.495129 -105.543216 
L 409.396765 -103.434264 
L 409.319886 -101.325312 
L 409.263061 -99.216359 
L 409.221735 -97.107407 
L 409.190368 -94.998455 
L 409.164567 -92.889503 
L 409.142497 -90.780551 
L 409.124962 -88.671598 
L 409.11401 -86.562646 
L 409.110797 -84.453694 
L 409.11414 -82.344742 
L 409.120802 -80.23579 
L 409.127263 -78.126838 
L 409.131464 -76.017885 
L 409.133099 -73.908933 
L 409.132416 -71.799981 
L 409.128872 -69.691029 
L 409.121057 -67.582077 
L 409.107956 -65.473125 
L 409.090269 -63.364172 
L 409.070551 -61.25522 
L 409.05205 -59.146268 
L 409.037227 -57.037316 
L 409.026979 -54.928364 
z
" style="stroke: #3f3f3f; stroke-width: 1.25"/>
    </defs>
    <g clip-path="url(#pc5f912fd6b)">
     <use xlink:href="#m4f196b7b88" x="0" y="345.6" style="fill: #3274a1; stroke: #3f3f3f; stroke-width: 1.25"/>
    </g>
   </g>
   <g id="matplotlib.axis_1">
    <g id="xtick_1">
     <g id="line2d_1">
      <defs>
       <path id="m26fbb0a09f" d="M 0 0 
L 0 3.5 
" style="stroke: #000000; stroke-width: 0.8"/>
      </defs>
      <g>
       <use xlink:href="#m26fbb0a09f" x="96.424501" y="303.896" style="stroke: #000000; stroke-width: 0.8"/>
      </g>
     </g>
     <g id="text_1">
      <!-- Fluency -->
      <g transform="translate(77.037001 318.494438) scale(0.1 -0.1)">
       <defs>
        <path id="DejaVuSans-46" d="M 628 4666 
L 3309 4666 
L 3309 4134 
L 1259 4134 
L 1259 2759 
L 3109 2759 
L 3109 2228 
L 1259 2228 
L 1259 0 
L 628 0 
L 628 4666 
z
" transform="scale(0.015625)"/>
        <path id="DejaVuSans-6c" d="M 603 4863 
L 1178 4863 
L 1178 0 
L 603 0 
L 603 4863 
z
" transform="scale(0.015625)"/>
        <path id="DejaVuSans-75" d="M 544 1381 
L 544 3500 
L 1119 3500 
L 1119 1403 
Q 1119 906 1312 657 
Q 1506 409 1894 409 
Q 2359 409 2629 706 
Q 2900 1003 2900 1516 
L 2900 3500 
L 3475 3500 
L 3475 0 
L 2900 0 
L 2900 538 
Q 2691 219 2414 64 
Q 2138 -91 1772 -91 
Q 1169 -91 856 284 
Q 544 659 544 1381 
z
M 1991 3584 
L 1991 3584 
z
" transform="scale(0.015625)"/>
        <path id="DejaVuSans-65" d="M 3597 1894 
L 3597 1613 
L 953 1613 
Q 991 1019 1311 708 
Q 1631 397 2203 397 
Q 2534 397 2845 478 
Q 3156 559 3463 722 
L 3463 178 
Q 3153 47 2828 -22 
Q 2503 -91 2169 -91 
Q 1331 -91 842 396 
Q 353 884 353 1716 
Q 353 2575 817 3079 
Q 1281 3584 2069 3584 
Q 2775 3584 3186 3129 
Q 3597 2675 3597 1894 
z
M 3022 2063 
Q 3016 2534 2758 2815 
Q 2500 3097 2075 3097 
Q 1594 3097 1305 2825 
Q 1016 2553 972 2059 
L 3022 2063 
z
" transform="scale(0.015625)"/>
        <path id="DejaVuSans-6e" d="M 3513 2113 
L 3513 0 
L 2938 0 
L 2938 2094 
Q 2938 2591 2744 2837 
Q 2550 3084 2163 3084 
Q 1697 3084 1428 2787 
Q 1159 2491 1159 1978 
L 1159 0 
L 581 0 
L 581 3500 
L 1159 3500 
L 1159 2956 
Q 1366 3272 1645 3428 
Q 1925 3584 2291 3584 
Q 2894 3584 3203 3211 
Q 3513 2838 3513 2113 
z
" transform="scale(0.015625)"/>
        <path id="DejaVuSans-63" d="M 3122 3366 
L 3122 2828 
Q 2878 2963 2633 3030 
Q 2388 3097 2138 3097 
Q 1578 3097 1268 2742 
Q 959 2388 959 1747 
Q 959 1106 1268 751 
Q 1578 397 2138 397 
Q 2388 397 2633 464 
Q 2878 531 3122 666 
L 3122 134 
Q 2881 22 2623 -34 
Q 2366 -91 2075 -91 
Q 1284 -91 818 406 
Q 353 903 353 1747 
Q 353 2603 823 3093 
Q 1294 3584 2113 3584 
Q 2378 3584 2631 3529 
Q 2884 3475 3122 3366 
z
" transform="scale(0.015625)"/>
        <path id="DejaVuSans-79" d="M 2059 -325 
Q 1816 -950 1584 -1140 
Q 1353 -1331 966 -1331 
L 506 -1331 
L 506 -850 
L 844 -850 
Q 1081 -850 1212 -737 
Q 1344 -625 1503 -206 
L 1606 56 
L 191 3500 
L 800 3500 
L 1894 763 
L 2988 3500 
L 3597 3500 
L 2059 -325 
z
" transform="scale(0.015625)"/>
       </defs>
       <use xlink:href="#DejaVuSans-46"/>
       <use xlink:href="#DejaVuSans-6c" x="57.519531"/>
       <use xlink:href="#DejaVuSans-75" x="85.302734"/>
       <use xlink:href="#DejaVuSans-65" x="148.681641"/>
       <use xlink:href="#DejaVuSans-6e" x="210.205078"/>
       <use xlink:href="#DejaVuSans-63" x="273.583984"/>
       <use xlink:href="#DejaVuSans-79" x="328.564453"/>
      </g>
      <!--  classifier -->
      <g transform="translate(72.753408 329.69225) scale(0.1 -0.1)">
       <defs>
        <path id="DejaVuSans-20" transform="scale(0.015625)"/>
        <path id="DejaVuSans-61" d="M 2194 1759 
Q 1497 1759 1228 1600 
Q 959 1441 959 1056 
Q 959 750 1161 570 
Q 1363 391 1709 391 
Q 2188 391 2477 730 
Q 2766 1069 2766 1631 
L 2766 1759 
L 2194 1759 
z
M 3341 1997 
L 3341 0 
L 2766 0 
L 2766 531 
Q 2569 213 2275 61 
Q 1981 -91 1556 -91 
Q 1019 -91 701 211 
Q 384 513 384 1019 
Q 384 1609 779 1909 
Q 1175 2209 1959 2209 
L 2766 2209 
L 2766 2266 
Q 2766 2663 2505 2880 
Q 2244 3097 1772 3097 
Q 1472 3097 1187 3025 
Q 903 2953 641 2809 
L 641 3341 
Q 956 3463 1253 3523 
Q 1550 3584 1831 3584 
Q 2591 3584 2966 3190 
Q 3341 2797 3341 1997 
z
" transform="scale(0.015625)"/>
        <path id="DejaVuSans-73" d="M 2834 3397 
L 2834 2853 
Q 2591 2978 2328 3040 
Q 2066 3103 1784 3103 
Q 1356 3103 1142 2972 
Q 928 2841 928 2578 
Q 928 2378 1081 2264 
Q 1234 2150 1697 2047 
L 1894 2003 
Q 2506 1872 2764 1633 
Q 3022 1394 3022 966 
Q 3022 478 2636 193 
Q 2250 -91 1575 -91 
Q 1294 -91 989 -36 
Q 684 19 347 128 
L 347 722 
Q 666 556 975 473 
Q 1284 391 1588 391 
Q 1994 391 2212 530 
Q 2431 669 2431 922 
Q 2431 1156 2273 1281 
Q 2116 1406 1581 1522 
L 1381 1569 
Q 847 1681 609 1914 
Q 372 2147 372 2553 
Q 372 3047 722 3315 
Q 1072 3584 1716 3584 
Q 2034 3584 2315 3537 
Q 2597 3491 2834 3397 
z
" transform="scale(0.015625)"/>
        <path id="DejaVuSans-69" d="M 603 3500 
L 1178 3500 
L 1178 0 
L 603 0 
L 603 3500 
z
M 603 4863 
L 1178 4863 
L 1178 4134 
L 603 4134 
L 603 4863 
z
" transform="scale(0.015625)"/>
        <path id="DejaVuSans-66" d="M 2375 4863 
L 2375 4384 
L 1825 4384 
Q 1516 4384 1395 4259 
Q 1275 4134 1275 3809 
L 1275 3500 
L 2222 3500 
L 2222 3053 
L 1275 3053 
L 1275 0 
L 697 0 
L 697 3053 
L 147 3053 
L 147 3500 
L 697 3500 
L 697 3744 
Q 697 4328 969 4595 
Q 1241 4863 1831 4863 
L 2375 4863 
z
" transform="scale(0.015625)"/>
        <path id="DejaVuSans-72" d="M 2631 2963 
Q 2534 3019 2420 3045 
Q 2306 3072 2169 3072 
Q 1681 3072 1420 2755 
Q 1159 2438 1159 1844 
L 1159 0 
L 581 0 
L 581 3500 
L 1159 3500 
L 1159 2956 
Q 1341 3275 1631 3429 
Q 1922 3584 2338 3584 
Q 2397 3584 2469 3576 
Q 2541 3569 2628 3553 
L 2631 2963 
z
" transform="scale(0.015625)"/>
       </defs>
       <use xlink:href="#DejaVuSans-20"/>
       <use xlink:href="#DejaVuSans-63" x="31.787109"/>
       <use xlink:href="#DejaVuSans-6c" x="86.767578"/>
       <use xlink:href="#DejaVuSans-61" x="114.550781"/>
       <use xlink:href="#DejaVuSans-73" x="175.830078"/>
       <use xlink:href="#DejaVuSans-73" x="227.929688"/>
       <use xlink:href="#DejaVuSans-69" x="280.029297"/>
       <use xlink:href="#DejaVuSans-66" x="307.8125"/>
       <use xlink:href="#DejaVuSans-69" x="343.017578"/>
       <use xlink:href="#DejaVuSans-65" x="370.800781"/>
       <use xlink:href="#DejaVuSans-72" x="432.324219"/>
      </g>
     </g>
    </g>
    <g id="xtick_2">
     <g id="line2d_2">
      <g>
       <use xlink:href="#m26fbb0a09f" x="174.572165" y="303.896" style="stroke: #000000; stroke-width: 0.8"/>
      </g>
     </g>
     <g id="text_2">
      <!-- Screening -->
      <g transform="translate(149.651852 318.494438) scale(0.1 -0.1)">
       <defs>
        <path id="DejaVuSans-53" d="M 3425 4513 
L 3425 3897 
Q 3066 4069 2747 4153 
Q 2428 4238 2131 4238 
Q 1616 4238 1336 4038 
Q 1056 3838 1056 3469 
Q 1056 3159 1242 3001 
Q 1428 2844 1947 2747 
L 2328 2669 
Q 3034 2534 3370 2195 
Q 3706 1856 3706 1288 
Q 3706 609 3251 259 
Q 2797 -91 1919 -91 
Q 1588 -91 1214 -16 
Q 841 59 441 206 
L 441 856 
Q 825 641 1194 531 
Q 1563 422 1919 422 
Q 2459 422 2753 634 
Q 3047 847 3047 1241 
Q 3047 1584 2836 1778 
Q 2625 1972 2144 2069 
L 1759 2144 
Q 1053 2284 737 2584 
Q 422 2884 422 3419 
Q 422 4038 858 4394 
Q 1294 4750 2059 4750 
Q 2388 4750 2728 4690 
Q 3069 4631 3425 4513 
z
" transform="scale(0.015625)"/>
        <path id="DejaVuSans-67" d="M 2906 1791 
Q 2906 2416 2648 2759 
Q 2391 3103 1925 3103 
Q 1463 3103 1205 2759 
Q 947 2416 947 1791 
Q 947 1169 1205 825 
Q 1463 481 1925 481 
Q 2391 481 2648 825 
Q 2906 1169 2906 1791 
z
M 3481 434 
Q 3481 -459 3084 -895 
Q 2688 -1331 1869 -1331 
Q 1566 -1331 1297 -1286 
Q 1028 -1241 775 -1147 
L 775 -588 
Q 1028 -725 1275 -790 
Q 1522 -856 1778 -856 
Q 2344 -856 2625 -561 
Q 2906 -266 2906 331 
L 2906 616 
Q 2728 306 2450 153 
Q 2172 0 1784 0 
Q 1141 0 747 490 
Q 353 981 353 1791 
Q 353 2603 747 3093 
Q 1141 3584 1784 3584 
Q 2172 3584 2450 3431 
Q 2728 3278 2906 2969 
L 2906 3500 
L 3481 3500 
L 3481 434 
z
" transform="scale(0.015625)"/>
       </defs>
       <use xlink:href="#DejaVuSans-53"/>
       <use xlink:href="#DejaVuSans-63" x="63.476562"/>
       <use xlink:href="#DejaVuSans-72" x="118.457031"/>
       <use xlink:href="#DejaVuSans-65" x="157.320312"/>
       <use xlink:href="#DejaVuSans-65" x="218.84375"/>
       <use xlink:href="#DejaVuSans-6e" x="280.367188"/>
       <use xlink:href="#DejaVuSans-69" x="343.746094"/>
       <use xlink:href="#DejaVuSans-6e" x="371.529297"/>
       <use xlink:href="#DejaVuSans-67" x="434.908203"/>
      </g>
      <!--  classifier -->
      <g transform="translate(150.901071 329.69225) scale(0.1 -0.1)">
       <use xlink:href="#DejaVuSans-20"/>
       <use xlink:href="#DejaVuSans-63" x="31.787109"/>
       <use xlink:href="#DejaVuSans-6c" x="86.767578"/>
       <use xlink:href="#DejaVuSans-61" x="114.550781"/>
       <use xlink:href="#DejaVuSans-73" x="175.830078"/>
       <use xlink:href="#DejaVuSans-73" x="227.929688"/>
       <use xlink:href="#DejaVuSans-69" x="280.029297"/>
       <use xlink:href="#DejaVuSans-66" x="307.8125"/>
       <use xlink:href="#DejaVuSans-69" x="343.017578"/>
       <use xlink:href="#DejaVuSans-65" x="370.800781"/>
       <use xlink:href="#DejaVuSans-72" x="432.324219"/>
      </g>
     </g>
    </g>
    <g id="xtick_3">
     <g id="line2d_3">
      <g>
       <use xlink:href="#m26fbb0a09f" x="252.719828" y="303.896" style="stroke: #000000; stroke-width: 0.8"/>
      </g>
     </g>
     <g id="text_3">
      <!-- Executive -->
      <g transform="translate(228.377641 318.494438) scale(0.1 -0.1)">
       <defs>
        <path id="DejaVuSans-45" d="M 628 4666 
L 3578 4666 
L 3578 4134 
L 1259 4134 
L 1259 2753 
L 3481 2753 
L 3481 2222 
L 1259 2222 
L 1259 531 
L 3634 531 
L 3634 0 
L 628 0 
L 628 4666 
z
" transform="scale(0.015625)"/>
        <path id="DejaVuSans-78" d="M 3513 3500 
L 2247 1797 
L 3578 0 
L 2900 0 
L 1881 1375 
L 863 0 
L 184 0 
L 1544 1831 
L 300 3500 
L 978 3500 
L 1906 2253 
L 2834 3500 
L 3513 3500 
z
" transform="scale(0.015625)"/>
        <path id="DejaVuSans-74" d="M 1172 4494 
L 1172 3500 
L 2356 3500 
L 2356 3053 
L 1172 3053 
L 1172 1153 
Q 1172 725 1289 603 
Q 1406 481 1766 481 
L 2356 481 
L 2356 0 
L 1766 0 
Q 1100 0 847 248 
Q 594 497 594 1153 
L 594 3053 
L 172 3053 
L 172 3500 
L 594 3500 
L 594 4494 
L 1172 4494 
z
" transform="scale(0.015625)"/>
        <path id="DejaVuSans-76" d="M 191 3500 
L 800 3500 
L 1894 563 
L 2988 3500 
L 3597 3500 
L 2284 0 
L 1503 0 
L 191 3500 
z
" transform="scale(0.015625)"/>
       </defs>
       <use xlink:href="#DejaVuSans-45"/>
       <use xlink:href="#DejaVuSans-78" x="63.183594"/>
       <use xlink:href="#DejaVuSans-65" x="119.238281"/>
       <use xlink:href="#DejaVuSans-63" x="180.761719"/>
       <use xlink:href="#DejaVuSans-75" x="235.742188"/>
       <use xlink:href="#DejaVuSans-74" x="299.121094"/>
       <use xlink:href="#DejaVuSans-69" x="338.330078"/>
       <use xlink:href="#DejaVuSans-76" x="366.113281"/>
       <use xlink:href="#DejaVuSans-65" x="425.292969"/>
      </g>
      <!--  classifier -->
      <g transform="translate(229.048735 329.69225) scale(0.1 -0.1)">
       <use xlink:href="#DejaVuSans-20"/>
       <use xlink:href="#DejaVuSans-63" x="31.787109"/>
       <use xlink:href="#DejaVuSans-6c" x="86.767578"/>
       <use xlink:href="#DejaVuSans-61" x="114.550781"/>
       <use xlink:href="#DejaVuSans-73" x="175.830078"/>
       <use xlink:href="#DejaVuSans-73" x="227.929688"/>
       <use xlink:href="#DejaVuSans-69" x="280.029297"/>
       <use xlink:href="#DejaVuSans-66" x="307.8125"/>
       <use xlink:href="#DejaVuSans-69" x="343.017578"/>
       <use xlink:href="#DejaVuSans-65" x="370.800781"/>
       <use xlink:href="#DejaVuSans-72" x="432.324219"/>
      </g>
     </g>
    </g>
    <g id="xtick_4">
     <g id="line2d_4">
      <g>
       <use xlink:href="#m26fbb0a09f" x="330.867492" y="303.896" style="stroke: #000000; stroke-width: 0.8"/>
      </g>
     </g>
     <g id="text_4">
      <!-- Structural -->
      <g transform="translate(306.122179 318.494438) scale(0.1 -0.1)">
       <use xlink:href="#DejaVuSans-53"/>
       <use xlink:href="#DejaVuSans-74" x="63.476562"/>
       <use xlink:href="#DejaVuSans-72" x="102.685547"/>
       <use xlink:href="#DejaVuSans-75" x="143.798828"/>
       <use xlink:href="#DejaVuSans-63" x="207.177734"/>
       <use xlink:href="#DejaVuSans-74" x="262.158203"/>
       <use xlink:href="#DejaVuSans-75" x="301.367188"/>
       <use xlink:href="#DejaVuSans-72" x="364.746094"/>
       <use xlink:href="#DejaVuSans-61" x="405.859375"/>
       <use xlink:href="#DejaVuSans-6c" x="467.138672"/>
      </g>
      <!--  classifier -->
      <g transform="translate(307.196398 329.69225) scale(0.1 -0.1)">
       <use xlink:href="#DejaVuSans-20"/>
       <use xlink:href="#DejaVuSans-63" x="31.787109"/>
       <use xlink:href="#DejaVuSans-6c" x="86.767578"/>
       <use xlink:href="#DejaVuSans-61" x="114.550781"/>
       <use xlink:href="#DejaVuSans-73" x="175.830078"/>
       <use xlink:href="#DejaVuSans-73" x="227.929688"/>
       <use xlink:href="#DejaVuSans-69" x="280.029297"/>
       <use xlink:href="#DejaVuSans-66" x="307.8125"/>
       <use xlink:href="#DejaVuSans-69" x="343.017578"/>
       <use xlink:href="#DejaVuSans-65" x="370.800781"/>
       <use xlink:href="#DejaVuSans-72" x="432.324219"/>
      </g>
     </g>
    </g>
    <g id="xtick_5">
     <g id="line2d_5">
      <g>
       <use xlink:href="#m26fbb0a09f" x="409.015155" y="303.896" style="stroke: #000000; stroke-width: 0.8"/>
      </g>
     </g>
     <g id="text_5">
      <!-- Functional -->
      <g transform="translate(383.297186 318.494438) scale(0.1 -0.1)">
       <defs>
        <path id="DejaVuSans-6f" d="M 1959 3097 
Q 1497 3097 1228 2736 
Q 959 2375 959 1747 
Q 959 1119 1226 758 
Q 1494 397 1959 397 
Q 2419 397 2687 759 
Q 2956 1122 2956 1747 
Q 2956 2369 2687 2733 
Q 2419 3097 1959 3097 
z
M 1959 3584 
Q 2709 3584 3137 3096 
Q 3566 2609 3566 1747 
Q 3566 888 3137 398 
Q 2709 -91 1959 -91 
Q 1206 -91 779 398 
Q 353 888 353 1747 
Q 353 2609 779 3096 
Q 1206 3584 1959 3584 
z
" transform="scale(0.015625)"/>
       </defs>
       <use xlink:href="#DejaVuSans-46"/>
       <use xlink:href="#DejaVuSans-75" x="52.019531"/>
       <use xlink:href="#DejaVuSans-6e" x="115.398438"/>
       <use xlink:href="#DejaVuSans-63" x="178.777344"/>
       <use xlink:href="#DejaVuSans-74" x="233.757812"/>
       <use xlink:href="#DejaVuSans-69" x="272.966797"/>
       <use xlink:href="#DejaVuSans-6f" x="300.75"/>
       <use xlink:href="#DejaVuSans-6e" x="361.931641"/>
       <use xlink:href="#DejaVuSans-61" x="425.310547"/>
       <use xlink:href="#DejaVuSans-6c" x="486.589844"/>
      </g>
      <!--  classifier -->
      <g transform="translate(385.344061 329.69225) scale(0.1 -0.1)">
       <use xlink:href="#DejaVuSans-20"/>
       <use xlink:href="#DejaVuSans-63" x="31.787109"/>
       <use xlink:href="#DejaVuSans-6c" x="86.767578"/>
       <use xlink:href="#DejaVuSans-61" x="114.550781"/>
       <use xlink:href="#DejaVuSans-73" x="175.830078"/>
       <use xlink:href="#DejaVuSans-73" x="227.929688"/>
       <use xlink:href="#DejaVuSans-69" x="280.029297"/>
       <use xlink:href="#DejaVuSans-66" x="307.8125"/>
       <use xlink:href="#DejaVuSans-69" x="343.017578"/>
       <use xlink:href="#DejaVuSans-65" x="370.800781"/>
       <use xlink:href="#DejaVuSans-72" x="432.324219"/>
      </g>
     </g>
    </g>
   </g>
   <g id="matplotlib.axis_2">
    <g id="ytick_1">
     <g id="line2d_6">
      <defs>
       <path id="mcb593c1196" d="M 0 0 
L -3.5 0 
" style="stroke: #000000; stroke-width: 0.8"/>
      </defs>
      <g>
       <use xlink:href="#mcb593c1196" x="52.76" y="302.102672" style="stroke: #000000; stroke-width: 0.8"/>
      </g>
     </g>
     <g id="text_6">
      <!-- 0.2 -->
      <g transform="translate(29.856875 305.901891) scale(0.1 -0.1)">
       <defs>
        <path id="DejaVuSans-30" d="M 2034 4250 
Q 1547 4250 1301 3770 
Q 1056 3291 1056 2328 
Q 1056 1369 1301 889 
Q 1547 409 2034 409 
Q 2525 409 2770 889 
Q 3016 1369 3016 2328 
Q 3016 3291 2770 3770 
Q 2525 4250 2034 4250 
z
M 2034 4750 
Q 2819 4750 3233 4129 
Q 3647 3509 3647 2328 
Q 3647 1150 3233 529 
Q 2819 -91 2034 -91 
Q 1250 -91 836 529 
Q 422 1150 422 2328 
Q 422 3509 836 4129 
Q 1250 4750 2034 4750 
z
" transform="scale(0.015625)"/>
        <path id="DejaVuSans-2e" d="M 684 794 
L 1344 794 
L 1344 0 
L 684 0 
L 684 794 
z
" transform="scale(0.015625)"/>
        <path id="DejaVuSans-32" d="M 1228 531 
L 3431 531 
L 3431 0 
L 469 0 
L 469 531 
Q 828 903 1448 1529 
Q 2069 2156 2228 2338 
Q 2531 2678 2651 2914 
Q 2772 3150 2772 3378 
Q 2772 3750 2511 3984 
Q 2250 4219 1831 4219 
Q 1534 4219 1204 4116 
Q 875 4013 500 3803 
L 500 4441 
Q 881 4594 1212 4672 
Q 1544 4750 1819 4750 
Q 2544 4750 2975 4387 
Q 3406 4025 3406 3419 
Q 3406 3131 3298 2873 
Q 3191 2616 2906 2266 
Q 2828 2175 2409 1742 
Q 1991 1309 1228 531 
z
" transform="scale(0.015625)"/>
       </defs>
       <use xlink:href="#DejaVuSans-30"/>
       <use xlink:href="#DejaVuSans-2e" x="63.623047"/>
       <use xlink:href="#DejaVuSans-32" x="95.410156"/>
      </g>
     </g>
    </g>
    <g id="ytick_2">
     <g id="line2d_7">
      <g>
       <use xlink:href="#mcb593c1196" x="52.76" y="268.468352" style="stroke: #000000; stroke-width: 0.8"/>
      </g>
     </g>
     <g id="text_7">
      <!-- 0.3 -->
      <g transform="translate(29.856875 272.267571) scale(0.1 -0.1)">
       <defs>
        <path id="DejaVuSans-33" d="M 2597 2516 
Q 3050 2419 3304 2112 
Q 3559 1806 3559 1356 
Q 3559 666 3084 287 
Q 2609 -91 1734 -91 
Q 1441 -91 1130 -33 
Q 819 25 488 141 
L 488 750 
Q 750 597 1062 519 
Q 1375 441 1716 441 
Q 2309 441 2620 675 
Q 2931 909 2931 1356 
Q 2931 1769 2642 2001 
Q 2353 2234 1838 2234 
L 1294 2234 
L 1294 2753 
L 1863 2753 
Q 2328 2753 2575 2939 
Q 2822 3125 2822 3475 
Q 2822 3834 2567 4026 
Q 2313 4219 1838 4219 
Q 1578 4219 1281 4162 
Q 984 4106 628 3988 
L 628 4550 
Q 988 4650 1302 4700 
Q 1616 4750 1894 4750 
Q 2613 4750 3031 4423 
Q 3450 4097 3450 3541 
Q 3450 3153 3228 2886 
Q 3006 2619 2597 2516 
z
" transform="scale(0.015625)"/>
       </defs>
       <use xlink:href="#DejaVuSans-30"/>
       <use xlink:href="#DejaVuSans-2e" x="63.623047"/>
       <use xlink:href="#DejaVuSans-33" x="95.410156"/>
      </g>
     </g>
    </g>
    <g id="ytick_3">
     <g id="line2d_8">
      <g>
       <use xlink:href="#mcb593c1196" x="52.76" y="234.834032" style="stroke: #000000; stroke-width: 0.8"/>
      </g>
     </g>
     <g id="text_8">
      <!-- 0.4 -->
      <g transform="translate(29.856875 238.633251) scale(0.1 -0.1)">
       <defs>
        <path id="DejaVuSans-34" d="M 2419 4116 
L 825 1625 
L 2419 1625 
L 2419 4116 
z
M 2253 4666 
L 3047 4666 
L 3047 1625 
L 3713 1625 
L 3713 1100 
L 3047 1100 
L 3047 0 
L 2419 0 
L 2419 1100 
L 313 1100 
L 313 1709 
L 2253 4666 
z
" transform="scale(0.015625)"/>
       </defs>
       <use xlink:href="#DejaVuSans-30"/>
       <use xlink:href="#DejaVuSans-2e" x="63.623047"/>
       <use xlink:href="#DejaVuSans-34" x="95.410156"/>
      </g>
     </g>
    </g>
    <g id="ytick_4">
     <g id="line2d_9">
      <g>
       <use xlink:href="#mcb593c1196" x="52.76" y="201.199712" style="stroke: #000000; stroke-width: 0.8"/>
      </g>
     </g>
     <g id="text_9">
      <!-- 0.5 -->
      <g transform="translate(29.856875 204.998931) scale(0.1 -0.1)">
       <defs>
        <path id="DejaVuSans-35" d="M 691 4666 
L 3169 4666 
L 3169 4134 
L 1269 4134 
L 1269 2991 
Q 1406 3038 1543 3061 
Q 1681 3084 1819 3084 
Q 2600 3084 3056 2656 
Q 3513 2228 3513 1497 
Q 3513 744 3044 326 
Q 2575 -91 1722 -91 
Q 1428 -91 1123 -41 
Q 819 9 494 109 
L 494 744 
Q 775 591 1075 516 
Q 1375 441 1709 441 
Q 2250 441 2565 725 
Q 2881 1009 2881 1497 
Q 2881 1984 2565 2268 
Q 2250 2553 1709 2553 
Q 1456 2553 1204 2497 
Q 953 2441 691 2322 
L 691 4666 
z
" transform="scale(0.015625)"/>
       </defs>
       <use xlink:href="#DejaVuSans-30"/>
       <use xlink:href="#DejaVuSans-2e" x="63.623047"/>
       <use xlink:href="#DejaVuSans-35" x="95.410156"/>
      </g>
     </g>
    </g>
    <g id="ytick_5">
     <g id="line2d_10">
      <g>
       <use xlink:href="#mcb593c1196" x="52.76" y="167.565392" style="stroke: #000000; stroke-width: 0.8"/>
      </g>
     </g>
     <g id="text_10">
      <!-- 0.6 -->
      <g transform="translate(29.856875 171.364611) scale(0.1 -0.1)">
       <defs>
        <path id="DejaVuSans-36" d="M 2113 2584 
Q 1688 2584 1439 2293 
Q 1191 2003 1191 1497 
Q 1191 994 1439 701 
Q 1688 409 2113 409 
Q 2538 409 2786 701 
Q 3034 994 3034 1497 
Q 3034 2003 2786 2293 
Q 2538 2584 2113 2584 
z
M 3366 4563 
L 3366 3988 
Q 3128 4100 2886 4159 
Q 2644 4219 2406 4219 
Q 1781 4219 1451 3797 
Q 1122 3375 1075 2522 
Q 1259 2794 1537 2939 
Q 1816 3084 2150 3084 
Q 2853 3084 3261 2657 
Q 3669 2231 3669 1497 
Q 3669 778 3244 343 
Q 2819 -91 2113 -91 
Q 1303 -91 875 529 
Q 447 1150 447 2328 
Q 447 3434 972 4092 
Q 1497 4750 2381 4750 
Q 2619 4750 2861 4703 
Q 3103 4656 3366 4563 
z
" transform="scale(0.015625)"/>
       </defs>
       <use xlink:href="#DejaVuSans-30"/>
       <use xlink:href="#DejaVuSans-2e" x="63.623047"/>
       <use xlink:href="#DejaVuSans-36" x="95.410156"/>
      </g>
     </g>
    </g>
    <g id="ytick_6">
     <g id="line2d_11">
      <g>
       <use xlink:href="#mcb593c1196" x="52.76" y="133.931072" style="stroke: #000000; stroke-width: 0.8"/>
      </g>
     </g>
     <g id="text_11">
      <!-- 0.7 -->
      <g transform="translate(29.856875 137.730291) scale(0.1 -0.1)">
       <defs>
        <path id="DejaVuSans-37" d="M 525 4666 
L 3525 4666 
L 3525 4397 
L 1831 0 
L 1172 0 
L 2766 4134 
L 525 4134 
L 525 4666 
z
" transform="scale(0.015625)"/>
       </defs>
       <use xlink:href="#DejaVuSans-30"/>
       <use xlink:href="#DejaVuSans-2e" x="63.623047"/>
       <use xlink:href="#DejaVuSans-37" x="95.410156"/>
      </g>
     </g>
    </g>
    <g id="ytick_7">
     <g id="line2d_12">
      <g>
       <use xlink:href="#mcb593c1196" x="52.76" y="100.296752" style="stroke: #000000; stroke-width: 0.8"/>
      </g>
     </g>
     <g id="text_12">
      <!-- 0.8 -->
      <g transform="translate(29.856875 104.095971) scale(0.1 -0.1)">
       <defs>
        <path id="DejaVuSans-38" d="M 2034 2216 
Q 1584 2216 1326 1975 
Q 1069 1734 1069 1313 
Q 1069 891 1326 650 
Q 1584 409 2034 409 
Q 2484 409 2743 651 
Q 3003 894 3003 1313 
Q 3003 1734 2745 1975 
Q 2488 2216 2034 2216 
z
M 1403 2484 
Q 997 2584 770 2862 
Q 544 3141 544 3541 
Q 544 4100 942 4425 
Q 1341 4750 2034 4750 
Q 2731 4750 3128 4425 
Q 3525 4100 3525 3541 
Q 3525 3141 3298 2862 
Q 3072 2584 2669 2484 
Q 3125 2378 3379 2068 
Q 3634 1759 3634 1313 
Q 3634 634 3220 271 
Q 2806 -91 2034 -91 
Q 1263 -91 848 271 
Q 434 634 434 1313 
Q 434 1759 690 2068 
Q 947 2378 1403 2484 
z
M 1172 3481 
Q 1172 3119 1398 2916 
Q 1625 2713 2034 2713 
Q 2441 2713 2670 2916 
Q 2900 3119 2900 3481 
Q 2900 3844 2670 4047 
Q 2441 4250 2034 4250 
Q 1625 4250 1398 4047 
Q 1172 3844 1172 3481 
z
" transform="scale(0.015625)"/>
       </defs>
       <use xlink:href="#DejaVuSans-30"/>
       <use xlink:href="#DejaVuSans-2e" x="63.623047"/>
       <use xlink:href="#DejaVuSans-38" x="95.410156"/>
      </g>
     </g>
    </g>
    <g id="ytick_8">
     <g id="line2d_13">
      <g>
       <use xlink:href="#mcb593c1196" x="52.76" y="66.662432" style="stroke: #000000; stroke-width: 0.8"/>
      </g>
     </g>
     <g id="text_13">
      <!-- 0.9 -->
      <g transform="translate(29.856875 70.461651) scale(0.1 -0.1)">
       <defs>
        <path id="DejaVuSans-39" d="M 703 97 
L 703 672 
Q 941 559 1184 500 
Q 1428 441 1663 441 
Q 2288 441 2617 861 
Q 2947 1281 2994 2138 
Q 2813 1869 2534 1725 
Q 2256 1581 1919 1581 
Q 1219 1581 811 2004 
Q 403 2428 403 3163 
Q 403 3881 828 4315 
Q 1253 4750 1959 4750 
Q 2769 4750 3195 4129 
Q 3622 3509 3622 2328 
Q 3622 1225 3098 567 
Q 2575 -91 1691 -91 
Q 1453 -91 1209 -44 
Q 966 3 703 97 
z
M 1959 2075 
Q 2384 2075 2632 2365 
Q 2881 2656 2881 3163 
Q 2881 3666 2632 3958 
Q 2384 4250 1959 4250 
Q 1534 4250 1286 3958 
Q 1038 3666 1038 3163 
Q 1038 2656 1286 2365 
Q 1534 2075 1959 2075 
z
" transform="scale(0.015625)"/>
       </defs>
       <use xlink:href="#DejaVuSans-30"/>
       <use xlink:href="#DejaVuSans-2e" x="63.623047"/>
       <use xlink:href="#DejaVuSans-39" x="95.410156"/>
      </g>
     </g>
    </g>
    <g id="ytick_9">
     <g id="line2d_14">
      <g>
       <use xlink:href="#mcb593c1196" x="52.76" y="33.028112" style="stroke: #000000; stroke-width: 0.8"/>
      </g>
     </g>
     <g id="text_14">
      <!-- 1.0 -->
      <g transform="translate(29.856875 36.827331) scale(0.1 -0.1)">
       <defs>
        <path id="DejaVuSans-31" d="M 794 531 
L 1825 531 
L 1825 4091 
L 703 3866 
L 703 4441 
L 1819 4666 
L 2450 4666 
L 2450 531 
L 3481 531 
L 3481 0 
L 794 0 
L 794 531 
z
" transform="scale(0.015625)"/>
       </defs>
       <use xlink:href="#DejaVuSans-31"/>
       <use xlink:href="#DejaVuSans-2e" x="63.623047"/>
       <use xlink:href="#DejaVuSans-30" x="95.410156"/>
      </g>
     </g>
    </g>
    <g id="text_15">
     <!-- PRECISION -->
     <g transform="translate(23.36125 190.75675) rotate(-90) scale(0.12 -0.12)">
      <defs>
       <path id="DejaVuSans-50" d="M 1259 4147 
L 1259 2394 
L 2053 2394 
Q 2494 2394 2734 2622 
Q 2975 2850 2975 3272 
Q 2975 3691 2734 3919 
Q 2494 4147 2053 4147 
L 1259 4147 
z
M 628 4666 
L 2053 4666 
Q 2838 4666 3239 4311 
Q 3641 3956 3641 3272 
Q 3641 2581 3239 2228 
Q 2838 1875 2053 1875 
L 1259 1875 
L 1259 0 
L 628 0 
L 628 4666 
z
" transform="scale(0.015625)"/>
       <path id="DejaVuSans-52" d="M 2841 2188 
Q 3044 2119 3236 1894 
Q 3428 1669 3622 1275 
L 4263 0 
L 3584 0 
L 2988 1197 
Q 2756 1666 2539 1819 
Q 2322 1972 1947 1972 
L 1259 1972 
L 1259 0 
L 628 0 
L 628 4666 
L 2053 4666 
Q 2853 4666 3247 4331 
Q 3641 3997 3641 3322 
Q 3641 2881 3436 2590 
Q 3231 2300 2841 2188 
z
M 1259 4147 
L 1259 2491 
L 2053 2491 
Q 2509 2491 2742 2702 
Q 2975 2913 2975 3322 
Q 2975 3731 2742 3939 
Q 2509 4147 2053 4147 
L 1259 4147 
z
" transform="scale(0.015625)"/>
       <path id="DejaVuSans-43" d="M 4122 4306 
L 4122 3641 
Q 3803 3938 3442 4084 
Q 3081 4231 2675 4231 
Q 1875 4231 1450 3742 
Q 1025 3253 1025 2328 
Q 1025 1406 1450 917 
Q 1875 428 2675 428 
Q 3081 428 3442 575 
Q 3803 722 4122 1019 
L 4122 359 
Q 3791 134 3420 21 
Q 3050 -91 2638 -91 
Q 1578 -91 968 557 
Q 359 1206 359 2328 
Q 359 3453 968 4101 
Q 1578 4750 2638 4750 
Q 3056 4750 3426 4639 
Q 3797 4528 4122 4306 
z
" transform="scale(0.015625)"/>
       <path id="DejaVuSans-49" d="M 628 4666 
L 1259 4666 
L 1259 0 
L 628 0 
L 628 4666 
z
" transform="scale(0.015625)"/>
       <path id="DejaVuSans-4f" d="M 2522 4238 
Q 1834 4238 1429 3725 
Q 1025 3213 1025 2328 
Q 1025 1447 1429 934 
Q 1834 422 2522 422 
Q 3209 422 3611 934 
Q 4013 1447 4013 2328 
Q 4013 3213 3611 3725 
Q 3209 4238 2522 4238 
z
M 2522 4750 
Q 3503 4750 4090 4092 
Q 4678 3434 4678 2328 
Q 4678 1225 4090 567 
Q 3503 -91 2522 -91 
Q 1538 -91 948 565 
Q 359 1222 359 2328 
Q 359 3434 948 4092 
Q 1538 4750 2522 4750 
z
" transform="scale(0.015625)"/>
       <path id="DejaVuSans-4e" d="M 628 4666 
L 1478 4666 
L 3547 763 
L 3547 4666 
L 4159 4666 
L 4159 0 
L 3309 0 
L 1241 3903 
L 1241 0 
L 628 0 
L 628 4666 
z
" transform="scale(0.015625)"/>
      </defs>
      <use xlink:href="#DejaVuSans-50"/>
      <use xlink:href="#DejaVuSans-52" x="60.302734"/>
      <use xlink:href="#DejaVuSans-45" x="129.785156"/>
      <use xlink:href="#DejaVuSans-43" x="192.96875"/>
      <use xlink:href="#DejaVuSans-49" x="262.792969"/>
      <use xlink:href="#DejaVuSans-53" x="292.285156"/>
      <use xlink:href="#DejaVuSans-49" x="355.761719"/>
      <use xlink:href="#DejaVuSans-4f" x="385.253906"/>
      <use xlink:href="#DejaVuSans-4e" x="463.964844"/>
     </g>
    </g>
   </g>
   <g id="LineCollection_1">
    <path d="M 96.424501 158.696022 
L 96.424501 76.843541 
" clip-path="url(#pc5f912fd6b)" style="fill: none; stroke: #000000; stroke-width: 1.5"/>
    <path d="M 174.572165 122.559308 
L 174.572165 53.208704 
" clip-path="url(#pc5f912fd6b)" style="fill: none; stroke: #000000; stroke-width: 1.5"/>
    <path d="M 252.719828 160.804894 
L 252.719828 68.626676 
" clip-path="url(#pc5f912fd6b)" style="fill: none; stroke: #000000; stroke-width: 1.5"/>
    <path d="M 330.867492 136.309018 
L 330.867492 60.884056 
" clip-path="url(#pc5f912fd6b)" style="fill: none; stroke: #000000; stroke-width: 1.5"/>
    <path d="M 409.015155 216.321702 
L 409.015155 120.406712 
" clip-path="url(#pc5f912fd6b)" style="fill: none; stroke: #000000; stroke-width: 1.5"/>
   </g>
   <g id="line2d_15">
    <defs>
     <path id="mf111b90613" d="M 5 0 
L -5 -0 
" style="stroke: #000000"/>
    </defs>
    <g clip-path="url(#pc5f912fd6b)">
     <use xlink:href="#mf111b90613" x="96.424501" y="158.696022" style="stroke: #000000"/>
     <use xlink:href="#mf111b90613" x="174.572165" y="122.559308" style="stroke: #000000"/>
     <use xlink:href="#mf111b90613" x="252.719828" y="160.804894" style="stroke: #000000"/>
     <use xlink:href="#mf111b90613" x="330.867492" y="136.309018" style="stroke: #000000"/>
     <use xlink:href="#mf111b90613" x="409.015155" y="216.321702" style="stroke: #000000"/>
    </g>
   </g>
   <g id="line2d_16">
    <g clip-path="url(#pc5f912fd6b)">
     <use xlink:href="#mf111b90613" x="96.424501" y="76.843541" style="stroke: #000000"/>
     <use xlink:href="#mf111b90613" x="174.572165" y="53.208704" style="stroke: #000000"/>
     <use xlink:href="#mf111b90613" x="252.719828" y="68.626676" style="stroke: #000000"/>
     <use xlink:href="#mf111b90613" x="330.867492" y="60.884056" style="stroke: #000000"/>
     <use xlink:href="#mf111b90613" x="409.015155" y="120.406712" style="stroke: #000000"/>
    </g>
   </g>
   <g id="line2d_17">
    <defs>
     <path id="m444ffb7d89" d="M 0 5.656854 
L 5.656854 0 
L 0 -5.656854 
L -5.656854 0 
z
" style="stroke: #000000; stroke-linejoin: miter"/>
    </defs>
    <g clip-path="url(#pc5f912fd6b)">
     <use xlink:href="#m444ffb7d89" x="96.424501" y="110.561946" style="stroke: #000000; stroke-linejoin: miter"/>
     <use xlink:href="#m444ffb7d89" x="174.572165" y="77.697852" style="stroke: #000000; stroke-linejoin: miter"/>
     <use xlink:href="#m444ffb7d89" x="252.719828" y="106.290388" style="stroke: #000000; stroke-linejoin: miter"/>
     <use xlink:href="#m444ffb7d89" x="330.867492" y="90.949774" style="stroke: #000000; stroke-linejoin: miter"/>
     <use xlink:href="#m444ffb7d89" x="409.015155" y="167.780652" style="stroke: #000000; stroke-linejoin: miter"/>
    </g>
   </g>
   <g id="patch_3">
    <path d="M 52.76 303.896 
L 52.76 12.96 
" style="fill: none; stroke: #000000; stroke-width: 0.8; stroke-linejoin: miter; stroke-linecap: square"/>
   </g>
   <g id="patch_4">
    <path d="M 447.84 303.896 
L 447.84 12.96 
" style="fill: none; stroke: #000000; stroke-width: 0.8; stroke-linejoin: miter; stroke-linecap: square"/>
   </g>
   <g id="patch_5">
    <path d="M 52.76 303.896 
L 447.84 303.896 
" style="fill: none; stroke: #000000; stroke-width: 0.8; stroke-linejoin: miter; stroke-linecap: square"/>
   </g>
   <g id="patch_6">
    <path d="M 52.76 12.96 
L 447.84 12.96 
" style="fill: none; stroke: #000000; stroke-width: 0.8; stroke-linejoin: miter; stroke-linecap: square"/>
   </g>
  </g>
 </g>
 <defs>
  <clipPath id="pc5f912fd6b">
   <rect x="52.76" y="12.96" width="395.08" height="290.936"/>
  </clipPath>
 </defs>
</svg>
