<?xml version="1.0" encoding="utf-8" standalone="no"?>
<!DOCTYPE svg PUBLIC "-//W3C//DTD SVG 1.1//EN"
  "http://www.w3.org/Graphics/SVG/1.1/DTD/svg11.dtd">
<svg xmlns:xlink="http://www.w3.org/1999/xlink" width="460.8pt" height="345.6pt" viewBox="0 0 460.8 345.6" xmlns="http://www.w3.org/2000/svg" version="1.1">
 <metadata>
  <rdf:RDF xmlns:dc="http://purl.org/dc/elements/1.1/" xmlns:cc="http://creativecommons.org/ns#" xmlns:rdf="http://www.w3.org/1999/02/22-rdf-syntax-ns#">
   <cc:Work>
    <dc:type rdf:resource="http://purl.org/dc/dcmitype/StillImage"/>
    <dc:date>2025-09-22T13:48:46.578055</dc:date>
    <dc:format>image/svg+xml</dc:format>
    <dc:creator>
     <cc:Agent>
      <dc:title>Matplotlib v3.9.4, https://matplotlib.org/</dc:title>
     </cc:Agent>
    </dc:creator>
   </cc:Work>
  </rdf:RDF>
 </metadata>
 <defs>
  <style type="text/css">*{stroke-linejoin: round; stroke-linecap: butt}</style>
 </defs>
 <g id="figure_1">
  <g id="patch_1">
   <path d="M 0 345.6 
L 460.8 345.6 
L 460.8 0 
L 0 0 
z
" style="fill: #ffffff"/>
  </g>
  <g id="axes_1">
   <g id="patch_2">
    <path d="M 52.76 303.896 
L 447.84 303.896 
L 447.84 12.96 
L 52.76 12.96 
z
" style="fill: #ffffff"/>
   </g>
   <g id="PolyCollection_1">
    <defs>
     <path id="mcfc84620ed" d="M 98.574632 -81.674952 
L 98.545771 -81.674952 
L 98.533051 -83.554331 
L 98.514881 -85.43371 
L 98.493084 -87.31309 
L 98.472013 -89.192469 
L 98.457398 -91.071848 
L 98.453877 -92.951228 
L 98.462638 -94.830607 
L 98.480774 -96.709986 
L 98.502832 -98.589366 
L 98.523433 -100.468745 
L 98.539274 -102.348124 
L 98.549552 -104.227504 
L 98.555097 -106.106883 
L 98.557085 -107.986262 
L 98.555979 -109.865642 
L 98.550906 -111.745021 
L 98.539463 -113.6244 
L 98.518136 -115.50378 
L 98.48358 -117.383159 
L 98.43461 -119.262538 
L 98.373995 -121.141918 
L 98.308715 -123.021297 
L 98.248011 -124.900677 
L 98.20003 -126.780056 
L 98.168747 -128.659435 
L 98.15235 -130.538815 
L 98.143174 -132.418194 
L 98.128862 -134.297573 
L 98.094844 -136.176953 
L 98.028156 -138.056332 
L 97.9214 -139.935711 
L 97.774408 -141.815091 
L 97.591542 -143.69447 
L 97.375315 -145.573849 
L 97.120365 -147.453229 
L 96.812893 -149.332608 
L 96.437442 -151.211987 
L 95.987301 -153.091367 
L 95.470873 -154.970746 
L 94.908 -156.850125 
L 94.31701 -158.729505 
L 93.700921 -160.608884 
L 93.043357 -162.488263 
L 92.318221 -164.367643 
L 91.505742 -166.247022 
L 90.600732 -168.126401 
L 89.604579 -170.005781 
L 88.508407 -171.88516 
L 87.287578 -173.764539 
L 85.922404 -175.643919 
L 84.436101 -177.523298 
L 82.918618 -179.402677 
L 81.507959 -181.282057 
L 80.33155 -183.161436 
L 79.443402 -185.040815 
L 78.798046 -186.920195 
L 78.275329 -188.799574 
L 77.735866 -190.678953 
L 77.072914 -192.558333 
L 76.238705 -194.437712 
L 75.245307 -196.317091 
L 74.152679 -198.196471 
L 73.054207 -200.07585 
L 72.061207 -201.955229 
L 71.284488 -203.834609 
L 70.815937 -205.713988 
L 70.718182 -207.593367 
L 71.02665 -209.472747 
L 71.756815 -211.352126 
L 72.902879 -213.231506 
L 74.422855 -215.110885 
L 76.22304 -216.990264 
L 78.1634 -218.869644 
L 80.092311 -220.749023 
L 81.894193 -222.628402 
L 83.519643 -224.507782 
L 84.978812 -226.387161 
L 86.306253 -228.26654 
L 87.526223 -230.14592 
L 88.643677 -232.025299 
L 89.661578 -233.904678 
L 90.601615 -235.784058 
L 91.504276 -237.663437 
L 92.405568 -239.542816 
L 93.310624 -241.422196 
L 94.187385 -243.301575 
L 94.98568 -245.180954 
L 95.666507 -247.060334 
L 96.220952 -248.939713 
L 96.669057 -250.819092 
L 97.043799 -252.698472 
L 97.372819 -254.577851 
L 97.66825 -256.45723 
L 97.927601 -258.33661 
L 98.141931 -260.215989 
L 98.304808 -262.095368 
L 98.417206 -263.974748 
L 98.487177 -265.854127 
L 98.526333 -267.733506 
L 98.594069 -267.733506 
L 98.594069 -267.733506 
L 98.633225 -265.854127 
L 98.703197 -263.974748 
L 98.815594 -262.095368 
L 98.978472 -260.215989 
L 99.192801 -258.33661 
L 99.452153 -256.45723 
L 99.747583 -254.577851 
L 100.076603 -252.698472 
L 100.451345 -250.819092 
L 100.89945 -248.939713 
L 101.453895 -247.060334 
L 102.134722 -245.180954 
L 102.933018 -243.301575 
L 103.809778 -241.422196 
L 104.714834 -239.542816 
L 105.616127 -237.663437 
L 106.518787 -235.784058 
L 107.458825 -233.904678 
L 108.476725 -232.025299 
L 109.594179 -230.14592 
L 110.814149 -228.26654 
L 112.141591 -226.387161 
L 113.600759 -224.507782 
L 115.22621 -222.628402 
L 117.028091 -220.749023 
L 118.957003 -218.869644 
L 120.897362 -216.990264 
L 122.697547 -215.110885 
L 124.217523 -213.231506 
L 125.363587 -211.352126 
L 126.093752 -209.472747 
L 126.402221 -207.593367 
L 126.304465 -205.713988 
L 125.835914 -203.834609 
L 125.059196 -201.955229 
L 124.066195 -200.07585 
L 122.967724 -198.196471 
L 121.875096 -196.317091 
L 120.881697 -194.437712 
L 120.047489 -192.558333 
L 119.384536 -190.678953 
L 118.845073 -188.799574 
L 118.322357 -186.920195 
L 117.677 -185.040815 
L 116.788853 -183.161436 
L 115.612443 -181.282057 
L 114.201784 -179.402677 
L 112.684302 -177.523298 
L 111.197998 -175.643919 
L 109.832824 -173.764539 
L 108.611996 -171.88516 
L 107.515823 -170.005781 
L 106.51967 -168.126401 
L 105.61466 -166.247022 
L 104.802181 -164.367643 
L 104.077046 -162.488263 
L 103.419482 -160.608884 
L 102.803392 -158.729505 
L 102.212403 -156.850125 
L 101.64953 -154.970746 
L 101.133102 -153.091367 
L 100.68296 -151.211987 
L 100.30751 -149.332608 
L 100.000037 -147.453229 
L 99.745088 -145.573849 
L 99.52886 -143.69447 
L 99.345995 -141.815091 
L 99.199002 -139.935711 
L 99.092247 -138.056332 
L 99.025559 -136.176953 
L 98.991541 -134.297573 
L 98.977228 -132.418194 
L 98.968052 -130.538815 
L 98.951656 -128.659435 
L 98.920373 -126.780056 
L 98.872392 -124.900677 
L 98.811687 -123.021297 
L 98.746407 -121.141918 
L 98.685792 -119.262538 
L 98.636822 -117.383159 
L 98.602266 -115.50378 
L 98.58094 -113.6244 
L 98.569496 -111.745021 
L 98.564423 -109.865642 
L 98.563318 -107.986262 
L 98.565305 -106.106883 
L 98.570851 -104.227504 
L 98.581129 -102.348124 
L 98.59697 -100.468745 
L 98.617571 -98.589366 
L 98.639628 -96.709986 
L 98.657764 -94.830607 
L 98.666526 -92.951228 
L 98.663004 -91.071848 
L 98.648389 -89.192469 
L 98.627319 -87.31309 
L 98.605521 -85.43371 
L 98.587352 -83.554331 
L 98.574632 -81.674952 
z
" style="stroke: #3f3f3f; stroke-width: 1.25"/>
    </defs>
    <g clip-path="url(#p7b81ad799e)">
     <use xlink:href="#mcfc84620ed" x="0" y="345.6" style="fill: #3274a1; stroke: #3f3f3f; stroke-width: 1.25"/>
    </g>
   </g>
   <g id="PolyCollection_2">
    <defs>
     <path id="m2b8b1a6ba8" d="M 175.77913 -121.621932 
L 175.752513 -121.621932 
L 175.74181 -123.619848 
L 175.725197 -125.617764 
L 175.700953 -127.615681 
L 175.667326 -129.613597 
L 175.622457 -131.611513 
L 175.564295 -133.609429 
L 175.490789 -135.607345 
L 175.400609 -137.605262 
L 175.294394 -139.603178 
L 175.17596 -141.601094 
L 175.05257 -143.59901 
L 174.933539 -145.596926 
L 174.827212 -147.594843 
L 174.737318 -149.592759 
L 174.660186 -151.590675 
L 174.583975 -153.588591 
L 174.49014 -155.586507 
L 174.356466 -157.584424 
L 174.160792 -159.58234 
L 173.884909 -161.580256 
L 173.518537 -163.578172 
L 173.062999 -165.576089 
L 172.53335 -167.574005 
L 171.957054 -169.571921 
L 171.3679 -171.569837 
L 170.795957 -173.567753 
L 170.256924 -175.56567 
L 169.745572 -177.563586 
L 169.23688 -179.561502 
L 168.695263 -181.559418 
L 168.088579 -183.557334 
L 167.40125 -185.555251 
L 166.640846 -187.553167 
L 165.83501 -189.551083 
L 165.019558 -191.548999 
L 164.222783 -193.546915 
L 163.45339 -195.544832 
L 162.698591 -197.542748 
L 161.934162 -199.540664 
L 161.141749 -201.53858 
L 160.324104 -203.536496 
L 159.509555 -205.534413 
L 158.743044 -207.532329 
L 158.068928 -209.530245 
L 157.515274 -211.528161 
L 157.087494 -213.526077 
L 156.772636 -215.523994 
L 156.549156 -217.52191 
L 156.395189 -219.519826 
L 156.291724 -221.517742 
L 156.222515 -223.515658 
L 156.175324 -225.513575 
L 156.147231 -227.511491 
L 156.151762 -229.509407 
L 156.221804 -231.507323 
L 156.402989 -233.50524 
L 156.737524 -235.503156 
L 157.245045 -237.501072 
L 157.910395 -239.498988 
L 158.685736 -241.496904 
L 159.50721 -243.494821 
L 160.318647 -245.492737 
L 161.091057 -247.490653 
L 161.828978 -249.488569 
L 162.56158 -251.486485 
L 163.323933 -253.484402 
L 164.137959 -255.482318 
L 165.001754 -257.480234 
L 165.891102 -259.47815 
L 166.77103 -261.476066 
L 167.610936 -263.473983 
L 168.396033 -265.471899 
L 169.13037 -267.469815 
L 169.831044 -269.467731 
L 170.517243 -271.465647 
L 171.199603 -273.463564 
L 171.87449 -275.46148 
L 172.525057 -277.459396 
L 173.12773 -279.457312 
L 173.660722 -281.455228 
L 174.110837 -283.453145 
L 174.476151 -285.451061 
L 174.764301 -287.448977 
L 174.98807 -289.446893 
L 175.160779 -291.444809 
L 175.293434 -293.442726 
L 175.394171 -295.440642 
L 175.469241 -297.438558 
L 175.52427 -299.436474 
L 175.564864 -301.434391 
L 175.596385 -303.432307 
L 175.623238 -305.430223 
L 175.648228 -307.428139 
L 175.672356 -309.426055 
L 175.695185 -311.423972 
L 175.71556 -313.421888 
L 175.732385 -315.419804 
L 175.745125 -317.41772 
L 175.753943 -319.415636 
L 175.777701 -319.415636 
L 175.777701 -319.415636 
L 175.786518 -317.41772 
L 175.799258 -315.419804 
L 175.816083 -313.421888 
L 175.836458 -311.423972 
L 175.859287 -309.426055 
L 175.883415 -307.428139 
L 175.908405 -305.430223 
L 175.935258 -303.432307 
L 175.966779 -301.434391 
L 176.007373 -299.436474 
L 176.062402 -297.438558 
L 176.137473 -295.440642 
L 176.238209 -293.442726 
L 176.370864 -291.444809 
L 176.543573 -289.446893 
L 176.767342 -287.448977 
L 177.055492 -285.451061 
L 177.420806 -283.453145 
L 177.870921 -281.455228 
L 178.403913 -279.457312 
L 179.006586 -277.459396 
L 179.657153 -275.46148 
L 180.33204 -273.463564 
L 181.0144 -271.465647 
L 181.700599 -269.467731 
L 182.401273 -267.469815 
L 183.13561 -265.471899 
L 183.920707 -263.473983 
L 184.760613 -261.476066 
L 185.640541 -259.47815 
L 186.52989 -257.480234 
L 187.393684 -255.482318 
L 188.20771 -253.484402 
L 188.970063 -251.486485 
L 189.702665 -249.488569 
L 190.440586 -247.490653 
L 191.212997 -245.492737 
L 192.024433 -243.494821 
L 192.845907 -241.496904 
L 193.621248 -239.498988 
L 194.286598 -237.501072 
L 194.794119 -235.503156 
L 195.128654 -233.50524 
L 195.309839 -231.507323 
L 195.379882 -229.509407 
L 195.384412 -227.511491 
L 195.35632 -225.513575 
L 195.309128 -223.515658 
L 195.239919 -221.517742 
L 195.136455 -219.519826 
L 194.982487 -217.52191 
L 194.759007 -215.523994 
L 194.444149 -213.526077 
L 194.016369 -211.528161 
L 193.462715 -209.530245 
L 192.7886 -207.532329 
L 192.022088 -205.534413 
L 191.20754 -203.536496 
L 190.389894 -201.53858 
L 189.597481 -199.540664 
L 188.833052 -197.542748 
L 188.078254 -195.544832 
L 187.30886 -193.546915 
L 186.512085 -191.548999 
L 185.696633 -189.551083 
L 184.890797 -187.553167 
L 184.130393 -185.555251 
L 183.443064 -183.557334 
L 182.83638 -181.559418 
L 182.294763 -179.561502 
L 181.786071 -177.563586 
L 181.274719 -175.56567 
L 180.735686 -173.567753 
L 180.163743 -171.569837 
L 179.574589 -169.571921 
L 178.998293 -167.574005 
L 178.468644 -165.576089 
L 178.013106 -163.578172 
L 177.646734 -161.580256 
L 177.370851 -159.58234 
L 177.175177 -157.584424 
L 177.041503 -155.586507 
L 176.947668 -153.588591 
L 176.871457 -151.590675 
L 176.794325 -149.592759 
L 176.704431 -147.594843 
L 176.598104 -145.596926 
L 176.479073 -143.59901 
L 176.355683 -141.601094 
L 176.237249 -139.603178 
L 176.131034 -137.605262 
L 176.040854 -135.607345 
L 175.967348 -133.609429 
L 175.909186 -131.611513 
L 175.864317 -129.613597 
L 175.83069 -127.615681 
L 175.806446 -125.617764 
L 175.789833 -123.619848 
L 175.77913 -121.621932 
z
" style="stroke: #3f3f3f; stroke-width: 1.25"/>
    </defs>
    <g clip-path="url(#p7b81ad799e)">
     <use xlink:href="#m2b8b1a6ba8" x="0" y="345.6" style="fill: #3274a1; stroke: #3f3f3f; stroke-width: 1.25"/>
    </g>
   </g>
   <g id="PolyCollection_3">
    <defs>
     <path id="md9f03327cb" d="M 252.985691 -93.990594 
L 252.957192 -93.990594 
L 252.945289 -95.918661 
L 252.927093 -97.846727 
L 252.901617 -99.774793 
L 252.868714 -101.702859 
L 252.829085 -103.630925 
L 252.783908 -105.558991 
L 252.734356 -107.487057 
L 252.681398 -109.415123 
L 252.62608 -111.343189 
L 252.569956 -113.271255 
L 252.514999 -115.199321 
L 252.462547 -117.127387 
L 252.411588 -119.055453 
L 252.357448 -120.98352 
L 252.292005 -122.911586 
L 252.20571 -124.839652 
L 252.090529 -126.767718 
L 251.942185 -128.695784 
L 251.760282 -130.62385 
L 251.546049 -132.551916 
L 251.298837 -134.479982 
L 251.013519 -136.408048 
L 250.680682 -138.336114 
L 250.290019 -140.26418 
L 249.835216 -142.192246 
L 249.317577 -144.120312 
L 248.746446 -146.048379 
L 248.13679 -147.976445 
L 247.505846 -149.904511 
L 246.870208 -151.832577 
L 246.24277 -153.760643 
L 245.628157 -155.688709 
L 245.017085 -157.616775 
L 244.383293 -159.544841 
L 243.687771 -161.472907 
L 242.891745 -163.400973 
L 241.973655 -165.329039 
L 240.940944 -167.257105 
L 239.829273 -169.185172 
L 238.689602 -171.113238 
L 237.571618 -173.041304 
L 236.513572 -174.96937 
L 235.542064 -176.897436 
L 234.676483 -178.825502 
L 233.929568 -180.753568 
L 233.300882 -182.681634 
L 232.768949 -184.6097 
L 232.292145 -186.537766 
L 231.823655 -188.465832 
L 231.335291 -190.393898 
L 230.836854 -192.321964 
L 230.378826 -194.250031 
L 230.036104 -196.178097 
L 229.881871 -198.106163 
L 229.965154 -200.034229 
L 230.300806 -201.962295 
L 230.871656 -203.890361 
L 231.636907 -205.818427 
L 232.541604 -207.746493 
L 233.526 -209.674559 
L 234.536035 -211.602625 
L 235.534555 -213.530691 
L 236.509419 -215.458757 
L 237.473267 -217.386823 
L 238.452927 -219.31489 
L 239.472556 -221.242956 
L 240.539116 -223.171022 
L 241.637614 -225.099088 
L 242.737339 -227.027154 
L 243.803986 -228.95522 
L 244.810527 -230.883286 
L 245.742444 -232.811352 
L 246.59715 -234.739418 
L 247.379858 -236.667484 
L 248.098375 -238.59555 
L 248.758544 -240.523616 
L 249.361574 -242.451682 
L 249.903991 -244.379749 
L 250.380145 -246.307815 
L 250.78622 -248.235881 
L 251.123965 -250.163947 
L 251.402317 -252.092013 
L 251.63588 -254.020079 
L 251.840636 -255.948145 
L 252.028805 -257.876211 
L 252.205366 -259.804277 
L 252.367969 -261.732343 
L 252.510097 -263.660409 
L 252.625634 -265.588475 
L 252.712501 -267.516541 
L 252.773769 -269.444608 
L 252.816201 -271.372674 
L 252.847391 -273.30074 
L 252.87317 -275.228806 
L 252.896415 -277.156872 
L 252.917448 -279.084938 
L 252.935342 -281.013004 
L 252.949212 -282.94107 
L 252.958896 -284.869136 
L 252.983988 -284.869136 
L 252.983988 -284.869136 
L 252.993671 -282.94107 
L 253.007542 -281.013004 
L 253.025436 -279.084938 
L 253.046469 -277.156872 
L 253.069714 -275.228806 
L 253.095493 -273.30074 
L 253.126683 -271.372674 
L 253.169115 -269.444608 
L 253.230383 -267.516541 
L 253.317249 -265.588475 
L 253.432787 -263.660409 
L 253.574915 -261.732343 
L 253.737518 -259.804277 
L 253.914079 -257.876211 
L 254.102247 -255.948145 
L 254.307004 -254.020079 
L 254.540567 -252.092013 
L 254.818919 -250.163947 
L 255.156663 -248.235881 
L 255.562739 -246.307815 
L 256.038893 -244.379749 
L 256.58131 -242.451682 
L 257.18434 -240.523616 
L 257.844509 -238.59555 
L 258.563026 -236.667484 
L 259.345734 -234.739418 
L 260.200439 -232.811352 
L 261.132357 -230.883286 
L 262.138897 -228.95522 
L 263.205545 -227.027154 
L 264.30527 -225.099088 
L 265.403768 -223.171022 
L 266.470328 -221.242956 
L 267.489956 -219.31489 
L 268.469617 -217.386823 
L 269.433465 -215.458757 
L 270.408328 -213.530691 
L 271.406849 -211.602625 
L 272.416884 -209.674559 
L 273.40128 -207.746493 
L 274.305976 -205.818427 
L 275.071228 -203.890361 
L 275.642078 -201.962295 
L 275.97773 -200.034229 
L 276.061013 -198.106163 
L 275.90678 -196.178097 
L 275.564058 -194.250031 
L 275.106029 -192.321964 
L 274.607592 -190.393898 
L 274.119229 -188.465832 
L 273.650739 -186.537766 
L 273.173935 -184.6097 
L 272.642002 -182.681634 
L 272.013316 -180.753568 
L 271.266401 -178.825502 
L 270.40082 -176.897436 
L 269.429312 -174.96937 
L 268.371266 -173.041304 
L 267.253282 -171.113238 
L 266.11361 -169.185172 
L 265.001939 -167.257105 
L 263.969228 -165.329039 
L 263.051139 -163.400973 
L 262.255113 -161.472907 
L 261.559591 -159.544841 
L 260.925799 -157.616775 
L 260.314727 -155.688709 
L 259.700113 -153.760643 
L 259.072676 -151.832577 
L 258.437038 -149.904511 
L 257.806094 -147.976445 
L 257.196438 -146.048379 
L 256.625307 -144.120312 
L 256.107668 -142.192246 
L 255.652865 -140.26418 
L 255.262202 -138.336114 
L 254.929365 -136.408048 
L 254.644047 -134.479982 
L 254.396835 -132.551916 
L 254.182601 -130.62385 
L 254.000699 -128.695784 
L 253.852355 -126.767718 
L 253.737174 -124.839652 
L 253.650879 -122.911586 
L 253.585436 -120.98352 
L 253.531296 -119.055453 
L 253.480336 -117.127387 
L 253.427885 -115.199321 
L 253.372928 -113.271255 
L 253.316804 -111.343189 
L 253.261486 -109.415123 
L 253.208528 -107.487057 
L 253.158976 -105.558991 
L 253.113799 -103.630925 
L 253.07417 -101.702859 
L 253.041267 -99.774793 
L 253.015791 -97.846727 
L 252.997595 -95.918661 
L 252.985691 -93.990594 
z
" style="stroke: #3f3f3f; stroke-width: 1.25"/>
    </defs>
    <g clip-path="url(#p7b81ad799e)">
     <use xlink:href="#md9f03327cb" x="0" y="345.6" style="fill: #3274a1; stroke: #3f3f3f; stroke-width: 1.25"/>
    </g>
   </g>
   <g id="PolyCollection_4">
    <defs>
     <path id="m15e8be2abe" d="M 330.193596 -153.00616 
L 330.160528 -153.00616 
L 330.14773 -154.478587 
L 330.129335 -155.951014 
L 330.105612 -157.42344 
L 330.078196 -158.895867 
L 330.049793 -160.368293 
L 330.023293 -161.84072 
L 330.000733 -163.313147 
L 329.982713 -164.785573 
L 329.968588 -166.258 
L 329.957192 -167.730427 
L 329.947455 -169.202853 
L 329.938409 -170.67528 
L 329.928594 -172.147706 
L 329.915365 -173.620133 
L 329.894796 -175.09256 
L 329.862655 -176.564986 
L 329.816295 -178.037413 
L 329.756556 -179.509839 
L 329.688327 -180.982266 
L 329.618744 -182.454693 
L 329.553249 -183.927119 
L 329.491236 -185.399546 
L 329.423699 -186.871972 
L 329.334486 -188.344399 
L 329.204815 -189.816826 
L 329.018788 -191.289252 
L 328.767023 -192.761679 
L 328.4468 -194.234105 
L 328.059417 -195.706532 
L 327.607272 -197.178959 
L 327.093166 -198.651385 
L 326.522479 -200.123812 
L 325.906533 -201.596239 
L 325.264312 -203.068665 
L 324.62056 -204.541092 
L 324.000413 -206.013518 
L 323.422561 -207.485945 
L 322.893455 -208.958372 
L 322.404396 -210.430798 
L 321.931999 -211.903225 
L 321.441257 -213.375651 
L 320.889645 -214.848078 
L 320.23127 -216.320505 
L 319.421956 -217.792931 
L 318.427521 -219.265358 
L 317.235735 -220.737784 
L 315.867467 -222.210211 
L 314.378713 -223.682638 
L 312.847772 -225.155064 
L 311.351085 -226.627491 
L 309.939991 -228.099917 
L 308.630798 -229.572344 
L 307.411183 -231.044771 
L 306.255441 -232.517197 
L 305.138448 -233.989624 
L 304.044155 -235.462051 
L 302.971198 -236.934477 
L 301.938608 -238.406904 
L 300.989615 -239.87933 
L 300.18805 -241.351757 
L 299.604675 -242.824184 
L 299.297512 -244.29661 
L 299.294814 -245.769037 
L 299.588014 -247.241463 
L 300.136584 -248.71389 
L 300.881458 -250.186317 
L 301.761431 -251.658743 
L 302.727666 -253.13117 
L 303.753168 -254.603596 
L 304.835494 -256.076023 
L 305.992035 -257.54845 
L 307.248939 -259.020876 
L 308.627055 -260.493303 
L 310.12969 -261.965729 
L 311.736251 -263.438156 
L 313.403348 -264.910583 
L 315.07261 -266.383009 
L 316.683078 -267.855436 
L 318.185002 -269.327862 
L 319.550599 -270.800289 
L 320.777181 -272.272716 
L 321.880802 -273.745142 
L 322.88368 -275.217569 
L 323.802405 -276.689996 
L 324.643106 -278.162422 
L 325.404682 -279.634849 
L 326.086049 -281.107275 
L 326.691777 -282.579702 
L 327.23283 -284.052129 
L 327.722857 -285.524555 
L 328.172861 -286.996982 
L 328.587244 -288.469408 
L 328.963007 -289.941835 
L 329.292194 -291.414262 
L 329.566285 -292.886688 
L 329.780508 -294.359115 
L 329.936272 -295.831541 
L 330.040977 -297.303968 
L 330.105758 -298.776395 
L 330.248367 -298.776395 
L 330.248367 -298.776395 
L 330.313148 -297.303968 
L 330.417852 -295.831541 
L 330.573616 -294.359115 
L 330.787839 -292.886688 
L 331.06193 -291.414262 
L 331.391118 -289.941835 
L 331.766881 -288.469408 
L 332.181263 -286.996982 
L 332.631267 -285.524555 
L 333.121295 -284.052129 
L 333.662347 -282.579702 
L 334.268076 -281.107275 
L 334.949443 -279.634849 
L 335.711019 -278.162422 
L 336.55172 -276.689996 
L 337.470445 -275.217569 
L 338.473322 -273.745142 
L 339.576944 -272.272716 
L 340.803526 -270.800289 
L 342.169123 -269.327862 
L 343.671046 -267.855436 
L 345.281515 -266.383009 
L 346.950777 -264.910583 
L 348.617873 -263.438156 
L 350.224434 -261.965729 
L 351.72707 -260.493303 
L 353.105186 -259.020876 
L 354.36209 -257.54845 
L 355.51863 -256.076023 
L 356.600957 -254.603596 
L 357.626458 -253.13117 
L 358.592693 -251.658743 
L 359.472667 -250.186317 
L 360.217541 -248.71389 
L 360.766111 -247.241463 
L 361.05931 -245.769037 
L 361.056613 -244.29661 
L 360.74945 -242.824184 
L 360.166074 -241.351757 
L 359.364509 -239.87933 
L 358.415516 -238.406904 
L 357.382926 -236.934477 
L 356.309969 -235.462051 
L 355.215676 -233.989624 
L 354.098683 -232.517197 
L 352.942941 -231.044771 
L 351.723326 -229.572344 
L 350.414134 -228.099917 
L 349.00304 -226.627491 
L 347.506352 -225.155064 
L 345.975412 -223.682638 
L 344.486657 -222.210211 
L 343.11839 -220.737784 
L 341.926603 -219.265358 
L 340.932168 -217.792931 
L 340.122854 -216.320505 
L 339.464479 -214.848078 
L 338.912867 -213.375651 
L 338.422125 -211.903225 
L 337.949728 -210.430798 
L 337.460669 -208.958372 
L 336.931564 -207.485945 
L 336.353711 -206.013518 
L 335.733565 -204.541092 
L 335.089813 -203.068665 
L 334.447592 -201.596239 
L 333.831646 -200.123812 
L 333.260959 -198.651385 
L 332.746853 -197.178959 
L 332.294708 -195.706532 
L 331.907324 -194.234105 
L 331.587101 -192.761679 
L 331.335337 -191.289252 
L 331.14931 -189.816826 
L 331.019639 -188.344399 
L 330.930425 -186.871972 
L 330.862889 -185.399546 
L 330.800876 -183.927119 
L 330.73538 -182.454693 
L 330.665797 -180.982266 
L 330.597568 -179.509839 
L 330.537829 -178.037413 
L 330.491469 -176.564986 
L 330.459329 -175.09256 
L 330.43876 -173.620133 
L 330.425531 -172.147706 
L 330.415716 -170.67528 
L 330.40667 -169.202853 
L 330.396932 -167.730427 
L 330.385537 -166.258 
L 330.371412 -164.785573 
L 330.353392 -163.313147 
L 330.330831 -161.84072 
L 330.304331 -160.368293 
L 330.275928 -158.895867 
L 330.248513 -157.42344 
L 330.22479 -155.951014 
L 330.206394 -154.478587 
L 330.193596 -153.00616 
z
" style="stroke: #3f3f3f; stroke-width: 1.25"/>
    </defs>
    <g clip-path="url(#p7b81ad799e)">
     <use xlink:href="#m15e8be2abe" x="0" y="345.6" style="fill: #3274a1; stroke: #3f3f3f; stroke-width: 1.25"/>
    </g>
   </g>
   <g id="PolyCollection_5">
    <defs>
     <path id="m8acdae1e91" d="M 407.396165 -54.928364 
L 407.369201 -54.928364 
L 407.358569 -56.772391 
L 407.342582 -58.616418 
L 407.320267 -60.460446 
L 407.290961 -62.304473 
L 407.254079 -64.1485 
L 407.208673 -65.992528 
L 407.153144 -67.836555 
L 407.085467 -69.680582 
L 407.004065 -71.52461 
L 406.908958 -73.368637 
L 406.802472 -75.212665 
L 406.688829 -77.056692 
L 406.572389 -78.900719 
L 406.45491 -80.744747 
L 406.332662 -82.588774 
L 406.194363 -84.432801 
L 406.02072 -86.276829 
L 405.786162 -88.120856 
L 405.462906 -89.964883 
L 405.026925 -91.808911 
L 404.464357 -93.652938 
L 403.776083 -95.496965 
L 402.978475 -97.340993 
L 402.099919 -99.18502 
L 401.174758 -101.029048 
L 400.237131 -102.873075 
L 399.316382 -104.717102 
L 398.434252 -106.56113 
L 397.603488 -108.405157 
L 396.827887 -110.249184 
L 396.104082 -112.093212 
L 395.424442 -113.937239 
L 394.779147 -115.781266 
L 394.155547 -117.625294 
L 393.535062 -119.469321 
L 392.890842 -121.313348 
L 392.190315 -123.157376 
L 391.404293 -125.001403 
L 390.51982 -126.845431 
L 389.550665 -128.689458 
L 388.539717 -130.533485 
L 387.551291 -132.377513 
L 386.656116 -134.22154 
L 385.914939 -136.065567 
L 385.36685 -137.909595 
L 385.025685 -139.753622 
L 384.883547 -141.597649 
L 384.917183 -143.441677 
L 385.09281 -145.285704 
L 385.368523 -147.129731 
L 385.697356 -148.973759 
L 386.034722 -150.817786 
L 386.35009 -152.661813 
L 386.637924 -154.505841 
L 386.92179 -156.349868 
L 387.249138 -158.193896 
L 387.679177 -160.037923 
L 388.268363 -161.88195 
L 389.056755 -163.725978 
L 390.056948 -165.570005 
L 391.247684 -167.414032 
L 392.575418 -169.25806 
L 393.965816 -171.102087 
L 395.342594 -172.946114 
L 396.646033 -174.790142 
L 397.842643 -176.634169 
L 398.922228 -178.478196 
L 399.886229 -180.322224 
L 400.736146 -182.166251 
L 401.469701 -184.010279 
L 402.086023 -185.854306 
L 402.594475 -187.698333 
L 403.019322 -189.542361 
L 403.395719 -191.386388 
L 403.758627 -193.230415 
L 404.130848 -195.074443 
L 404.516656 -196.91847 
L 404.903915 -198.762497 
L 405.272671 -200.606525 
L 405.605129 -202.450552 
L 405.892104 -204.294579 
L 406.133873 -206.138607 
L 406.336688 -207.982634 
L 406.50807 -209.826662 
L 406.653577 -211.670689 
L 406.776066 -213.514716 
L 406.876838 -215.358744 
L 406.9574 -217.202771 
L 407.020734 -219.046798 
L 407.071466 -220.890826 
L 407.114942 -222.734853 
L 407.155713 -224.57888 
L 407.196232 -226.422908 
L 407.236448 -228.266935 
L 407.274438 -230.110962 
L 407.307693 -231.95499 
L 407.334341 -233.799017 
L 407.353799 -235.643045 
L 407.366731 -237.487072 
L 407.398634 -237.487072 
L 407.398634 -237.487072 
L 407.411566 -235.643045 
L 407.431024 -233.799017 
L 407.457672 -231.95499 
L 407.490927 -230.110962 
L 407.528917 -228.266935 
L 407.569133 -226.422908 
L 407.609652 -224.57888 
L 407.650423 -222.734853 
L 407.693899 -220.890826 
L 407.744632 -219.046798 
L 407.807965 -217.202771 
L 407.888527 -215.358744 
L 407.989299 -213.514716 
L 408.111789 -211.670689 
L 408.257296 -209.826662 
L 408.428677 -207.982634 
L 408.631492 -206.138607 
L 408.873261 -204.294579 
L 409.160237 -202.450552 
L 409.492694 -200.606525 
L 409.86145 -198.762497 
L 410.24871 -196.91847 
L 410.634517 -195.074443 
L 411.006738 -193.230415 
L 411.369647 -191.386388 
L 411.746043 -189.542361 
L 412.17089 -187.698333 
L 412.679343 -185.854306 
L 413.295665 -184.010279 
L 414.029219 -182.166251 
L 414.879136 -180.322224 
L 415.843137 -178.478196 
L 416.922722 -176.634169 
L 418.119332 -174.790142 
L 419.422771 -172.946114 
L 420.799549 -171.102087 
L 422.189947 -169.25806 
L 423.517681 -167.414032 
L 424.708418 -165.570005 
L 425.70861 -163.725978 
L 426.497002 -161.88195 
L 427.086188 -160.037923 
L 427.516228 -158.193896 
L 427.843575 -156.349868 
L 428.127441 -154.505841 
L 428.415275 -152.661813 
L 428.730643 -150.817786 
L 429.068009 -148.973759 
L 429.396842 -147.129731 
L 429.672555 -145.285704 
L 429.848183 -143.441677 
L 429.881818 -141.597649 
L 429.739681 -139.753622 
L 429.398515 -137.909595 
L 428.850427 -136.065567 
L 428.109249 -134.22154 
L 427.214074 -132.377513 
L 426.225648 -130.533485 
L 425.214701 -128.689458 
L 424.245545 -126.845431 
L 423.361072 -125.001403 
L 422.57505 -123.157376 
L 421.874523 -121.313348 
L 421.230303 -119.469321 
L 420.609818 -117.625294 
L 419.986218 -115.781266 
L 419.340924 -113.937239 
L 418.661283 -112.093212 
L 417.937478 -110.249184 
L 417.161877 -108.405157 
L 416.331113 -106.56113 
L 415.448984 -104.717102 
L 414.528234 -102.873075 
L 413.590607 -101.029048 
L 412.665446 -99.18502 
L 411.786891 -97.340993 
L 410.989282 -95.496965 
L 410.301009 -93.652938 
L 409.738441 -91.808911 
L 409.302459 -89.964883 
L 408.979203 -88.120856 
L 408.744645 -86.276829 
L 408.571003 -84.432801 
L 408.432703 -82.588774 
L 408.310456 -80.744747 
L 408.192976 -78.900719 
L 408.076536 -77.056692 
L 407.962893 -75.212665 
L 407.856407 -73.368637 
L 407.7613 -71.52461 
L 407.679899 -69.680582 
L 407.612221 -67.836555 
L 407.556692 -65.992528 
L 407.511287 -64.1485 
L 407.474404 -62.304473 
L 407.445099 -60.460446 
L 407.422783 -58.616418 
L 407.406796 -56.772391 
L 407.396165 -54.928364 
z
" style="stroke: #3f3f3f; stroke-width: 1.25"/>
    </defs>
    <g clip-path="url(#p7b81ad799e)">
     <use xlink:href="#m8acdae1e91" x="0" y="345.6" style="fill: #3274a1; stroke: #3f3f3f; stroke-width: 1.25"/>
    </g>
   </g>
   <g id="matplotlib.axis_1">
    <g id="xtick_1">
     <g id="line2d_1">
      <defs>
       <path id="m3e66238c15" d="M 0 0 
L 0 3.5 
" style="stroke: #000000; stroke-width: 0.8"/>
      </defs>
      <g>
       <use xlink:href="#m3e66238c15" x="98.560201" y="303.896" style="stroke: #000000; stroke-width: 0.8"/>
      </g>
     </g>
     <g id="text_1">
      <!-- Fluency -->
      <g transform="translate(79.172701 318.494438) scale(0.1 -0.1)">
       <defs>
        <path id="DejaVuSans-46" d="M 628 4666 
L 3309 4666 
L 3309 4134 
L 1259 4134 
L 1259 2759 
L 3109 2759 
L 3109 2228 
L 1259 2228 
L 1259 0 
L 628 0 
L 628 4666 
z
" transform="scale(0.015625)"/>
        <path id="DejaVuSans-6c" d="M 603 4863 
L 1178 4863 
L 1178 0 
L 603 0 
L 603 4863 
z
" transform="scale(0.015625)"/>
        <path id="DejaVuSans-75" d="M 544 1381 
L 544 3500 
L 1119 3500 
L 1119 1403 
Q 1119 906 1312 657 
Q 1506 409 1894 409 
Q 2359 409 2629 706 
Q 2900 1003 2900 1516 
L 2900 3500 
L 3475 3500 
L 3475 0 
L 2900 0 
L 2900 538 
Q 2691 219 2414 64 
Q 2138 -91 1772 -91 
Q 1169 -91 856 284 
Q 544 659 544 1381 
z
M 1991 3584 
L 1991 3584 
z
" transform="scale(0.015625)"/>
        <path id="DejaVuSans-65" d="M 3597 1894 
L 3597 1613 
L 953 1613 
Q 991 1019 1311 708 
Q 1631 397 2203 397 
Q 2534 397 2845 478 
Q 3156 559 3463 722 
L 3463 178 
Q 3153 47 2828 -22 
Q 2503 -91 2169 -91 
Q 1331 -91 842 396 
Q 353 884 353 1716 
Q 353 2575 817 3079 
Q 1281 3584 2069 3584 
Q 2775 3584 3186 3129 
Q 3597 2675 3597 1894 
z
M 3022 2063 
Q 3016 2534 2758 2815 
Q 2500 3097 2075 3097 
Q 1594 3097 1305 2825 
Q 1016 2553 972 2059 
L 3022 2063 
z
" transform="scale(0.015625)"/>
        <path id="DejaVuSans-6e" d="M 3513 2113 
L 3513 0 
L 2938 0 
L 2938 2094 
Q 2938 2591 2744 2837 
Q 2550 3084 2163 3084 
Q 1697 3084 1428 2787 
Q 1159 2491 1159 1978 
L 1159 0 
L 581 0 
L 581 3500 
L 1159 3500 
L 1159 2956 
Q 1366 3272 1645 3428 
Q 1925 3584 2291 3584 
Q 2894 3584 3203 3211 
Q 3513 2838 3513 2113 
z
" transform="scale(0.015625)"/>
        <path id="DejaVuSans-63" d="M 3122 3366 
L 3122 2828 
Q 2878 2963 2633 3030 
Q 2388 3097 2138 3097 
Q 1578 3097 1268 2742 
Q 959 2388 959 1747 
Q 959 1106 1268 751 
Q 1578 397 2138 397 
Q 2388 397 2633 464 
Q 2878 531 3122 666 
L 3122 134 
Q 2881 22 2623 -34 
Q 2366 -91 2075 -91 
Q 1284 -91 818 406 
Q 353 903 353 1747 
Q 353 2603 823 3093 
Q 1294 3584 2113 3584 
Q 2378 3584 2631 3529 
Q 2884 3475 3122 3366 
z
" transform="scale(0.015625)"/>
        <path id="DejaVuSans-79" d="M 2059 -325 
Q 1816 -950 1584 -1140 
Q 1353 -1331 966 -1331 
L 506 -1331 
L 506 -850 
L 844 -850 
Q 1081 -850 1212 -737 
Q 1344 -625 1503 -206 
L 1606 56 
L 191 3500 
L 800 3500 
L 1894 763 
L 2988 3500 
L 3597 3500 
L 2059 -325 
z
" transform="scale(0.015625)"/>
       </defs>
       <use xlink:href="#DejaVuSans-46"/>
       <use xlink:href="#DejaVuSans-6c" x="57.519531"/>
       <use xlink:href="#DejaVuSans-75" x="85.302734"/>
       <use xlink:href="#DejaVuSans-65" x="148.681641"/>
       <use xlink:href="#DejaVuSans-6e" x="210.205078"/>
       <use xlink:href="#DejaVuSans-63" x="273.583984"/>
       <use xlink:href="#DejaVuSans-79" x="328.564453"/>
      </g>
      <!--  classifier -->
      <g transform="translate(74.889107 329.69225) scale(0.1 -0.1)">
       <defs>
        <path id="DejaVuSans-20" transform="scale(0.015625)"/>
        <path id="DejaVuSans-61" d="M 2194 1759 
Q 1497 1759 1228 1600 
Q 959 1441 959 1056 
Q 959 750 1161 570 
Q 1363 391 1709 391 
Q 2188 391 2477 730 
Q 2766 1069 2766 1631 
L 2766 1759 
L 2194 1759 
z
M 3341 1997 
L 3341 0 
L 2766 0 
L 2766 531 
Q 2569 213 2275 61 
Q 1981 -91 1556 -91 
Q 1019 -91 701 211 
Q 384 513 384 1019 
Q 384 1609 779 1909 
Q 1175 2209 1959 2209 
L 2766 2209 
L 2766 2266 
Q 2766 2663 2505 2880 
Q 2244 3097 1772 3097 
Q 1472 3097 1187 3025 
Q 903 2953 641 2809 
L 641 3341 
Q 956 3463 1253 3523 
Q 1550 3584 1831 3584 
Q 2591 3584 2966 3190 
Q 3341 2797 3341 1997 
z
" transform="scale(0.015625)"/>
        <path id="DejaVuSans-73" d="M 2834 3397 
L 2834 2853 
Q 2591 2978 2328 3040 
Q 2066 3103 1784 3103 
Q 1356 3103 1142 2972 
Q 928 2841 928 2578 
Q 928 2378 1081 2264 
Q 1234 2150 1697 2047 
L 1894 2003 
Q 2506 1872 2764 1633 
Q 3022 1394 3022 966 
Q 3022 478 2636 193 
Q 2250 -91 1575 -91 
Q 1294 -91 989 -36 
Q 684 19 347 128 
L 347 722 
Q 666 556 975 473 
Q 1284 391 1588 391 
Q 1994 391 2212 530 
Q 2431 669 2431 922 
Q 2431 1156 2273 1281 
Q 2116 1406 1581 1522 
L 1381 1569 
Q 847 1681 609 1914 
Q 372 2147 372 2553 
Q 372 3047 722 3315 
Q 1072 3584 1716 3584 
Q 2034 3584 2315 3537 
Q 2597 3491 2834 3397 
z
" transform="scale(0.015625)"/>
        <path id="DejaVuSans-69" d="M 603 3500 
L 1178 3500 
L 1178 0 
L 603 0 
L 603 3500 
z
M 603 4863 
L 1178 4863 
L 1178 4134 
L 603 4134 
L 603 4863 
z
" transform="scale(0.015625)"/>
        <path id="DejaVuSans-66" d="M 2375 4863 
L 2375 4384 
L 1825 4384 
Q 1516 4384 1395 4259 
Q 1275 4134 1275 3809 
L 1275 3500 
L 2222 3500 
L 2222 3053 
L 1275 3053 
L 1275 0 
L 697 0 
L 697 3053 
L 147 3053 
L 147 3500 
L 697 3500 
L 697 3744 
Q 697 4328 969 4595 
Q 1241 4863 1831 4863 
L 2375 4863 
z
" transform="scale(0.015625)"/>
        <path id="DejaVuSans-72" d="M 2631 2963 
Q 2534 3019 2420 3045 
Q 2306 3072 2169 3072 
Q 1681 3072 1420 2755 
Q 1159 2438 1159 1844 
L 1159 0 
L 581 0 
L 581 3500 
L 1159 3500 
L 1159 2956 
Q 1341 3275 1631 3429 
Q 1922 3584 2338 3584 
Q 2397 3584 2469 3576 
Q 2541 3569 2628 3553 
L 2631 2963 
z
" transform="scale(0.015625)"/>
       </defs>
       <use xlink:href="#DejaVuSans-20"/>
       <use xlink:href="#DejaVuSans-63" x="31.787109"/>
       <use xlink:href="#DejaVuSans-6c" x="86.767578"/>
       <use xlink:href="#DejaVuSans-61" x="114.550781"/>
       <use xlink:href="#DejaVuSans-73" x="175.830078"/>
       <use xlink:href="#DejaVuSans-73" x="227.929688"/>
       <use xlink:href="#DejaVuSans-69" x="280.029297"/>
       <use xlink:href="#DejaVuSans-66" x="307.8125"/>
       <use xlink:href="#DejaVuSans-69" x="343.017578"/>
       <use xlink:href="#DejaVuSans-65" x="370.800781"/>
       <use xlink:href="#DejaVuSans-72" x="432.324219"/>
      </g>
     </g>
    </g>
    <g id="xtick_2">
     <g id="line2d_2">
      <g>
       <use xlink:href="#m3e66238c15" x="175.765822" y="303.896" style="stroke: #000000; stroke-width: 0.8"/>
      </g>
     </g>
     <g id="text_2">
      <!-- Screening -->
      <g transform="translate(150.845509 318.494438) scale(0.1 -0.1)">
       <defs>
        <path id="DejaVuSans-53" d="M 3425 4513 
L 3425 3897 
Q 3066 4069 2747 4153 
Q 2428 4238 2131 4238 
Q 1616 4238 1336 4038 
Q 1056 3838 1056 3469 
Q 1056 3159 1242 3001 
Q 1428 2844 1947 2747 
L 2328 2669 
Q 3034 2534 3370 2195 
Q 3706 1856 3706 1288 
Q 3706 609 3251 259 
Q 2797 -91 1919 -91 
Q 1588 -91 1214 -16 
Q 841 59 441 206 
L 441 856 
Q 825 641 1194 531 
Q 1563 422 1919 422 
Q 2459 422 2753 634 
Q 3047 847 3047 1241 
Q 3047 1584 2836 1778 
Q 2625 1972 2144 2069 
L 1759 2144 
Q 1053 2284 737 2584 
Q 422 2884 422 3419 
Q 422 4038 858 4394 
Q 1294 4750 2059 4750 
Q 2388 4750 2728 4690 
Q 3069 4631 3425 4513 
z
" transform="scale(0.015625)"/>
        <path id="DejaVuSans-67" d="M 2906 1791 
Q 2906 2416 2648 2759 
Q 2391 3103 1925 3103 
Q 1463 3103 1205 2759 
Q 947 2416 947 1791 
Q 947 1169 1205 825 
Q 1463 481 1925 481 
Q 2391 481 2648 825 
Q 2906 1169 2906 1791 
z
M 3481 434 
Q 3481 -459 3084 -895 
Q 2688 -1331 1869 -1331 
Q 1566 -1331 1297 -1286 
Q 1028 -1241 775 -1147 
L 775 -588 
Q 1028 -725 1275 -790 
Q 1522 -856 1778 -856 
Q 2344 -856 2625 -561 
Q 2906 -266 2906 331 
L 2906 616 
Q 2728 306 2450 153 
Q 2172 0 1784 0 
Q 1141 0 747 490 
Q 353 981 353 1791 
Q 353 2603 747 3093 
Q 1141 3584 1784 3584 
Q 2172 3584 2450 3431 
Q 2728 3278 2906 2969 
L 2906 3500 
L 3481 3500 
L 3481 434 
z
" transform="scale(0.015625)"/>
       </defs>
       <use xlink:href="#DejaVuSans-53"/>
       <use xlink:href="#DejaVuSans-63" x="63.476562"/>
       <use xlink:href="#DejaVuSans-72" x="118.457031"/>
       <use xlink:href="#DejaVuSans-65" x="157.320312"/>
       <use xlink:href="#DejaVuSans-65" x="218.84375"/>
       <use xlink:href="#DejaVuSans-6e" x="280.367188"/>
       <use xlink:href="#DejaVuSans-69" x="343.746094"/>
       <use xlink:href="#DejaVuSans-6e" x="371.529297"/>
       <use xlink:href="#DejaVuSans-67" x="434.908203"/>
      </g>
      <!--  classifier -->
      <g transform="translate(152.094728 329.69225) scale(0.1 -0.1)">
       <use xlink:href="#DejaVuSans-20"/>
       <use xlink:href="#DejaVuSans-63" x="31.787109"/>
       <use xlink:href="#DejaVuSans-6c" x="86.767578"/>
       <use xlink:href="#DejaVuSans-61" x="114.550781"/>
       <use xlink:href="#DejaVuSans-73" x="175.830078"/>
       <use xlink:href="#DejaVuSans-73" x="227.929688"/>
       <use xlink:href="#DejaVuSans-69" x="280.029297"/>
       <use xlink:href="#DejaVuSans-66" x="307.8125"/>
       <use xlink:href="#DejaVuSans-69" x="343.017578"/>
       <use xlink:href="#DejaVuSans-65" x="370.800781"/>
       <use xlink:href="#DejaVuSans-72" x="432.324219"/>
      </g>
     </g>
    </g>
    <g id="xtick_3">
     <g id="line2d_3">
      <g>
       <use xlink:href="#m3e66238c15" x="252.971442" y="303.896" style="stroke: #000000; stroke-width: 0.8"/>
      </g>
     </g>
     <g id="text_3">
      <!-- Executive -->
      <g transform="translate(228.629254 318.494438) scale(0.1 -0.1)">
       <defs>
        <path id="DejaVuSans-45" d="M 628 4666 
L 3578 4666 
L 3578 4134 
L 1259 4134 
L 1259 2753 
L 3481 2753 
L 3481 2222 
L 1259 2222 
L 1259 531 
L 3634 531 
L 3634 0 
L 628 0 
L 628 4666 
z
" transform="scale(0.015625)"/>
        <path id="DejaVuSans-78" d="M 3513 3500 
L 2247 1797 
L 3578 0 
L 2900 0 
L 1881 1375 
L 863 0 
L 184 0 
L 1544 1831 
L 300 3500 
L 978 3500 
L 1906 2253 
L 2834 3500 
L 3513 3500 
z
" transform="scale(0.015625)"/>
        <path id="DejaVuSans-74" d="M 1172 4494 
L 1172 3500 
L 2356 3500 
L 2356 3053 
L 1172 3053 
L 1172 1153 
Q 1172 725 1289 603 
Q 1406 481 1766 481 
L 2356 481 
L 2356 0 
L 1766 0 
Q 1100 0 847 248 
Q 594 497 594 1153 
L 594 3053 
L 172 3053 
L 172 3500 
L 594 3500 
L 594 4494 
L 1172 4494 
z
" transform="scale(0.015625)"/>
        <path id="DejaVuSans-76" d="M 191 3500 
L 800 3500 
L 1894 563 
L 2988 3500 
L 3597 3500 
L 2284 0 
L 1503 0 
L 191 3500 
z
" transform="scale(0.015625)"/>
       </defs>
       <use xlink:href="#DejaVuSans-45"/>
       <use xlink:href="#DejaVuSans-78" x="63.183594"/>
       <use xlink:href="#DejaVuSans-65" x="119.238281"/>
       <use xlink:href="#DejaVuSans-63" x="180.761719"/>
       <use xlink:href="#DejaVuSans-75" x="235.742188"/>
       <use xlink:href="#DejaVuSans-74" x="299.121094"/>
       <use xlink:href="#DejaVuSans-69" x="338.330078"/>
       <use xlink:href="#DejaVuSans-76" x="366.113281"/>
       <use xlink:href="#DejaVuSans-65" x="425.292969"/>
      </g>
      <!--  classifier -->
      <g transform="translate(229.300348 329.69225) scale(0.1 -0.1)">
       <use xlink:href="#DejaVuSans-20"/>
       <use xlink:href="#DejaVuSans-63" x="31.787109"/>
       <use xlink:href="#DejaVuSans-6c" x="86.767578"/>
       <use xlink:href="#DejaVuSans-61" x="114.550781"/>
       <use xlink:href="#DejaVuSans-73" x="175.830078"/>
       <use xlink:href="#DejaVuSans-73" x="227.929688"/>
       <use xlink:href="#DejaVuSans-69" x="280.029297"/>
       <use xlink:href="#DejaVuSans-66" x="307.8125"/>
       <use xlink:href="#DejaVuSans-69" x="343.017578"/>
       <use xlink:href="#DejaVuSans-65" x="370.800781"/>
       <use xlink:href="#DejaVuSans-72" x="432.324219"/>
      </g>
     </g>
    </g>
    <g id="xtick_4">
     <g id="line2d_4">
      <g>
       <use xlink:href="#m3e66238c15" x="330.177062" y="303.896" style="stroke: #000000; stroke-width: 0.8"/>
      </g>
     </g>
     <g id="text_4">
      <!-- Structural -->
      <g transform="translate(305.43175 318.494438) scale(0.1 -0.1)">
       <use xlink:href="#DejaVuSans-53"/>
       <use xlink:href="#DejaVuSans-74" x="63.476562"/>
       <use xlink:href="#DejaVuSans-72" x="102.685547"/>
       <use xlink:href="#DejaVuSans-75" x="143.798828"/>
       <use xlink:href="#DejaVuSans-63" x="207.177734"/>
       <use xlink:href="#DejaVuSans-74" x="262.158203"/>
       <use xlink:href="#DejaVuSans-75" x="301.367188"/>
       <use xlink:href="#DejaVuSans-72" x="364.746094"/>
       <use xlink:href="#DejaVuSans-61" x="405.859375"/>
       <use xlink:href="#DejaVuSans-6c" x="467.138672"/>
      </g>
      <!--  classifier -->
      <g transform="translate(306.505969 329.69225) scale(0.1 -0.1)">
       <use xlink:href="#DejaVuSans-20"/>
       <use xlink:href="#DejaVuSans-63" x="31.787109"/>
       <use xlink:href="#DejaVuSans-6c" x="86.767578"/>
       <use xlink:href="#DejaVuSans-61" x="114.550781"/>
       <use xlink:href="#DejaVuSans-73" x="175.830078"/>
       <use xlink:href="#DejaVuSans-73" x="227.929688"/>
       <use xlink:href="#DejaVuSans-69" x="280.029297"/>
       <use xlink:href="#DejaVuSans-66" x="307.8125"/>
       <use xlink:href="#DejaVuSans-69" x="343.017578"/>
       <use xlink:href="#DejaVuSans-65" x="370.800781"/>
       <use xlink:href="#DejaVuSans-72" x="432.324219"/>
      </g>
     </g>
    </g>
    <g id="xtick_5">
     <g id="line2d_5">
      <g>
       <use xlink:href="#m3e66238c15" x="407.382683" y="303.896" style="stroke: #000000; stroke-width: 0.8"/>
      </g>
     </g>
     <g id="text_5">
      <!-- Functional -->
      <g transform="translate(381.664714 318.494438) scale(0.1 -0.1)">
       <defs>
        <path id="DejaVuSans-6f" d="M 1959 3097 
Q 1497 3097 1228 2736 
Q 959 2375 959 1747 
Q 959 1119 1226 758 
Q 1494 397 1959 397 
Q 2419 397 2687 759 
Q 2956 1122 2956 1747 
Q 2956 2369 2687 2733 
Q 2419 3097 1959 3097 
z
M 1959 3584 
Q 2709 3584 3137 3096 
Q 3566 2609 3566 1747 
Q 3566 888 3137 398 
Q 2709 -91 1959 -91 
Q 1206 -91 779 398 
Q 353 888 353 1747 
Q 353 2609 779 3096 
Q 1206 3584 1959 3584 
z
" transform="scale(0.015625)"/>
       </defs>
       <use xlink:href="#DejaVuSans-46"/>
       <use xlink:href="#DejaVuSans-75" x="52.019531"/>
       <use xlink:href="#DejaVuSans-6e" x="115.398438"/>
       <use xlink:href="#DejaVuSans-63" x="178.777344"/>
       <use xlink:href="#DejaVuSans-74" x="233.757812"/>
       <use xlink:href="#DejaVuSans-69" x="272.966797"/>
       <use xlink:href="#DejaVuSans-6f" x="300.75"/>
       <use xlink:href="#DejaVuSans-6e" x="361.931641"/>
       <use xlink:href="#DejaVuSans-61" x="425.310547"/>
       <use xlink:href="#DejaVuSans-6c" x="486.589844"/>
      </g>
      <!--  classifier -->
      <g transform="translate(383.711589 329.69225) scale(0.1 -0.1)">
       <use xlink:href="#DejaVuSans-20"/>
       <use xlink:href="#DejaVuSans-63" x="31.787109"/>
       <use xlink:href="#DejaVuSans-6c" x="86.767578"/>
       <use xlink:href="#DejaVuSans-61" x="114.550781"/>
       <use xlink:href="#DejaVuSans-73" x="175.830078"/>
       <use xlink:href="#DejaVuSans-73" x="227.929688"/>
       <use xlink:href="#DejaVuSans-69" x="280.029297"/>
       <use xlink:href="#DejaVuSans-66" x="307.8125"/>
       <use xlink:href="#DejaVuSans-69" x="343.017578"/>
       <use xlink:href="#DejaVuSans-65" x="370.800781"/>
       <use xlink:href="#DejaVuSans-72" x="432.324219"/>
      </g>
     </g>
    </g>
   </g>
   <g id="matplotlib.axis_2">
    <g id="ytick_1">
     <g id="line2d_6">
      <defs>
       <path id="mf9352f86b2" d="M 0 0 
L -3.5 0 
" style="stroke: #000000; stroke-width: 0.8"/>
      </defs>
      <g>
       <use xlink:href="#mf9352f86b2" x="52.76" y="297.507152" style="stroke: #000000; stroke-width: 0.8"/>
      </g>
     </g>
     <g id="text_6">
      <!-- 0.3 -->
      <g transform="translate(29.856875 301.306371) scale(0.1 -0.1)">
       <defs>
        <path id="DejaVuSans-30" d="M 2034 4250 
Q 1547 4250 1301 3770 
Q 1056 3291 1056 2328 
Q 1056 1369 1301 889 
Q 1547 409 2034 409 
Q 2525 409 2770 889 
Q 3016 1369 3016 2328 
Q 3016 3291 2770 3770 
Q 2525 4250 2034 4250 
z
M 2034 4750 
Q 2819 4750 3233 4129 
Q 3647 3509 3647 2328 
Q 3647 1150 3233 529 
Q 2819 -91 2034 -91 
Q 1250 -91 836 529 
Q 422 1150 422 2328 
Q 422 3509 836 4129 
Q 1250 4750 2034 4750 
z
" transform="scale(0.015625)"/>
        <path id="DejaVuSans-2e" d="M 684 794 
L 1344 794 
L 1344 0 
L 684 0 
L 684 794 
z
" transform="scale(0.015625)"/>
        <path id="DejaVuSans-33" d="M 2597 2516 
Q 3050 2419 3304 2112 
Q 3559 1806 3559 1356 
Q 3559 666 3084 287 
Q 2609 -91 1734 -91 
Q 1441 -91 1130 -33 
Q 819 25 488 141 
L 488 750 
Q 750 597 1062 519 
Q 1375 441 1716 441 
Q 2309 441 2620 675 
Q 2931 909 2931 1356 
Q 2931 1769 2642 2001 
Q 2353 2234 1838 2234 
L 1294 2234 
L 1294 2753 
L 1863 2753 
Q 2328 2753 2575 2939 
Q 2822 3125 2822 3475 
Q 2822 3834 2567 4026 
Q 2313 4219 1838 4219 
Q 1578 4219 1281 4162 
Q 984 4106 628 3988 
L 628 4550 
Q 988 4650 1302 4700 
Q 1616 4750 1894 4750 
Q 2613 4750 3031 4423 
Q 3450 4097 3450 3541 
Q 3450 3153 3228 2886 
Q 3006 2619 2597 2516 
z
" transform="scale(0.015625)"/>
       </defs>
       <use xlink:href="#DejaVuSans-30"/>
       <use xlink:href="#DejaVuSans-2e" x="63.623047"/>
       <use xlink:href="#DejaVuSans-33" x="95.410156"/>
      </g>
     </g>
    </g>
    <g id="ytick_2">
     <g id="line2d_7">
      <g>
       <use xlink:href="#mf9352f86b2" x="52.76" y="260.722953" style="stroke: #000000; stroke-width: 0.8"/>
      </g>
     </g>
     <g id="text_7">
      <!-- 0.4 -->
      <g transform="translate(29.856875 264.522171) scale(0.1 -0.1)">
       <defs>
        <path id="DejaVuSans-34" d="M 2419 4116 
L 825 1625 
L 2419 1625 
L 2419 4116 
z
M 2253 4666 
L 3047 4666 
L 3047 1625 
L 3713 1625 
L 3713 1100 
L 3047 1100 
L 3047 0 
L 2419 0 
L 2419 1100 
L 313 1100 
L 313 1709 
L 2253 4666 
z
" transform="scale(0.015625)"/>
       </defs>
       <use xlink:href="#DejaVuSans-30"/>
       <use xlink:href="#DejaVuSans-2e" x="63.623047"/>
       <use xlink:href="#DejaVuSans-34" x="95.410156"/>
      </g>
     </g>
    </g>
    <g id="ytick_3">
     <g id="line2d_8">
      <g>
       <use xlink:href="#mf9352f86b2" x="52.76" y="223.938753" style="stroke: #000000; stroke-width: 0.8"/>
      </g>
     </g>
     <g id="text_8">
      <!-- 0.5 -->
      <g transform="translate(29.856875 227.737972) scale(0.1 -0.1)">
       <defs>
        <path id="DejaVuSans-35" d="M 691 4666 
L 3169 4666 
L 3169 4134 
L 1269 4134 
L 1269 2991 
Q 1406 3038 1543 3061 
Q 1681 3084 1819 3084 
Q 2600 3084 3056 2656 
Q 3513 2228 3513 1497 
Q 3513 744 3044 326 
Q 2575 -91 1722 -91 
Q 1428 -91 1123 -41 
Q 819 9 494 109 
L 494 744 
Q 775 591 1075 516 
Q 1375 441 1709 441 
Q 2250 441 2565 725 
Q 2881 1009 2881 1497 
Q 2881 1984 2565 2268 
Q 2250 2553 1709 2553 
Q 1456 2553 1204 2497 
Q 953 2441 691 2322 
L 691 4666 
z
" transform="scale(0.015625)"/>
       </defs>
       <use xlink:href="#DejaVuSans-30"/>
       <use xlink:href="#DejaVuSans-2e" x="63.623047"/>
       <use xlink:href="#DejaVuSans-35" x="95.410156"/>
      </g>
     </g>
    </g>
    <g id="ytick_4">
     <g id="line2d_9">
      <g>
       <use xlink:href="#mf9352f86b2" x="52.76" y="187.154553" style="stroke: #000000; stroke-width: 0.8"/>
      </g>
     </g>
     <g id="text_9">
      <!-- 0.6 -->
      <g transform="translate(29.856875 190.953772) scale(0.1 -0.1)">
       <defs>
        <path id="DejaVuSans-36" d="M 2113 2584 
Q 1688 2584 1439 2293 
Q 1191 2003 1191 1497 
Q 1191 994 1439 701 
Q 1688 409 2113 409 
Q 2538 409 2786 701 
Q 3034 994 3034 1497 
Q 3034 2003 2786 2293 
Q 2538 2584 2113 2584 
z
M 3366 4563 
L 3366 3988 
Q 3128 4100 2886 4159 
Q 2644 4219 2406 4219 
Q 1781 4219 1451 3797 
Q 1122 3375 1075 2522 
Q 1259 2794 1537 2939 
Q 1816 3084 2150 3084 
Q 2853 3084 3261 2657 
Q 3669 2231 3669 1497 
Q 3669 778 3244 343 
Q 2819 -91 2113 -91 
Q 1303 -91 875 529 
Q 447 1150 447 2328 
Q 447 3434 972 4092 
Q 1497 4750 2381 4750 
Q 2619 4750 2861 4703 
Q 3103 4656 3366 4563 
z
" transform="scale(0.015625)"/>
       </defs>
       <use xlink:href="#DejaVuSans-30"/>
       <use xlink:href="#DejaVuSans-2e" x="63.623047"/>
       <use xlink:href="#DejaVuSans-36" x="95.410156"/>
      </g>
     </g>
    </g>
    <g id="ytick_5">
     <g id="line2d_10">
      <g>
       <use xlink:href="#mf9352f86b2" x="52.76" y="150.370353" style="stroke: #000000; stroke-width: 0.8"/>
      </g>
     </g>
     <g id="text_10">
      <!-- 0.7 -->
      <g transform="translate(29.856875 154.169572) scale(0.1 -0.1)">
       <defs>
        <path id="DejaVuSans-37" d="M 525 4666 
L 3525 4666 
L 3525 4397 
L 1831 0 
L 1172 0 
L 2766 4134 
L 525 4134 
L 525 4666 
z
" transform="scale(0.015625)"/>
       </defs>
       <use xlink:href="#DejaVuSans-30"/>
       <use xlink:href="#DejaVuSans-2e" x="63.623047"/>
       <use xlink:href="#DejaVuSans-37" x="95.410156"/>
      </g>
     </g>
    </g>
    <g id="ytick_6">
     <g id="line2d_11">
      <g>
       <use xlink:href="#mf9352f86b2" x="52.76" y="113.586153" style="stroke: #000000; stroke-width: 0.8"/>
      </g>
     </g>
     <g id="text_11">
      <!-- 0.8 -->
      <g transform="translate(29.856875 117.385372) scale(0.1 -0.1)">
       <defs>
        <path id="DejaVuSans-38" d="M 2034 2216 
Q 1584 2216 1326 1975 
Q 1069 1734 1069 1313 
Q 1069 891 1326 650 
Q 1584 409 2034 409 
Q 2484 409 2743 651 
Q 3003 894 3003 1313 
Q 3003 1734 2745 1975 
Q 2488 2216 2034 2216 
z
M 1403 2484 
Q 997 2584 770 2862 
Q 544 3141 544 3541 
Q 544 4100 942 4425 
Q 1341 4750 2034 4750 
Q 2731 4750 3128 4425 
Q 3525 4100 3525 3541 
Q 3525 3141 3298 2862 
Q 3072 2584 2669 2484 
Q 3125 2378 3379 2068 
Q 3634 1759 3634 1313 
Q 3634 634 3220 271 
Q 2806 -91 2034 -91 
Q 1263 -91 848 271 
Q 434 634 434 1313 
Q 434 1759 690 2068 
Q 947 2378 1403 2484 
z
M 1172 3481 
Q 1172 3119 1398 2916 
Q 1625 2713 2034 2713 
Q 2441 2713 2670 2916 
Q 2900 3119 2900 3481 
Q 2900 3844 2670 4047 
Q 2441 4250 2034 4250 
Q 1625 4250 1398 4047 
Q 1172 3844 1172 3481 
z
" transform="scale(0.015625)"/>
       </defs>
       <use xlink:href="#DejaVuSans-30"/>
       <use xlink:href="#DejaVuSans-2e" x="63.623047"/>
       <use xlink:href="#DejaVuSans-38" x="95.410156"/>
      </g>
     </g>
    </g>
    <g id="ytick_7">
     <g id="line2d_12">
      <g>
       <use xlink:href="#mf9352f86b2" x="52.76" y="76.801954" style="stroke: #000000; stroke-width: 0.8"/>
      </g>
     </g>
     <g id="text_12">
      <!-- 0.9 -->
      <g transform="translate(29.856875 80.601172) scale(0.1 -0.1)">
       <defs>
        <path id="DejaVuSans-39" d="M 703 97 
L 703 672 
Q 941 559 1184 500 
Q 1428 441 1663 441 
Q 2288 441 2617 861 
Q 2947 1281 2994 2138 
Q 2813 1869 2534 1725 
Q 2256 1581 1919 1581 
Q 1219 1581 811 2004 
Q 403 2428 403 3163 
Q 403 3881 828 4315 
Q 1253 4750 1959 4750 
Q 2769 4750 3195 4129 
Q 3622 3509 3622 2328 
Q 3622 1225 3098 567 
Q 2575 -91 1691 -91 
Q 1453 -91 1209 -44 
Q 966 3 703 97 
z
M 1959 2075 
Q 2384 2075 2632 2365 
Q 2881 2656 2881 3163 
Q 2881 3666 2632 3958 
Q 2384 4250 1959 4250 
Q 1534 4250 1286 3958 
Q 1038 3666 1038 3163 
Q 1038 2656 1286 2365 
Q 1534 2075 1959 2075 
z
" transform="scale(0.015625)"/>
       </defs>
       <use xlink:href="#DejaVuSans-30"/>
       <use xlink:href="#DejaVuSans-2e" x="63.623047"/>
       <use xlink:href="#DejaVuSans-39" x="95.410156"/>
      </g>
     </g>
    </g>
    <g id="ytick_8">
     <g id="line2d_13">
      <g>
       <use xlink:href="#mf9352f86b2" x="52.76" y="40.017754" style="stroke: #000000; stroke-width: 0.8"/>
      </g>
     </g>
     <g id="text_13">
      <!-- 1.0 -->
      <g transform="translate(29.856875 43.816973) scale(0.1 -0.1)">
       <defs>
        <path id="DejaVuSans-31" d="M 794 531 
L 1825 531 
L 1825 4091 
L 703 3866 
L 703 4441 
L 1819 4666 
L 2450 4666 
L 2450 531 
L 3481 531 
L 3481 0 
L 794 0 
L 794 531 
z
" transform="scale(0.015625)"/>
       </defs>
       <use xlink:href="#DejaVuSans-31"/>
       <use xlink:href="#DejaVuSans-2e" x="63.623047"/>
       <use xlink:href="#DejaVuSans-30" x="95.410156"/>
      </g>
     </g>
    </g>
    <g id="text_14">
     <!-- RECALL -->
     <g transform="translate(23.36125 181.368625) rotate(-90) scale(0.12 -0.12)">
      <defs>
       <path id="DejaVuSans-52" d="M 2841 2188 
Q 3044 2119 3236 1894 
Q 3428 1669 3622 1275 
L 4263 0 
L 3584 0 
L 2988 1197 
Q 2756 1666 2539 1819 
Q 2322 1972 1947 1972 
L 1259 1972 
L 1259 0 
L 628 0 
L 628 4666 
L 2053 4666 
Q 2853 4666 3247 4331 
Q 3641 3997 3641 3322 
Q 3641 2881 3436 2590 
Q 3231 2300 2841 2188 
z
M 1259 4147 
L 1259 2491 
L 2053 2491 
Q 2509 2491 2742 2702 
Q 2975 2913 2975 3322 
Q 2975 3731 2742 3939 
Q 2509 4147 2053 4147 
L 1259 4147 
z
" transform="scale(0.015625)"/>
       <path id="DejaVuSans-43" d="M 4122 4306 
L 4122 3641 
Q 3803 3938 3442 4084 
Q 3081 4231 2675 4231 
Q 1875 4231 1450 3742 
Q 1025 3253 1025 2328 
Q 1025 1406 1450 917 
Q 1875 428 2675 428 
Q 3081 428 3442 575 
Q 3803 722 4122 1019 
L 4122 359 
Q 3791 134 3420 21 
Q 3050 -91 2638 -91 
Q 1578 -91 968 557 
Q 359 1206 359 2328 
Q 359 3453 968 4101 
Q 1578 4750 2638 4750 
Q 3056 4750 3426 4639 
Q 3797 4528 4122 4306 
z
" transform="scale(0.015625)"/>
       <path id="DejaVuSans-41" d="M 2188 4044 
L 1331 1722 
L 3047 1722 
L 2188 4044 
z
M 1831 4666 
L 2547 4666 
L 4325 0 
L 3669 0 
L 3244 1197 
L 1141 1197 
L 716 0 
L 50 0 
L 1831 4666 
z
" transform="scale(0.015625)"/>
       <path id="DejaVuSans-4c" d="M 628 4666 
L 1259 4666 
L 1259 531 
L 3531 531 
L 3531 0 
L 628 0 
L 628 4666 
z
" transform="scale(0.015625)"/>
      </defs>
      <use xlink:href="#DejaVuSans-52"/>
      <use xlink:href="#DejaVuSans-45" x="69.482422"/>
      <use xlink:href="#DejaVuSans-43" x="132.666016"/>
      <use xlink:href="#DejaVuSans-41" x="202.490234"/>
      <use xlink:href="#DejaVuSans-4c" x="270.898438"/>
      <use xlink:href="#DejaVuSans-4c" x="326.611328"/>
     </g>
    </g>
   </g>
   <g id="LineCollection_1">
    <path d="M 98.560201 187.180302 
L 98.560201 105.16625 
" clip-path="url(#p7b81ad799e)" style="fill: none; stroke: #000000; stroke-width: 1.5"/>
    <path d="M 175.765822 176.12665 
L 175.765822 72.711551 
" clip-path="url(#p7b81ad799e)" style="fill: none; stroke: #000000; stroke-width: 1.5"/>
    <path d="M 252.971442 200.569751 
L 252.971442 105.177285 
" clip-path="url(#p7b81ad799e)" style="fill: none; stroke: #000000; stroke-width: 1.5"/>
    <path d="M 330.177062 142.204261 
L 330.177062 68.131918 
" clip-path="url(#p7b81ad799e)" style="fill: none; stroke: #000000; stroke-width: 1.5"/>
    <path d="M 407.382683 247.521103 
L 407.382683 151.679871 
" clip-path="url(#p7b81ad799e)" style="fill: none; stroke: #000000; stroke-width: 1.5"/>
   </g>
   <g id="line2d_14">
    <defs>
     <path id="m7996e4a2b8" d="M 5 0 
L -5 -0 
" style="stroke: #000000"/>
    </defs>
    <g clip-path="url(#p7b81ad799e)">
     <use xlink:href="#m7996e4a2b8" x="98.560201" y="187.180302" style="stroke: #000000"/>
     <use xlink:href="#m7996e4a2b8" x="175.765822" y="176.12665" style="stroke: #000000"/>
     <use xlink:href="#m7996e4a2b8" x="252.971442" y="200.569751" style="stroke: #000000"/>
     <use xlink:href="#m7996e4a2b8" x="330.177062" y="142.204261" style="stroke: #000000"/>
     <use xlink:href="#m7996e4a2b8" x="407.382683" y="247.521103" style="stroke: #000000"/>
    </g>
   </g>
   <g id="line2d_15">
    <g clip-path="url(#p7b81ad799e)">
     <use xlink:href="#m7996e4a2b8" x="98.560201" y="105.16625" style="stroke: #000000"/>
     <use xlink:href="#m7996e4a2b8" x="175.765822" y="72.711551" style="stroke: #000000"/>
     <use xlink:href="#m7996e4a2b8" x="252.971442" y="105.177285" style="stroke: #000000"/>
     <use xlink:href="#m7996e4a2b8" x="330.177062" y="68.131918" style="stroke: #000000"/>
     <use xlink:href="#m7996e4a2b8" x="407.382683" y="151.679871" style="stroke: #000000"/>
    </g>
   </g>
   <g id="line2d_16">
    <defs>
     <path id="ma84878ffb6" d="M 0 5.656854 
L 5.656854 0 
L 0 -5.656854 
L -5.656854 0 
z
" style="stroke: #000000; stroke-linejoin: miter"/>
    </defs>
    <g clip-path="url(#p7b81ad799e)">
     <use xlink:href="#ma84878ffb6" x="98.560201" y="143.682986" style="stroke: #000000; stroke-linejoin: miter"/>
     <use xlink:href="#ma84878ffb6" x="175.765822" y="123.124296" style="stroke: #000000; stroke-linejoin: miter"/>
     <use xlink:href="#ma84878ffb6" x="252.971442" y="151.484914" style="stroke: #000000; stroke-linejoin: miter"/>
     <use xlink:href="#ma84878ffb6" x="330.177062" y="102.440541" style="stroke: #000000; stroke-linejoin: miter"/>
     <use xlink:href="#ma84878ffb6" x="407.382683" y="199.414727" style="stroke: #000000; stroke-linejoin: miter"/>
    </g>
   </g>
   <g id="patch_3">
    <path d="M 52.76 303.896 
L 52.76 12.96 
" style="fill: none; stroke: #000000; stroke-width: 0.8; stroke-linejoin: miter; stroke-linecap: square"/>
   </g>
   <g id="patch_4">
    <path d="M 447.84 303.896 
L 447.84 12.96 
" style="fill: none; stroke: #000000; stroke-width: 0.8; stroke-linejoin: miter; stroke-linecap: square"/>
   </g>
   <g id="patch_5">
    <path d="M 52.76 303.896 
L 447.84 303.896 
" style="fill: none; stroke: #000000; stroke-width: 0.8; stroke-linejoin: miter; stroke-linecap: square"/>
   </g>
   <g id="patch_6">
    <path d="M 52.76 12.96 
L 447.84 12.96 
" style="fill: none; stroke: #000000; stroke-width: 0.8; stroke-linejoin: miter; stroke-linecap: square"/>
   </g>
  </g>
 </g>
 <defs>
  <clipPath id="p7b81ad799e">
   <rect x="52.76" y="12.96" width="395.08" height="290.936"/>
  </clipPath>
 </defs>
</svg>
