<?xml version="1.0" encoding="utf-8" standalone="no"?>
<!DOCTYPE svg PUBLIC "-//W3C//DTD SVG 1.1//EN"
  "http://www.w3.org/Graphics/SVG/1.1/DTD/svg11.dtd">
<svg xmlns:xlink="http://www.w3.org/1999/xlink" width="460.8pt" height="345.6pt" viewBox="0 0 460.8 345.6" xmlns="http://www.w3.org/2000/svg" version="1.1">
 <metadata>
  <rdf:RDF xmlns:dc="http://purl.org/dc/elements/1.1/" xmlns:cc="http://creativecommons.org/ns#" xmlns:rdf="http://www.w3.org/1999/02/22-rdf-syntax-ns#">
   <cc:Work>
    <dc:type rdf:resource="http://purl.org/dc/dcmitype/StillImage"/>
    <dc:date>2025-09-22T13:48:47.491059</dc:date>
    <dc:format>image/svg+xml</dc:format>
    <dc:creator>
     <cc:Agent>
      <dc:title>Matplotlib v3.9.4, https://matplotlib.org/</dc:title>
     </cc:Agent>
    </dc:creator>
   </cc:Work>
  </rdf:RDF>
 </metadata>
 <defs>
  <style type="text/css">*{stroke-linejoin: round; stroke-linecap: butt}</style>
 </defs>
 <g id="figure_1">
  <g id="patch_1">
   <path d="M 0 345.6 
L 460.8 345.6 
L 460.8 0 
L 0 0 
z
" style="fill: #ffffff"/>
  </g>
  <g id="axes_1">
   <g id="patch_2">
    <path d="M 52.85 303.896 
L 447.84 303.896 
L 447.84 15.300744 
L 52.85 15.300744 
z
" style="fill: #ffffff"/>
   </g>
   <g id="PolyCollection_1">
    <defs>
     <path id="m5017c91a2c" d="M 90.853493 -113.993636 
L 90.789566 -113.993636 
L 90.760749 -116.046036 
L 90.713854 -118.098437 
L 90.642792 -120.150837 
L 90.54152 -122.203238 
L 90.404058 -124.255639 
L 90.223841 -126.308039 
L 89.992857 -128.36044 
L 89.701539 -130.41284 
L 89.340186 -132.465241 
L 88.901628 -134.517641 
L 88.383484 -136.570042 
L 87.788043 -138.622442 
L 87.119241 -140.674843 
L 86.378774 -142.727243 
L 85.565067 -144.779644 
L 84.677646 -146.832045 
L 83.725477 -148.884445 
L 82.733667 -150.936846 
L 81.742144 -152.989246 
L 80.794034 -155.041647 
L 79.918394 -157.094047 
L 79.116858 -159.146448 
L 78.362814 -161.198848 
L 77.61502 -163.251249 
L 76.83904 -165.303649 
L 76.025052 -167.35605 
L 75.192554 -169.408451 
L 74.380126 -171.460851 
L 73.626964 -173.513252 
L 72.957209 -175.565652 
L 72.375583 -177.618053 
L 71.875457 -179.670453 
L 71.452948 -181.722854 
L 71.117519 -183.775254 
L 70.892304 -185.827655 
L 70.804091 -187.880055 
L 70.869289 -189.932456 
L 71.084463 -191.984857 
L 71.426751 -194.037257 
L 71.863049 -196.089658 
L 72.361724 -198.142058 
L 72.900231 -200.194459 
L 73.466002 -202.246859 
L 74.052876 -204.29926 
L 74.657582 -206.35166 
L 75.279407 -208.404061 
L 75.922687 -210.456461 
L 76.598886 -212.508862 
L 77.324729 -214.561263 
L 78.115559 -216.613663 
L 78.976854 -218.666064 
L 79.898632 -220.718464 
L 80.855865 -222.770865 
L 81.814254 -224.823265 
L 82.738085 -226.875666 
L 83.597023 -228.928066 
L 84.370558 -230.980467 
L 85.050183 -233.032867 
L 85.639301 -235.085268 
L 86.150531 -237.137668 
L 86.600622 -239.190069 
L 87.00453 -241.24247 
L 87.371125 -243.29487 
L 87.702437 -245.347271 
L 87.99655 -247.399671 
L 88.252247 -249.452072 
L 88.472642 -251.504472 
L 88.665777 -253.556873 
L 88.842172 -255.609273 
L 89.011218 -257.661674 
L 89.17882 -259.714074 
L 89.347405 -261.766475 
L 89.517524 -263.818876 
L 89.689132 -265.871276 
L 89.861322 -267.923677 
L 90.030978 -269.976077 
L 90.192018 -272.028478 
L 90.336507 -274.080878 
L 90.457419 -276.133279 
L 90.551439 -278.185679 
L 90.620079 -280.23808 
L 90.668555 -282.29048 
L 90.703231 -284.342881 
L 90.729134 -286.395282 
L 90.748737 -288.447682 
L 90.762253 -290.500083 
L 90.768927 -292.552483 
L 90.768494 -294.604884 
L 90.762144 -296.657284 
L 90.752677 -298.709685 
L 90.743851 -300.762085 
L 90.739211 -302.814486 
L 90.740918 -304.866886 
L 90.749086 -306.919287 
L 90.761953 -308.971688 
L 90.776745 -311.024088 
L 90.790771 -313.076489 
L 90.802232 -315.128889 
L 90.810471 -317.18129 
L 90.832588 -317.18129 
L 90.832588 -317.18129 
L 90.840827 -315.128889 
L 90.852288 -313.076489 
L 90.866314 -311.024088 
L 90.881107 -308.971688 
L 90.893974 -306.919287 
L 90.902142 -304.866886 
L 90.903848 -302.814486 
L 90.899208 -300.762085 
L 90.890382 -298.709685 
L 90.880916 -296.657284 
L 90.874566 -294.604884 
L 90.874132 -292.552483 
L 90.880806 -290.500083 
L 90.894322 -288.447682 
L 90.913925 -286.395282 
L 90.939828 -284.342881 
L 90.974504 -282.29048 
L 91.022981 -280.23808 
L 91.091621 -278.185679 
L 91.18564 -276.133279 
L 91.306553 -274.080878 
L 91.451041 -272.028478 
L 91.612081 -269.976077 
L 91.781738 -267.923677 
L 91.953927 -265.871276 
L 92.125535 -263.818876 
L 92.295655 -261.766475 
L 92.46424 -259.714074 
L 92.631841 -257.661674 
L 92.800888 -255.609273 
L 92.977282 -253.556873 
L 93.170417 -251.504472 
L 93.390812 -249.452072 
L 93.646509 -247.399671 
L 93.940622 -245.347271 
L 94.271935 -243.29487 
L 94.638529 -241.24247 
L 95.042437 -239.190069 
L 95.492529 -237.137668 
L 96.003759 -235.085268 
L 96.592876 -233.032867 
L 97.272501 -230.980467 
L 98.046037 -228.928066 
L 98.904974 -226.875666 
L 99.828805 -224.823265 
L 100.787194 -222.770865 
L 101.744427 -220.718464 
L 102.666206 -218.666064 
L 103.5275 -216.613663 
L 104.31833 -214.561263 
L 105.044173 -212.508862 
L 105.720373 -210.456461 
L 106.363653 -208.404061 
L 106.985477 -206.35166 
L 107.590184 -204.29926 
L 108.177058 -202.246859 
L 108.742829 -200.194459 
L 109.281335 -198.142058 
L 109.78001 -196.089658 
L 110.216308 -194.037257 
L 110.558597 -191.984857 
L 110.773771 -189.932456 
L 110.838968 -187.880055 
L 110.750755 -185.827655 
L 110.52554 -183.775254 
L 110.190111 -181.722854 
L 109.767603 -179.670453 
L 109.267476 -177.618053 
L 108.68585 -175.565652 
L 108.016095 -173.513252 
L 107.262933 -171.460851 
L 106.450505 -169.408451 
L 105.618008 -167.35605 
L 104.804019 -165.303649 
L 104.028039 -163.251249 
L 103.280245 -161.198848 
L 102.526201 -159.146448 
L 101.724665 -157.094047 
L 100.849026 -155.041647 
L 99.900915 -152.989246 
L 98.909392 -150.936846 
L 97.917583 -148.884445 
L 96.965413 -146.832045 
L 96.077992 -144.779644 
L 95.264285 -142.727243 
L 94.523818 -140.674843 
L 93.855016 -138.622442 
L 93.259575 -136.570042 
L 92.741431 -134.517641 
L 92.302874 -132.465241 
L 91.941521 -130.41284 
L 91.650202 -128.36044 
L 91.419219 -126.308039 
L 91.239002 -124.255639 
L 91.101539 -122.203238 
L 91.000267 -120.150837 
L 90.929205 -118.098437 
L 90.88231 -116.046036 
L 90.853493 -113.993636 
z
" style="stroke: #3f3f3f; stroke-width: 1.25"/>
    </defs>
    <g clip-path="url(#pa957ff7744)">
     <use xlink:href="#m5017c91a2c" x="0" y="345.6" style="fill: #3274a1; stroke: #3f3f3f; stroke-width: 1.25"/>
    </g>
   </g>
   <g id="PolyCollection_2">
    <defs>
     <path id="m7520ebb63f" d="M 167.912117 -54.821966 
L 167.851114 -54.821966 
L 167.828203 -56.100994 
L 167.793989 -57.380022 
L 167.746171 -58.659051 
L 167.68281 -59.938079 
L 167.601691 -61.217107 
L 167.499008 -62.496135 
L 167.367846 -63.775163 
L 167.197308 -65.054191 
L 166.973035 -66.333219 
L 166.679177 -67.612247 
L 166.301163 -68.891275 
L 165.828127 -70.170303 
L 165.25412 -71.449332 
L 164.577772 -72.72836 
L 163.800623 -74.007388 
L 162.924645 -75.286416 
L 161.949893 -76.565444 
L 160.873687 -77.844472 
L 159.692962 -79.1235 
L 158.41029 -80.402528 
L 157.041589 -81.681556 
L 155.620963 -82.960585 
L 154.197841 -84.239613 
L 152.824969 -85.518641 
L 151.541485 -86.797669 
L 150.35942 -88.076697 
L 149.261316 -89.355725 
L 148.210901 -90.634753 
L 147.17162 -91.913781 
L 146.123854 -93.192809 
L 145.073122 -94.471838 
L 144.04702 -95.750866 
L 143.08425 -97.029894 
L 142.221864 -98.308922 
L 141.486063 -99.58795 
L 140.889013 -100.866978 
L 140.430849 -102.146006 
L 140.103894 -103.425034 
L 139.895676 -104.704062 
L 139.788957 -105.983091 
L 139.759898 -107.262119 
L 139.777948 -108.541147 
L 139.811018 -109.820175 
L 139.83636 -111.099203 
L 139.853175 -112.378231 
L 139.890289 -113.657259 
L 140.003574 -114.936287 
L 140.262462 -116.215315 
L 140.73015 -117.494344 
L 141.444831 -118.773372 
L 142.408307 -120.0524 
L 143.584816 -121.331428 
L 144.90925 -122.610456 
L 146.301775 -123.889484 
L 147.685129 -125.168512 
L 149.00072 -126.44754 
L 150.219545 -127.726568 
L 151.344542 -129.005596 
L 152.403251 -130.284625 
L 153.433179 -131.563653 
L 154.465397 -132.842681 
L 155.512613 -134.121709 
L 156.565724 -135.400737 
L 157.598976 -136.679765 
L 158.580459 -137.958793 
L 159.483206 -139.237821 
L 160.2929 -140.516849 
L 161.010244 -141.795878 
L 161.648298 -143.074906 
L 162.226705 -144.353934 
L 162.765179 -145.632962 
L 163.278292 -146.91199 
L 163.772702 -148.191018 
L 164.247135 -149.470046 
L 164.694621 -150.749074 
L 165.105953 -152.028102 
L 165.473086 -153.307131 
L 165.791419 -154.586159 
L 166.060555 -155.865187 
L 166.28376 -157.144215 
L 166.466722 -158.423243 
L 166.616137 -159.702271 
L 166.738445 -160.981299 
L 166.839001 -162.260327 
L 166.92191 -163.539355 
L 166.990642 -164.818384 
L 167.049117 -166.097412 
L 167.102577 -167.37644 
L 167.157455 -168.655468 
L 167.220009 -169.934496 
L 167.294238 -171.213524 
L 167.380192 -172.492552 
L 167.473644 -173.77158 
L 167.567417 -175.050608 
L 167.65374 -176.329637 
L 167.726559 -177.608665 
L 167.782896 -178.887693 
L 167.822921 -180.166721 
L 167.849074 -181.445749 
L 167.914158 -181.445749 
L 167.914158 -181.445749 
L 167.940311 -180.166721 
L 167.980336 -178.887693 
L 168.036673 -177.608665 
L 168.109492 -176.329637 
L 168.195815 -175.050608 
L 168.289588 -173.77158 
L 168.38304 -172.492552 
L 168.468994 -171.213524 
L 168.543223 -169.934496 
L 168.605777 -168.655468 
L 168.660655 -167.37644 
L 168.714115 -166.097412 
L 168.77259 -164.818384 
L 168.841322 -163.539355 
L 168.924231 -162.260327 
L 169.024787 -160.981299 
L 169.147095 -159.702271 
L 169.296509 -158.423243 
L 169.479472 -157.144215 
L 169.702677 -155.865187 
L 169.971813 -154.586159 
L 170.290146 -153.307131 
L 170.657279 -152.028102 
L 171.068611 -150.749074 
L 171.516097 -149.470046 
L 171.99053 -148.191018 
L 172.48494 -146.91199 
L 172.998053 -145.632962 
L 173.536527 -144.353934 
L 174.114934 -143.074906 
L 174.752988 -141.795878 
L 175.470331 -140.516849 
L 176.280026 -139.237821 
L 177.182773 -137.958793 
L 178.164256 -136.679765 
L 179.197508 -135.400737 
L 180.250618 -134.121709 
L 181.297835 -132.842681 
L 182.330052 -131.563653 
L 183.35998 -130.284625 
L 184.41869 -129.005596 
L 185.543687 -127.726568 
L 186.762512 -126.44754 
L 188.078103 -125.168512 
L 189.461457 -123.889484 
L 190.853982 -122.610456 
L 192.178416 -121.331428 
L 193.354925 -120.0524 
L 194.318401 -118.773372 
L 195.033082 -117.494344 
L 195.500769 -116.215315 
L 195.759657 -114.936287 
L 195.872943 -113.657259 
L 195.910057 -112.378231 
L 195.926872 -111.099203 
L 195.952214 -109.820175 
L 195.985284 -108.541147 
L 196.003334 -107.262119 
L 195.974275 -105.983091 
L 195.867556 -104.704062 
L 195.659338 -103.425034 
L 195.332383 -102.146006 
L 194.874219 -100.866978 
L 194.277169 -99.58795 
L 193.541368 -98.308922 
L 192.678981 -97.029894 
L 191.716212 -95.750866 
L 190.69011 -94.471838 
L 189.639378 -93.192809 
L 188.591612 -91.913781 
L 187.552331 -90.634753 
L 186.501915 -89.355725 
L 185.403812 -88.076697 
L 184.221747 -86.797669 
L 182.938263 -85.518641 
L 181.565391 -84.239613 
L 180.142268 -82.960585 
L 178.721643 -81.681556 
L 177.352942 -80.402528 
L 176.070269 -79.1235 
L 174.889545 -77.844472 
L 173.813339 -76.565444 
L 172.838586 -75.286416 
L 171.962609 -74.007388 
L 171.18546 -72.72836 
L 170.509112 -71.449332 
L 169.935105 -70.170303 
L 169.462069 -68.891275 
L 169.084055 -67.612247 
L 168.790197 -66.333219 
L 168.565923 -65.054191 
L 168.395386 -63.775163 
L 168.264223 -62.496135 
L 168.161541 -61.217107 
L 168.080422 -59.938079 
L 168.017061 -58.659051 
L 167.969242 -57.380022 
L 167.935029 -56.100994 
L 167.912117 -54.821966 
z
" style="stroke: #3f3f3f; stroke-width: 1.25"/>
    </defs>
    <g clip-path="url(#pa957ff7744)">
     <use xlink:href="#m7520ebb63f" x="0" y="345.6" style="fill: #3274a1; stroke: #3f3f3f; stroke-width: 1.25"/>
    </g>
   </g>
   <g id="PolyCollection_3">
    <defs>
     <path id="md600482657" d="M 244.956052 -110.924925 
L 244.927352 -110.924925 
L 244.916251 -112.584105 
L 244.899526 -114.243286 
L 244.875972 -115.902466 
L 244.844521 -117.561647 
L 244.80389 -119.220827 
L 244.7519 -120.880008 
L 244.684712 -122.539188 
L 244.596454 -124.198369 
L 244.479638 -125.857549 
L 244.326531 -127.51673 
L 244.131151 -129.17591 
L 243.891184 -130.835091 
L 243.608931 -132.494271 
L 243.290586 -134.153452 
L 242.943755 -135.812632 
L 242.573873 -137.471813 
L 242.180748 -139.130993 
L 241.756555 -140.790174 
L 241.286101 -142.449354 
L 240.749445 -144.108535 
L 240.126162 -145.767715 
L 239.399945 -147.426896 
L 238.56208 -149.086076 
L 237.612839 -150.745257 
L 236.561023 -152.404438 
L 235.422949 -154.063618 
L 234.222148 -155.722799 
L 232.989648 -157.381979 
L 231.763038 -159.04116 
L 230.582247 -160.70034 
L 229.48189 -162.359521 
L 228.48282 -164.018701 
L 227.586989 -165.677882 
L 226.77867 -167.337062 
L 226.032056 -168.996243 
L 225.32233 -170.655423 
L 224.635929 -172.314604 
L 223.97645 -173.973784 
L 223.364744 -175.632965 
L 222.834109 -177.292145 
L 222.422844 -178.951326 
L 222.166277 -180.610506 
L 222.089166 -182.269687 
L 222.198658 -183.928867 
L 222.478752 -185.588048 
L 222.888863 -187.247228 
L 223.369441 -188.906409 
L 223.855311 -190.565589 
L 224.293261 -192.22477 
L 224.657252 -193.88395 
L 224.954724 -195.543131 
L 225.221151 -197.202311 
L 225.505323 -198.861492 
L 225.852078 -200.520672 
L 226.29006 -202.179853 
L 226.828777 -203.839034 
L 227.463671 -205.498214 
L 228.183668 -207.157395 
L 228.975903 -208.816575 
L 229.826452 -210.475756 
L 230.720126 -212.134936 
L 231.642872 -213.794117 
L 232.586614 -215.453297 
L 233.552401 -217.112478 
L 234.547398 -218.771658 
L 235.575471 -220.430839 
L 236.626473 -222.090019 
L 237.671346 -223.7492 
L 238.667094 -225.40838 
L 239.569698 -227.067561 
L 240.348291 -228.726741 
L 240.993529 -230.385922 
L 241.516736 -232.045102 
L 241.941565 -233.704283 
L 242.293262 -235.363463 
L 242.590838 -237.022644 
L 242.844975 -238.681824 
L 243.061067 -240.341005 
L 243.244371 -242.000185 
L 243.403666 -243.659366 
L 243.551236 -245.318546 
L 243.699371 -246.977727 
L 243.855575 -248.636907 
L 244.019356 -250.296088 
L 244.182461 -251.955268 
L 244.332503 -253.614449 
L 244.458193 -255.273629 
L 244.553709 -256.93281 
L 244.620423 -258.591991 
L 244.665586 -260.251171 
L 244.698977 -261.910352 
L 244.729214 -263.569532 
L 244.761285 -265.228713 
L 244.796013 -266.887893 
L 244.831202 -268.547074 
L 244.863557 -270.206254 
L 244.890391 -271.865435 
L 244.910496 -273.524615 
L 244.924148 -275.183796 
L 244.959256 -275.183796 
L 244.959256 -275.183796 
L 244.972909 -273.524615 
L 244.993013 -271.865435 
L 245.019847 -270.206254 
L 245.052203 -268.547074 
L 245.087391 -266.887893 
L 245.122119 -265.228713 
L 245.154191 -263.569532 
L 245.184428 -261.910352 
L 245.217818 -260.251171 
L 245.262982 -258.591991 
L 245.329696 -256.93281 
L 245.425211 -255.273629 
L 245.550901 -253.614449 
L 245.700944 -251.955268 
L 245.864048 -250.296088 
L 246.027829 -248.636907 
L 246.184033 -246.977727 
L 246.332168 -245.318546 
L 246.479739 -243.659366 
L 246.639033 -242.000185 
L 246.822338 -240.341005 
L 247.03843 -238.681824 
L 247.292566 -237.022644 
L 247.590142 -235.363463 
L 247.941839 -233.704283 
L 248.366668 -232.045102 
L 248.889875 -230.385922 
L 249.535113 -228.726741 
L 250.313707 -227.067561 
L 251.21631 -225.40838 
L 252.212058 -223.7492 
L 253.256931 -222.090019 
L 254.307934 -220.430839 
L 255.336006 -218.771658 
L 256.331003 -217.112478 
L 257.296791 -215.453297 
L 258.240532 -213.794117 
L 259.163278 -212.134936 
L 260.056953 -210.475756 
L 260.907501 -208.816575 
L 261.699736 -207.157395 
L 262.419733 -205.498214 
L 263.054627 -203.839034 
L 263.593345 -202.179853 
L 264.031326 -200.520672 
L 264.378081 -198.861492 
L 264.662253 -197.202311 
L 264.928681 -195.543131 
L 265.226152 -193.88395 
L 265.590143 -192.22477 
L 266.028094 -190.565589 
L 266.513963 -188.906409 
L 266.994542 -187.247228 
L 267.404653 -185.588048 
L 267.684747 -183.928867 
L 267.794238 -182.269687 
L 267.717127 -180.610506 
L 267.46056 -178.951326 
L 267.049295 -177.292145 
L 266.51866 -175.632965 
L 265.906954 -173.973784 
L 265.247475 -172.314604 
L 264.561074 -170.655423 
L 263.851348 -168.996243 
L 263.104734 -167.337062 
L 262.296415 -165.677882 
L 261.400585 -164.018701 
L 260.401514 -162.359521 
L 259.301157 -160.70034 
L 258.120366 -159.04116 
L 256.893756 -157.381979 
L 255.661256 -155.722799 
L 254.460455 -154.063618 
L 253.322381 -152.404438 
L 252.270566 -150.745257 
L 251.321324 -149.086076 
L 250.483459 -147.426896 
L 249.757243 -145.767715 
L 249.13396 -144.108535 
L 248.597304 -142.449354 
L 248.12685 -140.790174 
L 247.702657 -139.130993 
L 247.309531 -137.471813 
L 246.939649 -135.812632 
L 246.592819 -134.153452 
L 246.274473 -132.494271 
L 245.99222 -130.835091 
L 245.752253 -129.17591 
L 245.556873 -127.51673 
L 245.403766 -125.857549 
L 245.28695 -124.198369 
L 245.198692 -122.539188 
L 245.131504 -120.880008 
L 245.079514 -119.220827 
L 245.038884 -117.561647 
L 245.007433 -115.902466 
L 244.983879 -114.243286 
L 244.967153 -112.584105 
L 244.956052 -110.924925 
z
" style="stroke: #3f3f3f; stroke-width: 1.25"/>
    </defs>
    <g clip-path="url(#pa957ff7744)">
     <use xlink:href="#md600482657" x="0" y="345.6" style="fill: #3274a1; stroke: #3f3f3f; stroke-width: 1.25"/>
    </g>
   </g>
   <g id="PolyCollection_4">
    <defs>
     <path id="m48041989ed" d="M 322.018734 -71.611783 
L 321.984842 -71.611783 
L 321.96693 -73.955976 
L 321.936367 -76.300168 
L 321.889352 -78.644361 
L 321.823943 -80.988554 
L 321.740956 -83.332746 
L 321.643055 -85.676939 
L 321.531435 -88.021132 
L 321.401209 -90.365325 
L 321.238238 -92.709517 
L 321.020091 -95.05371 
L 320.72135 -97.397903 
L 320.320355 -99.742095 
L 319.803326 -102.086288 
L 319.164037 -104.430481 
L 318.40076 -106.774674 
L 317.5139 -109.118866 
L 316.506388 -111.463059 
L 315.386536 -113.807252 
L 314.171624 -116.151444 
L 312.890243 -118.495637 
L 311.581424 -120.83983 
L 310.289595 -123.184023 
L 309.057268 -125.528215 
L 307.919413 -127.872408 
L 306.901318 -130.216601 
L 306.016993 -132.560794 
L 305.26525 -134.904986 
L 304.627639 -137.249179 
L 304.077225 -139.593372 
L 303.599494 -141.937564 
L 303.211155 -144.281757 
L 302.957099 -146.62595 
L 302.880669 -148.970143 
L 302.986383 -151.314335 
L 303.22458 -153.658528 
L 303.512891 -156.002721 
L 303.781077 -158.346913 
L 304.007621 -160.691106 
L 304.223718 -163.035299 
L 304.486235 -165.379492 
L 304.84329 -167.723684 
L 305.316675 -170.067877 
L 305.907111 -172.41207 
L 306.609491 -174.756263 
L 307.421234 -177.100455 
L 308.337802 -179.444648 
L 309.342955 -181.788841 
L 310.405281 -184.133033 
L 311.485049 -186.477226 
L 312.545466 -188.821419 
L 313.559706 -191.165612 
L 314.510573 -193.509804 
L 315.386097 -195.853997 
L 316.175793 -198.19819 
L 316.869758 -200.542382 
L 317.460282 -202.886575 
L 317.945086 -205.230768 
L 318.33119 -207.574961 
L 318.637542 -209.919153 
L 318.893834 -212.263346 
L 319.133976 -214.607539 
L 319.385769 -216.951732 
L 319.661451 -219.295924 
L 319.954273 -221.640117 
L 320.243412 -223.98431 
L 320.504987 -226.328502 
L 320.723557 -228.672695 
L 320.898289 -231.016888 
L 321.041119 -233.361081 
L 321.16878 -235.705273 
L 321.293851 -238.049466 
L 321.41983 -240.393659 
L 321.542007 -242.737851 
L 321.652059 -245.082044 
L 321.742766 -247.426237 
L 321.810537 -249.77043 
L 321.855767 -252.114622 
L 321.882183 -254.458815 
L 321.895865 -256.803008 
L 321.903842 -259.147201 
L 321.912162 -261.491393 
L 321.924133 -263.835586 
L 321.939702 -266.179779 
L 321.956325 -268.523971 
L 321.970659 -270.868164 
L 321.979984 -273.212357 
L 321.982777 -275.55655 
L 321.978659 -277.900742 
L 321.968341 -280.244935 
L 321.953827 -282.589128 
L 321.938524 -284.93332 
L 321.926674 -287.277513 
L 321.921965 -289.621706 
L 321.925973 -291.965899 
L 321.937452 -294.310091 
L 321.953014 -296.654284 
L 321.968756 -298.998477 
L 321.981803 -301.342669 
L 321.990987 -303.686862 
L 322.01259 -303.686862 
L 322.01259 -303.686862 
L 322.021774 -301.342669 
L 322.034821 -298.998477 
L 322.050563 -296.654284 
L 322.066125 -294.310091 
L 322.077604 -291.965899 
L 322.081612 -289.621706 
L 322.076903 -287.277513 
L 322.065053 -284.93332 
L 322.04975 -282.589128 
L 322.035236 -280.244935 
L 322.024918 -277.900742 
L 322.020799 -275.55655 
L 322.023592 -273.212357 
L 322.032918 -270.868164 
L 322.047252 -268.523971 
L 322.063874 -266.179779 
L 322.079444 -263.835586 
L 322.091415 -261.491393 
L 322.099735 -259.147201 
L 322.107711 -256.803008 
L 322.121394 -254.458815 
L 322.147809 -252.114622 
L 322.19304 -249.77043 
L 322.260811 -247.426237 
L 322.351518 -245.082044 
L 322.46157 -242.737851 
L 322.583747 -240.393659 
L 322.709726 -238.049466 
L 322.834796 -235.705273 
L 322.962458 -233.361081 
L 323.105288 -231.016888 
L 323.28002 -228.672695 
L 323.49859 -226.328502 
L 323.760165 -223.98431 
L 324.049304 -221.640117 
L 324.342125 -219.295924 
L 324.617808 -216.951732 
L 324.869601 -214.607539 
L 325.109743 -212.263346 
L 325.366035 -209.919153 
L 325.672387 -207.574961 
L 326.058491 -205.230768 
L 326.543295 -202.886575 
L 327.133818 -200.542382 
L 327.827784 -198.19819 
L 328.61748 -195.853997 
L 329.493003 -193.509804 
L 330.443871 -191.165612 
L 331.458111 -188.821419 
L 332.518528 -186.477226 
L 333.598296 -184.133033 
L 334.660622 -181.788841 
L 335.665775 -179.444648 
L 336.582343 -177.100455 
L 337.394086 -174.756263 
L 338.096466 -172.41207 
L 338.686902 -170.067877 
L 339.160287 -167.723684 
L 339.517342 -165.379492 
L 339.779858 -163.035299 
L 339.995956 -160.691106 
L 340.222499 -158.346913 
L 340.490685 -156.002721 
L 340.778997 -153.658528 
L 341.017194 -151.314335 
L 341.122907 -148.970143 
L 341.046478 -146.62595 
L 340.792422 -144.281757 
L 340.404082 -141.937564 
L 339.926352 -139.593372 
L 339.375938 -137.249179 
L 338.738327 -134.904986 
L 337.986584 -132.560794 
L 337.102259 -130.216601 
L 336.084164 -127.872408 
L 334.946309 -125.528215 
L 333.713982 -123.184023 
L 332.422153 -120.83983 
L 331.113333 -118.495637 
L 329.831953 -116.151444 
L 328.617041 -113.807252 
L 327.497189 -111.463059 
L 326.489677 -109.118866 
L 325.602816 -106.774674 
L 324.83954 -104.430481 
L 324.200251 -102.086288 
L 323.683222 -99.742095 
L 323.282227 -97.397903 
L 322.983486 -95.05371 
L 322.765338 -92.709517 
L 322.602368 -90.365325 
L 322.472141 -88.021132 
L 322.360521 -85.676939 
L 322.262621 -83.332746 
L 322.179634 -80.988554 
L 322.114225 -78.644361 
L 322.06721 -76.300168 
L 322.036647 -73.955976 
L 322.018734 -71.611783 
z
" style="stroke: #3f3f3f; stroke-width: 1.25"/>
    </defs>
    <g clip-path="url(#pa957ff7744)">
     <use xlink:href="#m48041989ed" x="0" y="345.6" style="fill: #3274a1; stroke: #3f3f3f; stroke-width: 1.25"/>
    </g>
   </g>
   <g id="PolyCollection_5">
    <defs>
     <path id="m9de2fdc26c" d="M 399.090595 -175.485544 
L 399.033154 -175.485544 
L 399.010059 -176.733159 
L 398.97411 -177.980774 
L 398.921545 -179.228388 
L 398.848495 -180.476003 
L 398.750401 -181.723618 
L 398.620669 -182.971233 
L 398.448975 -184.218848 
L 398.220332 -185.466463 
L 397.916222 -186.714078 
L 397.518389 -187.961692 
L 397.014409 -189.209307 
L 396.402648 -190.456922 
L 395.693842 -191.704537 
L 394.907932 -192.952152 
L 394.067281 -194.199767 
L 393.189523 -195.447381 
L 392.28348 -196.694996 
L 391.349722 -197.942611 
L 390.384741 -199.190226 
L 389.386194 -200.437841 
L 388.356943 -201.685456 
L 387.306854 -202.93307 
L 386.252118 -204.180685 
L 385.211891 -205.4283 
L 384.20216 -206.675915 
L 383.2282 -207.92353 
L 382.279155 -209.171145 
L 381.328995 -210.418759 
L 380.345579 -211.666374 
L 379.304368 -212.913989 
L 378.19935 -214.161604 
L 377.044395 -215.409219 
L 375.864213 -216.656834 
L 374.681393 -217.904448 
L 373.509248 -219.152063 
L 372.356564 -220.399678 
L 371.241926 -221.647293 
L 370.207624 -222.894908 
L 369.321745 -224.142523 
L 368.663228 -225.390138 
L 368.294924 -226.637752 
L 368.23784 -227.885367 
L 368.460313 -229.132982 
L 368.888399 -230.380597 
L 369.432491 -231.628212 
L 370.017156 -232.875827 
L 370.600824 -234.123441 
L 371.178803 -235.371056 
L 371.77211 -236.618671 
L 372.410532 -237.866286 
L 373.118651 -239.113901 
L 373.909668 -240.361516 
L 374.786721 -241.60913 
L 375.747906 -242.856745 
L 376.790543 -244.10436 
L 377.912187 -245.351975 
L 379.108728 -246.59959 
L 380.371766 -247.847205 
L 381.687117 -249.094819 
L 383.034741 -250.342434 
L 384.389212 -251.590049 
L 385.720366 -252.837664 
L 386.99505 -254.085279 
L 388.181357 -255.332894 
L 389.255323 -256.580508 
L 390.207635 -257.828123 
L 391.046545 -259.075738 
L 391.794422 -260.323353 
L 392.478655 -261.570968 
L 393.120986 -262.818583 
L 393.730442 -264.066197 
L 394.303013 -265.313812 
L 394.827584 -266.561427 
L 395.29448 -267.809042 
L 395.702218 -269.056657 
L 396.05959 -270.304272 
L 396.382801 -271.551887 
L 396.689527 -272.799501 
L 396.99264 -274.047116 
L 397.296008 -275.294731 
L 397.593681 -276.542346 
L 397.872443 -277.789961 
L 398.116527 -279.037576 
L 398.312738 -280.28519 
L 398.454328 -281.532805 
L 398.542691 -282.78042 
L 398.586847 -284.028035 
L 398.601241 -285.27565 
L 398.602614 -286.523265 
L 398.606565 -287.770879 
L 398.624485 -289.018494 
L 398.661535 -290.266109 
L 398.716303 -291.513724 
L 398.78229 -292.761339 
L 398.85067 -294.008954 
L 398.91326 -295.256568 
L 398.964623 -296.504183 
L 399.002753 -297.751798 
L 399.02851 -298.999413 
L 399.095239 -298.999413 
L 399.095239 -298.999413 
L 399.120996 -297.751798 
L 399.159126 -296.504183 
L 399.210489 -295.256568 
L 399.273079 -294.008954 
L 399.341459 -292.761339 
L 399.407446 -291.513724 
L 399.462215 -290.266109 
L 399.499265 -289.018494 
L 399.517184 -287.770879 
L 399.521135 -286.523265 
L 399.522508 -285.27565 
L 399.536903 -284.028035 
L 399.581058 -282.78042 
L 399.669421 -281.532805 
L 399.811011 -280.28519 
L 400.007222 -279.037576 
L 400.251306 -277.789961 
L 400.530068 -276.542346 
L 400.827741 -275.294731 
L 401.131109 -274.047116 
L 401.434222 -272.799501 
L 401.740948 -271.551887 
L 402.064159 -270.304272 
L 402.421531 -269.056657 
L 402.829269 -267.809042 
L 403.296165 -266.561427 
L 403.820736 -265.313812 
L 404.393307 -264.066197 
L 405.002763 -262.818583 
L 405.645095 -261.570968 
L 406.329327 -260.323353 
L 407.077204 -259.075738 
L 407.916115 -257.828123 
L 408.868426 -256.580508 
L 409.942393 -255.332894 
L 411.128699 -254.085279 
L 412.403383 -252.837664 
L 413.734538 -251.590049 
L 415.089009 -250.342434 
L 416.436632 -249.094819 
L 417.751984 -247.847205 
L 419.015021 -246.59959 
L 420.211562 -245.351975 
L 421.333206 -244.10436 
L 422.375843 -242.856745 
L 423.337028 -241.60913 
L 424.214081 -240.361516 
L 425.005098 -239.113901 
L 425.713218 -237.866286 
L 426.351639 -236.618671 
L 426.944946 -235.371056 
L 427.522925 -234.123441 
L 428.106594 -232.875827 
L 428.691258 -231.628212 
L 429.23535 -230.380597 
L 429.663436 -229.132982 
L 429.885909 -227.885367 
L 429.828825 -226.637752 
L 429.460521 -225.390138 
L 428.802004 -224.142523 
L 427.916125 -222.894908 
L 426.881823 -221.647293 
L 425.767185 -220.399678 
L 424.614502 -219.152063 
L 423.442356 -217.904448 
L 422.259536 -216.656834 
L 421.079354 -215.409219 
L 419.924399 -214.161604 
L 418.819381 -212.913989 
L 417.778171 -211.666374 
L 416.794754 -210.418759 
L 415.844595 -209.171145 
L 414.895549 -207.92353 
L 413.921589 -206.675915 
L 412.911858 -205.4283 
L 411.871631 -204.180685 
L 410.816896 -202.93307 
L 409.766806 -201.685456 
L 408.737556 -200.437841 
L 407.739008 -199.190226 
L 406.774027 -197.942611 
L 405.840269 -196.694996 
L 404.934226 -195.447381 
L 404.056468 -194.199767 
L 403.215817 -192.952152 
L 402.429907 -191.704537 
L 401.721101 -190.456922 
L 401.10934 -189.209307 
L 400.60536 -187.961692 
L 400.207527 -186.714078 
L 399.903417 -185.466463 
L 399.674774 -184.218848 
L 399.50308 -182.971233 
L 399.373348 -181.723618 
L 399.275255 -180.476003 
L 399.202204 -179.228388 
L 399.149639 -177.980774 
L 399.11369 -176.733159 
L 399.090595 -175.485544 
z
" style="stroke: #3f3f3f; stroke-width: 1.25"/>
    </defs>
    <g clip-path="url(#pa957ff7744)">
     <use xlink:href="#m9de2fdc26c" x="0" y="345.6" style="fill: #3274a1; stroke: #3f3f3f; stroke-width: 1.25"/>
    </g>
   </g>
   <g id="matplotlib.axis_1">
    <g id="xtick_1">
     <g id="line2d_1">
      <defs>
       <path id="m421c0580a9" d="M 0 0 
L 0 3.5 
" style="stroke: #000000; stroke-width: 0.8"/>
      </defs>
      <g>
       <use xlink:href="#m421c0580a9" x="90.82153" y="303.896" style="stroke: #000000; stroke-width: 0.8"/>
      </g>
     </g>
     <g id="text_1">
      <!-- Fluency -->
      <g transform="translate(71.43403 318.494438) scale(0.1 -0.1)">
       <defs>
        <path id="DejaVuSans-46" d="M 628 4666 
L 3309 4666 
L 3309 4134 
L 1259 4134 
L 1259 2759 
L 3109 2759 
L 3109 2228 
L 1259 2228 
L 1259 0 
L 628 0 
L 628 4666 
z
" transform="scale(0.015625)"/>
        <path id="DejaVuSans-6c" d="M 603 4863 
L 1178 4863 
L 1178 0 
L 603 0 
L 603 4863 
z
" transform="scale(0.015625)"/>
        <path id="DejaVuSans-75" d="M 544 1381 
L 544 3500 
L 1119 3500 
L 1119 1403 
Q 1119 906 1312 657 
Q 1506 409 1894 409 
Q 2359 409 2629 706 
Q 2900 1003 2900 1516 
L 2900 3500 
L 3475 3500 
L 3475 0 
L 2900 0 
L 2900 538 
Q 2691 219 2414 64 
Q 2138 -91 1772 -91 
Q 1169 -91 856 284 
Q 544 659 544 1381 
z
M 1991 3584 
L 1991 3584 
z
" transform="scale(0.015625)"/>
        <path id="DejaVuSans-65" d="M 3597 1894 
L 3597 1613 
L 953 1613 
Q 991 1019 1311 708 
Q 1631 397 2203 397 
Q 2534 397 2845 478 
Q 3156 559 3463 722 
L 3463 178 
Q 3153 47 2828 -22 
Q 2503 -91 2169 -91 
Q 1331 -91 842 396 
Q 353 884 353 1716 
Q 353 2575 817 3079 
Q 1281 3584 2069 3584 
Q 2775 3584 3186 3129 
Q 3597 2675 3597 1894 
z
M 3022 2063 
Q 3016 2534 2758 2815 
Q 2500 3097 2075 3097 
Q 1594 3097 1305 2825 
Q 1016 2553 972 2059 
L 3022 2063 
z
" transform="scale(0.015625)"/>
        <path id="DejaVuSans-6e" d="M 3513 2113 
L 3513 0 
L 2938 0 
L 2938 2094 
Q 2938 2591 2744 2837 
Q 2550 3084 2163 3084 
Q 1697 3084 1428 2787 
Q 1159 2491 1159 1978 
L 1159 0 
L 581 0 
L 581 3500 
L 1159 3500 
L 1159 2956 
Q 1366 3272 1645 3428 
Q 1925 3584 2291 3584 
Q 2894 3584 3203 3211 
Q 3513 2838 3513 2113 
z
" transform="scale(0.015625)"/>
        <path id="DejaVuSans-63" d="M 3122 3366 
L 3122 2828 
Q 2878 2963 2633 3030 
Q 2388 3097 2138 3097 
Q 1578 3097 1268 2742 
Q 959 2388 959 1747 
Q 959 1106 1268 751 
Q 1578 397 2138 397 
Q 2388 397 2633 464 
Q 2878 531 3122 666 
L 3122 134 
Q 2881 22 2623 -34 
Q 2366 -91 2075 -91 
Q 1284 -91 818 406 
Q 353 903 353 1747 
Q 353 2603 823 3093 
Q 1294 3584 2113 3584 
Q 2378 3584 2631 3529 
Q 2884 3475 3122 3366 
z
" transform="scale(0.015625)"/>
        <path id="DejaVuSans-79" d="M 2059 -325 
Q 1816 -950 1584 -1140 
Q 1353 -1331 966 -1331 
L 506 -1331 
L 506 -850 
L 844 -850 
Q 1081 -850 1212 -737 
Q 1344 -625 1503 -206 
L 1606 56 
L 191 3500 
L 800 3500 
L 1894 763 
L 2988 3500 
L 3597 3500 
L 2059 -325 
z
" transform="scale(0.015625)"/>
       </defs>
       <use xlink:href="#DejaVuSans-46"/>
       <use xlink:href="#DejaVuSans-6c" x="57.519531"/>
       <use xlink:href="#DejaVuSans-75" x="85.302734"/>
       <use xlink:href="#DejaVuSans-65" x="148.681641"/>
       <use xlink:href="#DejaVuSans-6e" x="210.205078"/>
       <use xlink:href="#DejaVuSans-63" x="273.583984"/>
       <use xlink:href="#DejaVuSans-79" x="328.564453"/>
      </g>
      <!--  classifier -->
      <g transform="translate(67.150436 329.69225) scale(0.1 -0.1)">
       <defs>
        <path id="DejaVuSans-20" transform="scale(0.015625)"/>
        <path id="DejaVuSans-61" d="M 2194 1759 
Q 1497 1759 1228 1600 
Q 959 1441 959 1056 
Q 959 750 1161 570 
Q 1363 391 1709 391 
Q 2188 391 2477 730 
Q 2766 1069 2766 1631 
L 2766 1759 
L 2194 1759 
z
M 3341 1997 
L 3341 0 
L 2766 0 
L 2766 531 
Q 2569 213 2275 61 
Q 1981 -91 1556 -91 
Q 1019 -91 701 211 
Q 384 513 384 1019 
Q 384 1609 779 1909 
Q 1175 2209 1959 2209 
L 2766 2209 
L 2766 2266 
Q 2766 2663 2505 2880 
Q 2244 3097 1772 3097 
Q 1472 3097 1187 3025 
Q 903 2953 641 2809 
L 641 3341 
Q 956 3463 1253 3523 
Q 1550 3584 1831 3584 
Q 2591 3584 2966 3190 
Q 3341 2797 3341 1997 
z
" transform="scale(0.015625)"/>
        <path id="DejaVuSans-73" d="M 2834 3397 
L 2834 2853 
Q 2591 2978 2328 3040 
Q 2066 3103 1784 3103 
Q 1356 3103 1142 2972 
Q 928 2841 928 2578 
Q 928 2378 1081 2264 
Q 1234 2150 1697 2047 
L 1894 2003 
Q 2506 1872 2764 1633 
Q 3022 1394 3022 966 
Q 3022 478 2636 193 
Q 2250 -91 1575 -91 
Q 1294 -91 989 -36 
Q 684 19 347 128 
L 347 722 
Q 666 556 975 473 
Q 1284 391 1588 391 
Q 1994 391 2212 530 
Q 2431 669 2431 922 
Q 2431 1156 2273 1281 
Q 2116 1406 1581 1522 
L 1381 1569 
Q 847 1681 609 1914 
Q 372 2147 372 2553 
Q 372 3047 722 3315 
Q 1072 3584 1716 3584 
Q 2034 3584 2315 3537 
Q 2597 3491 2834 3397 
z
" transform="scale(0.015625)"/>
        <path id="DejaVuSans-69" d="M 603 3500 
L 1178 3500 
L 1178 0 
L 603 0 
L 603 3500 
z
M 603 4863 
L 1178 4863 
L 1178 4134 
L 603 4134 
L 603 4863 
z
" transform="scale(0.015625)"/>
        <path id="DejaVuSans-66" d="M 2375 4863 
L 2375 4384 
L 1825 4384 
Q 1516 4384 1395 4259 
Q 1275 4134 1275 3809 
L 1275 3500 
L 2222 3500 
L 2222 3053 
L 1275 3053 
L 1275 0 
L 697 0 
L 697 3053 
L 147 3053 
L 147 3500 
L 697 3500 
L 697 3744 
Q 697 4328 969 4595 
Q 1241 4863 1831 4863 
L 2375 4863 
z
" transform="scale(0.015625)"/>
        <path id="DejaVuSans-72" d="M 2631 2963 
Q 2534 3019 2420 3045 
Q 2306 3072 2169 3072 
Q 1681 3072 1420 2755 
Q 1159 2438 1159 1844 
L 1159 0 
L 581 0 
L 581 3500 
L 1159 3500 
L 1159 2956 
Q 1341 3275 1631 3429 
Q 1922 3584 2338 3584 
Q 2397 3584 2469 3576 
Q 2541 3569 2628 3553 
L 2631 2963 
z
" transform="scale(0.015625)"/>
       </defs>
       <use xlink:href="#DejaVuSans-20"/>
       <use xlink:href="#DejaVuSans-63" x="31.787109"/>
       <use xlink:href="#DejaVuSans-6c" x="86.767578"/>
       <use xlink:href="#DejaVuSans-61" x="114.550781"/>
       <use xlink:href="#DejaVuSans-73" x="175.830078"/>
       <use xlink:href="#DejaVuSans-73" x="227.929688"/>
       <use xlink:href="#DejaVuSans-69" x="280.029297"/>
       <use xlink:href="#DejaVuSans-66" x="307.8125"/>
       <use xlink:href="#DejaVuSans-69" x="343.017578"/>
       <use xlink:href="#DejaVuSans-65" x="370.800781"/>
       <use xlink:href="#DejaVuSans-72" x="432.324219"/>
      </g>
     </g>
    </g>
    <g id="xtick_2">
     <g id="line2d_2">
      <g>
       <use xlink:href="#m421c0580a9" x="167.881616" y="303.896" style="stroke: #000000; stroke-width: 0.8"/>
      </g>
     </g>
     <g id="text_2">
      <!-- Screening -->
      <g transform="translate(142.961303 318.494438) scale(0.1 -0.1)">
       <defs>
        <path id="DejaVuSans-53" d="M 3425 4513 
L 3425 3897 
Q 3066 4069 2747 4153 
Q 2428 4238 2131 4238 
Q 1616 4238 1336 4038 
Q 1056 3838 1056 3469 
Q 1056 3159 1242 3001 
Q 1428 2844 1947 2747 
L 2328 2669 
Q 3034 2534 3370 2195 
Q 3706 1856 3706 1288 
Q 3706 609 3251 259 
Q 2797 -91 1919 -91 
Q 1588 -91 1214 -16 
Q 841 59 441 206 
L 441 856 
Q 825 641 1194 531 
Q 1563 422 1919 422 
Q 2459 422 2753 634 
Q 3047 847 3047 1241 
Q 3047 1584 2836 1778 
Q 2625 1972 2144 2069 
L 1759 2144 
Q 1053 2284 737 2584 
Q 422 2884 422 3419 
Q 422 4038 858 4394 
Q 1294 4750 2059 4750 
Q 2388 4750 2728 4690 
Q 3069 4631 3425 4513 
z
" transform="scale(0.015625)"/>
        <path id="DejaVuSans-67" d="M 2906 1791 
Q 2906 2416 2648 2759 
Q 2391 3103 1925 3103 
Q 1463 3103 1205 2759 
Q 947 2416 947 1791 
Q 947 1169 1205 825 
Q 1463 481 1925 481 
Q 2391 481 2648 825 
Q 2906 1169 2906 1791 
z
M 3481 434 
Q 3481 -459 3084 -895 
Q 2688 -1331 1869 -1331 
Q 1566 -1331 1297 -1286 
Q 1028 -1241 775 -1147 
L 775 -588 
Q 1028 -725 1275 -790 
Q 1522 -856 1778 -856 
Q 2344 -856 2625 -561 
Q 2906 -266 2906 331 
L 2906 616 
Q 2728 306 2450 153 
Q 2172 0 1784 0 
Q 1141 0 747 490 
Q 353 981 353 1791 
Q 353 2603 747 3093 
Q 1141 3584 1784 3584 
Q 2172 3584 2450 3431 
Q 2728 3278 2906 2969 
L 2906 3500 
L 3481 3500 
L 3481 434 
z
" transform="scale(0.015625)"/>
       </defs>
       <use xlink:href="#DejaVuSans-53"/>
       <use xlink:href="#DejaVuSans-63" x="63.476562"/>
       <use xlink:href="#DejaVuSans-72" x="118.457031"/>
       <use xlink:href="#DejaVuSans-65" x="157.320312"/>
       <use xlink:href="#DejaVuSans-65" x="218.84375"/>
       <use xlink:href="#DejaVuSans-6e" x="280.367188"/>
       <use xlink:href="#DejaVuSans-69" x="343.746094"/>
       <use xlink:href="#DejaVuSans-6e" x="371.529297"/>
       <use xlink:href="#DejaVuSans-67" x="434.908203"/>
      </g>
      <!--  classifier -->
      <g transform="translate(144.210522 329.69225) scale(0.1 -0.1)">
       <use xlink:href="#DejaVuSans-20"/>
       <use xlink:href="#DejaVuSans-63" x="31.787109"/>
       <use xlink:href="#DejaVuSans-6c" x="86.767578"/>
       <use xlink:href="#DejaVuSans-61" x="114.550781"/>
       <use xlink:href="#DejaVuSans-73" x="175.830078"/>
       <use xlink:href="#DejaVuSans-73" x="227.929688"/>
       <use xlink:href="#DejaVuSans-69" x="280.029297"/>
       <use xlink:href="#DejaVuSans-66" x="307.8125"/>
       <use xlink:href="#DejaVuSans-69" x="343.017578"/>
       <use xlink:href="#DejaVuSans-65" x="370.800781"/>
       <use xlink:href="#DejaVuSans-72" x="432.324219"/>
      </g>
     </g>
    </g>
    <g id="xtick_3">
     <g id="line2d_3">
      <g>
       <use xlink:href="#m421c0580a9" x="244.941702" y="303.896" style="stroke: #000000; stroke-width: 0.8"/>
      </g>
     </g>
     <g id="text_3">
      <!-- Executive -->
      <g transform="translate(220.599515 318.494438) scale(0.1 -0.1)">
       <defs>
        <path id="DejaVuSans-45" d="M 628 4666 
L 3578 4666 
L 3578 4134 
L 1259 4134 
L 1259 2753 
L 3481 2753 
L 3481 2222 
L 1259 2222 
L 1259 531 
L 3634 531 
L 3634 0 
L 628 0 
L 628 4666 
z
" transform="scale(0.015625)"/>
        <path id="DejaVuSans-78" d="M 3513 3500 
L 2247 1797 
L 3578 0 
L 2900 0 
L 1881 1375 
L 863 0 
L 184 0 
L 1544 1831 
L 300 3500 
L 978 3500 
L 1906 2253 
L 2834 3500 
L 3513 3500 
z
" transform="scale(0.015625)"/>
        <path id="DejaVuSans-74" d="M 1172 4494 
L 1172 3500 
L 2356 3500 
L 2356 3053 
L 1172 3053 
L 1172 1153 
Q 1172 725 1289 603 
Q 1406 481 1766 481 
L 2356 481 
L 2356 0 
L 1766 0 
Q 1100 0 847 248 
Q 594 497 594 1153 
L 594 3053 
L 172 3053 
L 172 3500 
L 594 3500 
L 594 4494 
L 1172 4494 
z
" transform="scale(0.015625)"/>
        <path id="DejaVuSans-76" d="M 191 3500 
L 800 3500 
L 1894 563 
L 2988 3500 
L 3597 3500 
L 2284 0 
L 1503 0 
L 191 3500 
z
" transform="scale(0.015625)"/>
       </defs>
       <use xlink:href="#DejaVuSans-45"/>
       <use xlink:href="#DejaVuSans-78" x="63.183594"/>
       <use xlink:href="#DejaVuSans-65" x="119.238281"/>
       <use xlink:href="#DejaVuSans-63" x="180.761719"/>
       <use xlink:href="#DejaVuSans-75" x="235.742188"/>
       <use xlink:href="#DejaVuSans-74" x="299.121094"/>
       <use xlink:href="#DejaVuSans-69" x="338.330078"/>
       <use xlink:href="#DejaVuSans-76" x="366.113281"/>
       <use xlink:href="#DejaVuSans-65" x="425.292969"/>
      </g>
      <!--  classifier -->
      <g transform="translate(221.270608 329.69225) scale(0.1 -0.1)">
       <use xlink:href="#DejaVuSans-20"/>
       <use xlink:href="#DejaVuSans-63" x="31.787109"/>
       <use xlink:href="#DejaVuSans-6c" x="86.767578"/>
       <use xlink:href="#DejaVuSans-61" x="114.550781"/>
       <use xlink:href="#DejaVuSans-73" x="175.830078"/>
       <use xlink:href="#DejaVuSans-73" x="227.929688"/>
       <use xlink:href="#DejaVuSans-69" x="280.029297"/>
       <use xlink:href="#DejaVuSans-66" x="307.8125"/>
       <use xlink:href="#DejaVuSans-69" x="343.017578"/>
       <use xlink:href="#DejaVuSans-65" x="370.800781"/>
       <use xlink:href="#DejaVuSans-72" x="432.324219"/>
      </g>
     </g>
    </g>
    <g id="xtick_4">
     <g id="line2d_4">
      <g>
       <use xlink:href="#m421c0580a9" x="322.001788" y="303.896" style="stroke: #000000; stroke-width: 0.8"/>
      </g>
     </g>
     <g id="text_4">
      <!-- Structural -->
      <g transform="translate(297.256476 318.494438) scale(0.1 -0.1)">
       <use xlink:href="#DejaVuSans-53"/>
       <use xlink:href="#DejaVuSans-74" x="63.476562"/>
       <use xlink:href="#DejaVuSans-72" x="102.685547"/>
       <use xlink:href="#DejaVuSans-75" x="143.798828"/>
       <use xlink:href="#DejaVuSans-63" x="207.177734"/>
       <use xlink:href="#DejaVuSans-74" x="262.158203"/>
       <use xlink:href="#DejaVuSans-75" x="301.367188"/>
       <use xlink:href="#DejaVuSans-72" x="364.746094"/>
       <use xlink:href="#DejaVuSans-61" x="405.859375"/>
       <use xlink:href="#DejaVuSans-6c" x="467.138672"/>
      </g>
      <!--  classifier -->
      <g transform="translate(298.330695 329.69225) scale(0.1 -0.1)">
       <use xlink:href="#DejaVuSans-20"/>
       <use xlink:href="#DejaVuSans-63" x="31.787109"/>
       <use xlink:href="#DejaVuSans-6c" x="86.767578"/>
       <use xlink:href="#DejaVuSans-61" x="114.550781"/>
       <use xlink:href="#DejaVuSans-73" x="175.830078"/>
       <use xlink:href="#DejaVuSans-73" x="227.929688"/>
       <use xlink:href="#DejaVuSans-69" x="280.029297"/>
       <use xlink:href="#DejaVuSans-66" x="307.8125"/>
       <use xlink:href="#DejaVuSans-69" x="343.017578"/>
       <use xlink:href="#DejaVuSans-65" x="370.800781"/>
       <use xlink:href="#DejaVuSans-72" x="432.324219"/>
      </g>
     </g>
    </g>
    <g id="xtick_5">
     <g id="line2d_5">
      <g>
       <use xlink:href="#m421c0580a9" x="399.061875" y="303.896" style="stroke: #000000; stroke-width: 0.8"/>
      </g>
     </g>
     <g id="text_5">
      <!-- Functional -->
      <g transform="translate(373.343906 318.494438) scale(0.1 -0.1)">
       <defs>
        <path id="DejaVuSans-6f" d="M 1959 3097 
Q 1497 3097 1228 2736 
Q 959 2375 959 1747 
Q 959 1119 1226 758 
Q 1494 397 1959 397 
Q 2419 397 2687 759 
Q 2956 1122 2956 1747 
Q 2956 2369 2687 2733 
Q 2419 3097 1959 3097 
z
M 1959 3584 
Q 2709 3584 3137 3096 
Q 3566 2609 3566 1747 
Q 3566 888 3137 398 
Q 2709 -91 1959 -91 
Q 1206 -91 779 398 
Q 353 888 353 1747 
Q 353 2609 779 3096 
Q 1206 3584 1959 3584 
z
" transform="scale(0.015625)"/>
       </defs>
       <use xlink:href="#DejaVuSans-46"/>
       <use xlink:href="#DejaVuSans-75" x="52.019531"/>
       <use xlink:href="#DejaVuSans-6e" x="115.398438"/>
       <use xlink:href="#DejaVuSans-63" x="178.777344"/>
       <use xlink:href="#DejaVuSans-74" x="233.757812"/>
       <use xlink:href="#DejaVuSans-69" x="272.966797"/>
       <use xlink:href="#DejaVuSans-6f" x="300.75"/>
       <use xlink:href="#DejaVuSans-6e" x="361.931641"/>
       <use xlink:href="#DejaVuSans-61" x="425.310547"/>
       <use xlink:href="#DejaVuSans-6c" x="486.589844"/>
      </g>
      <!--  classifier -->
      <g transform="translate(375.390781 329.69225) scale(0.1 -0.1)">
       <use xlink:href="#DejaVuSans-20"/>
       <use xlink:href="#DejaVuSans-63" x="31.787109"/>
       <use xlink:href="#DejaVuSans-6c" x="86.767578"/>
       <use xlink:href="#DejaVuSans-61" x="114.550781"/>
       <use xlink:href="#DejaVuSans-73" x="175.830078"/>
       <use xlink:href="#DejaVuSans-73" x="227.929688"/>
       <use xlink:href="#DejaVuSans-69" x="280.029297"/>
       <use xlink:href="#DejaVuSans-66" x="307.8125"/>
       <use xlink:href="#DejaVuSans-69" x="343.017578"/>
       <use xlink:href="#DejaVuSans-65" x="370.800781"/>
       <use xlink:href="#DejaVuSans-72" x="432.324219"/>
      </g>
     </g>
    </g>
   </g>
   <g id="matplotlib.axis_2">
    <g id="ytick_1">
     <g id="line2d_6">
      <defs>
       <path id="m734450eeac" d="M 0 0 
L -3.5 0 
" style="stroke: #000000; stroke-width: 0.8"/>
      </defs>
      <g>
       <use xlink:href="#m734450eeac" x="52.85" y="273.221107" style="stroke: #000000; stroke-width: 0.8"/>
      </g>
     </g>
     <g id="text_6">
      <!-- 0.2 -->
      <g transform="translate(29.946875 277.020325) scale(0.1 -0.1)">
       <defs>
        <path id="DejaVuSans-30" d="M 2034 4250 
Q 1547 4250 1301 3770 
Q 1056 3291 1056 2328 
Q 1056 1369 1301 889 
Q 1547 409 2034 409 
Q 2525 409 2770 889 
Q 3016 1369 3016 2328 
Q 3016 3291 2770 3770 
Q 2525 4250 2034 4250 
z
M 2034 4750 
Q 2819 4750 3233 4129 
Q 3647 3509 3647 2328 
Q 3647 1150 3233 529 
Q 2819 -91 2034 -91 
Q 1250 -91 836 529 
Q 422 1150 422 2328 
Q 422 3509 836 4129 
Q 1250 4750 2034 4750 
z
" transform="scale(0.015625)"/>
        <path id="DejaVuSans-2e" d="M 684 794 
L 1344 794 
L 1344 0 
L 684 0 
L 684 794 
z
" transform="scale(0.015625)"/>
        <path id="DejaVuSans-32" d="M 1228 531 
L 3431 531 
L 3431 0 
L 469 0 
L 469 531 
Q 828 903 1448 1529 
Q 2069 2156 2228 2338 
Q 2531 2678 2651 2914 
Q 2772 3150 2772 3378 
Q 2772 3750 2511 3984 
Q 2250 4219 1831 4219 
Q 1534 4219 1204 4116 
Q 875 4013 500 3803 
L 500 4441 
Q 881 4594 1212 4672 
Q 1544 4750 1819 4750 
Q 2544 4750 2975 4387 
Q 3406 4025 3406 3419 
Q 3406 3131 3298 2873 
Q 3191 2616 2906 2266 
Q 2828 2175 2409 1742 
Q 1991 1309 1228 531 
z
" transform="scale(0.015625)"/>
       </defs>
       <use xlink:href="#DejaVuSans-30"/>
       <use xlink:href="#DejaVuSans-2e" x="63.623047"/>
       <use xlink:href="#DejaVuSans-32" x="95.410156"/>
      </g>
     </g>
    </g>
    <g id="ytick_2">
     <g id="line2d_7">
      <g>
       <use xlink:href="#m734450eeac" x="52.85" y="236.626207" style="stroke: #000000; stroke-width: 0.8"/>
      </g>
     </g>
     <g id="text_7">
      <!-- 0.4 -->
      <g transform="translate(29.946875 240.425425) scale(0.1 -0.1)">
       <defs>
        <path id="DejaVuSans-34" d="M 2419 4116 
L 825 1625 
L 2419 1625 
L 2419 4116 
z
M 2253 4666 
L 3047 4666 
L 3047 1625 
L 3713 1625 
L 3713 1100 
L 3047 1100 
L 3047 0 
L 2419 0 
L 2419 1100 
L 313 1100 
L 313 1709 
L 2253 4666 
z
" transform="scale(0.015625)"/>
       </defs>
       <use xlink:href="#DejaVuSans-30"/>
       <use xlink:href="#DejaVuSans-2e" x="63.623047"/>
       <use xlink:href="#DejaVuSans-34" x="95.410156"/>
      </g>
     </g>
    </g>
    <g id="ytick_3">
     <g id="line2d_8">
      <g>
       <use xlink:href="#m734450eeac" x="52.85" y="200.031307" style="stroke: #000000; stroke-width: 0.8"/>
      </g>
     </g>
     <g id="text_8">
      <!-- 0.6 -->
      <g transform="translate(29.946875 203.830526) scale(0.1 -0.1)">
       <defs>
        <path id="DejaVuSans-36" d="M 2113 2584 
Q 1688 2584 1439 2293 
Q 1191 2003 1191 1497 
Q 1191 994 1439 701 
Q 1688 409 2113 409 
Q 2538 409 2786 701 
Q 3034 994 3034 1497 
Q 3034 2003 2786 2293 
Q 2538 2584 2113 2584 
z
M 3366 4563 
L 3366 3988 
Q 3128 4100 2886 4159 
Q 2644 4219 2406 4219 
Q 1781 4219 1451 3797 
Q 1122 3375 1075 2522 
Q 1259 2794 1537 2939 
Q 1816 3084 2150 3084 
Q 2853 3084 3261 2657 
Q 3669 2231 3669 1497 
Q 3669 778 3244 343 
Q 2819 -91 2113 -91 
Q 1303 -91 875 529 
Q 447 1150 447 2328 
Q 447 3434 972 4092 
Q 1497 4750 2381 4750 
Q 2619 4750 2861 4703 
Q 3103 4656 3366 4563 
z
" transform="scale(0.015625)"/>
       </defs>
       <use xlink:href="#DejaVuSans-30"/>
       <use xlink:href="#DejaVuSans-2e" x="63.623047"/>
       <use xlink:href="#DejaVuSans-36" x="95.410156"/>
      </g>
     </g>
    </g>
    <g id="ytick_4">
     <g id="line2d_9">
      <g>
       <use xlink:href="#m734450eeac" x="52.85" y="163.436407" style="stroke: #000000; stroke-width: 0.8"/>
      </g>
     </g>
     <g id="text_9">
      <!-- 0.8 -->
      <g transform="translate(29.946875 167.235626) scale(0.1 -0.1)">
       <defs>
        <path id="DejaVuSans-38" d="M 2034 2216 
Q 1584 2216 1326 1975 
Q 1069 1734 1069 1313 
Q 1069 891 1326 650 
Q 1584 409 2034 409 
Q 2484 409 2743 651 
Q 3003 894 3003 1313 
Q 3003 1734 2745 1975 
Q 2488 2216 2034 2216 
z
M 1403 2484 
Q 997 2584 770 2862 
Q 544 3141 544 3541 
Q 544 4100 942 4425 
Q 1341 4750 2034 4750 
Q 2731 4750 3128 4425 
Q 3525 4100 3525 3541 
Q 3525 3141 3298 2862 
Q 3072 2584 2669 2484 
Q 3125 2378 3379 2068 
Q 3634 1759 3634 1313 
Q 3634 634 3220 271 
Q 2806 -91 2034 -91 
Q 1263 -91 848 271 
Q 434 634 434 1313 
Q 434 1759 690 2068 
Q 947 2378 1403 2484 
z
M 1172 3481 
Q 1172 3119 1398 2916 
Q 1625 2713 2034 2713 
Q 2441 2713 2670 2916 
Q 2900 3119 2900 3481 
Q 2900 3844 2670 4047 
Q 2441 4250 2034 4250 
Q 1625 4250 1398 4047 
Q 1172 3844 1172 3481 
z
" transform="scale(0.015625)"/>
       </defs>
       <use xlink:href="#DejaVuSans-30"/>
       <use xlink:href="#DejaVuSans-2e" x="63.623047"/>
       <use xlink:href="#DejaVuSans-38" x="95.410156"/>
      </g>
     </g>
    </g>
    <g id="ytick_5">
     <g id="line2d_10">
      <g>
       <use xlink:href="#m734450eeac" x="52.85" y="126.841507" style="stroke: #000000; stroke-width: 0.8"/>
      </g>
     </g>
     <g id="text_10">
      <!-- 1.0 -->
      <g transform="translate(29.946875 130.640726) scale(0.1 -0.1)">
       <defs>
        <path id="DejaVuSans-31" d="M 794 531 
L 1825 531 
L 1825 4091 
L 703 3866 
L 703 4441 
L 1819 4666 
L 2450 4666 
L 2450 531 
L 3481 531 
L 3481 0 
L 794 0 
L 794 531 
z
" transform="scale(0.015625)"/>
       </defs>
       <use xlink:href="#DejaVuSans-31"/>
       <use xlink:href="#DejaVuSans-2e" x="63.623047"/>
       <use xlink:href="#DejaVuSans-30" x="95.410156"/>
      </g>
     </g>
    </g>
    <g id="ytick_6">
     <g id="line2d_11">
      <g>
       <use xlink:href="#m734450eeac" x="52.85" y="90.246607" style="stroke: #000000; stroke-width: 0.8"/>
      </g>
     </g>
     <g id="text_11">
      <!-- 1.2 -->
      <g transform="translate(29.946875 94.045826) scale(0.1 -0.1)">
       <use xlink:href="#DejaVuSans-31"/>
       <use xlink:href="#DejaVuSans-2e" x="63.623047"/>
       <use xlink:href="#DejaVuSans-32" x="95.410156"/>
      </g>
     </g>
    </g>
    <g id="ytick_7">
     <g id="line2d_12">
      <g>
       <use xlink:href="#m734450eeac" x="52.85" y="53.651707" style="stroke: #000000; stroke-width: 0.8"/>
      </g>
     </g>
     <g id="text_12">
      <!-- 1.4 -->
      <g transform="translate(29.946875 57.450926) scale(0.1 -0.1)">
       <use xlink:href="#DejaVuSans-31"/>
       <use xlink:href="#DejaVuSans-2e" x="63.623047"/>
       <use xlink:href="#DejaVuSans-34" x="95.410156"/>
      </g>
     </g>
    </g>
    <g id="ytick_8">
     <g id="line2d_13">
      <g>
       <use xlink:href="#m734450eeac" x="52.85" y="17.056808" style="stroke: #000000; stroke-width: 0.8"/>
      </g>
     </g>
     <g id="text_13">
      <!-- 1.6 -->
      <g transform="translate(29.946875 20.856026) scale(0.1 -0.1)">
       <use xlink:href="#DejaVuSans-31"/>
       <use xlink:href="#DejaVuSans-2e" x="63.623047"/>
       <use xlink:href="#DejaVuSans-36" x="95.410156"/>
      </g>
     </g>
    </g>
    <g id="text_14">
     <!-- NORM CROSS ENTROPY -->
     <g transform="translate(23.45125 230.65431) rotate(-90) scale(0.12 -0.12)">
      <defs>
       <path id="DejaVuSans-4e" d="M 628 4666 
L 1478 4666 
L 3547 763 
L 3547 4666 
L 4159 4666 
L 4159 0 
L 3309 0 
L 1241 3903 
L 1241 0 
L 628 0 
L 628 4666 
z
" transform="scale(0.015625)"/>
       <path id="DejaVuSans-4f" d="M 2522 4238 
Q 1834 4238 1429 3725 
Q 1025 3213 1025 2328 
Q 1025 1447 1429 934 
Q 1834 422 2522 422 
Q 3209 422 3611 934 
Q 4013 1447 4013 2328 
Q 4013 3213 3611 3725 
Q 3209 4238 2522 4238 
z
M 2522 4750 
Q 3503 4750 4090 4092 
Q 4678 3434 4678 2328 
Q 4678 1225 4090 567 
Q 3503 -91 2522 -91 
Q 1538 -91 948 565 
Q 359 1222 359 2328 
Q 359 3434 948 4092 
Q 1538 4750 2522 4750 
z
" transform="scale(0.015625)"/>
       <path id="DejaVuSans-52" d="M 2841 2188 
Q 3044 2119 3236 1894 
Q 3428 1669 3622 1275 
L 4263 0 
L 3584 0 
L 2988 1197 
Q 2756 1666 2539 1819 
Q 2322 1972 1947 1972 
L 1259 1972 
L 1259 0 
L 628 0 
L 628 4666 
L 2053 4666 
Q 2853 4666 3247 4331 
Q 3641 3997 3641 3322 
Q 3641 2881 3436 2590 
Q 3231 2300 2841 2188 
z
M 1259 4147 
L 1259 2491 
L 2053 2491 
Q 2509 2491 2742 2702 
Q 2975 2913 2975 3322 
Q 2975 3731 2742 3939 
Q 2509 4147 2053 4147 
L 1259 4147 
z
" transform="scale(0.015625)"/>
       <path id="DejaVuSans-4d" d="M 628 4666 
L 1569 4666 
L 2759 1491 
L 3956 4666 
L 4897 4666 
L 4897 0 
L 4281 0 
L 4281 4097 
L 3078 897 
L 2444 897 
L 1241 4097 
L 1241 0 
L 628 0 
L 628 4666 
z
" transform="scale(0.015625)"/>
       <path id="DejaVuSans-43" d="M 4122 4306 
L 4122 3641 
Q 3803 3938 3442 4084 
Q 3081 4231 2675 4231 
Q 1875 4231 1450 3742 
Q 1025 3253 1025 2328 
Q 1025 1406 1450 917 
Q 1875 428 2675 428 
Q 3081 428 3442 575 
Q 3803 722 4122 1019 
L 4122 359 
Q 3791 134 3420 21 
Q 3050 -91 2638 -91 
Q 1578 -91 968 557 
Q 359 1206 359 2328 
Q 359 3453 968 4101 
Q 1578 4750 2638 4750 
Q 3056 4750 3426 4639 
Q 3797 4528 4122 4306 
z
" transform="scale(0.015625)"/>
       <path id="DejaVuSans-54" d="M -19 4666 
L 3928 4666 
L 3928 4134 
L 2272 4134 
L 2272 0 
L 1638 0 
L 1638 4134 
L -19 4134 
L -19 4666 
z
" transform="scale(0.015625)"/>
       <path id="DejaVuSans-50" d="M 1259 4147 
L 1259 2394 
L 2053 2394 
Q 2494 2394 2734 2622 
Q 2975 2850 2975 3272 
Q 2975 3691 2734 3919 
Q 2494 4147 2053 4147 
L 1259 4147 
z
M 628 4666 
L 2053 4666 
Q 2838 4666 3239 4311 
Q 3641 3956 3641 3272 
Q 3641 2581 3239 2228 
Q 2838 1875 2053 1875 
L 1259 1875 
L 1259 0 
L 628 0 
L 628 4666 
z
" transform="scale(0.015625)"/>
       <path id="DejaVuSans-59" d="M -13 4666 
L 666 4666 
L 1959 2747 
L 3244 4666 
L 3922 4666 
L 2272 2222 
L 2272 0 
L 1638 0 
L 1638 2222 
L -13 4666 
z
" transform="scale(0.015625)"/>
      </defs>
      <use xlink:href="#DejaVuSans-4e"/>
      <use xlink:href="#DejaVuSans-4f" x="74.804688"/>
      <use xlink:href="#DejaVuSans-52" x="153.515625"/>
      <use xlink:href="#DejaVuSans-4d" x="222.998047"/>
      <use xlink:href="#DejaVuSans-20" x="309.277344"/>
      <use xlink:href="#DejaVuSans-43" x="341.064453"/>
      <use xlink:href="#DejaVuSans-52" x="410.888672"/>
      <use xlink:href="#DejaVuSans-4f" x="480.371094"/>
      <use xlink:href="#DejaVuSans-53" x="559.082031"/>
      <use xlink:href="#DejaVuSans-53" x="622.558594"/>
      <use xlink:href="#DejaVuSans-20" x="686.035156"/>
      <use xlink:href="#DejaVuSans-45" x="717.822266"/>
      <use xlink:href="#DejaVuSans-4e" x="781.005859"/>
      <use xlink:href="#DejaVuSans-54" x="855.810547"/>
      <use xlink:href="#DejaVuSans-52" x="916.894531"/>
      <use xlink:href="#DejaVuSans-4f" x="986.376953"/>
      <use xlink:href="#DejaVuSans-50" x="1065.087891"/>
      <use xlink:href="#DejaVuSans-59" x="1123.140625"/>
     </g>
    </g>
   </g>
   <g id="LineCollection_1">
    <path d="M 90.82153 201.668929 
L 90.82153 95.084453 
" clip-path="url(#pa957ff7744)" style="fill: none; stroke: #000000; stroke-width: 1.5"/>
    <path d="M 167.881616 267.391539 
L 167.881616 197.557492 
" clip-path="url(#pa957ff7744)" style="fill: none; stroke: #000000; stroke-width: 1.5"/>
    <path d="M 244.941702 201.524379 
L 244.941702 112.40116 
" clip-path="url(#pa957ff7744)" style="fill: none; stroke: #000000; stroke-width: 1.5"/>
    <path d="M 322.001788 235.23926 
L 322.001788 127.791145 
" clip-path="url(#pa957ff7744)" style="fill: none; stroke: #000000; stroke-width: 1.5"/>
    <path d="M 399.061875 148.685003 
L 399.061875 79.099801 
" clip-path="url(#pa957ff7744)" style="fill: none; stroke: #000000; stroke-width: 1.5"/>
   </g>
   <g id="line2d_14">
    <defs>
     <path id="m43c0e8b620" d="M 5 0 
L -5 -0 
" style="stroke: #000000"/>
    </defs>
    <g clip-path="url(#pa957ff7744)">
     <use xlink:href="#m43c0e8b620" x="90.82153" y="201.668929" style="stroke: #000000"/>
     <use xlink:href="#m43c0e8b620" x="167.881616" y="267.391539" style="stroke: #000000"/>
     <use xlink:href="#m43c0e8b620" x="244.941702" y="201.524379" style="stroke: #000000"/>
     <use xlink:href="#m43c0e8b620" x="322.001788" y="235.23926" style="stroke: #000000"/>
     <use xlink:href="#m43c0e8b620" x="399.061875" y="148.685003" style="stroke: #000000"/>
    </g>
   </g>
   <g id="line2d_15">
    <g clip-path="url(#pa957ff7744)">
     <use xlink:href="#m43c0e8b620" x="90.82153" y="95.084453" style="stroke: #000000"/>
     <use xlink:href="#m43c0e8b620" x="167.881616" y="197.557492" style="stroke: #000000"/>
     <use xlink:href="#m43c0e8b620" x="244.941702" y="112.40116" style="stroke: #000000"/>
     <use xlink:href="#m43c0e8b620" x="322.001788" y="127.791145" style="stroke: #000000"/>
     <use xlink:href="#m43c0e8b620" x="399.061875" y="79.099801" style="stroke: #000000"/>
    </g>
   </g>
   <g id="line2d_16">
    <defs>
     <path id="mb25611959b" d="M 0 5.656854 
L 5.656854 0 
L 0 -5.656854 
L -5.656854 0 
z
" style="stroke: #000000; stroke-linejoin: miter"/>
    </defs>
    <g clip-path="url(#pa957ff7744)">
     <use xlink:href="#mb25611959b" x="90.82153" y="156.031429" style="stroke: #000000; stroke-linejoin: miter"/>
     <use xlink:href="#mb25611959b" x="167.881616" y="235.376491" style="stroke: #000000; stroke-linejoin: miter"/>
     <use xlink:href="#mb25611959b" x="244.941702" y="160.04223" style="stroke: #000000; stroke-linejoin: miter"/>
     <use xlink:href="#mb25611959b" x="322.001788" y="191.671202" style="stroke: #000000; stroke-linejoin: miter"/>
     <use xlink:href="#mb25611959b" x="399.061875" y="118.21426" style="stroke: #000000; stroke-linejoin: miter"/>
    </g>
   </g>
   <g id="patch_3">
    <path d="M 52.85 303.896 
L 52.85 15.300744 
" style="fill: none; stroke: #000000; stroke-width: 0.8; stroke-linejoin: miter; stroke-linecap: square"/>
   </g>
   <g id="patch_4">
    <path d="M 447.84 303.896 
L 447.84 15.300744 
" style="fill: none; stroke: #000000; stroke-width: 0.8; stroke-linejoin: miter; stroke-linecap: square"/>
   </g>
   <g id="patch_5">
    <path d="M 52.85 303.896 
L 447.84 303.896 
" style="fill: none; stroke: #000000; stroke-width: 0.8; stroke-linejoin: miter; stroke-linecap: square"/>
   </g>
   <g id="patch_6">
    <path d="M 52.85 15.300744 
L 447.84 15.300744 
" style="fill: none; stroke: #000000; stroke-width: 0.8; stroke-linejoin: miter; stroke-linecap: square"/>
   </g>
  </g>
 </g>
 <defs>
  <clipPath id="pa957ff7744">
   <rect x="52.85" y="15.300744" width="394.99" height="288.595256"/>
  </clipPath>
 </defs>
</svg>
