<?xml version="1.0" encoding="utf-8" standalone="no"?>
<!DOCTYPE svg PUBLIC "-//W3C//DTD SVG 1.1//EN"
  "http://www.w3.org/Graphics/SVG/1.1/DTD/svg11.dtd">
<svg xmlns:xlink="http://www.w3.org/1999/xlink" width="460.8pt" height="345.6pt" viewBox="0 0 460.8 345.6" xmlns="http://www.w3.org/2000/svg" version="1.1">
 <metadata>
  <rdf:RDF xmlns:dc="http://purl.org/dc/elements/1.1/" xmlns:cc="http://creativecommons.org/ns#" xmlns:rdf="http://www.w3.org/1999/02/22-rdf-syntax-ns#">
   <cc:Work>
    <dc:type rdf:resource="http://purl.org/dc/dcmitype/StillImage"/>
    <dc:date>2025-09-22T14:38:28.092380</dc:date>
    <dc:format>image/svg+xml</dc:format>
    <dc:creator>
     <cc:Agent>
      <dc:title>Matplotlib v3.9.4, https://matplotlib.org/</dc:title>
     </cc:Agent>
    </dc:creator>
   </cc:Work>
  </rdf:RDF>
 </metadata>
 <defs>
  <style type="text/css">*{stroke-linejoin: round; stroke-linecap: butt}</style>
 </defs>
 <g id="figure_1">
  <g id="patch_1">
   <path d="M 0 345.6 
L 460.8 345.6 
L 460.8 0 
L 0 0 
z
" style="fill: #ffffff"/>
  </g>
  <g id="axes_1">
   <g id="patch_2">
    <path d="M 52.85 303.896 
L 447.84 303.896 
L 447.84 16.017049 
L 52.85 16.017049 
z
" style="fill: #ffffff"/>
   </g>
   <g id="PolyCollection_1">
    <defs>
     <path id="m0ab5fca682" d="M 86.132772 -99.956561 
L 86.083896 -99.956561 
L 86.061864 -102.143844 
L 86.026011 -104.331127 
L 85.971681 -106.518409 
L 85.894254 -108.705692 
L 85.789158 -110.892975 
L 85.651373 -113.080257 
L 85.474776 -115.26754 
L 85.25205 -117.454822 
L 84.975779 -119.642105 
L 84.640482 -121.829388 
L 84.244337 -124.01667 
L 83.789096 -126.203953 
L 83.277766 -128.391236 
L 82.711645 -130.578518 
L 82.089529 -132.765801 
L 81.411055 -134.953084 
L 80.683078 -137.140366 
L 79.924795 -139.327649 
L 79.166731 -141.514932 
L 78.441857 -143.702214 
L 77.77239 -145.889497 
L 77.15958 -148.07678 
L 76.583079 -150.264062 
L 76.011357 -152.451345 
L 75.418084 -154.638628 
L 74.795753 -156.82591 
L 74.159271 -159.013193 
L 73.538132 -161.200476 
L 72.962306 -163.387758 
L 72.450248 -165.575041 
L 72.005568 -167.762324 
L 71.623199 -169.949606 
L 71.300172 -172.136889 
L 71.043721 -174.324172 
L 70.871534 -176.511454 
L 70.804091 -178.698737 
L 70.853938 -180.88602 
L 71.018448 -183.073302 
L 71.280143 -185.260585 
L 71.613713 -187.447867 
L 71.994973 -189.63515 
L 72.406685 -191.822433 
L 72.839243 -194.009715 
L 73.287935 -196.196998 
L 73.75026 -198.384281 
L 74.225673 -200.571563 
L 74.71749 -202.758846 
L 75.234476 -204.946129 
L 75.789416 -207.133411 
L 76.394041 -209.320694 
L 77.05254 -211.507977 
L 77.757282 -213.695259 
L 78.48913 -215.882542 
L 79.221862 -218.069825 
L 79.928173 -220.257107 
L 80.58487 -222.44439 
L 81.176273 -224.631673 
L 81.695877 -226.818955 
L 82.146284 -229.006238 
L 82.537143 -231.193521 
L 82.881258 -233.380803 
L 83.190064 -235.568086 
L 83.470342 -237.755369 
L 83.723646 -239.942651 
L 83.948509 -242.129934 
L 84.144 -244.317217 
L 84.312503 -246.504499 
L 84.460163 -248.691782 
L 84.595024 -250.879065 
L 84.724269 -253.066347 
L 84.852407 -255.25363 
L 84.981298 -257.440913 
L 85.111362 -259.628195 
L 85.242564 -261.815478 
L 85.374211 -264.00276 
L 85.503921 -266.190043 
L 85.627044 -268.377326 
L 85.737512 -270.564608 
L 85.829955 -272.751891 
L 85.901837 -274.939174 
L 85.954315 -277.126456 
L 85.991378 -279.313739 
L 86.017889 -281.501022 
L 86.037693 -283.688304 
L 86.052681 -285.875587 
L 86.063015 -288.06287 
L 86.068117 -290.250152 
L 86.067785 -292.437435 
L 86.062931 -294.624718 
L 86.055693 -296.812 
L 86.048945 -298.999283 
L 86.045398 -301.186566 
L 86.046702 -303.373848 
L 86.052947 -305.561131 
L 86.062785 -307.748414 
L 86.074094 -309.935696 
L 86.084818 -312.122979 
L 86.09358 -314.310262 
L 86.099879 -316.497544 
L 86.116789 -316.497544 
L 86.116789 -316.497544 
L 86.123088 -314.310262 
L 86.13185 -312.122979 
L 86.142574 -309.935696 
L 86.153883 -307.748414 
L 86.163721 -305.561131 
L 86.169965 -303.373848 
L 86.17127 -301.186566 
L 86.167723 -298.999283 
L 86.160975 -296.812 
L 86.153737 -294.624718 
L 86.148882 -292.437435 
L 86.148551 -290.250152 
L 86.153653 -288.06287 
L 86.163987 -285.875587 
L 86.178975 -283.688304 
L 86.198779 -281.501022 
L 86.22529 -279.313739 
L 86.262352 -277.126456 
L 86.314831 -274.939174 
L 86.386713 -272.751891 
L 86.479156 -270.564608 
L 86.589624 -268.377326 
L 86.712746 -266.190043 
L 86.842457 -264.00276 
L 86.974103 -261.815478 
L 87.105306 -259.628195 
L 87.23537 -257.440913 
L 87.36426 -255.25363 
L 87.492399 -253.066347 
L 87.621643 -250.879065 
L 87.756505 -248.691782 
L 87.904165 -246.504499 
L 88.072667 -244.317217 
L 88.268159 -242.129934 
L 88.493022 -239.942651 
L 88.746326 -237.755369 
L 89.026604 -235.568086 
L 89.33541 -233.380803 
L 89.679525 -231.193521 
L 90.070384 -229.006238 
L 90.520791 -226.818955 
L 91.040395 -224.631673 
L 91.631798 -222.44439 
L 92.288495 -220.257107 
L 92.994806 -218.069825 
L 93.727538 -215.882542 
L 94.459386 -213.695259 
L 95.164128 -211.507977 
L 95.822627 -209.320694 
L 96.427252 -207.133411 
L 96.982192 -204.946129 
L 97.499178 -202.758846 
L 97.990994 -200.571563 
L 98.466407 -198.384281 
L 98.928733 -196.196998 
L 99.377425 -194.009715 
L 99.809983 -191.822433 
L 100.221695 -189.63515 
L 100.602955 -187.447867 
L 100.936525 -185.260585 
L 101.19822 -183.073302 
L 101.36273 -180.88602 
L 101.412577 -178.698737 
L 101.345134 -176.511454 
L 101.172947 -174.324172 
L 100.916496 -172.136889 
L 100.593469 -169.949606 
L 100.211099 -167.762324 
L 99.76642 -165.575041 
L 99.254362 -163.387758 
L 98.678535 -161.200476 
L 98.057397 -159.013193 
L 97.420915 -156.82591 
L 96.798583 -154.638628 
L 96.205311 -152.451345 
L 95.633589 -150.264062 
L 95.057088 -148.07678 
L 94.444277 -145.889497 
L 93.774811 -143.702214 
L 93.049937 -141.514932 
L 92.291873 -139.327649 
L 91.53359 -137.140366 
L 90.805612 -134.953084 
L 90.127139 -132.765801 
L 89.505022 -130.578518 
L 88.938902 -128.391236 
L 88.427572 -126.203953 
L 87.97233 -124.01667 
L 87.576186 -121.829388 
L 87.240889 -119.642105 
L 86.964618 -117.454822 
L 86.741892 -115.26754 
L 86.565294 -113.080257 
L 86.42751 -110.892975 
L 86.322414 -108.705692 
L 86.244987 -106.518409 
L 86.190657 -104.331127 
L 86.154804 -102.143844 
L 86.132772 -99.956561 
z
" style="stroke: #3f3f3f; stroke-width: 1.25"/>
    </defs>
    <g clip-path="url(#pabf4efe69a)">
     <use xlink:href="#m0ab5fca682" x="0" y="345.6" style="fill: #3274a1; stroke: #3f3f3f; stroke-width: 1.25"/>
    </g>
   </g>
   <g id="PolyCollection_2">
    <defs>
     <path id="m730a852521" d="M 166.215731 -92.995488 
L 166.106536 -92.995488 
L 166.060113 -94.060341 
L 165.988202 -95.125195 
L 165.885839 -96.190048 
L 165.750742 -97.254902 
L 165.583048 -98.319756 
L 165.383316 -99.384609 
L 165.149752 -100.449463 
L 164.876499 -101.514316 
L 164.554302 -102.57917 
L 164.173137 -103.644023 
L 163.724878 -104.708877 
L 163.204259 -105.773731 
L 162.607994 -106.838584 
L 161.933358 -107.903438 
L 161.177532 -108.968291 
L 160.33787 -110.033145 
L 159.412442 -111.097998 
L 158.400229 -112.162852 
L 157.300605 -113.227706 
L 156.111583 -114.292559 
L 154.826743 -115.357413 
L 153.43274 -116.422266 
L 151.911781 -117.48712 
L 150.252888 -118.551973 
L 148.47014 -119.616827 
L 146.618181 -120.681681 
L 144.79191 -121.746534 
L 143.103662 -122.811388 
L 141.645203 -123.876241 
L 140.453911 -124.941095 
L 139.502899 -126.005948 
L 138.721337 -127.070802 
L 138.032633 -128.135656 
L 137.387703 -129.200509 
L 136.775614 -130.265363 
L 136.210307 -131.330216 
L 135.707408 -132.39507 
L 135.268994 -133.459923 
L 134.885674 -134.524777 
L 134.55255 -135.589631 
L 134.287459 -136.654484 
L 134.140014 -137.719338 
L 134.185791 -138.784191 
L 134.507388 -139.849045 
L 135.169815 -140.913898 
L 136.200075 -141.978752 
L 137.578538 -143.043605 
L 139.243689 -144.108459 
L 141.105664 -145.173313 
L 143.061862 -146.238166 
L 145.01046 -147.30302 
L 146.861387 -148.367873 
L 148.545468 -149.432727 
L 150.02105 -150.49758 
L 151.27647 -151.562434 
L 152.32798 -152.627288 
L 153.214683 -153.692141 
L 153.992025 -154.756995 
L 154.723636 -155.821848 
L 155.470519 -156.886702 
L 156.278515 -157.951555 
L 157.16794 -159.016409 
L 158.129887 -160.081263 
L 159.130746 -161.146116 
L 160.122355 -162.21097 
L 161.053297 -163.275823 
L 161.878327 -164.340677 
L 162.565544 -165.40553 
L 163.102043 -166.470384 
L 163.497468 -167.535238 
L 163.783012 -168.600091 
L 164.003603 -169.664945 
L 164.204152 -170.729798 
L 164.414893 -171.794652 
L 164.642705 -172.859505 
L 164.872923 -173.924359 
L 165.080543 -174.989213 
L 165.244628 -176.054066 
L 165.35846 -177.11892 
L 165.431135 -178.183773 
L 165.481319 -179.248627 
L 165.527643 -180.31348 
L 165.580838 -181.378334 
L 165.640852 -182.443188 
L 165.699276 -183.508041 
L 165.745181 -184.572895 
L 165.771339 -185.637748 
L 165.778112 -186.702602 
L 165.773563 -187.767455 
L 165.770085 -188.832309 
L 165.779333 -189.897163 
L 165.807832 -190.962016 
L 165.855084 -192.02687 
L 165.914654 -193.091723 
L 165.977296 -194.156577 
L 166.034443 -195.22143 
L 166.080589 -196.286284 
L 166.11395 -197.351138 
L 166.135691 -198.415991 
L 166.186575 -198.415991 
L 166.186575 -198.415991 
L 166.208317 -197.351138 
L 166.241678 -196.286284 
L 166.287824 -195.22143 
L 166.34497 -194.156577 
L 166.407613 -193.091723 
L 166.467183 -192.02687 
L 166.514435 -190.962016 
L 166.542933 -189.897163 
L 166.552182 -188.832309 
L 166.548704 -187.767455 
L 166.544155 -186.702602 
L 166.550927 -185.637748 
L 166.577086 -184.572895 
L 166.622991 -183.508041 
L 166.681415 -182.443188 
L 166.741428 -181.378334 
L 166.794624 -180.31348 
L 166.840948 -179.248627 
L 166.891132 -178.183773 
L 166.963807 -177.11892 
L 167.077639 -176.054066 
L 167.241724 -174.989213 
L 167.449344 -173.924359 
L 167.679562 -172.859505 
L 167.907374 -171.794652 
L 168.118115 -170.729798 
L 168.318664 -169.664945 
L 168.539254 -168.600091 
L 168.824799 -167.535238 
L 169.220224 -166.470384 
L 169.756723 -165.40553 
L 170.44394 -164.340677 
L 171.26897 -163.275823 
L 172.199912 -162.21097 
L 173.19152 -161.146116 
L 174.19238 -160.081263 
L 175.154327 -159.016409 
L 176.043752 -157.951555 
L 176.851748 -156.886702 
L 177.598631 -155.821848 
L 178.330241 -154.756995 
L 179.107583 -153.692141 
L 179.994287 -152.627288 
L 181.045797 -151.562434 
L 182.301217 -150.49758 
L 183.776799 -149.432727 
L 185.46088 -148.367873 
L 187.311807 -147.30302 
L 189.260405 -146.238166 
L 191.216603 -145.173313 
L 193.078578 -144.108459 
L 194.743729 -143.043605 
L 196.122192 -141.978752 
L 197.152452 -140.913898 
L 197.814879 -139.849045 
L 198.136476 -138.784191 
L 198.182253 -137.719338 
L 198.034808 -136.654484 
L 197.769717 -135.589631 
L 197.436593 -134.524777 
L 197.053273 -133.459923 
L 196.614859 -132.39507 
L 196.11196 -131.330216 
L 195.546653 -130.265363 
L 194.934564 -129.200509 
L 194.289634 -128.135656 
L 193.600929 -127.070802 
L 192.819367 -126.005948 
L 191.868356 -124.941095 
L 190.677063 -123.876241 
L 189.218604 -122.811388 
L 187.530357 -121.746534 
L 185.704085 -120.681681 
L 183.852127 -119.616827 
L 182.069379 -118.551973 
L 180.410485 -117.48712 
L 178.889527 -116.422266 
L 177.495524 -115.357413 
L 176.210684 -114.292559 
L 175.021662 -113.227706 
L 173.922038 -112.162852 
L 172.909825 -111.097998 
L 171.984397 -110.033145 
L 171.144735 -108.968291 
L 170.388909 -107.903438 
L 169.714273 -106.838584 
L 169.118008 -105.773731 
L 168.597389 -104.708877 
L 168.149129 -103.644023 
L 167.767965 -102.57917 
L 167.445768 -101.514316 
L 167.172514 -100.449463 
L 166.93895 -99.384609 
L 166.739219 -98.319756 
L 166.571525 -97.254902 
L 166.436428 -96.190048 
L 166.334065 -95.125195 
L 166.262153 -94.060341 
L 166.215731 -92.995488 
z
" style="stroke: #3f3f3f; stroke-width: 1.25"/>
    </defs>
    <g clip-path="url(#pabf4efe69a)">
     <use xlink:href="#m730a852521" x="0" y="345.6" style="fill: #3274a1; stroke: #3f3f3f; stroke-width: 1.25"/>
    </g>
   </g>
   <g id="PolyCollection_3">
    <defs>
     <path id="m7415f90b5f" d="M 246.230524 -133.369804 
L 246.197342 -133.369804 
L 246.185217 -134.466128 
L 246.16757 -135.562453 
L 246.143739 -136.658777 
L 246.113538 -137.755102 
L 246.07695 -138.851426 
L 246.033467 -139.947751 
L 245.981366 -141.044075 
L 245.91736 -142.1404 
L 245.836946 -143.236724 
L 245.735392 -144.333049 
L 245.608927 -145.429373 
L 245.455482 -146.525698 
L 245.274551 -147.622022 
L 245.066147 -148.718347 
L 244.829348 -149.814672 
L 244.561112 -150.910996 
L 244.255802 -152.007321 
L 243.905249 -153.103645 
L 243.498702 -154.19997 
L 243.022201 -155.296294 
L 242.457872 -156.392619 
L 241.784555 -157.488943 
L 240.98115 -158.585268 
L 240.032617 -159.681592 
L 238.936675 -160.777917 
L 237.708098 -161.874241 
L 236.378077 -162.970566 
L 234.988018 -164.06689 
L 233.579529 -165.163215 
L 232.184274 -166.259539 
L 230.818113 -167.355864 
L 229.48286 -168.452189 
L 228.175714 -169.548513 
L 226.90209 -170.644838 
L 225.684655 -171.741162 
L 224.562418 -172.837487 
L 223.57898 -173.933811 
L 222.765648 -175.030136 
L 222.128634 -176.12646 
L 221.647431 -177.222785 
L 221.284766 -178.319109 
L 221.001741 -179.415434 
L 220.769019 -180.511758 
L 220.56815 -181.608083 
L 220.383937 -182.704407 
L 220.195096 -183.800732 
L 219.972179 -184.897056 
L 219.687484 -185.993381 
L 219.333666 -187.089706 
L 218.9408 -188.18603 
L 218.580428 -189.282355 
L 218.351237 -190.378679 
L 218.351054 -191.475004 
L 218.647634 -192.571328 
L 219.261207 -193.667653 
L 220.164915 -194.763977 
L 221.299829 -195.860302 
L 222.59518 -196.956626 
L 223.984619 -198.052951 
L 225.414201 -199.149275 
L 226.843098 -200.2456 
L 228.240804 -201.341924 
L 229.584254 -202.438249 
L 230.856479 -203.534574 
L 232.046859 -204.630898 
L 233.15228 -205.727223 
L 234.178179 -206.823547 
L 235.138244 -207.919872 
L 236.051643 -209.016196 
L 236.937498 -210.112521 
L 237.807973 -211.208845 
L 238.66279 -212.30517 
L 239.487982 -213.401494 
L 240.259846 -214.497819 
L 240.952535 -215.594143 
L 241.546059 -216.690468 
L 242.031854 -217.786792 
L 242.414649 -218.883117 
L 242.711089 -219.979441 
L 242.946268 -221.075766 
L 243.149188 -222.172091 
L 243.347753 -223.268415 
L 243.563835 -224.36474 
L 243.809259 -225.461064 
L 244.0839 -226.557389 
L 244.376879 -227.653713 
L 244.67083 -228.750038 
L 244.94785 -229.846362 
L 245.194783 -230.942687 
L 245.405843 -232.039011 
L 245.581934 -233.135336 
L 245.727747 -234.23166 
L 245.84852 -235.327985 
L 245.948056 -236.424309 
L 246.028438 -237.520634 
L 246.090901 -238.616958 
L 246.136892 -239.713283 
L 246.168627 -240.809608 
L 246.189008 -241.905932 
L 246.238858 -241.905932 
L 246.238858 -241.905932 
L 246.259239 -240.809608 
L 246.290974 -239.713283 
L 246.336964 -238.616958 
L 246.399428 -237.520634 
L 246.47981 -236.424309 
L 246.579346 -235.327985 
L 246.700119 -234.23166 
L 246.845932 -233.135336 
L 247.022023 -232.039011 
L 247.233082 -230.942687 
L 247.480016 -229.846362 
L 247.757035 -228.750038 
L 248.050987 -227.653713 
L 248.343965 -226.557389 
L 248.618606 -225.461064 
L 248.864031 -224.36474 
L 249.080113 -223.268415 
L 249.278678 -222.172091 
L 249.481597 -221.075766 
L 249.716776 -219.979441 
L 250.013217 -218.883117 
L 250.396012 -217.786792 
L 250.881806 -216.690468 
L 251.475331 -215.594143 
L 252.168019 -214.497819 
L 252.939884 -213.401494 
L 253.765075 -212.30517 
L 254.619893 -211.208845 
L 255.490368 -210.112521 
L 256.376223 -209.016196 
L 257.289622 -207.919872 
L 258.249686 -206.823547 
L 259.275585 -205.727223 
L 260.381007 -204.630898 
L 261.571387 -203.534574 
L 262.843611 -202.438249 
L 264.187061 -201.341924 
L 265.584767 -200.2456 
L 267.013665 -199.149275 
L 268.443247 -198.052951 
L 269.832686 -196.956626 
L 271.128036 -195.860302 
L 272.262951 -194.763977 
L 273.166659 -193.667653 
L 273.780231 -192.571328 
L 274.076811 -191.475004 
L 274.076629 -190.378679 
L 273.847438 -189.282355 
L 273.487066 -188.18603 
L 273.0942 -187.089706 
L 272.740382 -185.993381 
L 272.455686 -184.897056 
L 272.23277 -183.800732 
L 272.043929 -182.704407 
L 271.859715 -181.608083 
L 271.658847 -180.511758 
L 271.426125 -179.415434 
L 271.143099 -178.319109 
L 270.780435 -177.222785 
L 270.299231 -176.12646 
L 269.662218 -175.030136 
L 268.848885 -173.933811 
L 267.865448 -172.837487 
L 266.743211 -171.741162 
L 265.525776 -170.644838 
L 264.252152 -169.548513 
L 262.945006 -168.452189 
L 261.609753 -167.355864 
L 260.243592 -166.259539 
L 258.848337 -165.163215 
L 257.439848 -164.06689 
L 256.049789 -162.970566 
L 254.719768 -161.874241 
L 253.491191 -160.777917 
L 252.395249 -159.681592 
L 251.446716 -158.585268 
L 250.64331 -157.488943 
L 249.969994 -156.392619 
L 249.405665 -155.296294 
L 248.929164 -154.19997 
L 248.522616 -153.103645 
L 248.172064 -152.007321 
L 247.866754 -150.910996 
L 247.598518 -149.814672 
L 247.361719 -148.718347 
L 247.153315 -147.622022 
L 246.972383 -146.525698 
L 246.818939 -145.429373 
L 246.692473 -144.333049 
L 246.59092 -143.236724 
L 246.510506 -142.1404 
L 246.4465 -141.044075 
L 246.394399 -139.947751 
L 246.350916 -138.851426 
L 246.314328 -137.755102 
L 246.284127 -136.658777 
L 246.260295 -135.562453 
L 246.242648 -134.466128 
L 246.230524 -133.369804 
z
" style="stroke: #3f3f3f; stroke-width: 1.25"/>
    </defs>
    <g clip-path="url(#pabf4efe69a)">
     <use xlink:href="#m7415f90b5f" x="0" y="345.6" style="fill: #3274a1; stroke: #3f3f3f; stroke-width: 1.25"/>
    </g>
   </g>
   <g id="PolyCollection_4">
    <defs>
     <path id="m09973a7374" d="M 326.279688 -54.789407 
L 326.253776 -54.789407 
L 326.240082 -57.287658 
L 326.216715 -59.785909 
L 326.180769 -62.28416 
L 326.130761 -64.782412 
L 326.067314 -67.280663 
L 325.992465 -69.778914 
L 325.907126 -72.277165 
L 325.807562 -74.775416 
L 325.682964 -77.273667 
L 325.51618 -79.771919 
L 325.287779 -82.27017 
L 324.9812 -84.768421 
L 324.585908 -87.266672 
L 324.097142 -89.764923 
L 323.513582 -92.263175 
L 322.835537 -94.761426 
L 322.065249 -97.259677 
L 321.209071 -99.757928 
L 320.280215 -102.256179 
L 319.300542 -104.75443 
L 318.299889 -107.252682 
L 317.312228 -109.750933 
L 316.370057 -112.249184 
L 315.500115 -114.747435 
L 314.721736 -117.245686 
L 314.045629 -119.743938 
L 313.470887 -122.242189 
L 312.983405 -124.74044 
L 312.562588 -127.238691 
L 312.197341 -129.736942 
L 311.900438 -132.235193 
L 311.7062 -134.733445 
L 311.647767 -137.231696 
L 311.728589 -139.729947 
L 311.910702 -142.228198 
L 312.131129 -144.726449 
L 312.336169 -147.224701 
L 312.509372 -149.722952 
L 312.674589 -152.221203 
L 312.875295 -154.719454 
L 313.148279 -157.217705 
L 313.510203 -159.715956 
L 313.961619 -162.214208 
L 314.49862 -164.712459 
L 315.119235 -167.21071 
L 315.819993 -169.708961 
L 316.588478 -172.207212 
L 317.400675 -174.705464 
L 318.226206 -177.203715 
L 319.036944 -179.701966 
L 319.812376 -182.200217 
L 320.539358 -184.698468 
L 321.208735 -187.196719 
L 321.812494 -189.694971 
L 322.343062 -192.193222 
L 322.794544 -194.691473 
L 323.165199 -197.189724 
L 323.460393 -199.687975 
L 323.694613 -202.186227 
L 323.89056 -204.684478 
L 324.074159 -207.182729 
L 324.266666 -209.68098 
L 324.477438 -212.179231 
L 324.701314 -214.677482 
L 324.922373 -217.175734 
L 325.12236 -219.673985 
L 325.289466 -222.172236 
L 325.423056 -224.670487 
L 325.532257 -227.168738 
L 325.62986 -229.66699 
L 325.725482 -232.165241 
L 325.821799 -234.663492 
L 325.915208 -237.161743 
L 325.999348 -239.659994 
L 326.068698 -242.158245 
L 326.120512 -244.656497 
L 326.155093 -247.154748 
L 326.175288 -249.652999 
L 326.185749 -252.15125 
L 326.191848 -254.649501 
L 326.198209 -257.147753 
L 326.207361 -259.646004 
L 326.219265 -262.144255 
L 326.231974 -264.642506 
L 326.242932 -267.140757 
L 326.250062 -269.639008 
L 326.252197 -272.13726 
L 326.249049 -274.635511 
L 326.24116 -277.133762 
L 326.230064 -279.632013 
L 326.218364 -282.130264 
L 326.209304 -284.628516 
L 326.205704 -287.126767 
L 326.208768 -289.625018 
L 326.217544 -292.123269 
L 326.229442 -294.62152 
L 326.241478 -297.119771 
L 326.251453 -299.618023 
L 326.258474 -302.116274 
L 326.274991 -302.116274 
L 326.274991 -302.116274 
L 326.282012 -299.618023 
L 326.291987 -297.119771 
L 326.304022 -294.62152 
L 326.315921 -292.123269 
L 326.324697 -289.625018 
L 326.327761 -287.126767 
L 326.324161 -284.628516 
L 326.315101 -282.130264 
L 326.303401 -279.632013 
L 326.292304 -277.133762 
L 326.284416 -274.635511 
L 326.281267 -272.13726 
L 326.283403 -269.639008 
L 326.290533 -267.140757 
L 326.301491 -264.642506 
L 326.3142 -262.144255 
L 326.326103 -259.646004 
L 326.335256 -257.147753 
L 326.341617 -254.649501 
L 326.347715 -252.15125 
L 326.358176 -249.652999 
L 326.378372 -247.154748 
L 326.412953 -244.656497 
L 326.464767 -242.158245 
L 326.534117 -239.659994 
L 326.618256 -237.161743 
L 326.711666 -234.663492 
L 326.807983 -232.165241 
L 326.903605 -229.66699 
L 327.001208 -227.168738 
L 327.110408 -224.670487 
L 327.243999 -222.172236 
L 327.411105 -219.673985 
L 327.611091 -217.175734 
L 327.832151 -214.677482 
L 328.056027 -212.179231 
L 328.266798 -209.68098 
L 328.459306 -207.182729 
L 328.642905 -204.684478 
L 328.838852 -202.186227 
L 329.073072 -199.687975 
L 329.368266 -197.189724 
L 329.738921 -194.691473 
L 330.190403 -192.193222 
L 330.720971 -189.694971 
L 331.32473 -187.196719 
L 331.994107 -184.698468 
L 332.721089 -182.200217 
L 333.496521 -179.701966 
L 334.307258 -177.203715 
L 335.13279 -174.705464 
L 335.944987 -172.207212 
L 336.713472 -169.708961 
L 337.41423 -167.21071 
L 338.034844 -164.712459 
L 338.571846 -162.214208 
L 339.023261 -159.715956 
L 339.385186 -157.217705 
L 339.65817 -154.719454 
L 339.858876 -152.221203 
L 340.024092 -149.722952 
L 340.197295 -147.224701 
L 340.402335 -144.726449 
L 340.622763 -142.228198 
L 340.804875 -139.729947 
L 340.885698 -137.231696 
L 340.827264 -134.733445 
L 340.633027 -132.235193 
L 340.336124 -129.736942 
L 339.970877 -127.238691 
L 339.55006 -124.74044 
L 339.062578 -122.242189 
L 338.487836 -119.743938 
L 337.811729 -117.245686 
L 337.033349 -114.747435 
L 336.163408 -112.249184 
L 335.221237 -109.750933 
L 334.233575 -107.252682 
L 333.232923 -104.75443 
L 332.253249 -102.256179 
L 331.324394 -99.757928 
L 330.468216 -97.259677 
L 329.697928 -94.761426 
L 329.019882 -92.263175 
L 328.436323 -89.764923 
L 327.947557 -87.266672 
L 327.552265 -84.768421 
L 327.245686 -82.27017 
L 327.017285 -79.771919 
L 326.850501 -77.273667 
L 326.725903 -74.775416 
L 326.626339 -72.277165 
L 326.541 -69.778914 
L 326.466151 -67.280663 
L 326.402704 -64.782412 
L 326.352695 -62.28416 
L 326.31675 -59.785909 
L 326.293383 -57.287658 
L 326.279688 -54.789407 
z
" style="stroke: #3f3f3f; stroke-width: 1.25"/>
    </defs>
    <g clip-path="url(#pabf4efe69a)">
     <use xlink:href="#m09973a7374" x="0" y="345.6" style="fill: #3274a1; stroke: #3f3f3f; stroke-width: 1.25"/>
    </g>
   </g>
   <g id="PolyCollection_5">
    <defs>
     <path id="m66615616ef" d="M 406.34149 -165.489668 
L 406.297574 -165.489668 
L 406.279917 -166.819275 
L 406.252432 -168.148882 
L 406.212244 -169.478489 
L 406.156393 -170.808096 
L 406.081396 -172.137703 
L 405.98221 -173.467311 
L 405.850942 -174.796918 
L 405.676134 -176.126525 
L 405.443629 -177.456132 
L 405.139467 -178.785739 
L 404.754151 -180.115346 
L 404.286432 -181.444953 
L 403.744518 -182.77456 
L 403.143654 -184.104167 
L 402.500938 -185.433774 
L 401.829852 -186.763381 
L 401.137141 -188.092988 
L 400.42324 -189.422596 
L 399.685468 -190.752203 
L 398.922033 -192.08181 
L 398.135125 -193.411417 
L 397.332283 -194.741024 
L 396.52589 -196.070631 
L 395.730589 -197.400238 
L 394.958604 -198.729845 
L 394.213967 -200.059452 
L 393.488379 -201.389059 
L 392.761938 -202.718666 
L 392.010072 -204.048273 
L 391.214019 -205.377881 
L 390.369182 -206.707488 
L 389.486167 -208.037095 
L 388.583864 -209.366702 
L 387.679544 -210.696309 
L 386.783386 -212.025916 
L 385.902106 -213.355523 
L 385.049915 -214.68513 
L 384.259144 -216.014737 
L 383.581849 -217.344344 
L 383.078383 -218.673951 
L 382.796798 -220.003558 
L 382.753155 -221.333166 
L 382.923246 -222.662773 
L 383.250537 -223.99238 
L 383.66652 -225.321987 
L 384.113522 -226.651594 
L 384.559763 -227.981201 
L 385.001654 -229.310808 
L 385.455265 -230.640415 
L 385.943367 -231.970022 
L 386.484757 -233.299629 
L 387.089525 -234.629236 
L 387.760072 -235.958843 
L 388.494942 -237.28845 
L 389.292085 -238.618058 
L 390.149633 -239.947665 
L 391.064443 -241.277272 
L 392.030093 -242.606879 
L 393.035739 -243.936486 
L 394.066058 -245.266093 
L 395.101613 -246.5957 
L 396.119342 -247.925307 
L 397.093895 -249.254914 
L 398.000881 -250.584521 
L 398.821977 -251.914128 
L 399.550062 -253.243735 
L 400.191447 -254.573343 
L 400.763234 -255.90295 
L 401.286361 -257.232557 
L 401.777452 -258.562164 
L 402.243409 -259.891771 
L 402.681166 -261.221378 
L 403.082224 -262.550985 
L 403.439187 -263.880592 
L 403.750922 -265.210199 
L 404.024149 -266.539806 
L 404.271258 -267.869413 
L 404.505764 -269.19902 
L 404.737508 -270.528628 
L 404.969446 -271.858235 
L 405.197031 -273.187842 
L 405.410157 -274.517449 
L 405.596771 -275.847056 
L 405.746783 -277.176663 
L 405.855035 -278.50627 
L 405.922593 -279.835877 
L 405.956351 -281.165484 
L 405.967357 -282.495091 
L 405.968406 -283.824698 
L 405.971427 -285.154305 
L 405.985127 -286.483913 
L 406.013454 -287.81352 
L 406.055327 -289.143127 
L 406.105777 -290.472734 
L 406.158056 -291.802341 
L 406.205909 -293.131948 
L 406.245179 -294.461555 
L 406.274331 -295.791162 
L 406.294023 -297.120769 
L 406.345041 -297.120769 
L 406.345041 -297.120769 
L 406.364733 -295.791162 
L 406.393885 -294.461555 
L 406.433154 -293.131948 
L 406.481007 -291.802341 
L 406.533287 -290.472734 
L 406.583737 -289.143127 
L 406.62561 -287.81352 
L 406.653936 -286.483913 
L 406.667637 -285.154305 
L 406.670658 -283.824698 
L 406.671707 -282.495091 
L 406.682712 -281.165484 
L 406.716471 -279.835877 
L 406.784029 -278.50627 
L 406.892281 -277.176663 
L 407.042293 -275.847056 
L 407.228906 -274.517449 
L 407.442032 -273.187842 
L 407.669617 -271.858235 
L 407.901556 -270.528628 
L 408.1333 -269.19902 
L 408.367806 -267.869413 
L 408.614915 -266.539806 
L 408.888142 -265.210199 
L 409.199876 -263.880592 
L 409.55684 -262.550985 
L 409.957898 -261.221378 
L 410.395654 -259.891771 
L 410.861611 -258.562164 
L 411.352703 -257.232557 
L 411.87583 -255.90295 
L 412.447616 -254.573343 
L 413.089001 -253.243735 
L 413.817087 -251.914128 
L 414.638183 -250.584521 
L 415.545168 -249.254914 
L 416.519722 -247.925307 
L 417.53745 -246.5957 
L 418.573005 -245.266093 
L 419.603325 -243.936486 
L 420.608971 -242.606879 
L 421.574621 -241.277272 
L 422.489431 -239.947665 
L 423.346978 -238.618058 
L 424.144122 -237.28845 
L 424.878992 -235.958843 
L 425.549539 -234.629236 
L 426.154307 -233.299629 
L 426.695696 -231.970022 
L 427.183799 -230.640415 
L 427.637409 -229.310808 
L 428.079301 -227.981201 
L 428.525541 -226.651594 
L 428.972544 -225.321987 
L 429.388527 -223.99238 
L 429.715818 -222.662773 
L 429.885909 -221.333166 
L 429.842265 -220.003558 
L 429.560681 -218.673951 
L 429.057214 -217.344344 
L 428.37992 -216.014737 
L 427.589148 -214.68513 
L 426.736957 -213.355523 
L 425.855678 -212.025916 
L 424.959519 -210.696309 
L 424.0552 -209.366702 
L 423.152897 -208.037095 
L 422.269881 -206.707488 
L 421.425045 -205.377881 
L 420.628992 -204.048273 
L 419.877125 -202.718666 
L 419.150685 -201.389059 
L 418.425096 -200.059452 
L 417.68046 -198.729845 
L 416.908474 -197.400238 
L 416.113174 -196.070631 
L 415.30678 -194.741024 
L 414.503939 -193.411417 
L 413.71703 -192.08181 
L 412.953596 -190.752203 
L 412.215823 -189.422596 
L 411.501923 -188.092988 
L 410.809212 -186.763381 
L 410.138126 -185.433774 
L 409.49541 -184.104167 
L 408.894546 -182.77456 
L 408.352632 -181.444953 
L 407.884912 -180.115346 
L 407.499597 -178.785739 
L 407.195435 -177.456132 
L 406.962929 -176.126525 
L 406.788121 -174.796918 
L 406.656853 -173.467311 
L 406.557668 -172.137703 
L 406.482671 -170.808096 
L 406.42682 -169.478489 
L 406.386632 -168.148882 
L 406.359147 -166.819275 
L 406.34149 -165.489668 
z
" style="stroke: #3f3f3f; stroke-width: 1.25"/>
    </defs>
    <g clip-path="url(#pabf4efe69a)">
     <use xlink:href="#m66615616ef" x="0" y="345.6" style="fill: #3274a1; stroke: #3f3f3f; stroke-width: 1.25"/>
    </g>
   </g>
   <g id="matplotlib.axis_1">
    <g id="xtick_1">
     <g id="line2d_1">
      <defs>
       <path id="mfe455c3671" d="M 0 0 
L 0 3.5 
" style="stroke: #000000; stroke-width: 0.8"/>
      </defs>
      <g>
       <use xlink:href="#mfe455c3671" x="86.108334" y="303.896" style="stroke: #000000; stroke-width: 0.8"/>
      </g>
     </g>
     <g id="text_1">
      <!-- Fluency -->
      <g transform="translate(66.720834 318.494438) scale(0.1 -0.1)">
       <defs>
        <path id="DejaVuSans-46" d="M 628 4666 
L 3309 4666 
L 3309 4134 
L 1259 4134 
L 1259 2759 
L 3109 2759 
L 3109 2228 
L 1259 2228 
L 1259 0 
L 628 0 
L 628 4666 
z
" transform="scale(0.015625)"/>
        <path id="DejaVuSans-6c" d="M 603 4863 
L 1178 4863 
L 1178 0 
L 603 0 
L 603 4863 
z
" transform="scale(0.015625)"/>
        <path id="DejaVuSans-75" d="M 544 1381 
L 544 3500 
L 1119 3500 
L 1119 1403 
Q 1119 906 1312 657 
Q 1506 409 1894 409 
Q 2359 409 2629 706 
Q 2900 1003 2900 1516 
L 2900 3500 
L 3475 3500 
L 3475 0 
L 2900 0 
L 2900 538 
Q 2691 219 2414 64 
Q 2138 -91 1772 -91 
Q 1169 -91 856 284 
Q 544 659 544 1381 
z
M 1991 3584 
L 1991 3584 
z
" transform="scale(0.015625)"/>
        <path id="DejaVuSans-65" d="M 3597 1894 
L 3597 1613 
L 953 1613 
Q 991 1019 1311 708 
Q 1631 397 2203 397 
Q 2534 397 2845 478 
Q 3156 559 3463 722 
L 3463 178 
Q 3153 47 2828 -22 
Q 2503 -91 2169 -91 
Q 1331 -91 842 396 
Q 353 884 353 1716 
Q 353 2575 817 3079 
Q 1281 3584 2069 3584 
Q 2775 3584 3186 3129 
Q 3597 2675 3597 1894 
z
M 3022 2063 
Q 3016 2534 2758 2815 
Q 2500 3097 2075 3097 
Q 1594 3097 1305 2825 
Q 1016 2553 972 2059 
L 3022 2063 
z
" transform="scale(0.015625)"/>
        <path id="DejaVuSans-6e" d="M 3513 2113 
L 3513 0 
L 2938 0 
L 2938 2094 
Q 2938 2591 2744 2837 
Q 2550 3084 2163 3084 
Q 1697 3084 1428 2787 
Q 1159 2491 1159 1978 
L 1159 0 
L 581 0 
L 581 3500 
L 1159 3500 
L 1159 2956 
Q 1366 3272 1645 3428 
Q 1925 3584 2291 3584 
Q 2894 3584 3203 3211 
Q 3513 2838 3513 2113 
z
" transform="scale(0.015625)"/>
        <path id="DejaVuSans-63" d="M 3122 3366 
L 3122 2828 
Q 2878 2963 2633 3030 
Q 2388 3097 2138 3097 
Q 1578 3097 1268 2742 
Q 959 2388 959 1747 
Q 959 1106 1268 751 
Q 1578 397 2138 397 
Q 2388 397 2633 464 
Q 2878 531 3122 666 
L 3122 134 
Q 2881 22 2623 -34 
Q 2366 -91 2075 -91 
Q 1284 -91 818 406 
Q 353 903 353 1747 
Q 353 2603 823 3093 
Q 1294 3584 2113 3584 
Q 2378 3584 2631 3529 
Q 2884 3475 3122 3366 
z
" transform="scale(0.015625)"/>
        <path id="DejaVuSans-79" d="M 2059 -325 
Q 1816 -950 1584 -1140 
Q 1353 -1331 966 -1331 
L 506 -1331 
L 506 -850 
L 844 -850 
Q 1081 -850 1212 -737 
Q 1344 -625 1503 -206 
L 1606 56 
L 191 3500 
L 800 3500 
L 1894 763 
L 2988 3500 
L 3597 3500 
L 2059 -325 
z
" transform="scale(0.015625)"/>
       </defs>
       <use xlink:href="#DejaVuSans-46"/>
       <use xlink:href="#DejaVuSans-6c" x="57.519531"/>
       <use xlink:href="#DejaVuSans-75" x="85.302734"/>
       <use xlink:href="#DejaVuSans-65" x="148.681641"/>
       <use xlink:href="#DejaVuSans-6e" x="210.205078"/>
       <use xlink:href="#DejaVuSans-63" x="273.583984"/>
       <use xlink:href="#DejaVuSans-79" x="328.564453"/>
      </g>
      <!--  classifier -->
      <g transform="translate(62.43724 329.69225) scale(0.1 -0.1)">
       <defs>
        <path id="DejaVuSans-20" transform="scale(0.015625)"/>
        <path id="DejaVuSans-61" d="M 2194 1759 
Q 1497 1759 1228 1600 
Q 959 1441 959 1056 
Q 959 750 1161 570 
Q 1363 391 1709 391 
Q 2188 391 2477 730 
Q 2766 1069 2766 1631 
L 2766 1759 
L 2194 1759 
z
M 3341 1997 
L 3341 0 
L 2766 0 
L 2766 531 
Q 2569 213 2275 61 
Q 1981 -91 1556 -91 
Q 1019 -91 701 211 
Q 384 513 384 1019 
Q 384 1609 779 1909 
Q 1175 2209 1959 2209 
L 2766 2209 
L 2766 2266 
Q 2766 2663 2505 2880 
Q 2244 3097 1772 3097 
Q 1472 3097 1187 3025 
Q 903 2953 641 2809 
L 641 3341 
Q 956 3463 1253 3523 
Q 1550 3584 1831 3584 
Q 2591 3584 2966 3190 
Q 3341 2797 3341 1997 
z
" transform="scale(0.015625)"/>
        <path id="DejaVuSans-73" d="M 2834 3397 
L 2834 2853 
Q 2591 2978 2328 3040 
Q 2066 3103 1784 3103 
Q 1356 3103 1142 2972 
Q 928 2841 928 2578 
Q 928 2378 1081 2264 
Q 1234 2150 1697 2047 
L 1894 2003 
Q 2506 1872 2764 1633 
Q 3022 1394 3022 966 
Q 3022 478 2636 193 
Q 2250 -91 1575 -91 
Q 1294 -91 989 -36 
Q 684 19 347 128 
L 347 722 
Q 666 556 975 473 
Q 1284 391 1588 391 
Q 1994 391 2212 530 
Q 2431 669 2431 922 
Q 2431 1156 2273 1281 
Q 2116 1406 1581 1522 
L 1381 1569 
Q 847 1681 609 1914 
Q 372 2147 372 2553 
Q 372 3047 722 3315 
Q 1072 3584 1716 3584 
Q 2034 3584 2315 3537 
Q 2597 3491 2834 3397 
z
" transform="scale(0.015625)"/>
        <path id="DejaVuSans-69" d="M 603 3500 
L 1178 3500 
L 1178 0 
L 603 0 
L 603 3500 
z
M 603 4863 
L 1178 4863 
L 1178 4134 
L 603 4134 
L 603 4863 
z
" transform="scale(0.015625)"/>
        <path id="DejaVuSans-66" d="M 2375 4863 
L 2375 4384 
L 1825 4384 
Q 1516 4384 1395 4259 
Q 1275 4134 1275 3809 
L 1275 3500 
L 2222 3500 
L 2222 3053 
L 1275 3053 
L 1275 0 
L 697 0 
L 697 3053 
L 147 3053 
L 147 3500 
L 697 3500 
L 697 3744 
Q 697 4328 969 4595 
Q 1241 4863 1831 4863 
L 2375 4863 
z
" transform="scale(0.015625)"/>
        <path id="DejaVuSans-72" d="M 2631 2963 
Q 2534 3019 2420 3045 
Q 2306 3072 2169 3072 
Q 1681 3072 1420 2755 
Q 1159 2438 1159 1844 
L 1159 0 
L 581 0 
L 581 3500 
L 1159 3500 
L 1159 2956 
Q 1341 3275 1631 3429 
Q 1922 3584 2338 3584 
Q 2397 3584 2469 3576 
Q 2541 3569 2628 3553 
L 2631 2963 
z
" transform="scale(0.015625)"/>
       </defs>
       <use xlink:href="#DejaVuSans-20"/>
       <use xlink:href="#DejaVuSans-63" x="31.787109"/>
       <use xlink:href="#DejaVuSans-6c" x="86.767578"/>
       <use xlink:href="#DejaVuSans-61" x="114.550781"/>
       <use xlink:href="#DejaVuSans-73" x="175.830078"/>
       <use xlink:href="#DejaVuSans-73" x="227.929688"/>
       <use xlink:href="#DejaVuSans-69" x="280.029297"/>
       <use xlink:href="#DejaVuSans-66" x="307.8125"/>
       <use xlink:href="#DejaVuSans-69" x="343.017578"/>
       <use xlink:href="#DejaVuSans-65" x="370.800781"/>
       <use xlink:href="#DejaVuSans-72" x="432.324219"/>
      </g>
     </g>
    </g>
    <g id="xtick_2">
     <g id="line2d_2">
      <g>
       <use xlink:href="#mfe455c3671" x="166.161133" y="303.896" style="stroke: #000000; stroke-width: 0.8"/>
      </g>
     </g>
     <g id="text_2">
      <!-- Screening -->
      <g transform="translate(141.240821 318.494438) scale(0.1 -0.1)">
       <defs>
        <path id="DejaVuSans-53" d="M 3425 4513 
L 3425 3897 
Q 3066 4069 2747 4153 
Q 2428 4238 2131 4238 
Q 1616 4238 1336 4038 
Q 1056 3838 1056 3469 
Q 1056 3159 1242 3001 
Q 1428 2844 1947 2747 
L 2328 2669 
Q 3034 2534 3370 2195 
Q 3706 1856 3706 1288 
Q 3706 609 3251 259 
Q 2797 -91 1919 -91 
Q 1588 -91 1214 -16 
Q 841 59 441 206 
L 441 856 
Q 825 641 1194 531 
Q 1563 422 1919 422 
Q 2459 422 2753 634 
Q 3047 847 3047 1241 
Q 3047 1584 2836 1778 
Q 2625 1972 2144 2069 
L 1759 2144 
Q 1053 2284 737 2584 
Q 422 2884 422 3419 
Q 422 4038 858 4394 
Q 1294 4750 2059 4750 
Q 2388 4750 2728 4690 
Q 3069 4631 3425 4513 
z
" transform="scale(0.015625)"/>
        <path id="DejaVuSans-67" d="M 2906 1791 
Q 2906 2416 2648 2759 
Q 2391 3103 1925 3103 
Q 1463 3103 1205 2759 
Q 947 2416 947 1791 
Q 947 1169 1205 825 
Q 1463 481 1925 481 
Q 2391 481 2648 825 
Q 2906 1169 2906 1791 
z
M 3481 434 
Q 3481 -459 3084 -895 
Q 2688 -1331 1869 -1331 
Q 1566 -1331 1297 -1286 
Q 1028 -1241 775 -1147 
L 775 -588 
Q 1028 -725 1275 -790 
Q 1522 -856 1778 -856 
Q 2344 -856 2625 -561 
Q 2906 -266 2906 331 
L 2906 616 
Q 2728 306 2450 153 
Q 2172 0 1784 0 
Q 1141 0 747 490 
Q 353 981 353 1791 
Q 353 2603 747 3093 
Q 1141 3584 1784 3584 
Q 2172 3584 2450 3431 
Q 2728 3278 2906 2969 
L 2906 3500 
L 3481 3500 
L 3481 434 
z
" transform="scale(0.015625)"/>
       </defs>
       <use xlink:href="#DejaVuSans-53"/>
       <use xlink:href="#DejaVuSans-63" x="63.476562"/>
       <use xlink:href="#DejaVuSans-72" x="118.457031"/>
       <use xlink:href="#DejaVuSans-65" x="157.320312"/>
       <use xlink:href="#DejaVuSans-65" x="218.84375"/>
       <use xlink:href="#DejaVuSans-6e" x="280.367188"/>
       <use xlink:href="#DejaVuSans-69" x="343.746094"/>
       <use xlink:href="#DejaVuSans-6e" x="371.529297"/>
       <use xlink:href="#DejaVuSans-67" x="434.908203"/>
      </g>
      <!--  classifier -->
      <g transform="translate(142.49004 329.69225) scale(0.1 -0.1)">
       <use xlink:href="#DejaVuSans-20"/>
       <use xlink:href="#DejaVuSans-63" x="31.787109"/>
       <use xlink:href="#DejaVuSans-6c" x="86.767578"/>
       <use xlink:href="#DejaVuSans-61" x="114.550781"/>
       <use xlink:href="#DejaVuSans-73" x="175.830078"/>
       <use xlink:href="#DejaVuSans-73" x="227.929688"/>
       <use xlink:href="#DejaVuSans-69" x="280.029297"/>
       <use xlink:href="#DejaVuSans-66" x="307.8125"/>
       <use xlink:href="#DejaVuSans-69" x="343.017578"/>
       <use xlink:href="#DejaVuSans-65" x="370.800781"/>
       <use xlink:href="#DejaVuSans-72" x="432.324219"/>
      </g>
     </g>
    </g>
    <g id="xtick_3">
     <g id="line2d_3">
      <g>
       <use xlink:href="#mfe455c3671" x="246.213933" y="303.896" style="stroke: #000000; stroke-width: 0.8"/>
      </g>
     </g>
     <g id="text_3">
      <!-- Executive -->
      <g transform="translate(221.871745 318.494438) scale(0.1 -0.1)">
       <defs>
        <path id="DejaVuSans-45" d="M 628 4666 
L 3578 4666 
L 3578 4134 
L 1259 4134 
L 1259 2753 
L 3481 2753 
L 3481 2222 
L 1259 2222 
L 1259 531 
L 3634 531 
L 3634 0 
L 628 0 
L 628 4666 
z
" transform="scale(0.015625)"/>
        <path id="DejaVuSans-78" d="M 3513 3500 
L 2247 1797 
L 3578 0 
L 2900 0 
L 1881 1375 
L 863 0 
L 184 0 
L 1544 1831 
L 300 3500 
L 978 3500 
L 1906 2253 
L 2834 3500 
L 3513 3500 
z
" transform="scale(0.015625)"/>
        <path id="DejaVuSans-74" d="M 1172 4494 
L 1172 3500 
L 2356 3500 
L 2356 3053 
L 1172 3053 
L 1172 1153 
Q 1172 725 1289 603 
Q 1406 481 1766 481 
L 2356 481 
L 2356 0 
L 1766 0 
Q 1100 0 847 248 
Q 594 497 594 1153 
L 594 3053 
L 172 3053 
L 172 3500 
L 594 3500 
L 594 4494 
L 1172 4494 
z
" transform="scale(0.015625)"/>
        <path id="DejaVuSans-76" d="M 191 3500 
L 800 3500 
L 1894 563 
L 2988 3500 
L 3597 3500 
L 2284 0 
L 1503 0 
L 191 3500 
z
" transform="scale(0.015625)"/>
       </defs>
       <use xlink:href="#DejaVuSans-45"/>
       <use xlink:href="#DejaVuSans-78" x="63.183594"/>
       <use xlink:href="#DejaVuSans-65" x="119.238281"/>
       <use xlink:href="#DejaVuSans-63" x="180.761719"/>
       <use xlink:href="#DejaVuSans-75" x="235.742188"/>
       <use xlink:href="#DejaVuSans-74" x="299.121094"/>
       <use xlink:href="#DejaVuSans-69" x="338.330078"/>
       <use xlink:href="#DejaVuSans-76" x="366.113281"/>
       <use xlink:href="#DejaVuSans-65" x="425.292969"/>
      </g>
      <!--  classifier -->
      <g transform="translate(222.542839 329.69225) scale(0.1 -0.1)">
       <use xlink:href="#DejaVuSans-20"/>
       <use xlink:href="#DejaVuSans-63" x="31.787109"/>
       <use xlink:href="#DejaVuSans-6c" x="86.767578"/>
       <use xlink:href="#DejaVuSans-61" x="114.550781"/>
       <use xlink:href="#DejaVuSans-73" x="175.830078"/>
       <use xlink:href="#DejaVuSans-73" x="227.929688"/>
       <use xlink:href="#DejaVuSans-69" x="280.029297"/>
       <use xlink:href="#DejaVuSans-66" x="307.8125"/>
       <use xlink:href="#DejaVuSans-69" x="343.017578"/>
       <use xlink:href="#DejaVuSans-65" x="370.800781"/>
       <use xlink:href="#DejaVuSans-72" x="432.324219"/>
      </g>
     </g>
    </g>
    <g id="xtick_4">
     <g id="line2d_4">
      <g>
       <use xlink:href="#mfe455c3671" x="326.266732" y="303.896" style="stroke: #000000; stroke-width: 0.8"/>
      </g>
     </g>
     <g id="text_4">
      <!-- Structural -->
      <g transform="translate(301.52142 318.494438) scale(0.1 -0.1)">
       <use xlink:href="#DejaVuSans-53"/>
       <use xlink:href="#DejaVuSans-74" x="63.476562"/>
       <use xlink:href="#DejaVuSans-72" x="102.685547"/>
       <use xlink:href="#DejaVuSans-75" x="143.798828"/>
       <use xlink:href="#DejaVuSans-63" x="207.177734"/>
       <use xlink:href="#DejaVuSans-74" x="262.158203"/>
       <use xlink:href="#DejaVuSans-75" x="301.367188"/>
       <use xlink:href="#DejaVuSans-72" x="364.746094"/>
       <use xlink:href="#DejaVuSans-61" x="405.859375"/>
       <use xlink:href="#DejaVuSans-6c" x="467.138672"/>
      </g>
      <!--  classifier -->
      <g transform="translate(302.595639 329.69225) scale(0.1 -0.1)">
       <use xlink:href="#DejaVuSans-20"/>
       <use xlink:href="#DejaVuSans-63" x="31.787109"/>
       <use xlink:href="#DejaVuSans-6c" x="86.767578"/>
       <use xlink:href="#DejaVuSans-61" x="114.550781"/>
       <use xlink:href="#DejaVuSans-73" x="175.830078"/>
       <use xlink:href="#DejaVuSans-73" x="227.929688"/>
       <use xlink:href="#DejaVuSans-69" x="280.029297"/>
       <use xlink:href="#DejaVuSans-66" x="307.8125"/>
       <use xlink:href="#DejaVuSans-69" x="343.017578"/>
       <use xlink:href="#DejaVuSans-65" x="370.800781"/>
       <use xlink:href="#DejaVuSans-72" x="432.324219"/>
      </g>
     </g>
    </g>
    <g id="xtick_5">
     <g id="line2d_5">
      <g>
       <use xlink:href="#mfe455c3671" x="406.319532" y="303.896" style="stroke: #000000; stroke-width: 0.8"/>
      </g>
     </g>
     <g id="text_5">
      <!-- Functional -->
      <g transform="translate(380.601563 318.494438) scale(0.1 -0.1)">
       <defs>
        <path id="DejaVuSans-6f" d="M 1959 3097 
Q 1497 3097 1228 2736 
Q 959 2375 959 1747 
Q 959 1119 1226 758 
Q 1494 397 1959 397 
Q 2419 397 2687 759 
Q 2956 1122 2956 1747 
Q 2956 2369 2687 2733 
Q 2419 3097 1959 3097 
z
M 1959 3584 
Q 2709 3584 3137 3096 
Q 3566 2609 3566 1747 
Q 3566 888 3137 398 
Q 2709 -91 1959 -91 
Q 1206 -91 779 398 
Q 353 888 353 1747 
Q 353 2609 779 3096 
Q 1206 3584 1959 3584 
z
" transform="scale(0.015625)"/>
       </defs>
       <use xlink:href="#DejaVuSans-46"/>
       <use xlink:href="#DejaVuSans-75" x="52.019531"/>
       <use xlink:href="#DejaVuSans-6e" x="115.398438"/>
       <use xlink:href="#DejaVuSans-63" x="178.777344"/>
       <use xlink:href="#DejaVuSans-74" x="233.757812"/>
       <use xlink:href="#DejaVuSans-69" x="272.966797"/>
       <use xlink:href="#DejaVuSans-6f" x="300.75"/>
       <use xlink:href="#DejaVuSans-6e" x="361.931641"/>
       <use xlink:href="#DejaVuSans-61" x="425.310547"/>
       <use xlink:href="#DejaVuSans-6c" x="486.589844"/>
      </g>
      <!--  classifier -->
      <g transform="translate(382.648438 329.69225) scale(0.1 -0.1)">
       <use xlink:href="#DejaVuSans-20"/>
       <use xlink:href="#DejaVuSans-63" x="31.787109"/>
       <use xlink:href="#DejaVuSans-6c" x="86.767578"/>
       <use xlink:href="#DejaVuSans-61" x="114.550781"/>
       <use xlink:href="#DejaVuSans-73" x="175.830078"/>
       <use xlink:href="#DejaVuSans-73" x="227.929688"/>
       <use xlink:href="#DejaVuSans-69" x="280.029297"/>
       <use xlink:href="#DejaVuSans-66" x="307.8125"/>
       <use xlink:href="#DejaVuSans-69" x="343.017578"/>
       <use xlink:href="#DejaVuSans-65" x="370.800781"/>
       <use xlink:href="#DejaVuSans-72" x="432.324219"/>
      </g>
     </g>
    </g>
   </g>
   <g id="matplotlib.axis_2">
    <g id="ytick_1">
     <g id="line2d_6">
      <defs>
       <path id="m7e27a200c4" d="M 0 0 
L -3.5 0 
" style="stroke: #000000; stroke-width: 0.8"/>
      </defs>
      <g>
       <use xlink:href="#m7e27a200c4" x="52.85" y="289.993069" style="stroke: #000000; stroke-width: 0.8"/>
      </g>
     </g>
     <g id="text_6">
      <!-- 0.2 -->
      <g transform="translate(29.946875 293.792287) scale(0.1 -0.1)">
       <defs>
        <path id="DejaVuSans-30" d="M 2034 4250 
Q 1547 4250 1301 3770 
Q 1056 3291 1056 2328 
Q 1056 1369 1301 889 
Q 1547 409 2034 409 
Q 2525 409 2770 889 
Q 3016 1369 3016 2328 
Q 3016 3291 2770 3770 
Q 2525 4250 2034 4250 
z
M 2034 4750 
Q 2819 4750 3233 4129 
Q 3647 3509 3647 2328 
Q 3647 1150 3233 529 
Q 2819 -91 2034 -91 
Q 1250 -91 836 529 
Q 422 1150 422 2328 
Q 422 3509 836 4129 
Q 1250 4750 2034 4750 
z
" transform="scale(0.015625)"/>
        <path id="DejaVuSans-2e" d="M 684 794 
L 1344 794 
L 1344 0 
L 684 0 
L 684 794 
z
" transform="scale(0.015625)"/>
        <path id="DejaVuSans-32" d="M 1228 531 
L 3431 531 
L 3431 0 
L 469 0 
L 469 531 
Q 828 903 1448 1529 
Q 2069 2156 2228 2338 
Q 2531 2678 2651 2914 
Q 2772 3150 2772 3378 
Q 2772 3750 2511 3984 
Q 2250 4219 1831 4219 
Q 1534 4219 1204 4116 
Q 875 4013 500 3803 
L 500 4441 
Q 881 4594 1212 4672 
Q 1544 4750 1819 4750 
Q 2544 4750 2975 4387 
Q 3406 4025 3406 3419 
Q 3406 3131 3298 2873 
Q 3191 2616 2906 2266 
Q 2828 2175 2409 1742 
Q 1991 1309 1228 531 
z
" transform="scale(0.015625)"/>
       </defs>
       <use xlink:href="#DejaVuSans-30"/>
       <use xlink:href="#DejaVuSans-2e" x="63.623047"/>
       <use xlink:href="#DejaVuSans-32" x="95.410156"/>
      </g>
     </g>
    </g>
    <g id="ytick_2">
     <g id="line2d_7">
      <g>
       <use xlink:href="#m7e27a200c4" x="52.85" y="250.993181" style="stroke: #000000; stroke-width: 0.8"/>
      </g>
     </g>
     <g id="text_7">
      <!-- 0.4 -->
      <g transform="translate(29.946875 254.7924) scale(0.1 -0.1)">
       <defs>
        <path id="DejaVuSans-34" d="M 2419 4116 
L 825 1625 
L 2419 1625 
L 2419 4116 
z
M 2253 4666 
L 3047 4666 
L 3047 1625 
L 3713 1625 
L 3713 1100 
L 3047 1100 
L 3047 0 
L 2419 0 
L 2419 1100 
L 313 1100 
L 313 1709 
L 2253 4666 
z
" transform="scale(0.015625)"/>
       </defs>
       <use xlink:href="#DejaVuSans-30"/>
       <use xlink:href="#DejaVuSans-2e" x="63.623047"/>
       <use xlink:href="#DejaVuSans-34" x="95.410156"/>
      </g>
     </g>
    </g>
    <g id="ytick_3">
     <g id="line2d_8">
      <g>
       <use xlink:href="#m7e27a200c4" x="52.85" y="211.993294" style="stroke: #000000; stroke-width: 0.8"/>
      </g>
     </g>
     <g id="text_8">
      <!-- 0.6 -->
      <g transform="translate(29.946875 215.792513) scale(0.1 -0.1)">
       <defs>
        <path id="DejaVuSans-36" d="M 2113 2584 
Q 1688 2584 1439 2293 
Q 1191 2003 1191 1497 
Q 1191 994 1439 701 
Q 1688 409 2113 409 
Q 2538 409 2786 701 
Q 3034 994 3034 1497 
Q 3034 2003 2786 2293 
Q 2538 2584 2113 2584 
z
M 3366 4563 
L 3366 3988 
Q 3128 4100 2886 4159 
Q 2644 4219 2406 4219 
Q 1781 4219 1451 3797 
Q 1122 3375 1075 2522 
Q 1259 2794 1537 2939 
Q 1816 3084 2150 3084 
Q 2853 3084 3261 2657 
Q 3669 2231 3669 1497 
Q 3669 778 3244 343 
Q 2819 -91 2113 -91 
Q 1303 -91 875 529 
Q 447 1150 447 2328 
Q 447 3434 972 4092 
Q 1497 4750 2381 4750 
Q 2619 4750 2861 4703 
Q 3103 4656 3366 4563 
z
" transform="scale(0.015625)"/>
       </defs>
       <use xlink:href="#DejaVuSans-30"/>
       <use xlink:href="#DejaVuSans-2e" x="63.623047"/>
       <use xlink:href="#DejaVuSans-36" x="95.410156"/>
      </g>
     </g>
    </g>
    <g id="ytick_4">
     <g id="line2d_9">
      <g>
       <use xlink:href="#m7e27a200c4" x="52.85" y="172.993407" style="stroke: #000000; stroke-width: 0.8"/>
      </g>
     </g>
     <g id="text_9">
      <!-- 0.8 -->
      <g transform="translate(29.946875 176.792626) scale(0.1 -0.1)">
       <defs>
        <path id="DejaVuSans-38" d="M 2034 2216 
Q 1584 2216 1326 1975 
Q 1069 1734 1069 1313 
Q 1069 891 1326 650 
Q 1584 409 2034 409 
Q 2484 409 2743 651 
Q 3003 894 3003 1313 
Q 3003 1734 2745 1975 
Q 2488 2216 2034 2216 
z
M 1403 2484 
Q 997 2584 770 2862 
Q 544 3141 544 3541 
Q 544 4100 942 4425 
Q 1341 4750 2034 4750 
Q 2731 4750 3128 4425 
Q 3525 4100 3525 3541 
Q 3525 3141 3298 2862 
Q 3072 2584 2669 2484 
Q 3125 2378 3379 2068 
Q 3634 1759 3634 1313 
Q 3634 634 3220 271 
Q 2806 -91 2034 -91 
Q 1263 -91 848 271 
Q 434 634 434 1313 
Q 434 1759 690 2068 
Q 947 2378 1403 2484 
z
M 1172 3481 
Q 1172 3119 1398 2916 
Q 1625 2713 2034 2713 
Q 2441 2713 2670 2916 
Q 2900 3119 2900 3481 
Q 2900 3844 2670 4047 
Q 2441 4250 2034 4250 
Q 1625 4250 1398 4047 
Q 1172 3844 1172 3481 
z
" transform="scale(0.015625)"/>
       </defs>
       <use xlink:href="#DejaVuSans-30"/>
       <use xlink:href="#DejaVuSans-2e" x="63.623047"/>
       <use xlink:href="#DejaVuSans-38" x="95.410156"/>
      </g>
     </g>
    </g>
    <g id="ytick_5">
     <g id="line2d_10">
      <g>
       <use xlink:href="#m7e27a200c4" x="52.85" y="133.99352" style="stroke: #000000; stroke-width: 0.8"/>
      </g>
     </g>
     <g id="text_10">
      <!-- 1.0 -->
      <g transform="translate(29.946875 137.792738) scale(0.1 -0.1)">
       <defs>
        <path id="DejaVuSans-31" d="M 794 531 
L 1825 531 
L 1825 4091 
L 703 3866 
L 703 4441 
L 1819 4666 
L 2450 4666 
L 2450 531 
L 3481 531 
L 3481 0 
L 794 0 
L 794 531 
z
" transform="scale(0.015625)"/>
       </defs>
       <use xlink:href="#DejaVuSans-31"/>
       <use xlink:href="#DejaVuSans-2e" x="63.623047"/>
       <use xlink:href="#DejaVuSans-30" x="95.410156"/>
      </g>
     </g>
    </g>
    <g id="ytick_6">
     <g id="line2d_11">
      <g>
       <use xlink:href="#m7e27a200c4" x="52.85" y="94.993632" style="stroke: #000000; stroke-width: 0.8"/>
      </g>
     </g>
     <g id="text_11">
      <!-- 1.2 -->
      <g transform="translate(29.946875 98.792851) scale(0.1 -0.1)">
       <use xlink:href="#DejaVuSans-31"/>
       <use xlink:href="#DejaVuSans-2e" x="63.623047"/>
       <use xlink:href="#DejaVuSans-32" x="95.410156"/>
      </g>
     </g>
    </g>
    <g id="ytick_7">
     <g id="line2d_12">
      <g>
       <use xlink:href="#m7e27a200c4" x="52.85" y="55.993745" style="stroke: #000000; stroke-width: 0.8"/>
      </g>
     </g>
     <g id="text_12">
      <!-- 1.4 -->
      <g transform="translate(29.946875 59.792964) scale(0.1 -0.1)">
       <use xlink:href="#DejaVuSans-31"/>
       <use xlink:href="#DejaVuSans-2e" x="63.623047"/>
       <use xlink:href="#DejaVuSans-34" x="95.410156"/>
      </g>
     </g>
    </g>
    <g id="ytick_8">
     <g id="line2d_13">
      <g>
       <use xlink:href="#m7e27a200c4" x="52.85" y="16.993858" style="stroke: #000000; stroke-width: 0.8"/>
      </g>
     </g>
     <g id="text_13">
      <!-- 1.6 -->
      <g transform="translate(29.946875 20.793077) scale(0.1 -0.1)">
       <use xlink:href="#DejaVuSans-31"/>
       <use xlink:href="#DejaVuSans-2e" x="63.623047"/>
       <use xlink:href="#DejaVuSans-36" x="95.410156"/>
      </g>
     </g>
    </g>
    <g id="text_14">
     <!-- NORM CROSS ENTROPY -->
     <g transform="translate(23.45125 231.012462) rotate(-90) scale(0.12 -0.12)">
      <defs>
       <path id="DejaVuSans-4e" d="M 628 4666 
L 1478 4666 
L 3547 763 
L 3547 4666 
L 4159 4666 
L 4159 0 
L 3309 0 
L 1241 3903 
L 1241 0 
L 628 0 
L 628 4666 
z
" transform="scale(0.015625)"/>
       <path id="DejaVuSans-4f" d="M 2522 4238 
Q 1834 4238 1429 3725 
Q 1025 3213 1025 2328 
Q 1025 1447 1429 934 
Q 1834 422 2522 422 
Q 3209 422 3611 934 
Q 4013 1447 4013 2328 
Q 4013 3213 3611 3725 
Q 3209 4238 2522 4238 
z
M 2522 4750 
Q 3503 4750 4090 4092 
Q 4678 3434 4678 2328 
Q 4678 1225 4090 567 
Q 3503 -91 2522 -91 
Q 1538 -91 948 565 
Q 359 1222 359 2328 
Q 359 3434 948 4092 
Q 1538 4750 2522 4750 
z
" transform="scale(0.015625)"/>
       <path id="DejaVuSans-52" d="M 2841 2188 
Q 3044 2119 3236 1894 
Q 3428 1669 3622 1275 
L 4263 0 
L 3584 0 
L 2988 1197 
Q 2756 1666 2539 1819 
Q 2322 1972 1947 1972 
L 1259 1972 
L 1259 0 
L 628 0 
L 628 4666 
L 2053 4666 
Q 2853 4666 3247 4331 
Q 3641 3997 3641 3322 
Q 3641 2881 3436 2590 
Q 3231 2300 2841 2188 
z
M 1259 4147 
L 1259 2491 
L 2053 2491 
Q 2509 2491 2742 2702 
Q 2975 2913 2975 3322 
Q 2975 3731 2742 3939 
Q 2509 4147 2053 4147 
L 1259 4147 
z
" transform="scale(0.015625)"/>
       <path id="DejaVuSans-4d" d="M 628 4666 
L 1569 4666 
L 2759 1491 
L 3956 4666 
L 4897 4666 
L 4897 0 
L 4281 0 
L 4281 4097 
L 3078 897 
L 2444 897 
L 1241 4097 
L 1241 0 
L 628 0 
L 628 4666 
z
" transform="scale(0.015625)"/>
       <path id="DejaVuSans-43" d="M 4122 4306 
L 4122 3641 
Q 3803 3938 3442 4084 
Q 3081 4231 2675 4231 
Q 1875 4231 1450 3742 
Q 1025 3253 1025 2328 
Q 1025 1406 1450 917 
Q 1875 428 2675 428 
Q 3081 428 3442 575 
Q 3803 722 4122 1019 
L 4122 359 
Q 3791 134 3420 21 
Q 3050 -91 2638 -91 
Q 1578 -91 968 557 
Q 359 1206 359 2328 
Q 359 3453 968 4101 
Q 1578 4750 2638 4750 
Q 3056 4750 3426 4639 
Q 3797 4528 4122 4306 
z
" transform="scale(0.015625)"/>
       <path id="DejaVuSans-54" d="M -19 4666 
L 3928 4666 
L 3928 4134 
L 2272 4134 
L 2272 0 
L 1638 0 
L 1638 4134 
L -19 4134 
L -19 4666 
z
" transform="scale(0.015625)"/>
       <path id="DejaVuSans-50" d="M 1259 4147 
L 1259 2394 
L 2053 2394 
Q 2494 2394 2734 2622 
Q 2975 2850 2975 3272 
Q 2975 3691 2734 3919 
Q 2494 4147 2053 4147 
L 1259 4147 
z
M 628 4666 
L 2053 4666 
Q 2838 4666 3239 4311 
Q 3641 3956 3641 3272 
Q 3641 2581 3239 2228 
Q 2838 1875 2053 1875 
L 1259 1875 
L 1259 0 
L 628 0 
L 628 4666 
z
" transform="scale(0.015625)"/>
       <path id="DejaVuSans-59" d="M -13 4666 
L 666 4666 
L 1959 2747 
L 3244 4666 
L 3922 4666 
L 2272 2222 
L 2272 0 
L 1638 0 
L 1638 2222 
L -13 4666 
z
" transform="scale(0.015625)"/>
      </defs>
      <use xlink:href="#DejaVuSans-4e"/>
      <use xlink:href="#DejaVuSans-4f" x="74.804688"/>
      <use xlink:href="#DejaVuSans-52" x="153.515625"/>
      <use xlink:href="#DejaVuSans-4d" x="222.998047"/>
      <use xlink:href="#DejaVuSans-20" x="309.277344"/>
      <use xlink:href="#DejaVuSans-43" x="341.064453"/>
      <use xlink:href="#DejaVuSans-52" x="410.888672"/>
      <use xlink:href="#DejaVuSans-4f" x="480.371094"/>
      <use xlink:href="#DejaVuSans-53" x="559.082031"/>
      <use xlink:href="#DejaVuSans-53" x="622.558594"/>
      <use xlink:href="#DejaVuSans-20" x="686.035156"/>
      <use xlink:href="#DejaVuSans-45" x="717.822266"/>
      <use xlink:href="#DejaVuSans-4e" x="781.005859"/>
      <use xlink:href="#DejaVuSans-54" x="855.810547"/>
      <use xlink:href="#DejaVuSans-52" x="916.894531"/>
      <use xlink:href="#DejaVuSans-4f" x="986.376953"/>
      <use xlink:href="#DejaVuSans-50" x="1065.087891"/>
      <use xlink:href="#DejaVuSans-59" x="1123.140625"/>
     </g>
    </g>
   </g>
   <g id="LineCollection_1">
    <path d="M 86.108334 211.224996 
L 86.108334 93.068988 
" clip-path="url(#pabf4efe69a)" style="fill: none; stroke: #000000; stroke-width: 1.5"/>
    <path d="M 166.161133 234.642479 
L 166.161133 180.144036 
" clip-path="url(#pabf4efe69a)" style="fill: none; stroke: #000000; stroke-width: 1.5"/>
    <path d="M 246.213933 187.084066 
L 246.213933 125.832793 
" clip-path="url(#pabf4efe69a)" style="fill: none; stroke: #000000; stroke-width: 1.5"/>
    <path d="M 326.266732 246.644694 
L 326.266732 130.32948 
" clip-path="url(#pabf4efe69a)" style="fill: none; stroke: #000000; stroke-width: 1.5"/>
    <path d="M 406.319532 157.750301 
L 406.319532 85.57126 
" clip-path="url(#pabf4efe69a)" style="fill: none; stroke: #000000; stroke-width: 1.5"/>
   </g>
   <g id="line2d_14">
    <defs>
     <path id="md97110cabe" d="M 5 0 
L -5 -0 
" style="stroke: #000000"/>
    </defs>
    <g clip-path="url(#pabf4efe69a)">
     <use xlink:href="#md97110cabe" x="86.108334" y="211.224996" style="stroke: #000000"/>
     <use xlink:href="#md97110cabe" x="166.161133" y="234.642479" style="stroke: #000000"/>
     <use xlink:href="#md97110cabe" x="246.213933" y="187.084066" style="stroke: #000000"/>
     <use xlink:href="#md97110cabe" x="326.266732" y="246.644694" style="stroke: #000000"/>
     <use xlink:href="#md97110cabe" x="406.319532" y="157.750301" style="stroke: #000000"/>
    </g>
   </g>
   <g id="line2d_15">
    <g clip-path="url(#pabf4efe69a)">
     <use xlink:href="#md97110cabe" x="86.108334" y="93.068988" style="stroke: #000000"/>
     <use xlink:href="#md97110cabe" x="166.161133" y="180.144036" style="stroke: #000000"/>
     <use xlink:href="#md97110cabe" x="246.213933" y="125.832793" style="stroke: #000000"/>
     <use xlink:href="#md97110cabe" x="326.266732" y="130.32948" style="stroke: #000000"/>
     <use xlink:href="#md97110cabe" x="406.319532" y="85.57126" style="stroke: #000000"/>
    </g>
   </g>
   <g id="line2d_16">
    <defs>
     <path id="m2b426ee04e" d="M 0 5.656854 
L 5.656854 0 
L 0 -5.656854 
L -5.656854 0 
z
" style="stroke: #000000; stroke-linejoin: miter"/>
    </defs>
    <g clip-path="url(#pabf4efe69a)">
     <use xlink:href="#m2b426ee04e" x="86.108334" y="165.10178" style="stroke: #000000; stroke-linejoin: miter"/>
     <use xlink:href="#m2b426ee04e" x="166.161133" y="210.419649" style="stroke: #000000; stroke-linejoin: miter"/>
     <use xlink:href="#m2b426ee04e" x="246.213933" y="160.349643" style="stroke: #000000; stroke-linejoin: miter"/>
     <use xlink:href="#m2b426ee04e" x="326.266732" y="203.08377" style="stroke: #000000; stroke-linejoin: miter"/>
     <use xlink:href="#m2b426ee04e" x="406.319532" y="124.799296" style="stroke: #000000; stroke-linejoin: miter"/>
    </g>
   </g>
   <g id="patch_3">
    <path d="M 52.85 303.896 
L 52.85 16.017049 
" style="fill: none; stroke: #000000; stroke-width: 0.8; stroke-linejoin: miter; stroke-linecap: square"/>
   </g>
   <g id="patch_4">
    <path d="M 447.84 303.896 
L 447.84 16.017049 
" style="fill: none; stroke: #000000; stroke-width: 0.8; stroke-linejoin: miter; stroke-linecap: square"/>
   </g>
   <g id="patch_5">
    <path d="M 52.85 303.896 
L 447.84 303.896 
" style="fill: none; stroke: #000000; stroke-width: 0.8; stroke-linejoin: miter; stroke-linecap: square"/>
   </g>
   <g id="patch_6">
    <path d="M 52.85 16.017049 
L 447.84 16.017049 
" style="fill: none; stroke: #000000; stroke-width: 0.8; stroke-linejoin: miter; stroke-linecap: square"/>
   </g>
  </g>
 </g>
 <defs>
  <clipPath id="pabf4efe69a">
   <rect x="52.85" y="16.017049" width="394.99" height="287.878951"/>
  </clipPath>
 </defs>
</svg>
