<?xml version="1.0" encoding="utf-8" standalone="no"?>
<!DOCTYPE svg PUBLIC "-//W3C//DTD SVG 1.1//EN"
  "http://www.w3.org/Graphics/SVG/1.1/DTD/svg11.dtd">
<svg xmlns:xlink="http://www.w3.org/1999/xlink" width="460.8pt" height="345.6pt" viewBox="0 0 460.8 345.6" xmlns="http://www.w3.org/2000/svg" version="1.1">
 <metadata>
  <rdf:RDF xmlns:dc="http://purl.org/dc/elements/1.1/" xmlns:cc="http://creativecommons.org/ns#" xmlns:rdf="http://www.w3.org/1999/02/22-rdf-syntax-ns#">
   <cc:Work>
    <dc:type rdf:resource="http://purl.org/dc/dcmitype/StillImage"/>
    <dc:date>2025-09-22T13:48:45.964480</dc:date>
    <dc:format>image/svg+xml</dc:format>
    <dc:creator>
     <cc:Agent>
      <dc:title>Matplotlib v3.9.4, https://matplotlib.org/</dc:title>
     </cc:Agent>
    </dc:creator>
   </cc:Work>
  </rdf:RDF>
 </metadata>
 <defs>
  <style type="text/css">*{stroke-linejoin: round; stroke-linecap: butt}</style>
 </defs>
 <g id="figure_1">
  <g id="patch_1">
   <path d="M 0 345.6 
L 460.8 345.6 
L 460.8 0 
L 0 0 
z
" style="fill: #ffffff"/>
  </g>
  <g id="axes_1">
   <g id="patch_2">
    <path d="M 52.76 303.896 
L 447.84 303.896 
L 447.84 12.96 
L 52.76 12.96 
z
" style="fill: #ffffff"/>
   </g>
   <g id="PolyCollection_1">
    <defs>
     <path id="m9d529607bc" d="M 100.30078 -133.456394 
L 100.263795 -133.456394 
L 100.249512 -134.7402 
L 100.228076 -136.024006 
L 100.198258 -137.307812 
L 100.1596 -138.591618 
L 100.112507 -139.875424 
L 100.058005 -141.15923 
L 99.997178 -142.443036 
L 99.930472 -143.726843 
L 99.857048 -145.010649 
L 99.774442 -146.294455 
L 99.678855 -147.578261 
L 99.566403 -148.862067 
L 99.435308 -150.145873 
L 99.288243 -151.429679 
L 99.133322 -152.713485 
L 98.98232 -153.997291 
L 98.84605 -155.281097 
L 98.728777 -156.564903 
L 98.624662 -157.848709 
L 98.518603 -159.132515 
L 98.391415 -160.416321 
L 98.226798 -161.700128 
L 98.016497 -162.983934 
L 97.761139 -164.26774 
L 97.466688 -165.551546 
L 97.13879 -166.835352 
L 96.778071 -168.119158 
L 96.378412 -169.402964 
L 95.92826 -170.68677 
L 95.413419 -171.970576 
L 94.819526 -173.254382 
L 94.133509 -174.538188 
L 93.34458 -175.821994 
L 92.445602 -177.1058 
L 91.434823 -178.389607 
L 90.317009 -179.673413 
L 89.103118 -180.957219 
L 87.809065 -182.241025 
L 86.455186 -183.524831 
L 85.06734 -184.808637 
L 83.678112 -186.092443 
L 82.32484 -187.376249 
L 81.042517 -188.660055 
L 79.853869 -189.943861 
L 78.762478 -191.227667 
L 77.754024 -192.511473 
L 76.805486 -193.795279 
L 75.896622 -195.079085 
L 75.017234 -196.362892 
L 74.168116 -197.646698 
L 73.358869 -198.930504 
L 72.606897 -200.21431 
L 71.938178 -201.498116 
L 71.386248 -202.781922 
L 70.985757 -204.065728 
L 70.761446 -205.349534 
L 70.718182 -206.63334 
L 70.838475 -207.917146 
L 71.089987 -209.200952 
L 71.439703 -210.484758 
L 71.86765 -211.768564 
L 72.373269 -213.052371 
L 72.9716 -214.336177 
L 73.682031 -215.619983 
L 74.516304 -216.903789 
L 75.472324 -218.187595 
L 76.536202 -219.471401 
L 77.689626 -220.755207 
L 78.916935 -222.039013 
L 80.207564 -223.322819 
L 81.553331 -224.606625 
L 82.943369 -225.890431 
L 84.360201 -227.174237 
L 85.779034 -228.458043 
L 87.170244 -229.741849 
L 88.503674 -231.025656 
L 89.753199 -232.309462 
L 90.900495 -233.593268 
L 91.937614 -234.877074 
L 92.868197 -236.16088 
L 93.706882 -237.444686 
L 94.476155 -238.728492 
L 95.200318 -240.012298 
L 95.897739 -241.296104 
L 96.574325 -242.57991 
L 97.221551 -243.863716 
L 97.820563 -245.147522 
L 98.35061 -246.431328 
L 98.797633 -247.715135 
L 99.15894 -248.998941 
L 99.442443 -250.282747 
L 99.662001 -251.566553 
L 99.832014 -252.850359 
L 99.9639 -254.134165 
L 100.065296 -255.417971 
L 100.141173 -256.701777 
L 100.195453 -257.985583 
L 100.232053 -259.269389 
L 100.255095 -260.553195 
L 100.30948 -260.553195 
L 100.30948 -260.553195 
L 100.332523 -259.269389 
L 100.369123 -257.985583 
L 100.423402 -256.701777 
L 100.49928 -255.417971 
L 100.600675 -254.134165 
L 100.732562 -252.850359 
L 100.902575 -251.566553 
L 101.122133 -250.282747 
L 101.405635 -248.998941 
L 101.766942 -247.715135 
L 102.213966 -246.431328 
L 102.744013 -245.147522 
L 103.343024 -243.863716 
L 103.99025 -242.57991 
L 104.666836 -241.296104 
L 105.364257 -240.012298 
L 106.08842 -238.728492 
L 106.857693 -237.444686 
L 107.696378 -236.16088 
L 108.626961 -234.877074 
L 109.664081 -233.593268 
L 110.811377 -232.309462 
L 112.060902 -231.025656 
L 113.394331 -229.741849 
L 114.785541 -228.458043 
L 116.204375 -227.174237 
L 117.621207 -225.890431 
L 119.011245 -224.606625 
L 120.357012 -223.322819 
L 121.64764 -222.039013 
L 122.87495 -220.755207 
L 124.028373 -219.471401 
L 125.092251 -218.187595 
L 126.048272 -216.903789 
L 126.882544 -215.619983 
L 127.592976 -214.336177 
L 128.191307 -213.052371 
L 128.696925 -211.768564 
L 129.124872 -210.484758 
L 129.474588 -209.200952 
L 129.7261 -207.917146 
L 129.846394 -206.63334 
L 129.803129 -205.349534 
L 129.578819 -204.065728 
L 129.178328 -202.781922 
L 128.626398 -201.498116 
L 127.957679 -200.21431 
L 127.205706 -198.930504 
L 126.39646 -197.646698 
L 125.547341 -196.362892 
L 124.667954 -195.079085 
L 123.75909 -193.795279 
L 122.810552 -192.511473 
L 121.802098 -191.227667 
L 120.710706 -189.943861 
L 119.522059 -188.660055 
L 118.239736 -187.376249 
L 116.886463 -186.092443 
L 115.497235 -184.808637 
L 114.10939 -183.524831 
L 112.755511 -182.241025 
L 111.461457 -180.957219 
L 110.247567 -179.673413 
L 109.129752 -178.389607 
L 108.118974 -177.1058 
L 107.219995 -175.821994 
L 106.431066 -174.538188 
L 105.745049 -173.254382 
L 105.151156 -171.970576 
L 104.636316 -170.68677 
L 104.186164 -169.402964 
L 103.786504 -168.119158 
L 103.425785 -166.835352 
L 103.097888 -165.551546 
L 102.803436 -164.26774 
L 102.548078 -162.983934 
L 102.337778 -161.700128 
L 102.17316 -160.416321 
L 102.045972 -159.132515 
L 101.939914 -157.848709 
L 101.835799 -156.564903 
L 101.718525 -155.281097 
L 101.582256 -153.997291 
L 101.431253 -152.713485 
L 101.276332 -151.429679 
L 101.129268 -150.145873 
L 100.998172 -148.862067 
L 100.88572 -147.578261 
L 100.790134 -146.294455 
L 100.707528 -145.010649 
L 100.634103 -143.726843 
L 100.567397 -142.443036 
L 100.50657 -141.15923 
L 100.452068 -139.875424 
L 100.404976 -138.591618 
L 100.366317 -137.307812 
L 100.3365 -136.024006 
L 100.315063 -134.7402 
L 100.30078 -133.456394 
z
" style="stroke: #3f3f3f; stroke-width: 1.25"/>
    </defs>
    <g clip-path="url(#p252c137d2c)">
     <use xlink:href="#m9d529607bc" x="0" y="345.6" style="fill: #3274a1; stroke: #3f3f3f; stroke-width: 1.25"/>
    </g>
   </g>
   <g id="PolyCollection_2">
    <defs>
     <path id="m411ac93740" d="M 176.225986 -187.907168 
L 176.193595 -187.907168 
L 176.181958 -189.235536 
L 176.165865 -190.563904 
L 176.146117 -191.892273 
L 176.124989 -193.220641 
L 176.105934 -194.549009 
L 176.092582 -195.877378 
L 176.087254 -197.205746 
L 176.089548 -198.534115 
L 176.09557 -199.862483 
L 176.098002 -201.190851 
L 176.086834 -202.51922 
L 176.050397 -203.847588 
L 175.976563 -205.175956 
L 175.854254 -206.504325 
L 175.675506 -207.832693 
L 175.437865 -209.161062 
L 175.146307 -210.48943 
L 174.813552 -211.817798 
L 174.458167 -213.146167 
L 174.100917 -214.474535 
L 173.760714 -215.802903 
L 173.451382 -217.131272 
L 173.179469 -218.45964 
L 172.942561 -219.788008 
L 172.727878 -221.116377 
L 172.512111 -222.444745 
L 172.264035 -223.773114 
L 171.950287 -225.101482 
L 171.542583 -226.42985 
L 171.023252 -227.758219 
L 170.386783 -229.086587 
L 169.637517 -230.414955 
L 168.785776 -231.743324 
L 167.845083 -233.071692 
L 166.831573 -234.400061 
L 165.764581 -235.728429 
L 164.666236 -237.056797 
L 163.558538 -238.385166 
L 162.458189 -239.713534 
L 161.371134 -241.041902 
L 160.289379 -242.370271 
L 159.191958 -243.698639 
L 158.050608 -245.027008 
L 156.839271 -246.355376 
L 155.545137 -247.683744 
L 154.177904 -249.012113 
L 152.773761 -250.340481 
L 151.391995 -251.668849 
L 150.105024 -252.997218 
L 148.985452 -254.325586 
L 148.09472 -255.653955 
L 147.476092 -256.982323 
L 147.151624 -258.310691 
L 147.120719 -259.63906 
L 147.358673 -260.967428 
L 147.816216 -262.295796 
L 148.422791 -263.624165 
L 149.095445 -264.952533 
L 149.752566 -266.280902 
L 150.329447 -267.60927 
L 150.7922 -268.937638 
L 151.146859 -270.266007 
L 151.440597 -271.594375 
L 151.752191 -272.922743 
L 152.171393 -274.251112 
L 152.771993 -275.57948 
L 153.588478 -276.907848 
L 154.606593 -278.236217 
L 155.772201 -279.564585 
L 157.013541 -280.892954 
L 158.265678 -282.221322 
L 159.486578 -283.54969 
L 160.660867 -284.878059 
L 161.794623 -286.206427 
L 162.907389 -287.534795 
L 164.025053 -288.863164 
L 165.17299 -290.191532 
L 166.36749 -291.519901 
L 167.606321 -292.848269 
L 168.863121 -294.176637 
L 170.090654 -295.505006 
L 171.233486 -296.833374 
L 172.244688 -298.161742 
L 173.098463 -299.490111 
L 173.793279 -300.818479 
L 174.345838 -302.146848 
L 174.780831 -303.475216 
L 175.122212 -304.803584 
L 175.38908 -306.131953 
L 175.595791 -307.460321 
L 175.753911 -308.788689 
L 175.873726 -310.117058 
L 175.964464 -311.445426 
L 176.033693 -312.773795 
L 176.086824 -314.102163 
L 176.127276 -315.430531 
L 176.157192 -316.7589 
L 176.178244 -318.087268 
L 176.192118 -319.415636 
L 176.227463 -319.415636 
L 176.227463 -319.415636 
L 176.241338 -318.087268 
L 176.26239 -316.7589 
L 176.292306 -315.430531 
L 176.332758 -314.102163 
L 176.385889 -312.773795 
L 176.455118 -311.445426 
L 176.545856 -310.117058 
L 176.665671 -308.788689 
L 176.82379 -307.460321 
L 177.030502 -306.131953 
L 177.297369 -304.803584 
L 177.63875 -303.475216 
L 178.073743 -302.146848 
L 178.626302 -300.818479 
L 179.321119 -299.490111 
L 180.174894 -298.161742 
L 181.186096 -296.833374 
L 182.328928 -295.505006 
L 183.55646 -294.176637 
L 184.81326 -292.848269 
L 186.052091 -291.519901 
L 187.246592 -290.191532 
L 188.394529 -288.863164 
L 189.512192 -287.534795 
L 190.624959 -286.206427 
L 191.758715 -284.878059 
L 192.933003 -283.54969 
L 194.153903 -282.221322 
L 195.40604 -280.892954 
L 196.64738 -279.564585 
L 197.812988 -278.236217 
L 198.831104 -276.907848 
L 199.647588 -275.57948 
L 200.248189 -274.251112 
L 200.66739 -272.922743 
L 200.978985 -271.594375 
L 201.272722 -270.266007 
L 201.627382 -268.937638 
L 202.090134 -267.60927 
L 202.667016 -266.280902 
L 203.324136 -264.952533 
L 203.996791 -263.624165 
L 204.603365 -262.295796 
L 205.060909 -260.967428 
L 205.298863 -259.63906 
L 205.267957 -258.310691 
L 204.94349 -256.982323 
L 204.324862 -255.653955 
L 203.434129 -254.325586 
L 202.314558 -252.997218 
L 201.027586 -251.668849 
L 199.645821 -250.340481 
L 198.241678 -249.012113 
L 196.874445 -247.683744 
L 195.58031 -246.355376 
L 194.368973 -245.027008 
L 193.227624 -243.698639 
L 192.130202 -242.370271 
L 191.048447 -241.041902 
L 189.961393 -239.713534 
L 188.861043 -238.385166 
L 187.753346 -237.056797 
L 186.655 -235.728429 
L 185.588009 -234.400061 
L 184.574499 -233.071692 
L 183.633805 -231.743324 
L 182.782064 -230.414955 
L 182.032799 -229.086587 
L 181.39633 -227.758219 
L 180.876998 -226.42985 
L 180.469295 -225.101482 
L 180.155547 -223.773114 
L 179.90747 -222.444745 
L 179.691704 -221.116377 
L 179.477021 -219.788008 
L 179.240113 -218.45964 
L 178.968199 -217.131272 
L 178.658867 -215.802903 
L 178.318665 -214.474535 
L 177.961415 -213.146167 
L 177.60603 -211.817798 
L 177.273275 -210.48943 
L 176.981716 -209.161062 
L 176.744076 -207.832693 
L 176.565327 -206.504325 
L 176.443019 -205.175956 
L 176.369184 -203.847588 
L 176.332748 -202.51922 
L 176.321579 -201.190851 
L 176.324012 -199.862483 
L 176.330034 -198.534115 
L 176.332328 -197.205746 
L 176.326999 -195.877378 
L 176.313648 -194.549009 
L 176.294593 -193.220641 
L 176.273464 -191.892273 
L 176.253717 -190.563904 
L 176.237623 -189.235536 
L 176.225986 -187.907168 
z
" style="stroke: #3f3f3f; stroke-width: 1.25"/>
    </defs>
    <g clip-path="url(#p252c137d2c)">
     <use xlink:href="#m411ac93740" x="0" y="345.6" style="fill: #3274a1; stroke: #3f3f3f; stroke-width: 1.25"/>
    </g>
   </g>
   <g id="PolyCollection_3">
    <defs>
     <path id="mbb097063fa" d="M 252.161695 -132.981061 
L 252.112893 -132.981061 
L 252.092831 -134.467872 
L 252.061018 -135.954683 
L 252.0138 -137.441493 
L 251.948085 -138.928304 
L 251.862144 -140.415115 
L 251.756289 -141.901926 
L 251.633158 -143.388736 
L 251.49742 -144.875547 
L 251.354866 -146.362358 
L 251.211022 -147.849169 
L 251.069576 -149.335979 
L 250.931039 -150.82279 
L 250.792021 -152.309601 
L 250.645383 -153.796412 
L 250.48122 -155.283222 
L 250.288338 -156.770033 
L 250.055682 -158.256844 
L 249.773267 -159.743655 
L 249.432515 -161.230465 
L 249.026402 -162.717276 
L 248.549983 -164.204087 
L 248.001557 -165.690898 
L 247.383916 -167.177709 
L 246.704507 -168.664519 
L 245.973493 -170.15133 
L 245.199991 -171.638141 
L 244.388324 -173.124952 
L 243.536894 -174.611762 
L 242.641272 -176.098573 
L 241.700671 -177.585384 
L 240.724553 -179.072195 
L 239.735359 -180.559005 
L 238.764985 -182.045816 
L 237.845677 -183.532627 
L 236.998976 -185.019438 
L 236.227507 -186.506248 
L 235.51345 -187.993059 
L 234.824992 -189.47987 
L 234.12893 -190.966681 
L 233.404985 -192.453491 
L 232.656109 -193.940302 
L 231.909972 -195.427113 
L 231.210077 -196.913924 
L 230.599664 -198.400734 
L 230.105418 -199.887545 
L 229.728671 -201.374356 
L 229.448154 -202.861167 
L 229.232368 -204.347978 
L 229.054685 -205.834788 
L 228.90358 -207.321599 
L 228.784095 -208.80841 
L 228.712219 -210.295221 
L 228.70737 -211.782031 
L 228.78769 -213.268842 
L 228.969253 -214.755653 
L 229.266642 -216.242464 
L 229.691551 -217.729274 
L 230.248396 -219.216085 
L 230.929339 -220.702896 
L 231.712726 -222.189707 
L 232.567366 -223.676517 
L 233.461557 -225.163328 
L 234.372704 -226.650139 
L 235.292922 -228.13695 
L 236.228184 -229.62376 
L 237.191805 -231.110571 
L 238.195465 -232.597382 
L 239.241583 -234.084193 
L 240.319724 -235.571004 
L 241.407828 -237.057814 
L 242.477194 -238.544625 
L 243.499044 -240.031436 
L 244.450297 -241.518247 
L 245.316884 -243.005057 
L 246.094128 -244.491868 
L 246.784792 -245.978679 
L 247.396067 -247.46549 
L 247.936866 -248.9523 
L 248.416299 -250.439111 
L 248.843453 -251.925922 
L 249.227803 -253.412733 
L 249.579233 -254.899543 
L 249.906988 -256.386354 
L 250.217777 -257.873165 
L 250.514039 -259.359976 
L 250.793512 -260.846786 
L 251.050553 -262.333597 
L 251.278684 -263.820408 
L 251.473198 -265.307219 
L 251.632757 -266.794029 
L 251.759516 -268.28084 
L 251.858057 -269.767651 
L 251.933845 -271.254462 
L 251.991912 -272.741273 
L 252.036185 -274.228083 
L 252.069465 -275.714894 
L 252.093782 -277.201705 
L 252.110803 -278.688516 
L 252.122081 -280.175326 
L 252.152507 -280.175326 
L 252.152507 -280.175326 
L 252.163784 -278.688516 
L 252.180806 -277.201705 
L 252.205122 -275.714894 
L 252.238403 -274.228083 
L 252.282676 -272.741273 
L 252.340743 -271.254462 
L 252.41653 -269.767651 
L 252.515072 -268.28084 
L 252.641831 -266.794029 
L 252.80139 -265.307219 
L 252.995904 -263.820408 
L 253.224034 -262.333597 
L 253.481075 -260.846786 
L 253.760549 -259.359976 
L 254.056811 -257.873165 
L 254.3676 -256.386354 
L 254.695354 -254.899543 
L 255.046784 -253.412733 
L 255.431135 -251.925922 
L 255.858289 -250.439111 
L 256.337722 -248.9523 
L 256.878521 -247.46549 
L 257.489796 -245.978679 
L 258.180459 -244.491868 
L 258.957704 -243.005057 
L 259.824291 -241.518247 
L 260.775543 -240.031436 
L 261.797394 -238.544625 
L 262.86676 -237.057814 
L 263.954863 -235.571004 
L 265.033005 -234.084193 
L 266.079123 -232.597382 
L 267.082783 -231.110571 
L 268.046404 -229.62376 
L 268.981666 -228.13695 
L 269.901884 -226.650139 
L 270.81303 -225.163328 
L 271.707222 -223.676517 
L 272.561862 -222.189707 
L 273.345248 -220.702896 
L 274.026192 -219.216085 
L 274.583037 -217.729274 
L 275.007946 -216.242464 
L 275.305335 -214.755653 
L 275.486898 -213.268842 
L 275.567218 -211.782031 
L 275.562368 -210.295221 
L 275.490493 -208.80841 
L 275.371008 -207.321599 
L 275.219903 -205.834788 
L 275.04222 -204.347978 
L 274.826433 -202.861167 
L 274.545917 -201.374356 
L 274.16917 -199.887545 
L 273.674924 -198.400734 
L 273.06451 -196.913924 
L 272.364616 -195.427113 
L 271.618478 -193.940302 
L 270.869602 -192.453491 
L 270.145657 -190.966681 
L 269.449595 -189.47987 
L 268.761137 -187.993059 
L 268.047081 -186.506248 
L 267.275611 -185.019438 
L 266.42891 -183.532627 
L 265.509602 -182.045816 
L 264.539228 -180.559005 
L 263.550035 -179.072195 
L 262.573916 -177.585384 
L 261.633316 -176.098573 
L 260.737694 -174.611762 
L 259.886263 -173.124952 
L 259.074596 -171.638141 
L 258.301095 -170.15133 
L 257.570081 -168.664519 
L 256.890672 -167.177709 
L 256.273031 -165.690898 
L 255.724605 -164.204087 
L 255.248185 -162.717276 
L 254.842072 -161.230465 
L 254.501321 -159.743655 
L 254.218906 -158.256844 
L 253.98625 -156.770033 
L 253.793368 -155.283222 
L 253.629204 -153.796412 
L 253.482566 -152.309601 
L 253.343549 -150.82279 
L 253.205011 -149.335979 
L 253.063566 -147.849169 
L 252.919721 -146.362358 
L 252.777168 -144.875547 
L 252.641429 -143.388736 
L 252.518298 -141.901926 
L 252.412444 -140.415115 
L 252.326503 -138.928304 
L 252.260787 -137.441493 
L 252.21357 -135.954683 
L 252.181756 -134.467872 
L 252.161695 -132.981061 
z
" style="stroke: #3f3f3f; stroke-width: 1.25"/>
    </defs>
    <g clip-path="url(#p252c137d2c)">
     <use xlink:href="#mbb097063fa" x="0" y="345.6" style="fill: #3274a1; stroke: #3f3f3f; stroke-width: 1.25"/>
    </g>
   </g>
   <g id="PolyCollection_4">
    <defs>
     <path id="mc2f6e75cb7" d="M 328.082327 -160.683607 
L 328.047267 -160.683607 
L 328.032634 -162.076368 
L 328.011167 -163.469129 
L 327.98323 -164.861889 
L 327.951087 -166.25465 
L 327.918536 -167.647411 
L 327.889762 -169.040172 
L 327.867906 -170.432932 
L 327.854056 -171.825693 
L 327.846911 -173.218454 
L 327.843037 -174.611215 
L 327.837572 -176.003976 
L 327.825526 -177.396736 
L 327.803474 -178.789497 
L 327.77071 -180.182258 
L 327.728611 -181.575019 
L 327.678068 -182.967779 
L 327.616641 -184.36054 
L 327.537834 -185.753301 
L 327.433413 -187.146062 
L 327.297189 -188.538823 
L 327.127589 -189.931583 
L 326.927566 -191.324344 
L 326.702776 -192.717105 
L 326.459933 -194.109866 
L 326.206121 -195.502626 
L 325.948048 -196.895387 
L 325.689869 -198.288148 
L 325.429948 -199.680909 
L 325.158853 -201.07367 
L 324.860825 -202.46643 
L 324.518224 -203.859191 
L 324.115605 -205.251952 
L 323.640052 -206.644713 
L 323.078006 -208.037473 
L 322.412905 -209.430234 
L 321.628155 -210.822995 
L 320.71511 -212.215756 
L 319.679881 -213.608517 
L 318.541593 -215.001277 
L 317.320444 -216.394038 
L 316.022855 -217.786799 
L 314.635826 -219.17956 
L 313.138322 -220.57232 
L 311.525743 -221.965081 
L 309.832417 -223.357842 
L 308.135672 -224.750603 
L 306.535537 -226.143364 
L 305.119662 -227.536124 
L 303.932605 -228.928885 
L 302.965575 -230.321646 
L 302.169671 -231.714407 
L 301.48201 -233.107167 
L 300.84934 -234.499928 
L 300.239842 -235.892689 
L 299.644176 -237.28545 
L 299.072376 -238.678211 
L 298.550799 -240.070971 
L 298.118275 -241.463732 
L 297.819168 -242.856493 
L 297.693796 -244.249254 
L 297.769241 -245.642014 
L 298.053245 -247.034775 
L 298.532714 -248.427536 
L 299.178547 -249.820297 
L 299.957944 -251.213058 
L 300.851214 -252.605818 
L 301.864462 -253.998579 
L 303.028901 -255.39134 
L 304.384713 -256.784101 
L 305.957056 -258.176861 
L 307.736315 -259.569622 
L 309.671927 -260.962383 
L 311.682464 -262.355144 
L 313.677638 -263.747905 
L 315.582317 -265.140665 
L 317.350969 -266.533426 
L 318.96613 -267.926187 
L 320.424659 -269.318948 
L 321.723258 -270.711708 
L 322.853336 -272.104469 
L 323.806544 -273.49723 
L 324.584253 -274.889991 
L 325.202964 -276.282752 
L 325.692173 -277.675512 
L 326.086487 -279.068273 
L 326.416328 -280.461034 
L 326.701436 -281.853795 
L 326.94967 -283.246555 
L 327.161084 -284.639316 
L 327.334604 -286.032077 
L 327.473289 -287.424838 
L 327.58525 -288.817599 
L 327.6804 -290.210359 
L 327.765951 -291.60312 
L 327.843967 -292.995881 
L 327.912289 -294.388642 
L 327.967556 -295.781403 
L 328.00802 -297.174163 
L 328.0346 -298.566924 
L 328.094994 -298.566924 
L 328.094994 -298.566924 
L 328.121573 -297.174163 
L 328.162038 -295.781403 
L 328.217305 -294.388642 
L 328.285626 -292.995881 
L 328.363643 -291.60312 
L 328.449194 -290.210359 
L 328.544344 -288.817599 
L 328.656304 -287.424838 
L 328.794989 -286.032077 
L 328.96851 -284.639316 
L 329.179924 -283.246555 
L 329.428158 -281.853795 
L 329.713266 -280.461034 
L 330.043107 -279.068273 
L 330.437421 -277.675512 
L 330.92663 -276.282752 
L 331.545341 -274.889991 
L 332.32305 -273.49723 
L 333.276258 -272.104469 
L 334.406335 -270.711708 
L 335.704935 -269.318948 
L 337.163464 -267.926187 
L 338.778625 -266.533426 
L 340.547277 -265.140665 
L 342.451956 -263.747905 
L 344.44713 -262.355144 
L 346.457667 -260.962383 
L 348.393279 -259.569622 
L 350.172537 -258.176861 
L 351.74488 -256.784101 
L 353.100692 -255.39134 
L 354.265131 -253.998579 
L 355.278379 -252.605818 
L 356.17165 -251.213058 
L 356.951047 -249.820297 
L 357.59688 -248.427536 
L 358.076349 -247.034775 
L 358.360352 -245.642014 
L 358.435798 -244.249254 
L 358.310425 -242.856493 
L 358.011318 -241.463732 
L 357.578795 -240.070971 
L 357.057217 -238.678211 
L 356.485418 -237.28545 
L 355.889752 -235.892689 
L 355.280253 -234.499928 
L 354.647583 -233.107167 
L 353.959923 -231.714407 
L 353.164019 -230.321646 
L 352.196989 -228.928885 
L 351.009931 -227.536124 
L 349.594057 -226.143364 
L 347.993922 -224.750603 
L 346.297177 -223.357842 
L 344.60385 -221.965081 
L 342.991271 -220.57232 
L 341.493768 -219.17956 
L 340.106738 -217.786799 
L 338.80915 -216.394038 
L 337.588001 -215.001277 
L 336.449713 -213.608517 
L 335.414484 -212.215756 
L 334.501439 -210.822995 
L 333.716689 -209.430234 
L 333.051588 -208.037473 
L 332.489541 -206.644713 
L 332.013989 -205.251952 
L 331.61137 -203.859191 
L 331.268768 -202.46643 
L 330.97074 -201.07367 
L 330.699646 -199.680909 
L 330.439724 -198.288148 
L 330.181546 -196.895387 
L 329.923473 -195.502626 
L 329.669661 -194.109866 
L 329.426817 -192.717105 
L 329.202028 -191.324344 
L 329.002005 -189.931583 
L 328.832404 -188.538823 
L 328.696181 -187.146062 
L 328.591759 -185.753301 
L 328.512953 -184.36054 
L 328.451525 -182.967779 
L 328.400983 -181.575019 
L 328.358884 -180.182258 
L 328.32612 -178.789497 
L 328.304067 -177.396736 
L 328.292021 -176.003976 
L 328.286557 -174.611215 
L 328.282683 -173.218454 
L 328.275538 -171.825693 
L 328.261687 -170.432932 
L 328.239832 -169.040172 
L 328.211058 -167.647411 
L 328.178507 -166.25465 
L 328.146363 -164.861889 
L 328.118427 -163.469129 
L 328.096959 -162.076368 
L 328.082327 -160.683607 
z
" style="stroke: #3f3f3f; stroke-width: 1.25"/>
    </defs>
    <g clip-path="url(#p252c137d2c)">
     <use xlink:href="#mc2f6e75cb7" x="0" y="345.6" style="fill: #3274a1; stroke: #3f3f3f; stroke-width: 1.25"/>
    </g>
   </g>
   <g id="PolyCollection_5">
    <defs>
     <path id="mbfc7ce16c7" d="M 404.006819 -54.928364 
L 403.977781 -54.928364 
L 403.966844 -56.46627 
L 403.951462 -58.004176 
L 403.932209 -59.542082 
L 403.910806 -61.079988 
L 403.889495 -62.617894 
L 403.869598 -64.1558 
L 403.849759 -65.693706 
L 403.824789 -67.231612 
L 403.785956 -68.769518 
L 403.722973 -70.307424 
L 403.627075 -71.84533 
L 403.494022 -73.383236 
L 403.32571 -74.921142 
L 403.129482 -76.459048 
L 402.914868 -77.996954 
L 402.688437 -79.53486 
L 402.448522 -81.072766 
L 402.182312 -82.610672 
L 401.867605 -84.148578 
L 401.479731 -85.686484 
L 401.001405 -87.22439 
L 400.431038 -88.762296 
L 399.784945 -90.300202 
L 399.091496 -91.838108 
L 398.379251 -93.376014 
L 397.664118 -94.91392 
L 396.941113 -96.451826 
L 396.18434 -97.989732 
L 395.355869 -99.527638 
L 394.421168 -101.065545 
L 393.365959 -102.603451 
L 392.207442 -104.141357 
L 390.993418 -105.679263 
L 389.787326 -107.217169 
L 388.644693 -108.755075 
L 387.592485 -110.292981 
L 386.622628 -111.830887 
L 385.703262 -113.368793 
L 384.800502 -114.906699 
L 383.897093 -116.444605 
L 382.997308 -117.982511 
L 382.11794 -119.520417 
L 381.275152 -121.058323 
L 380.478867 -122.596229 
L 379.739165 -124.134135 
L 379.079231 -125.672041 
L 378.544195 -127.209947 
L 378.197417 -128.747853 
L 378.102782 -130.285759 
L 378.299148 -131.823665 
L 378.778242 -133.361571 
L 379.477786 -134.899477 
L 380.296073 -136.437383 
L 381.12358 -137.975289 
L 381.877281 -139.513195 
L 382.521193 -141.051101 
L 383.064933 -142.589007 
L 383.545329 -144.126913 
L 384.005066 -145.664819 
L 384.481162 -147.202725 
L 385.006713 -148.740631 
L 385.619005 -150.278537 
L 386.362637 -151.816443 
L 387.280306 -153.35435 
L 388.393609 -154.892256 
L 389.685157 -156.430162 
L 391.094873 -157.968068 
L 392.535586 -159.505974 
L 393.920943 -161.04388 
L 395.190917 -162.581786 
L 396.32246 -164.119692 
L 397.322832 -165.657598 
L 398.213266 -167.195504 
L 399.01399 -168.73341 
L 399.737509 -170.271316 
L 400.389933 -171.809222 
L 400.975387 -173.347128 
L 401.498593 -174.885034 
L 401.963956 -176.42294 
L 402.372953 -177.960846 
L 402.722851 -179.498752 
L 403.008461 -181.036658 
L 403.226233 -182.574564 
L 403.378286 -184.11247 
L 403.474105 -185.650376 
L 403.529056 -187.188282 
L 403.560656 -188.726188 
L 403.584416 -190.264094 
L 403.610982 -191.802 
L 403.645346 -193.339906 
L 403.687842 -194.877812 
L 403.735964 -196.415718 
L 403.78606 -197.953624 
L 403.834434 -199.49153 
L 403.877948 -201.029436 
L 403.914373 -202.567342 
L 403.942632 -204.105249 
L 403.962851 -205.643155 
L 403.97613 -207.181061 
L 404.00847 -207.181061 
L 404.00847 -207.181061 
L 404.021749 -205.643155 
L 404.041967 -204.105249 
L 404.070227 -202.567342 
L 404.106652 -201.029436 
L 404.150165 -199.49153 
L 404.19854 -197.953624 
L 404.248635 -196.415718 
L 404.296758 -194.877812 
L 404.339254 -193.339906 
L 404.373618 -191.802 
L 404.400184 -190.264094 
L 404.423944 -188.726188 
L 404.455543 -187.188282 
L 404.510495 -185.650376 
L 404.606314 -184.11247 
L 404.758367 -182.574564 
L 404.976139 -181.036658 
L 405.261749 -179.498752 
L 405.611647 -177.960846 
L 406.020644 -176.42294 
L 406.486007 -174.885034 
L 407.009213 -173.347128 
L 407.594667 -171.809222 
L 408.247091 -170.271316 
L 408.97061 -168.73341 
L 409.771334 -167.195504 
L 410.661768 -165.657598 
L 411.66214 -164.119692 
L 412.793683 -162.581786 
L 414.063657 -161.04388 
L 415.449014 -159.505974 
L 416.889727 -157.968068 
L 418.299443 -156.430162 
L 419.590991 -154.892256 
L 420.704294 -153.35435 
L 421.621962 -151.816443 
L 422.365595 -150.278537 
L 422.977887 -148.740631 
L 423.503438 -147.202725 
L 423.979534 -145.664819 
L 424.439271 -144.126913 
L 424.919667 -142.589007 
L 425.463407 -141.051101 
L 426.107319 -139.513195 
L 426.86102 -137.975289 
L 427.688527 -136.437383 
L 428.506814 -134.899477 
L 429.206358 -133.361571 
L 429.685452 -131.823665 
L 429.881818 -130.285759 
L 429.787183 -128.747853 
L 429.440405 -127.209947 
L 428.905369 -125.672041 
L 428.245435 -124.134135 
L 427.505733 -122.596229 
L 426.709448 -121.058323 
L 425.86666 -119.520417 
L 424.987291 -117.982511 
L 424.087507 -116.444605 
L 423.184098 -114.906699 
L 422.281338 -113.368793 
L 421.361972 -111.830887 
L 420.392115 -110.292981 
L 419.339907 -108.755075 
L 418.197274 -107.217169 
L 416.991182 -105.679263 
L 415.777158 -104.141357 
L 414.618641 -102.603451 
L 413.563432 -101.065545 
L 412.628731 -99.527638 
L 411.80026 -97.989732 
L 411.043487 -96.451826 
L 410.320482 -94.91392 
L 409.605349 -93.376014 
L 408.893103 -91.838108 
L 408.199655 -90.300202 
L 407.553562 -88.762296 
L 406.983195 -87.22439 
L 406.504869 -85.686484 
L 406.116995 -84.148578 
L 405.802288 -82.610672 
L 405.536078 -81.072766 
L 405.296163 -79.53486 
L 405.069732 -77.996954 
L 404.855117 -76.459048 
L 404.658889 -74.921142 
L 404.490578 -73.383236 
L 404.357525 -71.84533 
L 404.261627 -70.307424 
L 404.198644 -68.769518 
L 404.159811 -67.231612 
L 404.134841 -65.693706 
L 404.115001 -64.1558 
L 404.095105 -62.617894 
L 404.073794 -61.079988 
L 404.052391 -59.542082 
L 404.033137 -58.004176 
L 404.017756 -56.46627 
L 404.006819 -54.928364 
z
" style="stroke: #3f3f3f; stroke-width: 1.25"/>
    </defs>
    <g clip-path="url(#p252c137d2c)">
     <use xlink:href="#mbfc7ce16c7" x="0" y="345.6" style="fill: #3274a1; stroke: #3f3f3f; stroke-width: 1.25"/>
    </g>
   </g>
   <g id="matplotlib.axis_1">
    <g id="xtick_1">
     <g id="line2d_1">
      <defs>
       <path id="m8535587685" d="M 0 0 
L 0 3.5 
" style="stroke: #000000; stroke-width: 0.8"/>
      </defs>
      <g>
       <use xlink:href="#m8535587685" x="100.282288" y="303.896" style="stroke: #000000; stroke-width: 0.8"/>
      </g>
     </g>
     <g id="text_1">
      <!-- Fluency -->
      <g transform="translate(80.894788 318.494438) scale(0.1 -0.1)">
       <defs>
        <path id="DejaVuSans-46" d="M 628 4666 
L 3309 4666 
L 3309 4134 
L 1259 4134 
L 1259 2759 
L 3109 2759 
L 3109 2228 
L 1259 2228 
L 1259 0 
L 628 0 
L 628 4666 
z
" transform="scale(0.015625)"/>
        <path id="DejaVuSans-6c" d="M 603 4863 
L 1178 4863 
L 1178 0 
L 603 0 
L 603 4863 
z
" transform="scale(0.015625)"/>
        <path id="DejaVuSans-75" d="M 544 1381 
L 544 3500 
L 1119 3500 
L 1119 1403 
Q 1119 906 1312 657 
Q 1506 409 1894 409 
Q 2359 409 2629 706 
Q 2900 1003 2900 1516 
L 2900 3500 
L 3475 3500 
L 3475 0 
L 2900 0 
L 2900 538 
Q 2691 219 2414 64 
Q 2138 -91 1772 -91 
Q 1169 -91 856 284 
Q 544 659 544 1381 
z
M 1991 3584 
L 1991 3584 
z
" transform="scale(0.015625)"/>
        <path id="DejaVuSans-65" d="M 3597 1894 
L 3597 1613 
L 953 1613 
Q 991 1019 1311 708 
Q 1631 397 2203 397 
Q 2534 397 2845 478 
Q 3156 559 3463 722 
L 3463 178 
Q 3153 47 2828 -22 
Q 2503 -91 2169 -91 
Q 1331 -91 842 396 
Q 353 884 353 1716 
Q 353 2575 817 3079 
Q 1281 3584 2069 3584 
Q 2775 3584 3186 3129 
Q 3597 2675 3597 1894 
z
M 3022 2063 
Q 3016 2534 2758 2815 
Q 2500 3097 2075 3097 
Q 1594 3097 1305 2825 
Q 1016 2553 972 2059 
L 3022 2063 
z
" transform="scale(0.015625)"/>
        <path id="DejaVuSans-6e" d="M 3513 2113 
L 3513 0 
L 2938 0 
L 2938 2094 
Q 2938 2591 2744 2837 
Q 2550 3084 2163 3084 
Q 1697 3084 1428 2787 
Q 1159 2491 1159 1978 
L 1159 0 
L 581 0 
L 581 3500 
L 1159 3500 
L 1159 2956 
Q 1366 3272 1645 3428 
Q 1925 3584 2291 3584 
Q 2894 3584 3203 3211 
Q 3513 2838 3513 2113 
z
" transform="scale(0.015625)"/>
        <path id="DejaVuSans-63" d="M 3122 3366 
L 3122 2828 
Q 2878 2963 2633 3030 
Q 2388 3097 2138 3097 
Q 1578 3097 1268 2742 
Q 959 2388 959 1747 
Q 959 1106 1268 751 
Q 1578 397 2138 397 
Q 2388 397 2633 464 
Q 2878 531 3122 666 
L 3122 134 
Q 2881 22 2623 -34 
Q 2366 -91 2075 -91 
Q 1284 -91 818 406 
Q 353 903 353 1747 
Q 353 2603 823 3093 
Q 1294 3584 2113 3584 
Q 2378 3584 2631 3529 
Q 2884 3475 3122 3366 
z
" transform="scale(0.015625)"/>
        <path id="DejaVuSans-79" d="M 2059 -325 
Q 1816 -950 1584 -1140 
Q 1353 -1331 966 -1331 
L 506 -1331 
L 506 -850 
L 844 -850 
Q 1081 -850 1212 -737 
Q 1344 -625 1503 -206 
L 1606 56 
L 191 3500 
L 800 3500 
L 1894 763 
L 2988 3500 
L 3597 3500 
L 2059 -325 
z
" transform="scale(0.015625)"/>
       </defs>
       <use xlink:href="#DejaVuSans-46"/>
       <use xlink:href="#DejaVuSans-6c" x="57.519531"/>
       <use xlink:href="#DejaVuSans-75" x="85.302734"/>
       <use xlink:href="#DejaVuSans-65" x="148.681641"/>
       <use xlink:href="#DejaVuSans-6e" x="210.205078"/>
       <use xlink:href="#DejaVuSans-63" x="273.583984"/>
       <use xlink:href="#DejaVuSans-79" x="328.564453"/>
      </g>
      <!--  classifier -->
      <g transform="translate(76.611194 329.69225) scale(0.1 -0.1)">
       <defs>
        <path id="DejaVuSans-20" transform="scale(0.015625)"/>
        <path id="DejaVuSans-61" d="M 2194 1759 
Q 1497 1759 1228 1600 
Q 959 1441 959 1056 
Q 959 750 1161 570 
Q 1363 391 1709 391 
Q 2188 391 2477 730 
Q 2766 1069 2766 1631 
L 2766 1759 
L 2194 1759 
z
M 3341 1997 
L 3341 0 
L 2766 0 
L 2766 531 
Q 2569 213 2275 61 
Q 1981 -91 1556 -91 
Q 1019 -91 701 211 
Q 384 513 384 1019 
Q 384 1609 779 1909 
Q 1175 2209 1959 2209 
L 2766 2209 
L 2766 2266 
Q 2766 2663 2505 2880 
Q 2244 3097 1772 3097 
Q 1472 3097 1187 3025 
Q 903 2953 641 2809 
L 641 3341 
Q 956 3463 1253 3523 
Q 1550 3584 1831 3584 
Q 2591 3584 2966 3190 
Q 3341 2797 3341 1997 
z
" transform="scale(0.015625)"/>
        <path id="DejaVuSans-73" d="M 2834 3397 
L 2834 2853 
Q 2591 2978 2328 3040 
Q 2066 3103 1784 3103 
Q 1356 3103 1142 2972 
Q 928 2841 928 2578 
Q 928 2378 1081 2264 
Q 1234 2150 1697 2047 
L 1894 2003 
Q 2506 1872 2764 1633 
Q 3022 1394 3022 966 
Q 3022 478 2636 193 
Q 2250 -91 1575 -91 
Q 1294 -91 989 -36 
Q 684 19 347 128 
L 347 722 
Q 666 556 975 473 
Q 1284 391 1588 391 
Q 1994 391 2212 530 
Q 2431 669 2431 922 
Q 2431 1156 2273 1281 
Q 2116 1406 1581 1522 
L 1381 1569 
Q 847 1681 609 1914 
Q 372 2147 372 2553 
Q 372 3047 722 3315 
Q 1072 3584 1716 3584 
Q 2034 3584 2315 3537 
Q 2597 3491 2834 3397 
z
" transform="scale(0.015625)"/>
        <path id="DejaVuSans-69" d="M 603 3500 
L 1178 3500 
L 1178 0 
L 603 0 
L 603 3500 
z
M 603 4863 
L 1178 4863 
L 1178 4134 
L 603 4134 
L 603 4863 
z
" transform="scale(0.015625)"/>
        <path id="DejaVuSans-66" d="M 2375 4863 
L 2375 4384 
L 1825 4384 
Q 1516 4384 1395 4259 
Q 1275 4134 1275 3809 
L 1275 3500 
L 2222 3500 
L 2222 3053 
L 1275 3053 
L 1275 0 
L 697 0 
L 697 3053 
L 147 3053 
L 147 3500 
L 697 3500 
L 697 3744 
Q 697 4328 969 4595 
Q 1241 4863 1831 4863 
L 2375 4863 
z
" transform="scale(0.015625)"/>
        <path id="DejaVuSans-72" d="M 2631 2963 
Q 2534 3019 2420 3045 
Q 2306 3072 2169 3072 
Q 1681 3072 1420 2755 
Q 1159 2438 1159 1844 
L 1159 0 
L 581 0 
L 581 3500 
L 1159 3500 
L 1159 2956 
Q 1341 3275 1631 3429 
Q 1922 3584 2338 3584 
Q 2397 3584 2469 3576 
Q 2541 3569 2628 3553 
L 2631 2963 
z
" transform="scale(0.015625)"/>
       </defs>
       <use xlink:href="#DejaVuSans-20"/>
       <use xlink:href="#DejaVuSans-63" x="31.787109"/>
       <use xlink:href="#DejaVuSans-6c" x="86.767578"/>
       <use xlink:href="#DejaVuSans-61" x="114.550781"/>
       <use xlink:href="#DejaVuSans-73" x="175.830078"/>
       <use xlink:href="#DejaVuSans-73" x="227.929688"/>
       <use xlink:href="#DejaVuSans-69" x="280.029297"/>
       <use xlink:href="#DejaVuSans-66" x="307.8125"/>
       <use xlink:href="#DejaVuSans-69" x="343.017578"/>
       <use xlink:href="#DejaVuSans-65" x="370.800781"/>
       <use xlink:href="#DejaVuSans-72" x="432.324219"/>
      </g>
     </g>
    </g>
    <g id="xtick_2">
     <g id="line2d_2">
      <g>
       <use xlink:href="#m8535587685" x="176.209791" y="303.896" style="stroke: #000000; stroke-width: 0.8"/>
      </g>
     </g>
     <g id="text_2">
      <!-- Screening -->
      <g transform="translate(151.289478 318.494438) scale(0.1 -0.1)">
       <defs>
        <path id="DejaVuSans-53" d="M 3425 4513 
L 3425 3897 
Q 3066 4069 2747 4153 
Q 2428 4238 2131 4238 
Q 1616 4238 1336 4038 
Q 1056 3838 1056 3469 
Q 1056 3159 1242 3001 
Q 1428 2844 1947 2747 
L 2328 2669 
Q 3034 2534 3370 2195 
Q 3706 1856 3706 1288 
Q 3706 609 3251 259 
Q 2797 -91 1919 -91 
Q 1588 -91 1214 -16 
Q 841 59 441 206 
L 441 856 
Q 825 641 1194 531 
Q 1563 422 1919 422 
Q 2459 422 2753 634 
Q 3047 847 3047 1241 
Q 3047 1584 2836 1778 
Q 2625 1972 2144 2069 
L 1759 2144 
Q 1053 2284 737 2584 
Q 422 2884 422 3419 
Q 422 4038 858 4394 
Q 1294 4750 2059 4750 
Q 2388 4750 2728 4690 
Q 3069 4631 3425 4513 
z
" transform="scale(0.015625)"/>
        <path id="DejaVuSans-67" d="M 2906 1791 
Q 2906 2416 2648 2759 
Q 2391 3103 1925 3103 
Q 1463 3103 1205 2759 
Q 947 2416 947 1791 
Q 947 1169 1205 825 
Q 1463 481 1925 481 
Q 2391 481 2648 825 
Q 2906 1169 2906 1791 
z
M 3481 434 
Q 3481 -459 3084 -895 
Q 2688 -1331 1869 -1331 
Q 1566 -1331 1297 -1286 
Q 1028 -1241 775 -1147 
L 775 -588 
Q 1028 -725 1275 -790 
Q 1522 -856 1778 -856 
Q 2344 -856 2625 -561 
Q 2906 -266 2906 331 
L 2906 616 
Q 2728 306 2450 153 
Q 2172 0 1784 0 
Q 1141 0 747 490 
Q 353 981 353 1791 
Q 353 2603 747 3093 
Q 1141 3584 1784 3584 
Q 2172 3584 2450 3431 
Q 2728 3278 2906 2969 
L 2906 3500 
L 3481 3500 
L 3481 434 
z
" transform="scale(0.015625)"/>
       </defs>
       <use xlink:href="#DejaVuSans-53"/>
       <use xlink:href="#DejaVuSans-63" x="63.476562"/>
       <use xlink:href="#DejaVuSans-72" x="118.457031"/>
       <use xlink:href="#DejaVuSans-65" x="157.320312"/>
       <use xlink:href="#DejaVuSans-65" x="218.84375"/>
       <use xlink:href="#DejaVuSans-6e" x="280.367188"/>
       <use xlink:href="#DejaVuSans-69" x="343.746094"/>
       <use xlink:href="#DejaVuSans-6e" x="371.529297"/>
       <use xlink:href="#DejaVuSans-67" x="434.908203"/>
      </g>
      <!--  classifier -->
      <g transform="translate(152.538697 329.69225) scale(0.1 -0.1)">
       <use xlink:href="#DejaVuSans-20"/>
       <use xlink:href="#DejaVuSans-63" x="31.787109"/>
       <use xlink:href="#DejaVuSans-6c" x="86.767578"/>
       <use xlink:href="#DejaVuSans-61" x="114.550781"/>
       <use xlink:href="#DejaVuSans-73" x="175.830078"/>
       <use xlink:href="#DejaVuSans-73" x="227.929688"/>
       <use xlink:href="#DejaVuSans-69" x="280.029297"/>
       <use xlink:href="#DejaVuSans-66" x="307.8125"/>
       <use xlink:href="#DejaVuSans-69" x="343.017578"/>
       <use xlink:href="#DejaVuSans-65" x="370.800781"/>
       <use xlink:href="#DejaVuSans-72" x="432.324219"/>
      </g>
     </g>
    </g>
    <g id="xtick_3">
     <g id="line2d_3">
      <g>
       <use xlink:href="#m8535587685" x="252.137294" y="303.896" style="stroke: #000000; stroke-width: 0.8"/>
      </g>
     </g>
     <g id="text_3">
      <!-- Executive -->
      <g transform="translate(227.795106 318.494438) scale(0.1 -0.1)">
       <defs>
        <path id="DejaVuSans-45" d="M 628 4666 
L 3578 4666 
L 3578 4134 
L 1259 4134 
L 1259 2753 
L 3481 2753 
L 3481 2222 
L 1259 2222 
L 1259 531 
L 3634 531 
L 3634 0 
L 628 0 
L 628 4666 
z
" transform="scale(0.015625)"/>
        <path id="DejaVuSans-78" d="M 3513 3500 
L 2247 1797 
L 3578 0 
L 2900 0 
L 1881 1375 
L 863 0 
L 184 0 
L 1544 1831 
L 300 3500 
L 978 3500 
L 1906 2253 
L 2834 3500 
L 3513 3500 
z
" transform="scale(0.015625)"/>
        <path id="DejaVuSans-74" d="M 1172 4494 
L 1172 3500 
L 2356 3500 
L 2356 3053 
L 1172 3053 
L 1172 1153 
Q 1172 725 1289 603 
Q 1406 481 1766 481 
L 2356 481 
L 2356 0 
L 1766 0 
Q 1100 0 847 248 
Q 594 497 594 1153 
L 594 3053 
L 172 3053 
L 172 3500 
L 594 3500 
L 594 4494 
L 1172 4494 
z
" transform="scale(0.015625)"/>
        <path id="DejaVuSans-76" d="M 191 3500 
L 800 3500 
L 1894 563 
L 2988 3500 
L 3597 3500 
L 2284 0 
L 1503 0 
L 191 3500 
z
" transform="scale(0.015625)"/>
       </defs>
       <use xlink:href="#DejaVuSans-45"/>
       <use xlink:href="#DejaVuSans-78" x="63.183594"/>
       <use xlink:href="#DejaVuSans-65" x="119.238281"/>
       <use xlink:href="#DejaVuSans-63" x="180.761719"/>
       <use xlink:href="#DejaVuSans-75" x="235.742188"/>
       <use xlink:href="#DejaVuSans-74" x="299.121094"/>
       <use xlink:href="#DejaVuSans-69" x="338.330078"/>
       <use xlink:href="#DejaVuSans-76" x="366.113281"/>
       <use xlink:href="#DejaVuSans-65" x="425.292969"/>
      </g>
      <!--  classifier -->
      <g transform="translate(228.4662 329.69225) scale(0.1 -0.1)">
       <use xlink:href="#DejaVuSans-20"/>
       <use xlink:href="#DejaVuSans-63" x="31.787109"/>
       <use xlink:href="#DejaVuSans-6c" x="86.767578"/>
       <use xlink:href="#DejaVuSans-61" x="114.550781"/>
       <use xlink:href="#DejaVuSans-73" x="175.830078"/>
       <use xlink:href="#DejaVuSans-73" x="227.929688"/>
       <use xlink:href="#DejaVuSans-69" x="280.029297"/>
       <use xlink:href="#DejaVuSans-66" x="307.8125"/>
       <use xlink:href="#DejaVuSans-69" x="343.017578"/>
       <use xlink:href="#DejaVuSans-65" x="370.800781"/>
       <use xlink:href="#DejaVuSans-72" x="432.324219"/>
      </g>
     </g>
    </g>
    <g id="xtick_4">
     <g id="line2d_4">
      <g>
       <use xlink:href="#m8535587685" x="328.064797" y="303.896" style="stroke: #000000; stroke-width: 0.8"/>
      </g>
     </g>
     <g id="text_4">
      <!-- Structural -->
      <g transform="translate(303.319484 318.494438) scale(0.1 -0.1)">
       <use xlink:href="#DejaVuSans-53"/>
       <use xlink:href="#DejaVuSans-74" x="63.476562"/>
       <use xlink:href="#DejaVuSans-72" x="102.685547"/>
       <use xlink:href="#DejaVuSans-75" x="143.798828"/>
       <use xlink:href="#DejaVuSans-63" x="207.177734"/>
       <use xlink:href="#DejaVuSans-74" x="262.158203"/>
       <use xlink:href="#DejaVuSans-75" x="301.367188"/>
       <use xlink:href="#DejaVuSans-72" x="364.746094"/>
       <use xlink:href="#DejaVuSans-61" x="405.859375"/>
       <use xlink:href="#DejaVuSans-6c" x="467.138672"/>
      </g>
      <!--  classifier -->
      <g transform="translate(304.393703 329.69225) scale(0.1 -0.1)">
       <use xlink:href="#DejaVuSans-20"/>
       <use xlink:href="#DejaVuSans-63" x="31.787109"/>
       <use xlink:href="#DejaVuSans-6c" x="86.767578"/>
       <use xlink:href="#DejaVuSans-61" x="114.550781"/>
       <use xlink:href="#DejaVuSans-73" x="175.830078"/>
       <use xlink:href="#DejaVuSans-73" x="227.929688"/>
       <use xlink:href="#DejaVuSans-69" x="280.029297"/>
       <use xlink:href="#DejaVuSans-66" x="307.8125"/>
       <use xlink:href="#DejaVuSans-69" x="343.017578"/>
       <use xlink:href="#DejaVuSans-65" x="370.800781"/>
       <use xlink:href="#DejaVuSans-72" x="432.324219"/>
      </g>
     </g>
    </g>
    <g id="xtick_5">
     <g id="line2d_5">
      <g>
       <use xlink:href="#m8535587685" x="403.9923" y="303.896" style="stroke: #000000; stroke-width: 0.8"/>
      </g>
     </g>
     <g id="text_5">
      <!-- Functional -->
      <g transform="translate(378.274331 318.494438) scale(0.1 -0.1)">
       <defs>
        <path id="DejaVuSans-6f" d="M 1959 3097 
Q 1497 3097 1228 2736 
Q 959 2375 959 1747 
Q 959 1119 1226 758 
Q 1494 397 1959 397 
Q 2419 397 2687 759 
Q 2956 1122 2956 1747 
Q 2956 2369 2687 2733 
Q 2419 3097 1959 3097 
z
M 1959 3584 
Q 2709 3584 3137 3096 
Q 3566 2609 3566 1747 
Q 3566 888 3137 398 
Q 2709 -91 1959 -91 
Q 1206 -91 779 398 
Q 353 888 353 1747 
Q 353 2609 779 3096 
Q 1206 3584 1959 3584 
z
" transform="scale(0.015625)"/>
       </defs>
       <use xlink:href="#DejaVuSans-46"/>
       <use xlink:href="#DejaVuSans-75" x="52.019531"/>
       <use xlink:href="#DejaVuSans-6e" x="115.398438"/>
       <use xlink:href="#DejaVuSans-63" x="178.777344"/>
       <use xlink:href="#DejaVuSans-74" x="233.757812"/>
       <use xlink:href="#DejaVuSans-69" x="272.966797"/>
       <use xlink:href="#DejaVuSans-6f" x="300.75"/>
       <use xlink:href="#DejaVuSans-6e" x="361.931641"/>
       <use xlink:href="#DejaVuSans-61" x="425.310547"/>
       <use xlink:href="#DejaVuSans-6c" x="486.589844"/>
      </g>
      <!--  classifier -->
      <g transform="translate(380.321206 329.69225) scale(0.1 -0.1)">
       <use xlink:href="#DejaVuSans-20"/>
       <use xlink:href="#DejaVuSans-63" x="31.787109"/>
       <use xlink:href="#DejaVuSans-6c" x="86.767578"/>
       <use xlink:href="#DejaVuSans-61" x="114.550781"/>
       <use xlink:href="#DejaVuSans-73" x="175.830078"/>
       <use xlink:href="#DejaVuSans-73" x="227.929688"/>
       <use xlink:href="#DejaVuSans-69" x="280.029297"/>
       <use xlink:href="#DejaVuSans-66" x="307.8125"/>
       <use xlink:href="#DejaVuSans-69" x="343.017578"/>
       <use xlink:href="#DejaVuSans-65" x="370.800781"/>
       <use xlink:href="#DejaVuSans-72" x="432.324219"/>
      </g>
     </g>
    </g>
   </g>
   <g id="matplotlib.axis_2">
    <g id="ytick_1">
     <g id="line2d_6">
      <defs>
       <path id="m3508c8e53d" d="M 0 0 
L -3.5 0 
" style="stroke: #000000; stroke-width: 0.8"/>
      </defs>
      <g>
       <use xlink:href="#m3508c8e53d" x="52.76" y="257.802869" style="stroke: #000000; stroke-width: 0.8"/>
      </g>
     </g>
     <g id="text_6">
      <!-- 0.5 -->
      <g transform="translate(29.856875 261.602088) scale(0.1 -0.1)">
       <defs>
        <path id="DejaVuSans-30" d="M 2034 4250 
Q 1547 4250 1301 3770 
Q 1056 3291 1056 2328 
Q 1056 1369 1301 889 
Q 1547 409 2034 409 
Q 2525 409 2770 889 
Q 3016 1369 3016 2328 
Q 3016 3291 2770 3770 
Q 2525 4250 2034 4250 
z
M 2034 4750 
Q 2819 4750 3233 4129 
Q 3647 3509 3647 2328 
Q 3647 1150 3233 529 
Q 2819 -91 2034 -91 
Q 1250 -91 836 529 
Q 422 1150 422 2328 
Q 422 3509 836 4129 
Q 1250 4750 2034 4750 
z
" transform="scale(0.015625)"/>
        <path id="DejaVuSans-2e" d="M 684 794 
L 1344 794 
L 1344 0 
L 684 0 
L 684 794 
z
" transform="scale(0.015625)"/>
        <path id="DejaVuSans-35" d="M 691 4666 
L 3169 4666 
L 3169 4134 
L 1269 4134 
L 1269 2991 
Q 1406 3038 1543 3061 
Q 1681 3084 1819 3084 
Q 2600 3084 3056 2656 
Q 3513 2228 3513 1497 
Q 3513 744 3044 326 
Q 2575 -91 1722 -91 
Q 1428 -91 1123 -41 
Q 819 9 494 109 
L 494 744 
Q 775 591 1075 516 
Q 1375 441 1709 441 
Q 2250 441 2565 725 
Q 2881 1009 2881 1497 
Q 2881 1984 2565 2268 
Q 2250 2553 1709 2553 
Q 1456 2553 1204 2497 
Q 953 2441 691 2322 
L 691 4666 
z
" transform="scale(0.015625)"/>
       </defs>
       <use xlink:href="#DejaVuSans-30"/>
       <use xlink:href="#DejaVuSans-2e" x="63.623047"/>
       <use xlink:href="#DejaVuSans-35" x="95.410156"/>
      </g>
     </g>
    </g>
    <g id="ytick_2">
     <g id="line2d_7">
      <g>
       <use xlink:href="#m3508c8e53d" x="52.76" y="210.999585" style="stroke: #000000; stroke-width: 0.8"/>
      </g>
     </g>
     <g id="text_7">
      <!-- 0.6 -->
      <g transform="translate(29.856875 214.798803) scale(0.1 -0.1)">
       <defs>
        <path id="DejaVuSans-36" d="M 2113 2584 
Q 1688 2584 1439 2293 
Q 1191 2003 1191 1497 
Q 1191 994 1439 701 
Q 1688 409 2113 409 
Q 2538 409 2786 701 
Q 3034 994 3034 1497 
Q 3034 2003 2786 2293 
Q 2538 2584 2113 2584 
z
M 3366 4563 
L 3366 3988 
Q 3128 4100 2886 4159 
Q 2644 4219 2406 4219 
Q 1781 4219 1451 3797 
Q 1122 3375 1075 2522 
Q 1259 2794 1537 2939 
Q 1816 3084 2150 3084 
Q 2853 3084 3261 2657 
Q 3669 2231 3669 1497 
Q 3669 778 3244 343 
Q 2819 -91 2113 -91 
Q 1303 -91 875 529 
Q 447 1150 447 2328 
Q 447 3434 972 4092 
Q 1497 4750 2381 4750 
Q 2619 4750 2861 4703 
Q 3103 4656 3366 4563 
z
" transform="scale(0.015625)"/>
       </defs>
       <use xlink:href="#DejaVuSans-30"/>
       <use xlink:href="#DejaVuSans-2e" x="63.623047"/>
       <use xlink:href="#DejaVuSans-36" x="95.410156"/>
      </g>
     </g>
    </g>
    <g id="ytick_3">
     <g id="line2d_8">
      <g>
       <use xlink:href="#m3508c8e53d" x="52.76" y="164.1963" style="stroke: #000000; stroke-width: 0.8"/>
      </g>
     </g>
     <g id="text_8">
      <!-- 0.7 -->
      <g transform="translate(29.856875 167.995519) scale(0.1 -0.1)">
       <defs>
        <path id="DejaVuSans-37" d="M 525 4666 
L 3525 4666 
L 3525 4397 
L 1831 0 
L 1172 0 
L 2766 4134 
L 525 4134 
L 525 4666 
z
" transform="scale(0.015625)"/>
       </defs>
       <use xlink:href="#DejaVuSans-30"/>
       <use xlink:href="#DejaVuSans-2e" x="63.623047"/>
       <use xlink:href="#DejaVuSans-37" x="95.410156"/>
      </g>
     </g>
    </g>
    <g id="ytick_4">
     <g id="line2d_9">
      <g>
       <use xlink:href="#m3508c8e53d" x="52.76" y="117.393016" style="stroke: #000000; stroke-width: 0.8"/>
      </g>
     </g>
     <g id="text_9">
      <!-- 0.8 -->
      <g transform="translate(29.856875 121.192235) scale(0.1 -0.1)">
       <defs>
        <path id="DejaVuSans-38" d="M 2034 2216 
Q 1584 2216 1326 1975 
Q 1069 1734 1069 1313 
Q 1069 891 1326 650 
Q 1584 409 2034 409 
Q 2484 409 2743 651 
Q 3003 894 3003 1313 
Q 3003 1734 2745 1975 
Q 2488 2216 2034 2216 
z
M 1403 2484 
Q 997 2584 770 2862 
Q 544 3141 544 3541 
Q 544 4100 942 4425 
Q 1341 4750 2034 4750 
Q 2731 4750 3128 4425 
Q 3525 4100 3525 3541 
Q 3525 3141 3298 2862 
Q 3072 2584 2669 2484 
Q 3125 2378 3379 2068 
Q 3634 1759 3634 1313 
Q 3634 634 3220 271 
Q 2806 -91 2034 -91 
Q 1263 -91 848 271 
Q 434 634 434 1313 
Q 434 1759 690 2068 
Q 947 2378 1403 2484 
z
M 1172 3481 
Q 1172 3119 1398 2916 
Q 1625 2713 2034 2713 
Q 2441 2713 2670 2916 
Q 2900 3119 2900 3481 
Q 2900 3844 2670 4047 
Q 2441 4250 2034 4250 
Q 1625 4250 1398 4047 
Q 1172 3844 1172 3481 
z
" transform="scale(0.015625)"/>
       </defs>
       <use xlink:href="#DejaVuSans-30"/>
       <use xlink:href="#DejaVuSans-2e" x="63.623047"/>
       <use xlink:href="#DejaVuSans-38" x="95.410156"/>
      </g>
     </g>
    </g>
    <g id="ytick_5">
     <g id="line2d_10">
      <g>
       <use xlink:href="#m3508c8e53d" x="52.76" y="70.589731" style="stroke: #000000; stroke-width: 0.8"/>
      </g>
     </g>
     <g id="text_10">
      <!-- 0.9 -->
      <g transform="translate(29.856875 74.38895) scale(0.1 -0.1)">
       <defs>
        <path id="DejaVuSans-39" d="M 703 97 
L 703 672 
Q 941 559 1184 500 
Q 1428 441 1663 441 
Q 2288 441 2617 861 
Q 2947 1281 2994 2138 
Q 2813 1869 2534 1725 
Q 2256 1581 1919 1581 
Q 1219 1581 811 2004 
Q 403 2428 403 3163 
Q 403 3881 828 4315 
Q 1253 4750 1959 4750 
Q 2769 4750 3195 4129 
Q 3622 3509 3622 2328 
Q 3622 1225 3098 567 
Q 2575 -91 1691 -91 
Q 1453 -91 1209 -44 
Q 966 3 703 97 
z
M 1959 2075 
Q 2384 2075 2632 2365 
Q 2881 2656 2881 3163 
Q 2881 3666 2632 3958 
Q 2384 4250 1959 4250 
Q 1534 4250 1286 3958 
Q 1038 3666 1038 3163 
Q 1038 2656 1286 2365 
Q 1534 2075 1959 2075 
z
" transform="scale(0.015625)"/>
       </defs>
       <use xlink:href="#DejaVuSans-30"/>
       <use xlink:href="#DejaVuSans-2e" x="63.623047"/>
       <use xlink:href="#DejaVuSans-39" x="95.410156"/>
      </g>
     </g>
    </g>
    <g id="ytick_6">
     <g id="line2d_11">
      <g>
       <use xlink:href="#m3508c8e53d" x="52.76" y="23.786447" style="stroke: #000000; stroke-width: 0.8"/>
      </g>
     </g>
     <g id="text_11">
      <!-- 1.0 -->
      <g transform="translate(29.856875 27.585666) scale(0.1 -0.1)">
       <defs>
        <path id="DejaVuSans-31" d="M 794 531 
L 1825 531 
L 1825 4091 
L 703 3866 
L 703 4441 
L 1819 4666 
L 2450 4666 
L 2450 531 
L 3481 531 
L 3481 0 
L 794 0 
L 794 531 
z
" transform="scale(0.015625)"/>
       </defs>
       <use xlink:href="#DejaVuSans-31"/>
       <use xlink:href="#DejaVuSans-2e" x="63.623047"/>
       <use xlink:href="#DejaVuSans-30" x="95.410156"/>
      </g>
     </g>
    </g>
    <g id="text_12">
     <!-- ACCURACY -->
     <g transform="translate(23.36125 190.875812) rotate(-90) scale(0.12 -0.12)">
      <defs>
       <path id="DejaVuSans-41" d="M 2188 4044 
L 1331 1722 
L 3047 1722 
L 2188 4044 
z
M 1831 4666 
L 2547 4666 
L 4325 0 
L 3669 0 
L 3244 1197 
L 1141 1197 
L 716 0 
L 50 0 
L 1831 4666 
z
" transform="scale(0.015625)"/>
       <path id="DejaVuSans-43" d="M 4122 4306 
L 4122 3641 
Q 3803 3938 3442 4084 
Q 3081 4231 2675 4231 
Q 1875 4231 1450 3742 
Q 1025 3253 1025 2328 
Q 1025 1406 1450 917 
Q 1875 428 2675 428 
Q 3081 428 3442 575 
Q 3803 722 4122 1019 
L 4122 359 
Q 3791 134 3420 21 
Q 3050 -91 2638 -91 
Q 1578 -91 968 557 
Q 359 1206 359 2328 
Q 359 3453 968 4101 
Q 1578 4750 2638 4750 
Q 3056 4750 3426 4639 
Q 3797 4528 4122 4306 
z
" transform="scale(0.015625)"/>
       <path id="DejaVuSans-55" d="M 556 4666 
L 1191 4666 
L 1191 1831 
Q 1191 1081 1462 751 
Q 1734 422 2344 422 
Q 2950 422 3222 751 
Q 3494 1081 3494 1831 
L 3494 4666 
L 4128 4666 
L 4128 1753 
Q 4128 841 3676 375 
Q 3225 -91 2344 -91 
Q 1459 -91 1007 375 
Q 556 841 556 1753 
L 556 4666 
z
" transform="scale(0.015625)"/>
       <path id="DejaVuSans-52" d="M 2841 2188 
Q 3044 2119 3236 1894 
Q 3428 1669 3622 1275 
L 4263 0 
L 3584 0 
L 2988 1197 
Q 2756 1666 2539 1819 
Q 2322 1972 1947 1972 
L 1259 1972 
L 1259 0 
L 628 0 
L 628 4666 
L 2053 4666 
Q 2853 4666 3247 4331 
Q 3641 3997 3641 3322 
Q 3641 2881 3436 2590 
Q 3231 2300 2841 2188 
z
M 1259 4147 
L 1259 2491 
L 2053 2491 
Q 2509 2491 2742 2702 
Q 2975 2913 2975 3322 
Q 2975 3731 2742 3939 
Q 2509 4147 2053 4147 
L 1259 4147 
z
" transform="scale(0.015625)"/>
       <path id="DejaVuSans-59" d="M -13 4666 
L 666 4666 
L 1959 2747 
L 3244 4666 
L 3922 4666 
L 2272 2222 
L 2272 0 
L 1638 0 
L 1638 2222 
L -13 4666 
z
" transform="scale(0.015625)"/>
      </defs>
      <use xlink:href="#DejaVuSans-41"/>
      <use xlink:href="#DejaVuSans-43" x="66.658203"/>
      <use xlink:href="#DejaVuSans-43" x="136.482422"/>
      <use xlink:href="#DejaVuSans-55" x="206.306641"/>
      <use xlink:href="#DejaVuSans-52" x="279.5"/>
      <use xlink:href="#DejaVuSans-41" x="344.982422"/>
      <use xlink:href="#DejaVuSans-43" x="411.640625"/>
      <use xlink:href="#DejaVuSans-59" x="479.714844"/>
     </g>
    </g>
   </g>
   <g id="LineCollection_1">
    <path d="M 100.282288 178.396417 
L 100.282288 107.447318 
" clip-path="url(#p252c137d2c)" style="fill: none; stroke: #000000; stroke-width: 1.5"/>
    <path d="M 176.209791 123.964197 
L 176.209791 52.523664 
" clip-path="url(#p252c137d2c)" style="fill: none; stroke: #000000; stroke-width: 1.5"/>
    <path d="M 252.137294 180.525966 
L 252.137294 96.827653 
" clip-path="url(#p252c137d2c)" style="fill: none; stroke: #000000; stroke-width: 1.5"/>
    <path d="M 328.064797 142.231519 
L 328.064797 74.84415 
" clip-path="url(#p252c137d2c)" style="fill: none; stroke: #000000; stroke-width: 1.5"/>
    <path d="M 403.9923 253.54845 
L 403.9923 177.633523 
" clip-path="url(#p252c137d2c)" style="fill: none; stroke: #000000; stroke-width: 1.5"/>
   </g>
   <g id="line2d_12">
    <defs>
     <path id="m2216f91f4a" d="M 5 0 
L -5 -0 
" style="stroke: #000000"/>
    </defs>
    <g clip-path="url(#p252c137d2c)">
     <use xlink:href="#m2216f91f4a" x="100.282288" y="178.396417" style="stroke: #000000"/>
     <use xlink:href="#m2216f91f4a" x="176.209791" y="123.964197" style="stroke: #000000"/>
     <use xlink:href="#m2216f91f4a" x="252.137294" y="180.525966" style="stroke: #000000"/>
     <use xlink:href="#m2216f91f4a" x="328.064797" y="142.231519" style="stroke: #000000"/>
     <use xlink:href="#m2216f91f4a" x="403.9923" y="253.54845" style="stroke: #000000"/>
    </g>
   </g>
   <g id="line2d_13">
    <g clip-path="url(#p252c137d2c)">
     <use xlink:href="#m2216f91f4a" x="100.282288" y="107.447318" style="stroke: #000000"/>
     <use xlink:href="#m2216f91f4a" x="176.209791" y="52.523664" style="stroke: #000000"/>
     <use xlink:href="#m2216f91f4a" x="252.137294" y="96.827653" style="stroke: #000000"/>
     <use xlink:href="#m2216f91f4a" x="328.064797" y="74.84415" style="stroke: #000000"/>
     <use xlink:href="#m2216f91f4a" x="403.9923" y="177.633523" style="stroke: #000000"/>
    </g>
   </g>
   <g id="line2d_14">
    <defs>
     <path id="m326e446cb5" d="M 0 5.656854 
L 5.656854 0 
L 0 -5.656854 
L -5.656854 0 
z
" style="stroke: #000000; stroke-linejoin: miter"/>
    </defs>
    <g clip-path="url(#p252c137d2c)">
     <use xlink:href="#m326e446cb5" x="100.282288" y="140.083248" style="stroke: #000000; stroke-linejoin: miter"/>
     <use xlink:href="#m326e446cb5" x="176.209791" y="84.546471" style="stroke: #000000; stroke-linejoin: miter"/>
     <use xlink:href="#m326e446cb5" x="252.137294" y="137.958379" style="stroke: #000000; stroke-linejoin: miter"/>
     <use xlink:href="#m326e446cb5" x="328.064797" y="103.91835" style="stroke: #000000; stroke-linejoin: miter"/>
     <use xlink:href="#m326e446cb5" x="403.9923" y="213.835864" style="stroke: #000000; stroke-linejoin: miter"/>
    </g>
   </g>
   <g id="patch_3">
    <path d="M 52.76 303.896 
L 52.76 12.96 
" style="fill: none; stroke: #000000; stroke-width: 0.8; stroke-linejoin: miter; stroke-linecap: square"/>
   </g>
   <g id="patch_4">
    <path d="M 447.84 303.896 
L 447.84 12.96 
" style="fill: none; stroke: #000000; stroke-width: 0.8; stroke-linejoin: miter; stroke-linecap: square"/>
   </g>
   <g id="patch_5">
    <path d="M 52.76 303.896 
L 447.84 303.896 
" style="fill: none; stroke: #000000; stroke-width: 0.8; stroke-linejoin: miter; stroke-linecap: square"/>
   </g>
   <g id="patch_6">
    <path d="M 52.76 12.96 
L 447.84 12.96 
" style="fill: none; stroke: #000000; stroke-width: 0.8; stroke-linejoin: miter; stroke-linecap: square"/>
   </g>
  </g>
 </g>
 <defs>
  <clipPath id="p252c137d2c">
   <rect x="52.76" y="12.96" width="395.08" height="290.936"/>
  </clipPath>
 </defs>
</svg>
