<?xml version="1.0" encoding="utf-8" standalone="no"?>
<!DOCTYPE svg PUBLIC "-//W3C//DTD SVG 1.1//EN"
  "http://www.w3.org/Graphics/SVG/1.1/DTD/svg11.dtd">
<svg xmlns:xlink="http://www.w3.org/1999/xlink" width="460.8pt" height="345.6pt" viewBox="0 0 460.8 345.6" xmlns="http://www.w3.org/2000/svg" version="1.1">
 <metadata>
  <rdf:RDF xmlns:dc="http://purl.org/dc/elements/1.1/" xmlns:cc="http://creativecommons.org/ns#" xmlns:rdf="http://www.w3.org/1999/02/22-rdf-syntax-ns#">
   <cc:Work>
    <dc:type rdf:resource="http://purl.org/dc/dcmitype/StillImage"/>
    <dc:date>2025-09-22T14:38:27.169122</dc:date>
    <dc:format>image/svg+xml</dc:format>
    <dc:creator>
     <cc:Agent>
      <dc:title>Matplotlib v3.9.4, https://matplotlib.org/</dc:title>
     </cc:Agent>
    </dc:creator>
   </cc:Work>
  </rdf:RDF>
 </metadata>
 <defs>
  <style type="text/css">*{stroke-linejoin: round; stroke-linecap: butt}</style>
 </defs>
 <g id="figure_1">
  <g id="patch_1">
   <path d="M 0 345.6 
L 460.8 345.6 
L 460.8 0 
L 0 0 
z
" style="fill: #ffffff"/>
  </g>
  <g id="axes_1">
   <g id="patch_2">
    <path d="M 52.76 303.896 
L 447.84 303.896 
L 447.84 12.96 
L 52.76 12.96 
z
" style="fill: #ffffff"/>
   </g>
   <g id="PolyCollection_1">
    <defs>
     <path id="mb05d6fadd6" d="M 98.574632 -83.938777 
L 98.545771 -83.938777 
L 98.533051 -85.977226 
L 98.514881 -88.015676 
L 98.493084 -90.054126 
L 98.472013 -92.092575 
L 98.457398 -94.131025 
L 98.453877 -96.169474 
L 98.462638 -98.207924 
L 98.480774 -100.246373 
L 98.502832 -102.284823 
L 98.523433 -104.323273 
L 98.539274 -106.361722 
L 98.549552 -108.400172 
L 98.555097 -110.438621 
L 98.557085 -112.477071 
L 98.555979 -114.51552 
L 98.550906 -116.55397 
L 98.539463 -118.59242 
L 98.518136 -120.630869 
L 98.48358 -122.669319 
L 98.43461 -124.707768 
L 98.373995 -126.746218 
L 98.308715 -128.784668 
L 98.248011 -130.823117 
L 98.20003 -132.861567 
L 98.168747 -134.900016 
L 98.15235 -136.938466 
L 98.143174 -138.976915 
L 98.128862 -141.015365 
L 98.094844 -143.053815 
L 98.028156 -145.092264 
L 97.9214 -147.130714 
L 97.774408 -149.169163 
L 97.591542 -151.207613 
L 97.375315 -153.246062 
L 97.120365 -155.284512 
L 96.812893 -157.322962 
L 96.437442 -159.361411 
L 95.987301 -161.399861 
L 95.470873 -163.43831 
L 94.908 -165.47676 
L 94.31701 -167.51521 
L 93.700921 -169.553659 
L 93.043357 -171.592109 
L 92.318221 -173.630558 
L 91.505742 -175.669008 
L 90.600732 -177.707457 
L 89.604579 -179.745907 
L 88.508407 -181.784357 
L 87.287578 -183.822806 
L 85.922404 -185.861256 
L 84.436101 -187.899705 
L 82.918618 -189.938155 
L 81.507959 -191.976604 
L 80.33155 -194.015054 
L 79.443402 -196.053504 
L 78.798046 -198.091953 
L 78.275329 -200.130403 
L 77.735866 -202.168852 
L 77.072914 -204.207302 
L 76.238705 -206.245752 
L 75.245307 -208.284201 
L 74.152679 -210.322651 
L 73.054207 -212.3611 
L 72.061207 -214.39955 
L 71.284488 -216.437999 
L 70.815937 -218.476449 
L 70.718182 -220.514899 
L 71.02665 -222.553348 
L 71.756815 -224.591798 
L 72.902879 -226.630247 
L 74.422855 -228.668697 
L 76.22304 -230.707146 
L 78.1634 -232.745596 
L 80.092311 -234.784046 
L 81.894193 -236.822495 
L 83.519643 -238.860945 
L 84.978812 -240.899394 
L 86.306253 -242.937844 
L 87.526223 -244.976294 
L 88.643677 -247.014743 
L 89.661578 -249.053193 
L 90.601615 -251.091642 
L 91.504276 -253.130092 
L 92.405568 -255.168541 
L 93.310624 -257.206991 
L 94.187385 -259.245441 
L 94.98568 -261.28389 
L 95.666507 -263.32234 
L 96.220952 -265.360789 
L 96.669057 -267.399239 
L 97.043799 -269.437688 
L 97.372819 -271.476138 
L 97.66825 -273.514588 
L 97.927601 -275.553037 
L 98.141931 -277.591487 
L 98.304808 -279.629936 
L 98.417206 -281.668386 
L 98.487177 -283.706836 
L 98.526333 -285.745285 
L 98.594069 -285.745285 
L 98.594069 -285.745285 
L 98.633225 -283.706836 
L 98.703197 -281.668386 
L 98.815594 -279.629936 
L 98.978472 -277.591487 
L 99.192801 -275.553037 
L 99.452153 -273.514588 
L 99.747583 -271.476138 
L 100.076603 -269.437688 
L 100.451345 -267.399239 
L 100.89945 -265.360789 
L 101.453895 -263.32234 
L 102.134722 -261.28389 
L 102.933018 -259.245441 
L 103.809778 -257.206991 
L 104.714834 -255.168541 
L 105.616127 -253.130092 
L 106.518787 -251.091642 
L 107.458825 -249.053193 
L 108.476725 -247.014743 
L 109.594179 -244.976294 
L 110.814149 -242.937844 
L 112.141591 -240.899394 
L 113.600759 -238.860945 
L 115.22621 -236.822495 
L 117.028091 -234.784046 
L 118.957003 -232.745596 
L 120.897362 -230.707146 
L 122.697547 -228.668697 
L 124.217523 -226.630247 
L 125.363587 -224.591798 
L 126.093752 -222.553348 
L 126.402221 -220.514899 
L 126.304465 -218.476449 
L 125.835914 -216.437999 
L 125.059196 -214.39955 
L 124.066195 -212.3611 
L 122.967724 -210.322651 
L 121.875096 -208.284201 
L 120.881697 -206.245752 
L 120.047489 -204.207302 
L 119.384536 -202.168852 
L 118.845073 -200.130403 
L 118.322357 -198.091953 
L 117.677 -196.053504 
L 116.788853 -194.015054 
L 115.612443 -191.976604 
L 114.201784 -189.938155 
L 112.684302 -187.899705 
L 111.197998 -185.861256 
L 109.832824 -183.822806 
L 108.611996 -181.784357 
L 107.515823 -179.745907 
L 106.51967 -177.707457 
L 105.61466 -175.669008 
L 104.802181 -173.630558 
L 104.077046 -171.592109 
L 103.419482 -169.553659 
L 102.803392 -167.51521 
L 102.212403 -165.47676 
L 101.64953 -163.43831 
L 101.133102 -161.399861 
L 100.68296 -159.361411 
L 100.30751 -157.322962 
L 100.000037 -155.284512 
L 99.745088 -153.246062 
L 99.52886 -151.207613 
L 99.345995 -149.169163 
L 99.199002 -147.130714 
L 99.092247 -145.092264 
L 99.025559 -143.053815 
L 98.991541 -141.015365 
L 98.977228 -138.976915 
L 98.968052 -136.938466 
L 98.951656 -134.900016 
L 98.920373 -132.861567 
L 98.872392 -130.823117 
L 98.811687 -128.784668 
L 98.746407 -126.746218 
L 98.685792 -124.707768 
L 98.636822 -122.669319 
L 98.602266 -120.630869 
L 98.58094 -118.59242 
L 98.569496 -116.55397 
L 98.564423 -114.51552 
L 98.563318 -112.477071 
L 98.565305 -110.438621 
L 98.570851 -108.400172 
L 98.581129 -106.361722 
L 98.59697 -104.323273 
L 98.617571 -102.284823 
L 98.639628 -100.246373 
L 98.657764 -98.207924 
L 98.666526 -96.169474 
L 98.663004 -94.131025 
L 98.648389 -92.092575 
L 98.627319 -90.054126 
L 98.605521 -88.015676 
L 98.587352 -85.977226 
L 98.574632 -83.938777 
z
" style="stroke: #3f3f3f; stroke-width: 1.25"/>
    </defs>
    <g clip-path="url(#p5a28ac96e1)">
     <use xlink:href="#mb05d6fadd6" x="0" y="345.6" style="fill: #3274a1; stroke: #3f3f3f; stroke-width: 1.25"/>
    </g>
   </g>
   <g id="PolyCollection_2">
    <defs>
     <path id="ma4aea22b6c" d="M 175.806272 -104.670629 
L 175.725371 -104.670629 
L 175.690794 -106.571187 
L 175.63699 -108.471746 
L 175.56057 -110.372304 
L 175.461501 -112.272862 
L 175.34415 -114.17342 
L 175.216632 -116.073979 
L 175.088281 -117.974537 
L 174.96616 -119.875095 
L 174.852372 -121.775654 
L 174.743674 -123.676212 
L 174.63354 -125.57677 
L 174.515188 -127.477329 
L 174.383365 -129.377887 
L 174.233516 -131.278445 
L 174.058936 -133.179003 
L 173.848183 -135.079562 
L 173.585303 -136.98012 
L 173.253752 -138.880678 
L 172.842429 -140.781237 
L 172.35049 -142.681795 
L 171.787861 -144.582353 
L 171.170603 -146.482912 
L 170.513204 -148.38347 
L 169.821805 -150.284028 
L 169.092049 -152.184587 
L 168.31286 -154.085145 
L 167.474308 -155.985703 
L 166.575637 -157.886261 
L 165.629653 -159.78682 
L 164.661869 -161.687378 
L 163.705426 -163.587936 
L 162.794278 -165.488495 
L 161.956684 -167.389053 
L 161.209775 -169.289611 
L 160.555139 -171.19017 
L 159.975876 -173.090728 
L 159.436695 -174.991286 
L 158.889078 -176.891844 
L 158.2825 -178.792403 
L 157.580076 -180.692961 
L 156.773916 -182.593519 
L 155.8935 -184.494078 
L 155.001442 -186.394636 
L 154.17574 -188.295194 
L 153.484515 -190.195753 
L 152.964411 -192.096311 
L 152.613405 -193.996869 
L 152.401803 -195.897427 
L 152.295218 -197.797986 
L 152.276544 -199.698544 
L 152.354917 -201.599102 
L 152.557862 -203.499661 
L 152.912894 -205.400219 
L 153.430263 -207.300777 
L 154.096361 -209.201336 
L 154.879761 -211.101894 
L 155.744424 -213.002452 
L 156.661775 -214.903011 
L 157.615917 -216.803569 
L 158.601374 -218.704127 
L 159.616663 -220.604685 
L 160.658001 -222.505244 
L 161.716204 -224.405802 
L 162.777793 -226.30636 
L 163.829296 -228.206919 
L 164.862104 -230.107477 
L 165.874731 -232.008035 
L 166.870716 -233.908594 
L 167.853141 -235.809152 
L 168.819072 -237.70971 
L 169.757214 -239.610268 
L 170.649937 -241.510827 
L 171.478164 -243.411385 
L 172.226417 -245.311943 
L 172.885741 -247.212502 
L 173.45379 -249.11306 
L 173.932769 -251.013618 
L 174.326814 -252.914177 
L 174.640444 -254.814735 
L 174.878928 -256.715293 
L 175.050067 -258.615852 
L 175.165804 -260.51641 
L 175.241991 -262.416968 
L 175.29579 -264.317526 
L 175.34176 -266.218085 
L 175.38863 -268.118643 
L 175.43842 -270.019201 
L 175.488227 -271.91976 
L 175.533546 -273.820318 
L 175.571345 -275.720876 
L 175.60148 -277.621435 
L 175.62619 -279.521993 
L 175.648402 -281.422551 
L 175.670093 -283.323109 
L 175.691561 -285.223668 
L 175.711759 -287.124226 
L 175.729218 -289.024784 
L 175.742901 -290.925343 
L 175.752592 -292.825901 
L 175.779051 -292.825901 
L 175.779051 -292.825901 
L 175.788742 -290.925343 
L 175.802425 -289.024784 
L 175.819884 -287.124226 
L 175.840083 -285.223668 
L 175.86155 -283.323109 
L 175.883242 -281.422551 
L 175.905454 -279.521993 
L 175.930163 -277.621435 
L 175.960299 -275.720876 
L 175.998097 -273.820318 
L 176.043417 -271.91976 
L 176.093223 -270.019201 
L 176.143013 -268.118643 
L 176.189883 -266.218085 
L 176.235853 -264.317526 
L 176.289652 -262.416968 
L 176.365839 -260.51641 
L 176.481576 -258.615852 
L 176.652715 -256.715293 
L 176.8912 -254.814735 
L 177.204829 -252.914177 
L 177.598874 -251.013618 
L 178.077853 -249.11306 
L 178.645902 -247.212502 
L 179.305226 -245.311943 
L 180.053479 -243.411385 
L 180.881707 -241.510827 
L 181.774429 -239.610268 
L 182.712572 -237.70971 
L 183.678502 -235.809152 
L 184.660927 -233.908594 
L 185.656912 -232.008035 
L 186.669539 -230.107477 
L 187.702347 -228.206919 
L 188.75385 -226.30636 
L 189.815439 -224.405802 
L 190.873642 -222.505244 
L 191.91498 -220.604685 
L 192.93027 -218.704127 
L 193.915727 -216.803569 
L 194.869868 -214.903011 
L 195.787219 -213.002452 
L 196.651882 -211.101894 
L 197.435282 -209.201336 
L 198.10138 -207.300777 
L 198.618749 -205.400219 
L 198.973781 -203.499661 
L 199.176726 -201.599102 
L 199.255099 -199.698544 
L 199.236425 -197.797986 
L 199.12984 -195.897427 
L 198.918239 -193.996869 
L 198.567232 -192.096311 
L 198.047128 -190.195753 
L 197.355903 -188.295194 
L 196.530201 -186.394636 
L 195.638143 -184.494078 
L 194.757727 -182.593519 
L 193.951567 -180.692961 
L 193.249144 -178.792403 
L 192.642565 -176.891844 
L 192.094948 -174.991286 
L 191.555767 -173.090728 
L 190.976504 -171.19017 
L 190.321868 -169.289611 
L 189.574959 -167.389053 
L 188.737365 -165.488495 
L 187.826217 -163.587936 
L 186.869774 -161.687378 
L 185.90199 -159.78682 
L 184.956006 -157.886261 
L 184.057335 -155.985703 
L 183.218783 -154.085145 
L 182.439594 -152.184587 
L 181.709838 -150.284028 
L 181.018439 -148.38347 
L 180.36104 -146.482912 
L 179.743782 -144.582353 
L 179.181153 -142.681795 
L 178.689214 -140.781237 
L 178.277891 -138.880678 
L 177.94634 -136.98012 
L 177.68346 -135.079562 
L 177.472707 -133.179003 
L 177.298127 -131.278445 
L 177.148278 -129.377887 
L 177.016455 -127.477329 
L 176.898103 -125.57677 
L 176.787969 -123.676212 
L 176.679271 -121.775654 
L 176.565483 -119.875095 
L 176.443362 -117.974537 
L 176.315011 -116.073979 
L 176.187494 -114.17342 
L 176.070142 -112.272862 
L 175.971074 -110.372304 
L 175.894653 -108.471746 
L 175.840849 -106.571187 
L 175.806272 -104.670629 
z
" style="stroke: #3f3f3f; stroke-width: 1.25"/>
    </defs>
    <g clip-path="url(#p5a28ac96e1)">
     <use xlink:href="#ma4aea22b6c" x="0" y="345.6" style="fill: #3274a1; stroke: #3f3f3f; stroke-width: 1.25"/>
    </g>
   </g>
   <g id="PolyCollection_3">
    <defs>
     <path id="mc1b6087991" d="M 252.984253 -101.311035 
L 252.958631 -101.311035 
L 252.949003 -103.320052 
L 252.935491 -105.329069 
L 252.918647 -107.338085 
L 252.900089 -109.347102 
L 252.881985 -111.356119 
L 252.86585 -113.365136 
L 252.851119 -115.374153 
L 252.834318 -117.38317 
L 252.809637 -119.392187 
L 252.771025 -121.401203 
L 252.715092 -123.41022 
L 252.643367 -125.419237 
L 252.562549 -127.428254 
L 252.482159 -129.437271 
L 252.410355 -131.446288 
L 252.349783 -133.455305 
L 252.295593 -135.464321 
L 252.236852 -137.473338 
L 252.160799 -139.482355 
L 252.057752 -141.491372 
L 251.923963 -143.500389 
L 251.760882 -145.509406 
L 251.571498 -147.518422 
L 251.356303 -149.527439 
L 251.111557 -151.536456 
L 250.830801 -153.545473 
L 250.508234 -155.55449 
L 250.14151 -157.563507 
L 249.732363 -159.572524 
L 249.285225 -161.58154 
L 248.805173 -163.590557 
L 248.296337 -165.599574 
L 247.761095 -167.608591 
L 247.199785 -169.617608 
L 246.610536 -171.626625 
L 245.988895 -173.635642 
L 245.327425 -175.644658 
L 244.61625 -177.653675 
L 243.846077 -179.662692 
L 243.013893 -181.671709 
L 242.128447 -183.680726 
L 241.210421 -185.689743 
L 240.284051 -187.698759 
L 239.363243 -189.707776 
L 238.441398 -191.716793 
L 237.494271 -193.72581 
L 236.497384 -195.734827 
L 235.448415 -197.743844 
L 234.379328 -199.752861 
L 233.348401 -201.761877 
L 232.416055 -203.770894 
L 231.620391 -205.779911 
L 230.968728 -207.788928 
L 230.449053 -209.797945 
L 230.049995 -211.806962 
L 229.772132 -213.815979 
L 229.622224 -215.824995 
L 229.597405 -217.834012 
L 229.675502 -219.843029 
L 229.822807 -221.852046 
L 230.016217 -223.861063 
L 230.264627 -225.87008 
L 230.613734 -227.879096 
L 231.128985 -229.888113 
L 231.8652 -231.89713 
L 232.839257 -233.906147 
L 234.020109 -235.915164 
L 235.3403 -237.924181 
L 236.721537 -239.933198 
L 238.100096 -241.942214 
L 239.439549 -243.951231 
L 240.726832 -245.960248 
L 241.957682 -247.969265 
L 243.122685 -249.978282 
L 244.20286 -251.987299 
L 245.176108 -253.996316 
L 246.028731 -256.005332 
L 246.763941 -258.014349 
L 247.402445 -260.023366 
L 247.97548 -262.032383 
L 248.514423 -264.0414 
L 249.041687 -266.050417 
L 249.565977 -268.059433 
L 250.082645 -270.06845 
L 250.578084 -272.077467 
L 251.035914 -274.086484 
L 251.44249 -276.095501 
L 251.790015 -278.104518 
L 252.076961 -280.113535 
L 252.306745 -282.122551 
L 252.485913 -284.131568 
L 252.622553 -286.140585 
L 252.725054 -288.149602 
L 252.801091 -290.158619 
L 252.856961 -292.167636 
L 252.897389 -294.176652 
L 252.925829 -296.185669 
L 252.944962 -298.194686 
L 252.957078 -300.203703 
L 252.985805 -300.203703 
L 252.985805 -300.203703 
L 252.997921 -298.194686 
L 253.017054 -296.185669 
L 253.045495 -294.176652 
L 253.085923 -292.167636 
L 253.141793 -290.158619 
L 253.21783 -288.149602 
L 253.320331 -286.140585 
L 253.456971 -284.131568 
L 253.636139 -282.122551 
L 253.865923 -280.113535 
L 254.152869 -278.104518 
L 254.500394 -276.095501 
L 254.90697 -274.086484 
L 255.3648 -272.077467 
L 255.860239 -270.06845 
L 256.376907 -268.059433 
L 256.901196 -266.050417 
L 257.428461 -264.0414 
L 257.967404 -262.032383 
L 258.540439 -260.023366 
L 259.178943 -258.014349 
L 259.914153 -256.005332 
L 260.766776 -253.996316 
L 261.740024 -251.987299 
L 262.820199 -249.978282 
L 263.985202 -247.969265 
L 265.216051 -245.960248 
L 266.503335 -243.951231 
L 267.842788 -241.942214 
L 269.221347 -239.933198 
L 270.602584 -237.924181 
L 271.922775 -235.915164 
L 273.103626 -233.906147 
L 274.077684 -231.89713 
L 274.813898 -229.888113 
L 275.32915 -227.879096 
L 275.678257 -225.87008 
L 275.926667 -223.861063 
L 276.120077 -221.852046 
L 276.267381 -219.843029 
L 276.345479 -217.834012 
L 276.320659 -215.824995 
L 276.170752 -213.815979 
L 275.892889 -211.806962 
L 275.49383 -209.797945 
L 274.974156 -207.788928 
L 274.322492 -205.779911 
L 273.526829 -203.770894 
L 272.594483 -201.761877 
L 271.563556 -199.752861 
L 270.494469 -197.743844 
L 269.4455 -195.734827 
L 268.448613 -193.72581 
L 267.501486 -191.716793 
L 266.57964 -189.707776 
L 265.658833 -187.698759 
L 264.732463 -185.689743 
L 263.814437 -183.680726 
L 262.928991 -181.671709 
L 262.096807 -179.662692 
L 261.326634 -177.653675 
L 260.615459 -175.644658 
L 259.953988 -173.635642 
L 259.332348 -171.626625 
L 258.743098 -169.617608 
L 258.181789 -167.608591 
L 257.646547 -165.599574 
L 257.137711 -163.590557 
L 256.657659 -161.58154 
L 256.210521 -159.572524 
L 255.801374 -157.563507 
L 255.43465 -155.55449 
L 255.112083 -153.545473 
L 254.831327 -151.536456 
L 254.586581 -149.527439 
L 254.371386 -147.518422 
L 254.182002 -145.509406 
L 254.018921 -143.500389 
L 253.885132 -141.491372 
L 253.782085 -139.482355 
L 253.706032 -137.473338 
L 253.647291 -135.464321 
L 253.593101 -133.455305 
L 253.532528 -131.446288 
L 253.460725 -129.437271 
L 253.380335 -127.428254 
L 253.299517 -125.419237 
L 253.227792 -123.41022 
L 253.171859 -121.401203 
L 253.133247 -119.392187 
L 253.108566 -117.38317 
L 253.091765 -115.374153 
L 253.077033 -113.365136 
L 253.060899 -111.356119 
L 253.042795 -109.347102 
L 253.024237 -107.338085 
L 253.007393 -105.329069 
L 252.993881 -103.320052 
L 252.984253 -101.311035 
z
" style="stroke: #3f3f3f; stroke-width: 1.25"/>
    </defs>
    <g clip-path="url(#p5a28ac96e1)">
     <use xlink:href="#mc1b6087991" x="0" y="345.6" style="fill: #3274a1; stroke: #3f3f3f; stroke-width: 1.25"/>
    </g>
   </g>
   <g id="PolyCollection_4">
    <defs>
     <path id="m20dd24effe" d="M 330.193596 -161.307443 
L 330.160528 -161.307443 
L 330.14773 -162.904495 
L 330.129335 -164.501548 
L 330.105612 -166.0986 
L 330.078196 -167.695653 
L 330.049793 -169.292705 
L 330.023293 -170.889758 
L 330.000733 -172.48681 
L 329.982713 -174.083862 
L 329.968588 -175.680915 
L 329.957192 -177.277967 
L 329.947455 -178.87502 
L 329.938409 -180.472072 
L 329.928594 -182.069125 
L 329.915365 -183.666177 
L 329.894796 -185.26323 
L 329.862655 -186.860282 
L 329.816295 -188.457335 
L 329.756556 -190.054387 
L 329.688327 -191.65144 
L 329.618744 -193.248492 
L 329.553249 -194.845544 
L 329.491236 -196.442597 
L 329.423699 -198.039649 
L 329.334486 -199.636702 
L 329.204815 -201.233754 
L 329.018788 -202.830807 
L 328.767023 -204.427859 
L 328.4468 -206.024912 
L 328.059417 -207.621964 
L 327.607272 -209.219017 
L 327.093166 -210.816069 
L 326.522479 -212.413122 
L 325.906533 -214.010174 
L 325.264312 -215.607226 
L 324.62056 -217.204279 
L 324.000413 -218.801331 
L 323.422561 -220.398384 
L 322.893455 -221.995436 
L 322.404396 -223.592489 
L 321.931999 -225.189541 
L 321.441257 -226.786594 
L 320.889645 -228.383646 
L 320.23127 -229.980699 
L 319.421956 -231.577751 
L 318.427521 -233.174804 
L 317.235735 -234.771856 
L 315.867467 -236.368908 
L 314.378713 -237.965961 
L 312.847772 -239.563013 
L 311.351085 -241.160066 
L 309.939991 -242.757118 
L 308.630798 -244.354171 
L 307.411183 -245.951223 
L 306.255441 -247.548276 
L 305.138448 -249.145328 
L 304.044155 -250.742381 
L 302.971198 -252.339433 
L 301.938608 -253.936485 
L 300.989615 -255.533538 
L 300.18805 -257.13059 
L 299.604675 -258.727643 
L 299.297512 -260.324695 
L 299.294814 -261.921748 
L 299.588014 -263.5188 
L 300.136584 -265.115853 
L 300.881458 -266.712905 
L 301.761431 -268.309958 
L 302.727666 -269.90701 
L 303.753168 -271.504063 
L 304.835494 -273.101115 
L 305.992035 -274.698167 
L 307.248939 -276.29522 
L 308.627055 -277.892272 
L 310.12969 -279.489325 
L 311.736251 -281.086377 
L 313.403348 -282.68343 
L 315.07261 -284.280482 
L 316.683078 -285.877535 
L 318.185002 -287.474587 
L 319.550599 -289.07164 
L 320.777181 -290.668692 
L 321.880802 -292.265745 
L 322.88368 -293.862797 
L 323.802405 -295.459849 
L 324.643106 -297.056902 
L 325.404682 -298.653954 
L 326.086049 -300.251007 
L 326.691777 -301.848059 
L 327.23283 -303.445112 
L 327.722857 -305.042164 
L 328.172861 -306.639217 
L 328.587244 -308.236269 
L 328.963007 -309.833322 
L 329.292194 -311.430374 
L 329.566285 -313.027427 
L 329.780508 -314.624479 
L 329.936272 -316.221531 
L 330.040977 -317.818584 
L 330.105758 -319.415636 
L 330.248367 -319.415636 
L 330.248367 -319.415636 
L 330.313148 -317.818584 
L 330.417852 -316.221531 
L 330.573616 -314.624479 
L 330.787839 -313.027427 
L 331.06193 -311.430374 
L 331.391118 -309.833322 
L 331.766881 -308.236269 
L 332.181263 -306.639217 
L 332.631267 -305.042164 
L 333.121295 -303.445112 
L 333.662347 -301.848059 
L 334.268076 -300.251007 
L 334.949443 -298.653954 
L 335.711019 -297.056902 
L 336.55172 -295.459849 
L 337.470445 -293.862797 
L 338.473322 -292.265745 
L 339.576944 -290.668692 
L 340.803526 -289.07164 
L 342.169123 -287.474587 
L 343.671046 -285.877535 
L 345.281515 -284.280482 
L 346.950777 -282.68343 
L 348.617873 -281.086377 
L 350.224434 -279.489325 
L 351.72707 -277.892272 
L 353.105186 -276.29522 
L 354.36209 -274.698167 
L 355.51863 -273.101115 
L 356.600957 -271.504063 
L 357.626458 -269.90701 
L 358.592693 -268.309958 
L 359.472667 -266.712905 
L 360.217541 -265.115853 
L 360.766111 -263.5188 
L 361.05931 -261.921748 
L 361.056613 -260.324695 
L 360.74945 -258.727643 
L 360.166074 -257.13059 
L 359.364509 -255.533538 
L 358.415516 -253.936485 
L 357.382926 -252.339433 
L 356.309969 -250.742381 
L 355.215676 -249.145328 
L 354.098683 -247.548276 
L 352.942941 -245.951223 
L 351.723326 -244.354171 
L 350.414134 -242.757118 
L 349.00304 -241.160066 
L 347.506352 -239.563013 
L 345.975412 -237.965961 
L 344.486657 -236.368908 
L 343.11839 -234.771856 
L 341.926603 -233.174804 
L 340.932168 -231.577751 
L 340.122854 -229.980699 
L 339.464479 -228.383646 
L 338.912867 -226.786594 
L 338.422125 -225.189541 
L 337.949728 -223.592489 
L 337.460669 -221.995436 
L 336.931564 -220.398384 
L 336.353711 -218.801331 
L 335.733565 -217.204279 
L 335.089813 -215.607226 
L 334.447592 -214.010174 
L 333.831646 -212.413122 
L 333.260959 -210.816069 
L 332.746853 -209.219017 
L 332.294708 -207.621964 
L 331.907324 -206.024912 
L 331.587101 -204.427859 
L 331.335337 -202.830807 
L 331.14931 -201.233754 
L 331.019639 -199.636702 
L 330.930425 -198.039649 
L 330.862889 -196.442597 
L 330.800876 -194.845544 
L 330.73538 -193.248492 
L 330.665797 -191.65144 
L 330.597568 -190.054387 
L 330.537829 -188.457335 
L 330.491469 -186.860282 
L 330.459329 -185.26323 
L 330.43876 -183.666177 
L 330.425531 -182.069125 
L 330.415716 -180.472072 
L 330.40667 -178.87502 
L 330.396932 -177.277967 
L 330.385537 -175.680915 
L 330.371412 -174.083862 
L 330.353392 -172.48681 
L 330.330831 -170.889758 
L 330.304331 -169.292705 
L 330.275928 -167.695653 
L 330.248513 -166.0986 
L 330.22479 -164.501548 
L 330.206394 -162.904495 
L 330.193596 -161.307443 
z
" style="stroke: #3f3f3f; stroke-width: 1.25"/>
    </defs>
    <g clip-path="url(#p5a28ac96e1)">
     <use xlink:href="#m20dd24effe" x="0" y="345.6" style="fill: #3274a1; stroke: #3f3f3f; stroke-width: 1.25"/>
    </g>
   </g>
   <g id="PolyCollection_5">
    <defs>
     <path id="m9891fb00d5" d="M 407.396165 -54.928364 
L 407.369201 -54.928364 
L 407.358569 -56.928469 
L 407.342582 -58.928574 
L 407.320267 -60.92868 
L 407.290961 -62.928785 
L 407.254079 -64.928891 
L 407.208673 -66.928996 
L 407.153144 -68.929102 
L 407.085467 -70.929207 
L 407.004065 -72.929312 
L 406.908958 -74.929418 
L 406.802472 -76.929523 
L 406.688829 -78.929629 
L 406.572389 -80.929734 
L 406.45491 -82.929839 
L 406.332662 -84.929945 
L 406.194363 -86.93005 
L 406.02072 -88.930156 
L 405.786162 -90.930261 
L 405.462906 -92.930366 
L 405.026925 -94.930472 
L 404.464357 -96.930577 
L 403.776083 -98.930683 
L 402.978475 -100.930788 
L 402.099919 -102.930893 
L 401.174758 -104.930999 
L 400.237131 -106.931104 
L 399.316382 -108.93121 
L 398.434252 -110.931315 
L 397.603488 -112.931421 
L 396.827887 -114.931526 
L 396.104082 -116.931631 
L 395.424442 -118.931737 
L 394.779147 -120.931842 
L 394.155547 -122.931948 
L 393.535062 -124.932053 
L 392.890842 -126.932158 
L 392.190315 -128.932264 
L 391.404293 -130.932369 
L 390.51982 -132.932475 
L 389.550665 -134.93258 
L 388.539717 -136.932685 
L 387.551291 -138.932791 
L 386.656116 -140.932896 
L 385.914939 -142.933002 
L 385.36685 -144.933107 
L 385.025685 -146.933213 
L 384.883547 -148.933318 
L 384.917183 -150.933423 
L 385.09281 -152.933529 
L 385.368523 -154.933634 
L 385.697356 -156.93374 
L 386.034722 -158.933845 
L 386.35009 -160.93395 
L 386.637924 -162.934056 
L 386.92179 -164.934161 
L 387.249138 -166.934267 
L 387.679177 -168.934372 
L 388.268363 -170.934477 
L 389.056755 -172.934583 
L 390.056948 -174.934688 
L 391.247684 -176.934794 
L 392.575418 -178.934899 
L 393.965816 -180.935004 
L 395.342594 -182.93511 
L 396.646033 -184.935215 
L 397.842643 -186.935321 
L 398.922228 -188.935426 
L 399.886229 -190.935532 
L 400.736146 -192.935637 
L 401.469701 -194.935742 
L 402.086023 -196.935848 
L 402.594475 -198.935953 
L 403.019322 -200.936059 
L 403.395719 -202.936164 
L 403.758627 -204.936269 
L 404.130848 -206.936375 
L 404.516656 -208.93648 
L 404.903915 -210.936586 
L 405.272671 -212.936691 
L 405.605129 -214.936796 
L 405.892104 -216.936902 
L 406.133873 -218.937007 
L 406.336688 -220.937113 
L 406.50807 -222.937218 
L 406.653577 -224.937324 
L 406.776066 -226.937429 
L 406.876838 -228.937534 
L 406.9574 -230.93764 
L 407.020734 -232.937745 
L 407.071466 -234.937851 
L 407.114942 -236.937956 
L 407.155713 -238.938061 
L 407.196232 -240.938167 
L 407.236448 -242.938272 
L 407.274438 -244.938378 
L 407.307693 -246.938483 
L 407.334341 -248.938588 
L 407.353799 -250.938694 
L 407.366731 -252.938799 
L 407.398634 -252.938799 
L 407.398634 -252.938799 
L 407.411566 -250.938694 
L 407.431024 -248.938588 
L 407.457672 -246.938483 
L 407.490927 -244.938378 
L 407.528917 -242.938272 
L 407.569133 -240.938167 
L 407.609652 -238.938061 
L 407.650423 -236.937956 
L 407.693899 -234.937851 
L 407.744632 -232.937745 
L 407.807965 -230.93764 
L 407.888527 -228.937534 
L 407.989299 -226.937429 
L 408.111789 -224.937324 
L 408.257296 -222.937218 
L 408.428677 -220.937113 
L 408.631492 -218.937007 
L 408.873261 -216.936902 
L 409.160237 -214.936796 
L 409.492694 -212.936691 
L 409.86145 -210.936586 
L 410.24871 -208.93648 
L 410.634517 -206.936375 
L 411.006738 -204.936269 
L 411.369647 -202.936164 
L 411.746043 -200.936059 
L 412.17089 -198.935953 
L 412.679343 -196.935848 
L 413.295665 -194.935742 
L 414.029219 -192.935637 
L 414.879136 -190.935532 
L 415.843137 -188.935426 
L 416.922722 -186.935321 
L 418.119332 -184.935215 
L 419.422771 -182.93511 
L 420.799549 -180.935004 
L 422.189947 -178.934899 
L 423.517681 -176.934794 
L 424.708418 -174.934688 
L 425.70861 -172.934583 
L 426.497002 -170.934477 
L 427.086188 -168.934372 
L 427.516228 -166.934267 
L 427.843575 -164.934161 
L 428.127441 -162.934056 
L 428.415275 -160.93395 
L 428.730643 -158.933845 
L 429.068009 -156.93374 
L 429.396842 -154.933634 
L 429.672555 -152.933529 
L 429.848183 -150.933423 
L 429.881818 -148.933318 
L 429.739681 -146.933213 
L 429.398515 -144.933107 
L 428.850427 -142.933002 
L 428.109249 -140.932896 
L 427.214074 -138.932791 
L 426.225648 -136.932685 
L 425.214701 -134.93258 
L 424.245545 -132.932475 
L 423.361072 -130.932369 
L 422.57505 -128.932264 
L 421.874523 -126.932158 
L 421.230303 -124.932053 
L 420.609818 -122.931948 
L 419.986218 -120.931842 
L 419.340924 -118.931737 
L 418.661283 -116.931631 
L 417.937478 -114.931526 
L 417.161877 -112.931421 
L 416.331113 -110.931315 
L 415.448984 -108.93121 
L 414.528234 -106.931104 
L 413.590607 -104.930999 
L 412.665446 -102.930893 
L 411.786891 -100.930788 
L 410.989282 -98.930683 
L 410.301009 -96.930577 
L 409.738441 -94.930472 
L 409.302459 -92.930366 
L 408.979203 -90.930261 
L 408.744645 -88.930156 
L 408.571003 -86.93005 
L 408.432703 -84.929945 
L 408.310456 -82.929839 
L 408.192976 -80.929734 
L 408.076536 -78.929629 
L 407.962893 -76.929523 
L 407.856407 -74.929418 
L 407.7613 -72.929312 
L 407.679899 -70.929207 
L 407.612221 -68.929102 
L 407.556692 -66.928996 
L 407.511287 -64.928891 
L 407.474404 -62.928785 
L 407.445099 -60.92868 
L 407.422783 -58.928574 
L 407.406796 -56.928469 
L 407.396165 -54.928364 
z
" style="stroke: #3f3f3f; stroke-width: 1.25"/>
    </defs>
    <g clip-path="url(#p5a28ac96e1)">
     <use xlink:href="#m9891fb00d5" x="0" y="345.6" style="fill: #3274a1; stroke: #3f3f3f; stroke-width: 1.25"/>
    </g>
   </g>
   <g id="matplotlib.axis_1">
    <g id="xtick_1">
     <g id="line2d_1">
      <defs>
       <path id="m4bd1653305" d="M 0 0 
L 0 3.5 
" style="stroke: #000000; stroke-width: 0.8"/>
      </defs>
      <g>
       <use xlink:href="#m4bd1653305" x="98.560201" y="303.896" style="stroke: #000000; stroke-width: 0.8"/>
      </g>
     </g>
     <g id="text_1">
      <!-- Fluency -->
      <g transform="translate(79.172701 318.494438) scale(0.1 -0.1)">
       <defs>
        <path id="DejaVuSans-46" d="M 628 4666 
L 3309 4666 
L 3309 4134 
L 1259 4134 
L 1259 2759 
L 3109 2759 
L 3109 2228 
L 1259 2228 
L 1259 0 
L 628 0 
L 628 4666 
z
" transform="scale(0.015625)"/>
        <path id="DejaVuSans-6c" d="M 603 4863 
L 1178 4863 
L 1178 0 
L 603 0 
L 603 4863 
z
" transform="scale(0.015625)"/>
        <path id="DejaVuSans-75" d="M 544 1381 
L 544 3500 
L 1119 3500 
L 1119 1403 
Q 1119 906 1312 657 
Q 1506 409 1894 409 
Q 2359 409 2629 706 
Q 2900 1003 2900 1516 
L 2900 3500 
L 3475 3500 
L 3475 0 
L 2900 0 
L 2900 538 
Q 2691 219 2414 64 
Q 2138 -91 1772 -91 
Q 1169 -91 856 284 
Q 544 659 544 1381 
z
M 1991 3584 
L 1991 3584 
z
" transform="scale(0.015625)"/>
        <path id="DejaVuSans-65" d="M 3597 1894 
L 3597 1613 
L 953 1613 
Q 991 1019 1311 708 
Q 1631 397 2203 397 
Q 2534 397 2845 478 
Q 3156 559 3463 722 
L 3463 178 
Q 3153 47 2828 -22 
Q 2503 -91 2169 -91 
Q 1331 -91 842 396 
Q 353 884 353 1716 
Q 353 2575 817 3079 
Q 1281 3584 2069 3584 
Q 2775 3584 3186 3129 
Q 3597 2675 3597 1894 
z
M 3022 2063 
Q 3016 2534 2758 2815 
Q 2500 3097 2075 3097 
Q 1594 3097 1305 2825 
Q 1016 2553 972 2059 
L 3022 2063 
z
" transform="scale(0.015625)"/>
        <path id="DejaVuSans-6e" d="M 3513 2113 
L 3513 0 
L 2938 0 
L 2938 2094 
Q 2938 2591 2744 2837 
Q 2550 3084 2163 3084 
Q 1697 3084 1428 2787 
Q 1159 2491 1159 1978 
L 1159 0 
L 581 0 
L 581 3500 
L 1159 3500 
L 1159 2956 
Q 1366 3272 1645 3428 
Q 1925 3584 2291 3584 
Q 2894 3584 3203 3211 
Q 3513 2838 3513 2113 
z
" transform="scale(0.015625)"/>
        <path id="DejaVuSans-63" d="M 3122 3366 
L 3122 2828 
Q 2878 2963 2633 3030 
Q 2388 3097 2138 3097 
Q 1578 3097 1268 2742 
Q 959 2388 959 1747 
Q 959 1106 1268 751 
Q 1578 397 2138 397 
Q 2388 397 2633 464 
Q 2878 531 3122 666 
L 3122 134 
Q 2881 22 2623 -34 
Q 2366 -91 2075 -91 
Q 1284 -91 818 406 
Q 353 903 353 1747 
Q 353 2603 823 3093 
Q 1294 3584 2113 3584 
Q 2378 3584 2631 3529 
Q 2884 3475 3122 3366 
z
" transform="scale(0.015625)"/>
        <path id="DejaVuSans-79" d="M 2059 -325 
Q 1816 -950 1584 -1140 
Q 1353 -1331 966 -1331 
L 506 -1331 
L 506 -850 
L 844 -850 
Q 1081 -850 1212 -737 
Q 1344 -625 1503 -206 
L 1606 56 
L 191 3500 
L 800 3500 
L 1894 763 
L 2988 3500 
L 3597 3500 
L 2059 -325 
z
" transform="scale(0.015625)"/>
       </defs>
       <use xlink:href="#DejaVuSans-46"/>
       <use xlink:href="#DejaVuSans-6c" x="57.519531"/>
       <use xlink:href="#DejaVuSans-75" x="85.302734"/>
       <use xlink:href="#DejaVuSans-65" x="148.681641"/>
       <use xlink:href="#DejaVuSans-6e" x="210.205078"/>
       <use xlink:href="#DejaVuSans-63" x="273.583984"/>
       <use xlink:href="#DejaVuSans-79" x="328.564453"/>
      </g>
      <!--  classifier -->
      <g transform="translate(74.889107 329.69225) scale(0.1 -0.1)">
       <defs>
        <path id="DejaVuSans-20" transform="scale(0.015625)"/>
        <path id="DejaVuSans-61" d="M 2194 1759 
Q 1497 1759 1228 1600 
Q 959 1441 959 1056 
Q 959 750 1161 570 
Q 1363 391 1709 391 
Q 2188 391 2477 730 
Q 2766 1069 2766 1631 
L 2766 1759 
L 2194 1759 
z
M 3341 1997 
L 3341 0 
L 2766 0 
L 2766 531 
Q 2569 213 2275 61 
Q 1981 -91 1556 -91 
Q 1019 -91 701 211 
Q 384 513 384 1019 
Q 384 1609 779 1909 
Q 1175 2209 1959 2209 
L 2766 2209 
L 2766 2266 
Q 2766 2663 2505 2880 
Q 2244 3097 1772 3097 
Q 1472 3097 1187 3025 
Q 903 2953 641 2809 
L 641 3341 
Q 956 3463 1253 3523 
Q 1550 3584 1831 3584 
Q 2591 3584 2966 3190 
Q 3341 2797 3341 1997 
z
" transform="scale(0.015625)"/>
        <path id="DejaVuSans-73" d="M 2834 3397 
L 2834 2853 
Q 2591 2978 2328 3040 
Q 2066 3103 1784 3103 
Q 1356 3103 1142 2972 
Q 928 2841 928 2578 
Q 928 2378 1081 2264 
Q 1234 2150 1697 2047 
L 1894 2003 
Q 2506 1872 2764 1633 
Q 3022 1394 3022 966 
Q 3022 478 2636 193 
Q 2250 -91 1575 -91 
Q 1294 -91 989 -36 
Q 684 19 347 128 
L 347 722 
Q 666 556 975 473 
Q 1284 391 1588 391 
Q 1994 391 2212 530 
Q 2431 669 2431 922 
Q 2431 1156 2273 1281 
Q 2116 1406 1581 1522 
L 1381 1569 
Q 847 1681 609 1914 
Q 372 2147 372 2553 
Q 372 3047 722 3315 
Q 1072 3584 1716 3584 
Q 2034 3584 2315 3537 
Q 2597 3491 2834 3397 
z
" transform="scale(0.015625)"/>
        <path id="DejaVuSans-69" d="M 603 3500 
L 1178 3500 
L 1178 0 
L 603 0 
L 603 3500 
z
M 603 4863 
L 1178 4863 
L 1178 4134 
L 603 4134 
L 603 4863 
z
" transform="scale(0.015625)"/>
        <path id="DejaVuSans-66" d="M 2375 4863 
L 2375 4384 
L 1825 4384 
Q 1516 4384 1395 4259 
Q 1275 4134 1275 3809 
L 1275 3500 
L 2222 3500 
L 2222 3053 
L 1275 3053 
L 1275 0 
L 697 0 
L 697 3053 
L 147 3053 
L 147 3500 
L 697 3500 
L 697 3744 
Q 697 4328 969 4595 
Q 1241 4863 1831 4863 
L 2375 4863 
z
" transform="scale(0.015625)"/>
        <path id="DejaVuSans-72" d="M 2631 2963 
Q 2534 3019 2420 3045 
Q 2306 3072 2169 3072 
Q 1681 3072 1420 2755 
Q 1159 2438 1159 1844 
L 1159 0 
L 581 0 
L 581 3500 
L 1159 3500 
L 1159 2956 
Q 1341 3275 1631 3429 
Q 1922 3584 2338 3584 
Q 2397 3584 2469 3576 
Q 2541 3569 2628 3553 
L 2631 2963 
z
" transform="scale(0.015625)"/>
       </defs>
       <use xlink:href="#DejaVuSans-20"/>
       <use xlink:href="#DejaVuSans-63" x="31.787109"/>
       <use xlink:href="#DejaVuSans-6c" x="86.767578"/>
       <use xlink:href="#DejaVuSans-61" x="114.550781"/>
       <use xlink:href="#DejaVuSans-73" x="175.830078"/>
       <use xlink:href="#DejaVuSans-73" x="227.929688"/>
       <use xlink:href="#DejaVuSans-69" x="280.029297"/>
       <use xlink:href="#DejaVuSans-66" x="307.8125"/>
       <use xlink:href="#DejaVuSans-69" x="343.017578"/>
       <use xlink:href="#DejaVuSans-65" x="370.800781"/>
       <use xlink:href="#DejaVuSans-72" x="432.324219"/>
      </g>
     </g>
    </g>
    <g id="xtick_2">
     <g id="line2d_2">
      <g>
       <use xlink:href="#m4bd1653305" x="175.765822" y="303.896" style="stroke: #000000; stroke-width: 0.8"/>
      </g>
     </g>
     <g id="text_2">
      <!-- Screening -->
      <g transform="translate(150.845509 318.494438) scale(0.1 -0.1)">
       <defs>
        <path id="DejaVuSans-53" d="M 3425 4513 
L 3425 3897 
Q 3066 4069 2747 4153 
Q 2428 4238 2131 4238 
Q 1616 4238 1336 4038 
Q 1056 3838 1056 3469 
Q 1056 3159 1242 3001 
Q 1428 2844 1947 2747 
L 2328 2669 
Q 3034 2534 3370 2195 
Q 3706 1856 3706 1288 
Q 3706 609 3251 259 
Q 2797 -91 1919 -91 
Q 1588 -91 1214 -16 
Q 841 59 441 206 
L 441 856 
Q 825 641 1194 531 
Q 1563 422 1919 422 
Q 2459 422 2753 634 
Q 3047 847 3047 1241 
Q 3047 1584 2836 1778 
Q 2625 1972 2144 2069 
L 1759 2144 
Q 1053 2284 737 2584 
Q 422 2884 422 3419 
Q 422 4038 858 4394 
Q 1294 4750 2059 4750 
Q 2388 4750 2728 4690 
Q 3069 4631 3425 4513 
z
" transform="scale(0.015625)"/>
        <path id="DejaVuSans-67" d="M 2906 1791 
Q 2906 2416 2648 2759 
Q 2391 3103 1925 3103 
Q 1463 3103 1205 2759 
Q 947 2416 947 1791 
Q 947 1169 1205 825 
Q 1463 481 1925 481 
Q 2391 481 2648 825 
Q 2906 1169 2906 1791 
z
M 3481 434 
Q 3481 -459 3084 -895 
Q 2688 -1331 1869 -1331 
Q 1566 -1331 1297 -1286 
Q 1028 -1241 775 -1147 
L 775 -588 
Q 1028 -725 1275 -790 
Q 1522 -856 1778 -856 
Q 2344 -856 2625 -561 
Q 2906 -266 2906 331 
L 2906 616 
Q 2728 306 2450 153 
Q 2172 0 1784 0 
Q 1141 0 747 490 
Q 353 981 353 1791 
Q 353 2603 747 3093 
Q 1141 3584 1784 3584 
Q 2172 3584 2450 3431 
Q 2728 3278 2906 2969 
L 2906 3500 
L 3481 3500 
L 3481 434 
z
" transform="scale(0.015625)"/>
       </defs>
       <use xlink:href="#DejaVuSans-53"/>
       <use xlink:href="#DejaVuSans-63" x="63.476562"/>
       <use xlink:href="#DejaVuSans-72" x="118.457031"/>
       <use xlink:href="#DejaVuSans-65" x="157.320312"/>
       <use xlink:href="#DejaVuSans-65" x="218.84375"/>
       <use xlink:href="#DejaVuSans-6e" x="280.367188"/>
       <use xlink:href="#DejaVuSans-69" x="343.746094"/>
       <use xlink:href="#DejaVuSans-6e" x="371.529297"/>
       <use xlink:href="#DejaVuSans-67" x="434.908203"/>
      </g>
      <!--  classifier -->
      <g transform="translate(152.094728 329.69225) scale(0.1 -0.1)">
       <use xlink:href="#DejaVuSans-20"/>
       <use xlink:href="#DejaVuSans-63" x="31.787109"/>
       <use xlink:href="#DejaVuSans-6c" x="86.767578"/>
       <use xlink:href="#DejaVuSans-61" x="114.550781"/>
       <use xlink:href="#DejaVuSans-73" x="175.830078"/>
       <use xlink:href="#DejaVuSans-73" x="227.929688"/>
       <use xlink:href="#DejaVuSans-69" x="280.029297"/>
       <use xlink:href="#DejaVuSans-66" x="307.8125"/>
       <use xlink:href="#DejaVuSans-69" x="343.017578"/>
       <use xlink:href="#DejaVuSans-65" x="370.800781"/>
       <use xlink:href="#DejaVuSans-72" x="432.324219"/>
      </g>
     </g>
    </g>
    <g id="xtick_3">
     <g id="line2d_3">
      <g>
       <use xlink:href="#m4bd1653305" x="252.971442" y="303.896" style="stroke: #000000; stroke-width: 0.8"/>
      </g>
     </g>
     <g id="text_3">
      <!-- Executive -->
      <g transform="translate(228.629254 318.494438) scale(0.1 -0.1)">
       <defs>
        <path id="DejaVuSans-45" d="M 628 4666 
L 3578 4666 
L 3578 4134 
L 1259 4134 
L 1259 2753 
L 3481 2753 
L 3481 2222 
L 1259 2222 
L 1259 531 
L 3634 531 
L 3634 0 
L 628 0 
L 628 4666 
z
" transform="scale(0.015625)"/>
        <path id="DejaVuSans-78" d="M 3513 3500 
L 2247 1797 
L 3578 0 
L 2900 0 
L 1881 1375 
L 863 0 
L 184 0 
L 1544 1831 
L 300 3500 
L 978 3500 
L 1906 2253 
L 2834 3500 
L 3513 3500 
z
" transform="scale(0.015625)"/>
        <path id="DejaVuSans-74" d="M 1172 4494 
L 1172 3500 
L 2356 3500 
L 2356 3053 
L 1172 3053 
L 1172 1153 
Q 1172 725 1289 603 
Q 1406 481 1766 481 
L 2356 481 
L 2356 0 
L 1766 0 
Q 1100 0 847 248 
Q 594 497 594 1153 
L 594 3053 
L 172 3053 
L 172 3500 
L 594 3500 
L 594 4494 
L 1172 4494 
z
" transform="scale(0.015625)"/>
        <path id="DejaVuSans-76" d="M 191 3500 
L 800 3500 
L 1894 563 
L 2988 3500 
L 3597 3500 
L 2284 0 
L 1503 0 
L 191 3500 
z
" transform="scale(0.015625)"/>
       </defs>
       <use xlink:href="#DejaVuSans-45"/>
       <use xlink:href="#DejaVuSans-78" x="63.183594"/>
       <use xlink:href="#DejaVuSans-65" x="119.238281"/>
       <use xlink:href="#DejaVuSans-63" x="180.761719"/>
       <use xlink:href="#DejaVuSans-75" x="235.742188"/>
       <use xlink:href="#DejaVuSans-74" x="299.121094"/>
       <use xlink:href="#DejaVuSans-69" x="338.330078"/>
       <use xlink:href="#DejaVuSans-76" x="366.113281"/>
       <use xlink:href="#DejaVuSans-65" x="425.292969"/>
      </g>
      <!--  classifier -->
      <g transform="translate(229.300348 329.69225) scale(0.1 -0.1)">
       <use xlink:href="#DejaVuSans-20"/>
       <use xlink:href="#DejaVuSans-63" x="31.787109"/>
       <use xlink:href="#DejaVuSans-6c" x="86.767578"/>
       <use xlink:href="#DejaVuSans-61" x="114.550781"/>
       <use xlink:href="#DejaVuSans-73" x="175.830078"/>
       <use xlink:href="#DejaVuSans-73" x="227.929688"/>
       <use xlink:href="#DejaVuSans-69" x="280.029297"/>
       <use xlink:href="#DejaVuSans-66" x="307.8125"/>
       <use xlink:href="#DejaVuSans-69" x="343.017578"/>
       <use xlink:href="#DejaVuSans-65" x="370.800781"/>
       <use xlink:href="#DejaVuSans-72" x="432.324219"/>
      </g>
     </g>
    </g>
    <g id="xtick_4">
     <g id="line2d_4">
      <g>
       <use xlink:href="#m4bd1653305" x="330.177062" y="303.896" style="stroke: #000000; stroke-width: 0.8"/>
      </g>
     </g>
     <g id="text_4">
      <!-- Structural -->
      <g transform="translate(305.43175 318.494438) scale(0.1 -0.1)">
       <use xlink:href="#DejaVuSans-53"/>
       <use xlink:href="#DejaVuSans-74" x="63.476562"/>
       <use xlink:href="#DejaVuSans-72" x="102.685547"/>
       <use xlink:href="#DejaVuSans-75" x="143.798828"/>
       <use xlink:href="#DejaVuSans-63" x="207.177734"/>
       <use xlink:href="#DejaVuSans-74" x="262.158203"/>
       <use xlink:href="#DejaVuSans-75" x="301.367188"/>
       <use xlink:href="#DejaVuSans-72" x="364.746094"/>
       <use xlink:href="#DejaVuSans-61" x="405.859375"/>
       <use xlink:href="#DejaVuSans-6c" x="467.138672"/>
      </g>
      <!--  classifier -->
      <g transform="translate(306.505969 329.69225) scale(0.1 -0.1)">
       <use xlink:href="#DejaVuSans-20"/>
       <use xlink:href="#DejaVuSans-63" x="31.787109"/>
       <use xlink:href="#DejaVuSans-6c" x="86.767578"/>
       <use xlink:href="#DejaVuSans-61" x="114.550781"/>
       <use xlink:href="#DejaVuSans-73" x="175.830078"/>
       <use xlink:href="#DejaVuSans-73" x="227.929688"/>
       <use xlink:href="#DejaVuSans-69" x="280.029297"/>
       <use xlink:href="#DejaVuSans-66" x="307.8125"/>
       <use xlink:href="#DejaVuSans-69" x="343.017578"/>
       <use xlink:href="#DejaVuSans-65" x="370.800781"/>
       <use xlink:href="#DejaVuSans-72" x="432.324219"/>
      </g>
     </g>
    </g>
    <g id="xtick_5">
     <g id="line2d_5">
      <g>
       <use xlink:href="#m4bd1653305" x="407.382683" y="303.896" style="stroke: #000000; stroke-width: 0.8"/>
      </g>
     </g>
     <g id="text_5">
      <!-- Functional -->
      <g transform="translate(381.664714 318.494438) scale(0.1 -0.1)">
       <defs>
        <path id="DejaVuSans-6f" d="M 1959 3097 
Q 1497 3097 1228 2736 
Q 959 2375 959 1747 
Q 959 1119 1226 758 
Q 1494 397 1959 397 
Q 2419 397 2687 759 
Q 2956 1122 2956 1747 
Q 2956 2369 2687 2733 
Q 2419 3097 1959 3097 
z
M 1959 3584 
Q 2709 3584 3137 3096 
Q 3566 2609 3566 1747 
Q 3566 888 3137 398 
Q 2709 -91 1959 -91 
Q 1206 -91 779 398 
Q 353 888 353 1747 
Q 353 2609 779 3096 
Q 1206 3584 1959 3584 
z
" transform="scale(0.015625)"/>
       </defs>
       <use xlink:href="#DejaVuSans-46"/>
       <use xlink:href="#DejaVuSans-75" x="52.019531"/>
       <use xlink:href="#DejaVuSans-6e" x="115.398438"/>
       <use xlink:href="#DejaVuSans-63" x="178.777344"/>
       <use xlink:href="#DejaVuSans-74" x="233.757812"/>
       <use xlink:href="#DejaVuSans-69" x="272.966797"/>
       <use xlink:href="#DejaVuSans-6f" x="300.75"/>
       <use xlink:href="#DejaVuSans-6e" x="361.931641"/>
       <use xlink:href="#DejaVuSans-61" x="425.310547"/>
       <use xlink:href="#DejaVuSans-6c" x="486.589844"/>
      </g>
      <!--  classifier -->
      <g transform="translate(383.711589 329.69225) scale(0.1 -0.1)">
       <use xlink:href="#DejaVuSans-20"/>
       <use xlink:href="#DejaVuSans-63" x="31.787109"/>
       <use xlink:href="#DejaVuSans-6c" x="86.767578"/>
       <use xlink:href="#DejaVuSans-61" x="114.550781"/>
       <use xlink:href="#DejaVuSans-73" x="175.830078"/>
       <use xlink:href="#DejaVuSans-73" x="227.929688"/>
       <use xlink:href="#DejaVuSans-69" x="280.029297"/>
       <use xlink:href="#DejaVuSans-66" x="307.8125"/>
       <use xlink:href="#DejaVuSans-69" x="343.017578"/>
       <use xlink:href="#DejaVuSans-65" x="370.800781"/>
       <use xlink:href="#DejaVuSans-72" x="432.324219"/>
      </g>
     </g>
    </g>
   </g>
   <g id="matplotlib.axis_2">
    <g id="ytick_1">
     <g id="line2d_6">
      <defs>
       <path id="ma94a5b92fc" d="M 0 0 
L -3.5 0 
" style="stroke: #000000; stroke-width: 0.8"/>
      </defs>
      <g>
       <use xlink:href="#ma94a5b92fc" x="52.76" y="298.085709" style="stroke: #000000; stroke-width: 0.8"/>
      </g>
     </g>
     <g id="text_6">
      <!-- 0.3 -->
      <g transform="translate(29.856875 301.884928) scale(0.1 -0.1)">
       <defs>
        <path id="DejaVuSans-30" d="M 2034 4250 
Q 1547 4250 1301 3770 
Q 1056 3291 1056 2328 
Q 1056 1369 1301 889 
Q 1547 409 2034 409 
Q 2525 409 2770 889 
Q 3016 1369 3016 2328 
Q 3016 3291 2770 3770 
Q 2525 4250 2034 4250 
z
M 2034 4750 
Q 2819 4750 3233 4129 
Q 3647 3509 3647 2328 
Q 3647 1150 3233 529 
Q 2819 -91 2034 -91 
Q 1250 -91 836 529 
Q 422 1150 422 2328 
Q 422 3509 836 4129 
Q 1250 4750 2034 4750 
z
" transform="scale(0.015625)"/>
        <path id="DejaVuSans-2e" d="M 684 794 
L 1344 794 
L 1344 0 
L 684 0 
L 684 794 
z
" transform="scale(0.015625)"/>
        <path id="DejaVuSans-33" d="M 2597 2516 
Q 3050 2419 3304 2112 
Q 3559 1806 3559 1356 
Q 3559 666 3084 287 
Q 2609 -91 1734 -91 
Q 1441 -91 1130 -33 
Q 819 25 488 141 
L 488 750 
Q 750 597 1062 519 
Q 1375 441 1716 441 
Q 2309 441 2620 675 
Q 2931 909 2931 1356 
Q 2931 1769 2642 2001 
Q 2353 2234 1838 2234 
L 1294 2234 
L 1294 2753 
L 1863 2753 
Q 2328 2753 2575 2939 
Q 2822 3125 2822 3475 
Q 2822 3834 2567 4026 
Q 2313 4219 1838 4219 
Q 1578 4219 1281 4162 
Q 984 4106 628 3988 
L 628 4550 
Q 988 4650 1302 4700 
Q 1616 4750 1894 4750 
Q 2613 4750 3031 4423 
Q 3450 4097 3450 3541 
Q 3450 3153 3228 2886 
Q 3006 2619 2597 2516 
z
" transform="scale(0.015625)"/>
       </defs>
       <use xlink:href="#DejaVuSans-30"/>
       <use xlink:href="#DejaVuSans-2e" x="63.623047"/>
       <use xlink:href="#DejaVuSans-33" x="95.410156"/>
      </g>
     </g>
    </g>
    <g id="ytick_2">
     <g id="line2d_7">
      <g>
       <use xlink:href="#ma94a5b92fc" x="52.76" y="258.188103" style="stroke: #000000; stroke-width: 0.8"/>
      </g>
     </g>
     <g id="text_7">
      <!-- 0.4 -->
      <g transform="translate(29.856875 261.987322) scale(0.1 -0.1)">
       <defs>
        <path id="DejaVuSans-34" d="M 2419 4116 
L 825 1625 
L 2419 1625 
L 2419 4116 
z
M 2253 4666 
L 3047 4666 
L 3047 1625 
L 3713 1625 
L 3713 1100 
L 3047 1100 
L 3047 0 
L 2419 0 
L 2419 1100 
L 313 1100 
L 313 1709 
L 2253 4666 
z
" transform="scale(0.015625)"/>
       </defs>
       <use xlink:href="#DejaVuSans-30"/>
       <use xlink:href="#DejaVuSans-2e" x="63.623047"/>
       <use xlink:href="#DejaVuSans-34" x="95.410156"/>
      </g>
     </g>
    </g>
    <g id="ytick_3">
     <g id="line2d_8">
      <g>
       <use xlink:href="#ma94a5b92fc" x="52.76" y="218.290497" style="stroke: #000000; stroke-width: 0.8"/>
      </g>
     </g>
     <g id="text_8">
      <!-- 0.5 -->
      <g transform="translate(29.856875 222.089715) scale(0.1 -0.1)">
       <defs>
        <path id="DejaVuSans-35" d="M 691 4666 
L 3169 4666 
L 3169 4134 
L 1269 4134 
L 1269 2991 
Q 1406 3038 1543 3061 
Q 1681 3084 1819 3084 
Q 2600 3084 3056 2656 
Q 3513 2228 3513 1497 
Q 3513 744 3044 326 
Q 2575 -91 1722 -91 
Q 1428 -91 1123 -41 
Q 819 9 494 109 
L 494 744 
Q 775 591 1075 516 
Q 1375 441 1709 441 
Q 2250 441 2565 725 
Q 2881 1009 2881 1497 
Q 2881 1984 2565 2268 
Q 2250 2553 1709 2553 
Q 1456 2553 1204 2497 
Q 953 2441 691 2322 
L 691 4666 
z
" transform="scale(0.015625)"/>
       </defs>
       <use xlink:href="#DejaVuSans-30"/>
       <use xlink:href="#DejaVuSans-2e" x="63.623047"/>
       <use xlink:href="#DejaVuSans-35" x="95.410156"/>
      </g>
     </g>
    </g>
    <g id="ytick_4">
     <g id="line2d_9">
      <g>
       <use xlink:href="#ma94a5b92fc" x="52.76" y="178.392891" style="stroke: #000000; stroke-width: 0.8"/>
      </g>
     </g>
     <g id="text_9">
      <!-- 0.6 -->
      <g transform="translate(29.856875 182.192109) scale(0.1 -0.1)">
       <defs>
        <path id="DejaVuSans-36" d="M 2113 2584 
Q 1688 2584 1439 2293 
Q 1191 2003 1191 1497 
Q 1191 994 1439 701 
Q 1688 409 2113 409 
Q 2538 409 2786 701 
Q 3034 994 3034 1497 
Q 3034 2003 2786 2293 
Q 2538 2584 2113 2584 
z
M 3366 4563 
L 3366 3988 
Q 3128 4100 2886 4159 
Q 2644 4219 2406 4219 
Q 1781 4219 1451 3797 
Q 1122 3375 1075 2522 
Q 1259 2794 1537 2939 
Q 1816 3084 2150 3084 
Q 2853 3084 3261 2657 
Q 3669 2231 3669 1497 
Q 3669 778 3244 343 
Q 2819 -91 2113 -91 
Q 1303 -91 875 529 
Q 447 1150 447 2328 
Q 447 3434 972 4092 
Q 1497 4750 2381 4750 
Q 2619 4750 2861 4703 
Q 3103 4656 3366 4563 
z
" transform="scale(0.015625)"/>
       </defs>
       <use xlink:href="#DejaVuSans-30"/>
       <use xlink:href="#DejaVuSans-2e" x="63.623047"/>
       <use xlink:href="#DejaVuSans-36" x="95.410156"/>
      </g>
     </g>
    </g>
    <g id="ytick_5">
     <g id="line2d_10">
      <g>
       <use xlink:href="#ma94a5b92fc" x="52.76" y="138.495285" style="stroke: #000000; stroke-width: 0.8"/>
      </g>
     </g>
     <g id="text_10">
      <!-- 0.7 -->
      <g transform="translate(29.856875 142.294503) scale(0.1 -0.1)">
       <defs>
        <path id="DejaVuSans-37" d="M 525 4666 
L 3525 4666 
L 3525 4397 
L 1831 0 
L 1172 0 
L 2766 4134 
L 525 4134 
L 525 4666 
z
" transform="scale(0.015625)"/>
       </defs>
       <use xlink:href="#DejaVuSans-30"/>
       <use xlink:href="#DejaVuSans-2e" x="63.623047"/>
       <use xlink:href="#DejaVuSans-37" x="95.410156"/>
      </g>
     </g>
    </g>
    <g id="ytick_6">
     <g id="line2d_11">
      <g>
       <use xlink:href="#ma94a5b92fc" x="52.76" y="98.597679" style="stroke: #000000; stroke-width: 0.8"/>
      </g>
     </g>
     <g id="text_11">
      <!-- 0.8 -->
      <g transform="translate(29.856875 102.396897) scale(0.1 -0.1)">
       <defs>
        <path id="DejaVuSans-38" d="M 2034 2216 
Q 1584 2216 1326 1975 
Q 1069 1734 1069 1313 
Q 1069 891 1326 650 
Q 1584 409 2034 409 
Q 2484 409 2743 651 
Q 3003 894 3003 1313 
Q 3003 1734 2745 1975 
Q 2488 2216 2034 2216 
z
M 1403 2484 
Q 997 2584 770 2862 
Q 544 3141 544 3541 
Q 544 4100 942 4425 
Q 1341 4750 2034 4750 
Q 2731 4750 3128 4425 
Q 3525 4100 3525 3541 
Q 3525 3141 3298 2862 
Q 3072 2584 2669 2484 
Q 3125 2378 3379 2068 
Q 3634 1759 3634 1313 
Q 3634 634 3220 271 
Q 2806 -91 2034 -91 
Q 1263 -91 848 271 
Q 434 634 434 1313 
Q 434 1759 690 2068 
Q 947 2378 1403 2484 
z
M 1172 3481 
Q 1172 3119 1398 2916 
Q 1625 2713 2034 2713 
Q 2441 2713 2670 2916 
Q 2900 3119 2900 3481 
Q 2900 3844 2670 4047 
Q 2441 4250 2034 4250 
Q 1625 4250 1398 4047 
Q 1172 3844 1172 3481 
z
" transform="scale(0.015625)"/>
       </defs>
       <use xlink:href="#DejaVuSans-30"/>
       <use xlink:href="#DejaVuSans-2e" x="63.623047"/>
       <use xlink:href="#DejaVuSans-38" x="95.410156"/>
      </g>
     </g>
    </g>
    <g id="ytick_7">
     <g id="line2d_12">
      <g>
       <use xlink:href="#ma94a5b92fc" x="52.76" y="58.700072" style="stroke: #000000; stroke-width: 0.8"/>
      </g>
     </g>
     <g id="text_12">
      <!-- 0.9 -->
      <g transform="translate(29.856875 62.499291) scale(0.1 -0.1)">
       <defs>
        <path id="DejaVuSans-39" d="M 703 97 
L 703 672 
Q 941 559 1184 500 
Q 1428 441 1663 441 
Q 2288 441 2617 861 
Q 2947 1281 2994 2138 
Q 2813 1869 2534 1725 
Q 2256 1581 1919 1581 
Q 1219 1581 811 2004 
Q 403 2428 403 3163 
Q 403 3881 828 4315 
Q 1253 4750 1959 4750 
Q 2769 4750 3195 4129 
Q 3622 3509 3622 2328 
Q 3622 1225 3098 567 
Q 2575 -91 1691 -91 
Q 1453 -91 1209 -44 
Q 966 3 703 97 
z
M 1959 2075 
Q 2384 2075 2632 2365 
Q 2881 2656 2881 3163 
Q 2881 3666 2632 3958 
Q 2384 4250 1959 4250 
Q 1534 4250 1286 3958 
Q 1038 3666 1038 3163 
Q 1038 2656 1286 2365 
Q 1534 2075 1959 2075 
z
" transform="scale(0.015625)"/>
       </defs>
       <use xlink:href="#DejaVuSans-30"/>
       <use xlink:href="#DejaVuSans-2e" x="63.623047"/>
       <use xlink:href="#DejaVuSans-39" x="95.410156"/>
      </g>
     </g>
    </g>
    <g id="ytick_8">
     <g id="line2d_13">
      <g>
       <use xlink:href="#ma94a5b92fc" x="52.76" y="18.802466" style="stroke: #000000; stroke-width: 0.8"/>
      </g>
     </g>
     <g id="text_13">
      <!-- 1.0 -->
      <g transform="translate(29.856875 22.601685) scale(0.1 -0.1)">
       <defs>
        <path id="DejaVuSans-31" d="M 794 531 
L 1825 531 
L 1825 4091 
L 703 3866 
L 703 4441 
L 1819 4666 
L 2450 4666 
L 2450 531 
L 3481 531 
L 3481 0 
L 794 0 
L 794 531 
z
" transform="scale(0.015625)"/>
       </defs>
       <use xlink:href="#DejaVuSans-31"/>
       <use xlink:href="#DejaVuSans-2e" x="63.623047"/>
       <use xlink:href="#DejaVuSans-30" x="95.410156"/>
      </g>
     </g>
    </g>
    <g id="text_14">
     <!-- RECALL -->
     <g transform="translate(23.36125 181.368625) rotate(-90) scale(0.12 -0.12)">
      <defs>
       <path id="DejaVuSans-52" d="M 2841 2188 
Q 3044 2119 3236 1894 
Q 3428 1669 3622 1275 
L 4263 0 
L 3584 0 
L 2988 1197 
Q 2756 1666 2539 1819 
Q 2322 1972 1947 1972 
L 1259 1972 
L 1259 0 
L 628 0 
L 628 4666 
L 2053 4666 
Q 2853 4666 3247 4331 
Q 3641 3997 3641 3322 
Q 3641 2881 3436 2590 
Q 3231 2300 2841 2188 
z
M 1259 4147 
L 1259 2491 
L 2053 2491 
Q 2509 2491 2742 2702 
Q 2975 2913 2975 3322 
Q 2975 3731 2742 3939 
Q 2509 4147 2053 4147 
L 1259 4147 
z
" transform="scale(0.015625)"/>
       <path id="DejaVuSans-43" d="M 4122 4306 
L 4122 3641 
Q 3803 3938 3442 4084 
Q 3081 4231 2675 4231 
Q 1875 4231 1450 3742 
Q 1025 3253 1025 2328 
Q 1025 1406 1450 917 
Q 1875 428 2675 428 
Q 3081 428 3442 575 
Q 3803 722 4122 1019 
L 4122 359 
Q 3791 134 3420 21 
Q 3050 -91 2638 -91 
Q 1578 -91 968 557 
Q 359 1206 359 2328 
Q 359 3453 968 4101 
Q 1578 4750 2638 4750 
Q 3056 4750 3426 4639 
Q 3797 4528 4122 4306 
z
" transform="scale(0.015625)"/>
       <path id="DejaVuSans-41" d="M 2188 4044 
L 1331 1722 
L 3047 1722 
L 2188 4044 
z
M 1831 4666 
L 2547 4666 
L 4325 0 
L 3669 0 
L 3244 1197 
L 1141 1197 
L 716 0 
L 50 0 
L 1831 4666 
z
" transform="scale(0.015625)"/>
       <path id="DejaVuSans-4c" d="M 628 4666 
L 1259 4666 
L 1259 531 
L 3531 531 
L 3531 0 
L 628 0 
L 628 4666 
z
" transform="scale(0.015625)"/>
      </defs>
      <use xlink:href="#DejaVuSans-52"/>
      <use xlink:href="#DejaVuSans-45" x="69.482422"/>
      <use xlink:href="#DejaVuSans-43" x="132.666016"/>
      <use xlink:href="#DejaVuSans-41" x="202.490234"/>
      <use xlink:href="#DejaVuSans-4c" x="270.898438"/>
      <use xlink:href="#DejaVuSans-4c" x="326.611328"/>
     </g>
    </g>
   </g>
   <g id="LineCollection_1">
    <path d="M 98.560201 185.199422 
L 98.560201 91.946748 
" clip-path="url(#p5a28ac96e1)" style="fill: none; stroke: #000000; stroke-width: 1.5"/>
    <path d="M 175.765822 203.352833 
L 175.765822 105.07705 
" clip-path="url(#p5a28ac96e1)" style="fill: none; stroke: #000000; stroke-width: 1.5"/>
    <path d="M 252.971442 196.131366 
L 252.971442 87.155045 
" clip-path="url(#p5a28ac96e1)" style="fill: none; stroke: #000000; stroke-width: 1.5"/>
    <path d="M 330.177062 137.23452 
L 330.177062 52.998705 
" clip-path="url(#p5a28ac96e1)" style="fill: none; stroke: #000000; stroke-width: 1.5"/>
    <path d="M 407.382683 240.884511 
L 407.382683 137.023063 
" clip-path="url(#p5a28ac96e1)" style="fill: none; stroke: #000000; stroke-width: 1.5"/>
   </g>
   <g id="line2d_14">
    <defs>
     <path id="me6e9712715" d="M 5 0 
L -5 -0 
" style="stroke: #000000"/>
    </defs>
    <g clip-path="url(#p5a28ac96e1)">
     <use xlink:href="#me6e9712715" x="98.560201" y="185.199422" style="stroke: #000000"/>
     <use xlink:href="#me6e9712715" x="175.765822" y="203.352833" style="stroke: #000000"/>
     <use xlink:href="#me6e9712715" x="252.971442" y="196.131366" style="stroke: #000000"/>
     <use xlink:href="#me6e9712715" x="330.177062" y="137.23452" style="stroke: #000000"/>
     <use xlink:href="#me6e9712715" x="407.382683" y="240.884511" style="stroke: #000000"/>
    </g>
   </g>
   <g id="line2d_15">
    <g clip-path="url(#p5a28ac96e1)">
     <use xlink:href="#me6e9712715" x="98.560201" y="91.946748" style="stroke: #000000"/>
     <use xlink:href="#me6e9712715" x="175.765822" y="105.07705" style="stroke: #000000"/>
     <use xlink:href="#me6e9712715" x="252.971442" y="87.155045" style="stroke: #000000"/>
     <use xlink:href="#me6e9712715" x="330.177062" y="52.998705" style="stroke: #000000"/>
     <use xlink:href="#me6e9712715" x="407.382683" y="137.023063" style="stroke: #000000"/>
    </g>
   </g>
   <g id="line2d_16">
    <defs>
     <path id="m9fef9f611a" d="M 0 5.656854 
L 5.656854 0 
L 0 -5.656854 
L -5.656854 0 
z
" style="stroke: #000000; stroke-linejoin: miter"/>
    </defs>
    <g clip-path="url(#p5a28ac96e1)">
     <use xlink:href="#m9fef9f611a" x="98.560201" y="131.2419" style="stroke: #000000; stroke-linejoin: miter"/>
     <use xlink:href="#m9fef9f611a" x="175.765822" y="149.375362" style="stroke: #000000; stroke-linejoin: miter"/>
     <use xlink:href="#m9fef9f611a" x="252.971442" y="131.2419" style="stroke: #000000; stroke-linejoin: miter"/>
     <use xlink:href="#m9fef9f611a" x="330.177062" y="86.508704" style="stroke: #000000; stroke-linejoin: miter"/>
     <use xlink:href="#m9fef9f611a" x="407.382683" y="191.690763" style="stroke: #000000; stroke-linejoin: miter"/>
    </g>
   </g>
   <g id="patch_3">
    <path d="M 52.76 303.896 
L 52.76 12.96 
" style="fill: none; stroke: #000000; stroke-width: 0.8; stroke-linejoin: miter; stroke-linecap: square"/>
   </g>
   <g id="patch_4">
    <path d="M 447.84 303.896 
L 447.84 12.96 
" style="fill: none; stroke: #000000; stroke-width: 0.8; stroke-linejoin: miter; stroke-linecap: square"/>
   </g>
   <g id="patch_5">
    <path d="M 52.76 303.896 
L 447.84 303.896 
" style="fill: none; stroke: #000000; stroke-width: 0.8; stroke-linejoin: miter; stroke-linecap: square"/>
   </g>
   <g id="patch_6">
    <path d="M 52.76 12.96 
L 447.84 12.96 
" style="fill: none; stroke: #000000; stroke-width: 0.8; stroke-linejoin: miter; stroke-linecap: square"/>
   </g>
  </g>
 </g>
 <defs>
  <clipPath id="p5a28ac96e1">
   <rect x="52.76" y="12.96" width="395.08" height="290.936"/>
  </clipPath>
 </defs>
</svg>
