<?xml version="1.0" encoding="utf-8" standalone="no"?>
<!DOCTYPE svg PUBLIC "-//W3C//DTD SVG 1.1//EN"
  "http://www.w3.org/Graphics/SVG/1.1/DTD/svg11.dtd">
<svg xmlns:xlink="http://www.w3.org/1999/xlink" width="460.8pt" height="345.6pt" viewBox="0 0 460.8 345.6" xmlns="http://www.w3.org/2000/svg" version="1.1">
 <metadata>
  <rdf:RDF xmlns:dc="http://purl.org/dc/elements/1.1/" xmlns:cc="http://creativecommons.org/ns#" xmlns:rdf="http://www.w3.org/1999/02/22-rdf-syntax-ns#">
   <cc:Work>
    <dc:type rdf:resource="http://purl.org/dc/dcmitype/StillImage"/>
    <dc:date>2025-09-22T14:38:26.562901</dc:date>
    <dc:format>image/svg+xml</dc:format>
    <dc:creator>
     <cc:Agent>
      <dc:title>Matplotlib v3.9.4, https://matplotlib.org/</dc:title>
     </cc:Agent>
    </dc:creator>
   </cc:Work>
  </rdf:RDF>
 </metadata>
 <defs>
  <style type="text/css">*{stroke-linejoin: round; stroke-linecap: butt}</style>
 </defs>
 <g id="figure_1">
  <g id="patch_1">
   <path d="M 0 345.6 
L 460.8 345.6 
L 460.8 0 
L 0 0 
z
" style="fill: #ffffff"/>
  </g>
  <g id="axes_1">
   <g id="patch_2">
    <path d="M 52.76 303.896 
L 447.84 303.896 
L 447.84 12.96 
L 52.76 12.96 
z
" style="fill: #ffffff"/>
   </g>
   <g id="PolyCollection_1">
    <defs>
     <path id="m9acffa7d50" d="M 100.30078 -140.176218 
L 100.263795 -140.176218 
L 100.249512 -141.569883 
L 100.228076 -142.963547 
L 100.198258 -144.357211 
L 100.1596 -145.750875 
L 100.112507 -147.14454 
L 100.058005 -148.538204 
L 99.997178 -149.931868 
L 99.930472 -151.325533 
L 99.857048 -152.719197 
L 99.774442 -154.112861 
L 99.678855 -155.506526 
L 99.566403 -156.90019 
L 99.435308 -158.293854 
L 99.288243 -159.687519 
L 99.133322 -161.081183 
L 98.98232 -162.474847 
L 98.84605 -163.868512 
L 98.728777 -165.262176 
L 98.624662 -166.65584 
L 98.518603 -168.049504 
L 98.391415 -169.443169 
L 98.226798 -170.836833 
L 98.016497 -172.230497 
L 97.761139 -173.624162 
L 97.466688 -175.017826 
L 97.13879 -176.41149 
L 96.778071 -177.805155 
L 96.378412 -179.198819 
L 95.92826 -180.592483 
L 95.413419 -181.986148 
L 94.819526 -183.379812 
L 94.133509 -184.773476 
L 93.34458 -186.167141 
L 92.445602 -187.560805 
L 91.434823 -188.954469 
L 90.317009 -190.348134 
L 89.103118 -191.741798 
L 87.809065 -193.135462 
L 86.455186 -194.529126 
L 85.06734 -195.922791 
L 83.678112 -197.316455 
L 82.32484 -198.710119 
L 81.042517 -200.103784 
L 79.853869 -201.497448 
L 78.762478 -202.891112 
L 77.754024 -204.284777 
L 76.805486 -205.678441 
L 75.896622 -207.072105 
L 75.017234 -208.46577 
L 74.168116 -209.859434 
L 73.358869 -211.253098 
L 72.606897 -212.646763 
L 71.938178 -214.040427 
L 71.386248 -215.434091 
L 70.985757 -216.827755 
L 70.761446 -218.22142 
L 70.718182 -219.615084 
L 70.838475 -221.008748 
L 71.089987 -222.402413 
L 71.439703 -223.796077 
L 71.86765 -225.189741 
L 72.373269 -226.583406 
L 72.9716 -227.97707 
L 73.682031 -229.370734 
L 74.516304 -230.764399 
L 75.472324 -232.158063 
L 76.536202 -233.551727 
L 77.689626 -234.945392 
L 78.916935 -236.339056 
L 80.207564 -237.73272 
L 81.553331 -239.126385 
L 82.943369 -240.520049 
L 84.360201 -241.913713 
L 85.779034 -243.307377 
L 87.170244 -244.701042 
L 88.503674 -246.094706 
L 89.753199 -247.48837 
L 90.900495 -248.882035 
L 91.937614 -250.275699 
L 92.868197 -251.669363 
L 93.706882 -253.063028 
L 94.476155 -254.456692 
L 95.200318 -255.850356 
L 95.897739 -257.244021 
L 96.574325 -258.637685 
L 97.221551 -260.031349 
L 97.820563 -261.425014 
L 98.35061 -262.818678 
L 98.797633 -264.212342 
L 99.15894 -265.606006 
L 99.442443 -266.999671 
L 99.662001 -268.393335 
L 99.832014 -269.786999 
L 99.9639 -271.180664 
L 100.065296 -272.574328 
L 100.141173 -273.967992 
L 100.195453 -275.361657 
L 100.232053 -276.755321 
L 100.255095 -278.148985 
L 100.30948 -278.148985 
L 100.30948 -278.148985 
L 100.332523 -276.755321 
L 100.369123 -275.361657 
L 100.423402 -273.967992 
L 100.49928 -272.574328 
L 100.600675 -271.180664 
L 100.732562 -269.786999 
L 100.902575 -268.393335 
L 101.122133 -266.999671 
L 101.405635 -265.606006 
L 101.766942 -264.212342 
L 102.213966 -262.818678 
L 102.744013 -261.425014 
L 103.343024 -260.031349 
L 103.99025 -258.637685 
L 104.666836 -257.244021 
L 105.364257 -255.850356 
L 106.08842 -254.456692 
L 106.857693 -253.063028 
L 107.696378 -251.669363 
L 108.626961 -250.275699 
L 109.664081 -248.882035 
L 110.811377 -247.48837 
L 112.060902 -246.094706 
L 113.394331 -244.701042 
L 114.785541 -243.307377 
L 116.204375 -241.913713 
L 117.621207 -240.520049 
L 119.011245 -239.126385 
L 120.357012 -237.73272 
L 121.64764 -236.339056 
L 122.87495 -234.945392 
L 124.028373 -233.551727 
L 125.092251 -232.158063 
L 126.048272 -230.764399 
L 126.882544 -229.370734 
L 127.592976 -227.97707 
L 128.191307 -226.583406 
L 128.696925 -225.189741 
L 129.124872 -223.796077 
L 129.474588 -222.402413 
L 129.7261 -221.008748 
L 129.846394 -219.615084 
L 129.803129 -218.22142 
L 129.578819 -216.827755 
L 129.178328 -215.434091 
L 128.626398 -214.040427 
L 127.957679 -212.646763 
L 127.205706 -211.253098 
L 126.39646 -209.859434 
L 125.547341 -208.46577 
L 124.667954 -207.072105 
L 123.75909 -205.678441 
L 122.810552 -204.284777 
L 121.802098 -202.891112 
L 120.710706 -201.497448 
L 119.522059 -200.103784 
L 118.239736 -198.710119 
L 116.886463 -197.316455 
L 115.497235 -195.922791 
L 114.10939 -194.529126 
L 112.755511 -193.135462 
L 111.461457 -191.741798 
L 110.247567 -190.348134 
L 109.129752 -188.954469 
L 108.118974 -187.560805 
L 107.219995 -186.167141 
L 106.431066 -184.773476 
L 105.745049 -183.379812 
L 105.151156 -181.986148 
L 104.636316 -180.592483 
L 104.186164 -179.198819 
L 103.786504 -177.805155 
L 103.425785 -176.41149 
L 103.097888 -175.017826 
L 102.803436 -173.624162 
L 102.548078 -172.230497 
L 102.337778 -170.836833 
L 102.17316 -169.443169 
L 102.045972 -168.049504 
L 101.939914 -166.65584 
L 101.835799 -165.262176 
L 101.718525 -163.868512 
L 101.582256 -162.474847 
L 101.431253 -161.081183 
L 101.276332 -159.687519 
L 101.129268 -158.293854 
L 100.998172 -156.90019 
L 100.88572 -155.506526 
L 100.790134 -154.112861 
L 100.707528 -152.719197 
L 100.634103 -151.325533 
L 100.567397 -149.931868 
L 100.50657 -148.538204 
L 100.452068 -147.14454 
L 100.404976 -145.750875 
L 100.366317 -144.357211 
L 100.3365 -142.963547 
L 100.315063 -141.569883 
L 100.30078 -140.176218 
z
" style="stroke: #3f3f3f; stroke-width: 1.25"/>
    </defs>
    <g clip-path="url(#p06a2139dd9)">
     <use xlink:href="#m9acffa7d50" x="0" y="345.6" style="fill: #3274a1; stroke: #3f3f3f; stroke-width: 1.25"/>
    </g>
   </g>
   <g id="PolyCollection_2">
    <defs>
     <path id="m89e2b10ec4" d="M 176.243513 -161.356605 
L 176.176069 -161.356605 
L 176.152074 -162.757838 
L 176.117672 -164.159072 
L 176.072273 -165.560305 
L 176.016942 -166.961538 
L 175.95416 -168.362772 
L 175.886744 -169.764005 
L 175.816228 -171.165239 
L 175.741438 -172.566472 
L 175.658111 -173.967706 
L 175.559958 -175.368939 
L 175.440834 -176.770172 
L 175.296984 -178.171406 
L 175.128207 -179.572639 
L 174.93733 -180.973873 
L 174.728392 -182.375106 
L 174.504728 -183.776339 
L 174.26823 -185.177573 
L 174.020081 -186.578806 
L 173.762002 -187.98004 
L 173.496252 -189.381273 
L 173.223231 -190.782507 
L 172.937253 -192.18374 
L 172.622881 -193.584973 
L 172.254679 -194.986207 
L 171.801924 -196.38744 
L 171.237193 -197.788674 
L 170.545323 -199.189907 
L 169.728448 -200.59114 
L 168.804226 -201.992374 
L 167.797628 -203.393607 
L 166.730136 -204.794841 
L 165.612051 -206.196074 
L 164.442386 -207.597308 
L 163.216852 -208.998541 
L 161.939726 -210.399774 
L 160.632803 -211.801008 
L 159.335854 -213.202241 
L 158.097427 -214.603475 
L 156.959988 -216.004708 
L 155.946322 -217.405941 
L 155.05351 -218.807175 
L 154.257099 -220.208408 
L 153.52335 -221.609642 
L 152.823986 -223.010875 
L 152.146995 -224.412109 
L 151.499098 -225.813342 
L 150.899343 -227.214575 
L 150.367274 -228.615809 
L 149.911544 -230.017042 
L 149.524709 -231.418276 
L 149.187249 -232.819509 
L 148.879682 -234.220742 
L 148.597555 -235.621976 
L 148.361841 -237.023209 
L 148.218403 -238.424443 
L 148.22476 -239.825676 
L 148.42901 -241.22691 
L 148.850779 -242.628143 
L 149.474118 -244.029376 
L 150.256248 -245.43061 
L 151.147233 -246.831843 
L 152.109464 -248.233077 
L 153.126592 -249.63431 
L 154.198598 -251.035544 
L 155.328147 -252.436777 
L 156.507745 -253.83801 
L 157.715267 -255.239244 
L 158.9195 -256.640477 
L 160.091612 -258.041711 
L 161.216032 -259.442944 
L 162.295387 -260.844177 
L 163.347406 -262.245411 
L 164.39526 -263.646644 
L 165.455507 -265.047878 
L 166.528871 -266.449111 
L 167.597909 -267.850345 
L 168.632413 -269.251578 
L 169.599665 -270.652811 
L 170.474534 -272.054045 
L 171.245158 -273.455278 
L 171.912911 -274.856512 
L 172.488345 -276.257745 
L 172.986057 -277.658978 
L 173.420666 -279.060212 
L 173.804563 -280.461445 
L 174.147055 -281.862679 
L 174.454362 -283.263912 
L 174.730215 -284.665146 
L 174.976864 -286.066379 
L 175.196136 -287.467612 
L 175.390025 -288.868846 
L 175.560591 -290.270079 
L 175.709395 -291.671313 
L 175.837083 -293.072546 
L 175.943554 -294.473779 
L 176.028691 -295.875013 
L 176.093214 -297.276246 
L 176.139139 -298.67748 
L 176.169639 -300.078713 
L 176.249943 -300.078713 
L 176.249943 -300.078713 
L 176.280443 -298.67748 
L 176.326368 -297.276246 
L 176.390891 -295.875013 
L 176.476028 -294.473779 
L 176.582498 -293.072546 
L 176.710186 -291.671313 
L 176.85899 -290.270079 
L 177.029556 -288.868846 
L 177.223446 -287.467612 
L 177.442717 -286.066379 
L 177.689367 -284.665146 
L 177.96522 -283.263912 
L 178.272527 -281.862679 
L 178.615018 -280.461445 
L 178.998915 -279.060212 
L 179.433524 -277.658978 
L 179.931237 -276.257745 
L 180.506671 -274.856512 
L 181.174423 -273.455278 
L 181.945048 -272.054045 
L 182.819917 -270.652811 
L 183.787168 -269.251578 
L 184.821672 -267.850345 
L 185.890711 -266.449111 
L 186.964075 -265.047878 
L 188.024321 -263.646644 
L 189.072175 -262.245411 
L 190.124195 -260.844177 
L 191.203549 -259.442944 
L 192.327969 -258.041711 
L 193.500082 -256.640477 
L 194.704314 -255.239244 
L 195.911836 -253.83801 
L 197.091435 -252.436777 
L 198.220984 -251.035544 
L 199.292989 -249.63431 
L 200.310117 -248.233077 
L 201.272348 -246.831843 
L 202.163334 -245.43061 
L 202.945464 -244.029376 
L 203.568803 -242.628143 
L 203.990572 -241.22691 
L 204.194821 -239.825676 
L 204.201178 -238.424443 
L 204.05774 -237.023209 
L 203.822027 -235.621976 
L 203.539899 -234.220742 
L 203.232333 -232.819509 
L 202.894872 -231.418276 
L 202.508038 -230.017042 
L 202.052308 -228.615809 
L 201.520238 -227.214575 
L 200.920483 -225.813342 
L 200.272587 -224.412109 
L 199.595595 -223.010875 
L 198.896232 -221.609642 
L 198.162483 -220.208408 
L 197.366071 -218.807175 
L 196.47326 -217.405941 
L 195.459593 -216.004708 
L 194.322154 -214.603475 
L 193.083728 -213.202241 
L 191.786779 -211.801008 
L 190.479856 -210.399774 
L 189.202729 -208.998541 
L 187.977195 -207.597308 
L 186.80753 -206.196074 
L 185.689446 -204.794841 
L 184.621954 -203.393607 
L 183.615356 -201.992374 
L 182.691134 -200.59114 
L 181.874258 -199.189907 
L 181.182388 -197.788674 
L 180.617657 -196.38744 
L 180.164903 -194.986207 
L 179.796701 -193.584973 
L 179.482329 -192.18374 
L 179.196351 -190.782507 
L 178.923329 -189.381273 
L 178.65758 -187.98004 
L 178.399501 -186.578806 
L 178.151352 -185.177573 
L 177.914853 -183.776339 
L 177.69119 -182.375106 
L 177.482251 -180.973873 
L 177.291375 -179.572639 
L 177.122598 -178.171406 
L 176.978748 -176.770172 
L 176.859624 -175.368939 
L 176.761471 -173.967706 
L 176.678144 -172.566472 
L 176.603354 -171.165239 
L 176.532837 -169.764005 
L 176.465421 -168.362772 
L 176.402639 -166.961538 
L 176.347308 -165.560305 
L 176.30191 -164.159072 
L 176.267508 -162.757838 
L 176.243513 -161.356605 
z
" style="stroke: #3f3f3f; stroke-width: 1.25"/>
    </defs>
    <g clip-path="url(#p06a2139dd9)">
     <use xlink:href="#m89e2b10ec4" x="0" y="345.6" style="fill: #3274a1; stroke: #3f3f3f; stroke-width: 1.25"/>
    </g>
   </g>
   <g id="PolyCollection_3">
    <defs>
     <path id="mbab4f05b40" d="M 252.151623 -135.451378 
L 252.122964 -135.451378 
L 252.112376 -137.111566 
L 252.097225 -138.771753 
L 252.077427 -140.431941 
L 252.053566 -142.092128 
L 252.026439 -143.752316 
L 251.99615 -145.412503 
L 251.961146 -147.072691 
L 251.917835 -148.732878 
L 251.8612 -150.393066 
L 251.786324 -152.053253 
L 251.69014 -153.713441 
L 251.572566 -155.373628 
L 251.436489 -157.033816 
L 251.286645 -158.694003 
L 251.127954 -160.354191 
L 250.963998 -162.014378 
L 250.796255 -163.674566 
L 250.624255 -165.334753 
L 250.446379 -166.994941 
L 250.260486 -168.655128 
L 250.063472 -170.315316 
L 249.849469 -171.975503 
L 249.607561 -173.635691 
L 249.320854 -175.295878 
L 248.96841 -176.956066 
L 248.529804 -178.616253 
L 247.989944 -180.276441 
L 247.34123 -181.936628 
L 246.581887 -183.596816 
L 245.712242 -185.257003 
L 244.732302 -186.917191 
L 243.642859 -188.577379 
L 242.449491 -190.237566 
L 241.166757 -191.897754 
L 239.820213 -193.557941 
L 238.445798 -195.218129 
L 237.087425 -196.878316 
L 235.793263 -198.538504 
L 234.610067 -200.198691 
L 233.575135 -201.858879 
L 232.707542 -203.519066 
L 232.00256 -205.179254 
L 231.433046 -206.839441 
L 230.958382 -208.499629 
L 230.537501 -210.159816 
L 230.140585 -211.820004 
L 229.755378 -213.480191 
L 229.386967 -215.140379 
L 229.052038 -216.800566 
L 228.76948 -218.460754 
L 228.549947 -220.120941 
L 228.388489 -221.781129 
L 228.265195 -223.441316 
L 228.156374 -225.101504 
L 228.052812 -226.761691 
L 227.975423 -228.421879 
L 227.97771 -230.082066 
L 228.131035 -231.742254 
L 228.499006 -233.402441 
L 229.113998 -235.062629 
L 229.967008 -236.722816 
L 231.013595 -238.383004 
L 232.190084 -240.043191 
L 233.430901 -241.703379 
L 234.680531 -243.363566 
L 235.898613 -245.023754 
L 237.060521 -246.683941 
L 238.156522 -248.344129 
L 239.1909 -250.004316 
L 240.180161 -251.664504 
L 241.148393 -253.324691 
L 242.119057 -254.984879 
L 243.105111 -256.645066 
L 244.101542 -258.305254 
L 245.084202 -259.965441 
L 246.016239 -261.625629 
L 246.85981 -263.285816 
L 247.588274 -264.946004 
L 248.193931 -266.606192 
L 248.688558 -268.266379 
L 249.097273 -269.926567 
L 249.44898 -271.586754 
L 249.767709 -273.246942 
L 250.067923 -274.907129 
L 250.354455 -276.567317 
L 250.625513 -278.227504 
L 250.876469 -279.887692 
L 251.102811 -281.547879 
L 251.301789 -283.208067 
L 251.472942 -284.868254 
L 251.617816 -286.528442 
L 251.739154 -288.188629 
L 251.839889 -289.848817 
L 251.922412 -291.509004 
L 251.988399 -293.169192 
L 252.03918 -294.829379 
L 252.076271 -296.489567 
L 252.101694 -298.149754 
L 252.117909 -299.809942 
L 252.156679 -299.809942 
L 252.156679 -299.809942 
L 252.172894 -298.149754 
L 252.198316 -296.489567 
L 252.235408 -294.829379 
L 252.286189 -293.169192 
L 252.352176 -291.509004 
L 252.434698 -289.848817 
L 252.535434 -288.188629 
L 252.656771 -286.528442 
L 252.801646 -284.868254 
L 252.972798 -283.208067 
L 253.171777 -281.547879 
L 253.398119 -279.887692 
L 253.649075 -278.227504 
L 253.920133 -276.567317 
L 254.206664 -274.907129 
L 254.506878 -273.246942 
L 254.825607 -271.586754 
L 255.177315 -269.926567 
L 255.586029 -268.266379 
L 256.080657 -266.606192 
L 256.686313 -264.946004 
L 257.414778 -263.285816 
L 258.258349 -261.625629 
L 259.190386 -259.965441 
L 260.173046 -258.305254 
L 261.169477 -256.645066 
L 262.155531 -254.984879 
L 263.126195 -253.324691 
L 264.094427 -251.664504 
L 265.083688 -250.004316 
L 266.118065 -248.344129 
L 267.214067 -246.683941 
L 268.375975 -245.023754 
L 269.594056 -243.363566 
L 270.843686 -241.703379 
L 272.084504 -240.043191 
L 273.260992 -238.383004 
L 274.30758 -236.722816 
L 275.16059 -235.062629 
L 275.775582 -233.402441 
L 276.143553 -231.742254 
L 276.296878 -230.082066 
L 276.299165 -228.421879 
L 276.221775 -226.761691 
L 276.118213 -225.101504 
L 276.009393 -223.441316 
L 275.886098 -221.781129 
L 275.724641 -220.120941 
L 275.505108 -218.460754 
L 275.22255 -216.800566 
L 274.887621 -215.140379 
L 274.51921 -213.480191 
L 274.134003 -211.820004 
L 273.737086 -210.159816 
L 273.316205 -208.499629 
L 272.841541 -206.839441 
L 272.272027 -205.179254 
L 271.567046 -203.519066 
L 270.699453 -201.858879 
L 269.664521 -200.198691 
L 268.481325 -198.538504 
L 267.187162 -196.878316 
L 265.828789 -195.218129 
L 264.454374 -193.557941 
L 263.107831 -191.897754 
L 261.825096 -190.237566 
L 260.631729 -188.577379 
L 259.542286 -186.917191 
L 258.562346 -185.257003 
L 257.692701 -183.596816 
L 256.933358 -181.936628 
L 256.284644 -180.276441 
L 255.744784 -178.616253 
L 255.306178 -176.956066 
L 254.953734 -175.295878 
L 254.667026 -173.635691 
L 254.425118 -171.975503 
L 254.211116 -170.315316 
L 254.014102 -168.655128 
L 253.828208 -166.994941 
L 253.650332 -165.334753 
L 253.478332 -163.674566 
L 253.310589 -162.014378 
L 253.146634 -160.354191 
L 252.987942 -158.694003 
L 252.838099 -157.033816 
L 252.702022 -155.373628 
L 252.584448 -153.713441 
L 252.488263 -152.053253 
L 252.413387 -150.393066 
L 252.356753 -148.732878 
L 252.313442 -147.072691 
L 252.278438 -145.412503 
L 252.248148 -143.752316 
L 252.221022 -142.092128 
L 252.197161 -140.431941 
L 252.177363 -138.771753 
L 252.162211 -137.111566 
L 252.151623 -135.451378 
z
" style="stroke: #3f3f3f; stroke-width: 1.25"/>
    </defs>
    <g clip-path="url(#p06a2139dd9)">
     <use xlink:href="#mbab4f05b40" x="0" y="345.6" style="fill: #3274a1; stroke: #3f3f3f; stroke-width: 1.25"/>
    </g>
   </g>
   <g id="PolyCollection_4">
    <defs>
     <path id="m130ba70d18" d="M 328.082327 -169.733327 
L 328.047267 -169.733327 
L 328.032634 -171.245269 
L 328.011167 -172.757212 
L 327.98323 -174.269154 
L 327.951087 -175.781097 
L 327.918536 -177.293039 
L 327.889762 -178.804982 
L 327.867906 -180.316924 
L 327.854056 -181.828867 
L 327.846911 -183.340809 
L 327.843037 -184.852752 
L 327.837572 -186.364694 
L 327.825526 -187.876637 
L 327.803474 -189.388579 
L 327.77071 -190.900522 
L 327.728611 -192.412464 
L 327.678068 -193.924407 
L 327.616641 -195.436349 
L 327.537834 -196.948292 
L 327.433413 -198.460234 
L 327.297189 -199.972177 
L 327.127589 -201.48412 
L 326.927566 -202.996062 
L 326.702776 -204.508005 
L 326.459933 -206.019947 
L 326.206121 -207.53189 
L 325.948048 -209.043832 
L 325.689869 -210.555775 
L 325.429948 -212.067717 
L 325.158853 -213.57966 
L 324.860825 -215.091602 
L 324.518224 -216.603545 
L 324.115605 -218.115487 
L 323.640052 -219.62743 
L 323.078006 -221.139372 
L 322.412905 -222.651315 
L 321.628155 -224.163257 
L 320.71511 -225.6752 
L 319.679881 -227.187142 
L 318.541593 -228.699085 
L 317.320444 -230.211027 
L 316.022855 -231.72297 
L 314.635826 -233.234913 
L 313.138322 -234.746855 
L 311.525743 -236.258798 
L 309.832417 -237.77074 
L 308.135672 -239.282683 
L 306.535537 -240.794625 
L 305.119662 -242.306568 
L 303.932605 -243.81851 
L 302.965575 -245.330453 
L 302.169671 -246.842395 
L 301.48201 -248.354338 
L 300.84934 -249.86628 
L 300.239842 -251.378223 
L 299.644176 -252.890165 
L 299.072376 -254.402108 
L 298.550799 -255.91405 
L 298.118275 -257.425993 
L 297.819168 -258.937935 
L 297.693796 -260.449878 
L 297.769241 -261.96182 
L 298.053245 -263.473763 
L 298.532714 -264.985706 
L 299.178547 -266.497648 
L 299.957944 -268.009591 
L 300.851214 -269.521533 
L 301.864462 -271.033476 
L 303.028901 -272.545418 
L 304.384713 -274.057361 
L 305.957056 -275.569303 
L 307.736315 -277.081246 
L 309.671927 -278.593188 
L 311.682464 -280.105131 
L 313.677638 -281.617073 
L 315.582317 -283.129016 
L 317.350969 -284.640958 
L 318.96613 -286.152901 
L 320.424659 -287.664843 
L 321.723258 -289.176786 
L 322.853336 -290.688728 
L 323.806544 -292.200671 
L 324.584253 -293.712613 
L 325.202964 -295.224556 
L 325.692173 -296.736499 
L 326.086487 -298.248441 
L 326.416328 -299.760384 
L 326.701436 -301.272326 
L 326.94967 -302.784269 
L 327.161084 -304.296211 
L 327.334604 -305.808154 
L 327.473289 -307.320096 
L 327.58525 -308.832039 
L 327.6804 -310.343981 
L 327.765951 -311.855924 
L 327.843967 -313.367866 
L 327.912289 -314.879809 
L 327.967556 -316.391751 
L 328.00802 -317.903694 
L 328.0346 -319.415636 
L 328.094994 -319.415636 
L 328.094994 -319.415636 
L 328.121573 -317.903694 
L 328.162038 -316.391751 
L 328.217305 -314.879809 
L 328.285626 -313.367866 
L 328.363643 -311.855924 
L 328.449194 -310.343981 
L 328.544344 -308.832039 
L 328.656304 -307.320096 
L 328.794989 -305.808154 
L 328.96851 -304.296211 
L 329.179924 -302.784269 
L 329.428158 -301.272326 
L 329.713266 -299.760384 
L 330.043107 -298.248441 
L 330.437421 -296.736499 
L 330.92663 -295.224556 
L 331.545341 -293.712613 
L 332.32305 -292.200671 
L 333.276258 -290.688728 
L 334.406335 -289.176786 
L 335.704935 -287.664843 
L 337.163464 -286.152901 
L 338.778625 -284.640958 
L 340.547277 -283.129016 
L 342.451956 -281.617073 
L 344.44713 -280.105131 
L 346.457667 -278.593188 
L 348.393279 -277.081246 
L 350.172537 -275.569303 
L 351.74488 -274.057361 
L 353.100692 -272.545418 
L 354.265131 -271.033476 
L 355.278379 -269.521533 
L 356.17165 -268.009591 
L 356.951047 -266.497648 
L 357.59688 -264.985706 
L 358.076349 -263.473763 
L 358.360352 -261.96182 
L 358.435798 -260.449878 
L 358.310425 -258.937935 
L 358.011318 -257.425993 
L 357.578795 -255.91405 
L 357.057217 -254.402108 
L 356.485418 -252.890165 
L 355.889752 -251.378223 
L 355.280253 -249.86628 
L 354.647583 -248.354338 
L 353.959923 -246.842395 
L 353.164019 -245.330453 
L 352.196989 -243.81851 
L 351.009931 -242.306568 
L 349.594057 -240.794625 
L 347.993922 -239.282683 
L 346.297177 -237.77074 
L 344.60385 -236.258798 
L 342.991271 -234.746855 
L 341.493768 -233.234913 
L 340.106738 -231.72297 
L 338.80915 -230.211027 
L 337.588001 -228.699085 
L 336.449713 -227.187142 
L 335.414484 -225.6752 
L 334.501439 -224.163257 
L 333.716689 -222.651315 
L 333.051588 -221.139372 
L 332.489541 -219.62743 
L 332.013989 -218.115487 
L 331.61137 -216.603545 
L 331.268768 -215.091602 
L 330.97074 -213.57966 
L 330.699646 -212.067717 
L 330.439724 -210.555775 
L 330.181546 -209.043832 
L 329.923473 -207.53189 
L 329.669661 -206.019947 
L 329.426817 -204.508005 
L 329.202028 -202.996062 
L 329.002005 -201.48412 
L 328.832404 -199.972177 
L 328.696181 -198.460234 
L 328.591759 -196.948292 
L 328.512953 -195.436349 
L 328.451525 -193.924407 
L 328.400983 -192.412464 
L 328.358884 -190.900522 
L 328.32612 -189.388579 
L 328.304067 -187.876637 
L 328.292021 -186.364694 
L 328.286557 -184.852752 
L 328.282683 -183.340809 
L 328.275538 -181.828867 
L 328.261687 -180.316924 
L 328.239832 -178.804982 
L 328.211058 -177.293039 
L 328.178507 -175.781097 
L 328.146363 -174.269154 
L 328.118427 -172.757212 
L 328.096959 -171.245269 
L 328.082327 -169.733327 
z
" style="stroke: #3f3f3f; stroke-width: 1.25"/>
    </defs>
    <g clip-path="url(#p06a2139dd9)">
     <use xlink:href="#m130ba70d18" x="0" y="345.6" style="fill: #3274a1; stroke: #3f3f3f; stroke-width: 1.25"/>
    </g>
   </g>
   <g id="PolyCollection_5">
    <defs>
     <path id="m7473bc32b9" d="M 404.006819 -54.928364 
L 403.977781 -54.928364 
L 403.966844 -56.597872 
L 403.951462 -58.26738 
L 403.932209 -59.936888 
L 403.910806 -61.606396 
L 403.889495 -63.275905 
L 403.869598 -64.945413 
L 403.849759 -66.614921 
L 403.824789 -68.284429 
L 403.785956 -69.953937 
L 403.722973 -71.623446 
L 403.627075 -73.292954 
L 403.494022 -74.962462 
L 403.32571 -76.63197 
L 403.129482 -78.301478 
L 402.914868 -79.970986 
L 402.688437 -81.640495 
L 402.448522 -83.310003 
L 402.182312 -84.979511 
L 401.867605 -86.649019 
L 401.479731 -88.318527 
L 401.001405 -89.988036 
L 400.431038 -91.657544 
L 399.784945 -93.327052 
L 399.091496 -94.99656 
L 398.379251 -96.666068 
L 397.664118 -98.335577 
L 396.941113 -100.005085 
L 396.18434 -101.674593 
L 395.355869 -103.344101 
L 394.421168 -105.013609 
L 393.365959 -106.683117 
L 392.207442 -108.352626 
L 390.993418 -110.022134 
L 389.787326 -111.691642 
L 388.644693 -113.36115 
L 387.592485 -115.030658 
L 386.622628 -116.700167 
L 385.703262 -118.369675 
L 384.800502 -120.039183 
L 383.897093 -121.708691 
L 382.997308 -123.378199 
L 382.11794 -125.047708 
L 381.275152 -126.717216 
L 380.478867 -128.386724 
L 379.739165 -130.056232 
L 379.079231 -131.72574 
L 378.544195 -133.395248 
L 378.197417 -135.064757 
L 378.102782 -136.734265 
L 378.299148 -138.403773 
L 378.778242 -140.073281 
L 379.477786 -141.742789 
L 380.296073 -143.412298 
L 381.12358 -145.081806 
L 381.877281 -146.751314 
L 382.521193 -148.420822 
L 383.064933 -150.09033 
L 383.545329 -151.759839 
L 384.005066 -153.429347 
L 384.481162 -155.098855 
L 385.006713 -156.768363 
L 385.619005 -158.437871 
L 386.362637 -160.107379 
L 387.280306 -161.776888 
L 388.393609 -163.446396 
L 389.685157 -165.115904 
L 391.094873 -166.785412 
L 392.535586 -168.45492 
L 393.920943 -170.124429 
L 395.190917 -171.793937 
L 396.32246 -173.463445 
L 397.322832 -175.132953 
L 398.213266 -176.802461 
L 399.01399 -178.47197 
L 399.737509 -180.141478 
L 400.389933 -181.810986 
L 400.975387 -183.480494 
L 401.498593 -185.150002 
L 401.963956 -186.81951 
L 402.372953 -188.489019 
L 402.722851 -190.158527 
L 403.008461 -191.828035 
L 403.226233 -193.497543 
L 403.378286 -195.167051 
L 403.474105 -196.83656 
L 403.529056 -198.506068 
L 403.560656 -200.175576 
L 403.584416 -201.845084 
L 403.610982 -203.514592 
L 403.645346 -205.184101 
L 403.687842 -206.853609 
L 403.735964 -208.523117 
L 403.78606 -210.192625 
L 403.834434 -211.862133 
L 403.877948 -213.531641 
L 403.914373 -215.20115 
L 403.942632 -216.870658 
L 403.962851 -218.540166 
L 403.97613 -220.209674 
L 404.00847 -220.209674 
L 404.00847 -220.209674 
L 404.021749 -218.540166 
L 404.041967 -216.870658 
L 404.070227 -215.20115 
L 404.106652 -213.531641 
L 404.150165 -211.862133 
L 404.19854 -210.192625 
L 404.248635 -208.523117 
L 404.296758 -206.853609 
L 404.339254 -205.184101 
L 404.373618 -203.514592 
L 404.400184 -201.845084 
L 404.423944 -200.175576 
L 404.455543 -198.506068 
L 404.510495 -196.83656 
L 404.606314 -195.167051 
L 404.758367 -193.497543 
L 404.976139 -191.828035 
L 405.261749 -190.158527 
L 405.611647 -188.489019 
L 406.020644 -186.81951 
L 406.486007 -185.150002 
L 407.009213 -183.480494 
L 407.594667 -181.810986 
L 408.247091 -180.141478 
L 408.97061 -178.47197 
L 409.771334 -176.802461 
L 410.661768 -175.132953 
L 411.66214 -173.463445 
L 412.793683 -171.793937 
L 414.063657 -170.124429 
L 415.449014 -168.45492 
L 416.889727 -166.785412 
L 418.299443 -165.115904 
L 419.590991 -163.446396 
L 420.704294 -161.776888 
L 421.621962 -160.107379 
L 422.365595 -158.437871 
L 422.977887 -156.768363 
L 423.503438 -155.098855 
L 423.979534 -153.429347 
L 424.439271 -151.759839 
L 424.919667 -150.09033 
L 425.463407 -148.420822 
L 426.107319 -146.751314 
L 426.86102 -145.081806 
L 427.688527 -143.412298 
L 428.506814 -141.742789 
L 429.206358 -140.073281 
L 429.685452 -138.403773 
L 429.881818 -136.734265 
L 429.787183 -135.064757 
L 429.440405 -133.395248 
L 428.905369 -131.72574 
L 428.245435 -130.056232 
L 427.505733 -128.386724 
L 426.709448 -126.717216 
L 425.86666 -125.047708 
L 424.987291 -123.378199 
L 424.087507 -121.708691 
L 423.184098 -120.039183 
L 422.281338 -118.369675 
L 421.361972 -116.700167 
L 420.392115 -115.030658 
L 419.339907 -113.36115 
L 418.197274 -111.691642 
L 416.991182 -110.022134 
L 415.777158 -108.352626 
L 414.618641 -106.683117 
L 413.563432 -105.013609 
L 412.628731 -103.344101 
L 411.80026 -101.674593 
L 411.043487 -100.005085 
L 410.320482 -98.335577 
L 409.605349 -96.666068 
L 408.893103 -94.99656 
L 408.199655 -93.327052 
L 407.553562 -91.657544 
L 406.983195 -89.988036 
L 406.504869 -88.318527 
L 406.116995 -86.649019 
L 405.802288 -84.979511 
L 405.536078 -83.310003 
L 405.296163 -81.640495 
L 405.069732 -79.970986 
L 404.855117 -78.301478 
L 404.658889 -76.63197 
L 404.490578 -74.962462 
L 404.357525 -73.292954 
L 404.261627 -71.623446 
L 404.198644 -69.953937 
L 404.159811 -68.284429 
L 404.134841 -66.614921 
L 404.115001 -64.945413 
L 404.095105 -63.275905 
L 404.073794 -61.606396 
L 404.052391 -59.936888 
L 404.033137 -58.26738 
L 404.017756 -56.597872 
L 404.006819 -54.928364 
z
" style="stroke: #3f3f3f; stroke-width: 1.25"/>
    </defs>
    <g clip-path="url(#p06a2139dd9)">
     <use xlink:href="#m7473bc32b9" x="0" y="345.6" style="fill: #3274a1; stroke: #3f3f3f; stroke-width: 1.25"/>
    </g>
   </g>
   <g id="matplotlib.axis_1">
    <g id="xtick_1">
     <g id="line2d_1">
      <defs>
       <path id="m1fabd969f9" d="M 0 0 
L 0 3.5 
" style="stroke: #000000; stroke-width: 0.8"/>
      </defs>
      <g>
       <use xlink:href="#m1fabd969f9" x="100.282288" y="303.896" style="stroke: #000000; stroke-width: 0.8"/>
      </g>
     </g>
     <g id="text_1">
      <!-- Fluency -->
      <g transform="translate(80.894788 318.494438) scale(0.1 -0.1)">
       <defs>
        <path id="DejaVuSans-46" d="M 628 4666 
L 3309 4666 
L 3309 4134 
L 1259 4134 
L 1259 2759 
L 3109 2759 
L 3109 2228 
L 1259 2228 
L 1259 0 
L 628 0 
L 628 4666 
z
" transform="scale(0.015625)"/>
        <path id="DejaVuSans-6c" d="M 603 4863 
L 1178 4863 
L 1178 0 
L 603 0 
L 603 4863 
z
" transform="scale(0.015625)"/>
        <path id="DejaVuSans-75" d="M 544 1381 
L 544 3500 
L 1119 3500 
L 1119 1403 
Q 1119 906 1312 657 
Q 1506 409 1894 409 
Q 2359 409 2629 706 
Q 2900 1003 2900 1516 
L 2900 3500 
L 3475 3500 
L 3475 0 
L 2900 0 
L 2900 538 
Q 2691 219 2414 64 
Q 2138 -91 1772 -91 
Q 1169 -91 856 284 
Q 544 659 544 1381 
z
M 1991 3584 
L 1991 3584 
z
" transform="scale(0.015625)"/>
        <path id="DejaVuSans-65" d="M 3597 1894 
L 3597 1613 
L 953 1613 
Q 991 1019 1311 708 
Q 1631 397 2203 397 
Q 2534 397 2845 478 
Q 3156 559 3463 722 
L 3463 178 
Q 3153 47 2828 -22 
Q 2503 -91 2169 -91 
Q 1331 -91 842 396 
Q 353 884 353 1716 
Q 353 2575 817 3079 
Q 1281 3584 2069 3584 
Q 2775 3584 3186 3129 
Q 3597 2675 3597 1894 
z
M 3022 2063 
Q 3016 2534 2758 2815 
Q 2500 3097 2075 3097 
Q 1594 3097 1305 2825 
Q 1016 2553 972 2059 
L 3022 2063 
z
" transform="scale(0.015625)"/>
        <path id="DejaVuSans-6e" d="M 3513 2113 
L 3513 0 
L 2938 0 
L 2938 2094 
Q 2938 2591 2744 2837 
Q 2550 3084 2163 3084 
Q 1697 3084 1428 2787 
Q 1159 2491 1159 1978 
L 1159 0 
L 581 0 
L 581 3500 
L 1159 3500 
L 1159 2956 
Q 1366 3272 1645 3428 
Q 1925 3584 2291 3584 
Q 2894 3584 3203 3211 
Q 3513 2838 3513 2113 
z
" transform="scale(0.015625)"/>
        <path id="DejaVuSans-63" d="M 3122 3366 
L 3122 2828 
Q 2878 2963 2633 3030 
Q 2388 3097 2138 3097 
Q 1578 3097 1268 2742 
Q 959 2388 959 1747 
Q 959 1106 1268 751 
Q 1578 397 2138 397 
Q 2388 397 2633 464 
Q 2878 531 3122 666 
L 3122 134 
Q 2881 22 2623 -34 
Q 2366 -91 2075 -91 
Q 1284 -91 818 406 
Q 353 903 353 1747 
Q 353 2603 823 3093 
Q 1294 3584 2113 3584 
Q 2378 3584 2631 3529 
Q 2884 3475 3122 3366 
z
" transform="scale(0.015625)"/>
        <path id="DejaVuSans-79" d="M 2059 -325 
Q 1816 -950 1584 -1140 
Q 1353 -1331 966 -1331 
L 506 -1331 
L 506 -850 
L 844 -850 
Q 1081 -850 1212 -737 
Q 1344 -625 1503 -206 
L 1606 56 
L 191 3500 
L 800 3500 
L 1894 763 
L 2988 3500 
L 3597 3500 
L 2059 -325 
z
" transform="scale(0.015625)"/>
       </defs>
       <use xlink:href="#DejaVuSans-46"/>
       <use xlink:href="#DejaVuSans-6c" x="57.519531"/>
       <use xlink:href="#DejaVuSans-75" x="85.302734"/>
       <use xlink:href="#DejaVuSans-65" x="148.681641"/>
       <use xlink:href="#DejaVuSans-6e" x="210.205078"/>
       <use xlink:href="#DejaVuSans-63" x="273.583984"/>
       <use xlink:href="#DejaVuSans-79" x="328.564453"/>
      </g>
      <!--  classifier -->
      <g transform="translate(76.611194 329.69225) scale(0.1 -0.1)">
       <defs>
        <path id="DejaVuSans-20" transform="scale(0.015625)"/>
        <path id="DejaVuSans-61" d="M 2194 1759 
Q 1497 1759 1228 1600 
Q 959 1441 959 1056 
Q 959 750 1161 570 
Q 1363 391 1709 391 
Q 2188 391 2477 730 
Q 2766 1069 2766 1631 
L 2766 1759 
L 2194 1759 
z
M 3341 1997 
L 3341 0 
L 2766 0 
L 2766 531 
Q 2569 213 2275 61 
Q 1981 -91 1556 -91 
Q 1019 -91 701 211 
Q 384 513 384 1019 
Q 384 1609 779 1909 
Q 1175 2209 1959 2209 
L 2766 2209 
L 2766 2266 
Q 2766 2663 2505 2880 
Q 2244 3097 1772 3097 
Q 1472 3097 1187 3025 
Q 903 2953 641 2809 
L 641 3341 
Q 956 3463 1253 3523 
Q 1550 3584 1831 3584 
Q 2591 3584 2966 3190 
Q 3341 2797 3341 1997 
z
" transform="scale(0.015625)"/>
        <path id="DejaVuSans-73" d="M 2834 3397 
L 2834 2853 
Q 2591 2978 2328 3040 
Q 2066 3103 1784 3103 
Q 1356 3103 1142 2972 
Q 928 2841 928 2578 
Q 928 2378 1081 2264 
Q 1234 2150 1697 2047 
L 1894 2003 
Q 2506 1872 2764 1633 
Q 3022 1394 3022 966 
Q 3022 478 2636 193 
Q 2250 -91 1575 -91 
Q 1294 -91 989 -36 
Q 684 19 347 128 
L 347 722 
Q 666 556 975 473 
Q 1284 391 1588 391 
Q 1994 391 2212 530 
Q 2431 669 2431 922 
Q 2431 1156 2273 1281 
Q 2116 1406 1581 1522 
L 1381 1569 
Q 847 1681 609 1914 
Q 372 2147 372 2553 
Q 372 3047 722 3315 
Q 1072 3584 1716 3584 
Q 2034 3584 2315 3537 
Q 2597 3491 2834 3397 
z
" transform="scale(0.015625)"/>
        <path id="DejaVuSans-69" d="M 603 3500 
L 1178 3500 
L 1178 0 
L 603 0 
L 603 3500 
z
M 603 4863 
L 1178 4863 
L 1178 4134 
L 603 4134 
L 603 4863 
z
" transform="scale(0.015625)"/>
        <path id="DejaVuSans-66" d="M 2375 4863 
L 2375 4384 
L 1825 4384 
Q 1516 4384 1395 4259 
Q 1275 4134 1275 3809 
L 1275 3500 
L 2222 3500 
L 2222 3053 
L 1275 3053 
L 1275 0 
L 697 0 
L 697 3053 
L 147 3053 
L 147 3500 
L 697 3500 
L 697 3744 
Q 697 4328 969 4595 
Q 1241 4863 1831 4863 
L 2375 4863 
z
" transform="scale(0.015625)"/>
        <path id="DejaVuSans-72" d="M 2631 2963 
Q 2534 3019 2420 3045 
Q 2306 3072 2169 3072 
Q 1681 3072 1420 2755 
Q 1159 2438 1159 1844 
L 1159 0 
L 581 0 
L 581 3500 
L 1159 3500 
L 1159 2956 
Q 1341 3275 1631 3429 
Q 1922 3584 2338 3584 
Q 2397 3584 2469 3576 
Q 2541 3569 2628 3553 
L 2631 2963 
z
" transform="scale(0.015625)"/>
       </defs>
       <use xlink:href="#DejaVuSans-20"/>
       <use xlink:href="#DejaVuSans-63" x="31.787109"/>
       <use xlink:href="#DejaVuSans-6c" x="86.767578"/>
       <use xlink:href="#DejaVuSans-61" x="114.550781"/>
       <use xlink:href="#DejaVuSans-73" x="175.830078"/>
       <use xlink:href="#DejaVuSans-73" x="227.929688"/>
       <use xlink:href="#DejaVuSans-69" x="280.029297"/>
       <use xlink:href="#DejaVuSans-66" x="307.8125"/>
       <use xlink:href="#DejaVuSans-69" x="343.017578"/>
       <use xlink:href="#DejaVuSans-65" x="370.800781"/>
       <use xlink:href="#DejaVuSans-72" x="432.324219"/>
      </g>
     </g>
    </g>
    <g id="xtick_2">
     <g id="line2d_2">
      <g>
       <use xlink:href="#m1fabd969f9" x="176.209791" y="303.896" style="stroke: #000000; stroke-width: 0.8"/>
      </g>
     </g>
     <g id="text_2">
      <!-- Screening -->
      <g transform="translate(151.289478 318.494438) scale(0.1 -0.1)">
       <defs>
        <path id="DejaVuSans-53" d="M 3425 4513 
L 3425 3897 
Q 3066 4069 2747 4153 
Q 2428 4238 2131 4238 
Q 1616 4238 1336 4038 
Q 1056 3838 1056 3469 
Q 1056 3159 1242 3001 
Q 1428 2844 1947 2747 
L 2328 2669 
Q 3034 2534 3370 2195 
Q 3706 1856 3706 1288 
Q 3706 609 3251 259 
Q 2797 -91 1919 -91 
Q 1588 -91 1214 -16 
Q 841 59 441 206 
L 441 856 
Q 825 641 1194 531 
Q 1563 422 1919 422 
Q 2459 422 2753 634 
Q 3047 847 3047 1241 
Q 3047 1584 2836 1778 
Q 2625 1972 2144 2069 
L 1759 2144 
Q 1053 2284 737 2584 
Q 422 2884 422 3419 
Q 422 4038 858 4394 
Q 1294 4750 2059 4750 
Q 2388 4750 2728 4690 
Q 3069 4631 3425 4513 
z
" transform="scale(0.015625)"/>
        <path id="DejaVuSans-67" d="M 2906 1791 
Q 2906 2416 2648 2759 
Q 2391 3103 1925 3103 
Q 1463 3103 1205 2759 
Q 947 2416 947 1791 
Q 947 1169 1205 825 
Q 1463 481 1925 481 
Q 2391 481 2648 825 
Q 2906 1169 2906 1791 
z
M 3481 434 
Q 3481 -459 3084 -895 
Q 2688 -1331 1869 -1331 
Q 1566 -1331 1297 -1286 
Q 1028 -1241 775 -1147 
L 775 -588 
Q 1028 -725 1275 -790 
Q 1522 -856 1778 -856 
Q 2344 -856 2625 -561 
Q 2906 -266 2906 331 
L 2906 616 
Q 2728 306 2450 153 
Q 2172 0 1784 0 
Q 1141 0 747 490 
Q 353 981 353 1791 
Q 353 2603 747 3093 
Q 1141 3584 1784 3584 
Q 2172 3584 2450 3431 
Q 2728 3278 2906 2969 
L 2906 3500 
L 3481 3500 
L 3481 434 
z
" transform="scale(0.015625)"/>
       </defs>
       <use xlink:href="#DejaVuSans-53"/>
       <use xlink:href="#DejaVuSans-63" x="63.476562"/>
       <use xlink:href="#DejaVuSans-72" x="118.457031"/>
       <use xlink:href="#DejaVuSans-65" x="157.320312"/>
       <use xlink:href="#DejaVuSans-65" x="218.84375"/>
       <use xlink:href="#DejaVuSans-6e" x="280.367188"/>
       <use xlink:href="#DejaVuSans-69" x="343.746094"/>
       <use xlink:href="#DejaVuSans-6e" x="371.529297"/>
       <use xlink:href="#DejaVuSans-67" x="434.908203"/>
      </g>
      <!--  classifier -->
      <g transform="translate(152.538697 329.69225) scale(0.1 -0.1)">
       <use xlink:href="#DejaVuSans-20"/>
       <use xlink:href="#DejaVuSans-63" x="31.787109"/>
       <use xlink:href="#DejaVuSans-6c" x="86.767578"/>
       <use xlink:href="#DejaVuSans-61" x="114.550781"/>
       <use xlink:href="#DejaVuSans-73" x="175.830078"/>
       <use xlink:href="#DejaVuSans-73" x="227.929688"/>
       <use xlink:href="#DejaVuSans-69" x="280.029297"/>
       <use xlink:href="#DejaVuSans-66" x="307.8125"/>
       <use xlink:href="#DejaVuSans-69" x="343.017578"/>
       <use xlink:href="#DejaVuSans-65" x="370.800781"/>
       <use xlink:href="#DejaVuSans-72" x="432.324219"/>
      </g>
     </g>
    </g>
    <g id="xtick_3">
     <g id="line2d_3">
      <g>
       <use xlink:href="#m1fabd969f9" x="252.137294" y="303.896" style="stroke: #000000; stroke-width: 0.8"/>
      </g>
     </g>
     <g id="text_3">
      <!-- Executive -->
      <g transform="translate(227.795106 318.494438) scale(0.1 -0.1)">
       <defs>
        <path id="DejaVuSans-45" d="M 628 4666 
L 3578 4666 
L 3578 4134 
L 1259 4134 
L 1259 2753 
L 3481 2753 
L 3481 2222 
L 1259 2222 
L 1259 531 
L 3634 531 
L 3634 0 
L 628 0 
L 628 4666 
z
" transform="scale(0.015625)"/>
        <path id="DejaVuSans-78" d="M 3513 3500 
L 2247 1797 
L 3578 0 
L 2900 0 
L 1881 1375 
L 863 0 
L 184 0 
L 1544 1831 
L 300 3500 
L 978 3500 
L 1906 2253 
L 2834 3500 
L 3513 3500 
z
" transform="scale(0.015625)"/>
        <path id="DejaVuSans-74" d="M 1172 4494 
L 1172 3500 
L 2356 3500 
L 2356 3053 
L 1172 3053 
L 1172 1153 
Q 1172 725 1289 603 
Q 1406 481 1766 481 
L 2356 481 
L 2356 0 
L 1766 0 
Q 1100 0 847 248 
Q 594 497 594 1153 
L 594 3053 
L 172 3053 
L 172 3500 
L 594 3500 
L 594 4494 
L 1172 4494 
z
" transform="scale(0.015625)"/>
        <path id="DejaVuSans-76" d="M 191 3500 
L 800 3500 
L 1894 563 
L 2988 3500 
L 3597 3500 
L 2284 0 
L 1503 0 
L 191 3500 
z
" transform="scale(0.015625)"/>
       </defs>
       <use xlink:href="#DejaVuSans-45"/>
       <use xlink:href="#DejaVuSans-78" x="63.183594"/>
       <use xlink:href="#DejaVuSans-65" x="119.238281"/>
       <use xlink:href="#DejaVuSans-63" x="180.761719"/>
       <use xlink:href="#DejaVuSans-75" x="235.742188"/>
       <use xlink:href="#DejaVuSans-74" x="299.121094"/>
       <use xlink:href="#DejaVuSans-69" x="338.330078"/>
       <use xlink:href="#DejaVuSans-76" x="366.113281"/>
       <use xlink:href="#DejaVuSans-65" x="425.292969"/>
      </g>
      <!--  classifier -->
      <g transform="translate(228.4662 329.69225) scale(0.1 -0.1)">
       <use xlink:href="#DejaVuSans-20"/>
       <use xlink:href="#DejaVuSans-63" x="31.787109"/>
       <use xlink:href="#DejaVuSans-6c" x="86.767578"/>
       <use xlink:href="#DejaVuSans-61" x="114.550781"/>
       <use xlink:href="#DejaVuSans-73" x="175.830078"/>
       <use xlink:href="#DejaVuSans-73" x="227.929688"/>
       <use xlink:href="#DejaVuSans-69" x="280.029297"/>
       <use xlink:href="#DejaVuSans-66" x="307.8125"/>
       <use xlink:href="#DejaVuSans-69" x="343.017578"/>
       <use xlink:href="#DejaVuSans-65" x="370.800781"/>
       <use xlink:href="#DejaVuSans-72" x="432.324219"/>
      </g>
     </g>
    </g>
    <g id="xtick_4">
     <g id="line2d_4">
      <g>
       <use xlink:href="#m1fabd969f9" x="328.064797" y="303.896" style="stroke: #000000; stroke-width: 0.8"/>
      </g>
     </g>
     <g id="text_4">
      <!-- Structural -->
      <g transform="translate(303.319484 318.494438) scale(0.1 -0.1)">
       <use xlink:href="#DejaVuSans-53"/>
       <use xlink:href="#DejaVuSans-74" x="63.476562"/>
       <use xlink:href="#DejaVuSans-72" x="102.685547"/>
       <use xlink:href="#DejaVuSans-75" x="143.798828"/>
       <use xlink:href="#DejaVuSans-63" x="207.177734"/>
       <use xlink:href="#DejaVuSans-74" x="262.158203"/>
       <use xlink:href="#DejaVuSans-75" x="301.367188"/>
       <use xlink:href="#DejaVuSans-72" x="364.746094"/>
       <use xlink:href="#DejaVuSans-61" x="405.859375"/>
       <use xlink:href="#DejaVuSans-6c" x="467.138672"/>
      </g>
      <!--  classifier -->
      <g transform="translate(304.393703 329.69225) scale(0.1 -0.1)">
       <use xlink:href="#DejaVuSans-20"/>
       <use xlink:href="#DejaVuSans-63" x="31.787109"/>
       <use xlink:href="#DejaVuSans-6c" x="86.767578"/>
       <use xlink:href="#DejaVuSans-61" x="114.550781"/>
       <use xlink:href="#DejaVuSans-73" x="175.830078"/>
       <use xlink:href="#DejaVuSans-73" x="227.929688"/>
       <use xlink:href="#DejaVuSans-69" x="280.029297"/>
       <use xlink:href="#DejaVuSans-66" x="307.8125"/>
       <use xlink:href="#DejaVuSans-69" x="343.017578"/>
       <use xlink:href="#DejaVuSans-65" x="370.800781"/>
       <use xlink:href="#DejaVuSans-72" x="432.324219"/>
      </g>
     </g>
    </g>
    <g id="xtick_5">
     <g id="line2d_5">
      <g>
       <use xlink:href="#m1fabd969f9" x="403.9923" y="303.896" style="stroke: #000000; stroke-width: 0.8"/>
      </g>
     </g>
     <g id="text_5">
      <!-- Functional -->
      <g transform="translate(378.274331 318.494438) scale(0.1 -0.1)">
       <defs>
        <path id="DejaVuSans-6f" d="M 1959 3097 
Q 1497 3097 1228 2736 
Q 959 2375 959 1747 
Q 959 1119 1226 758 
Q 1494 397 1959 397 
Q 2419 397 2687 759 
Q 2956 1122 2956 1747 
Q 2956 2369 2687 2733 
Q 2419 3097 1959 3097 
z
M 1959 3584 
Q 2709 3584 3137 3096 
Q 3566 2609 3566 1747 
Q 3566 888 3137 398 
Q 2709 -91 1959 -91 
Q 1206 -91 779 398 
Q 353 888 353 1747 
Q 353 2609 779 3096 
Q 1206 3584 1959 3584 
z
" transform="scale(0.015625)"/>
       </defs>
       <use xlink:href="#DejaVuSans-46"/>
       <use xlink:href="#DejaVuSans-75" x="52.019531"/>
       <use xlink:href="#DejaVuSans-6e" x="115.398438"/>
       <use xlink:href="#DejaVuSans-63" x="178.777344"/>
       <use xlink:href="#DejaVuSans-74" x="233.757812"/>
       <use xlink:href="#DejaVuSans-69" x="272.966797"/>
       <use xlink:href="#DejaVuSans-6f" x="300.75"/>
       <use xlink:href="#DejaVuSans-6e" x="361.931641"/>
       <use xlink:href="#DejaVuSans-61" x="425.310547"/>
       <use xlink:href="#DejaVuSans-6c" x="486.589844"/>
      </g>
      <!--  classifier -->
      <g transform="translate(380.321206 329.69225) scale(0.1 -0.1)">
       <use xlink:href="#DejaVuSans-20"/>
       <use xlink:href="#DejaVuSans-63" x="31.787109"/>
       <use xlink:href="#DejaVuSans-6c" x="86.767578"/>
       <use xlink:href="#DejaVuSans-61" x="114.550781"/>
       <use xlink:href="#DejaVuSans-73" x="175.830078"/>
       <use xlink:href="#DejaVuSans-73" x="227.929688"/>
       <use xlink:href="#DejaVuSans-69" x="280.029297"/>
       <use xlink:href="#DejaVuSans-66" x="307.8125"/>
       <use xlink:href="#DejaVuSans-69" x="343.017578"/>
       <use xlink:href="#DejaVuSans-65" x="370.800781"/>
       <use xlink:href="#DejaVuSans-72" x="432.324219"/>
      </g>
     </g>
    </g>
   </g>
   <g id="matplotlib.axis_2">
    <g id="ytick_1">
     <g id="line2d_6">
      <defs>
       <path id="m7e180329cd" d="M 0 0 
L -3.5 0 
" style="stroke: #000000; stroke-width: 0.8"/>
      </defs>
      <g>
       <use xlink:href="#m7e180329cd" x="52.76" y="254.990213" style="stroke: #000000; stroke-width: 0.8"/>
      </g>
     </g>
     <g id="text_6">
      <!-- 0.5 -->
      <g transform="translate(29.856875 258.789432) scale(0.1 -0.1)">
       <defs>
        <path id="DejaVuSans-30" d="M 2034 4250 
Q 1547 4250 1301 3770 
Q 1056 3291 1056 2328 
Q 1056 1369 1301 889 
Q 1547 409 2034 409 
Q 2525 409 2770 889 
Q 3016 1369 3016 2328 
Q 3016 3291 2770 3770 
Q 2525 4250 2034 4250 
z
M 2034 4750 
Q 2819 4750 3233 4129 
Q 3647 3509 3647 2328 
Q 3647 1150 3233 529 
Q 2819 -91 2034 -91 
Q 1250 -91 836 529 
Q 422 1150 422 2328 
Q 422 3509 836 4129 
Q 1250 4750 2034 4750 
z
" transform="scale(0.015625)"/>
        <path id="DejaVuSans-2e" d="M 684 794 
L 1344 794 
L 1344 0 
L 684 0 
L 684 794 
z
" transform="scale(0.015625)"/>
        <path id="DejaVuSans-35" d="M 691 4666 
L 3169 4666 
L 3169 4134 
L 1269 4134 
L 1269 2991 
Q 1406 3038 1543 3061 
Q 1681 3084 1819 3084 
Q 2600 3084 3056 2656 
Q 3513 2228 3513 1497 
Q 3513 744 3044 326 
Q 2575 -91 1722 -91 
Q 1428 -91 1123 -41 
Q 819 9 494 109 
L 494 744 
Q 775 591 1075 516 
Q 1375 441 1709 441 
Q 2250 441 2565 725 
Q 2881 1009 2881 1497 
Q 2881 1984 2565 2268 
Q 2250 2553 1709 2553 
Q 1456 2553 1204 2497 
Q 953 2441 691 2322 
L 691 4666 
z
" transform="scale(0.015625)"/>
       </defs>
       <use xlink:href="#DejaVuSans-30"/>
       <use xlink:href="#DejaVuSans-2e" x="63.623047"/>
       <use xlink:href="#DejaVuSans-35" x="95.410156"/>
      </g>
     </g>
    </g>
    <g id="ytick_2">
     <g id="line2d_7">
      <g>
       <use xlink:href="#m7e180329cd" x="52.76" y="204.181864" style="stroke: #000000; stroke-width: 0.8"/>
      </g>
     </g>
     <g id="text_7">
      <!-- 0.6 -->
      <g transform="translate(29.856875 207.981082) scale(0.1 -0.1)">
       <defs>
        <path id="DejaVuSans-36" d="M 2113 2584 
Q 1688 2584 1439 2293 
Q 1191 2003 1191 1497 
Q 1191 994 1439 701 
Q 1688 409 2113 409 
Q 2538 409 2786 701 
Q 3034 994 3034 1497 
Q 3034 2003 2786 2293 
Q 2538 2584 2113 2584 
z
M 3366 4563 
L 3366 3988 
Q 3128 4100 2886 4159 
Q 2644 4219 2406 4219 
Q 1781 4219 1451 3797 
Q 1122 3375 1075 2522 
Q 1259 2794 1537 2939 
Q 1816 3084 2150 3084 
Q 2853 3084 3261 2657 
Q 3669 2231 3669 1497 
Q 3669 778 3244 343 
Q 2819 -91 2113 -91 
Q 1303 -91 875 529 
Q 447 1150 447 2328 
Q 447 3434 972 4092 
Q 1497 4750 2381 4750 
Q 2619 4750 2861 4703 
Q 3103 4656 3366 4563 
z
" transform="scale(0.015625)"/>
       </defs>
       <use xlink:href="#DejaVuSans-30"/>
       <use xlink:href="#DejaVuSans-2e" x="63.623047"/>
       <use xlink:href="#DejaVuSans-36" x="95.410156"/>
      </g>
     </g>
    </g>
    <g id="ytick_3">
     <g id="line2d_8">
      <g>
       <use xlink:href="#m7e180329cd" x="52.76" y="153.373515" style="stroke: #000000; stroke-width: 0.8"/>
      </g>
     </g>
     <g id="text_8">
      <!-- 0.7 -->
      <g transform="translate(29.856875 157.172733) scale(0.1 -0.1)">
       <defs>
        <path id="DejaVuSans-37" d="M 525 4666 
L 3525 4666 
L 3525 4397 
L 1831 0 
L 1172 0 
L 2766 4134 
L 525 4134 
L 525 4666 
z
" transform="scale(0.015625)"/>
       </defs>
       <use xlink:href="#DejaVuSans-30"/>
       <use xlink:href="#DejaVuSans-2e" x="63.623047"/>
       <use xlink:href="#DejaVuSans-37" x="95.410156"/>
      </g>
     </g>
    </g>
    <g id="ytick_4">
     <g id="line2d_9">
      <g>
       <use xlink:href="#m7e180329cd" x="52.76" y="102.565166" style="stroke: #000000; stroke-width: 0.8"/>
      </g>
     </g>
     <g id="text_9">
      <!-- 0.8 -->
      <g transform="translate(29.856875 106.364384) scale(0.1 -0.1)">
       <defs>
        <path id="DejaVuSans-38" d="M 2034 2216 
Q 1584 2216 1326 1975 
Q 1069 1734 1069 1313 
Q 1069 891 1326 650 
Q 1584 409 2034 409 
Q 2484 409 2743 651 
Q 3003 894 3003 1313 
Q 3003 1734 2745 1975 
Q 2488 2216 2034 2216 
z
M 1403 2484 
Q 997 2584 770 2862 
Q 544 3141 544 3541 
Q 544 4100 942 4425 
Q 1341 4750 2034 4750 
Q 2731 4750 3128 4425 
Q 3525 4100 3525 3541 
Q 3525 3141 3298 2862 
Q 3072 2584 2669 2484 
Q 3125 2378 3379 2068 
Q 3634 1759 3634 1313 
Q 3634 634 3220 271 
Q 2806 -91 2034 -91 
Q 1263 -91 848 271 
Q 434 634 434 1313 
Q 434 1759 690 2068 
Q 947 2378 1403 2484 
z
M 1172 3481 
Q 1172 3119 1398 2916 
Q 1625 2713 2034 2713 
Q 2441 2713 2670 2916 
Q 2900 3119 2900 3481 
Q 2900 3844 2670 4047 
Q 2441 4250 2034 4250 
Q 1625 4250 1398 4047 
Q 1172 3844 1172 3481 
z
" transform="scale(0.015625)"/>
       </defs>
       <use xlink:href="#DejaVuSans-30"/>
       <use xlink:href="#DejaVuSans-2e" x="63.623047"/>
       <use xlink:href="#DejaVuSans-38" x="95.410156"/>
      </g>
     </g>
    </g>
    <g id="ytick_5">
     <g id="line2d_10">
      <g>
       <use xlink:href="#m7e180329cd" x="52.76" y="51.756816" style="stroke: #000000; stroke-width: 0.8"/>
      </g>
     </g>
     <g id="text_10">
      <!-- 0.9 -->
      <g transform="translate(29.856875 55.556035) scale(0.1 -0.1)">
       <defs>
        <path id="DejaVuSans-39" d="M 703 97 
L 703 672 
Q 941 559 1184 500 
Q 1428 441 1663 441 
Q 2288 441 2617 861 
Q 2947 1281 2994 2138 
Q 2813 1869 2534 1725 
Q 2256 1581 1919 1581 
Q 1219 1581 811 2004 
Q 403 2428 403 3163 
Q 403 3881 828 4315 
Q 1253 4750 1959 4750 
Q 2769 4750 3195 4129 
Q 3622 3509 3622 2328 
Q 3622 1225 3098 567 
Q 2575 -91 1691 -91 
Q 1453 -91 1209 -44 
Q 966 3 703 97 
z
M 1959 2075 
Q 2384 2075 2632 2365 
Q 2881 2656 2881 3163 
Q 2881 3666 2632 3958 
Q 2384 4250 1959 4250 
Q 1534 4250 1286 3958 
Q 1038 3666 1038 3163 
Q 1038 2656 1286 2365 
Q 1534 2075 1959 2075 
z
" transform="scale(0.015625)"/>
       </defs>
       <use xlink:href="#DejaVuSans-30"/>
       <use xlink:href="#DejaVuSans-2e" x="63.623047"/>
       <use xlink:href="#DejaVuSans-39" x="95.410156"/>
      </g>
     </g>
    </g>
    <g id="text_11">
     <!-- ACCURACY -->
     <g transform="translate(23.36125 190.875812) rotate(-90) scale(0.12 -0.12)">
      <defs>
       <path id="DejaVuSans-41" d="M 2188 4044 
L 1331 1722 
L 3047 1722 
L 2188 4044 
z
M 1831 4666 
L 2547 4666 
L 4325 0 
L 3669 0 
L 3244 1197 
L 1141 1197 
L 716 0 
L 50 0 
L 1831 4666 
z
" transform="scale(0.015625)"/>
       <path id="DejaVuSans-43" d="M 4122 4306 
L 4122 3641 
Q 3803 3938 3442 4084 
Q 3081 4231 2675 4231 
Q 1875 4231 1450 3742 
Q 1025 3253 1025 2328 
Q 1025 1406 1450 917 
Q 1875 428 2675 428 
Q 3081 428 3442 575 
Q 3803 722 4122 1019 
L 4122 359 
Q 3791 134 3420 21 
Q 3050 -91 2638 -91 
Q 1578 -91 968 557 
Q 359 1206 359 2328 
Q 359 3453 968 4101 
Q 1578 4750 2638 4750 
Q 3056 4750 3426 4639 
Q 3797 4528 4122 4306 
z
" transform="scale(0.015625)"/>
       <path id="DejaVuSans-55" d="M 556 4666 
L 1191 4666 
L 1191 1831 
Q 1191 1081 1462 751 
Q 1734 422 2344 422 
Q 2950 422 3222 751 
Q 3494 1081 3494 1831 
L 3494 4666 
L 4128 4666 
L 4128 1753 
Q 4128 841 3676 375 
Q 3225 -91 2344 -91 
Q 1459 -91 1007 375 
Q 556 841 556 1753 
L 556 4666 
z
" transform="scale(0.015625)"/>
       <path id="DejaVuSans-52" d="M 2841 2188 
Q 3044 2119 3236 1894 
Q 3428 1669 3622 1275 
L 4263 0 
L 3584 0 
L 2988 1197 
Q 2756 1666 2539 1819 
Q 2322 1972 1947 1972 
L 1259 1972 
L 1259 0 
L 628 0 
L 628 4666 
L 2053 4666 
Q 2853 4666 3247 4331 
Q 3641 3997 3641 3322 
Q 3641 2881 3436 2590 
Q 3231 2300 2841 2188 
z
M 1259 4147 
L 1259 2491 
L 2053 2491 
Q 2509 2491 2742 2702 
Q 2975 2913 2975 3322 
Q 2975 3731 2742 3939 
Q 2509 4147 2053 4147 
L 1259 4147 
z
" transform="scale(0.015625)"/>
       <path id="DejaVuSans-59" d="M -13 4666 
L 666 4666 
L 1959 2747 
L 3244 4666 
L 3922 4666 
L 2272 2222 
L 2272 0 
L 1638 0 
L 1638 2222 
L -13 4666 
z
" transform="scale(0.015625)"/>
      </defs>
      <use xlink:href="#DejaVuSans-41"/>
      <use xlink:href="#DejaVuSans-43" x="66.658203"/>
      <use xlink:href="#DejaVuSans-43" x="136.482422"/>
      <use xlink:href="#DejaVuSans-55" x="206.306641"/>
      <use xlink:href="#DejaVuSans-52" x="279.5"/>
      <use xlink:href="#DejaVuSans-41" x="344.982422"/>
      <use xlink:href="#DejaVuSans-43" x="411.640625"/>
      <use xlink:href="#DejaVuSans-59" x="479.714844"/>
     </g>
    </g>
   </g>
   <g id="LineCollection_1">
    <path d="M 100.282288 171.486691 
L 100.282288 94.095414 
" clip-path="url(#p06a2139dd9)" style="fill: none; stroke: #000000; stroke-width: 1.5"/>
    <path d="M 176.209791 154.145802 
L 176.209791 74.849211 
" clip-path="url(#p06a2139dd9)" style="fill: none; stroke: #000000; stroke-width: 1.5"/>
    <path d="M 252.137294 172.396161 
L 252.137294 83.318963 
" clip-path="url(#p06a2139dd9)" style="fill: none; stroke: #000000; stroke-width: 1.5"/>
    <path d="M 328.064797 133.360106 
L 328.064797 58.565135 
" clip-path="url(#p06a2139dd9)" style="fill: none; stroke: #000000; stroke-width: 1.5"/>
    <path d="M 403.9923 249.599447 
L 403.9923 165.689458 
" clip-path="url(#p06a2139dd9)" style="fill: none; stroke: #000000; stroke-width: 1.5"/>
   </g>
   <g id="line2d_11">
    <defs>
     <path id="m0d744a4292" d="M 5 0 
L -5 -0 
" style="stroke: #000000"/>
    </defs>
    <g clip-path="url(#p06a2139dd9)">
     <use xlink:href="#m0d744a4292" x="100.282288" y="171.486691" style="stroke: #000000"/>
     <use xlink:href="#m0d744a4292" x="176.209791" y="154.145802" style="stroke: #000000"/>
     <use xlink:href="#m0d744a4292" x="252.137294" y="172.396161" style="stroke: #000000"/>
     <use xlink:href="#m0d744a4292" x="328.064797" y="133.360106" style="stroke: #000000"/>
     <use xlink:href="#m0d744a4292" x="403.9923" y="249.599447" style="stroke: #000000"/>
    </g>
   </g>
   <g id="line2d_12">
    <g clip-path="url(#p06a2139dd9)">
     <use xlink:href="#m0d744a4292" x="100.282288" y="94.095414" style="stroke: #000000"/>
     <use xlink:href="#m0d744a4292" x="176.209791" y="74.849211" style="stroke: #000000"/>
     <use xlink:href="#m0d744a4292" x="252.137294" y="83.318963" style="stroke: #000000"/>
     <use xlink:href="#m0d744a4292" x="328.064797" y="58.565135" style="stroke: #000000"/>
     <use xlink:href="#m0d744a4292" x="403.9923" y="165.689458" style="stroke: #000000"/>
    </g>
   </g>
   <g id="line2d_13">
    <defs>
     <path id="m319799b73a" d="M 0 5.656854 
L 5.656854 0 
L 0 -5.656854 
L -5.656854 0 
z
" style="stroke: #000000; stroke-linejoin: miter"/>
    </defs>
    <g clip-path="url(#p06a2139dd9)">
     <use xlink:href="#m319799b73a" x="100.282288" y="127.197053" style="stroke: #000000; stroke-linejoin: miter"/>
     <use xlink:href="#m319799b73a" x="176.209791" y="110.26263" style="stroke: #000000; stroke-linejoin: miter"/>
     <use xlink:href="#m319799b73a" x="252.137294" y="123.350861" style="stroke: #000000; stroke-linejoin: miter"/>
     <use xlink:href="#m319799b73a" x="328.064797" y="87.937442" style="stroke: #000000; stroke-linejoin: miter"/>
     <use xlink:href="#m319799b73a" x="403.9923" y="207.26085" style="stroke: #000000; stroke-linejoin: miter"/>
    </g>
   </g>
   <g id="patch_3">
    <path d="M 52.76 303.896 
L 52.76 12.96 
" style="fill: none; stroke: #000000; stroke-width: 0.8; stroke-linejoin: miter; stroke-linecap: square"/>
   </g>
   <g id="patch_4">
    <path d="M 447.84 303.896 
L 447.84 12.96 
" style="fill: none; stroke: #000000; stroke-width: 0.8; stroke-linejoin: miter; stroke-linecap: square"/>
   </g>
   <g id="patch_5">
    <path d="M 52.76 303.896 
L 447.84 303.896 
" style="fill: none; stroke: #000000; stroke-width: 0.8; stroke-linejoin: miter; stroke-linecap: square"/>
   </g>
   <g id="patch_6">
    <path d="M 52.76 12.96 
L 447.84 12.96 
" style="fill: none; stroke: #000000; stroke-width: 0.8; stroke-linejoin: miter; stroke-linecap: square"/>
   </g>
  </g>
 </g>
 <defs>
  <clipPath id="p06a2139dd9">
   <rect x="52.76" y="12.96" width="395.08" height="290.936"/>
  </clipPath>
 </defs>
</svg>
